<svg version="1.1" baseProfile="full" xmlns="http://www.w3.org/2000/svg" width="300" height="300" style="background: gray">
<!-- made by Harry Li github.com/harryli0088 -->
<g transform="translate(150,120)"><path fill="#F8C471" d="M-100 90C  -99.0 90.0 -98.0 90.0 -97.0 90.0 -96.0 90.0 -95.0 90.0 -94.0 90.0 -93.0 90.0 -92.0 90.0 -91.0 90.0 -90.0 90.0 -89.0 90.0 -88.0 90.0 -87.0 90.0 -86.0 90.0 -85.0 90.0 -84.0 90.0 -83.0 90.0 -82.0 90.0 -81.0 90.0 -80.0 90.0 -79.0 90.0 -78.0 90.0 -77.0 90.0 -76.0 90.0 -75.0 90.0 -74.0 90.0 -73.0 90.0 -72.0 90.0 -71.0 90.0 -70.0 90.0 -69.0 90.0 -68.0 90.0 -67.0 90.0 -66.0 90.0 -65.0 90.0 -64.0 90.0 -63.0 90.0 -62.0 90.0 -61.0 90.0 -60.0 90.0 -59.0 90.0 -58.0 90.0 -57.0 90.0 -56.0 90.0 -55.0 90.0 -54.0 90.0 -53.0 90.0 -52.0 90.0 -51.0 90.0 -50.0 90.0 -49.0 90.0 -48.0 90.0 -47.0 90.0 -46.0 90.0 -45.0 90.0 -44.0 90.0 -43.0 90.0 -42.0 90.0 -41.0 90.0 -40.0 90.0 -39.0 90.0 -38.0 90.0 -37.0 90.0 -36.0 90.0 -35.0 90.0 -34.0 90.0 -33.0 90.0 -32.0 90.0 -31.0 90.0 -30.0 90.0 -29.0 90.0 -28.0 90.0 -27.0 90.0 -26.0 90.0 -25.0 90.0 -24.0 90.0 -23.0 90.0 -22.0 90.0 -21.0 90.0 -20.0 90.0 -19.0 90.0 -18.0 90.0 -17.0 90.0 -16.0 90.0 -15.0 90.0 -14.0 90.0 -13.0 90.0 -12.0 90.0 -11.0 90.0 -10.0 90.0 -9.0 90.0 -8.0 90.0 -7.0 90.0 -6.0 90.0 -5.0 90.0 -4.0 90.0 -3.0 90.0 -2.0 90.0 -1.0 90.0 0.0 90.0 1.0 90.0 2.0 90.0 3.0 90.0 4.0 90.0 5.0 90.0 6.0 90.0 7.0 90.0 8.0 90.0 9.0 90.0 10.0 90.0 11.0 90.0 12.0 90.0 13.0 90.0 14.0 90.0 15.0 90.0 16.0 90.0 17.0 90.0 18.0 90.0 19.0 90.0 20.0 90.0 21.0 90.0 22.0 90.0 23.0 90.0 24.0 90.0 25.0 90.0 26.0 90.0 27.0 90.0 28.0 90.0 29.0 90.0 30.0 90.0 31.0 90.0 32.0 90.0 33.0 90.0 34.0 90.0 35.0 90.0 36.0 90.0 37.0 90.0 38.0 90.0 39.0 90.0 40.0 90.0 41.0 90.0 42.0 90.0 43.0 90.0 44.0 90.0 45.0 90.0 46.0 90.0 47.0 90.0 48.0 90.0 49.0 90.0 50.0 90.0 51.0 90.0 52.0 90.0 53.0 90.0 54.0 90.0 55.0 90.0 56.0 90.0 57.0 90.0 58.0 90.0 59.0 90.0 60.0 90.0 61.0 90.0 62.0 90.0 63.0 90.0 64.0 90.0 65.0 90.0 66.0 90.0 67.0 90.0 68.0 90.0 69.0 90.0 70.0 90.0 71.0 90.0 72.0 90.0 73.0 90.0 74.0 90.0 75.0 90.0 76.0 90.0 77.0 90.0 78.0 90.0 79.0 90.0 80.0 90.0 81.0 90.0 82.0 90.0 83.0 90.0 84.0 90.0 85.0 90.0 86.0 90.0 87.0 90.0 88.0 90.0 89.0 90.0 90.0 90.0 91.0 90.0 92.0 90.0 93.0 90.0 94.0 90.0 95.0 90.0 96.0 90.0 97.0 90.0 98.0 90.0 99.0 90.0 100.0 90.0 100 90 99.8 91.0 99.6 92.0 99.4 92.9 99.1 93.9 98.8 94.8 98.5 95.8 98.1 96.7 97.7 97.6 97.3 98.5 96.9 99.4 96.4 100.3 95.9 101.1 95.3 102.0 94.8 102.8 94.2 103.6 93.6 104.4 92.9 105.1 92.3 105.9 91.6 106.6 90.9 107.3 90.1 107.9 89.4 108.6 88.6 109.2 87.8 109.8 87.0 110.3 86.1 110.9 85.3 111.4 84.4 111.9 83.5 112.3 82.6 112.7 81.7 113.1 80.8 113.5 79.8 113.8 78.9 114.1 77.9 114.4 77.0 114.6 76.0 114.8 75.0 115.0 75 115 74.0 115.0 73.0 115.0 72.0 115.0 71.0 115.0 70.0 115.0 69.0 115.0 68.0 115.0 67.0 115.0 66.0 115.0 65.0 115.0 64.0 115.0 63.0 115.0 62.0 115.0 61.0 115.0 60.0 115.0 59.0 115.0 58.0 115.0 57.0 115.0 56.0 115.0 55.0 115.0 54.0 115.0 53.0 115.0 52.0 115.0 51.0 115.0 50.0 115.0 49.0 115.0 48.0 115.0 47.0 115.0 46.0 115.0 45.0 115.0 44.0 115.0 43.0 115.0 42.0 115.0 41.0 115.0 40.0 115.0 39.0 115.0 38.0 115.0 37.0 115.0 36.0 115.0 35.0 115.0 34.0 115.0 33.0 115.0 32.0 115.0 31.0 115.0 30.0 115.0 29.0 115.0 28.0 115.0 27.0 115.0 26.0 115.0 25.0 115.0 24.0 115.0 23.0 115.0 22.0 115.0 21.0 115.0 20.0 115.0 19.0 115.0 18.0 115.0 17.0 115.0 16.0 115.0 15.0 115.0 14.0 115.0 13.0 115.0 12.0 115.0 11.0 115.0 10.0 115.0 9.0 115.0 8.0 115.0 7.0 115.0 6.0 115.0 5.0 115.0 4.0 115.0 3.0 115.0 2.0 115.0 1.0 115.0 0.0 115.0 -1.0 115.0 -2.0 115.0 -3.0 115.0 -4.0 115.0 -5.0 115.0 -6.0 115.0 -7.0 115.0 -8.0 115.0 -9.0 115.0 -10.0 115.0 -11.0 115.0 -12.0 115.0 -13.0 115.0 -14.0 115.0 -15.0 115.0 -16.0 115.0 -17.0 115.0 -18.0 115.0 -19.0 115.0 -20.0 115.0 -21.0 115.0 -22.0 115.0 -23.0 115.0 -24.0 115.0 -25.0 115.0 -26.0 115.0 -27.0 115.0 -28.0 115.0 -29.0 115.0 -30.0 115.0 -31.0 115.0 -32.0 115.0 -33.0 115.0 -34.0 115.0 -35.0 115.0 -36.0 115.0 -37.0 115.0 -38.0 115.0 -39.0 115.0 -40.0 115.0 -41.0 115.0 -42.0 115.0 -43.0 115.0 -44.0 115.0 -45.0 115.0 -46.0 115.0 -47.0 115.0 -48.0 115.0 -49.0 115.0 -50.0 115.0 -51.0 115.0 -52.0 115.0 -53.0 115.0 -54.0 115.0 -55.0 115.0 -56.0 115.0 -57.0 115.0 -58.0 115.0 -59.0 115.0 -60.0 115.0 -61.0 115.0 -62.0 115.0 -63.0 115.0 -64.0 115.0 -65.0 115.0 -66.0 115.0 -67.0 115.0 -68.0 115.0 -69.0 115.0 -70.0 115.0 -71.0 115.0 -72.0 115.0 -73.0 115.0 -74.0 115.0 -75.0 115.0 -75 115 -76.0 114.8 -77.0 114.6 -77.9 114.4 -78.9 114.1 -79.8 113.8 -80.8 113.5 -81.7 113.1 -82.6 112.7 -83.5 112.3 -84.4 111.9 -85.3 111.4 -86.1 110.9 -87.0 110.3 -87.8 109.8 -88.6 109.2 -89.4 108.6 -90.1 107.9 -90.9 107.3 -91.6 106.6 -92.3 105.9 -92.9 105.1 -93.6 104.4 -94.2 103.6 -94.8 102.8 -95.3 102.0 -95.9 101.1 -96.4 100.3 -96.9 99.4 -97.3 98.5 -97.7 97.6 -98.1 96.7 -98.5 95.8 -98.8 94.8 -99.1 93.9 -99.4 92.9 -99.6 92.0 -99.8 91.0 -100.0 90.0 -100 90 Z"></path><path fill="#F8C471" d="M-100 0C  -99.0 0.0 -98.0 0.0 -97.0 0.0 -96.0 0.0 -95.0 0.0 -94.0 0.0 -93.0 0.0 -92.0 0.0 -91.0 0.0 -90.0 0.0 -89.0 0.0 -88.0 0.0 -87.0 0.0 -86.0 0.0 -85.0 0.0 -84.0 0.0 -83.0 0.0 -82.0 0.0 -81.0 0.0 -80.0 0.0 -79.0 0.0 -78.0 0.0 -77.0 0.0 -76.0 0.0 -75.0 0.0 -74.0 0.0 -73.0 0.0 -72.0 0.0 -71.0 0.0 -70.0 0.0 -69.0 0.0 -68.0 0.0 -67.0 0.0 -66.0 0.0 -65.0 0.0 -64.0 0.0 -63.0 0.0 -62.0 0.0 -61.0 0.0 -60.0 0.0 -59.0 0.0 -58.0 0.0 -57.0 0.0 -56.0 0.0 -55.0 0.0 -54.0 0.0 -53.0 0.0 -52.0 0.0 -51.0 0.0 -50.0 0.0 -49.0 0.0 -48.0 0.0 -47.0 0.0 -46.0 0.0 -45.0 0.0 -44.0 0.0 -43.0 0.0 -42.0 0.0 -41.0 0.0 -40.0 0.0 -39.0 0.0 -38.0 0.0 -37.0 0.0 -36.0 0.0 -35.0 0.0 -34.0 0.0 -33.0 0.0 -32.0 0.0 -31.0 0.0 -30.0 0.0 -29.0 0.0 -28.0 0.0 -27.0 0.0 -26.0 0.0 -25.0 0.0 -24.0 0.0 -23.0 0.0 -22.0 0.0 -21.0 0.0 -20.0 0.0 -19.0 0.0 -18.0 0.0 -17.0 0.0 -16.0 0.0 -15.0 0.0 -14.0 0.0 -13.0 0.0 -12.0 0.0 -11.0 0.0 -10.0 0.0 -9.0 0.0 -8.0 0.0 -7.0 0.0 -6.0 0.0 -5.0 0.0 -4.0 0.0 -3.0 0.0 -2.0 0.0 -1.0 0.0 0.0 0.0 1.0 0.0 2.0 0.0 3.0 0.0 4.0 0.0 5.0 0.0 6.0 0.0 7.0 0.0 8.0 0.0 9.0 0.0 10.0 0.0 11.0 0.0 12.0 0.0 13.0 0.0 14.0 0.0 15.0 0.0 16.0 0.0 17.0 0.0 18.0 0.0 19.0 0.0 20.0 0.0 21.0 0.0 22.0 0.0 23.0 0.0 24.0 0.0 25.0 0.0 26.0 0.0 27.0 0.0 28.0 0.0 29.0 0.0 30.0 0.0 31.0 0.0 32.0 0.0 33.0 0.0 34.0 0.0 35.0 0.0 36.0 0.0 37.0 0.0 38.0 0.0 39.0 0.0 40.0 0.0 41.0 0.0 42.0 0.0 43.0 0.0 44.0 0.0 45.0 0.0 46.0 0.0 47.0 0.0 48.0 0.0 49.0 0.0 50.0 0.0 51.0 0.0 52.0 0.0 53.0 0.0 54.0 0.0 55.0 0.0 56.0 0.0 57.0 0.0 58.0 0.0 59.0 0.0 60.0 0.0 61.0 0.0 62.0 0.0 63.0 0.0 64.0 0.0 65.0 0.0 66.0 0.0 67.0 0.0 68.0 0.0 69.0 0.0 70.0 0.0 71.0 0.0 72.0 0.0 73.0 0.0 74.0 0.0 75.0 0.0 76.0 0.0 77.0 0.0 78.0 0.0 79.0 0.0 80.0 0.0 81.0 0.0 82.0 0.0 83.0 0.0 84.0 0.0 85.0 0.0 86.0 0.0 87.0 0.0 88.0 0.0 89.0 0.0 90.0 0.0 91.0 0.0 92.0 0.0 93.0 0.0 94.0 0.0 95.0 0.0 96.0 0.0 97.0 0.0 98.0 0.0 99.0 0.0 100.0 0.0 100 0 99.9 -1.0 99.8 -2.0 99.7 -3.0 99.6 -4.0 99.4 -5.0 99.2 -6.0 99.0 -6.9 98.8 -7.9 98.6 -8.9 98.3 -9.9 98.1 -10.8 97.8 -11.8 97.4 -12.7 97.1 -13.7 96.8 -14.6 96.4 -15.6 96.0 -16.5 95.6 -17.4 95.2 -18.3 94.7 -19.2 94.3 -20.1 93.8 -21.0 93.3 -21.8 92.8 -22.7 92.2 -23.6 91.7 -24.4 91.1 -25.2 90.6 -26.0 90.0 -26.8 89.3 -27.6 88.7 -28.4 88.1 -29.2 87.4 -29.9 86.7 -30.7 86.0 -31.4 85.3 -32.1 84.6 -32.8 83.9 -33.5 83.1 -34.2 82.4 -34.8 81.6 -35.5 80.8 -36.1 80.0 -36.7 79.2 -37.3 78.4 -37.9 77.6 -38.4 76.7 -39.0 75.9 -39.5 75.0 -40.0 75 -40 74.1 -40.5 73.3 -41.0 72.4 -41.5 71.5 -42.0 70.6 -42.4 69.7 -42.9 68.9 -43.4 68.0 -43.8 67.1 -44.3 66.2 -44.7 65.3 -45.1 64.4 -45.6 63.5 -46.0 62.6 -46.4 61.6 -46.8 60.7 -47.2 59.8 -47.7 58.9 -48.0 58.0 -48.4 57.1 -48.8 56.1 -49.2 55.2 -49.6 54.3 -49.9 53.3 -50.3 52.4 -50.6 51.5 -51.0 50.5 -51.3 49.6 -51.7 48.6 -52.0 47.7 -52.3 46.7 -52.6 45.8 -52.9 44.8 -53.2 43.9 -53.5 42.9 -53.8 42.0 -54.1 41.0 -54.4 40.0 -54.7 39.1 -54.9 38.1 -55.2 37.1 -55.4 36.2 -55.7 35.2 -55.9 34.2 -56.1 33.2 -56.4 32.3 -56.6 31.3 -56.8 30.3 -57.0 29.3 -57.2 28.3 -57.4 27.4 -57.6 26.4 -57.8 25.4 -57.9 24.4 -58.1 23.4 -58.3 22.4 -58.4 21.4 -58.6 20.4 -58.7 19.5 -58.8 18.5 -59.0 17.5 -59.1 16.5 -59.2 15.5 -59.3 14.5 -59.4 13.5 -59.5 12.5 -59.6 11.5 -59.7 10.5 -59.7 9.5 -59.8 8.5 -59.9 7.5 -59.9 6.5 -60.0 5.5 -60.0 4.5 -60.0 3.5 -60.1 2.5 -60.1 1.5 -60.1 0.5 -60.1 -0.5 -60.1 -1.5 -60.1 -2.5 -60.1 -3.5 -60.1 -4.5 -60.0 -5.5 -60.0 -6.5 -60.0 -7.5 -59.9 -8.5 -59.9 -9.5 -59.8 -10.5 -59.7 -11.5 -59.7 -12.5 -59.6 -13.5 -59.5 -14.5 -59.4 -15.5 -59.3 -16.5 -59.2 -17.5 -59.1 -18.5 -59.0 -19.5 -58.8 -20.4 -58.7 -21.4 -58.6 -22.4 -58.4 -23.4 -58.3 -24.4 -58.1 -25.4 -57.9 -26.4 -57.8 -27.4 -57.6 -28.3 -57.4 -29.3 -57.2 -30.3 -57.0 -31.3 -56.8 -32.3 -56.6 -33.2 -56.4 -34.2 -56.1 -35.2 -55.9 -36.2 -55.7 -37.1 -55.4 -38.1 -55.2 -39.1 -54.9 -40.0 -54.7 -41.0 -54.4 -42.0 -54.1 -42.9 -53.8 -43.9 -53.5 -44.8 -53.2 -45.8 -52.9 -46.7 -52.6 -47.7 -52.3 -48.6 -52.0 -49.6 -51.7 -50.5 -51.3 -51.5 -51.0 -52.4 -50.6 -53.3 -50.3 -54.3 -49.9 -55.2 -49.6 -56.1 -49.2 -57.1 -48.8 -58.0 -48.4 -58.9 -48.0 -59.8 -47.7 -60.7 -47.2 -61.6 -46.8 -62.6 -46.4 -63.5 -46.0 -64.4 -45.6 -65.3 -45.1 -66.2 -44.7 -67.1 -44.3 -68.0 -43.8 -68.9 -43.4 -69.7 -42.9 -70.6 -42.4 -71.5 -42.0 -72.4 -41.5 -73.3 -41.0 -74.1 -40.5 -75.0 -40.0 -75 -40 -75.9 -39.5 -76.7 -39.0 -77.6 -38.4 -78.4 -37.9 -79.2 -37.3 -80.0 -36.7 -80.8 -36.1 -81.6 -35.5 -82.4 -34.8 -83.1 -34.2 -83.9 -33.5 -84.6 -32.8 -85.3 -32.1 -86.0 -31.4 -86.7 -30.7 -87.4 -29.9 -88.1 -29.2 -88.7 -28.4 -89.3 -27.6 -90.0 -26.8 -90.6 -26.0 -91.1 -25.2 -91.7 -24.4 -92.2 -23.6 -92.8 -22.7 -93.3 -21.8 -93.8 -21.0 -94.3 -20.1 -94.7 -19.2 -95.2 -18.3 -95.6 -17.4 -96.0 -16.5 -96.4 -15.6 -96.8 -14.6 -97.1 -13.7 -97.4 -12.7 -97.8 -11.8 -98.1 -10.8 -98.3 -9.9 -98.6 -8.9 -98.8 -7.9 -99.0 -6.9 -99.2 -6.0 -99.4 -5.0 -99.6 -4.0 -99.7 -3.0 -99.8 -2.0 -99.9 -1.0 -100.0 -0.0 -100 0 Z"></path><rect x="-95" y="0" width="190" height="20" fill="red"></rect><path fill="#7C2A01" d="M-100 55C  -99.0 55.0 -98.0 55.0 -97.0 55.4 -96.0 55.0 -95.0 55.1 -94.0 54.6 -93.0 55.1 -92.0 54.6 -91.0 54.9 -90.0 55.0 -89.0 54.8 -88.0 55.4 -87.0 55.2 -86.0 55.3 -85.0 55.3 -84.0 55.4 -83.0 55.0 -82.0 54.9 -81.0 54.7 -80.0 54.6 -79.0 54.6 -78.0 54.6 -77.0 54.8 -76.0 54.6 -75.0 55.4 -74.0 54.9 -73.0 54.5 -72.0 54.5 -71.0 54.5 -70.0 55.2 -69.0 55.2 -68.0 55.2 -67.0 54.8 -66.0 54.9 -65.0 55.4 -64.0 54.6 -63.0 55.5 -62.0 54.6 -61.0 55.3 -60.0 54.9 -59.0 55.1 -58.0 55.1 -57.0 54.7 -56.0 54.6 -55.0 55.1 -54.0 55.0 -53.0 55.3 -52.0 55.5 -51.0 55.1 -50.0 55.5 -49.0 54.5 -48.0 55.2 -47.0 55.2 -46.0 55.1 -45.0 55.2 -44.0 55.0 -43.0 54.6 -42.0 55.1 -41.0 54.8 -40.0 55.2 -39.0 54.9 -38.0 55.5 -37.0 54.5 -36.0 55.0 -35.0 54.5 -34.0 55.2 -33.0 55.0 -32.0 54.7 -31.0 55.3 -30.0 55.3 -29.0 54.9 -28.0 55.3 -27.0 55.5 -26.0 54.6 -25.0 55.5 -24.0 54.6 -23.0 54.7 -22.0 54.9 -21.0 55.3 -20.0 54.5 -19.0 54.9 -18.0 55.1 -17.0 55.0 -16.0 54.6 -15.0 54.6 -14.0 55.0 -13.0 55.5 -12.0 55.2 -11.0 55.2 -10.0 55.1 -9.0 55.3 -8.0 54.9 -7.0 55.4 -6.0 55.3 -5.0 55.1 -4.0 55.4 -3.0 54.8 -2.0 54.9 -1.0 54.9 0.0 55.3 1.0 55.0 2.0 54.5 3.0 55.2 4.0 54.9 5.0 55.0 6.0 55.4 7.0 55.1 8.0 54.6 9.0 55.0 10.0 55.1 11.0 55.5 12.0 55.2 13.0 55.3 14.0 54.7 15.0 54.7 16.0 55.1 17.0 55.0 18.0 54.6 19.0 54.9 20.0 55.5 21.0 55.0 22.0 54.6 23.0 55.1 24.0 54.6 25.0 54.8 26.0 54.5 27.0 54.9 28.0 55.4 29.0 55.4 30.0 54.8 31.0 55.1 32.0 55.0 33.0 55.3 34.0 54.6 35.0 55.2 36.0 55.4 37.0 54.9 38.0 55.0 39.0 55.4 40.0 54.8 41.0 54.6 42.0 54.7 43.0 55.3 44.0 55.3 45.0 55.3 46.0 54.6 47.0 55.5 48.0 55.0 49.0 54.5 50.0 54.8 51.0 55.1 52.0 54.8 53.0 54.7 54.0 55.0 55.0 55.4 56.0 54.9 57.0 54.7 58.0 54.8 59.0 55.5 60.0 55.2 61.0 55.4 62.0 54.7 63.0 55.3 64.0 55.3 65.0 55.4 66.0 55.3 67.0 54.8 68.0 55.2 69.0 54.5 70.0 54.7 71.0 55.2 72.0 55.1 73.0 54.6 74.0 55.2 75.0 54.6 76.0 55.2 77.0 54.9 78.0 55.3 79.0 54.5 80.0 55.2 81.0 55.0 82.0 54.5 83.0 55.5 84.0 55.2 85.0 54.6 86.0 55.4 87.0 55.4 88.0 54.6 89.0 54.9 90.0 54.8 91.0 55.4 92.0 54.7 93.0 55.1 94.0 54.6 95.0 55.0 96.0 55.4 97.0 55.5 98.0 54.7 99.0 54.8 100.0 54.7 100 55 101.1 54.9 101.8 54.1 102.3 53.1 103.1 52.5 103.8 51.9 104.4 51.1 105.5 50.7 106.2 50.0 106.6 49.1 107.2 48.3 107.0 47.0 107.8 46.3 107.8 45.2 108.7 44.5 108.8 43.5 108.8 42.5 109.2 41.5 109.2 40.5 109.0 39.5 108.6 38.5 108.8 37.5 108.5 36.6 108.6 35.5 108.0 34.7 107.9 33.7 107.4 32.8 106.5 32.1 106.7 30.9 105.7 30.3 105.6 29.2 104.8 28.5 103.9 28.0 103.1 27.4 102.5 26.7 101.8 25.9 101.0 25.2 99.9 25.2 100 25 99.0 25.5 98.0 24.7 97.0 25.3 96.0 24.5 95.0 25.1 94.0 24.7 93.0 24.6 92.0 25.0 91.0 24.5 90.0 24.7 89.0 25.1 88.0 24.7 87.0 24.7 86.0 25.0 85.0 25.2 84.0 24.9 83.0 24.6 82.0 24.9 81.0 25.1 80.0 24.5 79.0 24.6 78.0 24.8 77.0 25.2 76.0 25.4 75.0 25.3 74.0 24.5 73.0 24.7 72.0 25.0 71.0 24.8 70.0 24.6 69.0 24.9 68.0 25.3 67.0 25.1 66.0 24.7 65.0 24.8 64.0 25.0 63.0 25.4 62.0 24.7 61.0 24.8 60.0 25.3 59.0 24.6 58.0 24.9 57.0 25.2 56.0 25.2 55.0 24.8 54.0 24.7 53.0 25.4 52.0 25.3 51.0 24.8 50.0 24.7 49.0 25.0 48.0 24.5 47.0 25.3 46.0 24.9 45.0 24.6 44.0 24.9 43.0 25.1 42.0 25.4 41.0 24.9 40.0 24.6 39.0 25.2 38.0 25.3 37.0 24.8 36.0 25.1 35.0 25.3 34.0 24.7 33.0 24.7 32.0 24.9 31.0 25.0 30.0 25.2 29.0 25.4 28.0 25.4 27.0 24.7 26.0 24.7 25.0 25.0 24.0 25.3 23.0 25.5 22.0 25.4 21.0 24.7 20.0 24.8 19.0 25.0 18.0 25.4 17.0 25.3 16.0 25.3 15.0 24.9 14.0 25.1 13.0 25.1 12.0 25.3 11.0 24.6 10.0 25.0 9.0 25.3 8.0 25.5 7.0 24.8 6.0 25.3 5.0 25.2 4.0 24.5 3.0 25.3 2.0 25.3 1.0 24.9 0.0 24.7 -1.0 24.8 -2.0 25.1 -3.0 24.7 -4.0 25.3 -5.0 25.5 -6.0 24.7 -7.0 24.5 -8.0 25.3 -9.0 25.1 -10.0 24.8 -11.0 25.4 -12.0 24.8 -13.0 25.1 -14.0 25.1 -15.0 25.2 -16.0 25.5 -17.0 25.4 -18.0 24.7 -19.0 24.7 -20.0 24.6 -21.0 25.4 -22.0 25.4 -23.0 25.0 -24.0 24.9 -25.0 24.9 -26.0 25.1 -27.0 25.3 -28.0 25.4 -29.0 25.4 -30.0 24.7 -31.0 25.1 -32.0 24.7 -33.0 24.6 -34.0 25.5 -35.0 24.8 -36.0 24.7 -37.0 25.3 -38.0 24.7 -39.0 25.3 -40.0 24.9 -41.0 25.2 -42.0 24.6 -43.0 24.9 -44.0 24.7 -45.0 25.0 -46.0 24.7 -47.0 24.6 -48.0 25.4 -49.0 24.5 -50.0 25.1 -51.0 24.8 -52.0 25.0 -53.0 24.8 -54.0 25.4 -55.0 24.7 -56.0 25.3 -57.0 24.7 -58.0 24.5 -59.0 24.5 -60.0 25.5 -61.0 24.9 -62.0 25.4 -63.0 24.6 -64.0 25.3 -65.0 25.0 -66.0 24.8 -67.0 24.8 -68.0 24.5 -69.0 25.0 -70.0 24.6 -71.0 25.4 -72.0 24.8 -73.0 24.8 -74.0 25.1 -75.0 25.5 -76.0 25.1 -77.0 24.6 -78.0 24.7 -79.0 24.8 -80.0 24.6 -81.0 25.3 -82.0 24.9 -83.0 25.0 -84.0 24.9 -85.0 24.5 -86.0 24.6 -87.0 25.2 -88.0 25.4 -89.0 25.5 -90.0 24.8 -91.0 25.3 -92.0 24.7 -93.0 25.5 -94.0 25.2 -95.0 24.7 -96.0 25.0 -97.0 25.0 -98.0 24.8 -99.0 25.2 -100.0 24.6 -100 25 -100.9 25.5 -101.6 26.2 -102.7 26.4 -103.1 27.5 -104.1 27.8 -104.4 28.9 -105.4 29.3 -106.2 30.0 -106.3 31.1 -106.7 32.1 -107.2 32.9 -107.8 33.7 -108.3 34.6 -108.4 35.6 -108.7 36.5 -109.2 37.4 -108.5 38.6 -108.7 39.5 -109.3 40.5 -109.1 41.5 -109.1 42.5 -108.3 43.4 -108.6 44.5 -108.4 45.5 -107.4 46.1 -107.8 47.4 -106.9 48.1 -106.3 48.9 -106.2 50.0 -105.2 50.5 -104.3 51.1 -103.9 51.9 -103.2 52.7 -102.4 53.2 -101.5 53.7 -100.9 54.6 -99.9 54.9 -100 55 Z" transform="translate(0,35)"></path><path fill="#FFF300" d="M-100 55C  -90.0 55.0 -80.0 55.0 -70.0 55.0 -60.0 55.0 -50.0 55.0 -40.0 55.0 -30.0 55.0 -20.0 55.0 -10.0 55.0 0.0 55.0 10.0 55.0 20.0 55.0 30.0 55.0 40.0 55.0 50.0 55.0 60.0 55.0 70.0 55.0 80.0 55.0 90.0 55.0 100.0 55.0 100 55 100.0 60.0 100 60 90.0 60.0 80.0 60.0 70.0 60.0 60.0 60.0 50.0 60.0 40.0 60.0 30.0 60.0 20.0 60.0 10.0 60.0 0.0 60.0 -10.0 60.0 -20.0 60.0 -20 60 -30.0 65.0 -40.0 70.0 -40 70 -50.0 65.0 -60.0 60.0 -60 60 -70.0 60.0 -80.0 60.0 -90.0 60.0 -100.0 60.0 -100 60 -100.0 55.0 -100 55 Z"></path><path fill="#7C2A01" d="M-100 55C  -99.0 55.1 -98.0 55.4 -97.0 55.3 -96.0 55.1 -95.0 55.1 -94.0 54.9 -93.0 55.4 -92.0 54.6 -91.0 54.9 -90.0 55.1 -89.0 55.0 -88.0 54.9 -87.0 54.9 -86.0 54.9 -85.0 55.1 -84.0 54.9 -83.0 54.8 -82.0 55.2 -81.0 55.1 -80.0 55.0 -79.0 55.2 -78.0 55.1 -77.0 54.7 -76.0 55.4 -75.0 55.1 -74.0 55.4 -73.0 54.8 -72.0 54.9 -71.0 55.3 -70.0 55.0 -69.0 55.3 -68.0 55.0 -67.0 54.8 -66.0 55.3 -65.0 55.2 -64.0 55.3 -63.0 54.6 -62.0 54.5 -61.0 54.9 -60.0 54.8 -59.0 55.2 -58.0 55.2 -57.0 54.9 -56.0 54.9 -55.0 55.0 -54.0 55.2 -53.0 54.8 -52.0 54.7 -51.0 55.0 -50.0 55.1 -49.0 55.3 -48.0 54.6 -47.0 55.3 -46.0 54.6 -45.0 55.4 -44.0 54.8 -43.0 54.7 -42.0 55.3 -41.0 55.1 -40.0 55.3 -39.0 55.3 -38.0 55.2 -37.0 55.4 -36.0 55.1 -35.0 54.9 -34.0 55.3 -33.0 55.0 -32.0 54.6 -31.0 54.8 -30.0 55.1 -29.0 55.2 -28.0 55.2 -27.0 55.1 -26.0 55.2 -25.0 54.9 -24.0 55.1 -23.0 54.5 -22.0 54.9 -21.0 55.4 -20.0 55.1 -19.0 54.6 -18.0 55.3 -17.0 54.6 -16.0 55.1 -15.0 54.7 -14.0 54.7 -13.0 54.6 -12.0 55.2 -11.0 55.3 -10.0 55.5 -9.0 55.1 -8.0 54.8 -7.0 55.3 -6.0 54.9 -5.0 54.6 -4.0 54.7 -3.0 54.8 -2.0 54.8 -1.0 55.5 0.0 54.8 1.0 54.6 2.0 55.0 3.0 55.0 4.0 55.2 5.0 54.7 6.0 54.8 7.0 55.2 8.0 54.8 9.0 55.1 10.0 55.2 11.0 54.6 12.0 55.0 13.0 55.2 14.0 55.2 15.0 54.7 16.0 55.3 17.0 55.1 18.0 54.8 19.0 55.2 20.0 55.3 21.0 55.1 22.0 55.0 23.0 54.6 24.0 54.9 25.0 55.4 26.0 54.8 27.0 54.6 28.0 54.6 29.0 54.7 30.0 54.9 31.0 55.1 32.0 54.6 33.0 55.0 34.0 54.8 35.0 55.4 36.0 54.8 37.0 55.5 38.0 54.9 39.0 54.6 40.0 54.9 41.0 55.4 42.0 55.2 43.0 54.6 44.0 54.8 45.0 54.9 46.0 55.3 47.0 55.0 48.0 55.3 49.0 54.6 50.0 55.2 51.0 55.4 52.0 54.9 53.0 54.8 54.0 55.1 55.0 54.9 56.0 55.3 57.0 54.8 58.0 54.5 59.0 55.2 60.0 55.0 61.0 55.2 62.0 55.2 63.0 55.0 64.0 54.7 65.0 54.8 66.0 55.5 67.0 55.1 68.0 54.8 69.0 54.9 70.0 55.1 71.0 55.4 72.0 54.5 73.0 55.5 74.0 54.8 75.0 55.4 76.0 54.8 77.0 54.7 78.0 54.5 79.0 55.2 80.0 55.4 81.0 55.0 82.0 55.4 83.0 54.8 84.0 55.3 85.0 54.7 86.0 55.3 87.0 55.1 88.0 54.5 89.0 54.5 90.0 54.9 91.0 54.6 92.0 55.0 93.0 54.7 94.0 54.8 95.0 54.5 96.0 54.8 97.0 54.5 98.0 55.4 99.0 54.6 100.0 55.4 100 55 101.0 54.7 101.4 53.6 102.8 53.8 103.1 52.5 104.2 52.3 105.0 51.6 105.3 50.6 105.9 49.8 106.5 49.0 107.1 48.2 107.5 47.2 107.8 46.3 108.4 45.5 108.8 44.5 108.6 43.5 108.8 42.5 108.7 41.5 108.6 40.5 109.1 39.5 109.4 38.5 108.6 37.6 108.7 36.5 108.1 35.7 108.3 34.6 107.4 33.9 107.5 32.8 107.1 31.8 106.1 31.2 106.0 30.2 105.6 29.2 104.4 28.9 104.1 27.8 103.0 27.5 102.5 26.7 101.9 25.8 100.8 25.6 99.9 25.1 100 25 99.0 24.9 98.0 25.4 97.0 25.4 96.0 25.3 95.0 24.9 94.0 25.4 93.0 24.9 92.0 25.2 91.0 25.1 90.0 25.2 89.0 25.3 88.0 25.5 87.0 24.6 86.0 25.0 85.0 24.9 84.0 24.6 83.0 25.4 82.0 25.4 81.0 25.4 80.0 25.3 79.0 25.0 78.0 25.2 77.0 24.9 76.0 25.1 75.0 25.2 74.0 24.7 73.0 24.7 72.0 25.3 71.0 25.4 70.0 25.0 69.0 25.0 68.0 25.5 67.0 24.7 66.0 25.0 65.0 25.1 64.0 24.6 63.0 24.5 62.0 24.9 61.0 25.2 60.0 25.2 59.0 25.0 58.0 24.8 57.0 25.1 56.0 24.6 55.0 25.3 54.0 25.3 53.0 25.1 52.0 24.7 51.0 25.4 50.0 24.7 49.0 25.1 48.0 25.0 47.0 24.6 46.0 24.9 45.0 25.0 44.0 25.2 43.0 24.9 42.0 25.1 41.0 24.8 40.0 24.8 39.0 24.7 38.0 25.0 37.0 24.6 36.0 24.8 35.0 25.1 34.0 24.7 33.0 25.1 32.0 24.5 31.0 25.4 30.0 24.7 29.0 25.5 28.0 25.3 27.0 25.5 26.0 24.6 25.0 25.4 24.0 25.1 23.0 25.1 22.0 25.1 21.0 24.6 20.0 24.8 19.0 24.6 18.0 24.6 17.0 25.1 16.0 24.8 15.0 25.2 14.0 25.4 13.0 25.4 12.0 24.6 11.0 25.1 10.0 25.4 9.0 25.0 8.0 25.4 7.0 25.0 6.0 24.9 5.0 24.5 4.0 24.5 3.0 25.4 2.0 25.4 1.0 24.7 0.0 25.1 -1.0 25.1 -2.0 25.2 -3.0 24.6 -4.0 25.3 -5.0 25.1 -6.0 25.4 -7.0 24.9 -8.0 25.2 -9.0 24.6 -10.0 25.1 -11.0 25.2 -12.0 24.7 -13.0 25.4 -14.0 25.2 -15.0 25.3 -16.0 25.0 -17.0 25.1 -18.0 24.8 -19.0 25.3 -20.0 25.2 -21.0 25.0 -22.0 25.1 -23.0 24.6 -24.0 25.3 -25.0 25.2 -26.0 25.0 -27.0 25.0 -28.0 24.8 -29.0 25.5 -30.0 25.2 -31.0 25.3 -32.0 25.4 -33.0 25.3 -34.0 24.8 -35.0 25.3 -36.0 25.0 -37.0 24.6 -38.0 24.7 -39.0 25.2 -40.0 24.8 -41.0 25.0 -42.0 24.7 -43.0 25.4 -44.0 25.0 -45.0 25.4 -46.0 25.3 -47.0 24.8 -48.0 25.2 -49.0 25.4 -50.0 25.0 -51.0 24.9 -52.0 24.6 -53.0 24.8 -54.0 25.3 -55.0 25.3 -56.0 25.1 -57.0 25.2 -58.0 24.8 -59.0 25.3 -60.0 25.3 -61.0 25.5 -62.0 24.9 -63.0 25.1 -64.0 24.9 -65.0 24.6 -66.0 25.0 -67.0 25.3 -68.0 25.2 -69.0 25.4 -70.0 24.7 -71.0 24.6 -72.0 24.5 -73.0 25.3 -74.0 25.2 -75.0 24.8 -76.0 24.8 -77.0 25.2 -78.0 24.9 -79.0 24.7 -80.0 24.9 -81.0 25.4 -82.0 24.7 -83.0 24.8 -84.0 24.7 -85.0 24.7 -86.0 25.3 -87.0 24.9 -88.0 24.9 -89.0 24.5 -90.0 25.3 -91.0 25.1 -92.0 24.8 -93.0 24.7 -94.0 24.8 -95.0 24.8 -96.0 25.0 -97.0 25.3 -98.0 24.7 -99.0 25.2 -100.0 25.4 -100 25 -100.9 25.5 -101.5 26.3 -102.7 26.3 -103.0 27.6 -104.3 27.6 -105.0 28.3 -105.6 29.2 -106.2 30.0 -106.8 30.8 -107.2 31.8 -107.3 32.8 -108.2 33.5 -108.6 34.5 -107.9 35.7 -109.0 36.5 -108.6 37.6 -109.4 38.5 -108.6 39.5 -109.0 40.5 -109.3 41.5 -109.2 42.5 -108.4 43.4 -108.0 44.3 -107.7 45.2 -107.4 46.2 -107.7 47.4 -106.7 48.0 -106.2 48.8 -106.3 50.1 -105.6 50.8 -104.8 51.5 -104.0 52.1 -103.5 53.0 -102.5 53.3 -101.9 54.3 -100.7 54.3 -100.1 55.1 -100 55 Z"></path><path fill="#8BEA18" d="M-100 20C  -99.0 19.7 -98.0 20.2 -97.0 20.2 -96.0 19.8 -95.0 20.2 -94.0 20.2 -93.0 19.6 -92.0 20.4 -91.0 20.2 -90.0 19.8 -89.0 19.6 -88.0 19.6 -87.0 20.1 -86.0 20.3 -85.0 19.7 -84.0 20.3 -83.0 20.4 -82.0 20.1 -81.0 20.3 -80.0 19.8 -79.0 19.8 -78.0 20.0 -77.0 19.5 -76.0 20.3 -75.0 20.0 -74.0 19.7 -73.0 19.8 -72.0 20.0 -71.0 19.7 -70.0 20.1 -69.0 19.5 -68.0 20.4 -67.0 19.6 -66.0 19.7 -65.0 20.2 -64.0 20.3 -63.0 20.0 -62.0 20.4 -61.0 20.0 -60.0 19.5 -59.0 19.9 -58.0 20.3 -57.0 20.3 -56.0 19.7 -55.0 20.1 -54.0 19.7 -53.0 19.6 -52.0 19.9 -51.0 19.6 -50.0 20.4 -49.0 19.6 -48.0 19.7 -47.0 19.8 -46.0 20.0 -45.0 19.9 -44.0 20.1 -43.0 20.5 -42.0 20.3 -41.0 20.3 -40.0 20.0 -39.0 19.6 -38.0 19.5 -37.0 19.6 -36.0 19.9 -35.0 20.4 -34.0 20.0 -33.0 20.5 -32.0 20.0 -31.0 19.8 -30.0 20.4 -29.0 20.4 -28.0 19.5 -27.0 19.8 -26.0 20.1 -25.0 20.1 -24.0 19.6 -23.0 19.5 -22.0 19.7 -21.0 20.0 -20.0 19.5 -19.0 19.6 -18.0 20.0 -17.0 19.5 -16.0 20.3 -15.0 20.1 -14.0 19.6 -13.0 20.3 -12.0 19.9 -11.0 20.2 -10.0 20.1 -9.0 20.3 -8.0 19.9 -7.0 19.9 -6.0 19.6 -5.0 19.9 -4.0 19.7 -3.0 20.0 -2.0 20.0 -1.0 20.1 0.0 19.7 1.0 19.7 2.0 19.7 3.0 20.1 4.0 19.9 5.0 20.1 6.0 20.0 7.0 20.3 8.0 19.6 9.0 19.6 10.0 20.4 11.0 20.2 12.0 19.7 13.0 20.3 14.0 19.7 15.0 19.9 16.0 20.0 17.0 19.7 18.0 20.3 19.0 20.5 20.0 20.4 21.0 20.2 22.0 20.3 23.0 19.5 24.0 19.5 25.0 20.3 26.0 19.6 27.0 20.4 28.0 20.3 29.0 20.5 30.0 20.1 31.0 20.0 32.0 20.4 33.0 20.3 34.0 19.6 35.0 19.8 36.0 19.6 37.0 20.0 38.0 20.4 39.0 19.9 40.0 19.8 41.0 20.1 42.0 20.3 43.0 19.9 44.0 20.4 45.0 19.6 46.0 20.2 47.0 20.4 48.0 19.5 49.0 20.0 50.0 19.9 51.0 19.6 52.0 19.6 53.0 19.7 54.0 20.1 55.0 20.3 56.0 20.0 57.0 20.1 58.0 19.9 59.0 19.6 60.0 19.5 61.0 19.5 62.0 20.4 63.0 19.7 64.0 20.1 65.0 20.2 66.0 19.7 67.0 20.0 68.0 19.5 69.0 20.2 70.0 20.0 71.0 20.0 72.0 20.0 73.0 19.7 74.0 19.8 75.0 20.3 76.0 20.5 77.0 20.5 78.0 19.8 79.0 19.9 80.0 19.9 81.0 20.3 82.0 19.9 83.0 19.6 84.0 20.5 85.0 20.4 86.0 19.6 87.0 20.5 88.0 19.7 89.0 20.0 90.0 20.2 91.0 19.5 92.0 19.6 93.0 20.0 94.0 19.7 95.0 19.8 96.0 19.5 97.0 20.3 98.0 19.8 99.0 19.6 100.0 19.9 100 20 100.9 20.6 101.3 21.5 101.8 22.5 102.3 23.4 102.1 24.5 101.8 25.5 101.7 26.5 101.8 27.5 101.0 28.3 101.0 29.5 99.7 29.8 100 30 99.2 30.7 98.1 30.5 97.1 30.8 96.1 30.8 95.2 31.6 94.1 30.9 93.2 31.9 92.1 31.3 91.2 31.7 90.2 32.0 89.2 32.4 88.2 31.6 87.2 32.3 86.2 31.9 85.2 32.0 84.2 32.4 83.2 31.7 82.2 31.5 81.2 32.3 80.3 31.5 79.3 31.2 78.3 31.2 77.3 31.4 76.3 31.2 75.2 31.4 74.3 30.8 73.4 30.4 72.3 30.5 71.3 30.3 71.42857142857143 30 70.4 29.9 69.4 29.8 68.6 29.1 67.5 29.4 66.7 28.4 65.6 28.5 64.6 28.7 63.7 28.1 62.7 28.0 61.6 28.5 60.6 27.9 59.7 27.7 58.6 28.0 57.6 28.0 56.6 28.0 55.7 28.4 54.6 27.9 53.6 27.7 52.7 28.2 51.7 28.5 50.7 28.3 49.7 28.4 48.8 29.1 47.6 28.5 46.8 29.5 45.8 29.3 44.7 29.0 43.8 29.6 42.9 30.3 42.85714285714286 30 41.9 30.4 41.0 30.7 39.8 30.3 39.1 31.4 38.1 31.5 37.0 31.1 36.1 31.9 35.1 32.1 34.0 31.5 33.1 31.9 32.1 32.2 31.1 32.0 30.1 32.2 29.1 31.7 28.1 31.9 27.1 32.2 26.1 32.2 25.1 31.9 24.1 31.6 23.1 32.0 22.1 31.6 21.1 31.6 20.2 30.9 19.1 31.1 18.1 31.4 17.2 30.9 16.3 30.2 15.3 30.0 14.4 29.8 14.285714285714288 30 13.4 29.5 12.4 29.3 11.4 29.1 10.5 28.8 9.5 28.5 8.5 28.2 7.5 28.0 6.4 28.6 5.5 28.3 4.5 28.5 3.5 28.5 2.5 28.4 1.5 27.6 0.5 28.1 -0.5 27.5 -1.5 27.6 -2.5 28.3 -3.5 27.6 -4.5 27.8 -5.5 28.5 -6.5 27.9 -7.4 28.8 -8.5 28.6 -9.5 28.6 -10.4 29.1 -11.4 29.1 -12.4 29.2 -13.2 30.1 -14.2 30.2 -14.285714285714285 30 -15.2 30.6 -16.2 30.4 -17.2 30.6 -18.1 31.3 -19.2 30.9 -20.1 31.3 -21.0 31.9 -22.1 31.9 -23.1 31.7 -24.1 32.0 -25.0 32.4 -26.1 32.0 -27.1 31.9 -28.1 31.9 -29.1 32.3 -30.1 32.3 -31.1 32.3 -32.1 32.1 -33.1 32.0 -34.0 31.5 -35.0 31.6 -36.0 31.3 -37.1 31.5 -37.9 30.9 -38.9 30.7 -40.1 31.2 -40.9 30.5 -41.8 30.1 -42.9 30.0 -42.85714285714286 30 -43.8 29.6 -44.7 29.2 -45.8 29.4 -46.7 28.8 -47.7 28.6 -48.6 28.2 -49.8 28.9 -50.7 28.4 -51.7 28.7 -52.7 28.2 -53.7 28.5 -54.7 28.1 -55.6 27.8 -56.6 28.2 -57.6 28.0 -58.6 28.1 -59.7 27.7 -60.7 27.7 -61.7 27.7 -62.7 28.0 -63.6 28.7 -64.6 28.9 -65.7 28.3 -66.5 29.2 -67.6 29.0 -68.6 28.9 -69.4 29.8 -70.4 30.1 -71.5 29.7 -71.42857142857143 30 -72.5 29.9 -73.4 30.5 -74.4 30.4 -75.2 31.2 -76.3 30.9 -77.3 31.3 -78.2 32.0 -79.2 31.8 -80.3 31.4 -81.2 32.2 -82.2 32.3 -83.2 31.9 -84.2 31.8 -85.2 32.4 -86.2 32.1 -87.2 32.0 -88.2 32.2 -89.2 31.5 -90.2 32.0 -91.2 32.0 -92.2 31.7 -93.2 31.6 -94.1 31.0 -95.1 30.9 -96.2 31.4 -97.1 30.6 -98.2 30.9 -99.0 30.3 -100.1 30.4 -100 30 -100.3 29.0 -100.8 28.1 -101.7 27.5 -102.1 26.5 -102.5 25.6 -102.1 24.5 -102.0 23.5 -101.2 22.7 -101.4 21.5 -100.7 20.7 -100.1 19.9 -100 20 Z"></path></g></svg>
