<svg version="1.1" baseProfile="full" xmlns="http://www.w3.org/2000/svg" width="300" height="300" style="background: gray">
<!-- made by Harry Li github.com/harryli0088 -->
<g transform="translate(150,120)"><path fill="#F8C471" d="M-100 90C  -99.00 90.00 -98.00 90.00 -97.00 90.00 -96.00 90.00 -95.00 90.00 -94.00 90.00 -93.00 90.00 -92.00 90.00 -91.00 90.00 -90.00 90.00 -89.00 90.00 -88.00 90.00 -87.00 90.00 -86.00 90.00 -85.00 90.00 -84.00 90.00 -83.00 90.00 -82.00 90.00 -81.00 90.00 -80.00 90.00 -79.00 90.00 -78.00 90.00 -77.00 90.00 -76.00 90.00 -75.00 90.00 -74.00 90.00 -73.00 90.00 -72.00 90.00 -71.00 90.00 -70.00 90.00 -69.00 90.00 -68.00 90.00 -67.00 90.00 -66.00 90.00 -65.00 90.00 -64.00 90.00 -63.00 90.00 -62.00 90.00 -61.00 90.00 -60.00 90.00 -59.00 90.00 -58.00 90.00 -57.00 90.00 -56.00 90.00 -55.00 90.00 -54.00 90.00 -53.00 90.00 -52.00 90.00 -51.00 90.00 -50.00 90.00 -49.00 90.00 -48.00 90.00 -47.00 90.00 -46.00 90.00 -45.00 90.00 -44.00 90.00 -43.00 90.00 -42.00 90.00 -41.00 90.00 -40.00 90.00 -39.00 90.00 -38.00 90.00 -37.00 90.00 -36.00 90.00 -35.00 90.00 -34.00 90.00 -33.00 90.00 -32.00 90.00 -31.00 90.00 -30.00 90.00 -29.00 90.00 -28.00 90.00 -27.00 90.00 -26.00 90.00 -25.00 90.00 -24.00 90.00 -23.00 90.00 -22.00 90.00 -21.00 90.00 -20.00 90.00 -19.00 90.00 -18.00 90.00 -17.00 90.00 -16.00 90.00 -15.00 90.00 -14.00 90.00 -13.00 90.00 -12.00 90.00 -11.00 90.00 -10.00 90.00 -9.00 90.00 -8.00 90.00 -7.00 90.00 -6.00 90.00 -5.00 90.00 -4.00 90.00 -3.00 90.00 -2.00 90.00 -1.00 90.00 0.00 90.00 1.00 90.00 2.00 90.00 3.00 90.00 4.00 90.00 5.00 90.00 6.00 90.00 7.00 90.00 8.00 90.00 9.00 90.00 10.00 90.00 11.00 90.00 12.00 90.00 13.00 90.00 14.00 90.00 15.00 90.00 16.00 90.00 17.00 90.00 18.00 90.00 19.00 90.00 20.00 90.00 21.00 90.00 22.00 90.00 23.00 90.00 24.00 90.00 25.00 90.00 26.00 90.00 27.00 90.00 28.00 90.00 29.00 90.00 30.00 90.00 31.00 90.00 32.00 90.00 33.00 90.00 34.00 90.00 35.00 90.00 36.00 90.00 37.00 90.00 38.00 90.00 39.00 90.00 40.00 90.00 41.00 90.00 42.00 90.00 43.00 90.00 44.00 90.00 45.00 90.00 46.00 90.00 47.00 90.00 48.00 90.00 49.00 90.00 50.00 90.00 51.00 90.00 52.00 90.00 53.00 90.00 54.00 90.00 55.00 90.00 56.00 90.00 57.00 90.00 58.00 90.00 59.00 90.00 60.00 90.00 61.00 90.00 62.00 90.00 63.00 90.00 64.00 90.00 65.00 90.00 66.00 90.00 67.00 90.00 68.00 90.00 69.00 90.00 70.00 90.00 71.00 90.00 72.00 90.00 73.00 90.00 74.00 90.00 75.00 90.00 76.00 90.00 77.00 90.00 78.00 90.00 79.00 90.00 80.00 90.00 81.00 90.00 82.00 90.00 83.00 90.00 84.00 90.00 85.00 90.00 86.00 90.00 87.00 90.00 88.00 90.00 89.00 90.00 90.00 90.00 91.00 90.00 92.00 90.00 93.00 90.00 94.00 90.00 95.00 90.00 96.00 90.00 97.00 90.00 98.00 90.00 99.00 90.00 100.00 90.00 100 90 99.83 90.98 99.63 91.95 99.39 92.92 99.13 93.88 98.83 94.83 98.50 95.77 98.14 96.69 97.75 97.61 97.33 98.51 96.87 99.40 96.39 100.27 95.89 101.12 95.35 101.96 94.78 102.78 94.19 103.58 93.58 104.36 92.93 105.12 92.27 105.86 91.57 106.57 90.86 107.27 90.12 107.93 89.36 108.58 88.58 109.19 87.78 109.78 86.96 110.35 86.12 110.89 85.27 111.39 84.40 111.87 83.51 112.33 82.61 112.75 81.69 113.14 80.77 113.50 79.83 113.83 78.88 114.13 77.92 114.39 76.95 114.63 75.98 114.83 75.00 115.00 75 115 74.00 115.00 73.00 115.00 72.00 115.00 71.00 115.00 70.00 115.00 69.00 115.00 68.00 115.00 67.00 115.00 66.00 115.00 65.00 115.00 64.00 115.00 63.00 115.00 62.00 115.00 61.00 115.00 60.00 115.00 59.00 115.00 58.00 115.00 57.00 115.00 56.00 115.00 55.00 115.00 54.00 115.00 53.00 115.00 52.00 115.00 51.00 115.00 50.00 115.00 49.00 115.00 48.00 115.00 47.00 115.00 46.00 115.00 45.00 115.00 44.00 115.00 43.00 115.00 42.00 115.00 41.00 115.00 40.00 115.00 39.00 115.00 38.00 115.00 37.00 115.00 36.00 115.00 35.00 115.00 34.00 115.00 33.00 115.00 32.00 115.00 31.00 115.00 30.00 115.00 29.00 115.00 28.00 115.00 27.00 115.00 26.00 115.00 25.00 115.00 24.00 115.00 23.00 115.00 22.00 115.00 21.00 115.00 20.00 115.00 19.00 115.00 18.00 115.00 17.00 115.00 16.00 115.00 15.00 115.00 14.00 115.00 13.00 115.00 12.00 115.00 11.00 115.00 10.00 115.00 9.00 115.00 8.00 115.00 7.00 115.00 6.00 115.00 5.00 115.00 4.00 115.00 3.00 115.00 2.00 115.00 1.00 115.00 0.00 115.00 -1.00 115.00 -2.00 115.00 -3.00 115.00 -4.00 115.00 -5.00 115.00 -6.00 115.00 -7.00 115.00 -8.00 115.00 -9.00 115.00 -10.00 115.00 -11.00 115.00 -12.00 115.00 -13.00 115.00 -14.00 115.00 -15.00 115.00 -16.00 115.00 -17.00 115.00 -18.00 115.00 -19.00 115.00 -20.00 115.00 -21.00 115.00 -22.00 115.00 -23.00 115.00 -24.00 115.00 -25.00 115.00 -26.00 115.00 -27.00 115.00 -28.00 115.00 -29.00 115.00 -30.00 115.00 -31.00 115.00 -32.00 115.00 -33.00 115.00 -34.00 115.00 -35.00 115.00 -36.00 115.00 -37.00 115.00 -38.00 115.00 -39.00 115.00 -40.00 115.00 -41.00 115.00 -42.00 115.00 -43.00 115.00 -44.00 115.00 -45.00 115.00 -46.00 115.00 -47.00 115.00 -48.00 115.00 -49.00 115.00 -50.00 115.00 -51.00 115.00 -52.00 115.00 -53.00 115.00 -54.00 115.00 -55.00 115.00 -56.00 115.00 -57.00 115.00 -58.00 115.00 -59.00 115.00 -60.00 115.00 -61.00 115.00 -62.00 115.00 -63.00 115.00 -64.00 115.00 -65.00 115.00 -66.00 115.00 -67.00 115.00 -68.00 115.00 -69.00 115.00 -70.00 115.00 -71.00 115.00 -72.00 115.00 -73.00 115.00 -74.00 115.00 -75.00 115.00 -75 115 -75.98 114.83 -76.95 114.63 -77.92 114.39 -78.88 114.13 -79.83 113.83 -80.77 113.50 -81.69 113.14 -82.61 112.75 -83.51 112.33 -84.40 111.87 -85.27 111.39 -86.12 110.89 -86.96 110.35 -87.78 109.78 -88.58 109.19 -89.36 108.58 -90.12 107.93 -90.86 107.27 -91.57 106.57 -92.27 105.86 -92.93 105.12 -93.58 104.36 -94.19 103.58 -94.78 102.78 -95.35 101.96 -95.89 101.12 -96.39 100.27 -96.87 99.40 -97.33 98.51 -97.75 97.61 -98.14 96.69 -98.50 95.77 -98.83 94.83 -99.13 93.88 -99.39 92.92 -99.63 91.95 -99.83 90.98 -100.00 90.00 -100 90 Z"></path><path fill="#F8C471" d="M-100 0C  -99.00 0.00 -98.00 0.00 -97.00 0.00 -96.00 0.00 -95.00 0.00 -94.00 0.00 -93.00 0.00 -92.00 0.00 -91.00 0.00 -90.00 0.00 -89.00 0.00 -88.00 0.00 -87.00 0.00 -86.00 0.00 -85.00 0.00 -84.00 0.00 -83.00 0.00 -82.00 0.00 -81.00 0.00 -80.00 0.00 -79.00 0.00 -78.00 0.00 -77.00 0.00 -76.00 0.00 -75.00 0.00 -74.00 0.00 -73.00 0.00 -72.00 0.00 -71.00 0.00 -70.00 0.00 -69.00 0.00 -68.00 0.00 -67.00 0.00 -66.00 0.00 -65.00 0.00 -64.00 0.00 -63.00 0.00 -62.00 0.00 -61.00 0.00 -60.00 0.00 -59.00 0.00 -58.00 0.00 -57.00 0.00 -56.00 0.00 -55.00 0.00 -54.00 0.00 -53.00 0.00 -52.00 0.00 -51.00 0.00 -50.00 0.00 -49.00 0.00 -48.00 0.00 -47.00 0.00 -46.00 0.00 -45.00 0.00 -44.00 0.00 -43.00 0.00 -42.00 0.00 -41.00 0.00 -40.00 0.00 -39.00 0.00 -38.00 0.00 -37.00 0.00 -36.00 0.00 -35.00 0.00 -34.00 0.00 -33.00 0.00 -32.00 0.00 -31.00 0.00 -30.00 0.00 -29.00 0.00 -28.00 0.00 -27.00 0.00 -26.00 0.00 -25.00 0.00 -24.00 0.00 -23.00 0.00 -22.00 0.00 -21.00 0.00 -20.00 0.00 -19.00 0.00 -18.00 0.00 -17.00 0.00 -16.00 0.00 -15.00 0.00 -14.00 0.00 -13.00 0.00 -12.00 0.00 -11.00 0.00 -10.00 0.00 -9.00 0.00 -8.00 0.00 -7.00 0.00 -6.00 0.00 -5.00 0.00 -4.00 0.00 -3.00 0.00 -2.00 0.00 -1.00 0.00 0.00 0.00 1.00 0.00 2.00 0.00 3.00 0.00 4.00 0.00 5.00 0.00 6.00 0.00 7.00 0.00 8.00 0.00 9.00 0.00 10.00 0.00 11.00 0.00 12.00 0.00 13.00 0.00 14.00 0.00 15.00 0.00 16.00 0.00 17.00 0.00 18.00 0.00 19.00 0.00 20.00 0.00 21.00 0.00 22.00 0.00 23.00 0.00 24.00 0.00 25.00 0.00 26.00 0.00 27.00 0.00 28.00 0.00 29.00 0.00 30.00 0.00 31.00 0.00 32.00 0.00 33.00 0.00 34.00 0.00 35.00 0.00 36.00 0.00 37.00 0.00 38.00 0.00 39.00 0.00 40.00 0.00 41.00 0.00 42.00 0.00 43.00 0.00 44.00 0.00 45.00 0.00 46.00 0.00 47.00 0.00 48.00 0.00 49.00 0.00 50.00 0.00 51.00 0.00 52.00 0.00 53.00 0.00 54.00 0.00 55.00 0.00 56.00 0.00 57.00 0.00 58.00 0.00 59.00 0.00 60.00 0.00 61.00 0.00 62.00 0.00 63.00 0.00 64.00 0.00 65.00 0.00 66.00 0.00 67.00 0.00 68.00 0.00 69.00 0.00 70.00 0.00 71.00 0.00 72.00 0.00 73.00 0.00 74.00 0.00 75.00 0.00 76.00 0.00 77.00 0.00 78.00 0.00 79.00 0.00 80.00 0.00 81.00 0.00 82.00 0.00 83.00 0.00 84.00 0.00 85.00 0.00 86.00 0.00 87.00 0.00 88.00 0.00 89.00 0.00 90.00 0.00 91.00 0.00 92.00 0.00 93.00 0.00 94.00 0.00 95.00 0.00 96.00 0.00 97.00 0.00 98.00 0.00 99.00 0.00 100.00 0.00 100 0 99.92 -1.00 99.82 -2.00 99.71 -2.99 99.57 -3.99 99.41 -4.98 99.24 -5.96 99.04 -6.95 98.82 -7.92 98.59 -8.90 98.33 -9.87 98.06 -10.83 97.76 -11.79 97.45 -12.74 97.11 -13.69 96.76 -14.63 96.39 -15.56 96.00 -16.48 95.60 -17.40 95.17 -18.31 94.73 -19.21 94.27 -20.10 93.79 -20.98 93.29 -21.85 92.78 -22.71 92.25 -23.56 91.70 -24.40 91.13 -25.22 90.55 -26.04 89.95 -26.85 89.34 -27.64 88.71 -28.42 88.07 -29.19 87.40 -29.94 86.73 -30.68 86.04 -31.41 85.34 -32.12 84.62 -32.82 83.88 -33.51 83.14 -34.17 82.38 -34.83 81.61 -35.47 80.82 -36.09 80.02 -36.70 79.22 -37.29 78.39 -37.87 77.56 -38.43 76.72 -38.97 75.86 -39.49 75.00 -40.00 75 -40 74.13 -40.50 73.26 -40.99 72.39 -41.47 71.51 -41.95 70.63 -42.43 69.74 -42.90 68.86 -43.36 67.96 -43.82 67.07 -44.27 66.18 -44.71 65.28 -45.15 64.37 -45.58 63.47 -46.01 62.56 -46.43 61.65 -46.84 60.74 -47.25 59.82 -47.65 58.90 -48.05 57.98 -48.44 57.06 -48.82 56.13 -49.20 55.20 -49.57 54.27 -49.94 53.33 -50.29 52.40 -50.65 51.46 -50.99 50.52 -51.33 49.58 -51.67 48.63 -51.99 47.68 -52.32 46.73 -52.63 45.78 -52.94 44.83 -53.24 43.87 -53.54 42.91 -53.83 41.95 -54.11 40.99 -54.39 40.03 -54.66 39.06 -54.92 38.10 -55.18 37.13 -55.43 36.16 -55.67 35.19 -55.91 34.21 -56.14 33.24 -56.37 32.26 -56.59 31.28 -56.80 30.31 -57.00 29.32 -57.20 28.34 -57.39 27.36 -57.58 26.38 -57.76 25.39 -57.93 24.40 -58.10 23.42 -58.26 22.43 -58.41 21.44 -58.56 20.45 -58.70 19.45 -58.83 18.46 -58.96 17.47 -59.08 16.48 -59.19 15.48 -59.30 14.48 -59.40 13.49 -59.49 12.49 -59.58 11.49 -59.66 10.50 -59.73 9.50 -59.80 8.50 -59.86 7.50 -59.91 6.50 -59.96 5.50 -60.00 4.50 -60.03 3.50 -60.06 2.50 -60.08 1.50 -60.09 0.50 -60.10 -0.50 -60.10 -1.50 -60.09 -2.50 -60.08 -3.50 -60.06 -4.50 -60.03 -5.50 -60.00 -6.50 -59.96 -7.50 -59.91 -8.50 -59.86 -9.50 -59.80 -10.50 -59.73 -11.49 -59.66 -12.49 -59.58 -13.49 -59.49 -14.48 -59.40 -15.48 -59.30 -16.48 -59.19 -17.47 -59.08 -18.46 -58.96 -19.45 -58.83 -20.45 -58.70 -21.44 -58.56 -22.43 -58.41 -23.42 -58.26 -24.40 -58.10 -25.39 -57.93 -26.38 -57.76 -27.36 -57.58 -28.34 -57.39 -29.32 -57.20 -30.31 -57.00 -31.28 -56.80 -32.26 -56.59 -33.24 -56.37 -34.21 -56.14 -35.19 -55.91 -36.16 -55.67 -37.13 -55.43 -38.10 -55.18 -39.06 -54.92 -40.03 -54.66 -40.99 -54.39 -41.95 -54.11 -42.91 -53.83 -43.87 -53.54 -44.83 -53.24 -45.78 -52.94 -46.73 -52.63 -47.68 -52.32 -48.63 -51.99 -49.58 -51.67 -50.52 -51.33 -51.46 -50.99 -52.40 -50.65 -53.33 -50.29 -54.27 -49.94 -55.20 -49.57 -56.13 -49.20 -57.06 -48.82 -57.98 -48.44 -58.90 -48.05 -59.82 -47.65 -60.74 -47.25 -61.65 -46.84 -62.56 -46.43 -63.47 -46.01 -64.37 -45.58 -65.28 -45.15 -66.18 -44.71 -67.07 -44.27 -67.96 -43.82 -68.86 -43.36 -69.74 -42.90 -70.63 -42.43 -71.51 -41.95 -72.39 -41.47 -73.26 -40.99 -74.13 -40.50 -75.00 -40.00 -75 -40 -75.86 -39.49 -76.72 -38.97 -77.56 -38.43 -78.39 -37.87 -79.22 -37.29 -80.02 -36.70 -80.82 -36.09 -81.61 -35.47 -82.38 -34.83 -83.14 -34.17 -83.88 -33.51 -84.62 -32.82 -85.34 -32.12 -86.04 -31.41 -86.73 -30.68 -87.40 -29.94 -88.07 -29.19 -88.71 -28.42 -89.34 -27.64 -89.95 -26.85 -90.55 -26.04 -91.13 -25.22 -91.70 -24.40 -92.25 -23.56 -92.78 -22.71 -93.29 -21.85 -93.79 -20.98 -94.27 -20.10 -94.73 -19.21 -95.17 -18.31 -95.60 -17.40 -96.00 -16.48 -96.39 -15.56 -96.76 -14.63 -97.11 -13.69 -97.45 -12.74 -97.76 -11.79 -98.06 -10.83 -98.33 -9.87 -98.59 -8.90 -98.82 -7.92 -99.04 -6.95 -99.24 -5.96 -99.41 -4.98 -99.57 -3.99 -99.71 -2.99 -99.82 -2.00 -99.92 -1.00 -100.00 -0.00 -100 0 Z"></path><rect x="-95" y="0" width="190" height="20" fill="red"></rect><path fill="#7C2A01" d="M-100 55C  -99.00 54.74 -98.00 55.33 -97.00 54.60 -96.00 55.37 -95.00 55.08 -94.00 54.95 -93.00 55.24 -92.00 55.33 -91.00 54.88 -90.00 54.73 -89.00 55.03 -88.00 54.99 -87.00 54.93 -86.00 54.64 -85.00 54.88 -84.00 55.10 -83.00 55.28 -82.00 55.23 -81.00 55.11 -80.00 54.84 -79.00 55.29 -78.00 55.19 -77.00 54.61 -76.00 54.61 -75.00 55.48 -74.00 54.59 -73.00 55.00 -72.00 55.03 -71.00 54.58 -70.00 55.45 -69.00 55.10 -68.00 54.95 -67.00 54.74 -66.00 55.38 -65.00 54.90 -64.00 55.48 -63.00 54.83 -62.00 55.27 -61.00 55.21 -60.00 55.05 -59.00 55.20 -58.00 55.37 -57.00 55.45 -56.00 55.17 -55.00 55.17 -54.00 55.26 -53.00 54.60 -52.00 54.89 -51.00 54.87 -50.00 54.75 -49.00 55.29 -48.00 55.50 -47.00 54.58 -46.00 54.85 -45.00 54.55 -44.00 55.13 -43.00 54.55 -42.00 55.35 -41.00 55.46 -40.00 54.53 -39.00 55.31 -38.00 55.21 -37.00 54.64 -36.00 54.98 -35.00 55.38 -34.00 55.17 -33.00 54.72 -32.00 55.08 -31.00 54.88 -30.00 54.60 -29.00 55.00 -28.00 55.20 -27.00 55.30 -26.00 54.60 -25.00 54.95 -24.00 54.68 -23.00 54.79 -22.00 54.80 -21.00 54.98 -20.00 55.16 -19.00 54.60 -18.00 55.31 -17.00 55.25 -16.00 55.08 -15.00 55.43 -14.00 54.56 -13.00 55.17 -12.00 55.46 -11.00 55.14 -10.00 55.19 -9.00 55.11 -8.00 55.25 -7.00 55.39 -6.00 54.55 -5.00 55.11 -4.00 55.16 -3.00 54.70 -2.00 55.01 -1.00 55.02 0.00 54.64 1.00 55.18 2.00 54.56 3.00 55.01 4.00 55.21 5.00 54.68 6.00 54.54 7.00 54.53 8.00 54.94 9.00 55.21 10.00 54.84 11.00 54.89 12.00 54.93 13.00 54.68 14.00 55.45 15.00 54.67 16.00 54.95 17.00 54.58 18.00 55.35 19.00 55.06 20.00 55.32 21.00 54.70 22.00 55.35 23.00 55.11 24.00 54.54 25.00 55.44 26.00 55.20 27.00 55.28 28.00 55.28 29.00 55.43 30.00 54.79 31.00 55.29 32.00 54.82 33.00 55.08 34.00 54.98 35.00 54.83 36.00 55.09 37.00 54.80 38.00 55.39 39.00 54.52 40.00 55.43 41.00 54.93 42.00 54.87 43.00 54.55 44.00 54.58 45.00 54.73 46.00 54.53 47.00 54.88 48.00 54.58 49.00 55.24 50.00 54.88 51.00 54.91 52.00 55.20 53.00 54.93 54.00 54.67 55.00 54.55 56.00 55.43 57.00 55.36 58.00 55.10 59.00 55.03 60.00 55.20 61.00 55.50 62.00 55.30 63.00 55.42 64.00 55.20 65.00 54.57 66.00 55.40 67.00 55.23 68.00 54.57 69.00 54.76 70.00 55.00 71.00 55.09 72.00 55.30 73.00 55.38 74.00 55.39 75.00 55.45 76.00 54.73 77.00 55.17 78.00 54.74 79.00 54.81 80.00 55.24 81.00 55.39 82.00 54.64 83.00 55.28 84.00 55.47 85.00 54.97 86.00 54.66 87.00 55.41 88.00 55.35 89.00 54.95 90.00 55.22 91.00 55.07 92.00 54.91 93.00 54.98 94.00 54.87 95.00 54.94 96.00 55.07 97.00 55.24 98.00 55.45 99.00 54.97 100.00 55.03 100 55 100.63 54.09 101.65 53.90 102.55 53.45 103.13 52.58 104.14 52.23 104.97 51.63 105.53 50.77 105.66 49.61 106.58 49.05 107.10 48.19 107.64 47.34 107.63 46.23 108.55 45.52 108.16 44.34 108.48 43.41 108.54 42.43 109.23 41.52 109.44 40.52 108.98 39.50 108.77 38.52 108.46 37.57 109.00 36.49 108.52 35.56 108.37 34.56 107.53 33.79 107.76 32.63 107.39 31.68 106.75 30.86 105.51 30.47 105.49 29.28 105.02 28.36 103.88 28.03 103.31 27.20 102.46 26.67 101.67 26.07 100.63 25.85 99.92 25.13 100 25 99.00 25.07 98.00 25.13 97.00 24.67 96.00 25.06 95.00 25.10 94.00 24.77 93.00 24.92 92.00 24.88 91.00 25.10 90.00 24.76 89.00 24.77 88.00 24.62 87.00 24.71 86.00 25.40 85.00 25.05 84.00 24.65 83.00 25.02 82.00 25.21 81.00 24.52 80.00 24.93 79.00 25.25 78.00 24.91 77.00 24.97 76.00 25.06 75.00 25.10 74.00 25.20 73.00 25.29 72.00 24.75 71.00 25.14 70.00 24.87 69.00 24.57 68.00 25.22 67.00 25.33 66.00 24.92 65.00 24.84 64.00 24.79 63.00 25.43 62.00 25.10 61.00 25.26 60.00 25.41 59.00 25.09 58.00 25.00 57.00 24.63 56.00 25.46 55.00 25.12 54.00 25.45 53.00 25.30 52.00 24.66 51.00 25.17 50.00 24.62 49.00 24.68 48.00 25.09 47.00 25.34 46.00 25.41 45.00 25.38 44.00 24.98 43.00 25.28 42.00 24.77 41.00 25.36 40.00 25.41 39.00 25.10 38.00 25.35 37.00 24.73 36.00 24.79 35.00 24.71 34.00 25.33 33.00 25.17 32.00 24.66 31.00 25.26 30.00 24.84 29.00 25.16 28.00 24.58 27.00 25.26 26.00 25.28 25.00 25.41 24.00 25.43 23.00 25.25 22.00 25.01 21.00 24.88 20.00 24.79 19.00 25.30 18.00 25.18 17.00 24.90 16.00 24.80 15.00 24.63 14.00 24.51 13.00 25.45 12.00 24.52 11.00 25.44 10.00 25.30 9.00 25.31 8.00 25.34 7.00 25.37 6.00 24.83 5.00 25.06 4.00 24.83 3.00 25.48 2.00 24.96 1.00 24.74 0.00 25.35 -1.00 25.44 -2.00 25.01 -3.00 25.32 -4.00 25.14 -5.00 25.33 -6.00 25.20 -7.00 24.90 -8.00 25.00 -9.00 25.47 -10.00 25.03 -11.00 25.22 -12.00 24.94 -13.00 24.63 -14.00 25.43 -15.00 24.63 -16.00 24.55 -17.00 24.81 -18.00 25.09 -19.00 25.27 -20.00 25.40 -21.00 24.54 -22.00 24.61 -23.00 24.88 -24.00 24.63 -25.00 24.58 -26.00 24.88 -27.00 24.98 -28.00 25.08 -29.00 24.91 -30.00 25.48 -31.00 25.36 -32.00 24.55 -33.00 24.98 -34.00 25.12 -35.00 24.69 -36.00 25.13 -37.00 24.58 -38.00 24.82 -39.00 25.30 -40.00 25.49 -41.00 25.09 -42.00 25.43 -43.00 24.81 -44.00 24.61 -45.00 25.43 -46.00 24.58 -47.00 25.31 -48.00 25.18 -49.00 24.51 -50.00 25.28 -51.00 25.41 -52.00 24.81 -53.00 24.72 -54.00 25.00 -55.00 25.00 -56.00 24.94 -57.00 24.83 -58.00 24.92 -59.00 25.22 -60.00 25.20 -61.00 24.63 -62.00 24.83 -63.00 24.87 -64.00 24.67 -65.00 24.99 -66.00 24.89 -67.00 24.95 -68.00 24.98 -69.00 25.43 -70.00 25.22 -71.00 25.34 -72.00 24.92 -73.00 24.78 -74.00 25.08 -75.00 24.60 -76.00 24.54 -77.00 24.85 -78.00 24.95 -79.00 25.12 -80.00 25.02 -81.00 25.49 -82.00 25.11 -83.00 25.21 -84.00 24.56 -85.00 24.93 -86.00 24.93 -87.00 24.96 -88.00 24.72 -89.00 25.49 -90.00 25.13 -91.00 25.42 -92.00 24.73 -93.00 24.51 -94.00 24.70 -95.00 24.92 -96.00 25.38 -97.00 25.12 -98.00 24.73 -99.00 24.78 -100.00 24.62 -100 25 -101.08 25.10 -101.43 26.44 -102.62 26.45 -103.02 27.55 -103.84 28.09 -104.43 28.88 -105.33 29.40 -106.18 30.00 -106.07 31.29 -106.71 32.04 -107.22 32.88 -107.77 33.71 -108.47 34.51 -107.94 35.72 -108.33 36.62 -108.52 37.58 -109.03 38.50 -109.02 39.50 -109.44 40.50 -108.75 41.48 -108.45 42.43 -108.92 43.50 -108.25 44.38 -108.51 45.48 -107.96 46.36 -107.35 47.19 -107.10 48.18 -106.86 49.20 -106.11 49.93 -104.94 50.31 -104.93 51.56 -103.85 51.93 -103.37 52.86 -102.36 53.21 -101.83 54.14 -100.70 54.26 -100.08 55.15 -100 55 Z" transform="translate(0,35)"></path><path fill="#FFF300" d="M-100 55C  -99.00 55.00 -98.00 55.00 -97.00 55.00 -96.00 55.00 -95.00 55.00 -94.00 55.00 -93.00 55.00 -92.00 55.00 -91.00 55.00 -90.00 55.00 -89.00 55.00 -88.00 55.00 -87.00 55.00 -86.00 55.00 -85.00 55.00 -84.00 55.00 -83.00 55.00 -82.00 55.00 -81.00 55.00 -80.00 55.00 -79.00 55.00 -78.00 55.00 -77.00 55.00 -76.00 55.00 -75.00 55.00 -74.00 55.00 -73.00 55.00 -72.00 55.00 -71.00 55.00 -70.00 55.00 -69.00 55.00 -68.00 55.00 -67.00 55.00 -66.00 55.00 -65.00 55.00 -64.00 55.00 -63.00 55.00 -62.00 55.00 -61.00 55.00 -60.00 55.00 -59.00 55.00 -58.00 55.00 -57.00 55.00 -56.00 55.00 -55.00 55.00 -54.00 55.00 -53.00 55.00 -52.00 55.00 -51.00 55.00 -50.00 55.00 -49.00 55.00 -48.00 55.00 -47.00 55.00 -46.00 55.00 -45.00 55.00 -44.00 55.00 -43.00 55.00 -42.00 55.00 -41.00 55.00 -40.00 55.00 -39.00 55.00 -38.00 55.00 -37.00 55.00 -36.00 55.00 -35.00 55.00 -34.00 55.00 -33.00 55.00 -32.00 55.00 -31.00 55.00 -30.00 55.00 -29.00 55.00 -28.00 55.00 -27.00 55.00 -26.00 55.00 -25.00 55.00 -24.00 55.00 -23.00 55.00 -22.00 55.00 -21.00 55.00 -20.00 55.00 -19.00 55.00 -18.00 55.00 -17.00 55.00 -16.00 55.00 -15.00 55.00 -14.00 55.00 -13.00 55.00 -12.00 55.00 -11.00 55.00 -10.00 55.00 -9.00 55.00 -8.00 55.00 -7.00 55.00 -6.00 55.00 -5.00 55.00 -4.00 55.00 -3.00 55.00 -2.00 55.00 -1.00 55.00 0.00 55.00 1.00 55.00 2.00 55.00 3.00 55.00 4.00 55.00 5.00 55.00 6.00 55.00 7.00 55.00 8.00 55.00 9.00 55.00 10.00 55.00 11.00 55.00 12.00 55.00 13.00 55.00 14.00 55.00 15.00 55.00 16.00 55.00 17.00 55.00 18.00 55.00 19.00 55.00 20.00 55.00 21.00 55.00 22.00 55.00 23.00 55.00 24.00 55.00 25.00 55.00 26.00 55.00 27.00 55.00 28.00 55.00 29.00 55.00 30.00 55.00 31.00 55.00 32.00 55.00 33.00 55.00 34.00 55.00 35.00 55.00 36.00 55.00 37.00 55.00 38.00 55.00 39.00 55.00 40.00 55.00 41.00 55.00 42.00 55.00 43.00 55.00 44.00 55.00 45.00 55.00 46.00 55.00 47.00 55.00 48.00 55.00 49.00 55.00 50.00 55.00 51.00 55.00 52.00 55.00 53.00 55.00 54.00 55.00 55.00 55.00 56.00 55.00 57.00 55.00 58.00 55.00 59.00 55.00 60.00 55.00 61.00 55.00 62.00 55.00 63.00 55.00 64.00 55.00 65.00 55.00 66.00 55.00 67.00 55.00 68.00 55.00 69.00 55.00 70.00 55.00 71.00 55.00 72.00 55.00 73.00 55.00 74.00 55.00 75.00 55.00 76.00 55.00 77.00 55.00 78.00 55.00 79.00 55.00 80.00 55.00 81.00 55.00 82.00 55.00 83.00 55.00 84.00 55.00 85.00 55.00 86.00 55.00 87.00 55.00 88.00 55.00 89.00 55.00 90.00 55.00 91.00 55.00 92.00 55.00 93.00 55.00 94.00 55.00 95.00 55.00 96.00 55.00 97.00 55.00 98.00 55.00 99.00 55.00 100.00 55.00 100 55 100.00 56.00 100.00 57.00 100.00 58.00 100.00 59.00 100.00 60.00 100 60 99.00 60.00 98.00 60.00 97.00 60.00 96.00 60.00 95.00 60.00 94.00 60.00 93.00 60.00 92.00 60.00 91.00 60.00 90.00 60.00 89.00 60.00 88.00 60.00 87.00 60.00 86.00 60.00 85.00 60.00 84.00 60.00 83.00 60.00 82.00 60.00 81.00 60.00 80.00 60.00 79.00 60.00 78.00 60.00 77.00 60.00 76.00 60.00 75.00 60.00 74.00 60.00 73.00 60.00 72.00 60.00 71.00 60.00 70.00 60.00 69.00 60.00 68.00 60.00 67.00 60.00 66.00 60.00 65.00 60.00 64.00 60.00 63.00 60.00 62.00 60.00 61.00 60.00 60.00 60.00 59.00 60.00 58.00 60.00 57.00 60.00 56.00 60.00 55.00 60.00 54.00 60.00 53.00 60.00 52.00 60.00 51.00 60.00 50.00 60.00 49.00 60.00 48.00 60.00 47.00 60.00 46.00 60.00 45.00 60.00 44.00 60.00 43.00 60.00 42.00 60.00 41.00 60.00 40.00 60.00 39.00 60.00 38.00 60.00 37.00 60.00 36.00 60.00 35.00 60.00 34.00 60.00 33.00 60.00 32.00 60.00 31.00 60.00 30.00 60.00 29.00 60.00 28.00 60.00 27.00 60.00 26.00 60.00 25.00 60.00 24.00 60.00 23.00 60.00 22.00 60.00 21.00 60.00 20.00 60.00 19.00 60.00 18.00 60.00 17.00 60.00 16.00 60.00 15.00 60.00 14.00 60.00 13.00 60.00 12.00 60.00 11.00 60.00 10.00 60.00 9.00 60.00 8.00 60.00 7.00 60.00 6.00 60.00 5.00 60.00 4.00 60.00 3.00 60.00 2.00 60.00 1.00 60.00 0.00 60.00 -1.00 60.00 -2.00 60.00 -3.00 60.00 -4.00 60.00 -5.00 60.00 -6.00 60.00 -7.00 60.00 -8.00 60.00 -9.00 60.00 -10.00 60.00 -11.00 60.00 -12.00 60.00 -13.00 60.00 -14.00 60.00 -15.00 60.00 -16.00 60.00 -17.00 60.00 -18.00 60.00 -19.00 60.00 -20.00 60.00 -20 60 -20.91 60.45 -21.82 60.91 -22.73 61.36 -23.64 61.82 -24.55 62.27 -25.45 62.73 -26.36 63.18 -27.27 63.64 -28.18 64.09 -29.09 64.55 -30.00 65.00 -30.91 65.45 -31.82 65.91 -32.73 66.36 -33.64 66.82 -34.55 67.27 -35.45 67.73 -36.36 68.18 -37.27 68.64 -38.18 69.09 -39.09 69.55 -40.00 70.00 -40 70 -40.91 69.55 -41.82 69.09 -42.73 68.64 -43.64 68.18 -44.55 67.73 -45.45 67.27 -46.36 66.82 -47.27 66.36 -48.18 65.91 -49.09 65.45 -50.00 65.00 -50.91 64.55 -51.82 64.09 -52.73 63.64 -53.64 63.18 -54.55 62.73 -55.45 62.27 -56.36 61.82 -57.27 61.36 -58.18 60.91 -59.09 60.45 -60.00 60.00 -60 60 -61.00 60.00 -62.00 60.00 -63.00 60.00 -64.00 60.00 -65.00 60.00 -66.00 60.00 -67.00 60.00 -68.00 60.00 -69.00 60.00 -70.00 60.00 -71.00 60.00 -72.00 60.00 -73.00 60.00 -74.00 60.00 -75.00 60.00 -76.00 60.00 -77.00 60.00 -78.00 60.00 -79.00 60.00 -80.00 60.00 -81.00 60.00 -82.00 60.00 -83.00 60.00 -84.00 60.00 -85.00 60.00 -86.00 60.00 -87.00 60.00 -88.00 60.00 -89.00 60.00 -90.00 60.00 -91.00 60.00 -92.00 60.00 -93.00 60.00 -94.00 60.00 -95.00 60.00 -96.00 60.00 -97.00 60.00 -98.00 60.00 -99.00 60.00 -100.00 60.00 -100 60 -100.00 59.00 -100.00 58.00 -100.00 57.00 -100.00 56.00 -100.00 55.00 -100 55 Z"></path><path fill="#7C2A01" d="M-100 55C  -99.00 55.21 -98.00 55.28 -97.00 55.00 -96.00 54.67 -95.00 54.70 -94.00 54.81 -93.00 54.69 -92.00 54.88 -91.00 55.00 -90.00 54.89 -89.00 55.18 -88.00 54.56 -87.00 54.53 -86.00 55.02 -85.00 55.33 -84.00 55.27 -83.00 54.70 -82.00 54.97 -81.00 55.26 -80.00 54.63 -79.00 54.55 -78.00 54.90 -77.00 55.38 -76.00 55.06 -75.00 54.90 -74.00 55.20 -73.00 55.22 -72.00 54.80 -71.00 55.10 -70.00 55.49 -69.00 55.47 -68.00 54.85 -67.00 54.65 -66.00 55.22 -65.00 55.19 -64.00 55.30 -63.00 54.70 -62.00 54.91 -61.00 54.53 -60.00 54.54 -59.00 54.73 -58.00 54.82 -57.00 54.72 -56.00 54.79 -55.00 55.25 -54.00 54.57 -53.00 55.41 -52.00 54.55 -51.00 54.61 -50.00 55.01 -49.00 54.74 -48.00 54.70 -47.00 55.47 -46.00 55.26 -45.00 55.32 -44.00 55.47 -43.00 54.58 -42.00 54.99 -41.00 55.48 -40.00 54.71 -39.00 54.56 -38.00 54.94 -37.00 55.28 -36.00 55.23 -35.00 55.22 -34.00 55.20 -33.00 55.02 -32.00 55.37 -31.00 55.26 -30.00 55.32 -29.00 54.51 -28.00 55.48 -27.00 54.96 -26.00 55.11 -25.00 55.10 -24.00 54.62 -23.00 54.84 -22.00 55.27 -21.00 54.71 -20.00 55.01 -19.00 54.95 -18.00 55.40 -17.00 55.13 -16.00 55.29 -15.00 54.62 -14.00 54.67 -13.00 55.42 -12.00 54.59 -11.00 54.64 -10.00 54.86 -9.00 54.65 -8.00 54.69 -7.00 54.91 -6.00 54.88 -5.00 54.56 -4.00 55.27 -3.00 54.77 -2.00 55.40 -1.00 54.65 0.00 55.27 1.00 54.99 2.00 55.20 3.00 54.67 4.00 55.14 5.00 54.91 6.00 54.69 7.00 54.81 8.00 55.18 9.00 55.02 10.00 54.95 11.00 54.56 12.00 55.07 13.00 55.33 14.00 54.77 15.00 54.63 16.00 54.61 17.00 54.65 18.00 55.39 19.00 55.05 20.00 55.46 21.00 54.68 22.00 54.52 23.00 55.27 24.00 54.98 25.00 54.67 26.00 54.85 27.00 55.35 28.00 55.42 29.00 55.44 30.00 55.04 31.00 55.05 32.00 54.83 33.00 54.58 34.00 55.47 35.00 55.00 36.00 55.04 37.00 54.56 38.00 55.14 39.00 55.41 40.00 54.76 41.00 54.57 42.00 55.37 43.00 55.04 44.00 54.96 45.00 54.66 46.00 55.12 47.00 55.04 48.00 54.69 49.00 55.24 50.00 54.74 51.00 54.75 52.00 55.02 53.00 54.54 54.00 55.44 55.00 54.76 56.00 54.97 57.00 55.19 58.00 54.75 59.00 54.58 60.00 55.38 61.00 54.81 62.00 55.12 63.00 54.65 64.00 54.93 65.00 54.68 66.00 55.12 67.00 54.89 68.00 55.09 69.00 55.48 70.00 54.98 71.00 54.98 72.00 55.15 73.00 54.69 74.00 54.81 75.00 55.20 76.00 55.06 77.00 55.18 78.00 54.81 79.00 55.40 80.00 54.93 81.00 54.84 82.00 55.43 83.00 54.75 84.00 55.43 85.00 55.33 86.00 55.12 87.00 54.83 88.00 54.98 89.00 54.74 90.00 54.68 91.00 54.99 92.00 54.85 93.00 55.10 94.00 54.81 95.00 54.68 96.00 55.02 97.00 55.38 98.00 54.65 99.00 55.20 100.00 54.69 100 55 100.88 54.55 101.68 53.94 102.59 53.50 103.19 52.67 104.03 52.12 104.52 51.21 104.96 50.29 105.97 49.84 106.59 49.05 107.23 48.26 107.42 47.23 107.85 46.33 108.19 45.39 108.61 44.48 108.53 43.43 108.89 42.49 109.05 41.50 108.64 40.48 109.40 39.50 108.82 38.52 109.07 37.50 108.89 36.50 108.56 35.55 108.43 34.54 107.59 33.77 107.60 32.70 107.16 31.79 106.82 30.82 105.56 30.44 104.96 29.68 104.35 28.92 103.76 28.15 103.59 26.91 102.32 26.83 101.42 26.40 100.88 25.47 100.10 24.83 100 25 99.00 25.49 98.00 25.31 97.00 25.00 96.00 24.60 95.00 25.48 94.00 25.34 93.00 24.80 92.00 25.30 91.00 25.45 90.00 25.41 89.00 25.21 88.00 24.73 87.00 24.86 86.00 25.48 85.00 24.58 84.00 24.96 83.00 25.35 82.00 25.32 81.00 24.93 80.00 25.30 79.00 24.86 78.00 25.27 77.00 25.24 76.00 25.21 75.00 24.64 74.00 24.91 73.00 24.90 72.00 24.98 71.00 24.53 70.00 24.52 69.00 25.19 68.00 24.99 67.00 24.70 66.00 24.76 65.00 24.58 64.00 24.85 63.00 24.68 62.00 24.84 61.00 25.49 60.00 24.72 59.00 24.68 58.00 24.65 57.00 24.52 56.00 25.23 55.00 25.49 54.00 24.98 53.00 24.81 52.00 24.66 51.00 25.48 50.00 25.05 49.00 24.92 48.00 25.23 47.00 25.12 46.00 25.20 45.00 25.13 44.00 25.12 43.00 25.27 42.00 25.45 41.00 25.23 40.00 25.08 39.00 24.93 38.00 25.09 37.00 24.69 36.00 24.51 35.00 24.92 34.00 25.20 33.00 24.93 32.00 24.59 31.00 25.38 30.00 24.77 29.00 25.44 28.00 24.61 27.00 25.40 26.00 24.99 25.00 25.02 24.00 24.68 23.00 24.88 22.00 25.01 21.00 25.03 20.00 24.94 19.00 25.38 18.00 25.35 17.00 25.25 16.00 25.15 15.00 24.79 14.00 25.44 13.00 25.19 12.00 24.79 11.00 24.94 10.00 24.93 9.00 24.64 8.00 25.50 7.00 25.02 6.00 24.74 5.00 24.53 4.00 24.65 3.00 25.28 2.00 25.18 1.00 24.87 0.00 25.28 -1.00 25.36 -2.00 24.51 -3.00 24.91 -4.00 25.12 -5.00 24.81 -6.00 24.61 -7.00 25.27 -8.00 24.50 -9.00 24.83 -10.00 25.29 -11.00 25.26 -12.00 24.99 -13.00 24.54 -14.00 25.13 -15.00 24.87 -16.00 25.42 -17.00 24.66 -18.00 25.30 -19.00 25.26 -20.00 24.77 -21.00 25.16 -22.00 25.18 -23.00 24.68 -24.00 25.40 -25.00 24.81 -26.00 24.87 -27.00 25.21 -28.00 25.06 -29.00 24.94 -30.00 24.87 -31.00 25.25 -32.00 24.57 -33.00 25.39 -34.00 24.93 -35.00 24.52 -36.00 24.70 -37.00 24.52 -38.00 25.06 -39.00 24.66 -40.00 25.20 -41.00 24.87 -42.00 25.37 -43.00 24.78 -44.00 24.55 -45.00 25.47 -46.00 25.04 -47.00 24.61 -48.00 25.01 -49.00 24.90 -50.00 24.94 -51.00 25.14 -52.00 24.85 -53.00 24.78 -54.00 25.25 -55.00 25.15 -56.00 25.11 -57.00 25.05 -58.00 24.79 -59.00 24.95 -60.00 25.11 -61.00 25.17 -62.00 25.07 -63.00 25.45 -64.00 25.23 -65.00 24.77 -66.00 25.38 -67.00 24.92 -68.00 25.22 -69.00 25.05 -70.00 25.08 -71.00 25.34 -72.00 25.25 -73.00 24.91 -74.00 25.48 -75.00 24.88 -76.00 24.51 -77.00 25.07 -78.00 25.36 -79.00 24.97 -80.00 25.10 -81.00 25.27 -82.00 25.23 -83.00 24.89 -84.00 24.98 -85.00 25.17 -86.00 25.28 -87.00 24.79 -88.00 24.65 -89.00 25.22 -90.00 24.74 -91.00 24.75 -92.00 25.15 -93.00 24.80 -94.00 24.71 -95.00 25.47 -96.00 25.07 -97.00 25.15 -98.00 24.92 -99.00 24.67 -100.00 25.15 -100 25 -100.79 25.62 -101.70 26.03 -102.70 26.34 -103.33 27.17 -104.00 27.92 -104.58 28.74 -105.13 29.56 -105.52 30.50 -106.39 31.08 -107.23 31.73 -107.84 32.56 -108.07 33.58 -108.46 34.51 -107.99 35.71 -108.98 36.47 -108.51 37.58 -108.54 38.56 -109.40 39.48 -109.02 40.50 -108.54 41.46 -109.05 42.50 -108.79 43.48 -108.70 44.49 -107.97 45.32 -108.11 46.42 -107.39 47.21 -107.13 48.19 -106.03 48.72 -105.51 49.53 -105.70 50.88 -104.50 51.20 -103.96 52.04 -103.50 53.00 -102.65 53.56 -101.65 53.90 -100.74 54.32 -99.96 54.94 -100 55 Z"></path><path fill="#8BEA18" d="M-100 20C  -99.00 20.27 -98.00 20.48 -97.00 19.98 -96.00 20.46 -95.00 20.23 -94.00 20.47 -93.00 19.61 -92.00 19.79 -91.00 20.42 -90.00 20.10 -89.00 19.87 -88.00 19.94 -87.00 20.42 -86.00 19.73 -85.00 19.99 -84.00 20.10 -83.00 20.20 -82.00 20.40 -81.00 19.64 -80.00 20.13 -79.00 19.78 -78.00 19.92 -77.00 20.20 -76.00 19.63 -75.00 19.51 -74.00 19.94 -73.00 20.24 -72.00 19.86 -71.00 19.61 -70.00 20.44 -69.00 20.13 -68.00 19.92 -67.00 19.87 -66.00 20.03 -65.00 20.27 -64.00 20.31 -63.00 19.64 -62.00 19.77 -61.00 19.71 -60.00 19.61 -59.00 19.64 -58.00 19.80 -57.00 19.63 -56.00 19.66 -55.00 19.61 -54.00 19.51 -53.00 20.47 -52.00 19.52 -51.00 20.44 -50.00 19.52 -49.00 19.56 -48.00 19.58 -47.00 20.18 -46.00 19.96 -45.00 19.70 -44.00 19.55 -43.00 20.01 -42.00 19.98 -41.00 19.74 -40.00 20.15 -39.00 19.67 -38.00 19.60 -37.00 19.90 -36.00 20.44 -35.00 20.04 -34.00 19.64 -33.00 20.03 -32.00 20.00 -31.00 20.37 -30.00 20.40 -29.00 20.34 -28.00 19.54 -27.00 20.21 -26.00 19.95 -25.00 19.55 -24.00 20.17 -23.00 19.57 -22.00 19.71 -21.00 20.44 -20.00 20.08 -19.00 19.78 -18.00 20.01 -17.00 19.56 -16.00 20.48 -15.00 20.42 -14.00 20.20 -13.00 19.96 -12.00 20.32 -11.00 19.89 -10.00 20.09 -9.00 20.18 -8.00 19.97 -7.00 20.00 -6.00 20.15 -5.00 20.28 -4.00 19.90 -3.00 20.14 -2.00 19.96 -1.00 20.45 0.00 19.66 1.00 19.93 2.00 19.71 3.00 20.38 4.00 19.51 5.00 19.83 6.00 20.17 7.00 19.82 8.00 19.62 9.00 20.14 10.00 19.86 11.00 20.13 12.00 20.20 13.00 20.38 14.00 20.29 15.00 19.85 16.00 20.32 17.00 20.42 18.00 20.40 19.00 20.14 20.00 20.28 21.00 20.32 22.00 20.28 23.00 19.66 24.00 20.33 25.00 19.51 26.00 19.95 27.00 20.46 28.00 19.57 29.00 19.87 30.00 19.66 31.00 19.58 32.00 19.86 33.00 20.44 34.00 20.25 35.00 19.63 36.00 20.45 37.00 20.49 38.00 20.33 39.00 20.10 40.00 20.02 41.00 20.30 42.00 20.25 43.00 20.42 44.00 19.70 45.00 20.26 46.00 20.29 47.00 19.85 48.00 19.73 49.00 20.14 50.00 20.42 51.00 19.93 52.00 19.63 53.00 20.08 54.00 20.25 55.00 20.42 56.00 19.50 57.00 20.29 58.00 20.33 59.00 20.16 60.00 20.06 61.00 20.44 62.00 20.09 63.00 19.95 64.00 19.51 65.00 20.09 66.00 19.80 67.00 19.82 68.00 20.39 69.00 20.41 70.00 19.61 71.00 20.35 72.00 19.57 73.00 19.69 74.00 20.17 75.00 19.76 76.00 19.74 77.00 20.13 78.00 20.10 79.00 19.84 80.00 19.66 81.00 19.67 82.00 19.70 83.00 19.52 84.00 20.33 85.00 20.22 86.00 19.76 87.00 19.60 88.00 20.36 89.00 19.67 90.00 20.01 91.00 20.48 92.00 19.67 93.00 20.16 94.00 19.65 95.00 19.92 96.00 19.59 97.00 20.48 98.00 19.59 99.00 20.35 100.00 19.58 100 20 100.80 20.64 101.36 21.52 101.94 22.39 102.26 23.40 102.36 24.45 102.37 25.51 102.05 26.52 101.82 27.53 101.20 28.38 101.05 29.49 100.15 30.13 100 30 99.14 30.62 97.98 30.18 97.05 30.54 96.06 30.69 95.19 31.39 94.14 31.19 93.26 31.99 92.15 31.34 91.14 31.32 90.20 31.83 89.17 31.52 88.19 31.72 87.23 32.52 86.21 32.05 85.21 31.64 84.21 32.15 83.24 31.55 82.25 31.51 81.25 31.62 80.20 32.09 79.22 31.79 78.25 31.49 77.20 31.77 76.29 31.15 75.35 30.75 74.26 31.06 73.35 30.53 72.43 30.11 71.34 30.30 71.42857142857143 30 70.56 29.39 69.63 29.00 68.63 28.85 67.47 29.38 66.67 28.38 65.55 28.86 64.67 28.11 63.63 28.24 62.62 28.25 61.65 27.93 60.67 27.60 59.65 27.83 58.63 28.24 57.63 28.40 56.64 27.66 55.64 27.94 54.66 28.32 53.66 28.18 52.64 27.99 51.69 28.53 50.70 28.64 49.70 28.60 48.72 28.81 47.69 28.72 46.74 29.05 45.71 29.01 44.88 29.86 43.80 29.65 42.73 29.56 42.85714285714286 30 41.99 30.60 41.02 30.86 39.99 30.89 38.97 30.93 38.02 31.27 37.11 31.82 36.02 31.44 35.09 31.95 34.10 32.15 33.08 32.10 32.05 31.75 31.07 32.10 30.09 32.45 29.07 32.05 28.07 31.87 27.07 32.18 26.06 32.35 25.07 32.06 24.09 31.76 23.04 32.22 22.12 31.42 21.13 31.38 20.05 31.77 19.13 31.21 18.17 30.92 17.21 30.63 16.11 30.95 15.29 30.12 14.37 29.71 14.285714285714288 30 13.29 29.85 12.29 29.73 11.43 29.05 10.49 28.68 9.40 28.99 8.45 28.66 7.39 28.93 6.49 28.22 5.51 28.02 4.52 27.79 3.52 27.77 2.47 28.42 1.48 28.41 0.49 28.25 -0.50 27.46 -1.51 27.59 -2.48 28.38 -3.47 28.43 -4.52 27.75 -5.50 28.05 -6.50 28.17 -7.45 28.60 -8.39 29.00 -9.38 29.09 -10.32 29.48 -11.47 28.86 -12.30 29.70 -13.21 30.15 -14.16 30.43 -14.285714285714285 30 -15.12 30.70 -16.22 30.50 -17.29 30.31 -18.17 30.91 -19.19 30.90 -20.14 31.25 -21.18 31.06 -22.08 31.77 -23.15 31.30 -24.05 32.19 -25.05 32.28 -26.08 31.91 -27.08 31.84 -28.08 31.74 -29.07 31.92 -30.08 32.51 -31.06 31.80 -32.07 31.98 -33.05 31.78 -34.06 31.82 -35.04 31.60 -36.00 31.24 -37.02 31.34 -37.98 31.06 -38.96 30.84 -39.92 30.58 -40.94 30.57 -41.78 29.85 -42.93 30.26 -42.85714285714286 30 -43.72 29.40 -44.81 29.58 -45.70 29.03 -46.78 29.22 -47.70 28.77 -48.68 28.59 -49.66 28.38 -50.65 28.23 -51.66 28.20 -52.67 28.28 -53.64 27.93 -54.63 27.71 -55.64 27.72 -56.64 27.80 -57.64 28.00 -58.64 27.77 -59.64 27.97 -60.62 28.36 -61.61 28.42 -62.59 28.57 -63.67 27.88 -64.55 28.90 -65.56 28.85 -66.62 28.60 -67.59 28.84 -68.52 29.30 -69.61 29.03 -70.36 30.13 -71.37 30.20 -71.42857142857143 30 -72.52 29.82 -73.42 30.27 -74.34 30.73 -75.33 30.85 -76.25 31.35 -77.30 31.18 -78.23 31.67 -79.22 31.78 -80.24 31.73 -81.20 32.12 -82.25 31.57 -83.23 31.88 -84.20 32.42 -85.21 32.30 -86.21 31.69 -87.21 32.12 -88.20 31.80 -89.23 32.40 -90.17 31.51 -91.21 31.93 -92.21 31.81 -93.22 31.83 -94.25 31.86 -95.18 31.34 -96.05 30.60 -97.03 30.44 -98.16 30.88 -99.03 30.24 -99.93 29.77 -100 30 -100.32 28.93 -101.18 28.36 -101.97 27.63 -101.96 26.52 -101.91 25.48 -102.38 24.49 -101.47 23.56 -101.87 22.46 -100.89 21.76 -100.26 21.03 -99.97 20.02 -100 20 Z"></path></g></svg>
