<svg version="1.1" baseProfile="full" xmlns="http://www.w3.org/2000/svg" width="750" height="400" style="background: #111">
  <g transform="translate(-100,10) scale(2)">
    <line x1="70" y1="170" x2="175" y2="100" stroke="green" stroke-width="2"></line>
    <line x1="70" y1="170" x2="100" y2="50" stroke="green" stroke-width="2"></line>
    <line x1="70" y1="170" x2="130" y2="60" stroke="green" stroke-width="2"></line>
    <line x1="70" y1="170" x2="155" y2="77" stroke="green" stroke-width="2"></line>
    <text x="70" y="170" transform="rotate(-30,70,170) translate(50,10)" text-anchor="middle" fill="green">radius</text>
    <text x="70" y="170" transform="rotate(-75,70,170) translate(50,-5)" text-anchor="middle" fill="green">radius</text>

    <line x1="100" y1="50" x2="130" y2="60" stroke="orange" stroke-width="2"></line>
    <line x1="130" y1="60" x2="155" y2="77" stroke="orange" stroke-width="2"></line>
    <line x1="155" y1="77" x2="175" y2="100" stroke="orange" stroke-width="2"></line>
    <line x1="125" y1="25" x2="118" y2="50" stroke="orange" stroke-width="1"></line>
    <text x="125" y="20" text-anchor="middle" fill="orange">step</text>

    <line x1="100" y1="50" x2="100" y2="100" stroke="red" stroke-width="2"></line>
    <text x="90" y="81" text-anchor="end" fill="red">dy</text>

    <line x1="100" y1="100" x2="175" y2="100" stroke="blue" stroke-width="2"></line>
    <text x="137.5" y="115" text-anchor="middle" fill="blue">dx</text>

    <circle cx="100" cy="50" r="5" fill="purple"></circle>
    <circle cx="175" cy="100" r="5" fill="purple"></circle>
    <text x="90" y="56" text-anchor="end" fill="purple">start</text>
    <text x="185" y="106" text-anchor="start" fill="purple">end</text>

    <circle cx="130" cy="60" r="2.5" fill="magenta"></circle>
    <circle cx="155" cy="77" r="2.5" fill="magenta"></circle>
    <text x="200" y="35" text-anchor="middle" fill="magenta">point after step</text>

    <line x1="100" y1="50" x2="132" y2="56" stroke="gold" stroke-width="2"></line>
    <line x1="132" y1="56" x2="153" y2="79" stroke="gold" stroke-width="2"></line>
    <line x1="153" y1="79" x2="175" y2="100" stroke="gold" stroke-width="2"></line>
    <text x="250" y="70" text-anchor="middle" fill="gold">actual line drawn</text>

    <circle cx="132" cy="56" r="2.5" fill="#03A9F4"></circle>
    <circle cx="153" cy="79" r="2.5" fill="#03A9F4"></circle>
    <text x="300" y="50" text-anchor="middle" fill="#03A9F4">point after step with random wiggle</text>

    <line x1="133" y1="58" x2="150" y2="40" stroke="magenta" stroke-width="1"></line>
    <line x1="155" y1="77" x2="180" y2="55" stroke="#03A9F4" stroke-width="1"></line>
    <line x1="164" y1="88" x2="190" y2="70" stroke="gold" stroke-width="1"></line>
  </g>
</svg>
