<svg version="1.1" baseProfile="full" xmlns="http://www.w3.org/2000/svg" width="300" height="400" style="background: gray"><!-- made by Harry Li github.com/harryli0088 --><g transform="translate(100,100)"><path fill="silver" d="M10 213C  10.62 213.80 11.25 214.60 11.90 215.38 12.56 216.14 13.24 216.89 13.94 217.63 14.64 218.36 15.37 219.06 16.11 219.76 16.86 220.44 17.62 221.10 18.40 221.75 19.20 222.38 20.00 223.00 20 223 20.92 223.39 21.84 223.77 22.76 224.14 23.69 224.50 24.63 224.84 25.56 225.17 26.51 225.49 27.46 225.79 28.41 226.09 29.36 226.37 30.32 226.63 31.28 226.89 32.25 227.13 33.22 227.36 34.19 227.58 35.16 227.78 36.14 227.97 37.12 228.15 38.10 228.31 39.09 228.46 40.07 228.60 41.06 228.73 42.05 228.84 43.04 228.94 44.03 229.02 45.03 229.10 46.02 229.16 47.01 229.20 48.01 229.23 49.00 229.25 50.00 229.26 51.00 229.25 51.99 229.23 52.99 229.20 53.98 229.16 54.97 229.10 55.97 229.02 56.96 228.94 57.95 228.84 58.94 228.73 59.93 228.60 60.91 228.46 61.90 228.31 62.88 228.15 63.86 227.97 64.84 227.78 65.81 227.58 66.78 227.36 67.75 227.13 68.72 226.89 69.68 226.63 70.64 226.37 71.59 226.09 72.54 225.79 73.49 225.49 74.44 225.17 75.37 224.84 76.31 224.50 77.24 224.14 78.16 223.77 79.08 223.39 80.00 223.00 80 223 80.80 222.38 81.60 221.75 82.38 221.10 83.14 220.44 83.89 219.76 84.63 219.06 85.36 218.36 86.06 217.63 86.76 216.89 87.44 216.14 88.10 215.38 88.75 214.60 89.38 213.80 90.00 213.00 90 213 Z"></path><path fill="#7DF52D" d="M0 0C  0.00 1.00 0.00 2.00 0.00 3.00 0.00 4.00 0.00 5.00 0.00 6.00 0.00 7.00 0.00 8.00 0.00 9.00 0.00 10.00 0.00 11.00 0.00 12.00 0.00 13.00 0.00 14.00 0.00 15.00 0.00 16.00 0.00 17.00 0.00 18.00 0.00 19.00 0.00 20.00 0.00 21.00 0.00 22.00 0.00 23.00 0.00 24.00 0.00 25.00 0.00 26.00 0.00 27.00 0.00 28.00 0.00 29.00 0.00 30.00 0.00 31.00 0.00 32.00 0.00 33.00 0.00 34.00 0.00 35.00 0.00 36.00 0.00 37.00 0.00 38.00 0.00 39.00 0.00 40.00 0.00 41.00 0.00 42.00 0.00 43.00 0.00 44.00 0.00 45.00 0.00 46.00 0.00 47.00 0.00 48.00 0.00 49.00 0.00 50.00 0.00 51.00 0.00 52.00 0.00 53.00 0.00 54.00 0.00 55.00 0.00 56.00 0.00 57.00 0.00 58.00 0.00 59.00 0.00 60.00 0.00 61.00 0.00 62.00 0.00 63.00 0.00 64.00 0.00 65.00 0.00 66.00 0.00 67.00 0.00 68.00 0.00 69.00 0.00 70.00 0.00 71.00 0.00 72.00 0.00 73.00 0.00 74.00 0.00 75.00 0.00 76.00 0.00 77.00 0.00 78.00 0.00 79.00 0.00 80.00 0.00 81.00 0.00 82.00 0.00 83.00 0.00 84.00 0.00 85.00 0.00 86.00 0.00 87.00 0.00 88.00 0.00 89.00 0.00 90.00 0.00 91.00 0.00 92.00 0.00 93.00 0.00 94.00 0.00 95.00 0.00 96.00 0.00 97.00 0.00 98.00 0.00 99.00 0.00 100.00 0.00 101.00 0.00 102.00 0.00 103.00 0.00 104.00 0.00 105.00 0.00 106.00 0.00 107.00 0.00 108.00 0.00 109.00 0.00 110.00 0.00 111.00 0.00 112.00 0.00 113.00 0.00 114.00 0.00 115.00 0.00 116.00 0.00 117.00 0.00 118.00 0.00 119.00 0.00 120.00 0.00 121.00 0.00 122.00 0.00 123.00 0.00 124.00 0.00 125.00 0.00 126.00 0.00 127.00 0.00 128.00 0.00 129.00 0.00 130.00 0.00 131.00 0.00 132.00 0.00 133.00 0.00 134.00 0.00 135.00 0.00 136.00 0.00 137.00 0.00 138.00 0.00 139.00 0.00 140.00 0.00 141.00 0.00 142.00 0.00 143.00 0.00 144.00 0.00 145.00 0.00 146.00 0.00 147.00 0.00 148.00 0.00 149.00 0.00 150.00 0.00 151.00 0.00 152.00 0.00 153.00 0.00 154.00 0.00 155.00 0.00 156.00 0.00 157.00 0.00 158.00 0.00 159.00 0.00 160.00 0.00 161.00 0.00 162.00 0.00 163.00 0.00 164.00 0.00 165.00 0.00 166.00 0.00 167.00 0.00 168.00 0.00 169.00 0.00 170.00 0.00 171.00 0.00 172.00 0.00 173.00 0.00 174.00 0.00 175.00 0.00 176.00 0.00 177.00 0.00 178.00 0.00 179.00 0.00 180.00 0.00 181.00 0.00 182.00 0.00 183.00 0.00 184.00 0.00 185.00 0.00 186.00 0.00 187.00 0.00 188.00 0.00 189.00 0.00 190.00 0.00 191.00 0.00 192.00 0.00 193.00 0.00 194.00 0.00 195.00 0.00 196.00 0.00 197.00 0.00 198.00 0.00 199.00 0.00 200.00 0.00 201.00 0.00 202.00 0.00 203.00 0.00 204.00 0.00 205.00 0 205 0.32 205.93 0.69 206.84 1.13 207.72 1.62 208.57 2.16 209.38 2.76 210.16 3.41 210.90 4.10 211.59 4.84 212.24 5.62 212.84 6.43 213.38 7.28 213.87 8.16 214.31 9.07 214.68 10.00 215.00 10 215 10.92 215.40 11.85 215.78 12.78 216.16 13.71 216.53 14.65 216.89 15.59 217.24 16.53 217.58 17.48 217.91 18.43 218.23 19.38 218.55 20.34 218.85 21.30 219.14 22.26 219.43 23.23 219.70 24.20 219.96 25.17 220.22 26.14 220.46 27.12 220.70 28.10 220.92 29.08 221.14 30.06 221.34 31.05 221.54 32.03 221.72 33.02 221.90 34.01 222.06 35.00 222.22 35.99 222.36 36.99 222.50 37.98 222.62 38.98 222.74 39.98 222.85 40.98 222.94 41.98 223.03 42.98 223.10 43.98 223.17 44.98 223.22 45.99 223.27 46.99 223.30 47.99 223.33 49.00 223.34 50.00 223.35 51.00 223.34 52.01 223.33 53.01 223.30 54.01 223.27 55.02 223.22 56.02 223.17 57.02 223.10 58.02 223.03 59.02 222.94 60.02 222.85 61.02 222.74 62.02 222.62 63.01 222.50 64.01 222.36 65.00 222.22 65.99 222.06 66.98 221.90 67.97 221.72 68.95 221.54 69.94 221.34 70.92 221.14 71.90 220.92 72.88 220.70 73.86 220.46 74.83 220.22 75.80 219.96 76.77 219.70 77.74 219.43 78.70 219.14 79.66 218.85 80.62 218.55 81.57 218.23 82.52 217.91 83.47 217.58 84.41 217.24 85.35 216.89 86.29 216.53 87.22 216.16 88.15 215.78 89.08 215.40 90.00 215.00 90 215 90.93 214.68 91.84 214.31 92.72 213.87 93.57 213.38 94.38 212.84 95.16 212.24 95.90 211.59 96.59 210.90 97.24 210.16 97.84 209.38 98.38 208.57 98.87 207.72 99.31 206.84 99.68 205.93 100.00 205.00 100 205 100.00 204.00 100.00 203.00 100.00 202.00 100.00 201.00 100.00 200.00 100.00 199.00 100.00 198.00 100.00 197.00 100.00 196.00 100.00 195.00 100.00 194.00 100.00 193.00 100.00 192.00 100.00 191.00 100.00 190.00 100.00 189.00 100.00 188.00 100.00 187.00 100.00 186.00 100.00 185.00 100.00 184.00 100.00 183.00 100.00 182.00 100.00 181.00 100.00 180.00 100.00 179.00 100.00 178.00 100.00 177.00 100.00 176.00 100.00 175.00 100.00 174.00 100.00 173.00 100.00 172.00 100.00 171.00 100.00 170.00 100.00 169.00 100.00 168.00 100.00 167.00 100.00 166.00 100.00 165.00 100.00 164.00 100.00 163.00 100.00 162.00 100.00 161.00 100.00 160.00 100.00 159.00 100.00 158.00 100.00 157.00 100.00 156.00 100.00 155.00 100.00 154.00 100.00 153.00 100.00 152.00 100.00 151.00 100.00 150.00 100.00 149.00 100.00 148.00 100.00 147.00 100.00 146.00 100.00 145.00 100.00 144.00 100.00 143.00 100.00 142.00 100.00 141.00 100.00 140.00 100.00 139.00 100.00 138.00 100.00 137.00 100.00 136.00 100.00 135.00 100.00 134.00 100.00 133.00 100.00 132.00 100.00 131.00 100.00 130.00 100.00 129.00 100.00 128.00 100.00 127.00 100.00 126.00 100.00 125.00 100.00 124.00 100.00 123.00 100.00 122.00 100.00 121.00 100.00 120.00 100.00 119.00 100.00 118.00 100.00 117.00 100.00 116.00 100.00 115.00 100.00 114.00 100.00 113.00 100.00 112.00 100.00 111.00 100.00 110.00 100.00 109.00 100.00 108.00 100.00 107.00 100.00 106.00 100.00 105.00 100.00 104.00 100.00 103.00 100.00 102.00 100.00 101.00 100.00 100.00 100.00 99.00 100.00 98.00 100.00 97.00 100.00 96.00 100.00 95.00 100.00 94.00 100.00 93.00 100.00 92.00 100.00 91.00 100.00 90.00 100.00 89.00 100.00 88.00 100.00 87.00 100.00 86.00 100.00 85.00 100.00 84.00 100.00 83.00 100.00 82.00 100.00 81.00 100.00 80.00 100.00 79.00 100.00 78.00 100.00 77.00 100.00 76.00 100.00 75.00 100.00 74.00 100.00 73.00 100.00 72.00 100.00 71.00 100.00 70.00 100.00 69.00 100.00 68.00 100.00 67.00 100.00 66.00 100.00 65.00 100.00 64.00 100.00 63.00 100.00 62.00 100.00 61.00 100.00 60.00 100.00 59.00 100.00 58.00 100.00 57.00 100.00 56.00 100.00 55.00 100.00 54.00 100.00 53.00 100.00 52.00 100.00 51.00 100.00 50.00 100.00 49.00 100.00 48.00 100.00 47.00 100.00 46.00 100.00 45.00 100.00 44.00 100.00 43.00 100.00 42.00 100.00 41.00 100.00 40.00 100.00 39.00 100.00 38.00 100.00 37.00 100.00 36.00 100.00 35.00 100.00 34.00 100.00 33.00 100.00 32.00 100.00 31.00 100.00 30.00 100.00 29.00 100.00 28.00 100.00 27.00 100.00 26.00 100.00 25.00 100.00 24.00 100.00 23.00 100.00 22.00 100.00 21.00 100.00 20.00 100.00 19.00 100.00 18.00 100.00 17.00 100.00 16.00 100.00 15.00 100.00 14.00 100.00 13.00 100.00 12.00 100.00 11.00 100.00 10.00 100.00 9.00 100.00 8.00 100.00 7.00 100.00 6.00 100.00 5.00 100.00 4.00 100.00 3.00 100.00 2.00 100.00 1.00 100.00 0.00 100 0 100.04 -1.03 100.02 -2.06 99.95 -3.09 99.82 -4.11 99.65 -5.13 99.42 -6.14 99.14 -7.13 98.81 -8.10 98.43 -9.06 98.00 -10.00 98 -10 98.04 -11.03 98.02 -12.06 97.95 -13.09 97.82 -14.11 97.65 -15.13 97.42 -16.14 97.14 -17.13 96.81 -18.10 96.43 -19.06 96.00 -20.00 96 -20 96.04 -21.03 96.02 -22.06 95.95 -23.09 95.82 -24.11 95.65 -25.13 95.42 -26.14 95.14 -27.13 94.81 -28.10 94.43 -29.06 94.00 -30.00 94 -30 94.04 -31.03 94.02 -32.06 93.95 -33.09 93.82 -34.11 93.65 -35.13 93.42 -36.14 93.14 -37.13 92.81 -38.10 92.43 -39.06 92.00 -40.00 92 -40 91.41 -39.15 90.77 -38.35 90.07 -37.59 89.33 -36.88 88.53 -36.22 87.70 -35.62 86.82 -35.08 85.91 -34.60 84.97 -34.18 84.00 -33.83 83.01 -33.55 82.00 -33.33 82 -33.333333333333336 81.01 -33.12 80.03 -32.92 79.04 -32.72 78.05 -32.53 77.06 -32.34 76.07 -32.16 75.08 -31.99 74.08 -31.83 73.09 -31.67 72.09 -31.52 71.09 -31.37 70.09 -31.23 69.10 -31.10 68.10 -30.98 67.09 -30.86 66.09 -30.75 65.09 -30.64 64.09 -30.54 63.08 -30.45 62.08 -30.37 61.08 -30.29 60.07 -30.22 59.06 -30.15 58.06 -30.10 57.05 -30.05 56.04 -30.00 55.04 -29.96 54.03 -29.93 53.02 -29.91 52.02 -29.89 51.01 -29.88 50.00 -29.88 48.99 -29.88 47.98 -29.89 46.98 -29.91 45.97 -29.93 44.96 -29.96 43.96 -30.00 42.95 -30.05 41.94 -30.10 40.94 -30.15 39.93 -30.22 38.92 -30.29 37.92 -30.37 36.92 -30.45 35.91 -30.54 34.91 -30.64 33.91 -30.75 32.91 -30.86 31.90 -30.98 30.90 -31.10 29.91 -31.23 28.91 -31.37 27.91 -31.52 26.91 -31.67 25.92 -31.83 24.92 -31.99 23.93 -32.16 22.94 -32.34 21.95 -32.53 20.96 -32.72 19.97 -32.92 18.99 -33.12 18.00 -33.33 18 -33.333333333333336 16.99 -33.55 16.00 -33.83 15.03 -34.18 14.09 -34.60 13.18 -35.08 12.30 -35.62 11.47 -36.22 10.67 -36.88 9.93 -37.59 9.23 -38.35 8.59 -39.15 8.00 -40.00 8 -40 7.57 -39.06 7.19 -38.10 6.86 -37.13 6.58 -36.14 6.35 -35.13 6.18 -34.11 6.05 -33.09 5.98 -32.06 5.96 -31.03 6.00 -30.00 6 -30 5.57 -29.06 5.19 -28.10 4.86 -27.13 4.58 -26.14 4.35 -25.13 4.18 -24.11 4.05 -23.09 3.98 -22.06 3.96 -21.03 4.00 -20.00 4 -20 3.57 -19.06 3.19 -18.10 2.86 -17.13 2.58 -16.14 2.35 -15.13 2.18 -14.11 2.05 -13.09 1.98 -12.06 1.96 -11.03 2.00 -10.00 2 -10 1.57 -9.06 1.19 -8.10 0.86 -7.13 0.58 -6.14 0.35 -5.13 0.18 -4.11 0.05 -3.09 -0.02 -2.06 -0.04 -1.03 0.00 0.00 0 0 Z"></path><path fill="#ccc" d="M6 -44.5C  6.87 -45.02 7.75 -45.53 8.65 -46.01 9.55 -46.48 10.46 -46.93 11.38 -47.36 12.31 -47.78 13.25 -48.17 14.19 -48.55 15.15 -48.90 16.11 -49.24 17.07 -49.55 18.04 -49.85 19.02 -50.13 20.01 -50.38 21.00 -50.62 21.99 -50.84 22.99 -51.03 23.99 -51.21 24.99 -51.36 26.00 -51.50 26 -51.5 26.99 -51.66 27.98 -51.81 28.98 -51.95 29.97 -52.09 30.97 -52.22 31.97 -52.34 32.96 -52.46 33.96 -52.57 34.96 -52.68 35.96 -52.77 36.96 -52.86 37.96 -52.95 38.96 -53.03 39.96 -53.10 40.97 -53.16 41.97 -53.22 42.97 -53.27 43.98 -53.31 44.98 -53.35 45.98 -53.38 46.99 -53.40 47.99 -53.42 49.00 -53.43 50.00 -53.43 51.00 -53.43 52.01 -53.42 53.01 -53.40 54.02 -53.38 55.02 -53.35 56.02 -53.31 57.03 -53.27 58.03 -53.22 59.03 -53.16 60.04 -53.10 61.04 -53.03 62.04 -52.95 63.04 -52.86 64.04 -52.77 65.04 -52.68 66.04 -52.57 67.04 -52.46 68.03 -52.34 69.03 -52.22 70.03 -52.09 71.02 -51.95 72.02 -51.81 73.01 -51.66 74.00 -51.50 74 -51.5 75.01 -51.36 76.01 -51.21 77.01 -51.03 78.01 -50.84 79.00 -50.62 79.99 -50.38 80.98 -50.13 81.96 -49.85 82.93 -49.55 83.89 -49.24 84.85 -48.90 85.81 -48.55 86.75 -48.17 87.69 -47.78 88.62 -47.36 89.54 -46.93 90.45 -46.48 91.35 -46.01 92.25 -45.53 93.13 -45.02 94.00 -44.50 94 -44.5 94.00 -43.50 94.00 -42.50 94.00 -41.50 94.00 -40.50 94.00 -39.50 94.00 -38.50 94 -38.5 93.10 -38.04 92.19 -37.59 91.28 -37.16 90.36 -36.73 89.43 -36.32 88.50 -35.92 87.56 -35.54 86.62 -35.17 85.68 -34.81 84.73 -34.46 83.77 -34.12 82.81 -33.80 81.85 -33.49 80.88 -33.20 79.91 -32.92 78.93 -32.65 77.95 -32.39 76.97 -32.15 75.98 -31.92 74.99 -31.70 74.00 -31.50 74 -31.5 73.01 -31.34 72.02 -31.19 71.02 -31.05 70.03 -30.91 69.03 -30.78 68.03 -30.66 67.04 -30.54 66.04 -30.43 65.04 -30.32 64.04 -30.23 63.04 -30.14 62.04 -30.05 61.04 -29.97 60.04 -29.90 59.03 -29.84 58.03 -29.78 57.03 -29.73 56.02 -29.69 55.02 -29.65 54.02 -29.62 53.01 -29.60 52.01 -29.58 51.00 -29.57 50.00 -29.57 49.00 -29.57 47.99 -29.58 46.99 -29.60 45.98 -29.62 44.98 -29.65 43.98 -29.69 42.97 -29.73 41.97 -29.78 40.97 -29.84 39.96 -29.90 38.96 -29.97 37.96 -30.05 36.96 -30.14 35.96 -30.23 34.96 -30.32 33.96 -30.43 32.96 -30.54 31.97 -30.66 30.97 -30.78 29.97 -30.91 28.98 -31.05 27.98 -31.19 26.99 -31.34 26.00 -31.50 26 -31.5 25.01 -31.70 24.02 -31.92 23.03 -32.15 22.05 -32.39 21.07 -32.65 20.09 -32.92 19.12 -33.20 18.15 -33.49 17.19 -33.80 16.23 -34.12 15.27 -34.46 14.32 -34.81 13.38 -35.17 12.44 -35.54 11.50 -35.92 10.57 -36.32 9.64 -36.73 8.72 -37.16 7.81 -37.59 6.90 -38.04 6.00 -38.50 6 -38.5 6.00 -39.50 6.00 -40.50 6.00 -41.50 6.00 -42.50 6.00 -43.50 6.00 -44.50 6 -44.5 Z"></path><ellipse cx="50" cy="-37" rx="15" ry="5" fill="transparent" stroke="#bbb" stroke-width="1"></ellipse><path fill="#aaa" d="M5 -39C  5.59 -38.15 6.23 -37.35 6.93 -36.59 7.67 -35.88 8.47 -35.22 9.30 -34.62 10.18 -34.08 11.09 -33.60 12.03 -33.18 13.00 -32.83 13.99 -32.55 15.00 -32.33 15 -32.333333333333336 15.97 -32.10 16.94 -31.88 17.91 -31.67 18.88 -31.46 19.86 -31.25 20.83 -31.06 21.81 -30.87 22.79 -30.68 23.77 -30.50 24.75 -30.33 25.73 -30.17 26.71 -30.01 27.69 -29.86 28.68 -29.72 29.66 -29.58 30.65 -29.45 31.64 -29.32 32.63 -29.20 33.61 -29.09 34.60 -28.99 35.59 -28.89 36.58 -28.79 37.58 -28.71 38.57 -28.63 39.56 -28.56 40.55 -28.49 41.55 -28.43 42.54 -28.38 43.53 -28.33 44.53 -28.29 45.52 -28.26 46.52 -28.23 47.51 -28.21 48.51 -28.20 49.50 -28.19 50.50 -28.19 51.49 -28.20 52.49 -28.21 53.48 -28.23 54.48 -28.26 55.47 -28.29 56.47 -28.33 57.46 -28.38 58.45 -28.43 59.45 -28.49 60.44 -28.56 61.43 -28.63 62.42 -28.71 63.42 -28.79 64.41 -28.89 65.40 -28.99 66.39 -29.09 67.37 -29.20 68.36 -29.32 69.35 -29.45 70.34 -29.58 71.32 -29.72 72.31 -29.86 73.29 -30.01 74.27 -30.17 75.25 -30.33 76.23 -30.50 77.21 -30.68 78.19 -30.87 79.17 -31.06 80.14 -31.25 81.12 -31.46 82.09 -31.67 83.06 -31.88 84.03 -32.10 85.00 -32.33 85 -32.333333333333336 86.01 -32.55 87.00 -32.83 87.97 -33.18 88.91 -33.60 89.82 -34.08 90.70 -34.62 91.53 -35.22 92.33 -35.88 93.07 -36.59 93.77 -37.35 94.41 -38.15 95.00 -39.00 95 -39 95.57 -39.93 95.76 -41.00 95.57 -42.07 95.00 -43.00 95 -43 94.47 -43.79 93.79 -44.47 93.00 -45.00 93 -45 93.55 -44.08 93.89 -43.06 94.00 -42.00 94 -42 93.60 -40.96 92.93 -40.07 92.04 -39.40 91.00 -39.00 91 -39 90.04 -38.73 89.07 -38.47 88.10 -38.21 87.14 -37.96 86.17 -37.71 85.19 -37.47 84.22 -37.24 83.24 -37.02 82.27 -36.80 81.29 -36.59 80.31 -36.38 79.33 -36.18 78.35 -35.99 77.36 -35.81 76.38 -35.63 75.39 -35.45 74.41 -35.29 73.42 -35.13 72.43 -34.97 71.44 -34.83 70.45 -34.69 69.46 -34.56 68.47 -34.43 67.47 -34.31 66.48 -34.20 65.48 -34.09 64.49 -33.99 63.49 -33.90 62.49 -33.81 61.50 -33.73 60.50 -33.66 59.50 -33.59 58.50 -33.53 57.50 -33.48 56.50 -33.43 55.50 -33.39 54.50 -33.36 53.50 -33.33 52.50 -33.31 51.50 -33.30 50.50 -33.29 49.50 -33.29 48.50 -33.30 47.50 -33.31 46.50 -33.33 45.50 -33.36 44.50 -33.39 43.50 -33.43 42.50 -33.48 41.50 -33.53 40.50 -33.59 39.50 -33.66 38.50 -33.73 37.51 -33.81 36.51 -33.90 35.51 -33.99 34.52 -34.09 33.52 -34.20 32.53 -34.31 31.53 -34.43 30.54 -34.56 29.55 -34.69 28.56 -34.83 27.57 -34.97 26.58 -35.13 25.59 -35.29 24.61 -35.45 23.62 -35.63 22.64 -35.81 21.65 -35.99 20.67 -36.18 19.69 -36.38 18.71 -36.59 17.73 -36.80 16.76 -37.02 15.78 -37.24 14.81 -37.47 13.83 -37.71 12.86 -37.96 11.90 -38.21 10.93 -38.47 9.96 -38.73 9.00 -39.00 9 -39 7.96 -39.40 7.07 -40.07 6.40 -40.96 6.00 -42.00 6 -42 6.11 -43.06 6.45 -44.08 7.00 -45.00 7 -45 6.21 -44.47 5.53 -43.79 5.00 -43.00 5 -43 4.69 -42.02 4.58 -41.00 4.69 -39.98 5.00 -39.00 5 -39 Z"></path><path fill="#aaa" d="M6 -39C  6.90 -39.46 7.81 -39.91 8.72 -40.34 9.64 -40.77 10.57 -41.18 11.50 -41.58 12.44 -41.96 13.38 -42.33 14.32 -42.69 15.27 -43.04 16.23 -43.38 17.19 -43.70 18.15 -44.01 19.12 -44.30 20.09 -44.58 21.07 -44.85 22.05 -45.11 23.03 -45.35 24.02 -45.58 25.01 -45.80 26.00 -46.00 26 -46 26.99 -46.16 27.98 -46.31 28.98 -46.45 29.97 -46.59 30.97 -46.72 31.97 -46.84 32.96 -46.96 33.96 -47.07 34.96 -47.18 35.96 -47.27 36.96 -47.36 37.96 -47.45 38.96 -47.53 39.96 -47.60 40.97 -47.66 41.97 -47.72 42.97 -47.77 43.98 -47.81 44.98 -47.85 45.98 -47.88 46.99 -47.90 47.99 -47.92 49.00 -47.93 50.00 -47.93 51.00 -47.93 52.01 -47.92 53.01 -47.90 54.02 -47.88 55.02 -47.85 56.02 -47.81 57.03 -47.77 58.03 -47.72 59.03 -47.66 60.04 -47.60 61.04 -47.53 62.04 -47.45 63.04 -47.36 64.04 -47.27 65.04 -47.18 66.04 -47.07 67.04 -46.96 68.03 -46.84 69.03 -46.72 70.03 -46.59 71.02 -46.45 72.02 -46.31 73.01 -46.16 74.00 -46.00 74 -46 74.99 -45.80 75.98 -45.58 76.97 -45.35 77.95 -45.11 78.93 -44.85 79.91 -44.58 80.88 -44.30 81.85 -44.01 82.81 -43.70 83.77 -43.38 84.73 -43.04 85.68 -42.69 86.62 -42.33 87.56 -41.96 88.50 -41.58 89.43 -41.18 90.36 -40.77 91.28 -40.34 92.19 -39.91 93.10 -39.46 94.00 -39.00 94 -39 94.00 -38.00 94 -38 93.10 -38.46 92.19 -38.91 91.28 -39.34 90.36 -39.77 89.43 -40.18 88.50 -40.58 87.56 -40.96 86.62 -41.33 85.68 -41.69 84.73 -42.04 83.77 -42.38 82.81 -42.70 81.85 -43.01 80.88 -43.30 79.91 -43.58 78.93 -43.85 77.95 -44.11 76.97 -44.35 75.98 -44.58 74.99 -44.80 74.00 -45.00 74 -45 73.01 -45.16 72.02 -45.31 71.02 -45.45 70.03 -45.59 69.03 -45.72 68.03 -45.84 67.04 -45.96 66.04 -46.07 65.04 -46.18 64.04 -46.27 63.04 -46.36 62.04 -46.45 61.04 -46.53 60.04 -46.60 59.03 -46.66 58.03 -46.72 57.03 -46.77 56.02 -46.81 55.02 -46.85 54.02 -46.88 53.01 -46.90 52.01 -46.92 51.00 -46.93 50.00 -46.93 49.00 -46.93 47.99 -46.92 46.99 -46.90 45.98 -46.88 44.98 -46.85 43.98 -46.81 42.97 -46.77 41.97 -46.72 40.97 -46.66 39.96 -46.60 38.96 -46.53 37.96 -46.45 36.96 -46.36 35.96 -46.27 34.96 -46.18 33.96 -46.07 32.96 -45.96 31.97 -45.84 30.97 -45.72 29.97 -45.59 28.98 -45.45 27.98 -45.31 26.99 -45.16 26.00 -45.00 26 -45 25.01 -44.80 24.02 -44.58 23.03 -44.35 22.05 -44.11 21.07 -43.85 20.09 -43.58 19.12 -43.30 18.15 -43.01 17.19 -42.70 16.23 -42.38 15.27 -42.04 14.32 -41.69 13.38 -41.33 12.44 -40.96 11.50 -40.58 10.57 -40.18 9.64 -39.77 8.72 -39.34 7.81 -38.91 6.90 -38.46 6.00 -38.00 6 -38 Z"></path><path fill="#999" d="M41 -44C  41.14 -45.04 41.54 -46.00 42.17 -46.83 43.00 -47.46 43.96 -47.86 45.00 -48.00 45 -48 46.00 -48.09 47.00 -48.16 48.00 -48.21 49.00 -48.24 50.00 -48.25 51.00 -48.24 52.00 -48.21 53.00 -48.16 54.00 -48.09 55.00 -48.00 55 -48 56.04 -47.86 57.00 -47.46 57.83 -46.83 58.46 -46.00 58.86 -45.04 59.00 -44.00 59 -44 59.00 -43.00 59.00 -42.00 59.00 -41.00 59 -41 58.86 -39.96 58.46 -39.00 57.83 -38.17 57.00 -37.54 56.04 -37.14 55.00 -37.00 55 -37 54.00 -36.91 53.00 -36.84 52.00 -36.79 51.00 -36.76 50.00 -36.75 49.00 -36.76 48.00 -36.79 47.00 -36.84 46.00 -36.91 45.00 -37.00 45 -37 43.96 -37.14 43.00 -37.54 42.17 -38.17 41.54 -39.00 41.14 -39.96 41.00 -41.00 41 -41 Z"></path><path fill="#ccc" d="M43 -45C  43.85 -45.81 45.00 -46.00 45 -46 46.00 -46.09 47.00 -46.16 48.00 -46.21 49.00 -46.24 50.00 -46.25 51.00 -46.24 52.00 -46.21 53.00 -46.16 54.00 -46.09 55.00 -46.00 55 -46 56.15 -45.81 57.00 -45.00 57 -45 56.15 -44.19 55.00 -44.00 55 -44 54.00 -43.91 53.00 -43.84 52.00 -43.79 51.00 -43.76 50.00 -43.75 49.00 -43.76 48.00 -43.79 47.00 -43.84 46.00 -43.91 45.00 -44.00 45 -44 43.85 -44.19 43.00 -45.00 43 -45 Z"></path><path fill="#ccc" d="M43 -45C  43.85 -45.81 45.00 -46.00 45 -46 46.00 -46.09 47.00 -46.16 48.00 -46.21 49.00 -46.24 50.00 -46.25 51.00 -46.24 52.00 -46.21 53.00 -46.16 54.00 -46.09 55.00 -46.00 55 -46 56.15 -45.81 57.00 -45.00 57 -45 56.15 -44.19 55.00 -44.00 55 -44 54.00 -43.91 53.00 -43.84 52.00 -43.79 51.00 -43.76 50.00 -43.75 49.00 -43.76 48.00 -43.79 47.00 -43.84 46.00 -43.91 45.00 -44.00 45 -44 43.85 -44.19 43.00 -45.00 43 -45 Z" transform="translate(0,4)"></path><g transform="translate(0,-45)"><path fill="white" d="M5.555555555555555 75C  5.42 75.99 5.31 76.97 5.21 77.96 5.13 78.95 5.06 79.95 5.01 80.94 4.98 81.93 4.96 82.93 4.96 83.92 4.97 84.91 5.01 85.91 5.05 86.90 5.12 87.89 5.20 88.88 5.30 89.87 5.41 90.86 5.54 91.85 5.69 92.83 5.86 93.81 6.03 94.79 6.23 95.76 6.44 96.74 6.67 97.70 6.91 98.67 7.17 99.63 7.45 100.58 7.74 101.53 8.05 102.48 8.37 103.42 8.71 104.35 9.06 105.28 9.43 106.21 9.82 107.12 10.22 108.03 10.63 108.94 11.06 109.83 11.51 110.72 11.97 111.61 12.44 112.48 12.93 113.35 13.43 114.20 13.95 115.05 14.48 115.89 15.02 116.73 15.58 117.55 16.15 118.36 16.74 119.17 17.33 119.96 17.95 120.75 18.57 121.52 19.21 122.28 19.86 123.04 20.52 123.78 21.19 124.51 21.88 125.23 22.58 125.94 23.29 126.63 24.01 127.32 24.74 127.99 25.48 128.65 26.24 129.30 27.00 129.93 27.78 130.56 27.77777777777778 130.55555555555554 28.66 131.04 29.56 131.51 30.46 131.96 31.38 132.39 32.30 132.80 33.24 133.19 34.18 133.55 35.13 133.90 36.08 134.22 37.05 134.52 38.02 134.80 39.00 135.06 39.98 135.30 40.97 135.51 41.96 135.70 42.96 135.87 43.96 136.02 44.96 136.14 45.96 136.24 46.97 136.32 47.98 136.38 48.99 136.41 50.00 136.43 51.01 136.41 52.02 136.38 53.03 136.32 54.04 136.24 55.04 136.14 56.04 136.02 57.04 135.87 58.04 135.70 59.03 135.51 60.02 135.30 61.00 135.06 61.98 134.80 62.95 134.52 63.92 134.22 64.87 133.90 65.82 133.55 66.76 133.19 67.70 132.80 68.62 132.39 69.54 131.96 70.44 131.51 71.34 131.04 72.22 130.56 72.22222222222223 130.55555555555554 73.00 129.93 73.76 129.30 74.52 128.65 75.26 127.99 75.99 127.32 76.71 126.63 77.42 125.94 78.12 125.23 78.81 124.51 79.48 123.78 80.14 123.04 80.79 122.28 81.43 121.52 82.05 120.75 82.67 119.96 83.26 119.17 83.85 118.36 84.42 117.55 84.98 116.73 85.52 115.89 86.05 115.05 86.57 114.20 87.07 113.35 87.56 112.48 88.03 111.61 88.49 110.72 88.94 109.83 89.37 108.94 89.78 108.03 90.18 107.12 90.57 106.21 90.94 105.28 91.29 104.35 91.63 103.42 91.95 102.48 92.26 101.53 92.55 100.58 92.83 99.63 93.09 98.67 93.33 97.70 93.56 96.74 93.77 95.76 93.97 94.79 94.14 93.81 94.31 92.83 94.46 91.85 94.59 90.86 94.70 89.87 94.80 88.88 94.88 87.89 94.95 86.90 94.99 85.91 95.03 84.91 95.04 83.92 95.04 82.93 95.02 81.93 94.99 80.94 94.94 79.95 94.87 78.95 94.79 77.96 94.69 76.97 94.58 75.99 94.44 75.00 94.44444444444446 74.99999999999999 94.28 74.02 94.09 73.04 93.88 72.07 93.65 71.10 93.39 70.14 93.10 69.18 92.79 68.24 92.46 67.30 92.11 66.37 91.73 65.44 91.33 64.53 90.91 63.63 90.46 62.74 90.00 61.86 89.51 60.99 89.00 60.14 88.47 59.29 87.91 58.47 87.34 57.65 86.75 56.85 86.14 56.06 85.50 55.29 84.85 54.54 84.18 53.80 83.50 53.08 82.79 52.38 82.07 51.69 81.33 51.03 80.57 50.38 79.80 49.75 79.01 49.14 78.21 48.55 77.40 47.98 76.57 47.43 75.72 46.90 74.86 46.39 74.00 45.91 73.11 45.44 72.22 45.00 72.22222222222223 44.999999999999986 71.31 44.61 70.39 44.23 69.46 43.87 68.53 43.53 67.59 43.20 66.64 42.89 65.69 42.60 64.74 42.32 63.78 42.06 62.81 41.82 61.84 41.60 60.87 41.40 59.89 41.21 58.91 41.04 57.93 40.89 56.94 40.75 55.96 40.63 54.97 40.54 53.97 40.45 52.98 40.39 51.99 40.35 50.99 40.32 50.00 40.31 49.01 40.32 48.01 40.35 47.02 40.39 46.03 40.45 45.03 40.54 44.04 40.63 43.06 40.75 42.07 40.89 41.09 41.04 40.11 41.21 39.13 41.40 38.16 41.60 37.19 41.82 36.22 42.06 35.26 42.32 34.31 42.60 33.36 42.89 32.41 43.20 31.47 43.53 30.54 43.87 29.61 44.23 28.69 44.61 27.78 45.00 27.777777777777786 44.999999999999986 26.89 45.44 26.00 45.91 25.14 46.39 24.28 46.90 23.43 47.43 22.60 47.98 21.79 48.55 20.99 49.14 20.20 49.75 19.43 50.38 18.67 51.03 17.93 51.69 17.21 52.38 16.50 53.08 15.82 53.80 15.15 54.54 14.50 55.29 13.86 56.06 13.25 56.85 12.66 57.65 12.09 58.47 11.53 59.29 11.00 60.14 10.49 60.99 10.00 61.86 9.54 62.74 9.09 63.63 8.67 64.53 8.27 65.44 7.89 66.37 7.54 67.30 7.21 68.24 6.90 69.18 6.61 70.14 6.35 71.10 6.12 72.07 5.91 73.04 5.72 74.02 5.56 75.00 5.555555555555564 74.99999999999999 Z"></path><path fill="#008919" d="M8.333333333333334 73C  8.12 73.98 7.92 74.96 7.74 75.94 7.59 76.93 7.45 77.92 7.33 78.91 7.23 79.91 7.16 80.91 7.10 81.91 7.06 82.91 7.04 83.91 7.04 84.91 7.07 85.91 7.11 86.91 7.17 87.90 7.25 88.90 7.36 89.90 7.48 90.89 7.62 91.88 7.78 92.87 7.96 93.85 8.16 94.83 8.38 95.80 8.62 96.78 8.88 97.74 9.16 98.70 9.46 99.66 9.78 100.61 10.11 101.55 10.47 102.48 10.84 103.41 11.23 104.33 11.64 105.25 12.07 106.15 12.52 107.04 12.98 107.93 13.46 108.81 13.96 109.67 14.48 110.53 15.01 111.38 15.56 112.21 16.13 113.04 16.71 113.85 17.31 114.65 17.93 115.44 18.56 116.22 19.20 116.98 19.86 117.73 20.54 118.47 21.23 119.19 21.94 119.90 22.66 120.59 23.39 121.27 24.14 121.94 24.90 122.59 25.67 123.23 26.45 123.85 27.25 124.45 28.06 125.04 28.88 125.61 29.71 126.17 30.56 126.70 30.555555555555557 126.7037037037037 31.47 127.13 32.39 127.53 33.32 127.91 34.25 128.28 35.20 128.62 36.15 128.94 37.11 129.24 38.08 129.51 39.05 129.77 40.03 130.00 41.01 130.21 42.00 130.40 42.99 130.57 43.99 130.72 44.98 130.84 45.98 130.94 46.99 131.02 47.99 131.08 48.99 131.11 50.00 131.12 51.01 131.11 52.01 131.08 53.01 131.02 54.02 130.94 55.02 130.84 56.01 130.72 57.01 130.57 58.00 130.40 58.99 130.21 59.97 130.00 60.95 129.77 61.92 129.51 62.89 129.24 63.85 128.94 64.80 128.62 65.75 128.28 66.68 127.91 67.61 127.53 68.53 127.13 69.44 126.70 69.44444444444444 126.7037037037037 70.29 126.17 71.12 125.61 71.94 125.04 72.75 124.45 73.55 123.85 74.33 123.23 75.10 122.59 75.86 121.94 76.61 121.27 77.34 120.59 78.06 119.90 78.77 119.19 79.46 118.47 80.14 117.73 80.80 116.98 81.44 116.22 82.07 115.44 82.69 114.65 83.29 113.85 83.87 113.04 84.44 112.21 84.99 111.38 85.52 110.53 86.04 109.67 86.54 108.81 87.02 107.93 87.48 107.04 87.93 106.15 88.36 105.25 88.77 104.33 89.16 103.41 89.53 102.48 89.89 101.55 90.22 100.61 90.54 99.66 90.84 98.70 91.12 97.74 91.38 96.78 91.62 95.80 91.84 94.83 92.04 93.85 92.22 92.87 92.38 91.88 92.52 90.89 92.64 89.90 92.75 88.90 92.83 87.90 92.89 86.91 92.93 85.91 92.96 84.91 92.96 83.91 92.94 82.91 92.90 81.91 92.84 80.91 92.77 79.91 92.67 78.91 92.55 77.92 92.41 76.93 92.26 75.94 92.08 74.96 91.88 73.98 91.67 73.00 91.66666666666666 73 91.43 72.03 91.16 71.07 90.87 70.12 90.55 69.18 90.20 68.24 89.82 67.32 89.42 66.41 89.00 65.51 88.55 64.62 88.07 63.74 87.57 62.88 87.04 62.04 86.49 61.21 85.92 60.39 85.32 59.59 84.70 58.81 84.06 58.05 83.40 57.30 82.72 56.58 82.02 55.87 81.29 55.19 80.55 54.52 79.79 53.88 79.01 53.26 78.21 52.66 77.40 52.08 76.57 51.53 75.73 51.00 74.87 50.50 74.00 50.02 73.11 49.56 72.21 49.13 71.30 48.73 70.38 48.35 69.44 48.00 69.44444444444443 48 68.51 47.66 67.57 47.33 66.63 47.02 65.68 46.73 64.72 46.46 63.76 46.20 62.80 45.96 61.83 45.74 60.86 45.53 59.88 45.34 58.90 45.17 57.92 45.02 56.94 44.89 55.95 44.77 54.96 44.67 53.97 44.59 52.98 44.53 51.99 44.48 50.99 44.46 50.00 44.45 49.01 44.46 48.01 44.48 47.02 44.53 46.03 44.59 45.04 44.67 44.05 44.77 43.06 44.89 42.08 45.02 41.10 45.17 40.12 45.34 39.14 45.53 38.17 45.74 37.20 45.96 36.24 46.20 35.28 46.46 34.32 46.73 33.37 47.02 32.43 47.33 31.49 47.66 30.56 48.00 30.555555555555543 48 29.62 48.35 28.70 48.73 27.79 49.13 26.89 49.56 26.00 50.02 25.13 50.50 24.27 51.00 23.43 51.53 22.60 52.08 21.79 52.66 20.99 53.26 20.21 53.88 19.45 54.52 18.71 55.19 17.98 55.87 17.28 56.58 16.60 57.30 15.94 58.05 15.30 58.81 14.68 59.59 14.08 60.39 13.51 61.21 12.96 62.04 12.43 62.88 11.93 63.74 11.45 64.62 11.00 65.51 10.58 66.41 10.18 67.32 9.80 68.24 9.45 69.18 9.13 70.12 8.84 71.07 8.57 72.03 8.33 73.00 8.333333333333321 73 Z"></path><path fill="white" d="M32.5 50C  32.50 51.00 32.50 52.00 32.50 53.00 32.50 54.00 32.50 55.00 32.5 55 33.03 55.79 33.71 56.47 34.50 57.00 34.5 57 35.49 57.21 36.47 57.42 37.46 57.61 38.46 57.78 39.45 57.95 40.45 58.10 41.45 58.24 42.45 58.36 43.45 58.48 44.45 58.58 45.45 58.67 46.46 58.75 47.47 58.81 48.47 58.86 49.48 58.90 50.49 58.92 51.50 58.94 52.50 58.94 53.51 58.92 54.52 58.90 55.53 58.86 56.53 58.81 57.54 58.75 58.55 58.67 59.55 58.58 60.55 58.48 61.55 58.36 62.55 58.24 63.55 58.10 64.55 57.95 65.54 57.78 66.54 57.61 67.53 57.42 68.51 57.21 69.50 57.00 69.5 57 70.29 56.47 70.97 55.79 71.50 55.00 71.5 55 71.50 54.00 71.50 53.00 71.50 52.00 71.50 51.00 71.50 50.00 71.5 50 70.50 49.90 69.50 50.00 69.5 50 68.51 50.21 67.53 50.42 66.54 50.61 65.54 50.78 64.55 50.95 63.55 51.10 62.55 51.24 61.55 51.36 60.55 51.48 59.55 51.58 58.55 51.67 57.54 51.75 56.53 51.81 55.53 51.86 54.52 51.90 53.51 51.92 52.50 51.94 51.50 51.94 50.49 51.92 49.48 51.90 48.47 51.86 47.47 51.81 46.46 51.75 45.45 51.67 44.45 51.58 43.45 51.48 42.45 51.36 41.45 51.24 40.45 51.10 39.45 50.95 38.46 50.78 37.46 50.61 36.47 50.42 35.49 50.21 34.50 50.00 34.5 50 33.50 49.90 32.50 50.00 32.5 50 Z" opacity="0.9"></path><path fill="white" d="M11.11111111111111 85C  11.36 85.97 11.62 86.94 11.88 87.90 12.16 88.86 12.45 89.82 12.74 90.77 13.05 91.73 13.36 92.68 13.69 93.62 14.02 94.57 14.37 95.50 14.72 96.44 15.08 97.37 15.45 98.30 15.83 99.23 16.22 100.15 16.62 101.07 17.03 101.98 17.45 102.89 17.88 103.79 18.31 104.69 18.76 105.59 19.21 106.48 19.67 107.37 20.14 108.25 20.62 109.13 21.11 110.00 21.11111111111111 110 22.10 109.84 23.08 109.68 24.06 109.51 25.04 109.34 26.02 109.16 27.00 108.98 27.98 108.80 28.96 108.60 29.94 108.41 30.92 108.21 31.89 108.00 32.87 107.79 33.84 107.57 34.81 107.35 35.78 107.13 36.75 106.89 37.72 106.66 38.69 106.42 39.65 106.17 40.62 105.92 41.58 105.67 42.55 105.41 43.51 105.15 44.47 104.88 45.42 104.60 46.38 104.32 47.34 104.04 48.29 103.75 49.25 103.46 50.20 103.16 51.15 102.86 52.09 102.55 53.04 102.24 53.99 101.93 54.93 101.60 55.87 101.28 56.81 100.95 57.75 100.61 58.69 100.27 59.62 99.93 60.56 99.58 61.49 99.22 62.42 98.87 63.35 98.50 64.28 98.13 65.20 97.76 66.12 97.39 67.04 97.00 67.96 96.62 68.88 96.23 69.79 95.83 70.71 95.43 71.62 95.03 72.53 94.62 73.43 94.20 74.34 93.79 75.24 93.36 76.14 92.94 77.04 92.51 77.94 92.07 78.83 91.63 79.73 91.18 80.61 90.73 81.50 90.28 82.39 89.82 83.27 89.36 84.15 88.89 85.03 88.42 85.91 87.95 86.78 87.47 87.65 86.98 88.52 86.49 89.39 86.00 90.25 85.50 91.11 85.00 91.11111111111111 85 90.39 84.31 89.66 83.62 88.92 82.94 88.17 82.27 87.42 81.61 86.66 80.95 85.90 80.30 85.13 79.66 84.35 79.03 83.57 78.40 82.78 77.78 81.98 77.17 81.18 76.57 80.37 75.98 79.56 75.39 78.74 74.82 77.91 74.25 77.08 73.69 76.24 73.13 75.40 72.59 74.55 72.06 73.70 71.53 72.84 71.01 71.98 70.50 71.11 70.00 71.11111111111111 70 70.10 69.98 69.10 69.96 68.09 69.94 67.08 69.93 66.07 69.93 65.07 69.93 64.06 69.94 63.05 69.95 62.04 69.97 61.04 69.99 60.03 70.02 59.02 70.05 58.01 70.08 57.01 70.13 56.00 70.17 54.99 70.23 53.99 70.28 52.98 70.35 51.98 70.41 50.97 70.49 49.97 70.56 48.96 70.65 47.96 70.73 46.96 70.83 45.95 70.92 44.95 71.03 43.95 71.13 42.95 71.25 41.95 71.36 40.95 71.49 39.95 71.62 38.95 71.75 37.95 71.89 36.95 72.03 35.96 72.18 34.96 72.33 33.97 72.49 32.97 72.65 31.98 72.82 30.98 72.99 29.99 73.17 29.00 73.36 28.01 73.54 27.02 73.74 26.04 73.93 25.05 74.14 24.06 74.35 23.08 74.56 22.09 74.78 21.11 75.00 21.111111111111114 75 20.31 75.62 19.51 76.25 18.74 76.90 17.97 77.56 17.22 78.24 16.48 78.94 15.76 79.64 15.05 80.37 14.35 81.11 13.67 81.86 13.01 82.62 12.36 83.40 11.73 84.20 11.11 85.00 11.111111111111114 85 Z"></path></g><g transform="translate(0,-45)"><path fill="#00cc00" d="M10 170C  9.91 169.00 9.84 168.00 9.77 167.00 9.72 166.00 9.67 165.00 9.64 164.00 9.61 163.00 9.60 162.00 9.59 161.00 9.60 160.00 9.61 159.00 9.64 158.00 9.67 157.00 9.72 156.00 9.77 155.00 9.84 154.00 9.91 153.00 10.00 152.00 10 152 9.10 151.43 8.11 151.07 7.06 150.92 6.00 151.00 6 151 5.90 150.00 6.00 149.00 6 149 6.92 148.45 7.94 148.11 9.00 148.00 9 148 10.06 148.39 11.00 149.00 11 149 10.72 148.04 10.25 147.15 9.62 146.38 8.85 145.75 7.96 145.28 7.00 145.00 7 145 6.38 144.31 5.64 143.75 4.81 143.34 3.92 143.09 3.00 143.00 3 143 2.61 141.94 2.00 141.00 2 141 3.00 140.00 3 140 3.99 139.80 5.01 139.80 6.00 140.00 6 140 6.79 140.53 7.47 141.21 8.00 142.00 8 142 9.00 142.00 9 142 9.10 143.00 9.00 144.00 9 144 8.85 143.01 8.73 142.01 8.65 141.01 8.60 140.00 8.58 139.00 8.60 138.00 8.65 136.99 8.73 135.99 8.85 134.99 9.00 134.00 9 134 8.60 133.12 8.16 132.27 7.68 131.43 7.16 130.62 6.60 129.84 6.00 129.08 5.37 128.36 4.70 127.66 4.00 127.00 4 127 3.47 126.21 2.79 125.53 2.00 125.00 2 125 2.00 124.00 2 124 3.00 123.00 3 123 4.00 122.90 5.00 123.00 5 123 5.79 123.53 6.47 124.21 7.00 125.00 7 125 7.51 125.91 8.20 126.70 9.03 127.33 9.98 127.77 11.00 128.00 11 128 11.92 128.55 12.94 128.89 14.00 129.00 14 129 15.06 129.08 16.11 128.93 17.10 128.57 18.00 128.00 18 128 18.10 127.00 18.00 126.00 18 126 17.00 125.00 17 125 16.01 125.20 14.99 125.20 14.00 125.00 14 125 13.61 123.94 13.00 123.00 13 123 13.00 122.00 13 122 14.00 121.00 14 121 15.05 121.07 16.09 121.22 17.12 121.43 18.13 121.72 19.11 122.08 20.07 122.51 21.00 123.00 21 123 22.00 122.91 23.00 122.84 24.00 122.79 25.00 122.76 26.00 122.75 27.00 122.76 28.00 122.79 29.00 122.84 30.00 122.91 31.00 123.00 31 123 31.95 123.31 32.91 123.63 33.86 123.94 34.81 124.25 35.77 124.56 36.72 124.88 37.67 125.19 38.63 125.50 39.58 125.81 40.53 126.13 41.48 126.44 42.44 126.75 43.39 127.06 44.34 127.38 45.30 127.69 46.25 128.00 47.20 128.31 48.16 128.63 49.11 128.94 50.06 129.25 51.02 129.56 51.97 129.88 52.92 130.19 53.88 130.50 54.83 130.81 55.78 131.13 56.73 131.44 57.69 131.75 58.64 132.06 59.59 132.38 60.55 132.69 61.50 133.00 62.45 133.31 63.41 133.63 64.36 133.94 65.31 134.25 66.27 134.56 67.22 134.88 68.17 135.19 69.13 135.50 70.08 135.81 71.03 136.13 71.98 136.44 72.94 136.75 73.89 137.06 74.84 137.38 75.80 137.69 76.75 138.00 77.70 138.31 78.66 138.63 79.61 138.94 80.56 139.25 81.52 139.56 82.47 139.88 83.42 140.19 84.38 140.50 85.33 140.81 86.28 141.13 87.23 141.44 88.19 141.75 89.14 142.06 90.09 142.38 91.05 142.69 92.00 143.00 92 143 92.00 144.00 92.00 145.00 92.00 146.00 92.00 147.00 92.00 148.00 92.00 149.00 92.00 150.00 92.00 151.00 92.00 152.00 92.00 153.00 92.00 154.00 92.00 155.00 92.00 156.00 92.00 157.00 92.00 158.00 92.00 159.00 92.00 160.00 92.00 161.00 92.00 162.00 92.00 163.00 92.00 164.00 92.00 165.00 92.00 166.00 92.00 167.00 92.00 168.00 92.00 169.00 92.00 170.00 92.00 171.00 92.00 172.00 92.00 173.00 92.00 174.00 92.00 175.00 92.00 176.00 92.00 177.00 92.00 178.00 92.00 179.00 92.00 180.00 92.00 181.00 92.00 182.00 92.00 183.00 92 183 91.28 183.69 90.55 184.38 89.83 185.07 89.10 185.76 88.38 186.45 87.66 187.14 86.93 187.83 86.21 188.52 85.48 189.21 84.76 189.90 84.03 190.59 83.31 191.28 82.59 191.97 81.86 192.66 81.14 193.34 80.41 194.03 79.69 194.72 78.97 195.41 78.24 196.10 77.52 196.79 76.79 197.48 76.07 198.17 75.34 198.86 74.62 199.55 73.90 200.24 73.17 200.93 72.45 201.62 71.72 202.31 71.00 203.00 71 203 Z"></path><path fill="#3a9800" d="M90 140C  89.24 139.38 88.46 138.78 87.68 138.20 86.88 137.63 86.07 137.07 85.25 136.53 84.42 136.01 83.58 135.51 82.73 135.02 81.87 134.54 81.00 134.09 80.13 133.65 79.24 133.23 78.35 132.83 77.45 132.44 76.54 132.07 75.62 131.72 74.70 131.39 73.77 131.07 72.84 130.78 71.90 130.50 70.95 130.24 70.00 130.00 70 130 70.00 129.00 70.00 128.00 70 128 70.95 128.24 71.90 128.50 72.84 128.78 73.77 129.07 74.70 129.39 75.62 129.72 76.54 130.07 77.45 130.44 78.35 130.83 79.24 131.23 80.13 131.65 81.00 132.09 81.87 132.54 82.73 133.02 83.58 133.51 84.42 134.01 85.25 134.53 86.07 135.07 86.88 135.63 87.68 136.20 88.46 136.78 89.24 137.38 90.00 138.00 90 138 Z"></path><path fill="#fffad2" d="M15 150C  15.01 149.01 15.05 148.02 15.12 147.03 15.22 146.04 15.34 145.06 15.49 144.07 15.67 143.10 15.87 142.13 16.10 141.16 16.36 140.20 16.64 139.25 16.95 138.31 17.29 137.38 17.65 136.45 18.03 135.54 18.44 134.64 18.88 133.74 19.34 132.87 19.82 132.00 20.33 131.15 20.86 130.31 21.42 129.49 21.99 128.68 22.59 127.89 23.21 127.11 23.85 126.36 24.51 125.62 25.20 124.90 25.90 124.20 26.62 123.51 27.36 122.85 28.11 122.21 28.89 121.59 29.68 120.99 30.49 120.42 31.31 119.86 32.15 119.33 33.00 118.82 33.87 118.34 34.74 117.88 35.64 117.44 36.54 117.03 37.45 116.65 38.38 116.29 39.31 115.95 40.25 115.64 41.20 115.36 42.16 115.10 43.13 114.87 44.10 114.67 45.07 114.49 46.06 114.34 47.04 114.22 48.03 114.12 49.02 114.05 50.01 114.01 51.00 114.00 51 114 51.99 114.01 52.98 114.05 53.97 114.12 54.96 114.22 55.94 114.34 56.93 114.49 57.90 114.67 58.87 114.87 59.84 115.10 60.80 115.36 61.75 115.64 62.69 115.95 63.62 116.29 64.55 116.65 65.46 117.03 66.36 117.44 67.26 117.88 68.13 118.34 69.00 118.82 69.85 119.33 70.69 119.86 71.51 120.42 72.32 120.99 73.11 121.59 73.89 122.21 74.64 122.85 75.38 123.51 76.10 124.20 76.80 124.90 77.49 125.62 78.15 126.36 78.79 127.11 79.41 127.89 80.01 128.68 80.58 129.49 81.14 130.31 81.67 131.15 82.18 132.00 82.66 132.87 83.12 133.74 83.56 134.64 83.97 135.54 84.35 136.45 84.71 137.38 85.05 138.31 85.36 139.25 85.64 140.20 85.90 141.16 86.13 142.13 86.33 143.10 86.51 144.07 86.66 145.06 86.78 146.04 86.88 147.03 86.95 148.02 86.99 149.01 87.00 150.00 87 150 86.99 150.99 86.95 151.98 86.88 152.97 86.78 153.96 86.66 154.94 86.51 155.93 86.33 156.90 86.13 157.87 85.90 158.84 85.64 159.80 85.36 160.75 85.05 161.69 84.71 162.62 84.35 163.55 83.97 164.46 83.56 165.36 83.12 166.26 82.66 167.13 82.18 168.00 81.67 168.85 81.14 169.69 80.58 170.51 80.01 171.32 79.41 172.11 78.79 172.89 78.15 173.64 77.49 174.38 76.80 175.10 76.10 175.80 75.38 176.49 74.64 177.15 73.89 177.79 73.11 178.41 72.32 179.01 71.51 179.58 70.69 180.14 69.85 180.67 69.00 181.18 68.13 181.66 67.26 182.12 66.36 182.56 65.46 182.97 64.55 183.35 63.62 183.71 62.69 184.05 61.75 184.36 60.80 184.64 59.84 184.90 58.87 185.13 57.90 185.33 56.93 185.51 55.94 185.66 54.96 185.78 53.97 185.88 52.98 185.95 51.99 185.99 51.00 186.00 51 186 50.01 185.99 49.02 185.95 48.03 185.88 47.04 185.78 46.06 185.66 45.07 185.51 44.10 185.33 43.13 185.13 42.16 184.90 41.20 184.64 40.25 184.36 39.31 184.05 38.38 183.71 37.45 183.35 36.54 182.97 35.64 182.56 34.74 182.12 33.87 181.66 33.00 181.18 32.15 180.67 31.31 180.14 30.49 179.58 29.68 179.01 28.89 178.41 28.11 177.79 27.36 177.15 26.62 176.49 25.90 175.80 25.20 175.10 24.51 174.38 23.85 173.64 23.21 172.89 22.59 172.11 21.99 171.32 21.42 170.51 20.86 169.69 20.33 168.85 19.82 168.00 19.34 167.13 18.88 166.26 18.44 165.36 18.03 164.46 17.65 163.55 17.29 162.62 16.95 161.69 16.64 160.75 16.36 159.80 16.10 158.84 15.87 157.87 15.67 156.90 15.49 155.93 15.34 154.94 15.22 153.96 15.12 152.97 15.05 151.98 15.01 150.99 15.00 150.00 15 150 Z"></path><path fill="red" d="M17 165C  16.46 164.18 16.00 163.32 15.61 162.41 15.31 161.48 15.09 160.52 14.96 159.55 14.91 158.57 14.96 157.59 15.09 156.62 15.30 155.66 15.60 154.73 15.99 153.82 16.45 152.96 16.98 152.13 17.59 151.36 18.27 150.65 19.00 150.00 19 150 19.82 149.40 20.68 148.87 21.59 148.42 22.53 148.04 23.49 147.75 24.48 147.54 25.49 147.41 26.50 147.37 27.51 147.41 28.52 147.54 29.51 147.75 30.47 148.04 31.41 148.42 32.32 148.87 33.18 149.40 34.00 150.00 34 150 34.65 150.73 35.24 151.52 35.75 152.35 36.19 153.23 36.55 154.14 36.82 155.08 37.01 156.04 37.12 157.02 37.13 158.00 37.06 158.98 36.90 159.95 36.66 160.90 36.33 161.82 35.93 162.71 35.44 163.56 34.88 164.37 34.25 165.12 33.56 165.81 32.81 166.44 32.00 167.00 32 167 31.21 167.63 30.36 168.18 29.47 168.64 28.53 169.01 27.55 169.28 26.56 169.45 25.55 169.52 24.54 169.49 23.54 169.35 22.56 169.12 21.61 168.79 20.69 168.36 19.83 167.85 19.02 167.25 18.27 166.57 17.60 165.82 17.00 165.00 17 165 Z"></path><path fill="maroon" d="M20 155C  19.28 154.21 18.58 153.41 17.90 152.58 17.24 151.74 16.61 150.88 16.00 150.00 16 150 15.35 149.22 14.71 148.45 14.07 147.66 13.44 146.87 12.81 146.08 12.19 145.28 11.58 144.48 10.97 143.68 10.36 142.87 9.76 142.06 9.17 141.24 8.58 140.42 7.99 139.60 7.42 138.77 6.85 137.93 6.28 137.10 5.72 136.26 5.16 135.41 4.61 134.57 4.07 133.71 3.53 132.86 3.00 132.00 3 132 4.00 131.00 4 131 4.49 131.88 5.00 132.75 5.52 133.62 6.05 134.48 6.59 135.33 7.15 136.17 7.71 137.01 8.29 137.84 8.89 138.65 9.49 139.46 10.10 140.27 10.73 141.06 11.37 141.84 12.02 142.61 12.68 143.38 13.35 144.13 14.03 144.88 14.72 145.61 15.42 146.34 16.14 147.05 16.86 147.76 17.60 148.45 18.34 149.13 19.09 149.81 19.86 150.47 20.63 151.12 21.41 151.76 22.20 152.38 23.00 153.00 23 153 22.84 154.10 22.13 154.94 21.07 155.28 20.00 155.00 20 155 Z"></path><path fill="#00cc00" d="M11 167C  11.08 168.00 11.16 169.00 11.25 170.01 11.34 171.01 11.44 172.01 11.55 173.01 11.67 174.00 11.79 175.00 11.92 176.00 12.06 176.99 12.20 177.99 12.35 178.98 12.50 179.98 12.67 180.97 12.83 181.96 13.01 182.95 13.19 183.94 13.38 184.92 13.58 185.91 13.78 186.90 13.99 187.88 14.20 188.86 14.42 189.84 14.65 190.82 14.89 191.80 15.13 192.77 15.38 193.75 15.63 194.72 15.89 195.69 16.16 196.66 16.44 197.63 16.72 198.59 17.00 199.55 17.30 200.52 17.60 201.48 17.90 202.43 18.22 203.39 18.53 204.34 18.86 205.29 19.19 206.24 19.53 207.19 19.87 208.13 20.23 209.07 20.58 210.01 20.95 210.95 21.32 211.89 21.69 212.82 22.07 213.75 22.46 214.67 22.86 215.60 23.26 216.52 23.66 217.44 24.08 218.36 24.50 219.27 24.92 220.18 25.35 221.09 25.79 221.99 26.24 222.90 26.69 223.79 27.14 224.69 27.60 225.58 28.07 226.47 28.54 227.36 29.02 228.24 29.51 229.12 30.00 230.00 30 230 30.42 230.92 30.83 231.83 31.24 232.75 31.64 233.67 32.04 234.60 32.43 235.52 32.82 236.45 33.21 237.38 33.59 238.31 33.96 239.24 34.33 240.18 34.70 241.11 35.06 242.05 35.42 242.99 35.77 243.94 36.12 244.88 36.46 245.83 36.80 246.77 37.13 247.72 37.46 248.67 37.78 249.63 38.10 250.58 38.41 251.53 38.72 252.49 39.02 253.45 39.32 254.41 39.62 255.37 39.91 256.34 40.19 257.30 40.47 258.27 40.75 259.23 41.02 260.20 41.28 261.17 41.54 262.14 41.80 263.12 42.05 264.09 42.29 265.07 42.53 266.04 42.77 267.02 43.00 268.00 43 268 44.00 268.08 45.00 268.15 46.00 268.20 47.01 268.25 48.01 268.28 49.01 268.30 50.02 268.32 51.02 268.32 52.02 268.31 53.03 268.28 54.03 268.25 55.03 268.21 56.04 268.15 57.04 268.08 58.04 268.01 59.04 267.92 60.04 267.82 61.03 267.71 62.03 267.58 63.02 267.45 64.02 267.30 65.01 267.15 66.00 266.98 66.99 266.80 67.97 266.62 68.96 266.42 69.94 266.21 70.92 265.98 71.89 265.75 72.87 265.51 73.84 265.25 74.81 264.99 75.77 264.71 76.73 264.43 77.69 264.13 78.65 263.82 79.60 263.50 80.55 263.17 81.49 262.83 82.43 262.48 83.37 262.12 84.30 261.75 85.23 261.37 86.15 260.98 87.07 260.58 87.99 260.16 88.90 259.74 89.80 259.31 90.70 258.86 91.60 258.41 92.49 257.95 93.38 257.48 94.26 256.99 95.13 256.50 96.00 256.00 96 256 95.74 255.02 95.50 254.04 95.25 253.06 95.02 252.08 94.79 251.09 94.56 250.11 94.35 249.12 94.14 248.13 93.94 247.14 93.74 246.15 93.55 245.16 93.37 244.16 93.19 243.17 93.02 242.17 92.86 241.17 92.71 240.17 92.56 239.17 92.41 238.17 92.28 237.17 92.15 236.17 92.03 235.17 91.91 234.16 91.80 233.16 91.70 232.15 91.61 231.14 91.52 230.14 91.44 229.13 91.36 228.12 91.30 227.11 91.24 226.10 91.18 225.09 91.13 224.08 91.09 223.07 91.06 222.06 91.03 221.05 91.01 220.04 91.00 219.03 90.99 218.02 90.99 217.01 91.00 216.00 91 216 91.08 215.00 91.16 214.00 91.24 213.01 91.32 212.01 91.39 211.01 91.46 210.01 91.53 209.01 91.59 208.02 91.66 207.02 91.72 206.02 91.78 205.02 91.83 204.02 91.88 203.02 91.93 202.02 91.98 201.02 92.03 200.02 92.07 199.02 92.11 198.02 92.15 197.02 92.19 196.02 92.22 195.02 92.25 194.02 92.28 193.02 92.30 192.02 92.33 191.02 92.35 190.02 92.36 189.02 92.38 188.01 92.39 187.01 92.40 186.01 92.41 185.01 92.42 184.01 92.42 183.01 92.42 182.01 92.42 181.01 92.41 180.01 92.41 179.01 92.40 178.01 92.38 177.01 92.37 176.00 92.35 175.00 92.33 174.00 92.31 173.00 92.29 172.00 92.26 171.00 92.23 170.00 92.20 169.00 92.16 168.00 92.13 167.00 92.09 166.00 92.04 165.00 92.00 164.00 92 164 91.24 164.64 90.47 165.27 89.69 165.89 88.91 166.50 88.11 167.09 87.30 167.68 86.49 168.25 85.67 168.81 84.83 169.35 83.99 169.88 83.15 170.40 82.29 170.91 81.43 171.40 80.56 171.88 79.68 172.35 78.79 172.80 77.90 173.24 77.00 173.67 76.10 174.08 75.18 174.48 74.27 174.86 73.34 175.23 72.42 175.59 71.48 175.93 70.54 176.26 69.60 176.57 68.65 176.87 67.70 177.15 66.74 177.42 65.78 177.68 64.81 177.92 63.84 178.14 62.87 178.35 61.90 178.55 60.92 178.73 59.94 178.89 58.95 179.04 57.97 179.18 56.98 179.30 55.99 179.40 55.00 179.49 54.01 179.57 53.02 179.63 52.02 179.67 51.03 179.70 50.04 179.72 49.04 179.71 48.05 179.70 47.05 179.67 46.06 179.62 45.07 179.56 44.08 179.48 43.09 179.39 42.10 179.28 41.11 179.16 40.13 179.02 39.14 178.87 38.16 178.70 37.18 178.52 36.21 178.32 35.24 178.11 34.27 177.88 33.31 177.64 32.35 177.38 31.39 177.11 30.44 176.82 29.49 176.52 28.54 176.21 27.61 175.88 26.67 175.53 25.75 175.17 24.82 174.80 23.91 174.41 23.00 174.01 22.09 173.60 21.19 173.17 20.30 172.73 19.42 172.28 18.54 171.81 17.67 171.32 16.81 170.83 15.96 170.32 15.11 169.80 14.27 169.26 13.44 168.72 12.62 168.16 11.80 167.58 11.00 167.00 11 167 Z"></path><path fill="#3a9800" d="M8 155C  8.02 156.00 8.06 157.01 8.09 158.01 8.14 159.01 8.19 160.01 8.25 161.02 8.31 162.02 8.38 163.02 8.46 164.02 8.54 165.02 8.64 166.02 8.73 167.02 8.84 168.01 8.95 169.01 9.07 170.01 9.19 171.00 9.32 172.00 9.46 172.99 9.61 173.99 9.76 174.98 9.92 175.97 10.08 176.96 10.25 177.95 10.43 178.94 10.61 179.92 10.80 180.91 11.00 181.89 11.21 182.87 11.42 183.86 11.63 184.84 11.86 185.81 12.09 186.79 12.32 187.77 12.57 188.74 12.82 189.71 13.07 190.68 13.34 191.65 13.61 192.62 13.88 193.58 14.16 194.54 14.45 195.51 14.75 196.46 15.05 197.42 15.36 198.38 15.67 199.33 15.99 200.28 16.32 201.23 16.65 202.18 16.99 203.12 17.34 204.06 17.69 205.00 18.05 205.94 18.42 206.87 18.79 207.81 19.16 208.74 19.55 209.66 19.94 210.59 20.33 211.51 20.73 212.43 21.14 213.35 21.56 214.26 21.98 215.17 22.40 216.08 22.84 216.99 23.28 217.89 23.72 218.79 24.17 219.69 24.63 220.58 25.09 221.47 25.56 222.36 26.03 223.24 26.51 224.12 27.00 225.00 27 225 27.43 225.89 27.86 226.79 28.29 227.69 28.71 228.59 29.13 229.49 29.54 230.39 29.94 231.30 30.35 232.21 30.75 233.11 31.14 234.03 31.53 234.94 31.91 235.86 32.29 236.77 32.67 237.69 33.04 238.61 33.41 239.54 33.77 240.46 34.12 241.39 34.48 242.32 34.82 243.25 35.17 244.18 35.51 245.11 35.84 246.05 36.17 246.99 36.49 247.92 36.81 248.86 37.13 249.81 37.44 250.75 37.75 251.69 38.05 252.64 38.35 253.59 38.64 254.54 38.92 255.49 39.21 256.44 39.48 257.39 39.76 258.35 40.03 259.30 40.29 260.26 40.55 261.22 40.80 262.18 41.05 263.14 41.30 264.11 41.54 265.07 41.77 266.03 42.00 267.00 42 267 43.00 267.50 44.00 268.00 44 268 43.77 267.03 43.54 266.07 43.30 265.11 43.05 264.14 42.80 263.18 42.55 262.22 42.29 261.26 42.03 260.30 41.76 259.35 41.48 258.39 41.21 257.44 40.92 256.49 40.64 255.54 40.35 254.59 40.05 253.64 39.75 252.69 39.44 251.75 39.13 250.81 38.81 249.86 38.49 248.92 38.17 247.99 37.84 247.05 37.51 246.11 37.17 245.18 36.82 244.25 36.48 243.32 36.12 242.39 35.77 241.46 35.41 240.54 35.04 239.61 34.67 238.69 34.29 237.77 33.91 236.86 33.53 235.94 33.14 235.03 32.75 234.11 32.35 233.21 31.94 232.30 31.54 231.39 31.13 230.49 30.71 229.59 30.29 228.69 29.86 227.79 29.43 226.89 29.00 226.00 29 226 28.51 225.12 28.03 224.24 27.56 223.36 27.09 222.47 26.63 221.58 26.17 220.69 25.72 219.79 25.28 218.89 24.84 217.99 24.40 217.08 23.98 216.17 23.56 215.26 23.14 214.35 22.73 213.43 22.33 212.51 21.94 211.59 21.55 210.66 21.16 209.74 20.79 208.81 20.42 207.87 20.05 206.94 19.69 206.00 19.34 205.06 18.99 204.12 18.65 203.18 18.32 202.23 17.99 201.28 17.67 200.33 17.36 199.38 17.05 198.42 16.75 197.46 16.45 196.51 16.16 195.54 15.88 194.58 15.61 193.62 15.34 192.65 15.07 191.68 14.82 190.71 14.57 189.74 14.32 188.77 14.09 187.79 13.86 186.81 13.63 185.84 13.42 184.86 13.21 183.87 13.00 182.89 12.80 181.91 12.61 180.92 12.43 179.94 12.25 178.95 12.08 177.96 11.92 176.97 11.76 175.98 11.61 174.99 11.46 173.99 11.32 173.00 11.19 172.00 11.07 171.01 10.95 170.01 10.84 169.01 10.73 168.02 10.64 167.02 10.54 166.02 10.46 165.02 10.38 164.02 10.31 163.02 10.25 162.02 10.19 161.01 10.14 160.01 10.09 159.01 10.06 158.01 10.02 157.00 10.00 156.00 10 156 10.62 156.78 11.25 157.54 11.91 158.29 12.58 159.02 13.28 159.74 13.99 160.44 14.71 161.11 15.46 161.78 16.21 162.42 16.99 163.04 17.78 163.65 18.59 164.23 19.40 164.79 20.24 165.34 21.08 165.86 21.94 166.36 22.82 166.84 23.70 167.30 24.59 167.73 25.50 168.15 26.41 168.54 27.34 168.90 28.27 169.25 29.21 169.57 30.16 169.87 31.12 170.14 32.08 170.39 33.05 170.62 34.02 170.82 35.00 171.00 35 171 35.99 171.20 36.98 171.39 37.97 171.55 38.97 171.71 39.96 171.84 40.97 171.96 41.97 172.06 42.97 172.15 43.98 172.21 44.98 172.26 45.99 172.30 47.00 172.31 48.00 172.31 49.01 172.30 50.02 172.26 51.02 172.21 52.03 172.15 53.03 172.06 54.03 171.96 55.04 171.84 56.03 171.71 57.03 171.55 58.02 171.39 59.01 171.20 60.00 171.00 60 171 60.97 170.76 61.92 170.51 62.88 170.22 63.82 169.92 64.76 169.59 65.69 169.23 66.61 168.86 67.52 168.46 68.42 168.04 69.31 167.60 70.19 167.13 71.05 166.64 71.91 166.13 72.75 165.61 73.58 165.06 74.39 164.48 75.19 163.89 75.97 163.28 76.74 162.65 77.49 162.01 78.23 161.34 78.95 160.65 79.65 159.95 80.34 159.23 81.01 158.49 81.65 157.74 82.28 156.97 82.89 156.19 83.48 155.39 84.06 154.58 84.61 153.75 85.13 152.91 85.64 152.05 86.13 151.19 86.60 150.31 87.04 149.42 87.46 148.52 87.86 147.61 88.23 146.69 88.59 145.76 88.92 144.82 89.22 143.88 89.51 142.92 89.76 141.97 90.00 141.00 90 141 90.09 142.00 90.18 142.99 90.27 143.99 90.36 144.99 90.44 145.99 90.52 146.99 90.60 147.98 90.67 148.98 90.74 149.98 90.81 150.98 90.88 151.98 90.95 152.98 91.01 153.98 91.07 154.98 91.13 155.98 91.18 156.98 91.23 157.98 91.29 158.98 91.33 159.98 91.38 160.98 91.42 161.98 91.46 162.98 91.50 163.98 91.53 164.98 91.57 165.98 91.60 166.98 91.62 167.99 91.65 168.99 91.67 169.99 91.69 170.99 91.71 171.99 91.72 172.99 91.74 173.99 91.75 174.99 91.75 176.00 91.76 177.00 91.76 178.00 91.76 179.00 91.76 180.00 91.75 181.00 91.75 182.01 91.74 183.01 91.72 184.01 91.71 185.01 91.69 186.01 91.67 187.01 91.65 188.01 91.62 189.01 91.60 190.02 91.57 191.02 91.53 192.02 91.50 193.02 91.46 194.02 91.42 195.02 91.38 196.02 91.33 197.02 91.29 198.02 91.23 199.02 91.18 200.02 91.13 201.02 91.07 202.02 91.01 203.02 90.95 204.02 90.88 205.02 90.81 206.02 90.74 207.02 90.67 208.02 90.60 209.02 90.52 210.01 90.44 211.01 90.36 212.01 90.27 213.01 90.18 214.01 90.09 215.00 90.00 216.00 90 216 89.99 217.01 89.99 218.02 90.00 219.03 90.01 220.04 90.03 221.05 90.06 222.06 90.09 223.07 90.13 224.08 90.18 225.09 90.24 226.10 90.30 227.11 90.36 228.12 90.44 229.13 90.52 230.14 90.61 231.14 90.70 232.15 90.80 233.16 90.91 234.16 91.03 235.17 91.15 236.17 91.28 237.17 91.41 238.17 91.56 239.17 91.71 240.17 91.86 241.17 92.02 242.17 92.19 243.17 92.37 244.16 92.55 245.16 92.74 246.15 92.94 247.14 93.14 248.13 93.35 249.12 93.56 250.11 93.79 251.09 94.02 252.08 94.25 253.06 94.50 254.04 94.74 255.02 95.00 256.00 95 256 96.00 255.51 97.00 255.00 97 255 96.74 254.02 96.50 253.04 96.25 252.06 96.02 251.08 95.79 250.09 95.56 249.11 95.35 248.12 95.14 247.13 94.94 246.14 94.74 245.15 94.55 244.16 94.37 243.16 94.19 242.17 94.02 241.17 93.86 240.17 93.71 239.17 93.56 238.17 93.41 237.17 93.28 236.17 93.15 235.17 93.03 234.17 92.91 233.16 92.80 232.16 92.70 231.15 92.61 230.14 92.52 229.14 92.44 228.13 92.36 227.12 92.30 226.11 92.24 225.10 92.18 224.09 92.13 223.08 92.09 222.07 92.06 221.06 92.03 220.05 92.01 219.04 92.00 218.03 91.99 217.02 91.99 216.01 92.00 215.00 92 215 92.09 214.00 92.19 213.01 92.27 212.01 92.36 211.01 92.44 210.01 92.53 209.01 92.60 208.02 92.68 207.02 92.76 206.02 92.83 205.02 92.90 204.02 92.96 203.02 93.03 202.02 93.09 201.02 93.15 200.02 93.20 199.02 93.26 198.02 93.31 197.02 93.36 196.02 93.40 195.02 93.45 194.02 93.49 193.02 93.53 192.02 93.56 191.02 93.60 190.02 93.63 189.02 93.66 188.02 93.68 187.01 93.71 186.01 93.73 185.01 93.75 184.01 93.76 183.01 93.78 182.01 93.79 181.01 93.80 180.00 93.80 179.00 93.81 178.00 93.81 177.00 93.81 176.00 93.80 175.00 93.80 174.00 93.79 172.99 93.78 171.99 93.76 170.99 93.75 169.99 93.73 168.99 93.71 167.99 93.68 166.99 93.66 165.98 93.63 164.98 93.60 163.98 93.56 162.98 93.53 161.98 93.49 160.98 93.45 159.98 93.40 158.98 93.36 157.98 93.31 156.98 93.26 155.98 93.20 154.98 93.15 153.98 93.09 152.98 93.03 151.98 92.96 150.98 92.90 149.98 92.83 148.98 92.76 147.98 92.68 146.98 92.60 145.98 92.53 144.99 92.44 143.99 92.36 142.99 92.27 141.99 92.19 140.99 92.09 140.00 92.00 139.00 92 139 91.40 138.30 90.69 137.72 89.88 137.28 89.00 137.00 89 137 88.81 137.99 88.60 138.98 88.37 139.96 88.11 140.94 87.82 141.90 87.51 142.86 87.18 143.82 86.82 144.76 86.44 145.69 86.04 146.62 85.61 147.53 85.16 148.44 84.68 149.33 84.19 150.21 83.67 151.07 83.13 151.93 82.57 152.77 81.99 153.59 81.39 154.40 80.76 155.19 80.12 155.97 79.46 156.73 78.78 157.48 78.08 158.21 77.36 158.92 76.63 159.61 75.87 160.28 75.10 160.93 74.32 161.57 73.52 162.18 72.70 162.77 71.87 163.35 71.02 163.90 70.16 164.43 69.29 164.94 68.41 165.42 67.51 165.88 66.60 166.33 65.68 166.74 64.76 167.14 63.82 167.51 62.87 167.85 61.91 168.18 60.95 168.48 59.98 168.75 59.00 169.00 59 169 58.01 169.20 57.02 169.39 56.03 169.55 55.03 169.71 54.04 169.84 53.03 169.96 52.03 170.06 51.03 170.15 50.02 170.21 49.02 170.26 48.01 170.30 47.00 170.31 46.00 170.31 44.99 170.30 43.98 170.26 42.98 170.21 41.97 170.15 40.97 170.06 39.97 169.96 38.96 169.84 37.97 169.71 36.97 169.55 35.98 169.39 34.99 169.20 34.00 169.00 34 169 33.02 168.78 32.05 168.54 31.09 168.27 30.14 167.97 29.19 167.66 28.25 167.32 27.31 166.95 26.39 166.57 25.48 166.16 24.58 165.72 23.69 165.27 22.81 164.79 21.94 164.29 21.09 163.77 20.25 163.23 19.42 162.67 18.61 162.09 17.81 161.48 17.03 160.86 16.26 160.22 15.51 159.56 14.78 158.88 14.06 158.18 13.36 157.46 12.68 156.73 12.02 155.98 11.38 155.22 10.75 154.43 10.15 153.64 9.56 152.83 9.00 152.00 9 152 Z"></path><path fill="#3a9800" d="M11 170C  11.67 170.73 12.36 171.44 13.07 172.14 13.79 172.82 14.54 173.48 15.29 174.12 16.07 174.75 16.86 175.35 17.66 175.93 18.48 176.50 19.31 177.04 20.15 177.56 21.01 178.06 21.88 178.54 22.76 179.00 23.65 179.44 24.55 179.85 25.47 180.24 26.39 180.61 27.32 180.96 28.26 181.28 29.21 181.58 30.16 181.85 31.12 182.10 32.09 182.33 33.06 182.53 34.03 182.71 35.02 182.87 36.00 183.00 36 183 36.99 183.20 37.98 183.39 38.97 183.55 39.97 183.71 40.96 183.84 41.97 183.96 42.97 184.06 43.97 184.15 44.98 184.21 45.98 184.26 46.99 184.30 48.00 184.31 49.00 184.31 50.01 184.30 51.02 184.26 52.02 184.21 53.03 184.15 54.03 184.06 55.03 183.96 56.04 183.84 57.03 183.71 58.03 183.55 59.02 183.39 60.01 183.20 61.00 183.00 61 183 61.98 182.83 62.96 182.64 63.93 182.42 64.90 182.18 65.86 181.91 66.81 181.62 67.76 181.31 68.69 180.97 69.62 180.61 70.54 180.23 71.45 179.82 72.35 179.39 73.24 178.94 74.12 178.47 74.98 177.97 75.83 177.46 76.67 176.92 77.50 176.36 78.31 175.78 79.10 175.18 79.89 174.57 80.65 173.93 81.40 173.27 82.13 172.60 82.85 171.91 83.55 171.20 84.23 170.47 84.89 169.73 85.54 168.97 86.16 168.19 86.77 167.40 87.35 166.59 87.92 165.77 88.46 164.94 88.98 164.09 89.49 163.23 89.97 162.36 90.42 161.47 90.86 160.58 91.28 159.67 91.67 158.75 92.03 157.83 92.38 156.89 92.70 155.95 93.00 155.00 93 155 91.99 154.51 91.00 154.00 91 154 90.70 154.95 90.38 155.89 90.03 156.83 89.67 157.75 89.28 158.67 88.86 159.58 88.42 160.47 87.97 161.36 87.49 162.23 86.98 163.09 86.46 163.94 85.92 164.77 85.35 165.59 84.77 166.40 84.16 167.19 83.54 167.97 82.89 168.73 82.23 169.47 81.55 170.20 80.85 170.91 80.13 171.60 79.40 172.27 78.65 172.93 77.89 173.57 77.10 174.18 76.31 174.78 75.50 175.36 74.67 175.92 73.83 176.46 72.98 176.97 72.12 177.47 71.24 177.94 70.35 178.39 69.45 178.82 68.54 179.23 67.62 179.61 66.69 179.97 65.76 180.31 64.81 180.62 63.86 180.91 62.90 181.18 61.93 181.42 60.96 181.64 59.98 181.83 59.00 182.00 59 182 58.00 182.16 57.01 182.31 56.01 182.44 55.01 182.55 54.00 182.64 53.00 182.72 51.99 182.78 50.98 182.83 49.98 182.85 48.97 182.87 47.96 182.86 46.95 182.84 45.94 182.80 44.94 182.74 43.93 182.66 42.93 182.57 41.93 182.47 40.92 182.34 39.93 182.20 38.93 182.04 37.94 181.87 36.95 181.67 35.96 181.47 34.98 181.24 34.00 181.00 34 181 33.01 180.80 32.02 180.57 31.04 180.32 30.06 180.04 29.10 179.73 28.14 179.41 27.19 179.06 26.24 178.68 25.31 178.28 24.39 177.86 23.48 177.41 22.58 176.94 21.70 176.45 20.82 175.94 19.96 175.40 19.11 174.85 18.28 174.27 17.46 173.67 16.66 173.05 15.88 172.41 15.11 171.75 14.35 171.07 13.62 170.37 12.90 169.66 12.20 168.92 11.52 168.17 10.86 167.40 10.22 166.62 9.60 165.82 9.00 165.00 9 165 Z"></path><path fill="#cef11e" d="M25 115C  25.64 115.81 26.30 116.62 26.96 117.41 27.62 118.20 28.30 118.99 28.99 119.77 29.68 120.54 30.38 121.30 31.09 122.05 31.80 122.80 32.53 123.54 33.26 124.27 34.00 125.00 34 125 34.96 124.71 35.92 124.42 36.87 124.11 37.83 123.81 38.78 123.49 39.73 123.17 40.67 122.85 41.62 122.51 42.56 122.17 43.50 121.83 44.44 121.47 45.37 121.12 46.31 120.75 47.24 120.38 48.17 120.00 49.09 119.62 50.01 119.23 50.93 118.84 51.85 118.43 52.77 118.03 53.68 117.61 54.59 117.19 55.50 116.77 56.40 116.33 57.30 115.90 58.20 115.45 59.09 115.00 59.99 114.55 60.88 114.08 61.76 113.62 62.64 113.14 63.52 112.66 64.40 112.18 65.27 111.69 66.14 111.19 67.01 110.69 67.87 110.18 68.73 109.66 69.59 109.14 70.44 108.62 71.29 108.08 72.13 107.55 72.98 107.00 73.81 106.46 74.65 105.90 75.48 105.34 76.31 104.78 77.13 104.21 77.95 103.63 78.77 103.05 79.58 102.46 80.38 101.87 81.19 101.27 81.99 100.67 82.78 100.06 83.58 99.44 84.36 98.82 85.15 98.20 85.93 97.57 86.70 96.94 87.47 96.30 88.24 95.65 89.00 95.00 89 95 88.26 94.24 87.52 93.48 86.76 92.74 86.00 92.00 86 92 85.14 92.50 84.28 93.00 83.42 93.49 82.55 93.98 81.68 94.46 80.81 94.94 79.94 95.42 79.07 95.89 78.19 96.35 77.31 96.81 76.43 97.27 75.54 97.72 74.66 98.17 73.77 98.62 72.88 99.06 71.98 99.49 71.09 99.92 70.19 100.35 69.29 100.77 68.39 101.19 67.49 101.60 66.58 102.01 65.67 102.42 64.76 102.82 63.85 103.21 62.94 103.60 62.02 103.99 61.10 104.37 60.19 104.75 59.26 105.12 58.34 105.49 57.42 105.85 56.49 106.21 55.56 106.56 54.63 106.91 53.70 107.26 52.77 107.60 51.83 107.93 50.89 108.26 49.95 108.59 49.01 108.91 48.07 109.23 47.13 109.54 46.18 109.85 45.24 110.15 44.29 110.45 43.34 110.74 42.39 111.03 41.44 111.31 40.48 111.59 39.53 111.87 38.57 112.14 37.62 112.40 36.66 112.66 35.70 112.92 34.73 113.17 33.77 113.41 32.81 113.65 31.84 113.89 30.88 114.12 29.91 114.35 28.94 114.57 27.97 114.79 27.00 115.00 27 115 Z"></path></g><path fill="white" d="M50 210C  50.00 211.00 50.00 212.00 50.00 213.00 50.00 214.00 50.00 215.00 50 215 50.53 215.79 51.21 216.47 52.00 217.00 52 217 52.99 217.14 53.99 217.26 54.99 217.37 55.99 217.46 56.99 217.53 58.00 217.59 59.00 217.63 60.00 217.65 61.01 217.66 62.01 217.65 63.02 217.62 64.02 217.57 65.02 217.51 66.03 217.44 67.03 217.34 68.02 217.23 69.02 217.10 70.02 216.96 71.01 216.79 72.00 216.62 72.98 216.42 73.96 216.21 74.94 215.98 75.92 215.74 76.89 215.48 77.85 215.20 78.81 214.91 79.77 214.60 80.72 214.28 81.67 213.94 82.61 213.58 83.54 213.21 84.47 212.82 85.39 212.42 86.30 212.00 87.21 211.57 88.10 211.12 89.00 210.65 89.88 210.18 90.75 209.68 91.62 209.17 92.48 208.65 93.33 208.12 94.17 207.56 95.00 207.00 95 207 95.79 206.47 96.47 205.79 97.00 205.00 97 205 97.00 204.00 97.00 203.00 97.00 202.00 97.00 201.00 97.00 200.00 97 200 96.00 199.90 95.00 200.00 95 200 94.17 200.56 93.33 201.12 92.48 201.65 91.62 202.17 90.75 202.68 89.88 203.18 89.00 203.65 88.10 204.12 87.21 204.57 86.30 205.00 85.39 205.42 84.47 205.82 83.54 206.21 82.61 206.58 81.67 206.94 80.72 207.28 79.77 207.60 78.81 207.91 77.85 208.20 76.89 208.48 75.92 208.74 74.94 208.98 73.96 209.21 72.98 209.42 72.00 209.62 71.01 209.79 70.02 209.96 69.02 210.10 68.02 210.23 67.03 210.34 66.03 210.44 65.02 210.51 64.02 210.57 63.02 210.62 62.01 210.65 61.01 210.66 60.00 210.65 59.00 210.63 58.00 210.59 56.99 210.53 55.99 210.46 54.99 210.37 53.99 210.26 52.99 210.14 52.00 210.00 52 210 51.00 209.90 50.00 210.00 50 210 Z" opacity="0.8"></path><g transform="translate(75,152)"><path fill="gold" d="M0 0C  -0.97 0.40 -1.87 0.92 -2.70 1.56 -3.44 2.30 -4.08 3.13 -4.60 4.03 -5.00 5.00 -5 5 -4.87 6.04 -4.69 7.07 -4.46 8.09 -4.17 9.09 -3.83 10.08 -3.44 11.05 -3.00 12.00 -3 12 -2.40 12.77 -1.66 13.41 -0.81 13.89 0.11 14.20 1.08 14.32 2.06 14.26 3.00 14.00 3 14 3.92 14.49 4.88 14.91 5.86 15.27 6.86 15.56 7.88 15.78 8.91 15.92 9.96 16.00 11.00 16.00 11 16 11.98 15.97 12.96 15.85 13.93 15.66 14.87 15.39 15.79 15.04 16.68 14.62 17.53 14.12 18.34 13.56 19.10 12.94 19.81 12.25 20.45 11.51 21.04 10.71 21.55 9.88 22.00 9.00 22 9 22.39 8.06 22.76 7.10 23.10 6.14 23.41 5.17 23.71 4.19 23.97 3.20 24.21 2.21 24.43 1.21 24.62 0.20 24.78 -0.81 24.92 -1.82 25.04 -2.84 25.12 -3.85 25.18 -4.88 25.22 -5.90 25.23 -6.92 25.21 -7.94 25.17 -8.96 25.10 -9.98 25.00 -11.00 25 -11 24.71 -11.95 24.23 -12.82 23.60 -13.58 22.82 -14.20 21.94 -14.65 20.99 -14.92 20.00 -15.00 20 -15 19.00 -15.01 18.00 -14.96 17.01 -14.87 16.02 -14.73 15.03 -14.53 14.06 -14.29 13.11 -14.00 12.16 -13.67 11.24 -13.28 10.34 -12.86 9.46 -12.38 8.60 -11.86 7.77 -11.31 6.97 -10.70 6.20 -10.07 5.47 -9.39 4.76 -8.68 4.10 -7.93 3.47 -7.15 2.89 -6.34 2.34 -5.50 1.84 -4.64 1.38 -3.75 0.96 -2.84 0.60 -1.91 0.27 -0.96 -0.00 0.00 0 0 Z"></path><path fill="rgba(255,0,0,0.7 )" d="M0 1.5C  -0.95 1.79 -1.82 2.27 -2.58 2.90 -3.20 3.68 -3.65 4.56 -3.92 5.51 -4.00 6.50 -4 6.5 -3.50 7.50 -3.5 7.5 -2.58 7.19 -1.65 6.86 -0.74 6.53 0.17 6.18 1.08 5.81 1.98 5.44 2.87 5.05 3.76 4.65 4.65 4.24 5.53 3.81 6.40 3.37 7.27 2.93 8.13 2.46 8.98 1.99 9.83 1.51 10.67 1.01 11.50 0.50 11.5 0.5 12.20 -0.27 12.87 -1.07 13.48 -1.91 14.06 -2.78 14.59 -3.67 15.07 -4.60 15.50 -5.54 15.89 -6.51 16.22 -7.50 16.50 -8.50 16.5 -8.5 15.71 -7.86 14.90 -7.24 14.09 -6.62 13.27 -6.02 12.44 -5.43 11.60 -4.85 10.75 -4.29 9.89 -3.73 9.03 -3.19 8.16 -2.67 7.28 -2.15 6.39 -1.65 5.50 -1.16 4.60 -0.68 3.69 -0.22 2.78 0.23 1.86 0.67 0.93 1.09 0.00 1.50 0 1.5 Z"></path><path fill="rgba(0,0,0,0.75)" d="M0 8C  -0.70 8.60 -1.28 9.31 -1.72 10.12 -2.00 11.00 -2 11 -1.21 11.53 -0.53 12.21 -0.00 13.00 0 13 0.95 12.77 1.90 12.51 2.84 12.23 3.77 11.93 4.70 11.60 5.61 11.25 6.52 10.88 7.42 10.49 8.31 10.07 9.19 9.64 10.05 9.18 10.91 8.70 11.75 8.20 12.59 7.68 13.40 7.14 14.21 6.58 15.00 6.00 15 6 15.79 5.39 16.56 4.76 17.32 4.11 18.06 3.44 18.78 2.76 19.49 2.06 20.18 1.34 20.85 0.60 21.50 -0.16 22.13 -0.93 22.75 -1.71 23.34 -2.51 23.91 -3.33 24.47 -4.16 25.00 -5.00 25 -5 25.04 -6.00 25.06 -7.00 25.06 -8.00 25.04 -9.00 25.00 -10.00 25 -10 24.44 -9.18 23.86 -8.37 23.27 -7.57 22.66 -6.78 22.04 -6.01 21.40 -5.25 20.74 -4.50 20.07 -3.76 19.39 -3.04 18.69 -2.33 17.98 -1.63 17.26 -0.95 16.52 -0.29 15.76 0.36 15.00 1.00 15 1 14.19 1.55 13.37 2.08 12.54 2.59 11.69 3.09 10.84 3.57 9.98 4.04 9.11 4.49 8.23 4.92 7.35 5.33 6.45 5.73 5.55 6.10 4.64 6.47 3.73 6.81 2.80 7.13 1.87 7.44 0.94 7.73 -0.00 8.00 0 8 Z"></path><path fill="rgba(255,0,0,0.7 )" d="M3 -4C  3.38 -4.91 3.81 -5.80 4.30 -6.66 4.85 -7.48 5.45 -8.26 6.10 -9.01 6.80 -9.71 7.54 -10.36 8.32 -10.96 9.14 -11.51 10.00 -12.00 10 -12 10.92 -12.50 11.86 -12.93 12.84 -13.29 13.84 -13.59 14.85 -13.81 15.88 -13.97 16.92 -14.05 17.96 -14.06 19.00 -14.00 19 -14 19.00 -13.00 19 -13 18.03 -13.03 17.06 -13.00 16.10 -12.90 15.14 -12.75 14.20 -12.53 13.27 -12.25 12.36 -11.91 11.48 -11.52 10.62 -11.07 9.79 -10.56 9.00 -10.00 9 -10 8.21 -9.41 7.46 -8.76 6.76 -8.07 6.10 -7.33 5.50 -6.55 4.94 -5.73 4.44 -4.88 4.00 -4.00 4 -4 Z"></path><path fill="rgba(255,0,0,0.7 )" d="M5 13C  5.91 13.53 6.87 13.97 7.85 14.34 8.87 14.63 9.90 14.84 10.95 14.96 12.00 15.00 12 15 13.00 14.78 13.98 14.47 14.93 14.08 15.85 13.61 16.72 13.06 17.53 12.44 18.30 11.75 19.00 11.00 19 11 19.57 10.17 20.10 9.31 20.61 8.44 21.09 7.56 21.54 6.65 21.96 5.74 22.35 4.81 22.70 3.86 23.03 2.91 23.32 1.95 23.58 0.97 23.81 -0.01 24.00 -1.00 24 -1 23.76 -0.06 23.48 0.86 23.18 1.78 22.85 2.69 22.49 3.58 22.10 4.47 21.68 5.34 21.23 6.20 20.76 7.04 20.26 7.87 19.73 8.68 19.18 9.47 18.60 10.24 18.00 11.00 18 11 17.25 11.61 16.46 12.17 15.62 12.65 14.74 13.07 13.84 13.42 12.91 13.69 11.96 13.88 11.00 14.00 11 14 9.94 13.88 8.90 13.67 7.88 13.37 6.88 12.99 5.92 12.53 5.00 12.00 5 12 Z"></path><path fill="lightgreen" d="M12 -10C  13.00 -9.67 14.00 -9.33 15.00 -9.00 15 -9 16.00 -10.00 16 -10 17.00 -9.73 17.73 -9.00 18.00 -8.00 18 -8 17.73 -7.00 17.00 -6.27 16.00 -6.00 16 -6 17.00 -6.27 18.00 -6.00 18 -6 18.95 -6.34 19.87 -6.78 20.73 -7.31 21.54 -7.92 22.28 -8.61 22.95 -9.38 23.54 -10.20 24.04 -11.08 24.45 -12.01 24.76 -12.98 24.97 -13.97 25.08 -14.98 25.09 -15.99 25.00 -17.00 25 -17 25.10 -18.04 25.05 -19.08 24.85 -20.10 24.50 -21.08 24.00 -22.00 24 -22 23.00 -21.73 22.00 -22.00 22 -22 21.11 -21.59 20.25 -21.11 19.42 -20.59 18.63 -20.00 17.88 -19.37 17.17 -18.70 16.51 -17.97 15.89 -17.21 15.33 -16.40 14.82 -15.56 14.37 -14.69 13.97 -13.79 13.64 -12.87 13.36 -11.93 13.15 -10.97 13.00 -10.00 13 -10 Z"></path></g><path fill="rgba(0,0,0,0.07)" d="M6.5 -30.5C  7.35 -29.93 8.21 -29.39 9.08 -28.86 9.97 -28.36 10.87 -27.88 11.78 -27.42 12.71 -26.99 13.64 -26.58 14.58 -26.20 15.54 -25.84 16.50 -25.50 16.5 -25.5 17.46 -25.25 18.43 -25.01 19.40 -24.78 20.37 -24.56 21.34 -24.34 22.32 -24.13 23.29 -23.93 24.27 -23.73 25.25 -23.54 26.22 -23.36 27.21 -23.19 28.19 -23.02 29.17 -22.86 30.15 -22.71 31.14 -22.56 32.13 -22.43 33.11 -22.30 34.10 -22.17 35.09 -22.06 36.08 -21.95 37.07 -21.85 38.06 -21.76 39.06 -21.67 40.05 -21.59 41.04 -21.52 42.04 -21.46 43.03 -21.41 44.03 -21.36 45.02 -21.32 46.02 -21.28 47.01 -21.26 48.01 -21.24 49.00 -21.23 50.00 -21.22 51.00 -21.23 51.99 -21.24 52.99 -21.26 53.98 -21.28 54.98 -21.32 55.97 -21.36 56.97 -21.41 57.96 -21.46 58.96 -21.52 59.95 -21.59 60.94 -21.67 61.94 -21.76 62.93 -21.85 63.92 -21.95 64.91 -22.06 65.90 -22.17 66.89 -22.30 67.87 -22.43 68.86 -22.56 69.85 -22.71 70.83 -22.86 71.81 -23.02 72.79 -23.19 73.78 -23.36 74.75 -23.54 75.73 -23.73 76.71 -23.93 77.68 -24.13 78.66 -24.34 79.63 -24.56 80.60 -24.78 81.57 -25.01 82.54 -25.25 83.50 -25.50 83.5 -25.5 84.46 -25.84 85.42 -26.20 86.36 -26.58 87.29 -26.99 88.22 -27.42 89.13 -27.88 90.03 -28.36 90.92 -28.86 91.79 -29.39 92.65 -29.93 93.50 -30.50 93.5 -30.5 94.21 -30.21 94.50 -29.50 94.5 -29.5 93.65 -28.93 92.79 -28.39 91.92 -27.86 91.03 -27.36 90.13 -26.88 89.22 -26.42 88.29 -25.99 87.36 -25.58 86.42 -25.20 85.46 -24.84 84.50 -24.50 84.5 -24.5 83.53 -24.27 82.56 -24.06 81.59 -23.84 80.62 -23.64 79.64 -23.44 78.67 -23.24 77.69 -23.06 76.71 -22.88 75.73 -22.70 74.75 -22.53 73.77 -22.37 72.79 -22.22 71.80 -22.07 70.82 -21.93 69.83 -21.80 68.85 -21.67 67.86 -21.55 66.87 -21.43 65.88 -21.32 64.89 -21.22 63.90 -21.12 62.91 -21.04 61.92 -20.95 60.93 -20.88 59.94 -20.81 58.95 -20.75 57.95 -20.69 56.96 -20.64 55.97 -20.60 54.97 -20.56 53.98 -20.53 52.98 -20.51 51.99 -20.49 50.99 -20.48 50.00 -20.48 49.01 -20.48 48.01 -20.49 47.02 -20.51 46.02 -20.53 45.03 -20.56 44.03 -20.60 43.04 -20.64 42.05 -20.69 41.05 -20.75 40.06 -20.81 39.07 -20.88 38.08 -20.95 37.09 -21.04 36.10 -21.12 35.11 -21.22 34.12 -21.32 33.13 -21.43 32.14 -21.55 31.15 -21.67 30.17 -21.80 29.18 -21.93 28.20 -22.07 27.21 -22.22 26.23 -22.37 25.25 -22.53 24.27 -22.70 23.29 -22.88 22.31 -23.06 21.33 -23.24 20.36 -23.44 19.38 -23.64 18.41 -23.84 17.44 -24.06 16.47 -24.27 15.50 -24.50 15.5 -24.5 14.54 -24.84 13.58 -25.20 12.64 -25.58 11.71 -25.99 10.78 -26.42 9.87 -26.88 8.97 -27.36 8.08 -27.86 7.21 -28.39 6.35 -28.93 5.50 -29.50 5.5 -29.5 5.79 -30.21 6.50 -30.50 6.5 -30.5 Z"></path><path fill="rgba(0,0,0,0.07)" d="M4.5 -20.5C  5.35 -19.93 6.21 -19.39 7.08 -18.86 7.97 -18.36 8.87 -17.88 9.78 -17.42 10.71 -16.99 11.64 -16.58 12.58 -16.20 13.54 -15.84 14.50 -15.50 14.5 -15.5 15.46 -15.24 16.43 -14.98 17.40 -14.74 18.36 -14.49 19.33 -14.26 20.31 -14.04 21.28 -13.82 22.26 -13.61 23.23 -13.40 24.21 -13.20 25.19 -13.02 26.17 -12.83 27.16 -12.66 28.14 -12.49 29.13 -12.33 30.11 -12.18 31.10 -12.03 32.09 -11.90 33.08 -11.77 34.07 -11.64 35.06 -11.53 36.05 -11.42 37.04 -11.32 38.04 -11.22 39.03 -11.14 40.03 -11.06 41.02 -10.99 42.02 -10.93 43.02 -10.87 44.01 -10.82 45.01 -10.78 46.01 -10.75 47.01 -10.72 48.00 -10.70 49.00 -10.69 50.00 -10.69 51.00 -10.69 52.00 -10.70 52.99 -10.72 53.99 -10.75 54.99 -10.78 55.99 -10.82 56.98 -10.87 57.98 -10.93 58.98 -10.99 59.97 -11.06 60.97 -11.14 61.96 -11.22 62.96 -11.32 63.95 -11.42 64.94 -11.53 65.93 -11.64 66.92 -11.77 67.91 -11.90 68.90 -12.03 69.89 -12.18 70.87 -12.33 71.86 -12.49 72.84 -12.66 73.83 -12.83 74.81 -13.02 75.79 -13.20 76.77 -13.40 77.74 -13.61 78.72 -13.82 79.69 -14.04 80.67 -14.26 81.64 -14.49 82.60 -14.74 83.57 -14.98 84.54 -15.24 85.50 -15.50 85.5 -15.5 86.46 -15.84 87.42 -16.20 88.36 -16.58 89.29 -16.99 90.22 -17.42 91.13 -17.88 92.03 -18.36 92.92 -18.86 93.79 -19.39 94.65 -19.93 95.50 -20.50 95.5 -20.5 96.21 -20.21 96.50 -19.50 96.5 -19.5 95.65 -18.93 94.79 -18.39 93.92 -17.86 93.03 -17.36 92.13 -16.88 91.22 -16.42 90.29 -15.99 89.36 -15.58 88.42 -15.20 87.46 -14.84 86.50 -14.50 86.5 -14.5 85.53 -14.26 84.56 -14.03 83.59 -13.80 82.62 -13.58 81.65 -13.37 80.67 -13.16 79.70 -12.96 78.72 -12.77 77.74 -12.58 76.76 -12.40 75.78 -12.22 74.80 -12.06 73.81 -11.89 72.83 -11.74 71.84 -11.59 70.86 -11.45 69.87 -11.31 68.88 -11.18 67.89 -11.06 66.90 -10.95 65.91 -10.84 64.92 -10.74 63.93 -10.64 62.94 -10.55 61.95 -10.47 60.95 -10.39 59.96 -10.32 58.96 -10.26 57.97 -10.20 56.97 -10.15 55.98 -10.11 54.98 -10.07 53.99 -10.04 52.99 -10.02 51.99 -10.00 51.00 -9.99 50.00 -9.99 49.00 -9.99 48.01 -10.00 47.01 -10.02 46.01 -10.04 45.02 -10.07 44.02 -10.11 43.03 -10.15 42.03 -10.20 41.04 -10.26 40.04 -10.32 39.05 -10.39 38.05 -10.47 37.06 -10.55 36.07 -10.64 35.08 -10.74 34.09 -10.84 33.10 -10.95 32.11 -11.06 31.12 -11.18 30.13 -11.31 29.14 -11.45 28.16 -11.59 27.17 -11.74 26.19 -11.89 25.20 -12.06 24.22 -12.22 23.24 -12.40 22.26 -12.58 21.28 -12.77 20.30 -12.96 19.33 -13.16 18.35 -13.37 17.38 -13.58 16.41 -13.80 15.44 -14.03 14.47 -14.26 13.50 -14.50 13.5 -14.5 12.54 -14.84 11.58 -15.20 10.64 -15.58 9.71 -15.99 8.78 -16.42 7.87 -16.88 6.97 -17.36 6.08 -17.86 5.21 -18.39 4.35 -18.93 3.50 -19.50 3.5 -19.5 3.79 -20.21 4.50 -20.50 4.5 -20.5 Z"></path><path fill="rgba(0,0,0,0.07)" d="M2.5 -10.5C  3.35 -9.93 4.21 -9.39 5.08 -8.86 5.97 -8.36 6.87 -7.88 7.78 -7.42 8.71 -6.99 9.64 -6.58 10.58 -6.20 11.54 -5.84 12.50 -5.50 12.5 -5.5 13.46 -5.22 14.42 -4.95 15.39 -4.69 16.36 -4.43 17.33 -4.18 18.30 -3.94 19.27 -3.71 20.24 -3.48 21.22 -3.26 22.20 -3.05 23.18 -2.84 24.16 -2.65 25.14 -2.46 26.12 -2.27 27.11 -2.10 28.09 -1.93 29.08 -1.77 30.07 -1.62 31.06 -1.47 32.05 -1.33 33.04 -1.20 34.03 -1.08 35.03 -0.96 36.02 -0.85 37.02 -0.75 38.01 -0.66 39.01 -0.57 40.01 -0.49 41.00 -0.42 42.00 -0.36 43.00 -0.30 44.00 -0.25 45.00 -0.21 46.00 -0.18 47.00 -0.15 48.00 -0.13 49.00 -0.12 50.00 -0.12 51.00 -0.12 52.00 -0.13 53.00 -0.15 54.00 -0.18 55.00 -0.21 56.00 -0.25 57.00 -0.30 58.00 -0.36 59.00 -0.42 59.99 -0.49 60.99 -0.57 61.99 -0.66 62.98 -0.75 63.98 -0.85 64.97 -0.96 65.97 -1.08 66.96 -1.20 67.95 -1.33 68.94 -1.47 69.93 -1.62 70.92 -1.77 71.91 -1.93 72.89 -2.10 73.88 -2.27 74.86 -2.46 75.84 -2.65 76.82 -2.84 77.80 -3.05 78.78 -3.26 79.76 -3.48 80.73 -3.71 81.70 -3.94 82.67 -4.18 83.64 -4.43 84.61 -4.69 85.58 -4.95 86.54 -5.22 87.50 -5.50 87.5 -5.5 88.46 -5.84 89.42 -6.20 90.36 -6.58 91.29 -6.99 92.22 -7.42 93.13 -7.88 94.03 -8.36 94.92 -8.86 95.79 -9.39 96.65 -9.93 97.50 -10.50 97.5 -10.5 98.21 -10.21 98.50 -9.50 98.5 -9.5 97.65 -8.93 96.79 -8.39 95.92 -7.86 95.03 -7.36 94.13 -6.88 93.22 -6.42 92.29 -5.99 91.36 -5.58 90.42 -5.20 89.46 -4.84 88.50 -4.50 88.5 -4.5 87.53 -4.25 86.57 -4.00 85.60 -3.76 84.63 -3.53 83.66 -3.30 82.68 -3.08 81.71 -2.86 80.73 -2.66 79.75 -2.46 78.77 -2.26 77.79 -2.07 76.81 -1.89 75.83 -1.72 74.84 -1.55 73.86 -1.38 72.87 -1.23 71.89 -1.08 70.90 -0.94 69.91 -0.80 68.92 -0.67 67.93 -0.55 66.94 -0.43 65.94 -0.32 64.95 -0.22 63.96 -0.13 62.96 -0.04 61.97 0.05 60.97 0.12 59.98 0.19 58.98 0.26 57.98 0.31 56.99 0.36 55.99 0.41 54.99 0.44 53.99 0.47 52.99 0.50 52.00 0.51 51.00 0.52 50.00 0.53 49.00 0.52 48.00 0.51 47.01 0.50 46.01 0.47 45.01 0.44 44.01 0.41 43.01 0.36 42.02 0.31 41.02 0.26 40.02 0.19 39.03 0.12 38.03 0.05 37.04 -0.04 36.04 -0.13 35.05 -0.22 34.06 -0.32 33.06 -0.43 32.07 -0.55 31.08 -0.67 30.09 -0.80 29.10 -0.94 28.11 -1.08 27.13 -1.23 26.14 -1.38 25.16 -1.55 24.17 -1.72 23.19 -1.89 22.21 -2.07 21.23 -2.26 20.25 -2.46 19.27 -2.66 18.29 -2.86 17.32 -3.08 16.34 -3.30 15.37 -3.53 14.40 -3.76 13.43 -4.00 12.47 -4.25 11.50 -4.50 11.5 -4.5 10.54 -4.84 9.58 -5.20 8.64 -5.58 7.71 -5.99 6.78 -6.42 5.87 -6.88 4.97 -7.36 4.08 -7.86 3.21 -8.39 2.35 -8.93 1.50 -9.50 1.5 -9.5 1.79 -10.21 2.50 -10.50 2.5 -10.5 Z"></path></g></svg>
