<svg version="1.1" baseProfile="full" xmlns="http://www.w3.org/2000/svg" width="400" height="200" style="background: gray"><path fill="#EC7063" d="M100 100C100 120.00 118.75 140.00 137.5 160L137.5 162C137.5 177 212.5 177 212.5 162L212.5 160C231.25 140.00 250 120.00 250 100Z"></path><ellipse fill="white" cx="175" cy="100" rx="75" ry="40"></ellipse><path fill="#333" transform="rotate(-15,155,90)" d="M125 50L155 50Q150 70 155 90L125 90Q120 70 125 50"></path><ellipse fill="#C06B2D" style="opacity:0.9" cx="175" cy="100" rx="67.5" ry="32"></ellipse><path fill="white" transform="rotate(-60,145,110)" d="M135 110C135 125 155 125 155 110C152.5 90 137.5 90 135 110"></path><ellipse fill="yellow" transform="rotate(-60,145,110)" cx="145" cy="110" rx="7" ry="8"></ellipse><path fill="#3E2723" transform="rotate(5,210,44.5)" d="M310 42C110 42 110 47 310 47Z"></path><path fill="#3E2723" d="M310 35C110 35 110 40 310 40Z"></path><g transform="translate(175,100)"><path fill="gold" d="M-10 -10C  -9.33 -13.85 -9.52 -17.69 -9.82 -21.54 -9.49 -25.38 -10.03 -29.23 -9.21 -33.08 -9.23 -36.92 -10.51 -40.77 -10.48 -44.62 -10.81 -48.46 -9.98 -52.31 -10.11 -56.15 -10.86 -60.00 -10 -60 -8.99 -60.76 -8.80 -61.35 -7.86 -62.02 -8 -62 -6.00 -62.24 -4.00 -61.93 -2.00 -61.20 0.00 -62.04 2.00 -61.33 4.00 -62.19 6.00 -62.05 8.00 -61.63 10.00 -61.91 12.00 -61.70 12 -62 13.18 -61.26 13.24 -60.73 14.12 -59.97 14 -60 14.58 -56.15 14.98 -52.31 13.24 -48.46 14.89 -44.62 13.91 -40.77 13.19 -36.92 14.23 -33.08 13.72 -29.23 14.38 -25.38 14.76 -21.54 14.21 -17.69 14.11 -13.85 14.09 -10.00 14 -10 11.23 -9.14 8.75 -8.27 4.23 -9.09 2.92 -8.32 -1.96 -8.52 -3.36 -9.22 -6.83 -9.52 -10.32 -9.68 -10 -10 Z"></path><path fill="#DAB770" d="M-7 -10C  -6.92 -14.00 -7.19 -18.00 -6.82 -22.00 -6.86 -26.00 -6.84 -30.00 -7.14 -34.00 -7.13 -38.00 -7.25 -42.00 -6.90 -46.00 -6.80 -50.00 -7 -50 -7.09 -51.01 -7.27 -52.01 -7.36 -53.02 -7.04 -54.07 -6.93 -55.09 -7.03 -56.07 -6.80 -57.08 -6.61 -58.06 -6.30 -59.04 -5.86 -60.01 -6 -60 -5.52 -59.05 -5.42 -58.06 -5.12 -57.08 -4.75 -56.09 -4.77 -55.07 -4.72 -54.06 -4.71 -53.04 -4.72 -52.03 -4.97 -51.00 -5.17 -49.98 -5 -50 -5.09 -46.00 -5.19 -42.00 -5.07 -38.00 -4.86 -34.00 -5.01 -30.00 -4.83 -26.00 -4.94 -22.00 -5.11 -18.00 -5.09 -14.00 -5.04 -10.00 -5 -10 Z"></path><path fill="#DAB770" d="M1 -10C  1.21 -13.82 1.02 -17.64 1.11 -21.45 0.84 -25.27 1.07 -29.09 0.94 -32.91 1.15 -36.73 0.82 -40.55 0.79 -44.36 1.15 -48.18 1.06 -52.00 1 -52 0.69 -53.01 0.74 -54.02 0.84 -55.03 0.82 -56.05 0.66 -57.07 0.99 -58.07 1.00 -59.08 1.64 -60.06 1.62 -61.04 1.76 -62.01 2 -62 2.31 -61.04 2.61 -60.06 2.96 -59.07 3.06 -58.07 3.06 -57.07 2.97 -56.06 3.03 -55.05 3.07 -54.03 3.23 -53.00 2.82 -52.01 3 -52 3.18 -48.18 3.00 -44.36 2.77 -40.55 3.09 -36.73 2.94 -32.91 2.96 -29.09 3.07 -25.27 2.79 -21.45 2.97 -17.64 3.08 -13.82 2.96 -10.00 3 -10 Z"></path><path fill="#DAB770" d="M7 -10C  7.17 -14.00 7.15 -18.00 6.86 -22.00 6.82 -26.00 7.24 -30.00 6.83 -34.00 7.06 -38.00 7.09 -42.00 6.97 -46.00 7.10 -50.00 7 -50 7.11 -50.98 6.75 -52.03 6.89 -53.02 6.80 -54.05 6.71 -55.08 6.86 -56.09 7.39 -57.04 7.56 -58.04 7.81 -59.02 7.88 -60.02 8 -60 8.42 -59.03 8.63 -58.06 8.73 -57.09 9.10 -56.06 9.23 -55.05 9.41 -54.02 9.02 -53.07 9.08 -52.04 9.16 -51.00 9.02 -50.00 9 -50 9.21 -46.00 8.78 -42.00 9.25 -38.00 8.91 -34.00 9.12 -30.00 9.14 -26.00 8.77 -22.00 9.05 -18.00 9.09 -14.00 9.07 -10.00 9 -10 Z"></path></g><ellipse fill="transparent" cx="156.91" cy="86.02" rx="4.83" ry="3.861829757288591" stroke="#009900" stroke-width="1.13" opacity="0.95"></ellipse><ellipse fill="transparent" cx="144.26" cy="79.63" rx="3.32" ry="2.654939865579037" stroke="white" stroke-width="1.19" opacity="0.84"></ellipse><ellipse fill="transparent" cx="135.41" cy="82.43" rx="3.94" ry="3.150841467075656" stroke="white" stroke-width="1.17" opacity="0.67"></ellipse><ellipse fill="transparent" cx="148.40" cy="90.96" rx="3.88" ry="3.1024399567876553" stroke="white" stroke-width="1.11" opacity="0.97"></ellipse><ellipse fill="transparent" cx="143.48" cy="84.29" rx="2.09" ry="1.672489313823835" stroke="green" stroke-width="1.23" opacity="0.88"></ellipse><ellipse fill="transparent" cx="144.28" cy="85.43" rx="3.49" ry="2.793359657322753" stroke="white" stroke-width="1.15" opacity="0.55"></ellipse><ellipse fill="transparent" cx="146.64" cy="87.04" rx="2.29" ry="1.828678870565391" stroke="white" stroke-width="1.15" opacity="0.90"></ellipse><ellipse fill="transparent" cx="156.85" cy="77.18" rx="2.24" ry="1.791778454260252" stroke="#009900" stroke-width="1.15" opacity="0.69"></ellipse><ellipse fill="transparent" cx="139.99" cy="89.36" rx="3.73" ry="2.986958223295474" stroke="white" stroke-width="1.12" opacity="0.67"></ellipse><ellipse fill="transparent" cx="159.09" cy="81.51" rx="3.18" ry="2.5438326773361624" stroke="white" stroke-width="1.16" opacity="0.86"></ellipse><ellipse fill="transparent" cx="141.89" cy="91.86" rx="2.47" ry="1.976234592930692" stroke="white" stroke-width="1.07" opacity="0.53"></ellipse><ellipse fill="transparent" cx="142.36" cy="89.26" rx="3.69" ry="2.94912103132204" stroke="green" stroke-width="1.10" opacity="0.57"></ellipse><g transform="translate(192,92) rotate(30) skewX(-10)"><path fill="#864A1F" d="M0 -10C  1.08 -14.09 2.56 -17.94 6.30 -20.98 8.91 -23.83 12.17 -25.99 16.70 -26.86 20.46 -27.42 21 -27 25.13 -26.90 29.89 -25.08 32.70 -24.37 36.73 -20.56 38.80 -18.38 41.04 -13.79 41.85 -10.64 42 -10 43.16 -5.50 42.96 -2.94 41.75 2.10 39.38 5.92 36.47 7.04 32.75 8.65 28.39 10.16 24.69 8.59 20.70 7.90 21 7 17.02 9.63 13.79 9.13 9.34 9.30 4.90 8.25 1.94 5.43 1.20 1.67 -0.60 -2.25 -0.20 -6.26 0.22 -10.00 0 -10 Z"></path><path fill="#FDEBD0" d="M1 -9C  1.27 -12.94 3.13 -16.50 7.55 -18.99 10.14 -21.59 12.42 -24.06 17.87 -24.12 21.07 -24.94 21 -25 25.57 -24.06 29.11 -23.18 32.45 -21.54 35.12 -19.78 38.20 -15.63 40.12 -11.87 41.03 -8.85 41 -9 41.53 -4.39 40.75 -1.29 39.01 1.87 36.34 4.65 32.76 7.45 28.91 8.24 25.07 7.52 21.11 6.68 21 7 17.60 7.50 13.17 8.52 8.94 7.95 5.14 6.19 3.22 2.36 1.29 -0.97 1.24 -4.92 0.65 -9.04 1 -9 Z"></path><path fill="#9F6C47" d="M21 8C  19.88 8.18 19.12 7.40 18.26 6.87 17.32 6.61 16.48 6.11 15.73 5.40 15.11 4.36 14.23 4.26 13.75 2.83 13.13 2.10 12.51 1.73 12.03 1.05 11.63 -0.12 11.32 -0.66 10.99 -2.06 11 -2 11.00 -3.10 11.10 -4.11 11.29 -5.08 11.45 -6.24 12.18 -6.48 12.30 -7.92 12.79 -8.79 13.73 -9.09 14.32 -9.94 15.00 -10.68 15.75 -11.35 16.29 -12.30 16.99 -13.03 18.21 -13.04 19.34 -13.11 20.15 -13.61 21.17 -13.75 21 -14 21.70 -13.92 22.75 -13.19 23.64 -12.57 24.31 -12.26 25.10 -11.58 25.95 -10.60 26.62 -9.83 27.17 -9.22 27.61 -8.80 28.22 -7.60 28.53 -7.26 28.95 -6.25 29 -6 28.00 -6.18 27.00 -5.59 27 -6 26.53 -6.76 25.93 -7.64 25.36 -8.22 24.60 -9.07 23.65 -10.13 23.04 -10.21 22.16 -10.74 21.09 -11.44 19.84 -12.27 20 -12 19.27 -11.32 18.18 -11.24 17.43 -10.60 16.71 -9.94 16.32 -8.74 15.37 -8.59 14.84 -7.75 14.59 -6.38 14.07 -5.69 13.68 -4.84 13.52 -3.45 13.21 -2.71 12.95 -2.35 13 -2 13.39 -1.14 13.85 -0.01 14.37 0.40 14.91 1.62 15.50 2.60 16.15 3.35 17.03 3.26 17.81 3.86 18.42 5.21 19.42 5.16 20.19 6.00 21.10 6.40 22.11 6.51 23.08 6.73 23 7 Z"></path></g><g transform="translate(179,102) rotate(30) skewX(-10)"><path fill="#864A1F" d="M0 -10C  0.73 -14.12 2.50 -17.95 6.17 -21.02 9.05 -23.77 12.99 -25.59 16.12 -27.22 20.98 -27.01 21 -27 25.28 -26.76 29.48 -25.55 33.30 -23.53 36.49 -20.97 38.71 -18.59 40.84 -14.37 42.14 -9.43 42 -10 43.04 -6.39 42.95 -2.97 41.78 1.46 39.37 6.00 36.23 8.17 32.42 9.82 28.29 10.44 24.75 8.44 21.09 6.72 21 7 17.00 9.67 13.55 9.47 9.36 9.28 6.28 7.23 2.97 4.92 -0.37 1.88 -0.37 -2.36 -2.00 -5.94 -0.83 -10.00 0 -10 Z"></path><path fill="#FDEBD0" d="M1 -9C  2.23 -12.78 4.20 -16.23 5.92 -19.55 9.79 -21.75 14.04 -23.15 16.64 -24.97 21.56 -24.53 21 -25 25.48 -24.15 29.00 -23.31 32.43 -21.57 35.03 -19.96 38.22 -15.60 39.69 -13.20 40.86 -9.66 41 -9 41.38 -5.67 40.78 -0.44 38.90 3.57 36.20 5.61 32.67 7.86 28.63 9.17 25.04 7.62 20.90 7.30 21 7 17.00 8.74 13.09 8.65 8.73 8.21 5.33 6.00 3.13 2.46 1.18 -1.10 0.88 -4.96 1.90 -8.90 1 -9 Z"></path><path fill="#9F6C47" d="M21 8C  20.04 7.75 19.25 7.04 18.30 6.78 17.33 6.58 16.65 5.63 15.75 5.35 14.95 4.87 14.40 3.64 13.73 2.93 12.97 2.95 12.47 2.06 12.06 0.57 11.63 -0.09 11.27 -1.22 11.02 -1.90 11 -2 10.90 -3.45 11.01 -4.35 11.23 -5.20 11.64 -5.88 11.96 -6.86 12.31 -7.90 13.09 -8.34 13.71 -9.12 14.20 -10.10 14.87 -10.85 15.56 -11.61 16.46 -12.07 17.25 -12.67 18.15 -13.12 18.89 -13.75 19.83 -14.06 21.09 -13.86 21 -14 21.81 -13.74 22.69 -13.29 23.60 -12.65 24.40 -12.09 24.94 -11.92 25.72 -11.13 26.50 -10.15 27.00 -9.72 27.61 -8.79 28.16 -7.80 28.50 -7.37 28.94 -6.27 29 -6 28.00 -5.95 27.00 -5.59 27 -6 26.60 -6.47 25.80 -8.10 25.32 -8.32 24.58 -9.12 23.70 -10.03 22.91 -10.48 22.12 -10.82 20.82 -11.93 19.92 -12.13 20 -12 19.36 -11.17 18.47 -10.75 17.43 -10.60 16.88 -9.66 16.11 -9.12 15.31 -8.70 14.90 -7.63 14.64 -6.27 13.98 -5.91 13.75 -4.66 13.39 -3.89 13.08 -3.29 13.06 -1.63 13 -2 13.40 -1.03 13.84 -0.40 14.35 0.76 14.97 1.02 15.52 2.40 16.31 2.51 17.01 3.33 17.77 4.03 18.57 4.65 19.21 5.92 20.31 5.60 21.16 6.20 22.03 6.76 22.95 7.18 23 7 Z"></path></g><g transform="translate(160,105) rotate(30) skewX(-10)"><path fill="#864A1F" d="M0 -10C  0.22 -14.16 2.80 -17.90 5.77 -21.12 9.43 -23.63 13.40 -25.38 16.10 -27.23 21.34 -26.73 21 -27 24.78 -27.23 28.78 -26.35 33.33 -23.49 36.49 -20.97 39.27 -17.36 41.19 -13.36 41.87 -10.55 42 -10 43.10 -5.98 42.98 -2.39 41.75 2.13 39.54 4.64 36.15 8.56 32.62 9.11 28.49 9.85 24.33 9.59 21.23 6.32 21 7 17.75 8.19 13.58 9.43 10.10 8.52 5.59 7.75 2.68 5.06 0.86 1.72 -0.39 -2.35 -1.56 -6.01 -0.36 -10.00 0 -10 Z"></path><path fill="#FDEBD0" d="M1 -9C  1.80 -12.85 4.77 -16.09 7.09 -19.15 9.58 -21.84 12.91 -23.78 16.25 -25.24 20.76 -25.20 21 -25 25.19 -24.44 29.05 -23.25 32.03 -22.16 35.62 -18.86 38.03 -16.04 39.85 -12.72 41.04 -8.82 41 -9 41.48 -4.86 40.78 -0.26 38.97 2.45 36.07 6.45 32.77 7.42 28.91 8.23 25.00 7.75 20.72 7.85 21 7 17.25 8.22 12.87 8.99 8.70 8.24 6.45 4.82 3.33 2.22 0.76 -1.61 -0.37 -5.10 0.58 -9.05 1 -9 Z"></path><path fill="#9F6C47" d="M21 8C  20.09 7.61 19.22 7.13 18.06 7.40 17.39 6.42 16.53 5.97 15.79 5.22 15.12 4.32 14.28 4.09 13.74 2.87 13.06 2.47 12.47 2.05 12.04 0.82 11.64 0.24 11.30 -0.89 11.06 -1.65 11 -2 11.05 -2.93 11.19 -3.86 11.36 -4.91 11.43 -6.28 11.91 -6.95 12.41 -7.74 12.88 -8.67 13.36 -9.62 14.34 -9.91 15.04 -10.63 15.72 -11.38 16.34 -12.23 17.25 -12.67 18.21 -13.04 19.20 -13.31 19.82 -14.09 21.13 -13.80 21 -14 22.00 -13.44 22.95 -12.85 23.63 -12.60 24.56 -11.76 25.15 -11.47 25.80 -10.95 26.33 -10.60 27.11 -9.41 27.58 -8.88 28.28 -7.37 28.55 -7.20 29.08 -5.62 29 -6 28.00 -6.14 27.00 -6.47 27 -6 26.56 -6.62 25.81 -8.06 25.26 -8.51 24.54 -9.22 23.76 -9.86 22.86 -10.59 22.02 -11.00 20.91 -11.77 20.23 -11.62 20 -12 19.25 -11.36 18.54 -10.63 17.44 -10.59 16.59 -10.15 16.32 -8.75 15.52 -8.30 14.97 -7.50 14.32 -6.99 14.23 -5.30 13.60 -5.06 13.35 -4.03 13.22 -2.69 13.04 -1.74 13 -2 13.42 -0.71 13.84 -0.53 14.38 0.16 14.97 0.98 15.57 2.06 16.25 2.80 16.85 4.09 17.68 4.40 18.40 5.28 19.29 5.64 20.25 5.82 21.00 6.74 22.14 6.39 22.89 7.35 23 7 Z"></path></g></svg>
