<svg version="1.1" baseProfile="full" xmlns="http://www.w3.org/2000/svg" width="370" height="215" style="background: gray"><!-- made by Harry Li github.com/harryli0088 --><g transform="translate(25,25)"><path fill="#1C2833" d="M0 0C  0.75 0.72 1.88 0.68 2.54 1.58 3.39 2.12 4.64 1.83 5.52 2.29 6.40 2.75 7.29 3.20 8.16 3.69 8.67 4.87 9.80 4.83 10.45 5.76 11.72 5.44 12.34 6.42 13.43 6.48 14.01 7.53 15.07 7.65 16.15 7.70 16.91 8.39 17.57 9.30 18.64 9.39 19.37 10.15 20.50 10.12 21.55 10.23 22.06 11.44 22.97 11.83 24.14 11.72 24.91 12.40 25.71 13.03 26.60 13.46 27.70 13.49 28.25 14.62 29.25 14.84 30.28 14.99 31.00 15.77 32.18 15.65 32.73 16.76 33.74 16.96 34.66 17.34 35.47 17.96 36.55 18.01 37.49 18.35 38.39 18.78 38.96 19.86 40.11 19.79 40 20 39.93 18.95 40.59 18.04 40.33 16.95 41.03 16.05 41.41 15.08 40.97 13.95 41.24 12.97 41.51 11.98 41.65 10.97 42.29 10.06 42 10 41.59 9.00 42.05 8.00 41.97 7.00 41.51 6.00 41.55 5.00 41.75 4.00 41.86 3.00 42.21 2.00 42.04 1.00 41.82 0.00 41.72 -1.00 42.34 -2.00 41.80 -3.00 42.20 -4.00 42.28 -5.00 41.50 -6.00 42.18 -7.00 41.53 -8.00 42.41 -9.00 42.22 -10.00 42 -10 Z" transform="translate(220,104)"></path><path fill="#1C2833" d="M0 0C  0.92 0.39 1.90 0.64 2.70 1.26 3.56 1.77 4.60 1.91 5.31 2.71 6.12 3.32 7.24 3.30 8.04 3.92 8.93 4.35 9.79 4.86 10.80 5.06 11.63 5.63 12.42 6.27 13.30 6.73 14.20 7.15 14.91 7.95 16.20 7.60 16.77 8.69 17.86 8.72 18.60 9.46 19.41 10.07 20.23 10.66 21.37 10.60 22.10 11.36 23.08 11.62 23.81 12.37 24.96 12.30 25.93 12.59 26.72 13.23 27.39 14.11 28.60 13.90 29.12 15.10 30.17 15.21 31.00 15.77 31.79 16.42 32.74 16.73 33.78 16.88 34.81 17.06 35.47 17.95 36.39 18.32 37.30 18.74 38.08 19.39 39.06 19.66 40.01 19.98 40 20 40.09 18.98 40.42 18.00 40.60 17.00 40.73 15.99 40.74 14.95 41.35 14.03 41.65 13.05 41.28 11.94 42.12 11.06 42.23 10.05 42 10 41.97 9.00 42.23 8.00 42.36 7.00 41.61 6.00 41.78 5.00 42.44 4.00 41.86 3.00 42.41 2.00 41.94 1.00 42.24 0.00 42.47 -1.00 42.20 -2.00 41.78 -3.00 42.41 -4.00 42.39 -5.00 41.71 -6.00 42.13 -7.00 42.43 -8.00 41.83 -9.00 41.71 -10.00 42 -10 Z" transform="translate(120,144)"></path><path fill="#566573" d="M0 80C  0.98 79.75 1.86 79.26 2.76 78.81 3.76 78.61 4.74 78.37 5.59 77.79 6.42 77.17 7.46 77.07 8.45 76.86 9.27 76.21 10.20 75.82 11.20 75.62 12.01 74.97 12.97 74.65 13.93 74.36 14.86 73.99 15.80 73.63 16.79 73.43 17.60 72.75 18.53 72.37 19.51 72.13 20.39 71.63 21.35 71.32 22.27 70.93 23.26 70.71 24.12 70.17 25.06 69.80 26.00 69.46 26.99 69.24 27.95 68.94 28.80 68.38 29.83 68.24 30.63 67.55 31.66 67.42 32.53 66.91 33.52 66.67 34.42 66.23 35.40 65.98 36.25 65.42 37.17 65.03 38.09 64.61 39.00 64.20 40.03 64.07 40.95 63.67 41.78 63.05 42.75 62.78 43.64 62.30 44.60 62.02 45.63 61.89 46.45 61.25 47.43 60.98 48.36 60.62 49.39 60.50 50.31 60.10 51.08 59.32 52.11 59.19 53.10 58.98 53.99 58.50 54.94 58.19 55.79 57.62 56.73 57.26 57.72 57.05 58.56 56.46 59.45 55.98 60.46 55.80 61.46 55.60 62.31 55.03 63.18 54.52 64.28 54.55 65.07 53.84 66.10 53.71 66.97 53.19 67.94 52.92 68.85 52.49 69.83 52.25 70.67 51.64 71.72 51.57 72.56 50.99 73.47 50.57 74.38 50.14 75.30 49.75 76.29 49.53 77.15 48.96 78.17 48.83 79.06 48.35 80.04 48.11 80.91 47.57 81.94 47.45 82.81 46.94 83.68 46.42 84.74 46.37 85.65 45.94 86.47 45.28 87.42 44.97 88.43 44.79 89.37 44.45 90.22 43.88 91.23 43.71 92.18 43.38 93.02 42.78 93.94 42.39 94.89 42.05 95.74 41.49 96.70 41.18 97.65 40.87 98.59 40.52 99.54 40.21 100.48 39.86 101.36 39.36 102.23 38.84 103.22 38.61 104.19 38.34 105.10 37.91 106.06 37.62 106.94 37.11 107.95 36.95 108.80 36.37 109.79 36.15 110.64 35.58 111.58 35.22 112.59 35.05 113.54 34.72 114.36 34.09 115.42 34.04 116.34 33.64 117.23 33.16 118.06 32.55 119.15 32.58 119.95 31.88 120.86 31.45 121.94 31.46 122.83 30.99 123.74 30.57 124.61 30.05 125.65 29.93 126.55 29.49 127.42 28.98 128.34 28.57 129.39 28.49 130.25 27.96 131.16 27.54 132.18 27.38 133.08 26.93 134.03 26.60 134.80 25.84 135.72 25.45 136.84 25.53 137.65 24.87 138.69 24.78 139.55 24.22 140.44 23.76 141.40 23.46 142.37 23.19 143.16 22.47 144.24 22.46 145.11 21.94 146.02 21.51 146.97 21.19 147.99 21.04 148.85 20.49 149.74 20.03 150.62 19.52 151.57 19.19 152.59 19.05 153.40 18.38 154.48 18.39 155.32 17.78 156.30 17.53 157.19 17.07 158.06 16.56 159.05 16.31 159.93 15.83 160.90 15.55 161.86 15.25 162.78 14.85 163.79 14.68 164.74 14.36 165.63 13.89 166.46 13.28 167.48 13.11 168.45 12.84 169.34 12.37 170.22 11.88 171.10 11.37 172.11 11.20 173.10 10.97 173.95 10.40 174.94 10.18 175.82 9.68 176.79 9.42 177.74 9.09 178.62 8.59 179.55 8.23 180.55 8.04 181.44 7.56 182.39 7.24 183.32 6.86 184.20 6.36 185.03 5.73 186.02 5.52 186.91 5.05 187.97 5.00 188.89 4.60 189.76 4.08 190.70 3.72 191.56 3.17 192.50 2.82 193.44 2.48 194.35 2.06 195.27 1.67 196.20 1.29 197.13 0.91 198.06 0.55 199.11 0.48 199.91 -0.22 200 0 200.89 0.45 201.77 0.94 202.78 1.15 203.59 1.78 204.46 2.28 205.39 2.66 206.35 2.97 207.09 3.72 208.12 3.91 209.04 4.31 209.91 4.81 210.70 5.46 211.56 5.98 212.52 6.30 213.45 6.68 214.38 7.06 215.23 7.60 216.05 8.20 217.10 8.34 217.93 8.91 218.76 9.49 219.74 9.77 220.58 10.33 221.40 10.93 222.45 11.07 223.36 11.49 224.27 11.92 225.07 12.56 225.89 13.16 226.84 13.49 227.74 13.93 228.65 14.34 229.47 14.94 230.39 15.35 231.28 15.80 232.32 15.96 233.04 16.75 233.99 17.10 234.96 17.40 235.89 17.78 236.81 18.16 237.57 18.90 238.53 19.20 239.38 19.75 240.19 20.36 241.10 20.79 242.14 20.95 242.88 21.70 243.97 21.75 244.71 22.53 245.78 22.62 246.54 23.34 247.41 23.84 248.40 24.09 249.31 24.51 250.23 24.91 250.99 25.63 251.94 25.96 252.91 26.27 253.78 26.77 254.57 27.43 255.57 27.66 256.52 28.01 257.27 28.74 258.27 28.98 259.21 29.33 260.00 29.99 260.86 30.51 261.77 30.94 262.65 31.42 263.66 31.64 264.50 32.20 265.33 32.76 266.28 33.12 267.19 33.54 268.15 33.84 268.97 34.44 269.89 34.85 270.79 35.29 271.60 35.90 272.62 36.10 273.54 36.50 274.40 37.02 275.26 37.55 276.22 37.87 277.12 38.30 277.84 39.10 278.69 39.63 279.70 39.85 280.61 40.28 281.50 40.73 282.41 41.15 283.19 41.84 284.19 42.06 285.02 42.65 285.97 42.98 286.88 43.41 287.70 43.99 288.56 44.53 289.63 44.62 290.44 45.24 291.27 45.82 292.31 45.97 293.17 46.49 293.94 47.20 294.96 47.38 295.80 47.96 296.64 48.52 297.67 48.70 298.55 49.17 299.51 49.48 300.21 50.32 301.24 50.50 302.15 50.92 302.98 51.51 303.93 51.84 304.87 52.21 305.64 52.91 306.54 53.34 307.43 53.80 308.44 54.02 309.15 54.82 310.16 55.06 311.10 55.41 311.86 56.14 312.76 56.57 313.72 56.89 314.71 57.14 315.58 57.65 316.45 58.14 317.32 58.64 318.26 59.00 319.08 59.60 320.10 59.81 320 60 319.97 61.00 320.07 62.00 320 62 319.05 62.33 318.07 62.58 317.30 63.35 316.27 63.45 315.40 63.98 314.44 64.27 313.41 64.40 312.64 65.18 311.63 65.36 310.62 65.52 309.86 66.32 308.75 66.24 307.97 67.00 307.05 67.40 306.09 67.69 305.18 68.12 304.23 68.43 303.26 68.70 302.39 69.23 301.46 69.60 300.53 69.97 299.53 70.16 298.66 70.71 297.74 71.09 296.70 71.18 295.87 71.82 294.88 72.03 294.01 72.56 292.95 72.60 292.12 73.23 291.25 73.76 290.22 73.88 289.29 74.26 288.36 74.61 287.53 75.25 286.58 75.57 285.56 75.70 284.69 76.22 283.75 76.58 282.78 76.85 281.88 77.32 280.90 77.56 279.93 77.83 279.13 78.51 278.07 78.57 277.28 79.30 276.21 79.31 275.33 79.81 274.49 80.40 273.41 80.40 272.49 80.81 271.67 81.45 270.77 81.91 269.84 82.28 268.88 82.57 267.91 82.85 266.97 83.20 266.09 83.70 265.19 84.15 264.26 84.50 263.34 84.90 262.31 85.04 261.33 85.28 260.53 85.96 259.58 86.31 258.69 86.77 257.76 87.14 256.74 87.30 255.76 87.55 254.83 87.92 253.90 88.28 253.08 88.93 252.02 88.97 251.19 89.60 250.25 89.95 249.36 90.42 248.29 90.46 247.50 91.17 246.56 91.52 245.54 91.66 244.68 92.21 243.76 92.61 242.76 92.81 241.83 93.19 240.97 93.73 240.04 94.10 239.13 94.51 238.13 94.72 237.24 95.19 236.25 95.41 235.41 96.02 234.40 96.20 233.58 96.83 232.64 97.19 231.72 97.57 230.62 97.52 229.68 97.88 228.86 98.53 227.93 98.89 227.01 99.30 226.14 99.81 225.05 99.78 224.13 100.20 223.30 100.80 222.42 101.29 221.38 101.40 220.45 101.76 219.46 102.00 218.68 102.76 217.58 102.70 216.73 103.27 215.76 103.53 214.81 103.86 213.97 104.46 213.05 104.87 212.00 104.94 211.11 105.40 210.32 106.13 209.34 106.37 208.31 106.51 207.52 107.21 206.54 107.46 205.50 107.57 204.64 108.11 203.71 108.49 202.88 109.11 201.95 109.47 200.86 109.46 199.96 109.90 199.13 110.52 198.15 110.77 197.23 111.16 196.28 111.50 195.29 111.72 194.38 112.14 193.55 112.76 192.54 112.94 191.56 113.17 190.65 113.60 189.81 114.19 188.89 114.59 187.88 114.77 186.99 115.25 186.03 115.54 185.05 115.78 184.11 116.12 183.19 116.52 182.36 117.16 181.37 117.38 180.39 117.63 179.50 118.10 178.56 118.44 177.62 118.80 176.75 119.32 175.90 119.89 174.95 120.22 173.87 120.20 173.08 120.94 172.08 121.13 171.09 121.34 170.30 122.08 169.32 122.31 168.32 122.53 167.52 123.22 166.54 123.48 165.61 123.83 164.56 123.92 163.78 124.67 162.71 124.69 161.79 125.09 160.90 125.55 159.94 125.86 159.14 126.55 158.08 126.59 157.21 127.12 156.31 127.56 155.37 127.92 154.49 128.42 153.58 128.84 152.59 129.06 151.54 129.14 150.74 129.83 149.78 130.14 148.84 130.47 147.83 130.65 147.01 131.28 146.03 131.54 145.03 131.74 144.27 132.53 143.35 132.93 142.30 133.00 141.33 133.28 140.41 133.68 139.60 134.35 138.70 134.79 137.71 135.03 136.67 135.12 135.87 135.81 134.87 136.01 133.93 136.37 132.98 136.69 132.18 137.38 131.11 137.41 130.28 138.02 129.21 138.05 128.46 138.86 127.36 138.82 126.43 139.18 125.65 139.94 124.60 140.00 123.70 140.46 122.84 141.02 121.89 141.32 120.95 141.68 120.00 141.99 120 142 119.10 141.56 118.26 141.00 117.29 140.70 116.35 140.35 115.51 139.78 114.71 139.16 113.70 138.94 112.85 138.40 112.04 137.78 111.06 137.48 110.06 137.25 109.32 136.49 108.45 136.01 107.45 135.75 106.63 135.16 105.60 134.98 104.81 134.32 103.79 134.13 102.91 133.64 102.17 132.88 101.18 132.62 100.30 132.14 99.48 131.56 98.54 131.20 97.66 130.71 96.77 130.26 95.75 130.06 95.04 129.24 94.08 128.92 93.11 128.61 92.29 128.01 91.41 127.53 90.36 127.41 89.60 126.69 88.69 126.26 87.87 125.67 86.79 125.59 85.95 125.03 85.17 124.35 84.18 124.08 83.24 123.73 82.41 123.15 81.59 122.56 80.67 122.15 79.81 121.63 78.81 121.39 77.99 120.79 77.03 120.48 76.02 120.26 75.14 119.78 74.41 119.01 73.47 118.64 72.60 118.15 71.74 117.63 70.70 117.47 69.79 117.05 68.93 116.52 67.97 116.20 67.26 115.39 66.36 114.94 65.38 114.67 64.55 114.10 63.50 113.95 62.63 113.46 61.80 112.88 60.98 112.27 59.97 112.05 59.06 111.64 58.26 111.00 57.32 110.64 56.36 110.33 55.58 109.65 54.56 109.45 53.76 108.82 52.84 108.42 51.98 107.90 51.10 107.42 50.06 107.24 49.36 106.41 48.38 106.13 47.41 105.83 46.47 105.48 45.72 104.73 44.67 104.59 43.81 104.08 43.01 103.44 42.09 103.04 41.17 102.64 40.23 102.29 39.29 101.92 38.58 101.10 37.71 100.61 36.71 100.38 35.90 99.76 35.03 99.26 34.08 98.91 33.02 98.79 32.28 98.04 31.34 97.68 30.44 97.23 29.54 96.81 28.69 96.26 27.77 95.86 26.93 95.31 25.86 95.21 25.10 94.50 24.09 94.27 23.27 93.67 22.31 93.34 21.55 92.64 20.63 92.23 19.76 91.74 18.87 91.27 17.99 90.79 17.05 90.44 16.19 89.92 15.12 89.82 14.43 88.97 13.49 88.60 12.60 88.14 11.63 87.85 10.65 87.56 9.82 86.99 8.87 86.65 7.97 86.21 7.13 85.66 6.38 84.91 5.27 84.90 4.54 84.11 3.63 83.69 2.64 83.44 1.74 83.01 0.94 82.36 0.00 82.00 0 82 Z"></path><path fill="#2C3E50" d="M0 80C  0.87 80.49 1.85 80.78 2.67 81.37 3.68 81.59 4.50 82.20 5.32 82.80 6.16 83.34 7.19 83.53 8.08 83.99 9.02 84.34 9.89 84.86 10.85 85.17 11.71 85.68 12.60 86.15 13.33 86.93 14.29 87.24 15.16 87.74 16.06 88.18 17.01 88.51 17.86 89.05 18.74 89.53 19.73 89.79 20.62 90.26 21.46 90.80 22.42 91.13 23.22 91.76 24.23 91.99 24.98 92.72 25.92 93.08 26.78 93.61 27.66 94.09 28.74 94.15 29.62 94.65 30.41 95.30 31.38 95.60 32.24 96.12 33.06 96.71 34.00 97.08 35.00 97.31 35.81 97.93 36.68 98.44 37.70 98.63 38.42 99.43 39.48 99.55 40.40 99.95 41.29 100.40 42.18 100.86 43.01 101.45 43.87 101.96 44.69 102.56 45.77 102.64 46.52 103.38 47.51 103.63 48.36 104.17 49.20 104.74 50.06 105.25 51.00 105.61 52.05 105.75 52.91 106.27 53.71 106.92 54.53 107.51 55.46 107.89 56.48 108.08 57.22 108.84 58.23 109.06 59.11 109.55 60.05 109.89 60.79 110.66 61.72 111.05 62.75 111.22 63.69 111.58 64.49 112.22 65.38 112.67 66.36 112.96 67.11 113.68 68.15 113.86 68.92 114.55 69.94 114.74 70.64 115.59 71.74 115.63 72.56 116.22 73.45 116.68 74.42 116.99 75.18 117.70 76.11 118.07 76.97 118.60 77.93 118.91 78.81 119.39 79.81 119.63 80.57 120.36 81.59 120.56 82.44 121.10 83.34 121.53 84.19 122.07 84.97 122.75 85.92 123.09 86.95 123.27 87.74 123.92 88.77 124.11 89.60 124.68 90.52 125.07 91.29 125.77 92.13 126.34 93.08 126.68 94.11 126.86 94.92 127.47 95.90 127.75 96.72 128.35 97.68 128.68 98.50 129.27 99.39 129.73 100.21 130.33 101.30 130.38 102.00 131.22 102.93 131.60 103.91 131.88 104.71 132.53 105.72 132.74 106.58 133.26 107.40 133.85 108.39 134.12 109.22 134.69 110.22 134.94 111.14 135.33 111.97 135.92 112.87 136.35 113.64 137.04 114.74 137.10 115.59 137.62 116.43 138.19 117.35 138.58 118.17 139.18 119.14 139.47 120.09 139.82 120 140 120.86 139.46 121.89 139.33 122.76 138.81 123.76 138.61 124.57 137.93 125.64 137.91 126.58 137.56 127.40 136.93 128.41 136.74 129.31 136.30 130.23 135.90 131.09 135.36 132.17 135.36 133.09 134.95 133.88 134.24 134.82 133.88 135.74 133.50 136.72 133.24 137.74 133.10 138.53 132.37 139.60 132.35 140.44 131.75 141.31 131.22 142.27 130.94 143.22 130.61 144.20 130.37 145.17 130.09 146.07 129.64 146.96 129.16 147.90 128.83 148.76 128.28 149.77 128.10 150.69 127.69 151.64 127.38 152.47 126.77 153.42 126.44 154.36 126.09 155.27 125.68 156.35 125.67 157.13 124.91 158.15 124.78 159.03 124.26 159.99 123.99 160.97 123.73 161.77 123.04 162.70 122.67 163.74 122.55 164.62 122.06 165.64 121.92 166.55 121.50 167.48 121.11 168.39 120.70 169.36 120.42 170.18 119.78 171.21 119.66 172.15 119.32 173.01 118.75 174.03 118.62 174.80 117.83 175.86 117.79 176.80 117.44 177.75 117.13 178.56 116.46 179.49 116.07 180.49 115.88 181.43 115.53 182.33 115.09 183.30 114.81 184.23 114.45 185.12 113.97 186.09 113.70 186.91 113.04 187.88 112.76 188.78 112.33 189.81 112.21 190.70 111.72 191.64 111.39 192.48 110.78 193.43 110.46 194.36 110.09 195.44 110.08 196.22 109.34 197.18 109.04 198.16 108.80 199.05 108.32 200.05 108.12 200.89 107.52 201.81 107.14 202.79 106.89 203.69 106.44 204.57 105.93 205.62 105.87 206.50 105.37 207.43 105.00 208.39 104.71 209.30 104.29 210.14 103.68 211.22 103.68 212.07 103.11 212.96 102.64 213.99 102.50 214.90 102.08 215.84 101.74 216.79 101.41 217.70 100.99 218.58 100.50 219.62 100.39 220.49 99.89 221.38 99.40 222.37 99.18 223.18 98.50 224.24 98.47 225.06 97.82 225.99 97.45 226.94 97.12 227.87 96.75 228.88 96.57 229.69 95.90 230.66 95.62 231.66 95.43 232.56 94.99 233.43 94.46 234.46 94.35 235.28 93.68 236.23 93.38 237.23 93.18 238.07 92.58 238.99 92.17 239.93 91.82 240.91 91.59 241.89 91.34 242.88 91.11 243.71 90.49 244.70 90.25 245.60 89.81 246.56 89.51 247.38 88.86 248.31 88.50 249.38 88.46 250.24 87.93 251.18 87.58 252.11 87.22 253.01 86.75 254.04 86.63 254.97 86.26 255.78 85.59 256.84 85.53 257.71 85.03 258.53 84.38 259.50 84.11 260.52 83.95 261.35 83.32 262.37 83.19 263.30 82.80 264.10 82.11 265.18 82.12 266.12 81.76 267.02 81.32 267.82 80.62 268.80 80.37 269.69 79.91 270.71 79.75 271.60 79.29 272.49 78.80 273.43 78.45 274.38 78.15 275.38 77.93 276.33 77.62 277.28 77.28 278.14 76.73 279.14 76.55 280.08 76.20 281.00 75.81 281.87 75.29 282.78 74.85 283.74 74.56 284.65 74.15 285.67 73.98 286.52 73.41 287.41 72.93 288.30 72.46 289.33 72.35 290.20 71.82 291.20 71.63 292.03 71.01 293.11 71.00 293.94 70.38 294.95 70.21 295.72 69.44 296.66 69.10 297.68 68.94 298.56 68.45 299.60 68.34 300.52 67.95 301.37 67.38 302.42 67.30 303.31 66.84 304.21 66.39 305.18 66.12 306.03 65.55 307.03 65.33 307.89 64.80 308.92 64.67 309.81 64.19 310.69 63.70 311.70 63.53 312.47 62.76 313.52 62.68 314.49 62.42 315.39 61.96 316.20 61.29 317.21 61.12 318.19 60.88 319.05 60.32 320.04 60.11 320 60 320.07 61.00 320.15 62.00 319.91 63.00 320.08 64.00 319.89 65.00 319.82 66.00 320.00 67.00 320.02 68.00 319.87 69.00 319.88 70.00 319.97 71.00 320.12 72.00 319.87 73.00 319.82 74.00 320.01 75.00 319.78 76.00 319.99 77.00 319.99 78.00 320.04 79.00 319.91 80.00 320 80 319.14 80.54 317.95 80.28 317.22 81.15 316.23 81.35 315.26 81.64 314.54 82.55 313.55 82.77 312.42 82.64 311.73 83.60 310.82 84.03 309.95 84.55 308.80 84.37 308.06 85.22 306.92 85.08 306.06 85.62 305.04 85.75 304.12 86.15 303.39 87.03 302.20 86.75 301.49 87.67 300.48 87.86 299.71 88.62 298.42 88.11 297.63 88.81 296.61 88.98 295.78 89.58 294.91 90.12 294.04 90.64 292.87 90.40 291.97 90.86 291.34 91.97 290.32 92.12 289.22 92.07 288.49 92.95 287.32 92.73 286.49 93.33 285.71 94.09 284.63 94.10 283.75 94.59 282.71 94.67 281.95 95.48 280.82 95.36 280.11 96.28 280 96 280.05 97.00 280.00 98.00 279.85 99.00 279.86 100.00 280.01 101.00 280.07 102.00 279.75 103.00 280.02 104.00 280.18 105.00 279.92 106.00 279.86 107.00 280.10 108.00 280.11 109.00 280.14 110.00 279.88 111.00 280.19 112.00 279.99 113.00 279.83 114.00 279.99 115.00 280.19 116.00 280 116 279.18 116.58 278.22 116.82 277.23 116.99 276.32 117.34 275.42 117.73 274.48 118.02 273.59 118.43 272.66 118.73 271.73 119.06 270.99 119.84 269.96 119.89 269.03 120.20 268.11 120.56 267.31 121.18 266.39 121.51 265.37 121.60 264.52 122.12 263.71 122.74 262.75 122.97 261.73 123.04 260.85 123.49 259.94 123.86 260 124 259.76 123.00 259.96 122.00 259.93 121.00 260.13 120.00 259.95 119.00 259.89 118.00 259.84 117.00 260.24 116.00 260.20 115.00 260.07 114.00 259.91 113.00 260.11 112.00 259.78 111.00 260.20 110.00 259.76 109.00 259.99 108.00 259.95 107.00 260.04 106.00 259.80 105.00 259.84 104.00 260 104 259.25 104.82 257.96 104.29 257.21 105.11 256.14 105.14 255.46 106.14 254.52 106.48 253.56 106.77 252.43 106.65 251.54 107.14 250.65 107.60 249.89 108.40 248.68 108.06 247.99 109.06 247.05 109.38 245.88 109.18 245.19 110.13 244.01 109.90 243.36 110.95 242.29 110.99 241.22 111.00 240.51 111.93 239.63 112.42 238.43 112.13 237.62 112.80 236.85 113.56 235.96 114.04 235.01 114.37 233.81 114.05 233.16 115.14 232.15 115.31 231.09 115.36 230.06 115.49 229.24 116.12 228.46 116.87 227.49 117.15 226.64 117.71 225.54 117.66 224.66 118.17 223.90 118.96 222.79 118.88 221.85 119.22 221.08 120.00 220.14 120.36 218.90 119.95 218.17 120.82 217.12 120.88 216.27 121.46 215.34 121.83 214.29 121.91 213.35 122.27 212.50 122.83 211.69 123.50 210.86 124.13 209.76 124.09 208.70 124.12 207.86 124.72 206.93 125.09 206.04 125.57 205.25 126.28 204.23 126.43 203.19 126.54 202.47 127.44 201.50 127.70 200.33 127.48 199.64 128.44 198.46 128.20 197.63 128.82 196.82 129.48 195.83 129.71 194.73 129.67 194.09 130.75 192.84 130.34 192.18 131.39 191.15 131.50 190.27 132.01 189.40 132.52 188.37 132.65 187.36 132.81 186.53 133.44 185.75 134.19 184.64 134.11 183.76 134.61 182.63 134.47 181.99 135.58 181.01 135.84 179.91 135.78 180 136 179.89 137.00 180.18 138.00 179.95 139.00 179.97 140.00 179.90 141.00 180.23 142.00 179.97 143.00 180.10 144.00 179.95 145.00 180.21 146.00 180.23 147.00 180.02 148.00 180.18 149.00 179.80 150.00 179.93 151.00 180.06 152.00 179.76 153.00 179.76 154.00 179.79 155.00 179.89 156.00 180 156 179.08 156.35 178.17 156.69 177.34 157.26 176.29 157.28 175.38 157.64 174.53 158.15 173.60 158.45 172.75 158.96 171.86 159.38 170.91 159.63 169.96 159.90 169.03 160.20 168.10 160.53 167.25 161.05 166.28 161.24 165.43 161.76 164.48 162.02 163.60 162.44 162.82 163.14 161.75 163.10 160.93 163.70 160.01 164.02 160 164 160.03 163.00 159.96 162.00 160.03 161.00 160.19 160.00 160.09 159.00 160.00 158.00 160.01 157.00 159.93 156.00 160.12 155.00 159.97 154.00 159.95 153.00 159.96 152.00 159.85 151.00 160.13 150.00 159.83 149.00 160.01 148.00 160.17 147.00 160.11 146.00 160.10 145.00 159.78 144.00 160 144 159.04 144.31 158.32 145.20 157.19 145.07 156.29 145.51 155.39 145.96 154.29 145.91 153.33 146.21 152.38 146.54 151.50 147.04 150.60 147.47 149.62 147.73 149.00 148.87 147.84 148.66 147.04 149.36 146.23 150.03 145.00 149.66 144.20 150.35 143.44 151.16 142.24 150.86 141.24 151.05 140.50 151.91 139.44 151.94 138.73 152.88 137.57 152.68 136.57 152.88 135.98 154.08 134.83 153.90 133.93 154.36 132.90 154.48 132.23 155.52 131.05 155.25 130.06 155.48 129.32 156.33 128.44 156.81 127.29 156.64 126.50 157.36 125.55 157.68 124.61 158.04 123.90 158.95 122.97 159.34 122.03 159.69 120.93 159.64 120.13 160.33 120 160 119.04 159.68 118.26 159.00 117.23 158.82 116.41 158.22 115.53 157.75 114.62 157.33 113.78 156.77 112.73 156.64 111.92 156.01 111.06 155.49 110.14 155.10 109.34 154.45 108.39 154.11 107.49 153.68 106.50 153.42 105.61 152.95 104.71 152.52 103.98 151.74 102.93 151.61 101.99 151.24 101.23 150.52 100.32 150.10 99.38 149.75 98.57 149.13 97.69 148.66 96.81 148.17 95.87 147.81 94.88 147.55 93.96 147.15 93.23 146.38 92.27 146.06 91.40 145.55 90.56 145.00 89.55 144.78 88.74 144.17 87.80 143.81 86.87 143.42 85.88 143.17 85.04 142.61 84.20 142.04 83.22 141.77 82.28 141.40 81.48 140.78 80.49 140.51 79.74 139.78 78.75 139.52 77.98 138.81 77.09 138.35 76.11 138.08 75.27 137.53 74.29 137.23 73.53 136.53 72.44 136.46 71.57 135.96 70.84 135.18 69.79 135.05 68.88 134.63 68.05 134.04 67.10 133.71 66.26 133.15 65.46 132.51 64.40 132.38 63.67 131.61 62.68 131.37 61.71 131.06 60.99 130.26 60.04 129.93 59.13 129.50 58.21 129.10 57.33 128.62 56.40 128.25 55.44 127.92 54.52 127.54 53.63 127.07 52.83 126.44 51.99 125.87 51.07 125.48 50.06 125.25 49.20 124.73 48.39 124.12 47.53 123.60 46.55 123.31 45.74 122.70 44.67 122.60 43.99 121.72 42.89 121.69 42.01 121.20 41.21 120.57 40.37 120.01 39.49 119.54 38.52 119.24 37.57 118.89 36.72 118.35 35.81 117.93 34.90 117.51 33.94 117.20 33.22 116.40 32.17 116.25 31.44 115.48 30.51 115.10 29.52 114.84 28.67 114.30 27.79 113.82 26.78 113.61 26.03 112.87 25.05 112.59 24.07 112.31 23.26 111.69 22.34 111.29 21.40 110.93 20.49 110.51 19.62 110.02 18.92 109.18 17.92 108.94 16.94 108.65 16.07 108.17 15.33 107.39 14.38 107.06 13.42 106.75 12.61 106.12 11.67 105.76 10.84 105.19 9.75 105.12 8.97 104.44 8.07 104.00 7.27 103.37 6.20 103.27 5.46 102.51 4.43 102.33 3.68 101.60 2.70 101.32 1.85 100.79 0.94 100.36 -0.09 100.17 0 100 -0.11 99.00 -0.09 98.00 0.16 97.00 -0.08 96.00 -0.11 95.00 0.18 94.00 0.13 93.00 0.05 92.00 -0.15 91.00 0.14 90.00 0.00 89.00 -0.22 88.00 0.24 87.00 -0.10 86.00 0.14 85.00 0.23 84.00 -0.14 83.00 -0.14 82.00 -0.07 81.00 -0.01 80.00 0 80 Z"></path><path fill="maroon" d="M1 80C  1.84 80.56 2.79 80.89 3.66 81.37 4.53 81.88 5.39 82.39 6.45 82.49 7.31 83.02 8.10 83.67 9.09 83.92 9.87 84.59 10.88 84.80 11.74 85.32 12.65 85.73 13.61 86.05 14.39 86.71 15.36 87.01 16.25 87.47 17.11 87.97 18.00 88.43 18.90 88.86 19.73 89.43 20.74 89.65 21.62 90.11 22.51 90.58 23.33 91.17 24.21 91.64 25.24 91.81 26.04 92.45 27.01 92.74 27.82 93.36 28.65 93.93 29.62 94.22 30.44 94.82 31.41 95.11 32.27 95.63 33.22 95.95 34.17 96.29 35.02 96.82 35.93 97.22 36.74 97.85 37.62 98.32 38.57 98.65 39.44 99.14 40.40 99.46 41.22 100.06 42.18 100.37 43.01 100.93 43.87 101.46 44.87 101.68 45.76 102.14 46.60 102.69 47.56 103.01 48.39 103.57 49.34 103.91 50.28 104.26 51.15 104.75 51.96 105.37 52.82 105.88 53.78 106.19 54.72 106.55 55.58 107.06 56.47 107.52 57.44 107.81 58.20 108.51 59.12 108.92 60.02 109.34 61.00 109.62 61.88 110.09 62.80 110.48 63.69 110.93 64.46 111.63 65.50 111.77 66.37 112.27 67.27 112.72 68.10 113.29 69.04 113.63 69.83 114.29 70.78 114.62 71.74 114.92 72.51 115.63 73.51 115.85 74.43 116.24 75.25 116.85 76.21 117.16 77.03 117.75 78.01 118.02 78.85 118.57 79.68 119.16 80.58 119.59 81.47 120.04 82.46 120.28 83.26 120.92 84.25 121.19 85.16 121.58 85.99 122.17 86.82 122.73 87.85 122.91 88.60 123.64 89.61 123.86 90.49 124.33 91.31 124.92 92.23 125.32 93.11 125.79 94.04 126.16 94.98 126.51 95.77 127.17 96.79 127.35 97.58 128.02 98.52 128.36 99.40 128.84 100.39 129.10 101.12 129.86 102.13 130.07 102.91 130.74 103.84 131.12 104.73 131.57 105.72 131.83 106.65 132.21 107.50 132.73 108.38 133.21 109.26 133.69 110.11 134.22 110.96 134.74 111.94 135.02 112.88 135.37 113.71 135.94 114.57 136.46 115.57 136.70 116.40 137.27 117.25 137.81 118.13 138.27 119.10 138.57 120.08 138.84 120 139 120.88 138.49 121.82 138.16 122.80 137.90 123.71 137.48 124.59 136.99 125.59 136.79 126.55 136.48 127.47 136.10 128.32 135.53 129.34 135.37 130.19 134.80 131.21 134.66 132.06 134.08 133.03 133.81 133.96 133.45 134.94 133.20 135.86 132.78 136.69 132.18 137.73 132.07 138.67 131.71 139.55 131.22 140.46 130.79 141.39 130.44 142.33 130.07 143.25 129.67 144.25 129.49 145.15 129.03 146.08 128.68 146.99 128.25 147.84 127.68 148.89 127.61 149.73 127.00 150.64 126.58 151.64 126.39 152.54 125.93 153.55 125.77 154.45 125.32 155.29 124.72 156.29 124.52 157.24 124.20 158.14 123.74 159.13 123.52 160.07 123.18 160.98 122.75 161.89 122.32 162.78 121.86 163.74 121.56 164.67 121.20 165.59 120.79 166.53 120.44 167.45 120.04 168.40 119.71 169.37 119.46 170.27 119.00 171.17 118.55 172.15 118.30 172.97 117.66 173.91 117.30 174.88 117.03 175.81 116.66 176.71 116.21 177.65 115.86 178.65 115.67 179.53 115.16 180.42 114.70 181.47 114.62 182.37 114.19 183.20 113.55 184.24 113.47 185.18 113.12 186.01 112.49 186.97 112.18 187.93 111.88 188.91 111.64 189.72 110.97 190.70 110.74 191.69 110.50 192.58 110.03 193.47 109.55 194.45 109.32 195.37 108.93 196.26 108.44 197.27 108.26 198.12 107.70 199.12 107.50 199.95 106.88 200.99 106.77 201.82 106.15 202.72 105.71 203.72 105.50 204.58 104.97 205.59 104.80 206.46 104.26 207.45 104.04 208.40 103.71 209.35 103.40 210.16 102.74 211.14 102.47 212.16 102.34 213.07 101.91 213.94 101.40 214.84 100.95 215.89 100.85 216.78 100.39 217.74 100.10 218.67 99.72 219.61 99.37 220.39 98.63 221.46 98.60 222.28 97.95 223.21 97.58 224.16 97.25 225.08 96.85 226.01 96.50 227.02 96.31 227.85 95.68 228.88 95.58 229.69 94.91 230.71 94.76 231.56 94.17 232.58 94.04 233.52 93.67 234.44 93.28 235.35 92.87 236.26 92.43 237.21 92.11 238.13 91.73 239.09 91.43 240.00 91.01 241.00 90.80 241.84 90.21 242.79 89.89 243.67 89.37 244.69 89.23 245.51 88.59 246.52 88.42 247.39 87.89 248.36 87.62 249.34 87.36 250.19 86.81 251.17 86.57 252.12 86.23 252.95 85.61 253.89 85.25 254.85 84.97 255.86 84.80 256.73 84.27 257.66 83.90 258.55 83.43 259.48 83.05 260.49 82.87 261.35 82.32 262.38 82.21 263.32 81.86 264.17 81.28 265.11 80.93 266.06 80.61 267.00 80.28 267.87 79.75 268.81 79.39 269.72 78.98 270.66 78.63 271.69 78.50 272.54 77.92 273.52 77.69 274.48 77.39 275.38 76.93 276.29 76.52 277.21 76.11 278.13 75.72 279.13 75.52 280.00 75.01 280.98 74.76 281.88 74.30 282.84 74.02 283.66 73.36 284.64 73.10 285.65 72.94 286.55 72.48 287.47 72.10 288.36 71.62 289.36 71.42 290.25 70.96 291.19 70.60 292.12 70.24 293.09 69.96 293.99 69.50 294.89 69.06 295.79 68.60 296.79 68.42 297.61 67.76 298.60 67.53 299.60 67.35 300.44 66.75 301.39 66.43 302.26 65.91 303.32 65.87 304.21 65.37 305.17 65.08 305.99 64.43 307.02 64.33 307.86 63.73 308.78 63.32 309.75 63.05 310.74 62.82 311.69 62.50 312.52 61.87 313.56 61.79 314.39 61.17 315.32 60.78 316.33 60.61 317.24 60.19 318.21 59.92 319.12 59.51 319.93 58.81 320 59 320.10 60.00 320 60 319.11 60.47 318.07 60.57 317.24 61.20 316.23 61.37 315.34 61.83 314.49 62.41 313.56 62.79 312.50 62.83 311.67 63.46 310.67 63.65 309.80 64.17 308.76 64.28 307.85 64.70 307.01 65.28 306.07 65.63 305.09 65.89 304.20 66.35 303.26 66.70 302.40 67.24 301.42 67.51 300.45 67.77 299.60 68.36 298.59 68.53 297.66 68.89 296.76 69.35 295.78 69.60 294.94 70.18 293.94 70.39 292.99 70.70 292.06 71.08 291.16 71.54 290.20 71.82 289.30 72.27 288.35 72.61 287.44 73.02 286.49 73.35 285.64 73.92 284.69 74.23 283.66 74.36 282.75 74.79 281.82 75.15 280.98 75.75 280.00 76.00 279.08 76.39 278.20 76.89 277.25 77.23 276.21 77.31 275.39 77.96 274.49 78.41 273.54 78.74 272.63 79.16 271.59 79.25 270.68 79.67 269.78 80.13 268.85 80.49 267.95 80.95 267.00 81.26 266.03 81.53 265.09 81.89 264.16 82.27 263.29 82.79 262.27 82.92 261.42 83.50 260.45 83.78 259.59 84.32 258.64 84.65 257.64 84.86 256.72 85.25 255.86 85.79 254.84 85.95 253.93 86.35 252.98 86.68 252.15 87.30 251.13 87.45 250.18 87.78 249.37 88.46 248.32 88.52 247.40 88.93 246.53 89.45 245.57 89.74 244.60 90.01 243.70 90.47 242.77 90.84 241.87 91.28 240.87 91.48 239.93 91.83 239.03 92.28 238.20 92.90 237.15 92.96 236.24 93.39 235.28 93.70 234.47 94.35 233.54 94.72 232.51 94.85 231.58 95.22 230.75 95.84 229.71 95.94 228.85 96.49 227.92 96.87 227.02 97.32 225.99 97.44 225.04 97.77 224.22 98.41 223.24 98.66 222.33 99.08 221.36 99.35 220.46 99.81 219.50 100.09 218.58 100.50 217.67 100.93 216.69 101.16 215.86 101.78 214.82 101.88 213.97 102.46 213.01 102.77 212.16 103.33 211.16 103.53 210.28 104.02 209.27 104.21 208.33 104.54 207.40 104.91 206.58 105.57 205.54 105.67 204.62 106.06 203.71 106.49 202.84 107.02 201.93 107.43 200.91 107.57 199.99 107.98 199.03 108.26 198.09 108.63 197.24 109.20 196.29 109.51 195.33 109.82 194.37 110.11 193.46 110.54 192.60 111.07 191.64 111.38 190.65 111.59 189.78 112.13 188.87 112.55 187.93 112.89 186.97 113.20 186.02 113.52 185.05 113.78 184.23 114.44 183.28 114.76 182.28 114.96 181.44 115.55 180.48 115.86 179.47 116.01 178.54 116.39 177.69 116.97 176.81 117.47 175.82 117.68 174.91 118.12 174.01 118.56 172.99 118.71 172.05 119.06 171.10 119.37 170.26 119.97 169.30 120.26 168.38 120.67 167.38 120.87 166.53 121.44 165.52 121.60 164.67 122.18 163.67 122.37 162.82 122.95 161.79 123.08 160.93 123.62 159.97 123.92 159.14 124.56 158.10 124.64 157.17 125.02 156.35 125.66 155.33 125.80 154.38 126.13 153.48 126.59 152.54 126.93 151.62 127.32 150.65 127.61 149.73 127.99 148.77 128.29 147.97 128.98 147.02 129.33 146.07 129.65 145.12 129.96 144.17 130.29 143.25 130.68 142.27 130.92 141.46 131.61 140.51 131.92 139.47 132.03 138.62 132.58 137.70 133.00 136.68 133.15 135.88 133.85 134.87 134.02 133.92 134.34 133.04 134.84 132.06 135.08 131.12 135.42 130.27 136.01 129.23 136.11 128.34 136.58 127.47 137.08 126.56 137.52 125.61 137.85 124.67 138.18 123.78 138.65 122.86 139.06 121.89 139.33 120.99 139.77 120.06 140.15 120 140 120.10 141.00 119.86 142.00 119.99 143.00 120.09 144.00 120.07 145.00 120.15 146.00 120.02 147.00 119.91 148.00 119.91 149.00 120.02 150.00 120.06 151.00 120.06 152.00 119.85 153.00 120.04 154.00 120.04 155.00 119.96 156.00 119.95 157.00 119.85 158.00 119.92 159.00 120.18 160.00 120 160 119.00 160.22 119 160 118.89 159.00 118.92 158.00 118.93 157.00 119.13 156.00 118.83 155.00 119.10 154.00 118.88 153.00 118.86 152.00 119.15 151.00 119.05 150.00 118.92 149.00 118.93 148.00 118.82 147.00 118.97 146.00 119.07 145.00 118.82 144.00 118.91 143.00 118.91 142.00 119.10 141.00 119.06 140.00 119 140 118.19 139.38 117.27 138.99 116.23 138.82 115.38 138.28 114.53 137.75 113.63 137.31 112.72 136.88 111.77 136.54 110.99 135.88 110.03 135.54 109.15 135.07 108.21 134.72 107.27 134.35 106.43 133.79 105.50 133.42 104.74 132.70 103.72 132.50 102.82 132.05 101.98 131.50 101.10 131.03 100.19 130.61 99.38 129.99 98.38 129.75 97.44 129.40 96.52 128.98 95.71 128.38 94.79 127.97 93.89 127.53 92.99 127.09 92.13 126.58 91.27 126.06 90.38 125.59 89.45 125.23 88.64 124.60 87.62 124.41 86.83 123.75 85.80 123.56 84.96 123.01 84.05 122.59 83.11 122.22 82.33 121.55 81.43 121.12 80.51 120.72 79.60 120.29 78.64 119.97 77.80 119.41 76.98 118.81 76.07 118.40 75.08 118.14 74.27 117.51 73.28 117.27 72.45 116.69 71.49 116.37 70.66 115.79 69.82 115.23 68.88 114.86 67.90 114.59 67.15 113.86 66.08 113.76 65.22 113.23 64.31 112.82 63.47 112.26 62.60 111.76 61.75 111.21 60.75 110.99 59.88 110.47 59.06 109.88 58.12 109.53 57.22 109.09 56.26 108.76 55.48 108.08 54.54 107.72 53.61 107.34 52.65 107.02 51.85 106.40 50.86 106.12 50.01 105.59 49.20 104.98 48.18 104.77 47.31 104.27 46.43 103.80 45.56 103.29 44.73 102.73 43.69 102.56 42.81 102.08 42.00 101.46 41.15 100.93 40.17 100.65 39.32 100.11 38.42 99.68 37.44 99.38 36.60 98.83 35.79 98.22 34.87 97.80 33.85 97.60 33.01 97.05 32.17 96.49 31.23 96.13 30.41 95.53 29.37 95.37 28.48 94.92 27.58 94.49 26.81 93.79 25.81 93.54 24.91 93.10 23.99 92.72 23.14 92.17 22.26 91.69 21.39 91.18 20.56 90.61 19.60 90.30 18.71 89.84 17.87 89.28 16.86 89.05 16.01 88.51 15.19 87.93 14.29 87.48 13.24 87.34 12.44 86.69 11.46 86.42 10.65 85.81 9.70 85.47 8.89 84.84 7.88 84.63 7.13 83.88 6.09 83.73 5.24 83.19 4.33 82.77 3.46 82.27 2.51 81.94 1.64 81.44 0.84 80.80 -0.16 80.56 -1.01 80.02 -1 80 Z"></path></g><g transform="translate(175,38)"><path fill="rgba(0,0,0,0.15)" d="M13 2C  12.14 2.40 11.29 2.85 10.40 3.18 9.56 3.63 8.62 3.86 7.73 4.20 6.95 4.80 5.98 4.95 6 5 6.74 5.70 7.65 6.21 8.37 6.94 9.02 7.76 10.06 8.07 10.83 8.74 11.71 9.26 12.56 9.83 13.37 10.44 14.31 10.85 15.12 11.48 15.91 12.17 16 12 16.94 12.32 17.80 12.78 18.63 13.33 19.54 13.70 20.41 14.15 21.42 14.27 22.25 14.84 23.16 15.21 24.15 15.36 25.03 15.83 25.98 16.08 26 16 26.96 16.38 27.65 17.21 28.67 17.48 29.48 18.11 30.34 18.68 31.29 19.06 32.26 19.39 33.11 19.98 34.15 20.14 34.97 20.82 35.97 21.07 36 21 36.85 21.56 37.79 21.97 38.68 22.46 39.43 23.21 40.42 23.51 41.38 23.87 42.29 24.33 43.24 24.69 44.12 25.22 45.05 25.64 45.99 26.02 46 26 46.99 26.16 47.86 26.66 48.82 26.87 49.71 27.32 50.66 27.59 51.59 27.94 52.58 28.04 53.57 28.13 54.47 28.63 55.50 28.50 56.43 28.90 57.45 28.76 58.39 29.13 59.37 29.20 60.35 29.34 61.35 29.17 62.32 29.46 63.30 29.55 64.29 29.33 65.27 29.22 66.26 29.34 67.25 29.48 68.24 29.37 69.23 29.36 70.18 28.98 71.19 29.10 72.15 28.84 73.09 28.52 74.09 28.47 75.07 28.36 76.00 28.01 76 28 75.86 27.00 76.19 26.00 76.08 25.00 75.95 24.00 76.19 23.00 75.96 22.00 76.20 21.00 75.95 20.00 76.10 19.00 76.18 18.00 76 18 Z"></path><path fill="#eee" d="M15 -3C  14.46 -2.15 14.55 -1.11 14.24 -0.16 14.28 0.83 14.33 1.82 14.59 2.78 15.13 3.65 15.60 4.49 16.14 5.28 16.44 6.21 16.84 7.13 17 7 17.49 7.83 17.86 8.77 18.49 9.52 19.48 9.94 20.35 10.42 20.70 11.49 21.61 11.90 22.53 12.26 23.16 13.13 24.31 12.97 25.22 13.28 26.10 13.64 27.06 13.73 27 14 27.49 14.93 28.51 15.40 29.45 15.84 29.98 16.85 31.05 17.04 32.02 17.35 33.02 17.54 33.99 17.81 34.99 18.15 35 18 35.81 18.68 36.14 19.77 36.96 20.46 38.22 20.49 39.02 21.10 39.91 21.61 40.89 21.93 41.88 22.29 42.96 22.00 43.98 22.17 44.98 21.88 45 22 45.95 22.43 46.65 23.09 47.47 23.59 48.29 24.10 49.26 24.29 50.02 25.11 51.09 24.80 52.04 25.01 53.02 25.13 54.01 25.04 54 25 55.02 24.98 55.97 25.27 56.97 25.23 57.96 25.20 58.94 25.06 59.82 24.50 60.71 24.11 61.86 24.20 62.42 23.18 63.06 22.42 64.03 22.03 64 22 Z"></path><path fill="#E74C3C" d="M0 0C  0.91 -0.34 1.82 -0.69 2.73 -1.05 3.63 -1.42 4.53 -1.80 5.42 -2.19 6.32 -2.58 7.20 -2.98 8.09 -3.40 8.97 -3.82 9.84 -4.25 10.71 -4.68 11.58 -5.13 12.44 -5.59 13.30 -6.05 14.15 -6.52 15.00 -7.00 15 -7 15.92 -7.39 16.86 -7.77 17.79 -8.12 18.74 -8.46 19.69 -8.77 20.65 -9.07 21.62 -9.35 22.58 -9.61 23.56 -9.85 24.54 -10.07 25.52 -10.27 26.51 -10.45 27.50 -10.61 28.49 -10.75 29.49 -10.87 30.49 -10.97 31.49 -11.05 32.49 -11.11 33.49 -11.15 34.50 -11.17 35.50 -11.17 36.51 -11.15 37.51 -11.11 38.51 -11.05 39.51 -10.97 40.51 -10.87 41.51 -10.75 42.50 -10.61 43.49 -10.45 44.48 -10.27 45.46 -10.07 46.44 -9.85 47.42 -9.61 48.38 -9.35 49.35 -9.07 50.31 -8.77 51.26 -8.46 52.21 -8.12 53.14 -7.77 54.08 -7.39 55.00 -7.00 55 -7 55.86 -6.52 56.72 -6.02 57.56 -5.50 58.40 -4.97 59.22 -4.42 60.03 -3.86 60.83 -3.28 61.62 -2.68 62.40 -2.07 63.16 -1.45 63.91 -0.80 64.65 -0.15 65.38 0.52 66.09 1.21 66.79 1.91 67.48 2.62 68.15 3.35 68.80 4.09 69.45 4.84 70.07 5.60 70.68 6.38 71.28 7.17 71.86 7.97 72.42 8.78 72.97 9.60 73.50 10.44 74.02 11.28 74.52 12.14 75.00 13.00 75 13 75.45 13.93 75.95 14.83 76.49 15.71 77.07 16.56 77.70 17.38 78.38 18.16 79.09 18.91 79.84 19.62 80.62 20.30 81.44 20.93 82.29 21.51 83.17 22.05 84.07 22.55 85.00 23.00 85 23 85.85 23.43 86.50 24.13 86.84 25.02 86.84 25.98 86.50 26.87 85.85 27.57 85.00 28.00 85 28 84.00 28.17 83.00 28.32 82.00 28.45 80.99 28.56 79.99 28.65 78.98 28.72 77.96 28.77 76.95 28.80 75.94 28.81 74.93 28.80 73.92 28.76 72.91 28.71 71.90 28.64 70.89 28.54 69.89 28.43 68.88 28.29 67.88 28.14 66.89 27.96 65.89 27.77 64.91 27.55 63.92 27.32 62.94 27.06 61.97 26.78 61.00 26.49 60.04 26.18 59.08 25.84 58.13 25.49 57.19 25.12 56.26 24.73 55.34 24.32 54.42 23.89 53.51 23.44 52.61 22.98 51.72 22.49 50.84 21.99 49.98 21.47 49.12 20.94 48.27 20.38 47.44 19.81 46.61 19.22 45.80 18.62 45.00 18.00 45 18 44.20 17.38 43.40 16.77 42.58 16.18 41.76 15.60 40.93 15.03 40.09 14.47 39.25 13.92 38.39 13.38 37.53 12.86 36.66 12.35 35.78 11.85 34.90 11.37 34.01 10.90 33.11 10.44 32.21 9.99 31.30 9.56 30.38 9.14 29.46 8.73 28.53 8.34 27.60 7.96 26.66 7.59 25.71 7.24 24.76 6.90 23.81 6.57 22.85 6.26 21.89 5.96 20.92 5.68 19.95 5.41 18.97 5.15 18.00 4.91 17.01 4.68 16.03 4.47 15.04 4.27 14.05 4.08 13.06 3.91 12.06 3.75 11.06 3.61 10.06 3.48 9.06 3.37 8.06 3.27 7.05 3.19 6.05 3.12 5.04 3.06 4.03 3.02 3.02 2.99 2.02 2.98 1.01 2.98 0.00 3.00 0 3 -0.76 2.41 -1.04 1.50 -0.76 0.59 0.00 -0.00 0 0 Z"></path></g><g transform="translate(142,53) scale(0.9)"><path fill="rgba(0,0,0,0.15)" d="M-7 9C  -7.83 9.48 -8.80 9.63 -9.59 10.20 -10.45 10.61 -11.38 10.86 -12.21 11.35 -13.14 11.59 -13.93 12.16 -14 12 -13.27 12.72 -12.40 13.26 -11.60 13.89 -10.78 14.49 -9.85 14.94 -9.07 15.60 -8.18 16.10 -7.39 16.75 -6.52 17.27 -5.64 17.78 -4.92 18.55 -3.92 18.88 -4 19 -3.21 19.66 -2.37 20.24 -1.35 20.52 -0.54 21.15 0.39 21.57 1.23 22.17 2.26 22.39 3.13 22.94 4.05 23.39 5.04 23.65 6.03 23.92 6 24 6.81 24.57 7.77 24.85 8.65 25.28 9.58 25.60 10.44 26.08 11.30 26.57 12.24 26.85 13.25 26.96 14.17 27.29 15.00 27.91 16.00 28.01 16 28 16.76 28.70 17.65 29.20 18.67 29.48 19.47 30.13 20.44 30.49 21.24 31.16 22.24 31.43 23.20 31.78 24.03 32.44 25.02 32.70 26.01 32.97 26 33 26.80 33.60 27.77 33.85 28.65 34.27 29.58 34.61 30.43 35.10 31.36 35.41 32.28 35.76 33.18 36.16 34.18 36.26 35.09 36.61 35.98 37.08 36 37 36.96 37.26 37.87 37.61 38.80 37.93 39.71 38.33 40.70 38.47 41.63 38.80 42.57 39.09 43.51 39.41 44.51 39.44 45.47 39.67 46.45 39.79 47.42 39.95 48.41 39.96 49.38 40.16 50.36 40.24 51.33 40.49 52.32 40.34 53.31 40.26 54.29 40.62 55.28 40.55 56.26 40.32 57.25 40.36 58.22 40.12 59.22 40.33 60.17 39.94 61.18 40.08 62.15 39.85 63.14 39.79 64.05 39.27 65.08 39.42 66.04 39.18 66 39 65.89 38.00 66.17 37.00 66.03 36.00 66.03 35.00 66.07 34.00 65.90 33.00 65.88 32.00 65.88 31.00 65.87 30.00 65.95 29.00 66 29 Z"></path><path fill="#eee" d="M5 8C  4.67 8.92 4.20 9.82 4.56 10.87 4.78 11.83 4.71 12.78 4.72 13.75 4.86 14.73 5.48 15.54 5.67 16.53 6.33 17.28 7.02 17.99 7 18 7.41 18.90 7.40 19.97 8.24 20.66 8.74 21.51 9.81 21.84 10.58 22.38 11.01 23.50 12.01 23.77 13.03 23.88 14.05 23.75 15.00 24.02 15 24 15.60 24.88 16.03 25.92 16.87 26.65 17.85 27.19 18.88 27.57 19.92 27.88 21.04 27.78 21 28 21.78 28.68 22.23 29.68 23.38 29.92 24.29 30.36 25.10 30.95 25.85 31.76 26.86 32.04 27.88 32.25 28.98 31.95 29.96 32.19 30.98 32.67 32.00 32.26 32.93 31.64 33 32 33.61 32.80 34.72 32.91 35.61 33.27 36.27 34.10 37.20 34.39 38.20 34.44 39.02 35.21 40.06 34.98 41.03 35.05 42.00 35.11 42 35 42.99 34.90 43.95 34.90 44.90 34.72 45.92 35.09 46.90 34.94 47.85 34.63 48.71 34.11 49.59 33.66 50.54 33.36 51.14 32.46 51.99 31.98 52 32 51.85 30.96 52.56 30.03 52.54 29.00 52.52 27.97 51.91 27.01 52 27 Z"></path><path fill="#FF9300" d="M0 0C  1.00 0.05 2.00 0.08 3.00 0.08 4.00 0.05 5.00 -0.00 5 0 5.87 -0.49 6.75 -0.95 7.64 -1.40 8.55 -1.82 9.46 -2.22 10.39 -2.59 11.32 -2.95 12.26 -3.28 13.21 -3.58 14.17 -3.86 15.13 -4.12 16.10 -4.36 17.07 -4.57 18.05 -4.75 19.04 -4.91 20.03 -5.05 21.02 -5.16 22.01 -5.25 23.01 -5.31 24.00 -5.35 25.00 -5.36 26.00 -5.35 26.99 -5.31 27.99 -5.25 28.98 -5.16 29.97 -5.05 30.96 -4.91 31.95 -4.75 32.93 -4.57 33.90 -4.36 34.87 -4.12 35.83 -3.86 36.79 -3.58 37.74 -3.28 38.68 -2.95 39.61 -2.59 40.54 -2.22 41.45 -1.82 42.36 -1.40 43.25 -0.95 44.13 -0.49 45.00 0.00 45 0 45.84 0.52 46.66 1.05 47.48 1.60 48.29 2.16 49.09 2.73 49.88 3.32 50.67 3.92 51.44 4.53 52.20 5.15 52.95 5.79 53.69 6.44 54.42 7.10 55.14 7.77 55.85 8.46 56.54 9.15 57.23 9.86 57.90 10.58 58.56 11.31 59.21 12.05 59.85 12.80 60.47 13.56 61.08 14.33 61.68 15.12 62.27 15.91 62.84 16.71 63.40 17.52 63.95 18.34 64.48 19.16 65.00 20.00 65 20 65.45 20.93 65.95 21.83 66.49 22.71 67.07 23.56 67.70 24.38 68.38 25.16 69.09 25.91 69.84 26.62 70.62 27.30 71.44 27.93 72.29 28.51 73.17 29.05 74.07 29.55 75.00 30.00 75 30 75.77 30.61 76.44 31.34 76.97 32.16 77.36 33.06 77.60 34.02 77.68 35.00 77.60 35.98 77.36 36.94 76.97 37.84 76.44 38.66 75.77 39.39 75.00 40.00 75 40 74.31 40.70 73.60 41.39 72.88 42.07 72.15 42.73 71.40 43.38 70.64 44.01 69.87 44.63 69.09 45.23 68.29 45.82 67.48 46.39 66.67 46.94 65.84 47.48 65.00 48.00 65 48 64.03 48.35 63.02 48.52 61.98 48.52 60.97 48.35 60.00 48.00 60 48 59.10 47.58 58.21 47.12 57.34 46.63 56.50 46.11 55.67 45.55 54.87 44.96 54.09 44.34 53.34 43.68 52.61 43.00 51.92 42.29 51.25 41.55 50.61 40.79 50.00 40.00 50 40 49.48 39.16 48.95 38.34 48.40 37.52 47.84 36.71 47.27 35.91 46.68 35.12 46.08 34.33 45.47 33.56 44.85 32.80 44.21 32.05 43.56 31.31 42.90 30.58 42.23 29.86 41.54 29.15 40.85 28.46 40.14 27.77 39.42 27.10 38.69 26.44 37.95 25.79 37.20 25.15 36.44 24.53 35.67 23.92 34.88 23.32 34.09 22.73 33.29 22.16 32.48 21.60 31.66 21.05 30.84 20.52 30.00 20.00 30 20 29.14 19.48 28.26 18.98 27.38 18.51 26.48 18.05 25.57 17.62 24.65 17.22 23.72 16.83 22.78 16.47 21.83 16.13 20.87 15.82 19.91 15.53 18.94 15.27 17.96 15.03 16.98 14.81 15.99 14.62 15.00 14.46 14.00 14.32 13.00 14.20 12.00 14.11 10.99 14.05 9.99 14.01 8.98 13.99 7.98 14.00 6.97 14.04 5.97 14.10 4.96 14.19 3.96 14.30 2.97 14.44 1.97 14.60 0.98 14.79 0.00 15.00 0 15 -0.99 14.87 -1.97 14.71 -2.95 14.52 -3.92 14.32 -4.89 14.09 -5.85 13.83 -6.80 13.55 -7.75 13.25 -8.69 12.92 -9.62 12.57 -10.54 12.20 -11.46 11.80 -12.36 11.39 -13.25 10.95 -14.13 10.48 -15.00 10.00 -15 10 -14.30 9.27 -13.58 8.56 -12.84 7.87 -12.09 7.20 -11.31 6.55 -10.53 5.92 -9.72 5.31 -8.90 4.71 -8.07 4.14 -7.22 3.59 -6.36 3.07 -5.49 2.56 -4.60 2.08 -3.70 1.61 -2.79 1.18 -1.87 0.76 -0.94 0.37 -0.00 0.00 0 0 Z"></path><path fill="white" d="M72 28C  71.85 29.00 71.74 30.01 71.65 31.01 71.61 32.03 71.59 33.04 71.61 34.05 71.67 35.06 71.76 36.07 71.88 37.07 72.04 38.07 72.23 39.07 72.45 40.05 72.71 41.03 73.00 42.00 73 42 72.37 42.68 71.50 43.00 71.5 43 71.19 42.07 70.91 41.12 70.65 40.17 70.43 39.21 70.25 38.24 70.09 37.27 69.97 36.29 69.87 35.31 69.82 34.33 69.79 33.34 69.79 32.36 69.83 31.37 69.90 30.39 70.00 29.41 70.14 28.44 70.30 27.47 70.50 26.50 70.5 26.5 Z" opacity="0.4"></path><path fill="white" d="M55 7C  55.43 7.88 55.82 8.78 56.18 9.69 56.51 10.61 56.81 11.54 57.08 12.48 57.31 13.43 57.51 14.39 57.67 15.36 57.80 16.33 57.90 17.30 57.96 18.28 57.99 19.26 57.99 20.24 57.95 21.21 57.88 22.19 57.77 23.16 57.63 24.13 57.45 25.10 57.24 26.05 57.00 27.00 57 27 56.82 28.00 56.67 29.01 56.55 30.02 56.46 31.04 56.40 32.06 56.36 33.08 56.36 34.09 56.39 35.11 56.45 36.13 56.53 37.15 56.65 38.16 56.80 39.17 56.97 40.17 57.17 41.17 57.41 42.16 57.67 43.15 57.96 44.13 58.28 45.09 58.63 46.05 59.00 47.00 59 47 58.00 47.27 57.00 47.00 57 47 56.63 46.05 56.28 45.09 55.96 44.13 55.67 43.15 55.41 42.16 55.17 41.17 54.97 40.17 54.80 39.17 54.65 38.16 54.53 37.15 54.45 36.13 54.39 35.11 54.36 34.09 54.36 33.08 54.40 32.06 54.46 31.04 54.55 30.02 54.67 29.01 54.82 28.00 55.00 27.00 55 27 55.28 26.04 55.53 25.08 55.73 24.10 55.90 23.12 56.04 22.13 56.13 21.14 56.19 20.14 56.20 19.14 56.18 18.15 56.13 17.15 56.03 16.16 55.89 15.17 55.72 14.19 55.51 13.21 55.26 12.25 54.98 11.29 54.66 10.35 54.30 9.41 53.91 8.50 53.48 7.60 53.02 6.71 52.53 5.85 52.00 5.00 52 5 Z" opacity="0.4"></path><path fill="white" d="M35 -4C  35.69 -3.27 36.35 -2.52 36.99 -1.74 37.60 -0.94 38.18 -0.12 38.73 0.73 39.24 1.59 39.73 2.47 40.19 3.36 40.61 4.27 41.00 5.20 41.36 6.14 41.68 7.09 41.97 8.05 42.22 9.03 42.44 10.01 42.62 11.00 42.77 11.99 42.88 12.99 42.96 13.99 43.00 15.00 43.00 16.00 43 16 43.00 17.00 43.00 18.00 43.00 19.00 43.00 20.00 43.00 21.00 43.00 22.00 43.00 23.00 43.00 24.00 43.00 25.00 43.00 26.00 43.00 27.00 43.00 28.00 43.00 29.00 43.00 30.00 43.00 31.00 43 31 42.00 31.27 41.00 31.00 41 31 41.00 30.00 41.00 29.00 41.00 28.00 41.00 27.00 41.00 26.00 41.00 25.00 41.00 24.00 41.00 23.00 41.00 22.00 41.00 21.00 41.00 20.00 41.00 19.00 41.00 18.00 41.00 17.00 41.00 16.00 41 16 41.03 14.98 41.03 13.97 40.98 12.95 40.90 11.94 40.77 10.93 40.61 9.93 40.41 8.93 40.16 7.95 39.88 6.97 39.57 6.00 39.21 5.05 38.82 4.12 38.39 3.19 37.93 2.29 37.43 1.41 36.89 0.54 36.33 -0.30 35.73 -1.12 35.09 -1.92 34.43 -2.69 33.74 -3.44 33.02 -4.15 32.27 -4.84 31.50 -5.50 31.5 -5.5 Z" opacity="0.4"></path><path fill="white" d="M18 -5C  18.79 -4.39 19.55 -3.74 20.28 -3.06 20.98 -2.35 21.64 -1.61 22.28 -0.83 22.87 -0.03 23.43 0.80 23.95 1.65 24.43 2.52 24.87 3.42 25.27 4.33 25.63 5.26 25.95 6.21 26.22 7.17 26.45 8.14 26.63 9.12 26.77 10.11 26.87 11.11 26.92 12.10 26.92 13.10 26.88 14.10 26.79 15.09 26.66 16.08 26.48 17.06 26.26 18.04 26.00 19.00 26 19 25.00 19.27 24.00 19.00 24 19 24.26 18.04 24.48 17.06 24.66 16.08 24.79 15.09 24.88 14.10 24.92 13.10 24.92 12.10 24.87 11.11 24.77 10.11 24.63 9.12 24.45 8.14 24.22 7.17 23.95 6.21 23.63 5.26 23.27 4.33 22.87 3.42 22.43 2.52 21.95 1.65 21.43 0.80 20.87 -0.03 20.28 -0.83 19.64 -1.61 18.98 -2.35 18.28 -3.06 17.55 -3.74 16.79 -4.39 16.00 -5.00 16 -5 Z" opacity="0.4"></path><path fill="white" d="M5 -0.5C  5.46 0.36 5.88 1.23 6.27 2.12 6.62 3.03 6.94 3.95 7.22 4.88 7.47 5.82 7.68 6.76 7.85 7.72 7.98 8.68 8.08 9.65 8.14 10.62 8.16 11.59 8.14 12.56 8.09 13.53 8.00 14.50 8 14.5 7.25 14.65 6.50 14.50 6.5 14.5 6.56 13.53 6.58 12.57 6.56 11.60 6.51 10.63 6.42 9.67 6.29 8.71 6.12 7.75 5.92 6.81 5.68 5.87 5.40 4.94 5.09 4.03 4.75 3.12 4.36 2.23 3.95 1.36 3.50 0.50 3.5 0.5 Z" opacity="0.4"></path><path fill="white" d="M-9 5C  -8.88 6.00 -8.80 7.00 -8.76 8.00 -8.76 9.00 -8.80 10.00 -8.88 11.00 -9.00 12.00 -9 12 -9.75 12.15 -10.50 12.00 -10.5 12 -10.40 11.00 -10.34 10.00 -10.32 9.00 -10.34 8.00 -10.40 7.00 -10.50 6.00 -10.5 6 Z" opacity="0.4"></path></g><g transform="translate(98,74)"><path fill="rgba(0,0,0,0.15)" d="M-7 8C  -7.91 8.29 -8.71 8.84 -9.56 9.27 -10.44 9.63 -11.41 9.80 -12.17 10.43 -13.14 10.59 -13.94 11.14 -14 11 -13.16 11.50 -12.41 12.12 -11.61 12.67 -10.85 13.29 -9.81 13.47 -9.16 14.27 -8.34 14.79 -7.33 14.99 -6.55 15.58 -5.62 15.92 -4.83 16.49 -4.02 17.04 -4 17 -3.13 17.52 -2.36 18.22 -1.38 18.57 -0.42 18.94 0.32 19.71 1.32 20.00 2.27 20.36 3.10 21.00 4.06 21.36 5.10 21.51 5.97 22.07 6 22 6.79 22.66 7.83 22.91 8.65 23.51 9.54 24.02 10.36 24.65 11.35 24.94 12.27 25.37 13.14 25.92 14.16 26.12 15.01 26.72 15.98 27.04 16 27 16.86 27.54 17.69 28.14 18.71 28.42 19.49 29.10 20.41 29.55 21.35 29.93 22.19 30.54 23.13 30.93 24.15 31.14 24.99 31.79 26.05 31.87 26 32 26.92 32.36 27.68 33.02 28.56 33.48 29.47 33.84 30.44 34.08 31.34 34.48 32.24 34.87 33.21 35.07 34.09 35.54 35.03 35.82 36.02 35.93 36 36 36.95 36.27 37.89 36.55 38.76 37.07 39.70 37.36 40.64 37.67 41.59 37.93 42.60 37.95 43.56 38.16 44.50 38.47 45.43 38.85 46.47 38.64 47.44 38.80 48.41 38.96 49.36 39.27 50.34 39.43 51.34 39.27 52.32 39.34 53.31 39.42 54.29 39.55 55.28 39.51 56.26 39.24 57.25 39.43 58.22 39.11 59.21 39.21 60.19 39.06 61.18 39.03 62.16 38.94 63.08 38.45 64.10 38.55 65.03 38.18 65.96 37.82 66 38 65.84 37.00 65.98 36.00 65.94 35.00 66.13 34.00 66.13 33.00 66.08 32.00 66.07 31.00 66.11 30.00 66.09 29.00 66.17 28.00 66 28 Z"></path><path fill="#eee" d="M2 5C  1.81 5.96 1.92 6.96 1.67 7.88 1.24 8.83 1.50 9.80 1.42 10.81 1.69 11.78 2.52 12.52 2.63 13.55 3.61 14.10 3.74 15.21 4 15 4.22 16.01 4.81 16.83 5.67 17.43 6.52 18.01 6.99 18.88 7.66 19.60 8.20 20.46 8.98 21.08 9.81 21.64 10.58 22.26 11.59 22.52 12.41 23.07 13.18 23.74 14.09 24.18 15.18 24.09 16.18 24.19 17.01 24.86 18.09 24.52 19.05 24.68 19 25 19.52 25.96 20.77 26.05 21.50 26.75 22.13 27.65 23.04 28.14 23.90 28.72 25.10 28.57 26.07 28.84 26.80 29.85 27.82 30.07 28.87 30.10 29.91 30.07 30.90 30.37 31.93 30.38 32.96 30.21 33.97 30.16 34.96 29.83 36.02 30.12 36 30 36.49 30.91 37.40 31.41 38.43 31.66 39.10 32.48 40.02 32.89 41.11 32.76 42.02 33.24 43.04 33.08 44.02 33.29 44.99 32.95 45 33 46.04 32.92 46.99 33.11 47.97 33.42 48.98 33.46 50.00 33.36 50.99 33.06 51.81 32.34 52.55 31.61 53.70 31.60 54.28 30.68 54.89 29.89 55 30 54.89 28.95 54.95 27.97 55.00 26.99 55.57 25.95 54.79 25.04 55 25 Z"></path><path fill="#E3F4F3" d="M0 0C  0.87 -0.49 1.75 -0.95 2.64 -1.40 3.55 -1.82 4.46 -2.22 5.39 -2.59 6.32 -2.95 7.26 -3.28 8.21 -3.58 9.17 -3.86 10.13 -4.12 11.10 -4.36 12.07 -4.57 13.05 -4.75 14.04 -4.91 15.03 -5.05 16.02 -5.16 17.01 -5.25 18.01 -5.31 19.00 -5.35 20.00 -5.36 21.00 -5.35 21.99 -5.31 22.99 -5.25 23.98 -5.16 24.97 -5.05 25.96 -4.91 26.95 -4.75 27.93 -4.57 28.90 -4.36 29.87 -4.12 30.83 -3.86 31.79 -3.58 32.74 -3.28 33.68 -2.95 34.61 -2.59 35.54 -2.22 36.45 -1.82 37.36 -1.40 38.25 -0.95 39.13 -0.49 40.00 0.00 40 0 40.84 0.52 41.66 1.05 42.48 1.60 43.29 2.16 44.09 2.73 44.88 3.32 45.67 3.92 46.44 4.53 47.20 5.15 47.95 5.79 48.69 6.44 49.42 7.10 50.14 7.77 50.85 8.46 51.54 9.15 52.23 9.86 52.90 10.58 53.56 11.31 54.21 12.05 54.85 12.80 55.47 13.56 56.08 14.33 56.68 15.12 57.27 15.91 57.84 16.71 58.40 17.52 58.95 18.34 59.48 19.16 60.00 20.00 60 20 60.55 20.86 61.07 21.73 61.58 22.61 62.08 23.50 62.55 24.41 63.01 25.32 63.44 26.24 63.86 27.17 64.26 28.10 64.64 29.05 65.00 30.00 65 30 65.27 31.00 65.00 32.00 65 32 64.19 32.55 63.37 33.08 62.54 33.59 61.69 34.09 60.84 34.57 59.98 35.04 59.11 35.49 58.23 35.92 57.35 36.33 56.45 36.73 55.55 37.10 54.64 37.47 53.73 37.81 52.80 38.13 51.87 38.44 50.94 38.73 50.00 39.00 50 39 48.97 38.69 47.95 38.33 46.95 37.93 45.96 37.49 45.00 37.00 45 37 44.48 36.16 43.95 35.34 43.40 34.52 42.84 33.71 42.27 32.91 41.68 32.12 41.08 31.33 40.47 30.56 39.85 29.80 39.21 29.05 38.56 28.31 37.90 27.58 37.23 26.86 36.54 26.15 35.85 25.46 35.14 24.77 34.42 24.10 33.69 23.44 32.95 22.79 32.20 22.15 31.44 21.53 30.67 20.92 29.88 20.32 29.09 19.73 28.29 19.16 27.48 18.60 26.66 18.05 25.84 17.52 25.00 17.00 25 17 24.18 16.43 23.35 15.88 22.51 15.36 21.65 14.85 20.78 14.37 19.89 13.90 19.00 13.46 18.10 13.05 17.18 12.65 16.26 12.28 15.33 11.93 14.39 11.60 13.44 11.30 12.48 11.02 11.52 10.77 10.55 10.53 9.57 10.33 8.60 10.15 7.61 9.99 6.63 9.85 5.64 9.75 4.64 9.66 3.65 9.60 2.65 9.57 1.66 9.56 0.66 9.57 -0.33 9.61 -1.33 9.68 -2.32 9.77 -3.31 9.88 -4.30 10.02 -5.28 10.18 -6.26 10.37 -7.23 10.58 -8.20 10.82 -9.16 11.08 -10.11 11.36 -11.06 11.67 -12.00 12.00 -12 12 -13.07 11.64 -14.00 11.00 -14 11 -14.27 10.00 -14.00 9.00 -14 9 -13.30 8.34 -12.58 7.69 -11.85 7.06 -11.10 6.45 -10.33 5.86 -9.56 5.28 -8.76 4.73 -7.96 4.19 -7.14 3.67 -6.31 3.18 -5.47 2.70 -4.62 2.24 -3.76 1.81 -2.88 1.39 -2.00 1.00 -2 1 Z"></path><path fill="#C5D2D1" d="M0 0C  0.90 -0.42 1.81 -0.82 2.73 -1.20 3.66 -1.56 4.60 -1.89 5.54 -2.20 6.49 -2.48 7.45 -2.74 8.42 -2.98 9.39 -3.19 10.37 -3.38 11.35 -3.54 12.33 -3.68 13.32 -3.80 14.31 -3.89 15.30 -3.96 16.29 -4.00 17.29 -4.01 18.28 -4.01 19.28 -3.97 20.27 -3.92 21.26 -3.83 22.25 -3.73 23.23 -3.60 24.22 -3.44 25.19 -3.26 26.17 -3.06 27.14 -2.83 28.10 -2.58 29.05 -2.30 30.00 -2.00 30 -2 30.93 -1.59 31.85 -1.17 32.76 -0.73 33.67 -0.28 34.57 0.19 35.46 0.67 36.34 1.17 37.21 1.68 38.07 2.21 38.93 2.75 39.78 3.31 40.61 3.88 41.44 4.46 42.26 5.06 43.06 5.68 43.86 6.30 44.64 6.94 45.42 7.59 46.18 8.26 46.93 8.94 47.67 9.63 48.40 10.33 49.12 11.05 49.82 11.77 50.52 12.51 51.20 13.26 51.86 14.03 52.52 14.80 53.16 15.58 53.79 16.38 54.40 17.18 55.00 18.00 55 18 55.59 18.81 56.16 19.64 56.72 20.47 57.26 21.31 57.79 22.17 58.31 23.03 58.81 23.90 59.30 24.77 59.77 25.66 60.23 26.55 60.67 27.45 61.09 28.36 61.51 29.28 61.90 30.20 62.28 31.13 62.65 32.06 63.00 33.00 63 33 62.00 34.00 62 34 61.65 33.06 61.28 32.13 60.90 31.20 60.51 30.28 60.09 29.36 59.67 28.45 59.23 27.55 58.77 26.66 58.30 25.77 57.81 24.90 57.31 24.03 56.79 23.17 56.26 22.31 55.72 21.47 55.16 20.64 54.59 19.81 54.00 19.00 54 19 53.40 18.18 52.79 17.38 52.16 16.58 51.52 15.80 50.86 15.03 50.20 14.26 49.52 13.51 48.82 12.77 48.12 12.05 47.40 11.33 46.67 10.63 45.93 9.94 45.18 9.26 44.42 8.59 43.64 7.94 42.86 7.30 42.06 6.68 41.26 6.06 40.44 5.46 39.61 4.88 38.78 4.31 37.93 3.75 37.07 3.21 36.21 2.68 35.34 2.17 34.46 1.67 33.57 1.19 32.67 0.72 31.76 0.27 30.85 -0.17 29.93 -0.59 29.00 -1.00 29 -1 28.05 -1.30 27.10 -1.58 26.14 -1.83 25.17 -2.06 24.19 -2.26 23.22 -2.44 22.23 -2.60 21.25 -2.73 20.26 -2.83 19.27 -2.92 18.28 -2.97 17.28 -3.01 16.29 -3.01 15.29 -3.00 14.30 -2.96 13.31 -2.89 12.32 -2.80 11.33 -2.68 10.35 -2.54 9.37 -2.38 8.39 -2.19 7.42 -1.98 6.45 -1.74 5.49 -1.48 4.54 -1.20 3.60 -0.89 2.66 -0.56 1.73 -0.20 0.81 0.18 -0.10 0.58 -1.00 1.00 -1 1 Z"></path><path fill="#C5D2D1" d="M-3 2C  -2.10 1.58 -1.19 1.18 -0.27 0.80 0.66 0.44 1.60 0.11 2.54 -0.20 3.49 -0.48 4.45 -0.74 5.42 -0.98 6.39 -1.19 7.37 -1.38 8.35 -1.54 9.33 -1.68 10.32 -1.80 11.31 -1.89 12.30 -1.96 13.29 -2.00 14.29 -2.01 15.28 -2.01 16.28 -1.97 17.27 -1.92 18.26 -1.83 19.25 -1.73 20.23 -1.60 21.22 -1.44 22.19 -1.26 23.17 -1.06 24.14 -0.83 25.10 -0.58 26.05 -0.30 27.00 0.00 27 0 27.90 0.40 28.79 0.82 29.68 1.26 30.56 1.71 31.43 2.17 32.29 2.65 33.15 3.14 34.00 3.64 34.83 4.16 35.66 4.70 36.49 5.24 37.30 5.80 38.10 6.38 38.89 6.96 39.68 7.56 40.45 8.17 41.22 8.80 41.97 9.44 42.71 10.09 43.44 10.75 44.16 11.42 44.87 12.11 45.57 12.80 46.26 13.51 46.93 14.23 47.60 14.96 48.25 15.70 48.89 16.46 49.51 17.22 50.13 17.99 50.73 18.77 51.32 19.57 51.89 20.37 52.45 21.18 53.00 22.00 53 22 53.56 22.81 54.12 23.63 54.65 24.46 55.18 25.29 55.69 26.14 56.18 26.99 56.67 27.85 57.13 28.72 57.59 29.60 58.03 30.48 58.45 31.37 58.86 32.27 59.26 33.17 59.64 34.08 60.00 35.00 60 35 59.00 36.00 59 36 58.64 35.08 58.26 34.17 57.86 33.27 57.45 32.37 57.03 31.48 56.59 30.60 56.13 29.72 55.67 28.85 55.18 27.99 54.69 27.14 54.18 26.29 53.65 25.46 53.12 24.63 52.56 23.81 52.00 23.00 52 23 51.45 22.18 50.89 21.37 50.32 20.57 49.73 19.77 49.13 18.99 48.51 18.22 47.89 17.46 47.25 16.70 46.60 15.96 45.93 15.23 45.26 14.51 44.57 13.80 43.87 13.11 43.16 12.42 42.44 11.75 41.71 11.09 40.97 10.44 40.22 9.80 39.45 9.17 38.68 8.56 37.89 7.96 37.10 7.38 36.30 6.80 35.49 6.24 34.66 5.70 33.83 5.16 33.00 4.64 32.15 4.14 31.29 3.65 30.43 3.17 29.56 2.71 28.68 2.26 27.79 1.82 26.90 1.40 26.00 1.00 26 1 25.05 0.70 24.10 0.42 23.14 0.17 22.17 -0.06 21.19 -0.26 20.22 -0.44 19.23 -0.60 18.25 -0.73 17.26 -0.83 16.27 -0.92 15.28 -0.97 14.28 -1.01 13.29 -1.01 12.29 -1.00 11.30 -0.96 10.31 -0.89 9.32 -0.80 8.33 -0.68 7.35 -0.54 6.37 -0.38 5.39 -0.19 4.42 0.02 3.45 0.26 2.49 0.52 1.54 0.80 0.60 1.11 -0.34 1.44 -1.27 1.80 -2.19 2.18 -3.10 2.58 -4.00 3.00 -4 3 Z"></path><path fill="#C5D2D1" d="M-8 5C  -7.10 4.58 -6.19 4.18 -5.27 3.80 -4.34 3.44 -3.40 3.11 -2.46 2.80 -1.51 2.52 -0.55 2.26 0.42 2.02 1.39 1.81 2.37 1.62 3.35 1.46 4.33 1.32 5.32 1.20 6.31 1.11 7.30 1.04 8.29 1.00 9.29 0.99 10.28 0.99 11.28 1.03 12.27 1.08 13.26 1.17 14.25 1.27 15.23 1.40 16.22 1.56 17.19 1.74 18.17 1.94 19.14 2.17 20.10 2.42 21.05 2.70 22.00 3.00 22 3 22.94 3.37 23.87 3.75 24.79 4.14 25.71 4.56 26.61 4.99 27.52 5.43 28.41 5.89 29.30 6.36 30.18 6.85 31.05 7.35 31.91 7.87 32.76 8.40 33.61 8.94 34.44 9.50 35.27 10.08 36.08 10.66 36.89 11.26 37.68 11.88 38.47 12.51 39.24 13.15 40.01 13.80 40.76 14.47 41.50 15.14 42.23 15.84 42.95 16.54 43.65 17.25 44.35 17.98 45.03 18.72 45.70 19.47 46.36 20.23 47.00 21.00 47 21 47.61 21.76 48.21 22.53 48.80 23.31 49.37 24.10 49.94 24.89 50.48 25.70 51.02 26.51 51.54 27.34 52.05 28.17 52.54 29.01 53.03 29.86 53.49 30.71 53.95 31.58 54.39 32.45 54.81 33.33 55.22 34.21 55.62 35.10 56.00 36.00 56 36 55.00 37.00 55 37 54.62 36.10 54.22 35.21 53.81 34.33 53.39 33.45 52.95 32.58 52.49 31.71 52.03 30.86 51.54 30.01 51.05 29.17 50.54 28.34 50.02 27.51 49.48 26.70 48.94 25.89 48.37 25.10 47.80 24.31 47.21 23.53 46.61 22.76 46.00 22.00 46 22 45.36 21.23 44.70 20.47 44.03 19.72 43.35 18.98 42.65 18.25 41.95 17.54 41.23 16.84 40.50 16.14 39.76 15.47 39.01 14.80 38.24 14.15 37.47 13.51 36.68 12.88 35.89 12.26 35.08 11.66 34.27 11.08 33.44 10.50 32.61 9.94 31.76 9.40 30.91 8.87 30.05 8.35 29.18 7.85 28.30 7.36 27.41 6.89 26.52 6.43 25.61 5.99 24.71 5.56 23.79 5.14 22.87 4.75 21.94 4.37 21.00 4.00 21 4 20.05 3.70 19.10 3.42 18.14 3.17 17.17 2.94 16.19 2.74 15.22 2.56 14.23 2.40 13.25 2.27 12.26 2.17 11.27 2.08 10.28 2.03 9.28 1.99 8.29 1.99 7.29 2.00 6.30 2.04 5.31 2.11 4.32 2.20 3.33 2.32 2.35 2.46 1.37 2.62 0.39 2.81 -0.58 3.02 -1.55 3.26 -2.51 3.52 -3.46 3.80 -4.40 4.11 -5.34 4.44 -6.27 4.80 -7.19 5.18 -8.10 5.58 -9.00 6.00 -9 6 Z"></path><path fill="#C5D2D1" d="M-11 8C  -10.10 7.58 -9.19 7.18 -8.27 6.80 -7.34 6.44 -6.40 6.11 -5.46 5.80 -4.51 5.52 -3.55 5.26 -2.58 5.02 -1.61 4.81 -0.63 4.62 0.35 4.46 1.33 4.32 2.32 4.20 3.31 4.11 4.30 4.04 5.29 4.00 6.29 3.99 7.28 3.99 8.28 4.03 9.27 4.08 10.26 4.17 11.25 4.27 12.23 4.40 13.22 4.56 14.19 4.74 15.17 4.94 16.14 5.17 17.10 5.42 18.05 5.70 19.00 6.00 19 6 19.93 6.41 20.85 6.83 21.76 7.27 22.67 7.72 23.57 8.19 24.46 8.67 25.34 9.17 26.21 9.68 27.07 10.21 27.93 10.75 28.78 11.31 29.61 11.88 30.44 12.46 31.26 13.06 32.06 13.68 32.86 14.30 33.64 14.94 34.42 15.59 35.18 16.26 35.93 16.94 36.67 17.63 37.40 18.33 38.12 19.05 38.82 19.77 39.52 20.51 40.20 21.26 40.86 22.03 41.52 22.80 42.16 23.58 42.79 24.38 43.40 25.18 44.00 26.00 44 26 44.67 26.79 45.32 27.59 45.95 28.40 46.58 29.23 47.19 30.06 47.78 30.90 48.36 31.76 48.93 32.62 49.48 33.50 50.01 34.38 50.53 35.27 51.04 36.17 51.53 37.08 52.00 38.00 52 38 51.00 39.00 51 39 50.53 38.08 50.04 37.17 49.53 36.27 49.01 35.38 48.48 34.50 47.93 33.62 47.36 32.76 46.78 31.90 46.19 31.06 45.58 30.23 44.95 29.40 44.32 28.59 43.67 27.79 43.00 27.00 43 27 42.40 26.18 41.79 25.38 41.16 24.58 40.52 23.80 39.86 23.03 39.20 22.26 38.52 21.51 37.82 20.77 37.12 20.05 36.40 19.33 35.67 18.63 34.93 17.94 34.18 17.26 33.42 16.59 32.64 15.94 31.86 15.30 31.06 14.68 30.26 14.06 29.44 13.46 28.61 12.88 27.78 12.31 26.93 11.75 26.07 11.21 25.21 10.68 24.34 10.17 23.46 9.67 22.57 9.19 21.67 8.72 20.76 8.27 19.85 7.83 18.93 7.41 18.00 7.00 18 7 17.05 6.70 16.10 6.42 15.14 6.17 14.17 5.94 13.19 5.74 12.22 5.56 11.23 5.40 10.25 5.27 9.26 5.17 8.27 5.08 7.28 5.03 6.28 4.99 5.29 4.99 4.29 5.00 3.30 5.04 2.31 5.11 1.32 5.20 0.33 5.32 -0.65 5.46 -1.63 5.62 -2.61 5.81 -3.58 6.02 -4.55 6.26 -5.51 6.52 -6.46 6.80 -7.40 7.11 -8.34 7.44 -9.27 7.80 -10.19 8.18 -11.10 8.58 -12.00 9.00 -12 9 Z"></path></g><g transform="translate(35,100)"><path fill="rgba(0,0,0,0.15)" d="M9 0C  8.05 0.20 7.22 0.68 6.40 1.19 5.43 1.33 4.69 2.03 3.74 2.23 2.89 2.66 2.04 3.10 2 3 2.77 3.60 3.68 3.99 4.52 4.48 5.17 5.26 6.12 5.57 6.88 6.20 7.74 6.65 8.61 7.10 9.42 7.63 10.35 7.96 11.10 8.61 11.94 9.12 12 9 12.88 9.52 13.72 10.09 14.59 10.63 15.48 11.12 16.45 11.47 17.29 12.06 18.19 12.54 19.22 12.74 20.12 13.22 21.04 13.65 22.01 13.98 22 14 22.89 14.51 23.69 15.14 24.59 15.63 25.56 15.99 26.30 16.75 27.29 17.06 28.27 17.37 29.19 17.81 30.05 18.39 31.03 18.69 31.97 19.09 32 19 32.84 19.58 33.78 20.01 34.68 20.48 35.42 21.23 36.43 21.51 37.29 22.07 38.27 22.36 39.09 23.04 40.02 23.47 41.06 23.62 41.96 24.12 42 24 42.86 24.48 43.82 24.75 44.70 25.19 45.55 25.68 46.46 26.03 47.32 26.52 48.29 26.74 49.20 27.09 50.07 27.59 51.02 27.86 51.98 28.07 52 28 52.94 28.39 53.93 28.63 54.91 28.87 55.95 28.88 56.90 29.30 57.95 29.20 58.93 29.48 59.93 29.60 60.92 29.87 61.92 30.03 62.93 30.15 63.95 30.10 64.96 30.17 65.97 30.17 66.99 30.12 68.00 30.15 69.01 30.30 70.02 30.48 71.03 30.32 72.05 30.40 73.06 30.29 74.07 30.16 75.06 29.85 76.06 29.68 77.06 29.52 78.07 29.44 79.10 29.51 80.11 29.34 81.05 28.89 82.02 28.57 83.04 28.51 84.03 28.28 84.98 27.94 85 28 85.00 27.00 85.01 26.00 85.16 25.00 85.00 24.00 85.03 23.00 85 23 Z"></path><path fill="#eee" d="M15 -3C  14.98 -1.99 14.71 -1.08 14.31 -0.16 14.85 0.83 14.40 1.81 14.72 2.75 14.72 3.77 15.40 4.57 15.85 5.44 16.57 6.12 16.79 7.17 17 7 17.53 7.91 18.02 8.83 18.65 9.66 19.48 10.31 20.19 11.08 21.08 11.64 22.14 11.85 23.00 12.44 23.99 12.75 25.00 13.02 25 13 25.53 13.83 26.42 14.38 26.88 15.25 27.59 15.91 28.53 16.28 29.15 17.12 30.11 17.42 31.01 17.85 32.10 17.55 32.96 18.33 33 18 33.64 18.80 34.65 19.22 35.33 19.98 36.04 20.74 36.93 21.27 38.05 21.31 38.87 22.01 39.89 22.20 40.91 22.41 41.97 22.00 42.98 22.62 44.00 22.25 45.07 22.38 45 22 45.55 22.85 46.55 23.22 47.21 24.00 48.29 24.10 49.06 24.81 49.98 25.25 51.04 25.09 52.03 25.16 53.03 25.38 54.03 25.25 54 25 54.99 25.14 55.96 25.35 56.97 25.06 57.95 25.15 58.94 25.03 59.86 24.63 60.84 24.43 61.62 23.76 62.62 23.48 63.40 22.83 64.25 22.25 64 22 Z"></path><path fill="#FAE4E2" d="M0 0C  0.81 -0.55 1.63 -1.08 2.46 -1.59 3.31 -2.09 4.16 -2.57 5.02 -3.04 5.89 -3.49 6.77 -3.92 7.65 -4.33 8.55 -4.73 9.45 -5.10 10.36 -5.47 11.27 -5.81 12.20 -6.13 13.13 -6.44 14.06 -6.73 15.00 -7.00 15 -7 15.92 -7.39 16.86 -7.77 17.79 -8.12 18.74 -8.46 19.69 -8.77 20.65 -9.07 21.62 -9.35 22.58 -9.61 23.56 -9.85 24.54 -10.07 25.52 -10.27 26.51 -10.45 27.50 -10.61 28.49 -10.75 29.49 -10.87 30.49 -10.97 31.49 -11.05 32.49 -11.11 33.49 -11.15 34.50 -11.17 35.50 -11.17 36.51 -11.15 37.51 -11.11 38.51 -11.05 39.51 -10.97 40.51 -10.87 41.51 -10.75 42.50 -10.61 43.49 -10.45 44.48 -10.27 45.46 -10.07 46.44 -9.85 47.42 -9.61 48.38 -9.35 49.35 -9.07 50.31 -8.77 51.26 -8.46 52.21 -8.12 53.14 -7.77 54.08 -7.39 55.00 -7.00 55 -7 55.84 -6.48 56.66 -5.95 57.48 -5.40 58.29 -4.84 59.09 -4.27 59.88 -3.68 60.67 -3.08 61.44 -2.47 62.20 -1.85 62.95 -1.21 63.69 -0.56 64.42 0.10 65.14 0.77 65.85 1.46 66.54 2.15 67.23 2.86 67.90 3.58 68.56 4.31 69.21 5.05 69.85 5.80 70.47 6.56 71.08 7.33 71.68 8.12 72.27 8.91 72.84 9.71 73.40 10.52 73.95 11.34 74.48 12.16 75.00 13.00 75 13 75.45 13.93 75.95 14.83 76.49 15.71 77.07 16.56 77.70 17.38 78.38 18.16 79.09 18.91 79.84 19.62 80.62 20.30 81.44 20.93 82.29 21.51 83.17 22.05 84.07 22.55 85.00 23.00 85 23 84.02 23.17 83.03 23.33 82.04 23.47 81.05 23.60 80.06 23.72 79.07 23.82 78.07 23.90 77.07 23.97 76.08 24.02 75.08 24.06 74.08 24.09 73.08 24.10 72.08 24.09 71.09 24.07 70.09 24.04 69.09 23.99 68.09 23.92 67.10 23.84 66.10 23.75 65.11 23.64 64.12 23.52 63.13 23.38 62.14 23.22 61.16 23.06 60.18 22.87 59.20 22.68 58.22 22.46 57.25 22.24 56.28 22.00 55.32 21.74 54.35 21.47 53.40 21.19 52.44 20.89 51.49 20.58 50.55 20.25 49.61 19.91 48.68 19.56 47.75 19.19 46.83 18.81 45.91 18.41 45.00 18.00 45 18 44.30 17.27 43.59 16.56 42.86 15.86 42.12 15.18 41.37 14.51 40.60 13.85 39.82 13.22 39.02 12.59 38.22 11.99 37.40 11.40 36.57 10.82 35.73 10.27 34.87 9.73 34.01 9.21 33.14 8.70 32.25 8.22 31.36 7.75 30.46 7.30 29.55 6.87 28.63 6.45 27.70 6.06 26.76 5.68 25.82 5.32 24.87 4.99 23.91 4.67 22.95 4.37 21.98 4.09 21.01 3.83 20.03 3.59 19.04 3.37 18.05 3.16 17.06 2.98 16.07 2.82 15.07 2.68 14.07 2.56 13.06 2.46 12.06 2.38 11.05 2.32 10.04 2.28 9.03 2.26 8.03 2.26 7.02 2.28 6.01 2.32 5.00 2.39 4.00 2.47 2.99 2.57 1.99 2.69 1.00 2.84 0.00 3.00 0 3 -0.27 2.00 -0.00 1.00 0 1 Z"></path><path fill="#FF7468" d="M85 23C  85.72 23.67 86.18 24.53 86.34 25.50 86.18 26.47 85.72 27.33 85.00 28.00 85 28 83.99 28.08 82.99 28.14 81.98 28.18 80.97 28.21 79.96 28.21 78.95 28.21 77.95 28.18 76.94 28.14 75.93 28.08 74.93 28.01 73.92 27.91 72.92 27.80 71.92 27.68 70.92 27.53 69.92 27.37 68.93 27.20 67.94 27.01 66.96 26.80 65.97 26.57 64.99 26.33 64.02 26.07 63.05 25.79 62.08 25.50 61.12 25.19 60.17 24.87 59.22 24.53 58.28 24.17 57.34 23.80 56.41 23.41 55.48 23.01 54.56 22.59 53.65 22.16 52.75 21.71 51.86 21.24 50.97 20.76 50.09 20.27 49.22 19.76 48.36 19.24 47.50 18.70 46.66 18.15 45.82 17.58 45.00 17.00 45 17 44.29 16.31 43.58 15.63 42.85 14.97 42.11 14.31 41.36 13.67 40.60 13.04 39.83 12.43 39.05 11.82 38.26 11.23 37.46 10.65 36.65 10.09 35.83 9.54 35.00 9.00 35 9 35.83 9.54 36.67 10.07 37.52 10.58 38.37 11.09 39.23 11.59 40.09 12.07 40.96 12.55 41.84 13.01 42.72 13.47 43.61 13.91 44.50 14.34 45.40 14.76 46.30 15.17 47.21 15.57 48.12 15.96 49.04 16.33 49.96 16.70 50.89 17.05 51.82 17.39 52.75 17.72 53.69 18.04 54.64 18.34 55.58 18.64 56.53 18.92 57.49 19.19 58.44 19.45 59.40 19.70 60.37 19.94 61.33 20.16 62.30 20.37 63.27 20.57 64.25 20.76 65.22 20.93 66.20 21.10 67.18 21.25 68.16 21.39 69.14 21.51 70.13 21.63 71.12 21.73 72.10 21.82 73.09 21.90 74.08 21.96 75.07 22.02 76.06 22.06 77.05 22.09 78.04 22.10 79.04 22.11 80.03 22.10 81.02 22.08 82.01 22.04 83.00 22.00 83 22 Z"></path><path fill="white" d="M25 5C  26.00 5.00 27.00 5.00 28.01 5.02 29.01 5.05 30.01 5.09 31.01 5.13 32.01 5.19 33.01 5.26 34.01 5.33 35.01 5.42 36.00 5.52 37.00 5.63 38.00 5.74 38.99 5.87 39.98 6.01 40.97 6.15 41.96 6.31 42.95 6.48 43.94 6.66 44.92 6.84 45.90 7.04 46.88 7.24 47.86 7.46 48.84 7.69 49.81 7.92 50.78 8.17 51.75 8.42 52.72 8.69 53.68 8.96 54.64 9.25 55.60 9.54 56.56 9.84 57.51 10.16 58.46 10.48 59.40 10.81 60.34 11.15 61.28 11.50 62.22 11.86 63.15 12.23 64.08 12.61 65.00 13.00 65 13 65.97 13.34 66.95 13.67 67.94 13.98 68.93 14.27 69.92 14.55 70.92 14.81 71.93 15.05 72.93 15.28 73.95 15.48 74.96 15.67 75.98 15.85 77.00 16.00 77 16 77.51 16.66 78.01 17.33 78.50 18.00 78.5 18 77.48 17.85 76.46 17.67 75.45 17.48 74.43 17.28 73.43 17.05 72.42 16.81 71.42 16.55 70.43 16.27 69.44 15.98 68.45 15.67 67.47 15.34 66.50 15.00 66.5 15 65.58 14.59 64.66 14.18 63.73 13.79 62.80 13.40 61.87 13.03 60.93 12.66 59.99 12.30 59.04 11.96 58.09 11.62 57.14 11.29 56.19 10.97 55.23 10.66 54.27 10.36 53.30 10.07 52.33 9.79 51.36 9.52 50.39 9.26 49.42 9.01 48.44 8.77 47.46 8.54 46.47 8.32 45.49 8.11 44.50 7.91 43.51 7.71 42.52 7.53 41.53 7.36 40.54 7.20 39.54 7.05 38.54 6.91 37.55 6.78 36.55 6.66 35.54 6.54 34.54 6.44 33.54 6.35 32.54 6.27 31.53 6.20 30.53 6.14 29.52 6.09 28.51 6.05 27.51 6.02 26.50 6.00 26.5 6 Z" opacity="0.5"></path><path fill="white" d="M14 1C  14.97 0.76 15.94 0.54 16.91 0.33 17.89 0.13 18.86 -0.06 19.84 -0.23 20.83 -0.39 21.81 -0.54 22.80 -0.68 23.78 -0.81 24.77 -0.92 25.76 -1.02 26.75 -1.11 27.75 -1.19 28.74 -1.25 29.74 -1.30 30.73 -1.34 31.73 -1.37 32.72 -1.38 33.72 -1.39 34.71 -1.38 35.71 -1.35 36.70 -1.32 37.70 -1.27 38.69 -1.21 39.68 -1.14 40.68 -1.06 41.67 -0.96 42.66 -0.85 43.64 -0.73 44.63 -0.60 45.62 -0.45 46.60 -0.29 47.58 -0.12 48.56 0.06 49.53 0.26 50.51 0.46 51.48 0.68 52.45 0.91 53.41 1.16 54.38 1.41 55.33 1.68 56.29 1.96 57.24 2.25 58.19 2.55 59.14 2.87 60.08 3.19 61.01 3.53 61.94 3.88 62.87 4.24 63.80 4.61 64.71 5.00 65.63 5.39 66.54 5.80 67.44 6.22 68.34 6.65 69.23 7.09 70.12 7.54 71.00 8.00 71 8 71.68 8.66 72.34 9.32 73.00 10.00 73 10 72.12 9.52 71.24 9.05 70.36 8.59 69.46 8.15 68.57 7.71 67.66 7.29 66.75 6.88 65.84 6.47 64.92 6.08 64.00 5.71 63.07 5.34 62.14 4.98 61.20 4.64 60.26 4.31 59.31 3.99 58.37 3.68 57.41 3.38 56.46 3.10 55.50 2.83 54.53 2.57 53.57 2.32 52.60 2.08 51.62 1.86 50.65 1.64 49.67 1.44 48.69 1.26 47.71 1.08 46.72 0.92 45.74 0.77 44.75 0.63 43.76 0.50 42.77 0.39 41.78 0.29 40.78 0.20 39.79 0.12 38.79 0.06 37.79 0.00 36.80 -0.04 35.80 -0.06 34.80 -0.08 33.80 -0.08 32.81 -0.07 31.81 -0.05 30.81 -0.01 29.81 0.04 28.82 0.10 27.82 0.17 26.83 0.25 25.84 0.35 24.84 0.46 23.85 0.58 22.86 0.72 21.88 0.86 20.89 1.02 19.91 1.19 18.93 1.38 17.95 1.57 16.97 1.78 16.00 2.00 16 2 Z" opacity="0.5"></path><path fill="white" d="M6 -4C  6.95 -4.31 7.90 -4.61 8.85 -4.90 9.81 -5.18 10.77 -5.45 11.73 -5.70 12.70 -5.94 13.67 -6.17 14.64 -6.39 15.61 -6.59 16.59 -6.79 17.57 -6.97 18.55 -7.14 19.54 -7.29 20.52 -7.44 21.51 -7.57 22.50 -7.69 23.49 -7.79 24.48 -7.89 25.47 -7.97 26.47 -8.04 27.46 -8.10 28.46 -8.15 29.45 -8.18 30.45 -8.20 31.44 -8.21 32.44 -8.20 33.44 -8.19 34.43 -8.16 35.43 -8.12 36.42 -8.06 37.42 -8.00 38.41 -7.92 39.40 -7.83 40.39 -7.72 41.38 -7.61 42.37 -7.48 43.36 -7.34 44.34 -7.19 45.32 -7.02 46.30 -6.84 47.28 -6.66 48.26 -6.45 49.23 -6.24 50.20 -6.02 51.17 -5.78 52.13 -5.53 53.09 -5.27 54.05 -4.99 55.01 -4.71 55.96 -4.41 56.91 -4.10 57.85 -3.78 58.79 -3.45 59.72 -3.10 60.65 -2.75 61.58 -2.38 62.50 -2.00 62.5 -2 63.01 -1.34 63.51 -0.67 64.00 -0.00 64 0 63.08 -0.40 62.15 -0.79 61.22 -1.17 60.28 -1.54 59.34 -1.89 58.39 -2.24 57.44 -2.57 56.49 -2.89 55.53 -3.20 54.57 -3.49 53.60 -3.77 52.63 -4.04 51.66 -4.30 50.69 -4.55 49.71 -4.78 48.73 -5.01 47.74 -5.22 46.76 -5.41 45.77 -5.60 44.77 -5.77 43.78 -5.93 42.79 -6.08 41.79 -6.21 40.79 -6.33 39.79 -6.44 38.79 -6.54 37.78 -6.63 36.78 -6.70 35.78 -6.76 34.77 -6.80 33.77 -6.84 32.76 -6.86 31.75 -6.87 30.75 -6.86 29.74 -6.85 28.74 -6.82 27.73 -6.77 26.72 -6.72 25.72 -6.65 24.72 -6.57 23.72 -6.48 22.72 -6.38 21.72 -6.26 20.72 -6.13 19.72 -5.98 18.73 -5.83 17.74 -5.66 16.75 -5.48 15.76 -5.29 14.77 -5.08 13.79 -4.87 12.81 -4.64 11.83 -4.39 10.86 -4.14 9.89 -3.87 8.92 -3.59 7.96 -3.30 7.00 -3.00 7 -3 Z" opacity="0.5"></path></g><g transform="translate(270,50)"><path fill="rgba(0,0,0,0.15)" d="M2 25C  1.04 24.96 0.33 25.75 -0.51 26.16 -0.91 27.05 -0.88 28.02 -1 28 -0.40 28.95 0.01 29.99 0 30 0.56 30.85 1.36 31.48 2.22 32.04 2.90 32.79 3.87 33.18 4.64 33.82 5.32 34.59 6.22 35.07 7.21 35.36 7.94 36.10 8 36 8.82 36.61 9.80 36.89 10.83 37.06 11.69 37.60 12.66 37.87 13.51 38.45 14.45 38.82 15.48 38.91 16.45 39.15 17.41 39.45 18.39 39.68 19.38 39.86 20.32 40.23 21.33 40.31 22.31 40.51 23.28 40.82 24.26 41.07 25.27 41.15 26.30 40.89 27.29 41.15 28.30 41.08 29.30 41.00 30.30 41.09 31.31 41.15 32.32 41.41 33.33 41.37 34.31 40.99 35.32 41.03 36.33 41.02 37.30 40.64 38.34 40.78 39.29 40.40 40.27 40.13 41.23 39.87 42.29 39.99 43.20 39.45 44.13 39.06 45.16 39.01 46.18 38.91 46.99 38.14 47.99 37.98 48 38 48.96 37.79 49.78 37.30 50.71 36.94 50.94 35.89 51.12 34.96 51.16 33.97 51 34 50.01 33.74 49.41 32.84 49.12 31.88 49.00 30.96 48.78 29.95 49 30 Z"></path><circle cx="15" cy="12" r="4.8" fill="#E25C0F" opacity="0.9" stroke-width="0.5" stroke="orange"></circle><circle cx="13" cy="-3" r="4.8" fill="#F4671B" opacity="0.9" stroke-width="0.5" stroke="orange"></circle><circle cx="39" cy="13" r="4.5" fill="#F4671B" opacity="0.9" stroke-width="0.5" stroke="orange"></circle><circle cx="20" cy="0" r="5.1" fill="#EA772C" opacity="0.9" stroke-width="0.5" stroke="orange"></circle><circle cx="45" cy="10" r="4.7" fill="orange" opacity="0.9" stroke-width="0.5" stroke="orange"></circle><circle cx="30" cy="-2" r="5" fill="#F37619" opacity="0.9" stroke-width="0.5" stroke="orange"></circle><circle cx="40" cy="2" r="5" fill="#FA8E3E" opacity="0.9" stroke-width="0.5" stroke="orange"></circle><circle cx="37" cy="7" r="4.6" fill="#F38528" opacity="0.9" stroke-width="0.5" stroke="orange"></circle><circle cx="33" cy="3" r="5" fill="#F4671B" opacity="0.9" stroke-width="0.5" stroke="orange"></circle><circle cx="17" cy="5" r="5" fill="#FA8E3E" opacity="0.9" stroke-width="0.5" stroke="orange"></circle><circle cx="23" cy="10" r="4.5" fill="#F5770C" opacity="0.9" stroke-width="0.5" stroke="orange"></circle><circle cx="10" cy="5" r="4.6" fill="orange" opacity="0.9" stroke-width="0.5" stroke="orange"></circle><circle cx="5" cy="2" r="4.5" fill="#F5770C" opacity="0.9" stroke-width="0.5" stroke="orange"></circle><circle cx="25" cy="5" r="4.7" fill="orange" opacity="0.9" stroke-width="0.5" stroke="orange"></circle><circle cx="30" cy="12" r="4.5" fill="#EA772C" opacity="0.9" stroke-width="0.5" stroke="orange"></circle><path fill="#121" d="M0 0C  0.44 0.91 0.34 1.96 1.03 2.76 1.37 3.69 2.01 4.46 2.57 5.28 3.54 5.71 4.25 6.36 4.99 7.01 5 7 5.87 7.48 6.65 8.12 7.65 8.37 8.54 8.82 9.41 9.28 10.19 9.96 11.19 10.16 12.06 10.65 13.02 10.93 13.94 11.31 14.87 11.65 15.77 12.07 16.78 12.19 17.62 12.81 18.65 12.85 19.57 13.25 20.59 13.28 21.54 13.54 22.54 13.63 23.50 13.87 24.45 14.22 25.44 14.33 26.42 14.50 27.41 14.65 28.42 14.40 29.39 14.91 30.40 14.69 31.39 14.52 32.39 14.87 33.37 14.46 34.38 14.72 35.35 14.42 36.36 14.59 37.35 14.48 38.34 14.30 39.29 13.93 40.30 13.98 41.30 13.93 42.21 13.40 43.18 13.17 44.16 13.04 45.15 12.89 46.05 12.43 46.99 12.11 47.97 11.90 48 12 48.67 11.10 49.34 10.18 49.62 9.06 49.87 7.95 50 8 49.93 9.00 49.81 10.00 49.91 11.00 49.79 12.00 50.20 13.00 50.20 14.00 49.85 15.00 50.14 16.00 50.03 17.00 50.02 18.00 49.80 19.00 49.99 20.00 50.23 21.00 49.81 22.00 50.03 23.00 50.20 24.00 49.88 25.00 49.97 26.00 49.76 27.00 49.99 28.00 50.15 29.00 49.99 30.00 49.90 31.00 49.98 32.00 50.04 33.00 50 33 49.74 34.10 49.30 35.14 48.69 36.10 48.02 37.01 48 37 47.10 37.45 46.10 37.58 45.19 38.01 44.19 38.13 43.18 38.20 42.29 38.75 41.25 38.68 40.30 38.98 39.35 39.35 38.30 39.07 37.36 39.51 36.33 39.28 35.35 39.37 34.38 39.71 33.37 39.54 32.39 39.93 31.39 39.80 30.39 39.82 29.40 39.81 28.41 39.57 27.42 39.48 26.41 39.64 25.45 39.25 24.47 39.04 23.48 38.95 22.52 38.69 21.49 38.81 20.52 38.55 19.62 38.04 18.57 38.13 17.63 37.78 16.63 37.65 15.68 37.34 14.83 36.74 13.90 36.39 12.89 36.25 12.06 35.64 11.03 35.52 10.20 34.93 9.22 34.67 8.38 34.12 7.67 33.33 6.63 33.16 5.90 32.43 4.90 32.16 5 32 4.03 31.69 3.26 31.03 2.51 30.36 1.85 29.60 1.27 28.77 1.07 27.73 0.59 26.87 0.31 25.93 -0.20 25.05 0 25 -0.17 24.00 0.08 23.00 0.19 22.00 -0.08 21.00 0.19 20.00 -0.23 19.00 -0.06 18.00 0.06 17.00 0.02 16.00 -0.12 15.00 0.01 14.00 -0.16 13.00 0.04 12.00 0.14 11.00 0.08 10.00 -0.25 9.00 0.06 8.00 -0.11 7.00 -0.14 6.00 0.20 5.00 -0.16 4.00 -0.03 3.00 0.19 2.00 -0.13 1.00 0.01 0.00 0 0 Z"></path></g><g transform="translate(220,80)"><path fill="rgba(0,0,0,0.15)" d="M9 5C  8.05 5.26 7.13 5.61 6.16 5.85 5.31 6.37 4.45 6.89 3.79 7.65 3.14 8.39 2.52 9.16 2.02 10.01 2 10 2.62 10.94 2.91 12.03 3 12 3.75 12.71 4.47 13.46 5.47 13.84 6.32 14.42 7.25 14.87 8.04 15.57 9.00 15.96 9.96 16.37 10.97 16.61 12.00 16.77 12.96 17.17 13 17 13.75 17.66 14.64 18.11 15.45 18.69 16.37 19.08 17.30 19.43 18.23 19.78 19.15 20.15 20.07 20.54 21.09 20.53 22.07 20.66 23.02 20.97 24.01 21.08 25.01 20.86 26.00 21.19 26 21 26.76 21.63 27.76 21.83 28.51 22.48 29.52 22.62 30.43 22.93 31.24 23.56 32.22 23.69 33.22 23.70 34.17 23.84 35.10 24.24 36.10 23.92 37.06 24.11 38.03 24.13 38.99 23.88 39 24 39.99 24.32 40.81 25.01 41.77 25.41 42.80 25.59 43.84 25.71 44.86 25.86 45.86 26.06 46.85 26.41 47.90 26.30 48.93 26.48 49.95 26.16 51.00 26.33 51.97 25.81 52 26 52.87 26.46 53.74 26.93 54.59 27.43 55.55 27.71 56.52 27.96 57.29 28.64 58.27 28.86 59.19 29.21 60.11 29.56 61.00 29.99 61 30 62.03 29.78 63.07 29.54 64.00 29.01 64.96 28.54 66.07 28.54 66.94 27.84 67 28 66.22 27.41 65.45 26.81 64.62 26.30 63.85 25.71 62.99 25.25 62.16 24.74 61.36 24.17 60.46 23.78 59.57 23.38 58.78 22.79 57.83 22.53 57.04 21.91 57 22 56.33 21.28 55.77 20.46 54.97 19.86 54.26 19.19 53.58 18.46 52.78 17.88 51.86 17.48 51.02 16.96 51 17 Z"></path><path fill="#eee" d="M5 -3C  4.94 -2.00 4.32 -1.15 4.43 -0.15 4.49 0.83 4.83 1.77 4.53 2.79 4.70 3.78 5.74 4.43 5.98 5.37 6.67 6.06 6.96 7.03 7 7 7.57 7.88 8.07 8.74 8.37 9.71 9.17 10.37 9.70 11.23 10.41 11.95 11.07 12.77 12.21 12.87 12.87 13.84 13.94 13.99 15.01 13.96 15 14 15.53 14.87 16.41 15.42 17.26 15.97 18.21 16.33 19.23 16.45 20.14 16.77 20.97 17.57 22.07 16.92 23.03 16.98 24.03 17.28 25.00 17.02 25 17 25.75 17.64 26.81 17.80 27.31 18.88 28.24 19.27 29.26 19.41 30.16 19.88 31.26 19.45 32.18 19.93 33.17 19.60 34.16 19.80 35.10 19.45 36.06 19.28 37.03 19.09 37 19 38.00 19.15 39.03 19.10 39.96 19.80 41.00 19.66 42.00 19.12 43.02 19.39 44.01 19.18 44.94 18.74 45 19 46.04 18.79 46.81 18.11 47.18 17.03 48.25 16.67 48.61 15.67 48.69 14.57 49.71 13.99 49.60 12.88 49.66 11.89 49.79 10.94 49.92 9.98 50.11 8.99 50 9 Z"></path><path fill="#FFE4D3" d="M0 0C  -0.10 -1.00 -0.10 -2.00 -0.00 -3.00 0 -3 0.42 -3.92 0.96 -4.79 1.60 -5.58 2.33 -6.28 3.15 -6.88 4.04 -7.37 4.98 -7.75 5.97 -8.00 6.98 -8.13 7.99 -8.13 9.00 -8.00 9 -8 8.95 -9.00 9.00 -10.00 9 -10 9.66 -10.79 10.40 -11.51 11.20 -12.15 12.07 -12.70 12.99 -13.16 13.96 -13.53 14.95 -13.79 15.97 -13.95 17.00 -14.00 17 -14 17.96 -13.90 18.91 -13.74 19.84 -13.52 20.76 -13.24 21.67 -12.91 22.54 -12.51 23.39 -12.06 24.21 -11.56 25.00 -11.00 25 -11 25.99 -10.97 26.98 -10.87 27.96 -10.70 28.93 -10.48 29.88 -10.18 30.81 -9.83 31.71 -9.42 32.58 -8.94 33.42 -8.41 34.22 -7.83 34.99 -7.19 35.71 -6.51 36.38 -5.77 37.00 -5.00 37 -5 37.97 -4.75 38.93 -4.43 39.86 -4.05 40.76 -3.61 41.64 -3.11 42.47 -2.55 43.27 -1.94 44.03 -1.28 44.73 -0.56 45.39 0.20 46.00 1.00 46 1 46.88 1.44 47.73 1.94 48.55 2.50 49.33 3.10 50.07 3.76 50.76 4.46 51.41 5.21 52.00 6.00 52 6 52.95 6.43 53.86 6.93 54.74 7.50 55.57 8.12 56.36 8.79 57.10 9.53 57.79 10.31 58.43 11.13 59.00 12.00 59 12 58.23 12.56 57.50 13.16 56.81 13.81 56.16 14.50 55.56 15.23 55.00 16.00 55 16 53.97 16.12 52.93 16.17 51.89 16.14 50.85 16.04 49.82 15.88 48.81 15.64 47.82 15.33 46.85 14.95 45.91 14.51 45.00 14.00 45 14 43.97 14.12 42.93 14.17 41.89 14.14 40.85 14.04 39.82 13.88 38.81 13.64 37.82 13.33 36.85 12.95 35.91 12.51 35.00 12.00 35 12 34.03 12.09 33.06 12.11 32.08 12.08 31.11 11.98 30.15 11.81 29.20 11.59 28.27 11.30 27.36 10.95 26.48 10.55 25.62 10.09 24.79 9.57 24.00 9.00 24 9 23.00 9.08 21.99 9.09 20.99 9.04 20.00 8.92 19.01 8.73 18.04 8.48 17.08 8.16 16.15 7.78 15.25 7.34 14.38 6.84 13.55 6.28 12.75 5.66 12.00 5.00 12 5 11.00 5.02 10.00 4.97 9.00 4.86 8.02 4.67 7.05 4.43 6.09 4.12 5.16 3.74 4.26 3.31 3.39 2.81 2.55 2.26 1.76 1.66 1.00 1.00 1 1 Z"></path><g transform="translate(59,12) rotate(20)"><path fill="#FA5220" d="M8 4C  9.03 4.02 10.05 4.06 11.07 4.13 12.10 4.23 13.11 4.35 14.13 4.50 15.14 4.68 16.15 4.88 17.15 5.11 18.14 5.36 19.13 5.64 20.11 5.94 21.08 6.27 22.05 6.62 23.00 7.00 23 7 23.85 7.56 24.66 8.18 25.43 8.85 26.15 9.57 26.82 10.34 27.44 11.15 28.00 12.00 28 12 27.01 12.15 26.01 12.25 25.00 12.30 24.00 12.30 22.99 12.25 21.99 12.15 21.00 12.00 21 12 Z"></path><path fill="#E73E0C" d="M0 0C  0.92 0.38 1.83 0.78 2.73 1.20 3.63 1.63 4.52 2.07 5.40 2.53 6.28 3.01 7.14 3.50 8.00 4.00 8 4 8.93 4.39 9.86 4.79 10.78 5.21 11.69 5.64 12.60 6.09 13.50 6.55 14.39 7.03 15.27 7.53 16.14 8.04 17.01 8.56 17.86 9.10 18.71 9.65 19.55 10.22 20.37 10.80 21.19 11.39 22.00 12.00 22 12 20.98 11.89 19.96 11.76 18.94 11.62 17.93 11.47 16.91 11.31 15.90 11.13 14.89 10.94 13.89 10.74 12.88 10.52 11.88 10.29 10.89 10.05 9.89 9.79 8.90 9.53 7.91 9.25 6.93 8.95 5.95 8.65 4.97 8.33 4.00 8.00 4 8 2.98 7.84 1.96 7.66 0.95 7.44 -0.05 7.21 -1.05 6.94 -2.04 6.65 -3.02 6.34 -4.00 6.00 -4 6 -4.31 5.02 -4.42 4.00 -4.31 2.98 -4.00 2.00 -4 2 -3.40 1.30 -2.69 0.72 -1.88 0.28 -1.00 0.00 -1 0 Z"></path><path fill="#FA5220" d="M21 12C  21.82 12.60 22.61 13.24 23.36 13.92 24.08 14.64 24.76 15.39 25.40 16.18 26.00 17.00 26 17 25.01 17.15 24.01 17.25 23.00 17.30 22.00 17.30 20.99 17.25 19.99 17.15 19.00 17.00 19 17 18.03 16.67 17.07 16.31 16.12 15.93 15.18 15.52 14.26 15.09 13.34 14.64 12.43 14.16 11.54 13.66 10.66 13.14 9.79 12.59 8.94 12.03 8.10 11.44 7.28 10.83 6.47 10.20 5.69 9.55 4.91 8.88 4.16 8.18 3.42 7.47 2.70 6.75 2.00 6.00 2 6 Z"></path></g><path d="M11 4C  10.77 3.02 10.98 1.99 10.71 0.99 10.78 -0.03 11 0 11.53 -0.89 12.03 -1.79 12.54 -2.70 13.51 -3.22 14.28 -3.88 14.98 -4.69 16.11 -4.79 16 -5 17.04 -4.94 18.05 -5.17 19.08 -5.06 20.11 -5.07 21.13 -5.01 22.13 -4.74 23.16 -4.68 24.19 -4.59 25.15 -4.19 26.13 -3.86 27.08 -3.48 27.91 -2.82 28 -3 28.02 -2.00 28 -2 27.18 -2.66 26.04 -2.64 25.16 -3.22 24.10 -3.27 23.22 -3.95 22.20 -4.17 21.14 -4.11 20.12 -4.27 19.07 -4.03 18.05 -3.95 17.04 -3.94 15.99 -4.11 16 -4 15.20 -3.49 14.52 -2.82 13.91 -2.08 13.20 -1.47 12.75 -0.60 11.87 -0.11 12 0 12.11 1.01 11.85 2.00 11.90 3.01 12 3 Z" fill="#E5DAD2" transform="scale(1)"></path><path d="M26 9C  25.64 8.04 26.03 6.99 25.99 6.00 26.08 5.01 26 5 26.36 4.03 27.03 3.22 27.55 2.30 28.53 1.80 29.34 1.19 29.96 0.29 31.11 0.21 31 0 32.01 -0.26 33.05 -0.15 34.08 0.01 35.12 -0.38 36.14 -0.17 37.15 0.13 38.17 0.24 39.18 0.45 40.17 0.75 41.13 1.12 42.08 1.54 42.93 2.14 43 2 43.19 3.00 43 3 42.02 2.67 41.05 2.33 40.20 1.68 39.11 1.69 38.22 1.06 37.18 0.92 36.11 1.13 35.12 0.68 34.07 0.98 33.05 0.84 32.04 1.12 30.97 0.76 31 1 30.11 1.40 29.44 2.08 28.94 2.94 28.27 3.60 27.66 4.32 26.90 4.92 27 5 27.07 6.01 26.93 7.00 26.98 8.00 27 8 Z" fill="#E5DAD2" transform="scale(0.9)"></path><path d="M48 15C  47.95 13.99 47.70 13.00 48.06 12.01 48.05 11.01 48 11 48.26 9.97 49.14 9.28 49.61 8.35 50.39 7.66 51.37 7.22 52.04 6.41 53.08 6.15 53 6 54.02 5.87 55.06 5.99 56.08 5.66 57.12 5.61 58.15 5.76 59.17 5.99 60.12 6.50 61.22 6.28 62.09 7.02 63.16 7.04 64.06 7.58 64.90 8.20 65 8 64.96 9.00 65 9 64.12 8.46 63.10 8.20 62.15 7.82 61.10 7.74 60.22 7.05 59.19 6.90 58.15 6.85 57.12 6.67 56.08 6.84 55.05 6.89 54.02 6.87 53.02 7.13 53 7 52.38 7.75 51.44 8.08 50.95 8.96 50.14 9.48 49.56 10.24 48.89 10.92 49 11 49.20 12.01 49.00 13.00 48.91 14.00 49 14 Z" fill="#E5DAD2" transform="scale(0.7)"></path><path d="M80 24C  79.76 23.02 80.00 21.99 80.09 21.01 80.10 20.02 80 20 80.29 18.99 81.22 18.34 81.60 17.35 82.40 16.67 83.18 15.99 84.21 15.66 85.00 15.00 85 15 86.01 14.79 87.06 14.91 88.08 14.90 89.11 14.74 90.12 15.15 91.16 15.03 92.14 15.39 93.17 15.49 94.18 15.73 95.12 16.16 96.05 16.61 96.94 17.12 97 17 97.17 18.00 97 18 96.01 17.68 95.19 16.99 94.16 16.78 93.13 16.63 92.21 16.10 91.19 15.87 90.15 15.82 89.12 15.67 88.09 15.64 87.05 15.79 86.03 15.99 85.00 15.99 85 16 84.11 16.39 83.60 17.27 82.84 17.84 82.24 18.58 81.58 19.25 81.05 20.04 81 20 80.79 20.99 80.93 22.00 80.81 23.01 81 23 Z" fill="#E5DAD2" transform="scale(0.55)"></path><path d="M24 -4C  23.20 -4.52 22.66 -5.33 21.85 -5.90 22 -6 21.78 -6.99 21.81 -8.01 21.77 -9.05 22 -9 22.47 -9.83 23.47 -10.10 24.14 -10.76 25.08 -10.91 26.01 -10.90 26 -11 26.22 -10.00 26 -10 24.93 -9.97 23.86 -9.74 23.05 -8.92 23 -9 22.91 -7.98 22.85 -6.99 22.93 -5.99 23 -6 24.05 -5.05 24 -5 Z" fill="#E5DAD2" transform="scale(1)"></path><path d="M40 1.5C  39.13 1.08 38.48 0.34 38.08 -0.55 38 -0.5 37.90 -1.52 37.65 -2.51 38.16 -3.47 38 -3.5 38.54 -4.26 39.48 -4.59 40.28 -4.97 41.06 -5.48 42.01 -5.45 42 -5.5 41.82 -4.50 42 -4.5 40.96 -4.16 39.89 -4.14 39.09 -3.35 39 -3.5 38.88 -2.49 38.80 -1.49 38.79 -0.46 39 -0.5 40.02 0.48 40 0.5 Z" fill="#E5DAD2" transform="scale(0.9)"></path><path d="M65 9C  64.21 8.46 63.54 7.78 63.19 6.87 63 7 62.94 5.98 63.03 4.99 63.04 4.01 63 4 63.53 3.23 64.34 2.73 65.17 2.31 66.11 2.21 66.99 1.89 67 2 66.77 3.00 67 3 65.95 3.21 64.84 3.22 64.09 4.15 64 4 64.01 5.04 63.62 6.01 64.03 6.99 64 7 64.86 8.14 65 8 Z" fill="#E5DAD2" transform="scale(0.7)"></path><path d="M102 18C  101.18 17.51 100.61 16.72 100.20 15.86 100 16 99.84 15.00 99.80 13.99 99.85 12.97 100 13 100.48 12.19 101.36 11.75 102.29 11.55 103.08 11.10 103.99 10.92 104 11 104.06 12.00 104 12 102.93 12.08 101.94 12.51 100.92 12.86 101 13 100.96 14.03 101.03 15.01 101.23 15.95 101 16 101.99 17.01 102 17 Z" fill="#E5DAD2" transform="scale(0.5)"></path><path fill="#E5DAD2" d="M10 -7C  10.84 -8.16 11 -8 12.00 -7.86 13.01 -7.77 13.96 -7.42 14.91 -7.04 15.92 -6.96 16.92 -6.82 17.90 -6.56 18.85 -6.23 19.73 -5.65 20.79 -5.69 21.77 -5.45 22.61 -4.77 23.56 -4.43 24.54 -4.22 25.59 -4.19 26.46 -3.61 27.34 -3.11 28.29 -2.77 29.32 -2.67 30.20 -2.14 31.17 -1.88 32.03 -1.32 32.99 -1.00 33.91 -0.61 34.83 -0.21 35.76 0.17 36.70 0.53 37.65 0.89 38.46 1.51 39.54 1.60 40.38 2.16 41.27 2.63 42.10 3.22 43.07 3.54 43.97 3.98 44.84 4.48 45.57 5.24 46.49 5.67 47.31 6.24 48.23 6.67 49.14 7.11 49.91 7.77 50.90 8.09 51.59 8.88 52.52 9.28 53.24 10.02 54.06 10.60 55.12 10.83 55 11 54.17 12.17 54 12 53.18 11.42 52.24 10.99 51.66 10.07 50.79 9.55 49.92 9.05 48.99 8.62 48.30 7.83 47.25 7.59 46.45 6.98 45.65 6.36 44.84 5.74 43.86 5.43 43.16 4.63 42.27 4.14 41.22 3.95 40.51 3.15 39.48 2.95 38.67 2.33 37.67 2.06 36.73 1.70 35.84 1.23 34.94 0.76 34.05 0.30 33.20 -0.29 32.17 -0.44 31.27 -0.90 30.45 -1.56 29.44 -1.76 28.46 -2.01 27.51 -2.34 26.63 -2.89 25.69 -3.24 24.71 -3.50 23.68 -3.59 22.80 -4.15 21.73 -4.12 20.76 -4.39 19.91 -5.08 18.82 -4.90 17.84 -5.14 16.94 -5.69 15.97 -5.97 14.94 -6.01 13.93 -6.11 13.01 -6.61 11.95 -6.48 11.01 -6.94 9.99 -6.94 10 -7 Z"></path></g><g transform="translate(185,80)"><path fill="rgba(0,0,0,0.15)" d="M-4 17C  -4.93 18.07 -5 18 -5.05 19.00 -5.02 20.01 -5.00 21.00 -4.98 22.00 -5.15 23.01 -4.95 24.00 -4.74 24.98 -4.87 26.00 -4.49 26.96 -4.39 27.96 -4.15 28.93 -4.01 29.93 -3.64 30.87 -3.05 31.73 -2.79 32.69 -2.40 33.62 -2.05 34.56 -1.72 35.52 -0.97 36.25 -0.67 37.24 -0.16 38.10 0 38 0.67 38.75 1.60 39.20 2.29 39.94 3.04 40.59 3.75 41.31 4.63 41.80 5.40 42.45 6.22 43.01 7.09 43.52 7.76 44.30 8.68 44.74 9.64 45.09 10.34 45.87 11.29 46.21 12.12 46.78 13.03 47.21 13.92 47.66 14.75 48.23 15.72 48.54 16.57 49.09 17.56 49.31 18.55 49.54 19.36 50.21 20.40 50.29 21.33 50.66 22.28 50.94 23.23 51.26 24.15 51.68 25.13 51.89 26.04 52.34 27.05 52.46 28.01 52.75 29.00 52.91 30.01 52.95 30 53 31.02 53.05 31.99 52.65 32.97 52.42 33.90 52.02 34.85 51.63 35.56 50.86 36.26 50.13 37.09 49.55 37.60 48.66 38.36 47.95 38.69 46.97 39.05 46.02 39 46 38.92 45.00 39 45 38.55 44.07 38.07 43.15 37.46 42.30 36.64 41.63 35.89 40.90 34.97 40.39 34.05 39.91 34 40 33.00 40.20 32.00 39.95 31.00 39.85 30.00 39.83 29.00 40.15 28.00 40.02 27.00 40.18 26.00 40.04 25.00 40.10 24.00 39.86 24 40 Z"></path><path fill="#eee" d="M0 20C  -0.06 21.13 -1.02 21.92 -0.98 23.09 -1.63 23.99 -2.12 24.95 -2 25 -2.34 25.91 -2.80 26.82 -2.24 27.88 -2.36 28.83 -2.65 29.81 -2.13 30.72 -2.24 31.76 -1.64 32.59 -0.84 33.27 -0.40 34.10 -0.22 35.18 0 35 0.67 35.75 1.21 36.56 1.66 37.43 2.32 38.17 3.06 38.82 3.78 39.47 4.55 40.08 5.35 40.63 5.86 41.57 6.81 41.93 7.68 42.37 8.48 42.94 9.23 43.65 10.25 43.79 11.14 44.22 12.14 44.33 12.97 45.02 14.05 44.72 15.06 44.61 15 45 15.52 45.96 16.69 46.14 17.26 47.09 18.45 47.15 19.18 47.88 19.98 48.56 21.10 48.56 22.02 48.99 22.80 49.85 23.94 49.62 24.91 49.91 25.87 50.36 26.95 49.98 27.95 50.11 28.96 50.24 29.99 50.53 31.00 50.22 32.02 50.17 32 50 32.84 49.37 33.96 49.24 34.54 48.27 35.06 47.33 36.19 46.97 36.50 45.90 36.97 44.98 37 45 37.48 44.07 37.51 43.03 37.11 41.99 37.34 40.98 37.17 39.96 37 40 Z"></path><path fill="#E92F1C" d="M0 4C  0.79 4.60 1.59 5.19 2.39 5.77 3.19 6.35 4.01 6.92 4.83 7.48 5.65 8.03 6.48 8.57 7.31 9.11 8.15 9.63 9.00 10.15 9.85 10.66 10.70 11.16 11.56 11.66 12.43 12.14 13.30 12.62 14.17 13.08 15.05 13.54 15.94 13.99 16.82 14.43 17.72 14.87 18.61 15.29 19.51 15.70 20.42 16.11 21.33 16.50 22.24 16.89 23.16 17.27 24.08 17.64 25.00 18.00 25 18 24.35 18.76 23.69 19.50 23.02 20.25 22.34 20.98 21.66 21.71 20.97 22.43 20.27 23.15 19.57 23.86 18.86 24.56 18.14 25.25 17.41 25.94 16.68 26.62 15.94 27.29 15.20 27.96 14.44 28.61 13.68 29.26 12.92 29.91 12.15 30.54 11.37 31.17 10.59 31.79 9.80 32.40 9.00 33.00 9 33 8.28 32.30 7.58 31.59 6.90 30.85 6.24 30.09 5.61 29.32 4.99 28.53 4.40 27.72 3.83 26.89 3.29 26.05 2.77 25.19 2.28 24.32 1.81 23.43 1.36 22.53 0.95 21.62 0.55 20.70 0.19 19.77 -0.15 18.82 -0.46 17.87 -0.74 16.91 -1.00 15.94 -1.23 14.96 -1.43 13.98 -1.60 12.99 -1.74 12.00 -1.86 11.01 -1.94 10.01 -2.00 9.01 -2.03 8.00 -2.03 7.00 -2.00 6.00 -2 6 -1.73 5.00 -1.00 4.27 0.00 4.00 0 4 Z"></path><path fill="#ece7cf" d="M25 17C  25.86 17.55 26.73 18.07 27.61 18.58 28.50 19.08 29.41 19.55 30.32 20.01 31.24 20.44 32.17 20.86 33.10 21.26 34.05 21.64 35.00 22.00 35 22 35.90 22.52 36.78 23.09 37.62 23.70 38.43 24.36 39.20 25.06 39.94 25.80 40.64 26.57 41.30 27.38 41.91 28.22 42.48 29.10 43.00 30.00 43 30 43.31 30.97 43.52 31.97 43.62 32.99 43.62 34.01 43.52 35.03 43.31 36.03 43.00 37.00 43 37 42.40 37.82 41.76 38.61 41.08 39.36 40.36 40.08 39.61 40.76 38.82 41.40 38.00 42.00 38 42 37.00 42.02 36.00 42.03 35.00 42.03 34.00 42.02 33.00 42.00 33 42 32.03 41.73 31.07 41.46 30.11 41.17 29.15 40.87 28.19 40.57 27.24 40.25 26.29 39.93 25.35 39.60 24.41 39.25 23.47 38.90 22.53 38.54 21.60 38.16 20.67 37.78 19.75 37.39 18.83 36.99 17.91 36.58 17.00 36.17 16.10 35.74 15.19 35.30 14.29 34.86 13.40 34.40 12.51 33.94 11.63 33.47 10.75 32.99 9.87 32.50 9.00 32.00 9 32 Z"></path><path fill="#121" d="M25 17C  26.03 17.15 26.97 17.56 27.90 18.00 28.84 18.40 29.70 18.95 30.52 19.61 31.57 19.77 32.48 20.25 33.31 20.85 34.11 21.51 35.06 21.91 35 22 34.01 22.21 33.02 22.36 32.00 22.40 31.11 23.01 30.04 22.91 29.11 23.34 28.19 23.76 27.27 24.18 26.43 24.75 25.58 25.28 24.58 25.57 23.94 26.44 23.08 26.94 22.21 27.46 21.43 28.09 20.85 28.95 19.92 29.43 19.37 30.29 18.53 30.90 18.17 31.90 17.25 32.47 16.83 33.41 16.47 34.37 16.02 35.27 15.31 36.03 14.93 36.97 15 37 14.50 37.91 14.22 38.91 14.46 40.00 14.07 40.97 13.90 41.99 14.16 43.02 14.47 44.01 14.61 45.01 14.67 46.03 15.19 46.94 15 47 14.12 46.43 13.02 46.47 12.10 46.02 11.12 45.70 10.23 45.19 9.40 44.56 8.57 43.95 7.53 43.74 6.83 42.90 5.83 42.59 4.89 42.16 5 42 4.69 41.03 4.53 40.02 4.15 39.06 4.36 38.00 4.35 36.99 4.30 35.99 4.39 34.98 4.33 33.94 4.49 32.92 5.03 32.01 5 32 5.29 31.03 5.95 30.22 6.52 29.39 6.75 28.36 7.33 27.53 8.00 26.77 8.57 25.94 9.42 25.33 9.88 24.40 10.57 23.65 11.35 23.01 12.32 22.59 12.88 21.68 13.74 21.14 14.64 20.66 15.51 20.17 16.34 19.58 17.33 19.29 18.16 18.68 19.22 18.63 20.01 17.86 21.01 17.64 22.06 17.67 23.01 17.33 23.98 16.99 24.97 16.78 25 17 Z"></path></g><g transform="translate(135,105)"><path fill="rgba(0,0,0,0.15)" d="M-2 18C  -2.83 18.54 -3.53 19.24 -4.42 19.71 -5.00 20.55 -5.76 21.19 -6.50 21.83 -7.27 22.45 -8.26 22.80 -8.82 23.67 -9.64 24.22 -10.49 24.73 -11.29 25.32 -11.91 26.11 -12 26 -11.68 27.09 -10.96 27.98 -11 28 -10.29 28.71 -9.54 29.38 -8.75 30.01 -7.99 30.65 -7.23 31.31 -6.56 32.09 -5.56 32.42 -4.67 32.89 -3.88 33.52 -3.01 34.03 -3 34 -2.34 34.68 -1.75 35.45 -0.71 35.58 0.16 35.83 1.04 36.23 2.01 36.15 2 36 2.78 36.61 3.70 37.01 4.42 37.71 5.41 37.99 6.19 38.60 7.12 38.95 7.96 39.48 8.88 39.84 9.75 40.32 10.69 40.62 11.50 41.24 12.44 41.56 13.40 41.80 14.30 42.23 15.33 42.26 16.24 42.67 17.19 42.93 18.16 43.10 19.10 43.42 20.04 43.74 21.05 43.73 21.98 44.14 22 44 22.88 43.74 23.75 43.44 24.66 43.79 25.60 43.73 26.36 44.33 27.00 45.00 27 45 27.97 45.39 28.90 45.90 29.87 46.28 30.91 46.49 31.93 46.73 32.89 47.17 33.94 47.33 34.97 47.49 36.01 47.62 37.00 47.99 37 48 37.93 47.61 38.91 47.45 39.94 47.45 40.85 47.02 41.85 46.90 42.76 46.47 43.72 46.20 44.67 45.91 45.60 45.54 46.46 45.01 47.40 44.69 48.27 44.20 49.14 43.73 50.15 43.53 51.07 43.13 51 43 50.30 42.29 49.57 41.61 48.92 40.88 48.26 40.13 47.56 39.43 46.72 38.89 46.03 38.17 45.34 37.43 44.49 36.91 43.51 36.60 42.82 35.82 41.88 35.46 40.99 35.02 41 35 Z"></path><path fill="#eee" d="M0 15C  -0.10 16.11 -0.78 17.01 -1.14 18.02 -1.89 18.88 -2.04 19.98 -2 20 -2.22 20.95 -2.42 21.90 -2.28 22.88 -2.27 23.83 -2.22 24.77 -1.97 25.69 -1.97 26.68 -1.46 27.51 -0.81 28.26 -0.52 29.19 -0.17 30.14 0 30 0.37 30.92 0.82 31.82 1.46 32.58 2.19 33.27 2.77 34.09 3.89 34.37 4.47 35.17 5.02 36.04 5.71 36.78 6.87 36.84 7.79 37.20 8.37 38.16 9.51 38.07 10.36 38.55 11.13 39.30 12.22 39.13 13.08 39.70 14.15 39.38 15.02 40.12 16.07 39.59 17.01 40.16 18.00 40.06 18 40 18.79 40.59 19.49 41.31 20.62 41.30 21.29 42.20 22.37 42.02 23.28 42.69 24.30 42.14 25.27 42.06 26.33 42.24 27.09 41.36 28.11 41.19 28 41 28.96 40.97 29.88 41.42 30.82 41.07 31.81 41.13 32.57 40.36 33.56 40.28 34.33 39.69 35.18 39.22 35 39 36.08 38.84 36.78 37.97 37.34 37.02 38.27 36.54 38.73 35.59 39.80 35.09 39.82 33.91 40 34 39.85 32.94 40.68 32.04 40.34 30.99 40.58 29.95 40.25 28.95 40 29 Z"></path><path fill="#BB174F" d="M0 0C  0.99 -0.18 1.98 -0.33 2.98 -0.45 3.98 -0.55 4.99 -0.63 5.99 -0.68 7.00 -0.71 8.00 -0.71 9.01 -0.68 10.01 -0.63 11.02 -0.55 12.02 -0.45 13.02 -0.33 14.01 -0.18 15.00 -0.00 15 0 15.96 0.25 16.92 0.52 17.87 0.80 18.82 1.09 19.77 1.39 20.71 1.70 21.65 2.03 22.59 2.36 23.52 2.71 24.44 3.07 25.37 3.44 26.28 3.83 27.20 4.22 28.10 4.63 29.01 5.04 29.90 5.47 30.79 5.91 31.68 6.36 32.56 6.82 33.44 7.29 34.31 7.78 35.17 8.27 36.02 8.77 36.87 9.29 37.72 9.81 38.56 10.35 39.39 10.89 40.21 11.45 41.03 12.02 41.84 12.59 42.64 13.18 43.43 13.78 44.22 14.38 45.00 15.00 45 15 45.62 15.76 46.22 16.54 46.80 17.32 47.37 18.12 47.93 18.93 48.47 19.75 48.99 20.58 49.49 21.42 49.98 22.27 50.46 23.13 50.91 24.00 51.35 24.87 51.77 25.76 52.17 26.65 52.56 27.55 52.93 28.46 53.28 29.38 53.61 30.30 53.93 31.23 54.22 32.16 54.50 33.10 54.76 34.05 55.00 35.00 55 35 54.12 35.41 53.31 35.94 52.58 36.58 51.94 37.31 51.41 38.12 51.00 39.00 51 39 50.00 39.01 49.00 39.00 49 39 48.24 38.33 47.39 37.78 46.48 37.35 45.51 37.06 44.51 36.92 43.49 36.92 42.49 37.06 41.52 37.35 40.61 37.78 39.76 38.33 39.00 39.00 39 39 38.00 38.00 38 38 37.47 37.17 36.86 36.40 36.18 35.70 35.43 35.06 34.63 34.50 33.77 34.02 32.87 33.63 31.93 33.32 30.98 33.11 30.00 33.00 30 33 29.00 32.77 27.99 32.52 27.00 32.27 26.00 32.00 26 32 25.86 31.52 25.66 31.07 25.41 30.64 25.10 30.25 24.75 29.90 24.36 29.59 23.93 29.34 23.48 29.14 23.00 29.00 23 29 22.60 29.26 22.23 29.56 21.88 29.88 21.56 30.23 21.26 30.60 21.00 31.00 21 31 20.02 30.83 19.04 30.66 18.06 30.47 17.08 30.26 16.11 30.05 15.14 29.82 14.17 29.58 13.20 29.33 12.24 29.07 11.28 28.80 10.33 28.51 9.37 28.21 8.43 27.90 7.48 27.58 6.54 27.25 5.61 26.90 4.68 26.54 3.75 26.17 2.83 25.79 1.91 25.40 1.00 25.00 1 25 0.10 24.57 -0.79 24.13 -1.68 23.68 -2.56 23.21 -3.43 22.74 -4.30 22.25 -5.17 21.76 -6.02 21.25 -6.87 20.74 -7.72 20.21 -8.55 19.67 -9.39 19.12 -10.21 18.56 -11.03 17.99 -11.84 17.42 -12.64 16.83 -13.43 16.23 -14.22 15.62 -15.00 15.00 -15 15 -14.49 14.12 -13.99 13.24 -13.50 12.34 -13.02 11.45 -12.55 10.54 -12.10 9.63 -11.66 8.72 -11.22 7.80 -10.80 6.87 -10.40 5.94 -10.00 5.00 -10 5 Z"></path><path fill="#eee" d="M0 1C  1.00 0.88 1.99 0.78 2.99 0.70 3.99 0.63 4.99 0.58 6.00 0.55 7.00 0.53 8.00 0.53 9.00 0.55 10.01 0.58 11.01 0.63 12.01 0.70 13.01 0.78 14.00 0.88 15.00 1.00 15 1 15.97 1.28 16.95 1.58 17.91 1.88 18.88 2.19 19.84 2.51 20.80 2.85 21.76 3.19 22.71 3.54 23.66 3.90 24.60 4.27 25.54 4.65 26.48 5.04 27.41 5.44 28.34 5.85 29.27 6.27 30.19 6.69 31.10 7.13 32.01 7.58 32.92 8.03 33.82 8.50 34.72 8.97 35.61 9.45 36.50 9.94 37.38 10.44 38.26 10.95 39.13 11.47 40.00 12.00 40 12 40.78 12.64 41.55 13.31 42.29 14.00 43.00 14.71 43.69 15.45 44.36 16.22 45.00 17.00 45 17 45.43 17.95 45.64 18.98 45.64 20.02 45.43 21.05 45.00 22.00 45 22 44.26 22.68 43.52 23.38 42.80 24.08 42.08 24.80 41.38 25.52 40.68 26.26 40.00 27.00 40 27 38.99 27.04 37.99 27.08 36.99 27.15 35.98 27.23 34.98 27.32 33.98 27.43 32.98 27.55 31.99 27.69 30.99 27.84 30.00 28.00 30 28 28.98 27.92 27.96 27.81 26.95 27.67 25.94 27.51 24.94 27.32 23.94 27.11 22.94 26.87 21.95 26.60 20.97 26.31 20.00 26.00 20 26 19.06 25.73 18.12 25.45 17.18 25.17 16.24 24.87 15.31 24.56 14.38 24.25 13.46 23.93 12.53 23.59 11.61 23.25 10.70 22.90 9.78 22.54 8.87 22.17 7.97 21.79 7.07 21.41 6.17 21.01 5.28 20.61 4.39 20.19 3.50 19.77 2.62 19.34 1.74 18.90 0.87 18.46 -0.00 18.00 0 18 -0.20 18.44 -0.46 18.85 -0.79 19.20 -1.17 19.50 -1.59 19.74 -2.04 19.90 -2.52 19.99 -3.00 20.00 -3 20 -3.44 19.80 -3.85 19.54 -4.20 19.21 -4.50 18.83 -4.74 18.41 -4.90 17.96 -4.99 17.48 -5.00 17.00 -5 17 -5.67 16.34 -6.34 15.67 -7.00 15.00 -7 15 -6.99 14.00 -6.99 13.00 -7.00 12.00 -7 12 -8.00 12.01 -9.00 12.00 -9 12 -9.50 12.25 -10.00 12.51 -10.50 12.75 -11.00 13.00 -11 13 -11.50 13.00 -12.00 13.00 -12 13 -12.50 12.75 -13.00 12.51 -13.50 12.25 -14.00 12.00 -14 12 -14.50 12.00 -15.00 12.01 -15.50 12.00 -16.00 12.00 -16 12 -15.72 11.00 -15.15 10.15 -14.17 9.56 -13.51 8.81 -13.01 7.94 -12.26 7.26 -12.07 6.05 -11.27 5.39 -10.21 5.06 -9.31 4.59 -8.78 3.57 -7.51 3.70 -6.77 2.98 -6.02 2.20 -5.17 1.57 -5 2 Z"></path><ellipse cx="45" cy="25" rx="4.5" ry="5" fill="#BB174F" stroke="#590924" stroke-width="1.5"></ellipse><ellipse cx="45" cy="25" rx="2" ry="2.5" fill="#eee"></ellipse><ellipse cx="54" cy="30" rx="3" ry="5" fill="#BB174F" stroke="#590924" stroke-width="1.5"></ellipse><ellipse cx="54" cy="30" rx="1" ry="2.5" fill="#eee"></ellipse><path fill="#590924" d="M49 38C  48.00 39.00 48 39 47.53 38.07 46.85 37.29 46.00 36.69 45.03 36.31 44.00 36.19 42.97 36.31 42.00 36.69 41.15 37.29 40.47 38.07 40.00 39.00 40 39 39.00 38.00 39 38 39.48 37.16 40.09 36.42 40.83 35.80 41.66 35.31 42.57 34.98 43.52 34.81 44.48 34.81 45.43 34.98 46.34 35.31 47.17 35.80 47.91 36.42 48.52 37.16 49.00 38.00 49 38 Z" transform="rotate(0,49,38)"></path><path fill="#590924" d="M38 37C  37.00 38.00 37 38 36.53 37.07 35.85 36.29 35.00 35.69 34.03 35.31 33.00 35.19 31.97 35.31 31.00 35.69 30.15 36.29 29.47 37.07 29.00 38.00 29 38 28.00 37.00 28 37 28.48 36.16 29.09 35.42 29.83 34.80 30.66 34.31 31.57 33.98 32.52 33.81 33.48 33.81 34.43 33.98 35.34 34.31 36.17 34.80 36.91 35.42 37.52 36.16 38.00 37.00 38 37 Z" transform="rotate(25,38,37)"></path><path fill="#590924" d="M29 33C  28.00 34.00 28 34 27.53 33.07 26.85 32.29 26.00 31.69 25.03 31.31 24.00 31.19 22.97 31.31 22.00 31.69 21.15 32.29 20.47 33.07 20.00 34.00 20 34 19.00 33.00 19 33 19.48 32.16 20.09 31.42 20.83 30.80 21.66 30.31 22.57 29.98 23.52 29.81 24.48 29.81 25.43 29.98 26.34 30.31 27.17 30.80 27.91 31.42 28.52 32.16 29.00 33.00 29 33 Z" transform="rotate(40,29,33)"></path><path fill="#590924" d="M-6 22C  -7.00 23.00 -7 23 -7.47 22.07 -8.15 21.29 -9.00 20.69 -9.97 20.31 -11.00 20.19 -12.03 20.31 -13.00 20.69 -13.85 21.29 -14.53 22.07 -15.00 23.00 -15 23 -16.00 22.00 -16 22 -15.52 21.16 -14.91 20.42 -14.17 19.80 -13.34 19.31 -12.43 18.98 -11.48 18.81 -10.52 18.81 -9.57 18.98 -8.66 19.31 -7.83 19.80 -7.09 20.42 -6.48 21.16 -6.00 22.00 -6 22 Z" transform="rotate(160,-6,22)"></path><path fill="#590924" d="M-7 15C  -8.00 16.00 -8 16 -8.47 15.07 -9.15 14.29 -10.00 13.69 -10.97 13.31 -12.00 13.19 -13.03 13.31 -14.00 13.69 -14.85 14.29 -15.53 15.07 -16.00 16.00 -16 16 -17.00 15.00 -17 15 -16.52 14.16 -15.91 13.42 -15.17 12.80 -14.34 12.31 -13.43 11.98 -12.48 11.81 -11.52 11.81 -10.57 11.98 -9.66 12.31 -8.83 12.80 -8.09 13.42 -7.48 14.16 -7.00 15.00 -7 15 Z" transform="rotate(240,-7,15)"></path><path fill="#590924" d="M-16 13C  -17.00 14.00 -17 14 -17.47 13.07 -18.15 12.29 -19.00 11.69 -19.97 11.31 -21.00 11.19 -22.03 11.31 -23.00 11.69 -23.85 12.29 -24.53 13.07 -25.00 14.00 -25 14 -26.00 13.00 -26 13 -25.52 12.16 -24.91 11.42 -24.17 10.80 -23.34 10.31 -22.43 9.98 -21.48 9.81 -20.52 9.81 -19.57 9.98 -18.66 10.31 -17.83 10.80 -17.09 11.42 -16.48 12.16 -16.00 13.00 -16 13 Z" transform="rotate(180,-16,13)"></path><path fill="#590924" d="M52 35C  51.89 35.87 53.01 35.96 53 36 52.10 36.45 51.25 37.00 50.69 37.90 50.32 38.96 50.88 40.03 51 40 50.35 39.44 50.13 38.69 50 39 49.91 37.99 50.39 37.08 50.53 36.20 51.08 35.42 52.07 35.15 52 35 Z"></path><path fill="#590924" d="M18 26C  19.16 26.33 19.84 27.23 21.01 27.29 21 27 20.24 27.76 19.29 28.04 18.58 28.85 18.79 30.02 18.73 31.06 19 31 17.88 30.62 17.21 29.63 16.01 30.22 16 30 16.72 29.17 17.78 29.03 18.25 28.06 18.50 27.02 17.87 26.03 18 26 Z"></path><path fill="#121" d="M25 3C  25.91 3.47 26.83 3.91 27.75 4.33 28.79 4.51 29.59 5.20 30.67 5.30 31.45 6.01 32.36 6.47 33.18 7.09 34.26 7.26 35.10 7.83 35 8 33.97 7.97 33.10 8.66 32.11 8.79 31.11 8.93 30.12 9.13 29.19 9.51 28.25 9.86 27.52 10.67 26.64 11.14 25.65 11.40 24.71 11.77 24.00 12.52 23.26 13.21 22.27 13.53 21.66 14.37 20.87 14.98 20.10 15.60 19.41 16.32 18.63 16.95 17.92 17.66 17.21 18.36 16.62 19.18 15.89 19.89 15.63 20.93 14.79 21.57 14.42 22.52 13.86 23.36 13.51 24.30 13.09 25.21 12.76 26.16 12.56 27.15 11.79 27.92 12 28 11.85 28.96 11.87 29.94 11.72 30.91 12.12 31.87 11.83 32.87 12.32 33.79 12.46 34.74 12.43 35.75 12.87 36.64 13.03 37.62 13.46 38.50 13.93 39.37 14.52 40.16 15.05 40.97 15 41 14.11 40.46 13.08 40.32 12.21 39.75 11.17 39.58 10.19 39.27 9.26 38.84 8.54 38.00 7.70 37.42 6.61 37.28 5.85 36.56 5.09 35.87 5 36 4.67 35.06 4.05 34.31 3.49 33.50 3.42 32.47 3.01 31.59 2.53 30.73 2.35 29.77 2.27 28.79 2.17 27.83 1.77 26.90 2.06 25.90 1.91 24.94 2.03 23.97 2.04 23.00 2 23 2.10 21.98 2.53 21.06 3.12 20.22 3.34 19.22 3.87 18.36 4.33 17.47 4.99 16.70 5.33 15.73 6.10 15.04 6.47 14.07 7.33 13.47 7.98 12.72 8.69 12.01 9.36 11.27 10.05 10.55 10.63 9.71 11.53 9.21 12.33 8.62 13.04 7.89 13.89 7.36 14.69 6.75 15.71 6.49 16.55 5.96 17.32 5.26 18.42 5.25 19.21 4.56 20.27 4.54 21.08 3.84 22.12 3.80 23.02 3.32 24.05 3.32 25.01 3.04 25 3 Z"></path></g></svg>
