<svg version="1.1" baseProfile="full" xmlns="http://www.w3.org/2000/svg" width="370" height="215" style="background: gray"><g transform="translate(25,25)"><path fill="#1C2833" d="M0 0C  1.11 0.00 1.89 0.67 2.77 1.13 3.59 1.71 4.55 2.02 5.52 2.29 6.29 2.98 7.22 3.34 8.15 3.71 8.76 4.70 9.60 5.24 10.54 5.58 11.60 5.70 12.61 5.89 13.44 6.46 14.25 7.05 15.25 7.28 15.99 8.02 17.07 8.08 17.91 8.63 18.49 9.69 19.77 9.36 20.24 10.62 21.17 10.99 22.44 10.67 23.27 11.23 24.08 11.85 24.75 12.72 26.00 12.45 26.87 12.93 27.58 13.73 28.66 13.80 29.21 14.90 30.14 15.28 30.91 15.95 32.00 16.00 32.75 16.72 33.61 17.22 34.88 16.90 35.34 18.21 36.60 17.92 37.44 18.46 38.35 18.86 38.90 19.98 40.18 19.64 40 20 40.01 18.96 40.62 18.04 41.07 17.09 40.52 15.94 41.41 15.08 40.73 13.91 41.89 13.10 41.42 11.96 41.88 11.02 41.75 9.95 42 10 42.35 9.00 41.56 8.00 42.08 7.00 41.50 6.00 41.60 5.00 42.12 4.00 41.76 3.00 41.69 2.00 41.84 1.00 41.78 0.00 41.61 -1.00 41.57 -2.00 41.97 -3.00 41.82 -4.00 41.88 -5.00 41.68 -6.00 42.14 -7.00 41.92 -8.00 42.26 -9.00 42.22 -10.00 42 -10 Z" transform="translate(220,104)"></path><path fill="#1C2833" d="M0 0C  1.03 0.16 1.65 1.15 2.52 1.64 3.41 2.07 4.55 2.01 5.41 2.52 6.23 3.10 7.21 3.35 8.02 3.96 8.74 4.75 9.62 5.20 10.79 5.09 11.53 5.83 12.44 6.24 13.44 6.46 14.15 7.26 14.89 8.00 16.07 7.85 17.00 8.22 17.90 8.64 18.83 9.00 19.58 9.73 20.47 10.18 21.27 10.79 22.28 11.00 23.20 11.38 23.96 12.08 25.03 12.16 25.96 12.52 26.58 13.51 27.37 14.14 28.24 14.63 29.54 14.26 30.02 15.52 31.29 15.19 31.90 16.21 33.07 16.08 33.82 16.80 34.89 16.90 35.48 17.93 36.33 18.44 37.35 18.63 38.02 19.51 39.19 19.40 40.13 19.74 40 20 40.08 18.98 40.70 18.06 40.30 16.94 40.71 15.98 40.54 14.91 41.31 14.02 41.83 13.09 41.28 11.94 41.34 10.91 41.70 9.94 42 10 42.40 9.00 41.68 8.00 42.43 7.00 41.59 6.00 41.82 5.00 42.43 4.00 42.47 3.00 42.08 2.00 42.07 1.00 41.76 0.00 41.75 -1.00 42.11 -2.00 41.73 -3.00 42.42 -4.00 41.72 -5.00 42.35 -6.00 41.74 -7.00 41.85 -8.00 42.09 -9.00 41.91 -10.00 42 -10 Z" transform="translate(120,144)"></path><path fill="#566573" d="M0 80C  0.90 79.56 1.80 79.11 2.71 78.69 3.80 78.70 4.66 78.15 5.61 77.83 6.53 77.44 7.43 77.00 8.39 76.68 9.35 76.41 10.26 75.96 11.23 75.70 12.05 75.06 13.08 74.93 13.99 74.51 14.88 74.04 15.84 73.75 16.79 73.41 17.74 73.10 18.58 72.51 19.55 72.23 20.41 71.67 21.36 71.35 22.39 71.22 23.29 70.78 24.21 70.37 25.08 69.86 26.06 69.61 26.94 69.13 27.96 68.98 28.79 68.35 29.71 67.96 30.75 67.85 31.66 67.44 32.62 67.13 33.47 66.56 34.33 66.01 35.38 65.95 36.32 65.58 37.18 65.06 38.19 64.87 38.99 64.17 39.94 63.85 40.87 63.47 41.80 63.09 42.78 62.85 43.71 62.49 44.57 61.93 45.54 61.67 46.46 61.27 47.48 61.13 48.39 60.69 49.33 60.35 50.16 59.74 51.21 59.66 52.07 59.11 52.98 58.68 53.97 58.45 54.83 57.91 55.89 57.86 56.81 57.48 57.67 56.93 58.52 56.36 59.52 56.16 60.41 55.67 61.34 55.30 62.25 54.87 63.28 54.76 64.12 54.17 65.08 53.86 66.04 53.57 66.91 53.05 67.99 53.05 68.86 52.53 69.79 52.16 70.73 51.80 71.63 51.34 72.57 51.00 73.44 50.48 74.33 50.02 75.26 49.64 76.22 49.35 77.14 48.94 78.13 48.72 79.08 48.39 80.04 48.10 80.91 47.57 81.92 47.41 82.88 47.11 83.72 46.51 84.65 46.15 85.65 45.95 86.55 45.50 87.50 45.17 88.38 44.67 89.34 44.39 90.20 43.82 91.12 43.43 92.12 43.24 93.03 42.81 93.90 42.29 94.83 41.91 95.73 41.46 96.76 41.33 97.62 40.79 98.53 40.37 99.50 40.10 100.49 39.87 101.33 39.29 102.41 39.29 103.32 38.87 104.11 38.12 105.19 38.13 106.09 37.68 106.93 37.09 107.82 36.62 108.85 36.50 109.74 36.03 110.79 35.94 111.66 35.42 112.53 34.92 113.55 34.75 114.34 34.05 115.43 34.06 116.27 33.47 117.26 33.25 118.13 32.71 119.13 32.52 120.04 32.10 120.92 31.60 121.78 31.06 122.77 30.82 123.72 30.50 124.56 29.91 125.66 29.96 126.53 29.43 127.50 29.18 128.46 28.88 129.25 28.16 130.22 27.88 131.10 27.38 132.15 27.30 133.01 26.75 133.93 26.35 134.97 26.26 135.84 25.75 136.76 25.34 137.74 25.09 138.68 24.75 139.59 24.32 140.53 23.98 141.44 23.56 142.41 23.27 143.34 22.90 144.26 22.51 145.20 22.16 146.04 21.56 147.06 21.42 147.98 21.02 148.76 20.27 149.73 20.00 150.67 19.65 151.71 19.54 152.57 19.01 153.45 18.50 154.48 18.40 155.26 17.64 156.30 17.54 157.27 17.27 158.10 16.65 159.10 16.46 159.92 15.79 160.92 15.61 161.87 15.27 162.77 14.83 163.74 14.56 164.60 14.02 165.67 14.00 166.42 13.17 167.45 13.05 168.33 12.54 169.25 12.14 170.18 11.76 171.25 11.74 172.01 10.96 173.00 10.73 174.00 10.54 174.93 10.16 175.82 9.68 176.74 9.28 177.66 8.89 178.69 8.77 179.59 8.33 180.40 7.65 181.31 7.24 182.31 7.03 183.25 6.68 184.18 6.31 185.13 5.99 186.14 5.81 187.02 5.32 187.83 4.65 188.77 4.30 189.85 4.30 190.69 3.71 191.54 3.14 192.63 3.16 193.54 2.74 194.44 2.28 195.38 1.94 196.20 1.28 197.24 1.19 198.12 0.69 199.07 0.38 200.07 0.17 200 0 200.94 0.36 201.86 0.75 202.60 1.52 203.60 1.75 204.39 2.41 205.46 2.52 206.22 3.23 207.21 3.50 208.06 4.02 208.88 4.64 209.89 4.84 210.71 5.44 211.61 5.89 212.48 6.37 213.35 6.89 214.34 7.15 215.12 7.81 216.05 8.20 217.07 8.40 217.83 9.11 218.79 9.43 219.66 9.93 220.70 10.09 221.40 10.92 222.36 11.25 223.39 11.43 224.15 12.15 224.98 12.73 226.04 12.85 226.79 13.59 227.84 13.72 228.72 14.20 229.49 14.91 230.45 15.21 231.30 15.77 232.31 15.97 233.17 16.49 234.00 17.08 234.89 17.53 235.86 17.82 236.72 18.35 237.68 18.68 238.47 19.32 239.40 19.70 240.26 20.23 241.13 20.72 242.07 21.08 243.04 21.39 243.93 21.84 244.89 22.17 245.66 22.87 246.67 23.07 247.57 23.52 248.36 24.17 249.27 24.59 250.26 24.85 250.96 25.69 251.85 26.15 252.77 26.55 253.79 26.75 254.61 27.35 255.62 27.58 256.46 28.12 257.26 28.76 258.13 29.26 259.06 29.64 259.90 30.20 260.95 30.35 261.83 30.81 262.69 31.34 263.64 31.67 264.38 32.44 265.30 32.83 266.30 33.07 267.24 33.42 268.00 34.16 269.04 34.30 269.90 34.83 270.83 35.21 271.63 35.84 272.52 36.30 273.50 36.59 274.33 37.17 275.11 37.83 276.06 38.17 277.07 38.40 278.01 38.77 278.80 39.41 279.72 39.82 280.67 40.15 281.49 40.75 282.46 41.04 283.30 41.61 284.29 41.87 285.17 42.35 285.96 43.01 286.79 43.58 287.87 43.66 288.59 44.46 289.52 44.84 290.37 45.39 291.24 45.88 292.27 46.05 293.21 46.41 294.07 46.93 294.98 47.36 295.72 48.11 296.66 48.47 297.53 48.96 298.46 49.35 299.32 49.87 300.30 50.14 301.13 50.72 302.15 50.92 302.96 51.53 303.95 51.79 304.86 52.22 305.73 52.72 306.68 53.07 307.40 53.86 308.35 54.20 309.33 54.47 310.19 55.00 311.00 55.62 311.91 56.02 312.73 56.64 313.80 56.73 314.69 57.19 315.52 57.77 316.32 58.40 317.35 58.57 318.27 58.98 319.07 59.61 319.89 60.22 320 60 320.13 61.00 319.81 62.00 320 62 319.04 62.30 318.15 62.77 317.20 63.11 316.21 63.32 315.31 63.75 314.43 64.25 313.47 64.55 312.63 65.16 311.64 65.37 310.69 65.70 309.79 66.15 308.84 66.46 307.99 67.05 307.06 67.41 306.13 67.79 305.12 67.95 304.22 68.42 303.24 68.66 302.27 68.94 301.37 69.37 300.40 69.66 299.62 70.40 298.64 70.64 297.64 70.84 296.81 71.47 295.84 71.73 294.97 72.27 293.88 72.24 293.04 72.84 292.16 73.33 291.17 73.55 290.19 73.80 289.36 74.41 288.37 74.64 287.44 75.03 286.56 75.51 285.67 75.98 284.68 76.21 283.71 76.48 282.76 76.82 281.92 77.41 280.91 77.57 279.99 77.97 279.07 78.37 278.13 78.72 277.17 79.01 276.27 79.46 275.42 80.05 274.51 80.46 273.58 80.82 272.48 80.77 271.57 81.20 270.71 81.75 269.70 81.92 268.81 82.41 267.90 82.83 267.03 83.34 266.02 83.52 265.04 83.76 264.12 84.16 263.31 84.83 262.25 84.87 261.36 85.35 260.55 86.04 259.55 86.23 258.54 86.40 257.63 86.82 256.71 87.22 255.84 87.73 254.90 88.10 254.01 88.57 252.96 88.62 252.18 89.37 251.21 89.65 250.16 89.73 249.36 90.43 248.31 90.49 247.52 91.21 246.47 91.29 245.58 91.76 244.66 92.15 243.76 92.61 242.77 92.83 241.85 93.22 240.94 93.66 239.95 93.89 239.15 94.57 238.22 94.94 237.14 94.94 236.22 95.34 235.34 95.84 234.37 96.12 233.57 96.82 232.58 97.04 231.62 97.33 230.68 97.67 229.80 98.18 228.85 98.50 228.00 99.06 226.99 99.25 226.06 99.62 225.02 99.72 224.25 100.48 223.32 100.85 222.37 101.17 221.34 101.30 220.54 102.01 219.61 102.37 218.57 102.48 217.75 103.12 216.78 103.38 215.78 103.59 214.92 104.13 213.95 104.42 213.02 104.79 212.03 105.00 211.21 105.65 210.23 105.91 209.37 106.44 208.36 106.63 207.43 107.00 206.49 107.35 205.67 108.00 204.57 107.93 203.72 108.52 202.70 108.66 201.81 109.13 200.88 109.50 200.03 110.09 199.02 110.25 198.16 110.79 197.25 111.21 196.19 111.27 195.39 111.98 194.40 112.19 193.52 112.67 192.48 112.78 191.63 113.35 190.62 113.53 189.85 114.31 188.79 114.34 187.87 114.74 187.03 115.33 186.12 115.75 185.07 115.83 184.24 116.45 183.30 116.82 182.40 117.26 181.44 117.55 180.46 117.81 179.62 118.40 178.58 118.50 177.67 118.92 176.75 119.32 175.73 119.48 174.80 119.85 174.00 120.53 173.08 120.93 172.16 121.32 171.07 121.31 170.18 121.78 169.36 122.43 168.39 122.71 167.45 123.05 166.56 123.53 165.59 123.78 164.72 124.30 163.81 124.74 162.72 124.70 161.79 125.08 160.89 125.52 159.94 125.84 158.99 126.17 158.15 126.77 157.20 127.08 156.29 127.52 155.37 127.91 154.49 128.42 153.55 128.75 152.55 128.96 151.62 129.34 150.72 129.77 149.83 130.26 148.81 130.40 147.89 130.79 146.92 131.07 146.13 131.80 145.07 131.83 144.17 132.29 143.33 132.90 142.34 133.12 141.44 133.55 140.39 133.62 139.49 134.08 138.60 134.55 137.68 134.95 136.71 135.22 135.80 135.63 134.84 135.93 133.98 136.50 133.05 136.86 132.14 137.27 131.20 137.62 130.28 138.02 129.22 138.07 128.36 138.62 127.43 138.99 126.46 139.26 125.63 139.89 124.70 140.26 123.71 140.49 122.75 140.77 121.80 141.11 120.91 141.58 120.09 142.22 120 142 119.10 141.55 118.15 141.23 117.33 140.62 116.33 140.39 115.41 139.98 114.70 139.17 113.63 139.07 112.73 138.64 112.02 137.81 110.97 137.67 110.04 137.28 109.31 136.52 108.35 136.19 107.57 135.52 106.57 135.27 105.64 134.90 104.88 134.18 103.99 133.72 102.98 133.51 102.14 132.93 101.22 132.55 100.22 132.30 99.39 131.72 98.54 131.19 97.58 130.87 96.63 130.54 95.71 130.13 95.01 129.30 93.94 129.20 93.24 128.36 92.17 128.26 91.31 127.74 90.54 127.04 89.60 126.67 88.63 126.38 87.79 125.81 86.88 125.41 86.03 124.86 85.02 124.64 84.25 123.94 83.28 123.65 82.48 123.02 81.43 122.87 80.56 122.37 79.60 122.05 78.70 121.62 77.90 120.97 76.91 120.71 76.16 119.97 75.30 119.45 74.30 119.22 73.44 118.70 72.47 118.40 71.71 117.68 70.83 117.20 69.86 116.91 68.87 116.65 68.09 115.98 67.17 115.58 66.23 115.21 65.31 114.81 64.41 114.38 63.49 113.98 62.61 113.49 61.84 112.80 60.87 112.50 60.04 111.91 59.09 111.58 58.26 111.01 57.23 110.83 56.37 110.30 55.44 109.93 54.69 109.19 53.73 108.87 52.76 108.58 51.93 107.99 51.13 107.35 50.19 106.99 49.27 106.60 48.27 106.35 47.37 105.93 46.54 105.35 45.69 104.81 44.71 104.51 43.91 103.87 42.96 103.54 42.07 103.09 41.19 102.61 40.28 102.18 39.36 101.78 38.43 101.42 37.64 100.75 36.78 100.23 35.90 99.74 34.85 99.62 34.13 98.82 33.04 98.76 32.20 98.20 31.32 97.72 30.55 97.01 29.63 96.62 28.57 96.51 27.67 96.06 26.88 95.40 25.94 95.05 25.05 94.59 24.20 94.04 23.23 93.75 22.32 93.34 21.46 92.80 20.64 92.22 19.68 91.90 18.83 91.36 17.96 90.85 16.92 90.70 16.20 89.89 15.12 89.82 14.39 89.04 13.35 88.87 12.45 88.45 11.67 87.77 10.85 87.16 9.88 86.87 9.05 86.29 7.99 86.16 7.26 85.39 6.35 84.97 5.34 84.74 4.39 84.41 3.56 83.84 2.64 83.44 1.88 82.72 0.81 82.61 0.04 81.91 0 82 Z"></path><path fill="#2C3E50" d="M0 80C  0.87 80.50 1.84 80.80 2.61 81.49 3.60 81.76 4.43 82.33 5.44 82.55 6.16 83.35 7.25 83.40 8.15 83.85 9.04 84.31 9.88 84.86 10.69 85.49 11.61 85.89 12.49 86.36 13.48 86.63 14.35 87.12 15.23 87.61 16.17 87.95 17.11 88.31 17.96 88.85 18.71 89.60 19.68 89.89 20.57 90.35 21.56 90.61 22.31 91.36 23.29 91.64 24.22 92.02 24.99 92.70 25.90 93.13 26.77 93.63 27.74 93.92 28.67 94.31 29.64 94.61 30.45 95.22 31.38 95.59 32.21 96.18 33.18 96.48 34.06 96.95 34.90 97.51 35.91 97.73 36.68 98.44 37.70 98.64 38.58 99.11 39.36 99.78 40.30 100.15 41.30 100.38 41.99 101.24 43.04 101.39 43.87 101.96 44.86 102.21 45.63 102.91 46.50 103.43 47.49 103.68 48.43 104.04 49.34 104.46 50.21 104.96 51.06 105.50 51.90 106.05 52.90 106.30 53.63 107.07 54.55 107.46 55.57 107.67 56.49 108.07 57.26 108.77 58.19 109.14 59.12 109.53 60.01 109.97 60.84 110.55 61.82 110.83 62.60 111.52 63.54 111.87 64.55 112.09 65.33 112.78 66.33 113.02 67.12 113.66 68.11 113.93 68.85 114.70 69.75 115.12 70.68 115.50 71.62 115.87 72.51 116.33 73.40 116.78 74.39 117.03 75.13 117.79 76.01 118.27 77.07 118.39 77.88 119.02 78.83 119.36 79.75 119.75 80.54 120.41 81.48 120.77 82.42 121.14 83.24 121.74 84.25 121.95 85.17 122.36 86.01 122.90 86.94 123.28 87.65 124.10 88.62 124.39 89.63 124.63 90.43 125.26 91.44 125.47 92.23 126.13 93.20 126.45 93.97 127.13 94.99 127.33 95.81 127.93 96.79 128.21 97.63 128.76 98.46 129.34 99.32 129.86 100.33 130.08 101.22 130.55 102.12 130.99 102.92 131.62 103.98 131.74 104.82 132.31 105.70 132.78 106.53 133.36 107.40 133.85 108.30 134.31 109.17 134.79 110.17 135.04 111.06 135.48 111.99 135.86 112.78 136.53 113.80 136.73 114.54 137.48 115.42 137.97 116.37 138.30 117.23 138.82 118.31 138.91 119.18 139.41 119.89 140.22 120 140 120.88 139.50 121.91 139.39 122.75 138.79 123.75 138.57 124.65 138.14 125.49 137.55 126.48 137.32 127.49 137.15 128.37 136.64 129.28 136.21 130.25 135.95 131.13 135.45 132.15 135.30 133.05 134.86 133.96 134.43 134.81 133.86 135.82 133.69 136.78 133.40 137.75 133.13 138.53 132.38 139.57 132.28 140.48 131.86 141.38 131.41 142.39 131.23 143.22 130.60 144.28 130.55 145.13 129.98 145.98 129.42 146.92 129.06 147.95 128.94 148.86 128.52 149.84 128.28 150.68 127.68 151.68 127.47 152.61 127.10 153.46 126.53 154.49 126.41 155.42 126.03 156.29 125.52 157.30 125.35 158.06 124.54 159.13 124.51 160.01 124.03 160.99 123.78 161.88 123.29 162.78 122.85 163.63 122.30 164.70 122.25 165.66 121.96 166.52 121.42 167.48 121.11 168.36 120.63 169.21 120.05 170.30 120.08 171.21 119.65 172.02 118.97 172.94 118.58 173.93 118.36 174.94 118.18 175.88 117.84 176.72 117.25 177.70 116.99 178.67 116.73 179.56 116.24 180.43 115.72 181.44 115.56 182.23 114.84 183.20 114.57 184.21 114.39 185.08 113.87 185.98 113.42 187.03 113.33 187.83 112.64 188.92 112.68 189.71 111.96 190.66 111.63 191.61 111.30 192.59 111.05 193.50 110.64 194.42 110.25 195.43 110.06 196.25 109.41 197.25 109.21 198.09 108.63 199.14 108.55 200.00 108.01 200.87 107.48 201.88 107.31 202.84 107.00 203.77 106.64 204.62 106.06 205.55 105.69 206.47 105.30 207.41 104.96 208.34 104.57 209.31 104.29 210.29 104.05 211.22 103.67 212.10 103.18 213.08 102.94 213.95 102.40 214.80 101.83 215.88 101.84 216.71 101.23 217.73 101.08 218.51 100.33 219.47 100.03 220.52 99.95 221.47 99.62 222.39 99.24 223.33 98.89 224.19 98.35 225.06 97.83 226.08 97.67 227.01 97.30 227.92 96.88 228.92 96.67 229.79 96.14 230.73 95.81 231.69 95.50 232.61 95.11 233.51 94.66 234.50 94.44 235.36 93.88 236.19 93.27 237.12 92.88 238.18 92.85 239.12 92.51 239.96 91.90 240.84 91.41 241.80 91.11 242.74 90.76 243.71 90.49 244.62 90.07 245.65 89.94 246.60 89.61 247.46 89.08 248.38 88.67 249.39 88.49 250.26 87.97 251.22 87.68 252.02 86.99 252.94 86.57 254.00 86.53 254.87 86.02 255.85 85.77 256.67 85.12 257.70 85.00 258.57 84.47 259.50 84.11 260.44 83.75 261.38 83.41 262.31 83.04 263.19 82.53 264.24 82.46 265.03 81.74 266.13 81.78 267.06 81.41 267.83 80.65 268.84 80.47 269.68 79.87 270.67 79.64 271.63 79.36 272.55 78.95 273.48 78.59 274.36 78.09 275.32 77.78 276.29 77.51 277.21 77.11 278.10 76.65 279.04 76.30 280.09 76.22 280.87 75.47 281.95 75.49 282.88 75.10 283.72 74.52 284.67 74.18 285.53 73.64 286.50 73.36 287.49 73.14 288.36 72.63 289.26 72.18 290.17 71.75 291.21 71.65 292.07 71.10 293.11 71.00 293.98 70.48 294.96 70.24 295.77 69.56 296.71 69.21 297.59 68.72 298.58 68.51 299.52 68.15 300.38 67.60 301.40 67.45 302.41 67.28 303.26 66.71 304.22 66.40 305.17 66.10 306.12 65.76 306.95 65.15 307.90 64.81 308.92 64.68 309.77 64.10 310.74 63.84 311.64 63.38 312.64 63.19 313.44 62.48 314.38 62.13 315.29 61.71 316.29 61.51 317.27 61.27 318.10 60.64 319.07 60.38 319.95 59.87 320 60 320.02 61.00 320.14 62.00 319.90 63.00 319.84 64.00 320.03 65.00 320.10 66.00 319.78 67.00 320.11 68.00 320.16 69.00 320.09 70.00 320.06 71.00 319.79 72.00 320.19 73.00 319.87 74.00 319.83 75.00 319.77 76.00 320.11 77.00 320.22 78.00 319.83 79.00 320.17 80.00 320 80 319.22 80.74 318.08 80.61 317.10 80.84 316.43 81.88 315.24 81.59 314.52 82.48 313.44 82.49 312.61 83.10 311.80 83.77 310.84 84.08 309.93 84.51 308.86 84.52 308.00 85.07 307.01 85.30 305.95 85.35 305.09 85.88 304.36 86.76 303.17 86.48 302.22 86.80 301.51 87.73 300.63 88.22 299.37 87.77 298.79 89.02 297.58 88.70 296.76 89.34 295.98 90.10 294.73 89.67 293.86 90.19 293.17 91.16 292.07 91.10 291.28 91.82 290.21 91.85 289.16 91.93 288.51 93.01 287.33 92.75 286.50 93.37 285.48 93.52 284.65 94.15 283.90 94.96 282.87 95.08 281.87 95.29 280.77 95.23 280.17 96.43 280 96 280.17 97.00 279.90 98.00 279.95 99.00 279.81 100.00 279.82 101.00 280.24 102.00 279.87 103.00 280.02 104.00 280.18 105.00 280.17 106.00 280.22 107.00 280.10 108.00 280.24 109.00 280.16 110.00 280.14 111.00 280.11 112.00 280.01 113.00 279.99 114.00 280.01 115.00 279.86 116.00 280 116 279.11 116.42 278.14 116.63 277.22 116.95 276.27 117.22 275.43 117.77 274.55 118.20 273.63 118.52 272.73 118.90 271.79 119.20 270.90 119.61 270.06 120.15 269.03 120.20 268.25 120.90 267.18 120.87 266.30 121.30 265.50 121.92 264.56 122.22 263.69 122.69 262.65 122.71 261.89 123.45 260.90 123.61 259.96 123.91 260 124 259.95 123.00 260.18 122.00 260.04 121.00 259.80 120.00 260.25 119.00 260.24 118.00 259.78 117.00 260.12 116.00 259.97 115.00 260.02 114.00 259.78 113.00 260.22 112.00 260.11 111.00 259.94 110.00 260.05 109.00 259.89 108.00 259.98 107.00 260.09 106.00 260.10 105.00 260.09 104.00 260 104 259.04 104.30 258.11 104.66 257.11 104.87 256.24 105.39 255.24 105.59 254.36 106.09 253.41 106.40 252.47 106.76 251.68 107.47 250.68 107.69 249.64 107.78 248.91 108.65 247.79 108.55 246.97 109.19 245.96 109.37 245.24 110.27 244.37 110.79 243.44 111.15 242.48 111.45 241.41 111.47 240.59 112.13 239.64 112.45 238.43 112.12 237.83 113.33 236.85 113.58 235.79 113.61 235.01 114.37 233.93 114.35 232.87 114.40 232.24 115.54 231.20 115.62 230.13 115.64 229.14 115.88 228.27 116.40 227.26 116.56 226.44 117.22 225.64 117.91 224.72 118.32 223.66 118.36 222.80 118.91 221.75 118.99 220.80 119.31 220.09 120.22 218.91 119.98 218.30 121.15 217.17 121.02 216.26 121.44 215.38 121.93 214.47 122.36 213.36 122.28 212.63 123.15 211.79 123.74 210.67 123.64 209.65 123.79 208.71 124.16 208.07 125.25 207.12 125.56 205.95 125.34 205.08 125.87 204.01 125.87 203.08 126.27 202.49 127.48 201.58 127.90 200.63 128.22 199.52 128.14 198.60 128.54 197.86 129.39 196.75 129.32 195.70 129.38 194.84 129.93 194.03 130.60 192.98 130.68 192.10 131.18 191.31 131.90 190.33 132.14 189.31 132.30 188.38 132.68 187.28 132.62 186.47 133.29 185.75 134.19 184.53 133.84 183.75 134.58 182.90 135.16 181.80 135.11 181.05 135.93 180.00 135.99 180 136 180.08 137.00 179.88 138.00 179.99 139.00 179.90 140.00 180.14 141.00 180.22 142.00 180.17 143.00 180.22 144.00 180.18 145.00 180.22 146.00 180.04 147.00 179.96 148.00 179.95 149.00 179.94 150.00 179.82 151.00 180.04 152.00 179.95 153.00 179.89 154.00 179.91 155.00 179.86 156.00 180 156 179.10 156.39 178.21 156.79 177.36 157.30 176.36 157.45 175.42 157.73 174.52 158.12 173.63 158.52 172.64 158.68 171.76 159.12 170.93 159.68 170.06 160.15 169.06 160.28 168.10 160.53 167.21 160.95 166.30 161.31 165.44 161.79 164.50 162.07 163.63 162.53 162.73 162.91 161.76 163.13 160.96 163.75 159.92 163.81 160 164 159.84 163.00 159.93 162.00 160.16 161.00 160.13 160.00 159.95 159.00 160.08 158.00 160.24 157.00 159.98 156.00 160.17 155.00 160.21 154.00 160.05 153.00 159.98 152.00 159.88 151.00 159.78 150.00 160.04 149.00 160.25 148.00 159.78 147.00 160.20 146.00 159.86 145.00 160.05 144.00 160 144 159.00 144.21 158.09 144.61 157.17 145.03 156.33 145.62 155.29 145.71 154.34 146.04 153.60 146.88 152.60 147.09 151.56 147.17 150.68 147.68 149.94 148.53 148.93 148.69 148.07 149.24 146.91 149.05 146.10 149.71 145.29 150.39 144.33 150.69 143.13 150.38 142.45 151.37 141.41 151.49 140.45 151.76 139.51 152.12 138.50 152.30 137.60 152.74 136.71 153.23 135.98 154.10 134.90 154.08 133.95 154.41 133.12 155.04 132.20 155.43 131.18 155.59 130.21 155.84 129.24 156.11 128.35 156.59 127.26 156.57 126.41 157.13 125.57 157.74 124.76 158.41 123.78 158.66 122.63 158.48 121.85 159.23 120.85 159.42 120.06 160.14 120 160 119.10 159.57 118.25 159.02 117.34 158.60 116.44 158.16 115.43 157.94 114.68 157.20 113.73 156.87 112.74 156.60 111.95 155.94 110.99 155.64 110.20 154.98 109.16 154.82 108.32 154.26 107.47 153.72 106.48 153.45 105.69 152.80 104.70 152.55 103.78 152.14 102.93 151.60 102.04 151.15 101.25 150.49 100.31 150.12 99.49 149.54 98.42 149.43 97.59 148.86 96.63 148.53 95.87 147.81 94.82 147.68 94.00 147.08 93.22 146.39 92.34 145.92 91.25 145.86 90.49 145.14 89.54 144.80 88.74 144.16 87.77 143.86 86.84 143.48 86.06 142.81 85.17 142.35 84.25 141.96 83.25 141.71 82.28 141.41 81.52 140.69 80.49 140.52 79.69 139.87 78.73 139.56 77.95 138.87 76.92 138.69 76.05 138.20 75.23 137.60 74.28 137.26 73.49 136.61 72.59 136.16 71.74 135.63 70.66 135.55 69.78 135.07 68.85 134.69 68.06 134.03 67.19 133.53 66.23 133.21 65.34 132.76 64.43 132.34 63.50 131.96 62.76 131.20 61.73 131.02 60.84 130.57 60.00 129.99 59.09 129.58 58.30 128.93 57.22 128.85 56.51 128.03 55.52 127.78 54.67 127.23 53.63 127.07 52.75 126.59 51.85 126.14 51.15 125.32 50.13 125.10 49.16 124.82 48.26 124.37 47.36 123.93 46.56 123.29 45.60 122.99 44.82 122.30 43.79 122.12 42.98 121.51 42.14 120.95 41.28 120.43 40.19 120.37 39.46 119.60 38.52 119.23 37.68 118.67 36.65 118.50 35.78 118.00 35.01 117.29 33.93 117.21 33.09 116.66 32.20 116.19 31.28 115.80 30.43 115.25 29.59 114.70 28.77 114.11 27.65 114.09 26.97 113.22 25.95 113.02 25.09 112.51 24.24 111.96 23.18 111.85 22.47 111.02 21.42 110.88 20.64 110.22 19.75 109.76 18.70 109.62 17.96 108.86 17.10 108.34 16.23 107.84 15.34 107.39 14.23 107.37 13.45 106.68 12.58 106.19 11.64 105.82 10.74 105.40 9.85 104.92 8.92 104.54 8.12 103.91 7.26 103.39 6.27 103.13 5.48 102.47 4.49 102.21 3.64 101.67 2.64 101.44 1.79 100.90 0.95 100.34 0.03 99.94 0 100 -0.10 99.00 -0.07 98.00 -0.24 97.00 -0.19 96.00 -0.08 95.00 0.05 94.00 -0.12 93.00 0.11 92.00 0.07 91.00 0.14 90.00 0.05 89.00 0.15 88.00 -0.23 87.00 -0.12 86.00 0.04 85.00 -0.09 84.00 -0.13 83.00 0.18 82.00 0.22 81.00 0.21 80.00 0 80 Z"></path><path fill="maroon" d="M1 80C  1.92 80.40 2.86 80.74 3.66 81.38 4.53 81.88 5.52 82.13 6.29 82.82 7.34 82.95 8.17 83.52 8.98 84.14 10.02 84.29 10.76 85.05 11.69 85.43 12.65 85.74 13.56 86.13 14.50 86.49 15.29 87.15 16.19 87.58 17.10 87.99 18.08 88.27 18.95 88.77 19.78 89.34 20.74 89.64 21.60 90.16 22.52 90.54 23.29 91.24 24.21 91.64 25.22 91.84 26.06 92.42 26.94 92.88 27.86 93.26 28.68 93.86 29.66 94.14 30.57 94.55 31.43 95.07 32.33 95.50 33.28 95.83 34.14 96.35 35.06 96.73 35.97 97.15 36.84 97.64 37.76 98.03 38.54 98.70 39.52 98.98 40.45 99.36 41.27 99.96 42.14 100.45 43.07 100.82 44.02 101.15 44.82 101.77 45.80 102.05 46.64 102.61 47.61 102.90 48.47 103.41 49.35 103.89 50.26 104.31 51.08 104.89 52.00 105.29 52.92 105.68 53.84 106.08 54.74 106.50 55.55 107.13 56.52 107.41 57.42 107.85 58.26 108.41 59.17 108.81 59.97 109.45 60.89 109.85 61.87 110.12 62.71 110.67 63.65 111.01 64.59 111.36 65.51 111.76 66.35 112.31 67.21 112.83 68.06 113.37 68.98 113.76 69.90 114.16 70.87 114.44 71.67 115.07 72.52 115.61 73.56 115.76 74.42 116.28 75.19 116.96 76.11 117.37 77.00 117.81 77.94 118.16 78.80 118.67 79.71 119.09 80.71 119.33 81.58 119.83 82.38 120.44 83.35 120.75 84.21 121.26 85.07 121.77 85.98 122.18 86.83 122.71 87.75 123.11 88.65 123.55 89.58 123.92 90.39 124.52 91.40 124.75 92.20 125.38 93.14 125.72 93.97 126.30 94.94 126.59 95.87 126.97 96.81 127.32 97.68 127.81 98.52 128.36 99.40 128.84 100.25 129.37 101.23 129.64 102.08 130.17 102.99 130.59 103.88 131.04 104.73 131.57 105.60 132.07 106.65 132.20 107.51 132.71 108.33 133.32 109.28 133.65 110.14 134.16 110.97 134.73 111.87 135.17 112.77 135.59 113.73 135.91 114.64 136.32 115.50 136.84 116.45 137.16 117.24 137.82 118.24 138.06 119.08 138.61 119.95 139.10 120 139 121.00 138.80 121.89 138.34 122.80 137.91 123.76 137.61 124.63 137.09 125.52 136.62 126.45 136.24 127.39 135.90 128.41 135.75 129.25 135.14 130.28 135.03 131.16 134.53 132.11 134.21 132.98 133.68 133.92 133.33 134.90 133.10 135.86 132.78 136.81 132.48 137.67 131.91 138.55 131.41 139.57 131.26 140.41 130.67 141.43 130.52 142.36 130.15 143.19 129.52 144.19 129.34 145.11 128.95 146.05 128.60 146.91 128.03 147.86 127.71 148.83 127.44 149.80 127.17 150.76 126.88 151.59 126.25 152.50 125.83 153.56 125.79 154.46 125.33 155.29 124.72 156.21 124.30 157.23 124.17 158.13 123.72 159.11 123.48 159.98 122.95 160.97 122.72 161.88 122.30 162.81 121.92 163.76 121.60 164.68 121.21 165.54 120.67 166.52 120.42 167.38 119.87 168.36 119.62 169.31 119.31 170.30 119.08 171.23 118.71 172.12 118.23 173.02 117.79 174.01 117.56 174.83 116.92 175.81 116.67 176.76 116.34 177.71 116.01 178.54 115.40 179.59 115.33 180.41 114.68 181.45 114.58 182.25 113.89 183.23 113.63 184.15 113.25 185.05 112.78 186.09 112.68 186.93 112.10 187.89 111.78 188.81 111.41 189.77 111.11 190.66 110.62 191.62 110.33 192.51 109.85 193.45 109.50 194.38 109.13 195.31 108.76 196.30 108.55 197.17 108.01 198.19 107.86 199.01 107.23 199.93 106.83 200.90 106.56 201.79 106.09 202.86 106.05 203.78 105.66 204.69 105.24 205.51 104.59 206.44 104.23 207.52 104.21 208.34 103.56 209.29 103.26 210.22 102.87 211.17 102.54 212.05 102.06 212.98 101.68 213.97 101.46 214.95 101.21 215.88 100.84 216.67 100.12 217.73 100.06 218.61 99.58 219.47 99.03 220.50 98.91 221.44 98.56 222.26 97.91 223.32 97.86 224.19 97.34 225.12 96.97 226.05 96.59 226.90 96.03 227.91 95.84 228.85 95.50 229.82 95.22 230.71 94.76 231.63 94.36 232.52 93.88 233.49 93.62 234.45 93.31 235.34 92.84 236.29 92.52 237.28 92.28 238.09 91.62 239.07 91.38 240.07 91.18 240.88 90.50 241.79 90.08 242.84 90.01 243.74 89.56 244.59 88.98 245.55 88.69 246.47 88.30 247.49 88.13 248.42 87.77 249.29 87.25 250.24 86.92 251.17 86.54 252.13 86.24 252.97 85.66 253.88 85.24 254.91 85.12 255.77 84.57 256.73 84.27 257.65 83.86 258.58 83.50 259.52 83.14 260.52 82.96 261.40 82.44 262.29 81.99 263.24 81.66 264.19 81.34 265.10 80.92 266.07 80.65 266.96 80.16 267.92 79.87 268.81 79.41 269.70 78.93 270.63 78.55 271.61 78.31 272.57 78.01 273.50 77.62 274.42 77.24 275.28 76.68 276.27 76.47 277.21 76.12 278.08 75.60 279.05 75.33 280.01 75.04 280.98 74.75 281.83 74.17 282.76 73.80 283.75 73.60 284.71 73.28 285.54 72.67 286.48 72.33 287.46 72.07 288.44 71.82 289.27 71.20 290.26 70.97 291.13 70.44 292.08 70.13 293.01 69.75 293.98 69.49 294.95 69.22 295.75 68.50 296.72 68.23 297.71 68.03 298.65 67.68 299.46 67.01 300.51 66.92 301.47 66.62 302.34 66.11 303.30 65.81 304.24 65.45 305.05 64.79 306.12 64.76 306.95 64.14 307.93 63.90 308.78 63.31 309.84 63.27 310.69 62.71 311.65 62.41 312.52 61.87 313.48 61.58 314.40 61.18 315.29 60.70 316.22 60.34 317.15 59.97 318.16 59.80 319.11 59.46 319.93 58.82 320 59 320.00 60.00 320 60 319.09 60.42 318.10 60.64 317.15 60.98 316.21 61.31 315.36 61.89 314.36 62.09 313.49 62.61 312.62 63.12 311.60 63.28 310.74 63.82 309.78 64.13 308.82 64.41 307.84 64.66 306.97 65.19 306.05 65.59 305.04 65.77 304.12 66.17 303.30 66.81 302.26 66.90 301.38 67.40 300.47 67.83 299.48 68.04 298.58 68.50 297.73 69.08 296.79 69.40 295.78 69.60 294.90 70.09 293.96 70.44 292.95 70.61 292.12 71.22 291.13 71.45 290.20 71.83 289.28 72.23 288.38 72.67 287.43 73.01 286.49 73.35 285.63 73.88 284.69 74.23 283.72 74.52 282.83 74.97 281.81 75.13 280.86 75.46 280.00 76.01 279.06 76.36 278.20 76.89 277.15 76.96 276.29 77.50 275.29 77.71 274.45 78.32 273.45 78.51 272.54 78.94 271.55 79.16 270.65 79.59 269.83 80.26 268.90 80.62 267.87 80.74 266.96 81.17 266.06 81.61 265.11 81.94 264.24 82.46 263.20 82.56 262.28 82.95 261.35 83.32 260.43 83.73 259.50 84.11 258.61 84.58 257.74 85.09 256.73 85.26 255.79 85.61 254.92 86.13 253.89 86.26 252.99 86.71 252.14 87.28 251.17 87.56 250.20 87.82 249.28 88.22 248.37 88.64 247.42 88.98 246.52 89.41 245.59 89.79 244.69 90.24 243.77 90.63 242.73 90.74 241.92 91.41 240.97 91.74 239.99 91.97 239.07 92.38 238.16 92.80 237.18 93.05 236.32 93.60 235.40 93.98 234.43 94.27 233.43 94.45 232.57 95.00 231.65 95.39 230.64 95.58 229.74 96.02 228.89 96.59 227.87 96.75 226.99 97.25 226.04 97.57 225.10 97.91 224.13 98.18 223.33 98.87 222.35 99.13 221.37 99.37 220.47 99.82 219.57 100.28 218.56 100.44 217.69 100.97 216.78 101.40 215.87 101.82 214.94 102.19 214.00 102.53 213.01 102.75 212.09 103.16 211.16 103.53 210.30 104.08 209.26 104.17 208.31 104.49 207.49 105.14 206.55 105.48 205.54 105.66 204.60 106.01 203.71 106.49 202.72 106.72 201.84 107.20 200.96 107.71 200.02 108.05 199.06 108.36 198.14 108.74 197.26 109.23 196.32 109.59 195.36 109.88 194.38 110.15 193.54 110.74 192.52 110.87 191.60 111.28 190.65 111.61 189.71 111.94 188.90 112.62 187.91 112.83 186.97 113.18 186.05 113.59 185.04 113.77 184.20 114.36 183.26 114.71 182.33 115.09 181.45 115.59 180.49 115.89 179.58 116.31 178.59 116.52 177.63 116.82 176.72 117.25 175.74 117.49 174.85 117.97 174.02 118.59 173.07 118.91 172.04 119.04 171.18 119.57 170.29 120.06 169.35 120.39 168.32 120.51 167.38 120.88 166.53 121.43 165.65 121.95 164.60 122.01 163.65 122.34 162.86 123.06 161.85 123.23 160.91 123.59 159.93 123.83 159.05 124.31 158.15 124.77 157.25 125.21 156.29 125.52 155.29 125.71 154.45 126.32 153.51 126.66 152.63 127.16 151.57 127.21 150.75 127.86 149.83 128.24 148.77 128.29 147.96 128.97 146.91 129.04 146.09 129.68 145.17 130.10 144.18 130.31 143.24 130.66 142.27 130.92 141.43 131.52 140.44 131.75 139.61 132.37 138.56 132.45 137.64 132.83 136.70 133.19 135.82 133.69 134.84 133.95 134.01 134.56 132.98 134.67 132.02 134.99 131.22 135.68 130.17 135.76 129.25 136.14 128.38 136.66 127.38 136.87 126.50 137.37 125.60 137.82 124.61 138.04 123.66 138.35 122.72 138.72 121.81 139.12 120.92 139.60 119.96 139.91 120 140 120.05 141.00 120.11 142.00 119.89 143.00 120.02 144.00 119.96 145.00 120.11 146.00 120.06 147.00 120.08 148.00 120.05 149.00 119.94 150.00 119.89 151.00 119.88 152.00 120.08 153.00 120.11 154.00 120.01 155.00 119.89 156.00 119.90 157.00 120.04 158.00 119.87 159.00 120.12 160.00 120 160 119.00 159.52 119 160 118.81 159.00 119.07 158.00 119.15 157.00 119.11 156.00 118.99 155.00 118.87 154.00 118.99 153.00 119.20 152.00 118.85 151.00 119.02 150.00 118.87 149.00 119.08 148.00 118.84 147.00 119.16 146.00 118.86 145.00 118.97 144.00 118.91 143.00 118.97 142.00 119.12 141.00 118.95 140.00 119 140 118.09 139.58 117.13 139.26 116.29 138.70 115.35 138.34 114.52 137.76 113.62 137.33 112.76 136.80 111.75 136.59 111.03 135.80 110.13 135.36 109.08 135.21 108.21 134.72 107.28 134.34 106.43 133.79 105.53 133.36 104.73 132.71 103.77 132.40 102.80 132.11 102.06 131.34 101.16 130.90 100.27 130.45 99.27 130.20 98.44 129.62 97.44 129.38 96.60 128.83 95.72 128.35 94.87 127.82 93.89 127.53 93.04 127.00 92.08 126.68 91.26 126.07 90.26 125.85 89.46 125.19 88.49 124.91 87.71 124.22 86.74 123.93 85.92 123.33 84.98 122.96 84.04 122.62 83.20 122.05 82.35 121.50 81.32 121.33 80.52 120.69 79.60 120.30 78.78 119.69 77.88 119.25 76.86 119.05 76.00 118.53 75.11 118.08 74.14 117.78 73.25 117.32 72.35 116.88 71.56 116.23 70.57 115.97 69.75 115.37 68.88 114.88 67.93 114.53 67.01 114.13 66.09 113.73 65.31 113.05 64.29 112.85 63.54 112.12 62.52 111.91 61.68 111.36 60.76 110.95 59.89 110.46 59.02 109.96 58.03 109.70 57.16 109.21 56.26 108.76 55.47 108.11 54.60 107.60 53.66 107.25 52.73 106.88 51.91 106.26 51.01 105.84 50.04 105.54 49.23 104.91 48.26 104.62 47.36 104.18 46.46 103.73 45.64 103.14 44.60 102.98 43.78 102.39 42.87 101.97 42.03 101.41 41.07 101.08 40.18 100.63 39.33 100.08 38.41 99.69 37.44 99.39 36.55 98.92 35.77 98.25 34.75 98.05 33.92 97.47 33.03 97.02 32.13 96.57 31.22 96.16 30.34 95.67 29.50 95.12 28.53 94.82 27.65 94.35 26.68 94.05 25.82 93.53 24.95 93.03 24.02 92.64 23.10 92.26 22.24 91.73 21.38 91.20 20.43 90.87 19.66 90.17 18.72 89.81 17.84 89.33 16.83 89.13 16.05 88.44 15.13 88.04 14.14 87.77 13.28 87.26 12.40 86.78 11.48 86.39 10.71 85.69 9.76 85.34 8.87 84.89 8.03 84.33 7.01 84.13 6.09 83.73 5.28 83.11 4.40 82.63 3.54 82.11 2.52 81.93 1.75 81.21 0.81 80.85 -0.10 80.44 -0.95 79.91 -1 80 Z"></path></g><g transform="translate(175,38)"><path fill="white" d="M15 -3C  14.78 -1.65 14.55 -0.91 14.45 -0.20 14.43 1.13 14.52 1.99 14.77 2.54 15.06 3.51 15.47 4.32 15.81 5.53 16.52 5.89 17.13 6.68 17 7 17.45 7.95 17.81 9.22 18.52 9.89 19.53 10.08 20.19 11.00 20.86 11.93 22.14 11.74 22.70 12.87 23.97 12.65 25.00 12.82 26.14 12.68 26.84 13.33 27 13 27.65 13.48 28.14 14.45 28.49 15.78 29.18 16.55 30.32 16.56 31.02 17.37 31.81 18.01 33.03 17.81 33.99 18.01 34.79 18.41 35 18 35.48 19.11 36.58 19.15 37.19 20.16 38.06 20.71 38.97 21.20 39.74 21.94 40.78 22.14 42.13 21.68 42.82 22.41 44.08 21.94 44.94 22.13 45 22 45.83 22.45 46.39 23.49 47.28 23.92 48.17 24.34 48.95 24.97 50.24 24.56 50.88 25.41 52.16 24.89 52.93 25.30 54.17 24.64 54 25 54.99 25.18 55.88 25.51 56.89 25.48 58.09 24.93 59.05 24.78 60.02 24.46 60.70 24.68 61.76 23.73 62.40 23.70 63.40 22.42 63.84 22.46 64 22 Z"></path><path fill="#E74C3C" d="M0 0C  1.05 0.25 1.99 -0.11 2.87 -0.75 3.81 -1.02 4.85 -0.92 5.63 -1.84 6.74 -1.47 7.55 -2.21 8.38 -2.83 9.34 -3.05 10.08 -3.87 10.95 -4.30 11.75 -4.91 12.84 -4.77 13.59 -5.47 14.30 -6.25 14.91 -7.19 15 -7 16.02 -7.18 16.78 -7.94 17.75 -8.21 18.77 -8.39 19.51 -9.18 20.52 -9.36 21.76 -9.01 22.42 -9.99 23.54 -9.90 24.55 -10.05 25.38 -10.63 26.41 -10.69 27.36 -10.98 28.41 -10.97 29.48 -10.91 30.34 -11.38 31.56 -10.86 32.34 -11.57 33.42 -11.38 34.38 -11.53 35.60 -10.85 36.47 -11.25 37.44 -11.35 38.37 -11.53 39.41 -11.35 40.54 -10.76 41.61 -10.34 42.49 -10.66 43.50 -10.39 44.37 -10.73 45.39 -10.37 46.38 -10.11 47.35 -9.95 48.47 -8.93 49.31 -9.31 50.30 -8.81 51.24 -8.58 52.26 -7.77 53.18 -7.51 54.05 -7.60 54.98 -7.16 55 -7 55.92 -6.05 56.72 -6.02 57.60 -5.10 58.42 -4.68 59.24 -4.08 60.02 -4.08 60.85 -2.92 61.62 -2.58 62.38 -2.53 63.16 -1.43 63.92 -0.32 64.65 -0.43 65.38 0.87 66.09 1.26 66.80 1.66 67.46 3.10 68.14 3.52 68.81 3.98 69.42 5.23 70.08 5.48 70.72 5.93 71.26 7.35 71.90 7.65 72.41 8.88 72.93 9.95 73.50 10.46 73.95 11.75 74.49 12.31 75.02 12.89 75 13 75.31 13.83 75.59 15.07 76.12 15.42 76.62 16.21 77.16 17.04 77.58 18.57 78.32 18.93 78.99 19.76 79.66 20.69 80.44 21.31 81.30 21.72 82.19 22.11 83.01 22.81 84.11 22.51 85.06 22.77 85 23 85.77 23.50 86.27 24.23 86.20 25.98 86.28 26.14 85.57 27.80 85.01 27.96 85 28 83.99 28.20 83.04 28.21 82.10 28.15 80.97 28.62 80.11 28.31 78.93 28.86 77.91 28.91 77.02 28.63 75.86 29.01 74.85 29.02 73.94 28.69 72.93 28.66 72.02 28.34 70.85 28.64 69.71 28.86 68.95 28.12 67.78 28.39 66.87 27.99 66.06 27.38 64.92 27.51 63.74 27.73 63.06 26.79 61.77 27.24 60.91 26.70 60.03 26.19 58.92 26.22 57.99 25.81 57.29 24.90 56.30 24.64 55.45 24.06 54.44 23.85 53.68 23.05 52.50 23.23 51.55 22.90 50.72 22.27 49.86 21.74 49.25 20.62 48.28 20.36 47.45 19.78 46.69 19.04 45.84 18.53 44.95 18.13 45 18 44.35 17.15 43.56 16.64 42.70 16.29 41.97 15.60 41.23 14.90 40.51 14.11 39.86 13.09 39.08 12.41 38.19 12.08 37.28 11.78 36.57 10.81 35.71 10.34 34.77 10.09 33.98 9.32 33.09 8.88 32.31 7.99 31.30 7.99 30.49 7.15 29.53 6.93 28.60 6.59 27.63 6.35 26.66 6.15 25.81 5.38 24.95 4.58 23.83 5.10 23.04 3.89 22.06 3.65 20.98 3.99 20.01 3.70 18.98 3.73 17.98 3.61 17.01 3.29 16.04 2.98 15.14 2.27 14.03 2.78 12.99 2.83 11.96 2.87 11.06 2.27 9.98 2.56 8.97 2.53 7.94 2.55 6.92 2.57 6.18 1.89 4.97 2.46 4.21 2.13 2.75 2.86 1.80 2.84 0.93 2.86 0.27 3.00 0 3 0.01 2.01 -0.25 1.00 0 1 Z"></path></g><g transform="translate(142,53) scale(0.9)"><path fill="white" d="M5 8C  5.14 8.71 4.74 9.79 4.53 10.82 4.06 11.97 4.09 12.96 5.19 13.59 4.81 14.75 5.53 15.53 6.15 16.33 6.18 17.32 6.73 18.11 7 18 6.91 19.08 8.05 19.69 7.87 20.80 8.99 21.36 9.24 22.24 10.58 22.58 10.82 23.36 12.26 23.48 12.64 24.05 13.82 24.08 15.01 24.00 15 24 15.17 25.15 16.55 25.53 17.36 26.23 17.79 27.12 19.08 27.37 19.92 27.82 20.75 28.19 21 28 21.55 28.86 22.09 29.73 23.29 30.06 24.24 30.54 24.87 31.24 25.82 31.64 26.84 31.93 27.95 32.07 29.05 32.15 30.21 32.08 31.29 32.00 31.76 32.43 33.33 31.66 33 32 33.83 32.53 34.43 33.28 35.59 33.43 36.25 34.07 37.11 34.47 38.10 34.68 39.24 34.66 39.80 35.26 41.20 34.81 42.31 34.63 42 35 43.16 34.86 44.22 34.76 44.65 35.38 45.70 35.14 46.89 34.62 47.90 34.23 48.66 34.10 49.31 34.02 50.27 33.37 51.46 32.25 51.92 32.14 52 32 52.40 30.59 52.36 29.78 52.43 28.63 52.24 27.84 52.17 26.67 52 27 Z"></path><path fill="#FF9300" d="M0 0C  0.98 0.37 1.98 0.52 3.00 -0.03 4.00 0.22 5.00 -0.16 5 0 5.90 -0.16 6.77 -0.85 7.71 -1.06 8.51 -2.02 9.45 -2.29 10.43 -2.43 11.36 -2.78 12.35 -2.94 13.17 -3.74 14.14 -3.97 15.06 -4.38 16.12 -4.28 17.01 -4.80 18.18 -4.27 18.97 -5.19 20.14 -4.61 20.92 -5.57 22.06 -5.04 22.98 -5.40 24.04 -5.16 24.92 -5.75 25.97 -5.48 27.00 -5.29 28.00 -5.19 29.07 -4.67 29.95 -5.17 31.04 -4.43 32.01 -4.32 32.96 -4.33 33.95 -3.96 34.84 -4.35 35.86 -3.63 36.80 -3.48 37.71 -3.61 38.70 -2.73 39.62 -2.45 40.53 -2.38 41.46 -1.56 42.36 -1.11 43.26 -0.63 44.13 -0.89 45.00 -0.14 45 0 45.84 0.46 46.67 0.70 47.47 2.09 48.29 2.24 49.10 2.65 49.90 3.13 50.64 4.23 51.41 4.85 52.18 5.32 52.91 6.12 53.72 6.20 54.47 6.75 55.18 7.50 55.80 8.73 56.61 8.73 57.25 9.75 57.82 11.02 58.63 10.97 59.22 12.02 59.79 13.08 60.39 13.94 61.08 14.35 61.73 14.94 62.24 16.03 62.78 16.95 63.35 17.71 63.85 18.67 64.43 19.34 65.00 19.99 65 20 65.58 20.52 66.05 21.51 66.55 22.52 67.14 23.39 67.82 24.06 68.45 24.96 69.09 25.90 69.74 26.88 70.79 26.85 71.59 27.53 72.46 28.08 73.29 28.74 74.24 29.13 75.18 29.55 75 30 75.92 30.23 76.41 31.40 77.00 32.10 77.48 32.79 77.78 33.62 77.70 34.96 77.81 35.53 77.46 36.72 76.77 38.25 76.32 38.90 76.00 38.96 74.93 40.13 75 40 74.20 40.89 73.62 41.36 72.63 42.50 72.31 42.46 71.58 43.09 70.78 43.79 69.98 44.46 68.85 45.59 68.39 45.67 67.23 46.76 66.46 47.24 66.11 47.10 65.28 47.62 65 48 64.00 48.39 63.26 48.21 62.26 48.17 61.26 47.98 59.96 48.05 60 48 59.35 47.26 57.97 47.42 57.64 46.27 56.69 45.87 55.95 45.22 54.71 45.15 54.36 44.01 53.56 43.41 52.83 42.73 52.16 41.99 51.01 41.84 50.87 40.46 49.71 40.36 50 40 49.34 39.34 48.75 38.58 48.33 37.61 47.86 36.69 47.23 35.96 46.51 35.34 46.18 34.21 45.30 33.80 44.73 32.96 44.35 31.86 43.43 31.50 42.66 30.92 42.48 29.50 41.67 28.97 40.69 28.68 40.14 27.78 39.60 26.84 38.65 26.49 37.91 25.85 37.17 25.20 36.54 24.37 35.73 23.82 35.16 22.91 33.89 23.03 33.32 22.12 32.46 21.63 31.49 21.31 30.60 20.87 29.83 20.25 30 20 28.99 19.70 28.15 19.15 27.54 18.27 26.70 17.72 25.42 17.84 24.69 17.15 23.50 17.13 22.81 16.43 21.94 15.98 21.15 15.46 19.71 15.79 19.14 15.01 18.10 14.87 16.90 14.91 15.88 14.74 15.00 14.46 13.65 14.66 13.21 14.01 11.79 14.28 10.76 14.23 10.00 14.00 8.69 14.18 8.19 13.88 6.79 14.13 5.62 14.25 5.05 14.16 4.44 14.17 2.81 14.47 2.14 14.58 1.11 14.78 0.24 15.00 0 15 -0.58 14.89 -2.39 14.65 -2.60 14.60 -4.29 14.21 -5.02 14.04 -5.53 13.97 -7.12 13.39 -8.17 13.01 -8.98 12.73 -9.48 12.68 -10.63 12.12 -11.33 11.93 -12.42 11.32 -13.19 11.02 -14.28 10.28 -14.87 10.20 -15 10 -14.22 9.39 -13.63 8.48 -12.80 7.94 -12.13 7.13 -11.40 6.41 -10.38 6.18 -9.81 5.15 -8.73 5.05 -8.00 4.27 -7.38 3.28 -6.21 3.38 -5.44 2.66 -4.50 2.31 -3.83 1.32 -2.90 0.91 -1.96 0.55 -1.08 0.00 0.14 0.37 0 0 Z"></path><path fill="white" d="M72 27C  71.67 28.42 71.70 28.98 71.43 30.39 71.72 30.57 71.63 31.71 71.39 33.25 71.34 34.43 71.65 34.93 71.86 35.74 72.05 36.64 71.76 38.51 72.07 39.30 72.32 40.26 72.84 40.79 73.20 41.66 73 42 71.89 42.46 70.89 42.18 71 42 70.64 41.13 70.53 39.88 70.38 38.73 70.18 37.72 70.00 36.75 69.82 35.82 69.37 35.49 69.43 34.24 69.32 33.38 69.54 31.92 69.42 31.23 69.53 30.15 69.68 29.04 69.76 28.17 70.00 27.00 70 27 Z" opacity="0.5"></path><path fill="white" d="M55 6C  55.42 6.89 55.87 7.42 56.18 8.67 56.53 9.49 56.74 10.90 57.15 11.13 57.26 12.66 57.59 13.05 57.65 14.46 57.69 15.75 57.84 16.51 58.03 17.06 58.05 18.08 58.03 19.10 57.96 20.18 57.94 21.01 57.66 22.45 57.73 22.88 57.63 23.66 57.26 25.02 56.84 26.36 57 26 56.61 27.45 56.65 28.05 56.32 29.47 56.50 29.96 56.25 31.32 56.31 32.17 56.50 32.86 56.32 34.23 56.30 35.37 56.55 36.12 56.89 36.79 56.79 38.18 57.24 38.78 57.01 40.40 57.55 40.96 57.93 41.79 57.68 43.50 58.39 43.94 58.47 45.26 59.17 45.79 59 46 58.09 46.16 57.18 45.78 57 46 56.73 44.92 55.98 44.48 56.19 42.83 55.80 41.98 55.28 41.34 55.37 39.91 54.70 39.55 54.98 37.90 54.73 37.04 54.70 35.90 54.45 35.12 54.51 33.92 54.45 32.95 54.30 32.19 54.48 30.91 54.51 29.94 54.41 29.28 54.67 28.02 54.78 27.09 54.88 26.24 55 26 55.18 25.26 55.70 23.65 55.55 23.50 55.74 22.49 56.06 21.00 56.13 20.06 56.26 18.84 56.28 17.83 56.14 17.18 56.11 16.11 56.01 15.11 55.92 13.95 55.62 13.48 55.33 12.90 55.16 11.63 54.90 10.60 54.64 9.39 54.24 8.77 53.84 7.98 53.39 7.36 53.00 5.97 53 6 Z" opacity="0.6"></path><path fill="white" d="M35 -5C  35.75 -3.81 36.33 -3.79 37.00 -2.65 37.61 -1.65 38.17 -1.40 38.72 -0.65 39.24 0.65 39.72 1.66 40.21 2.05 40.59 3.57 41.02 4.02 41.41 4.74 41.73 5.74 41.89 7.53 42.15 8.38 42.34 9.46 42.72 9.57 42.73 11.14 42.83 12.17 43.07 12.61 43.15 13.54 42.98 15.05 43 15 42.77 16.00 42.77 17.00 42.50 18.00 42.65 19.00 42.57 20.00 42.85 21.00 43.42 22.00 42.92 23.00 42.62 24.00 43.19 25.00 42.85 26.00 43.12 27.00 42.61 28.00 43.15 29.00 43.43 30.00 43 30 41.73 30.64 40.71 30.40 41 30 41.13 29.00 40.83 28.00 40.62 27.00 41.48 26.00 41.28 25.00 40.88 24.00 40.73 23.00 41.00 22.00 40.57 21.00 41.16 20.00 40.63 19.00 40.65 18.00 41.49 17.00 40.97 16.00 41.02 15.00 41 15 41.11 13.74 41.09 12.76 40.93 12.10 40.95 10.69 40.73 10.02 40.56 9.06 40.41 7.80 40.12 7.05 39.89 5.77 39.52 5.14 39.21 3.79 38.81 2.78 38.37 1.96 37.88 1.50 37.38 0.67 36.85 -0.28 36.29 -1.04 35.68 -2.23 35.08 -2.51 34.43 -3.31 33.73 -4.15 33.00 -5.01 33 -5 Z" opacity="0.6"></path><path fill="white" d="M18 -6C  18.71 -5.68 19.63 -4.41 20.22 -4.34 20.91 -3.77 21.66 -2.48 22.30 -1.58 22.85 -1.48 23.43 0.20 23.96 0.36 24.45 1.31 24.85 2.69 25.33 2.92 25.70 3.83 25.98 5.06 26.32 5.74 26.43 7.19 26.68 7.97 26.92 8.67 27.01 9.72 26.74 11.53 26.82 12.32 27.00 12.85 26.95 13.80 26.58 15.23 26.42 16.17 26.06 17.35 26.17 17.76 26 18 24.90 18.40 24.11 17.85 24 18 24.54 16.64 24.27 16.40 24.80 14.85 24.91 13.88 24.93 13.01 24.90 12.14 24.94 11.04 24.86 10.13 24.86 8.86 24.62 8.17 24.40 7.30 24.12 6.58 23.95 5.20 23.71 3.85 23.34 2.89 22.83 2.87 22.46 1.04 21.95 0.61 21.43 0.26 20.88 -0.89 20.24 -2.19 19.69 -2.25 18.91 -3.72 18.37 -3.68 17.60 -4.57 16.91 -5.03 16.14 -5.64 16 -6 Z" opacity="0.6"></path><path fill="white" d="M5 -1C  5.46 -0.06 5.93 0.33 6.22 1.82 6.53 2.76 6.90 3.52 7.36 4.15 7.44 5.35 7.68 6.26 7.64 7.45 8.23 7.95 8.33 8.93 8.20 10.07 8.13 11.11 8.53 11.80 8.16 12.99 8.41 13.76 8 14 7.42 14.06 5.82 14.08 6 14 6.20 12.98 5.78 12.25 6.27 11.03 5.81 10.32 6.19 9.08 6.05 8.13 5.93 7.15 5.95 6.02 5.45 5.33 5.03 4.60 4.76 3.70 4.73 2.34 4.15 1.94 3.87 0.77 3.47 0.29 2.94 -1.19 3 -1 Z" opacity="0.6"></path><path fill="white" d="M-9 5C  -8.98 5.85 -8.71 7.10 -8.62 8.15 -8.40 9.35 -8.48 10.28 -8.66 11.18 -9.05 11.96 -9 12 -10.39 11.95 -10.93 12.06 -11 12 -10.98 10.91 -10.50 10.33 -10.83 8.92 -10.95 7.75 -10.58 7.33 -10.96 5.85 -10.92 5.17 -11 5 Z" opacity="0.6"></path></g><g transform="translate(98,74)"><path fill="white" d="M2 5C  1.69 5.94 1.15 6.97 0.99 7.94 1.59 8.80 1.47 9.81 1.99 10.71 1.96 11.69 2.16 12.62 2.42 13.53 2.98 14.34 3.87 15.03 4 15 4.29 15.90 4.63 16.79 5.30 17.56 5.95 18.32 7.45 18.75 7.34 19.75 8.72 20.15 8.86 21.03 9.32 21.78 11.03 21.91 12.03 22.32 12.29 23.10 12.92 23.67 14.01 23.95 15.03 24.23 16.20 24.37 16.79 24.85 17.66 25.12 19.23 24.82 19 25 19.39 25.96 20.29 26.52 21.19 27.06 22.47 27.27 23.01 28.06 24.16 28.32 25.17 28.65 26.07 29.06 27.23 29.20 28.16 29.51 29.17 29.70 29.92 30.11 30.81 30.35 31.95 30.27 32.78 30.49 33.91 30.32 34.67 30.52 36.19 29.77 36 30 36.43 31.02 37.38 31.43 38.61 31.48 39.38 32.06 40.19 32.55 41.34 32.57 42.28 32.77 43.25 32.86 44.18 32.90 45.17 32.77 45 33 45.95 33.24 46.72 33.66 48.10 33.13 48.97 33.21 49.67 33.44 51.11 32.43 51.58 32.75 52.55 32.16 53.59 31.24 54.41 30.52 55.11 29.79 55 30 55.21 28.99 55.31 27.99 55.52 26.56 55.39 25.59 54.90 25.21 55 25 Z"></path><path fill="#E3F4F3" d="M0 0C  1.03 -0.20 1.77 -0.92 2.52 -1.64 3.41 -2.09 4.30 -2.55 5.17 -3.04 6.20 -3.20 7.11 -3.60 8.07 -3.89 9.09 -4.04 10.21 -3.93 11.25 -3.97 11.91 -5.00 13.22 -4.28 14.14 -4.61 15.01 -5.11 16.07 -5.01 17.05 -5.13 17.91 -5.64 19.06 -5.15 20.10 -4.99 21.08 -5.01 21.98 -5.35 22.98 -5.30 23.98 -5.17 24.94 -5.21 25.95 -4.98 26.99 -4.51 27.95 -4.45 28.96 -3.96 29.86 -4.19 30.78 -4.26 31.79 -3.59 32.73 -3.36 33.68 -2.96 34.62 -2.52 35.54 -2.14 36.47 -1.47 37.36 -1.23 38.25 -0.74 39.13 -0.87 40.00 -0.38 40 0 40.83 0.69 41.68 0.63 42.47 2.06 43.30 2.09 44.12 2.25 44.87 3.51 45.64 4.17 46.44 4.46 47.19 5.20 47.98 5.51 48.72 6.21 49.36 7.48 50.19 7.47 50.90 8.15 51.60 8.85 52.15 10.29 52.92 10.49 53.49 11.66 54.14 12.38 54.88 12.65 55.39 13.89 56.14 14.10 56.64 15.26 57.26 15.95 57.74 17.07 58.48 17.27 58.87 18.58 59.58 18.86 60.03 19.92 60 20 60.16 21.29 60.46 22.26 60.83 23.13 61.43 23.52 61.72 24.80 62.25 25.54 62.48 27.07 63.09 27.76 63.57 28.80 64.30 29.34 64.91 30.20 65 30 64.93 31.33 65.13 31.74 65 32 64.31 32.30 63.15 33.50 62.56 33.54 61.86 33.79 60.89 34.49 60.00 35.01 59.24 35.27 58.07 36.19 57.49 36.10 56.42 36.78 55.58 37.06 54.66 37.44 53.57 38.03 53.05 37.79 51.93 38.37 50.77 38.95 49.92 39.11 50 39 49.21 38.38 47.77 38.55 47.12 37.71 46.02 37.41 44.83 37.20 45 37 44.23 36.47 43.85 35.46 43.28 34.67 42.81 33.74 42.09 33.14 41.57 32.26 41.01 31.43 40.73 30.23 39.85 29.79 38.98 29.36 38.73 28.08 38.01 27.43 37.31 26.75 36.39 26.37 36.08 25.13 34.97 25.01 34.43 24.09 33.70 23.42 33.16 22.48 32.29 22.02 31.56 21.35 30.55 21.09 29.79 20.46 29.18 19.61 28.34 19.09 27.54 18.52 26.80 17.86 25.95 17.36 25.05 16.93 25 17 24.15 16.49 23.45 15.76 22.28 15.73 21.58 15.00 20.85 14.33 19.71 14.24 19.12 13.40 18.31 12.88 17.07 12.94 16.13 12.60 15.53 11.85 14.10 12.14 13.24 11.74 12.38 11.37 11.68 10.86 10.38 10.98 9.30 10.88 8.89 10.23 7.42 10.48 6.57 10.27 5.79 10.06 4.38 10.20 3.42 10.12 2.82 9.98 1.45 10.06 0.92 10.04 -0.11 10.12 -1.24 10.20 -2.08 10.34 -3.23 10.44 -4.02 10.67 -5.04 10.84 -6.59 10.73 -6.99 11.28 -7.91 11.57 -9.12 11.65 -10.28 11.77 -10 12 -11.14 11.73 -12.03 11.67 -13.22 11.24 -13.89 11.40 -14.77 11.31 -15 11 -14.08 10.67 -13.90 9.27 -13.00 8.90 -12.34 8.17 -11.87 7.13 -10.90 6.85 -10.21 6.15 -9.42 5.59 -8.65 4.99 -7.78 4.57 -7.11 3.79 -6.08 3.66 -5.31 3.05 -4.70 2.12 -3.79 1.77 -3.03 1.12 -2.03 0.93 -2 1 Z"></path><path fill="#C5D2D1" d="M0 0C  0.93 -0.37 1.91 -0.61 2.67 -1.34 3.74 -1.38 4.55 -1.99 5.57 -2.13 6.45 -2.59 7.48 -2.68 8.39 -3.05 9.40 -3.16 10.38 -3.35 11.37 -3.46 12.30 -3.78 13.36 -3.67 14.28 -3.99 15.34 -3.79 16.24 -4.20 17.30 -3.95 18.34 -3.77 19.29 -3.91 20.22 -4.16 21.24 -3.94 22.21 -3.94 23.26 -3.40 24.22 -3.41 25.18 -3.39 26.19 -2.87 27.15 -2.72 28.10 -2.58 29.06 -2.15 29.99 -2.09 30 -2 30.92 -1.70 31.84 -1.38 32.76 -0.93 33.67 -0.12 34.56 0.25 35.46 0.58 36.33 1.36 37.22 1.52 38.08 2.11 38.93 2.81 39.77 3.33 40.62 3.83 41.45 4.37 42.28 4.85 43.05 5.76 43.89 6.12 44.67 6.78 45.42 7.61 46.18 8.26 46.94 8.93 47.66 9.72 48.38 10.43 49.13 11.00 49.87 11.58 50.56 12.34 51.21 13.20 51.88 13.95 52.46 15.00 53.11 15.74 53.83 16.22 54.36 17.30 55.00 18.01 55 18 55.66 18.59 56.16 19.64 56.73 20.44 57.19 21.50 57.86 22.00 58.33 22.98 58.80 23.91 59.28 24.80 59.76 25.68 60.28 26.43 60.72 27.33 61.15 28.24 61.45 29.39 61.93 30.15 62.23 31.23 62.66 32.03 63.04 32.93 63 33 62.04 33.92 62 34 61.62 33.12 61.22 32.24 60.83 31.34 60.48 30.34 60.19 29.17 59.76 28.26 59.25 27.49 58.82 26.55 58.33 25.70 57.83 24.84 57.22 24.24 56.87 22.97 56.29 22.25 55.75 21.38 55.16 20.62 54.54 19.95 53.99 19.04 54 19 53.38 18.24 52.82 17.28 52.22 16.40 51.56 15.66 50.92 14.82 50.14 14.46 49.57 13.31 48.81 12.83 48.15 11.93 47.37 11.47 46.65 10.72 45.91 10.05 45.23 9.05 44.41 8.66 43.63 8.00 42.87 7.23 42.06 6.66 41.27 5.97 40.44 5.44 39.62 4.83 38.79 4.14 37.93 3.77 37.06 3.40 36.20 2.86 35.34 2.18 34.45 1.77 33.56 1.40 32.67 0.66 31.76 0.43 30.85 -0.20 29.93 -0.72 29.01 -0.85 29 -1 28.05 -1.40 27.11 -1.35 26.15 -1.59 25.18 -1.92 24.18 -2.38 23.21 -2.47 22.24 -2.52 21.25 -2.70 20.25 -2.92 19.30 -2.71 18.24 -3.17 17.31 -2.85 16.29 -3.01 15.27 -3.13 14.28 -3.07 13.28 -3.02 12.33 -2.76 11.38 -2.47 10.37 -2.44 9.35 -2.43 8.36 -2.29 7.48 -1.74 6.40 -1.94 5.47 -1.59 4.56 -1.12 3.56 -1.04 2.62 -0.73 1.72 -0.24 0.82 0.13 -0.10 0.58 -0.87 1.13 -1 1 Z"></path><path fill="#C5D2D1" d="M-3 2C  -2.11 1.57 -1.25 1.11 -0.16 0.83 0.57 0.58 1.59 0.23 2.55 -0.05 3.46 -0.70 4.47 -0.61 5.42 -0.97 6.36 -1.34 7.41 -1.15 8.35 -1.54 9.35 -1.56 10.29 -1.96 11.28 -2.07 12.33 -1.75 13.32 -1.83 14.29 -2.03 15.31 -1.77 16.26 -2.08 17.29 -1.77 18.24 -2.00 19.25 -1.74 20.22 -1.81 21.22 -1.36 22.21 -1.01 23.16 -1.23 24.14 -0.64 25.09 -0.81 26.05 -0.42 27.00 -0.02 27 0 27.90 0.29 28.79 0.83 29.67 1.47 30.57 1.56 31.44 2.01 32.28 2.77 33.15 3.13 34.00 3.61 34.85 4.06 35.67 4.66 36.47 5.33 37.29 5.89 38.07 6.54 38.87 7.12 39.67 7.61 40.50 7.95 41.19 8.93 42.01 9.25 42.72 10.06 43.42 10.86 44.14 11.51 44.83 12.29 45.63 12.62 46.31 13.34 46.92 14.27 47.57 15.05 48.30 15.55 48.84 16.60 49.46 17.38 50.14 17.96 50.79 18.60 51.27 19.68 51.98 20.14 52.52 21.01 52.93 22.18 53 22 53.47 23.04 54.05 23.79 54.71 24.33 55.27 25.08 55.77 25.96 56.20 26.96 56.61 27.96 57.24 28.50 57.56 29.65 58.11 30.32 58.42 31.42 58.88 32.24 59.27 33.15 59.70 33.98 60.03 34.95 60 35 58.91 36.15 59 36 58.60 35.14 58.20 34.27 57.84 33.30 57.40 32.46 57.03 31.47 56.59 30.59 56.25 29.50 55.73 28.73 55.17 28.01 54.72 27.07 54.13 26.39 53.56 25.65 53.16 24.52 52.55 23.84 52.06 22.87 52 23 51.54 21.97 50.80 21.59 50.35 20.47 49.80 19.59 49.09 19.08 48.54 18.15 47.88 17.47 47.17 16.92 46.58 16.01 45.89 15.37 45.31 14.36 44.58 13.79 43.90 13.02 43.18 12.37 42.41 11.88 41.67 11.26 41.00 10.33 40.21 9.83 39.44 9.23 38.63 8.76 37.95 7.72 37.10 7.40 36.29 6.86 35.52 6.05 34.70 5.45 33.83 5.19 32.97 4.85 32.16 4.02 31.29 3.67 30.40 3.42 29.56 2.67 28.68 2.20 27.80 1.68 26.90 1.47 25.99 1.13 26 1 25.05 0.67 24.10 0.28 23.13 0.20 22.17 -0.15 21.19 -0.39 20.22 -0.25 19.23 -0.74 18.24 -0.94 17.26 -0.91 16.27 -0.83 15.29 -0.77 14.27 -1.22 13.29 -1.01 12.31 -0.86 11.28 -1.15 10.30 -0.99 9.30 -1.04 8.35 -0.44 7.34 -0.59 6.35 -0.61 5.39 -0.30 4.42 0.12 3.46 0.16 2.54 0.31 1.59 0.71 0.60 1.11 -0.14 1.49 -1.13 1.90 -2.28 2.09 -3.14 2.53 -3.97 3.04 -4 3 Z"></path><path fill="#C5D2D1" d="M-8 5C  -7.03 4.69 -6.26 4.07 -5.32 3.73 -4.37 3.41 -3.34 3.18 -2.59 2.68 -1.63 2.44 -0.40 2.29 0.40 2.02 1.50 1.73 2.41 1.56 3.33 1.49 4.35 1.26 5.27 1.40 6.35 0.90 7.31 1.00 8.29 1.01 9.30 0.84 10.30 0.82 11.27 1.10 12.29 0.86 13.26 1.17 14.26 1.18 15.25 1.21 16.23 1.41 17.18 1.85 18.16 2.03 19.11 2.40 20.13 2.18 21.06 2.63 21.98 3.15 22 3 22.91 3.54 23.85 3.84 24.78 4.22 25.68 4.71 26.59 5.09 27.50 5.50 28.39 5.98 29.28 6.45 30.19 6.78 30.99 7.58 31.89 7.95 32.74 8.47 33.63 8.87 34.43 9.55 35.24 10.17 36.02 10.86 36.84 11.41 37.66 11.94 38.47 12.51 39.19 13.31 39.96 13.92 40.72 14.57 41.46 15.26 42.28 15.69 42.97 16.49 43.64 17.29 44.41 17.82 45.07 18.61 45.80 19.24 46.28 20.39 46.98 21.04 47 21 47.67 21.63 48.15 22.67 48.87 23.15 49.48 23.89 49.96 24.84 50.57 25.53 51.10 26.36 51.50 27.41 52.16 27.96 52.65 28.83 53.01 29.89 53.54 30.63 53.82 31.79 54.43 32.37 54.87 33.23 55.25 34.16 55.50 35.28 56.10 35.84 56 36 55.07 36.89 55 37 54.66 36.04 54.19 35.26 53.90 34.18 53.48 33.29 52.95 32.57 52.39 31.89 51.96 30.97 51.43 30.21 51.15 28.99 50.55 28.33 50.04 27.47 49.41 26.83 49.01 25.76 48.31 25.21 47.71 24.49 47.11 23.73 46.71 22.55 46.04 21.92 46 22 45.41 21.12 44.62 20.65 44.07 19.63 43.38 18.92 42.73 18.07 41.92 17.61 41.30 16.66 40.49 16.17 39.80 15.35 39.04 14.70 38.31 13.96 37.42 13.64 36.69 12.85 35.87 12.31 35.05 11.76 34.34 10.86 33.39 10.65 32.53 10.18 31.72 9.55 30.97 8.67 30.08 8.24 29.11 8.09 28.32 7.27 27.38 7.00 26.57 6.21 25.67 5.77 24.72 5.49 23.82 4.98 22.91 4.52 21.92 4.45 21.02 3.89 21 4 20.09 3.51 19.10 3.40 18.10 3.36 17.16 3.00 16.22 2.61 15.19 2.69 14.24 2.38 13.22 2.42 12.27 2.12 11.26 2.16 10.30 1.91 9.32 1.80 8.25 2.14 7.36 1.77 6.28 2.10 5.40 1.89 4.28 2.29 3.25 2.44 2.42 2.39 1.30 2.66 0.61 2.78 -0.48 3.04 -1.51 3.28 -2.44 3.57 -3.52 3.74 -4.32 4.21 -5.36 4.42 -6.35 4.69 -7.08 5.33 -8.11 5.57 -9.08 5.89 -9 6 Z"></path><path fill="#C5D2D1" d="M-11 8C  -9.95 7.77 -9.18 7.18 -8.34 6.71 -7.46 6.31 -6.37 6.15 -5.62 5.65 -4.54 5.50 -3.63 5.21 -2.44 5.09 -1.83 4.74 -0.86 4.59 0.35 4.46 1.40 4.30 2.21 4.26 3.24 4.17 4.27 4.08 5.40 3.86 6.37 3.86 7.26 4.04 8.38 3.81 9.36 3.88 10.32 4.02 11.26 4.25 12.28 4.28 13.18 4.66 14.21 4.69 15.20 4.83 16.10 5.28 17.12 5.36 18.00 5.85 19.05 5.85 19 6 19.97 6.27 20.84 6.87 21.77 7.25 22.64 7.80 23.61 8.05 24.53 8.46 25.35 9.13 26.13 9.91 27.00 10.42 27.89 10.84 28.73 11.41 29.70 11.67 30.45 12.43 31.18 13.25 32.09 13.61 32.92 14.16 33.68 14.85 34.47 15.47 35.27 16.08 35.85 17.12 36.61 17.76 37.49 18.16 38.14 19.00 38.76 19.89 39.57 20.41 40.31 21.06 40.93 21.91 41.50 22.84 42.16 23.57 42.82 24.32 43.48 25.04 43.94 26.10 44 26 44.76 26.63 45.25 27.71 46.06 28.24 46.64 29.12 47.23 29.99 47.67 31.08 48.39 31.71 48.92 32.64 49.47 33.51 50.12 34.22 50.42 35.43 50.91 36.36 51.39 37.28 52.08 37.89 52 38 51.15 38.80 51 39 50.56 38.04 49.94 37.31 49.65 36.11 48.90 35.53 48.46 34.52 47.87 33.71 47.24 32.94 46.66 32.08 46.16 31.11 45.46 30.40 45.06 29.24 44.45 28.39 43.67 27.79 42.96 27.07 43 27 42.38 26.22 41.80 25.35 41.10 24.68 40.63 23.61 39.84 23.07 39.13 22.37 38.54 21.48 37.92 20.60 37.08 20.12 36.46 19.22 35.76 18.47 34.95 17.91 34.17 17.29 33.36 16.72 32.64 15.96 31.96 15.10 31.08 14.65 30.29 14.00 29.34 13.68 28.60 12.91 27.68 12.53 26.99 11.61 25.99 11.40 25.24 10.62 24.30 10.25 23.51 9.55 22.51 9.32 21.66 8.74 20.71 8.39 19.84 7.85 18.95 7.34 17.96 7.10 18 7 17.04 6.74 16.03 6.59 15.06 6.35 14.14 6.02 13.14 5.87 12.23 5.52 11.31 5.24 10.26 5.25 9.35 5.00 8.39 4.88 7.17 5.18 6.26 5.02 5.21 5.07 4.37 4.94 3.18 5.12 2.19 5.16 1.54 5.14 0.20 5.32 -0.80 5.44 -1.46 5.67 -2.64 5.79 -3.39 6.14 -4.43 6.34 -5.40 6.61 -6.61 6.66 -7.47 7.04 -8.25 7.54 -9.30 7.77 -10.08 8.31 -10.96 8.76 -12.07 8.91 -12 9 Z"></path></g><g transform="translate(35,100)"><path fill="white" d="M15 -3C  14.75 -1.90 14.57 -0.73 14.45 0.29 14.44 0.89 14.55 1.73 14.70 2.93 15.10 3.35 15.45 4.37 15.83 5.48 16.26 6.56 17.03 6.93 17 7 17.55 8.05 18.30 8.73 19.34 8.86 20.13 9.59 21.18 9.77 22.07 10.30 23.08 10.52 23.94 11.01 24.81 11.43 25 11 25.33 12.14 25.88 12.95 26.48 13.82 27.48 13.99 28.06 15.05 29.27 14.90 30.13 15.41 30.91 16.05 31.79 16.41 32.91 16.18 33 16 33.30 17.10 34.02 17.49 34.66 18.16 34.86 19.71 35.79 19.99 36.36 20.96 37.43 21.04 38.28 21.54 39.07 22.11 40.03 22.35 41.14 22.24 42.03 22.49 43.07 22.35 43.95 22.40 45.17 21.65 45 22 45.56 22.99 46.53 23.22 47.43 23.61 48.38 23.93 49.07 24.75 50.15 24.74 51.06 25.04 51.95 25.31 53.13 24.90 53.94 25.13 54 25 55.00 25.15 56.02 25.19 56.82 25.65 58.12 24.86 59.12 24.63 59.78 25.03 60.95 24.04 61.70 23.89 62.44 23.59 63.45 22.28 63.86 22.39 64 22 Z"></path><path fill="#FAE4E2" d="M0 0C  0.95 -0.34 1.58 -1.15 2.66 -1.29 3.10 -2.42 4.04 -2.77 4.78 -3.44 5.69 -3.81 6.67 -4.09 7.76 -4.13 8.47 -4.86 9.57 -4.88 10.27 -5.64 11.19 -5.97 12.02 -6.48 13.21 -6.27 14.11 -6.63 14.87 -7.29 15 -7 15.83 -7.60 16.71 -8.08 17.95 -7.77 18.75 -8.43 19.83 -8.47 20.72 -8.91 21.69 -9.17 22.64 -9.47 23.59 -9.78 24.44 -10.31 25.35 -10.69 26.57 -10.29 27.68 -10.14 28.55 -10.61 29.44 -11.02 30.38 -11.27 31.64 -10.62 32.43 -11.31 33.64 -10.72 34.50 -11.17 35.50 -11.16 36.58 -10.89 37.51 -11.11 38.44 -11.29 39.55 -10.83 40.46 -11.04 41.45 -10.95 42.43 -10.90 43.38 -10.89 44.56 -9.91 45.36 -10.50 46.40 -10.02 47.42 -9.60 48.44 -9.07 49.28 -9.44 50.28 -8.95 51.29 -8.27 52.20 -8.16 53.12 -7.95 54.05 -7.61 54.95 -7.37 55 -7 55.86 -6.26 56.65 -6.06 57.45 -5.79 58.31 -4.67 59.11 -4.07 59.90 -3.46 60.67 -2.94 61.45 -2.17 62.20 -1.83 62.95 -1.29 63.69 -0.17 64.42 0.06 65.14 0.41 65.85 1.17 66.53 2.42 67.24 2.63 67.92 3.27 68.59 3.83 69.18 5.42 69.84 5.92 70.45 6.78 71.08 7.41 71.66 8.29 72.22 9.27 72.91 9.22 73.39 10.56 73.95 11.30 74.54 11.79 75.03 12.84 75 13 75.38 14.29 76.00 14.55 76.40 16.15 77.11 16.40 77.74 17.22 78.41 18.01 79.11 18.80 79.73 20.05 80.68 20.04 81.51 20.64 82.37 21.17 83.07 22.40 84.15 22.25 85.06 22.79 85 23 83.89 23.64 82.99 23.46 81.99 23.66 81.07 23.55 79.95 24.07 79.08 23.78 78.01 24.10 77.15 23.73 75.99 24.30 75.09 24.03 74.15 23.87 73.08 24.10 72.11 24.03 71.01 24.30 70.16 23.84 69.19 23.69 68.09 23.93 67.02 24.07 66.15 23.61 65.13 23.59 64.11 23.55 63.12 23.40 62.28 22.85 61.23 22.88 60.28 22.62 59.28 22.46 58.13 22.72 57.10 22.63 56.41 21.66 55.20 22.03 54.26 21.70 53.54 20.84 52.46 20.86 51.40 20.82 50.39 20.65 49.64 19.83 48.83 19.19 47.57 19.63 46.94 18.54 45.90 18.44 45.11 17.73 45 18 44.18 17.58 43.68 16.31 42.91 15.72 41.97 15.59 41.42 14.34 40.55 14.00 39.70 13.55 39.08 12.41 38.20 12.05 37.38 11.46 36.61 10.68 35.68 10.44 34.74 10.20 34.01 9.21 33.23 8.36 32.20 8.41 31.28 8.06 30.48 7.19 29.49 7.13 28.68 6.23 27.70 6.07 26.67 6.14 25.78 5.53 24.86 5.05 23.95 4.50 23.02 3.98 22.03 3.83 21.09 3.38 19.97 3.92 19.04 3.41 18.04 3.26 17.11 2.69 16.03 3.01 15.10 2.49 14.02 2.81 13.01 2.74 12.01 2.61 11.07 2.24 9.97 2.60 8.93 2.69 7.92 2.62 6.89 2.68 5.87 2.67 4.85 2.71 4.09 2.32 3.12 2.42 2.28 2.48 0.80 2.90 -0.03 3.00 0 3 -0.42 1.98 -0.01 1.00 0 1 Z"></path><path fill="#FF7468" d="M85 23C  85.77 23.46 86.27 24.21 86.46 25.10 86.24 26.28 85.75 27.22 84.89 28.33 85 28 84.02 28.01 82.97 28.18 81.92 28.35 80.99 28.16 80.02 28.05 78.99 28.11 78.01 28.01 76.96 28.09 75.97 27.98 74.85 28.20 73.88 28.02 72.98 27.65 71.96 27.57 70.85 27.71 69.93 27.36 68.94 27.19 67.97 26.94 66.89 26.97 65.99 26.53 65.05 26.20 64.05 25.98 63.10 25.67 62.11 25.44 61.08 25.30 60.17 24.87 59.24 24.48 58.33 24.05 57.26 23.98 56.45 23.32 55.40 23.21 54.55 22.63 53.61 22.27 52.71 21.82 51.81 21.37 51.03 20.62 50.10 20.25 49.19 19.83 48.32 19.32 47.52 18.65 46.60 18.29 45.79 17.67 44.96 17.11 45 17 44.37 16.11 43.41 16.10 42.95 14.67 42.23 13.96 41.37 13.64 40.53 13.27 39.91 12.17 39.03 11.86 38.17 11.51 37.33 11.09 36.60 10.27 35.81 9.60 34.95 9.20 35 9 35.86 9.42 36.67 10.08 37.55 10.48 38.41 10.96 39.16 11.81 40.03 12.28 41.03 12.32 41.89 12.84 42.70 13.53 43.59 13.97 44.46 14.46 45.42 14.69 46.24 15.36 47.23 15.49 48.10 16.03 49.00 16.46 50.01 16.56 50.86 17.14 51.85 17.29 52.75 17.73 53.66 18.15 54.61 18.42 55.52 18.82 56.60 18.72 57.47 19.24 58.38 19.64 59.46 19.53 60.29 20.16 61.40 19.95 62.32 20.31 63.23 20.71 64.26 20.72 65.15 21.15 66.19 21.12 67.17 21.26 68.21 21.23 69.19 21.36 70.20 21.40 71.12 21.70 72.08 21.90 73.02 22.12 74.11 21.86 75.07 22.02 76.07 22.03 77.00 22.26 77.99 22.30 79.08 21.93 79.98 22.26 81.08 21.85 82.01 22.04 83.01 21.95 83 22 Z"></path><path fill="white" d="M25 5C  26.04 4.82 27.03 4.86 28.04 4.83 28.97 5.29 30.03 4.97 31.03 5.02 32.02 5.15 32.98 5.45 34.02 5.26 34.98 5.61 36.02 5.40 37.01 5.56 37.96 5.99 38.96 6.06 39.95 6.20 40.99 6.01 41.95 6.37 42.91 6.72 43.97 6.43 44.91 6.94 45.91 7.01 46.89 7.20 47.83 7.65 48.83 7.72 49.83 7.80 50.82 7.93 51.76 8.37 52.72 8.71 53.69 8.89 54.64 9.25 55.56 9.76 56.55 9.87 57.54 10.00 58.47 10.42 59.38 10.95 60.34 11.17 61.29 11.44 62.20 11.96 63.15 12.20 64.12 12.38 64.96 13.21 65 13 66.02 13.14 66.93 13.79 67.96 13.88 68.90 14.40 69.88 14.75 70.97 14.59 71.90 15.16 72.89 15.48 73.98 15.34 74.98 15.59 76.00 15.76 77.05 15.77 77 16 77.70 16.53 78.36 17.23 78.98 18.07 79 18 77.92 18.09 76.99 17.53 75.89 17.71 74.90 17.44 73.96 16.89 72.90 16.91 71.89 16.69 70.98 16.03 69.93 16.01 68.95 15.67 67.98 15.32 67.03 14.85 67 15 66.10 14.51 65.18 14.06 64.27 13.60 63.26 13.62 62.38 12.99 61.40 12.82 60.46 12.46 59.53 12.04 58.54 11.86 57.62 11.41 56.68 11.03 55.73 10.64 54.72 10.59 53.83 9.91 52.80 9.98 51.84 9.66 50.91 9.15 49.89 9.17 48.96 8.63 47.94 8.65 47.01 8.11 45.98 8.18 44.98 8.03 44.01 7.74 42.98 7.76 42.04 7.31 41.02 7.31 40.00 7.29 39.07 6.74 38.04 6.82 37.08 6.48 36.00 6.79 35.01 6.63 34.00 6.56 33.07 6.11 32.07 5.99 31.03 6.10 30.02 6.07 28.96 6.29 28.02 5.94 27.02 5.91 27 6 Z" opacity="0.5"></path><path fill="white" d="M14 1C  14.96 0.93 15.94 0.53 16.91 0.32 17.89 0.13 18.86 -0.11 19.85 -0.10 20.83 -0.43 21.81 -0.72 22.80 -0.58 23.78 -0.84 24.78 -0.72 25.76 -1.15 26.76 -0.88 27.75 -1.02 28.73 -1.48 29.74 -1.12 30.74 -1.10 31.73 -1.30 32.72 -1.34 33.72 -1.19 34.71 -1.34 35.71 -1.23 36.69 -1.54 37.69 -1.32 38.69 -1.14 39.69 -0.89 40.68 -1.03 41.67 -0.85 42.66 -0.62 43.65 -0.56 44.63 -0.53 45.61 -0.61 46.60 -0.19 47.58 -0.16 48.56 -0.15 49.53 0.38 50.51 0.22 51.48 0.51 52.45 0.98 53.41 1.32 54.38 1.33 55.34 1.53 56.30 1.71 57.24 2.22 58.18 2.73 59.15 2.66 60.09 2.99 61.02 3.38 61.95 3.87 62.86 4.44 63.81 4.38 64.70 5.12 65.65 5.16 66.52 6.04 67.42 6.44 68.36 6.44 69.25 6.86 70.12 7.55 70.98 8.14 71 8 71.69 8.55 72.37 9.13 72.98 10.13 73 10 72.10 9.74 71.23 9.15 70.35 8.62 69.45 8.27 68.59 7.50 67.64 7.51 66.77 6.68 65.83 6.62 64.95 5.84 64.02 5.49 63.08 5.22 62.15 4.79 61.19 4.75 60.28 4.08 59.30 4.14 58.36 3.70 57.42 3.22 56.46 3.11 55.49 3.04 54.53 2.67 53.56 2.43 52.60 1.99 51.62 2.08 50.65 1.52 49.68 1.26 48.70 1.09 47.71 0.97 46.73 0.88 45.74 0.90 44.75 0.57 43.76 0.75 42.77 0.56 41.78 0.31 40.78 0.23 39.79 0.17 38.79 -0.19 37.79 -0.04 36.80 0.04 35.80 -0.20 34.80 -0.16 33.80 -0.13 32.81 0.07 31.81 0.03 30.81 0.04 29.81 0.08 28.82 0.27 27.82 -0.05 26.83 0.46 25.84 0.23 24.84 0.53 23.85 0.69 22.87 0.50 21.88 0.77 20.89 1.16 19.91 1.21 18.93 1.37 17.96 1.40 16.98 1.71 15.99 2.09 16 2 Z" opacity="0.5"></path><path fill="white" d="M6 -4C  6.87 -4.46 7.96 -4.55 8.90 -4.88 9.79 -5.30 10.83 -5.43 11.77 -5.75 12.78 -5.91 13.65 -6.39 14.63 -6.61 15.75 -6.52 16.63 -6.97 17.72 -6.90 18.66 -7.20 19.57 -7.57 20.73 -7.28 21.68 -7.53 22.61 -7.87 23.65 -7.85 24.60 -8.08 25.70 -7.86 26.58 -8.33 27.63 -8.25 28.65 -8.26 29.64 -8.33 30.67 -8.27 31.64 -8.43 32.68 -8.28 33.64 -8.42 34.69 -8.23 35.71 -8.14 36.70 -8.12 37.67 -8.22 38.68 -8.10 39.72 -7.83 40.68 -7.93 41.68 -7.80 42.68 -7.68 43.65 -7.67 44.68 -7.30 45.67 -7.16 46.67 -6.91 47.67 -6.62 48.67 -6.31 49.59 -6.55 50.60 -6.07 51.55 -6.04 52.52 -5.79 53.51 -5.35 54.50 -4.87 55.45 -4.75 56.40 -4.54 57.38 -3.90 58.31 -3.83 59.27 -3.24 60.20 -3.13 61.14 -2.77 62.07 -2.32 63.00 -2.07 63 -2 63.68 -1.13 64.34 -0.74 65.00 -0.12 65 0 64.08 -0.21 63.15 -0.82 62.22 -0.98 61.29 -1.36 60.34 -1.94 59.39 -2.26 58.44 -2.70 57.49 -2.79 56.54 -3.08 55.57 -3.54 54.61 -3.61 53.65 -3.81 52.67 -4.22 51.68 -4.58 50.69 -4.99 49.72 -5.08 48.76 -5.01 47.75 -5.43 46.74 -5.82 45.76 -5.91 44.76 -6.10 43.77 -6.19 42.75 -6.45 41.79 -6.31 40.78 -6.53 39.79 -6.54 38.79 -6.62 37.78 -6.70 36.78 -6.76 35.82 -6.57 34.81 -6.63 33.77 -6.80 32.70 -7.10 31.70 -7.06 30.70 -7.02 29.69 -7.02 28.75 -6.68 27.73 -6.68 26.74 -6.56 25.70 -6.64 24.68 -6.62 23.67 -6.56 22.67 -6.44 21.75 -6.00 20.75 -5.90 19.75 -5.76 18.67 -5.87 17.75 -5.48 16.70 -5.46 15.74 -5.19 14.82 -4.76 13.84 -4.55 12.83 -4.41 11.82 -4.25 10.84 -4.03 9.93 -3.58 8.88 -3.53 8.07 -2.82 8 -3 Z" opacity="0.5"></path></g><g transform="translate(270,50)"><circle cx="33" cy="3" r="5" fill="#F4671B" opacity="0.9" stroke-width="0.5" stroke="orange"></circle><circle cx="45" cy="10" r="4.7" fill="orange" opacity="0.9" stroke-width="0.5" stroke="orange"></circle><circle cx="37" cy="7" r="4.6" fill="#F38528" opacity="0.9" stroke-width="0.5" stroke="orange"></circle><circle cx="10" cy="5" r="4.6" fill="orange" opacity="0.9" stroke-width="0.5" stroke="orange"></circle><circle cx="15" cy="12" r="4.8" fill="#E25C0F" opacity="0.9" stroke-width="0.5" stroke="orange"></circle><circle cx="25" cy="5" r="4.7" fill="orange" opacity="0.9" stroke-width="0.5" stroke="orange"></circle><circle cx="39" cy="13" r="4.5" fill="#F4671B" opacity="0.9" stroke-width="0.5" stroke="orange"></circle><circle cx="17" cy="5" r="5" fill="#FA8E3E" opacity="0.9" stroke-width="0.5" stroke="orange"></circle><circle cx="23" cy="10" r="4.5" fill="#F5770C" opacity="0.9" stroke-width="0.5" stroke="orange"></circle><circle cx="30" cy="12" r="4.5" fill="#EA772C" opacity="0.9" stroke-width="0.5" stroke="orange"></circle><circle cx="13" cy="-3" r="4.8" fill="#F4671B" opacity="0.9" stroke-width="0.5" stroke="orange"></circle><circle cx="20" cy="0" r="5.1" fill="#EA772C" opacity="0.9" stroke-width="0.5" stroke="orange"></circle><circle cx="40" cy="2" r="5" fill="#FA8E3E" opacity="0.9" stroke-width="0.5" stroke="orange"></circle><circle cx="30" cy="-2" r="5" fill="#F37619" opacity="0.9" stroke-width="0.5" stroke="orange"></circle><circle cx="5" cy="2" r="4.5" fill="#F5770C" opacity="0.9" stroke-width="0.5" stroke="orange"></circle><path fill="black" d="M0 0C  -0.11 1.04 0.39 1.94 1.22 2.71 1.52 3.62 1.78 4.56 2.84 5.11 3.03 6.08 3.90 6.64 4.73 7.20 5 7 5.97 7.43 6.90 7.87 7.82 8.30 8.32 9.11 9.04 9.73 10.47 9.63 11.09 10.34 11.72 11.05 13.20 10.80 13.67 11.71 14.76 11.86 15.92 11.91 16.80 12.30 17.48 12.96 18.62 12.98 19.61 13.19 20.69 13.25 21.38 13.88 22.24 14.28 23.22 14.46 24.43 14.24 25.59 14.07 26.34 14.60 27.45 14.48 28.52 14.39 29.50 14.49 30.28 14.95 31.24 15.06 32.18 15.18 33.54 14.33 34.53 14.30 35.51 14.24 36.25 14.78 37.35 14.40 38.40 14.12 39.44 13.82 40.17 14.35 41.35 13.60 42.10 14.07 43.27 13.23 44.16 13.25 45.09 13.11 46.14 12.48 47.01 12.51 47.97 12.11 48 12 48.69 10.70 49.08 10.41 49.57 9.31 50.00 8.02 50 8 50.17 9.00 49.87 10.00 50.48 11.00 50.01 12.00 50.29 13.00 49.83 14.00 50.10 15.00 50.35 16.00 50.13 17.00 50.23 18.00 49.99 19.00 50.45 20.00 49.93 21.00 50.15 22.00 50.22 23.00 49.82 24.00 49.98 25.00 50.15 26.00 50.00 27.00 50.31 28.00 49.86 29.00 49.58 30.00 50.17 31.00 49.53 32.00 49.95 33.00 50 33 49.57 34.11 49.05 35.22 48.46 36.26 48.25 36.67 48 37 46.78 37.67 46.40 37.26 44.93 38.15 44.11 38.24 43.26 38.35 42.47 38.37 41.07 39.03 39.99 39.30 39.21 39.26 38.03 39.58 37.60 39.17 36.52 39.36 35.32 39.64 34.53 39.52 33.35 39.72 32.13 39.94 31.38 39.73 30.06 39.97 29.62 39.51 28.24 39.74 27.71 39.34 26.53 39.38 25.18 39.50 24.65 39.07 23.45 39.06 22.82 38.68 21.36 38.76 20.11 38.69 19.16 38.45 18.49 38.04 17.26 37.90 16.38 37.57 15.77 37.11 15.12 36.67 14.10 36.36 12.65 36.19 11.64 35.83 11.14 35.29 10.51 34.80 9.10 34.51 8.92 33.87 7.55 33.52 6.73 33.02 5.47 32.59 4.53 32.07 5 32 3.93 31.51 3.57 30.86 3.00 30.17 2.21 29.45 1.52 28.65 1.04 27.80 0.68 26.90 -0.04 25.96 -0.42 25.00 0 25 -0.21 24.00 0.21 23.00 -0.06 22.00 -0.50 21.00 0.05 20.00 0.11 19.00 0.27 18.00 0.31 17.00 0.28 16.00 -0.35 15.00 0.11 14.00 -0.03 13.00 0.02 12.00 -0.47 11.00 0.12 10.00 -0.06 9.00 0.15 8.00 -0.01 7.00 0.03 6.00 0.04 5.00 -0.10 4.00 0.06 3.00 0.36 2.00 -0.46 1.00 -0.17 0.00 0 0 Z"></path></g><g transform="translate(220,80)"><path fill="white" d="M5 -3C  4.63 -2.27 4.53 -1.15 4.46 0.23 4.51 0.52 4.41 2.13 4.94 2.40 4.73 4.08 5.62 4.31 5.92 5.36 6.32 6.32 6.84 7.16 7 7 7.05 8.23 8.01 8.68 8.37 9.70 8.76 10.70 9.53 11.38 10.64 11.75 11.28 12.51 11.81 13.34 12.78 13.72 14.15 13.64 15.05 13.94 15 14 15.75 14.69 15.99 15.94 17.41 15.93 17.81 16.99 18.78 17.38 20.09 17.32 21.26 17.30 22.01 17.67 23.24 17.30 23.89 17.55 24.97 17.04 25 17 25.60 17.87 26.54 18.28 27.63 18.47 28.05 19.62 29.20 19.68 30.20 19.88 31.24 19.97 32.26 20.02 33.06 20.31 33.96 20.35 35.17 19.72 36.18 19.26 36.98 19.03 37 19 37.89 19.53 38.79 20.05 40.05 19.81 41.02 20.10 42.03 20.21 42.85 20.62 44.13 19.95 44.80 20.44 45 20 45.92 19.28 46.57 18.96 47.47 17.82 47.98 17.42 48.40 17.05 48.91 16.14 49.30 15.29 49.79 13.72 50.04 12.60 50.10 11.80 50.16 10.62 49.98 10.11 50 10 Z"></path><path fill="#FFE4D3" d="M0 0C  -0.02 -1.01 -0.25 -1.99 0.38 -3.00 0 -3 0.53 -3.91 1.41 -4.70 1.95 -5.48 2.09 -6.37 3.09 -6.91 3.92 -7.44 5.39 -7.49 5.66 -8.23 6.74 -8.33 8.09 -8.03 8.73 -8.30 9 -8 8.98 -8.97 9.17 -9.85 9 -10 9.76 -10.70 10.32 -11.58 11.37 -11.99 12.07 -12.70 13.20 -12.96 13.91 -13.58 15.26 -13.45 15.94 -13.98 16.92 -14.10 17 -14 17.74 -14.19 18.88 -13.77 19.83 -13.55 20.74 -13.28 21.90 -12.50 22.31 -12.93 23.28 -12.29 24.13 -11.73 25.18 -10.59 25 -11 26.02 -10.90 26.91 -11.04 27.93 -10.79 28.94 -10.45 29.92 -10.06 30.95 -9.37 31.60 -9.77 32.56 -9.02 33.48 -8.17 34.21 -7.89 35.07 -6.80 35.75 -6.25 36.42 -5.50 37.05 -4.65 37 -5 37.99 -4.64 38.97 -4.04 39.81 -4.51 40.76 -3.61 41.64 -3.05 42.44 -3.04 43.27 -1.94 44.02 -1.34 44.74 -0.16 45.39 0.68 46.00 1.11 46 1 46.87 1.92 47.73 2.04 48.57 2.08 49.32 3.20 50.06 3.90 50.73 4.76 51.43 4.95 52.04 5.63 52 6 52.93 6.60 53.86 6.95 54.80 7.03 55.64 7.65 56.32 9.09 57.06 9.79 57.84 10.05 58.38 11.39 59.02 11.91 59 12 58.24 12.53 57.41 13.58 56.73 14.14 56.18 14.42 55.48 15.50 55.10 15.64 55 16 53.90 16.36 53.01 15.90 51.96 15.91 50.95 15.74 49.92 15.59 48.73 15.89 47.81 15.35 46.88 14.86 46.04 14.11 44.86 14.45 45 14 43.97 14.10 42.84 14.43 41.85 14.25 40.88 13.97 39.87 13.76 38.92 13.33 37.95 12.96 36.96 12.62 35.80 12.81 35.06 11.82 35 12 34.13 11.81 33.12 11.94 31.92 12.50 31.00 12.26 30.03 12.12 29.26 11.45 28.28 11.28 27.43 10.77 26.43 10.66 25.52 10.33 24.77 9.62 23.90 9.27 24 9 22.95 9.20 22.07 8.91 21.03 8.96 19.81 9.33 18.94 8.87 18.17 8.19 17.02 8.30 16.24 7.61 15.24 7.37 14.23 7.17 13.51 6.36 12.93 5.28 12.11 4.73 12 5 11.11 4.77 10.14 4.69 9.09 4.70 8.06 4.61 7.11 4.33 6.29 3.83 5.20 3.69 4.50 3.00 3.25 2.98 2.82 1.96 1.61 1.82 1.25 0.75 1 1 Z"></path><g transform="translate(59,12) rotate(20)"><path fill="#FA5220" d="M8 4C  8.98 4.11 10.09 3.97 11.12 4.00 12.05 4.36 13.06 4.51 14.20 4.28 15.15 4.65 16.21 4.66 17.15 5.09 18.09 5.55 19.16 5.52 20.17 5.75 21.02 6.49 21.98 6.85 23.04 6.86 23 7 23.79 7.76 24.68 8.12 25.41 8.92 26.15 9.57 26.76 10.51 27.52 10.94 27.92 12.19 28 12 27.00 12.16 26.06 12.15 24.95 12.40 23.93 12.43 23.03 12.18 21.88 12.35 20.93 12.13 21 12 Z"></path><path fill="#E73E0C" d="M0 0C  1.01 0.17 1.88 0.67 2.75 1.15 3.70 1.48 4.50 2.12 5.39 2.57 6.18 3.21 7.25 3.28 8.09 3.82 8 4 8.88 4.50 9.91 4.68 10.68 5.41 11.60 5.83 12.55 6.19 13.49 6.56 14.37 7.06 15.17 7.72 16.19 7.95 16.94 8.69 17.95 8.93 18.80 9.48 19.60 10.12 20.44 10.67 21.31 11.18 21.90 12.19 22 12 21.02 11.81 19.95 11.78 19.03 11.48 18.00 11.36 16.90 11.33 15.93 11.09 14.91 10.92 14.00 10.59 12.80 10.62 12.02 10.14 10.88 10.06 9.80 9.89 8.74 9.68 8.07 9.11 6.86 9.01 5.84 8.72 5.06 8.28 4.00 8.00 4 8 2.92 7.86 1.98 7.65 1.11 7.42 -0.03 7.21 -1.00 6.95 -2.09 6.64 -2.97 6.37 -3.85 6.10 -4 6 -4.13 5.18 -4.37 4.06 -4.45 2.78 -3.98 2.04 -4 2 -3.44 1.19 -2.68 0.76 -1.85 0.44 -1.00 0.07 -1 0 Z"></path><path fill="#FA5220" d="M21 12C  21.84 12.56 22.67 13.14 23.39 13.87 24.06 14.67 24.67 15.53 25.50 16.02 26.12 16.82 26 17 24.89 17.32 23.97 17.31 22.93 17.39 21.97 17.34 20.89 17.38 19.92 17.23 19.02 16.98 19 17 18.11 16.58 17.18 16.20 16.29 15.76 15.19 15.52 14.09 15.25 13.22 14.74 12.43 14.16 11.61 13.60 10.60 13.18 9.88 12.53 9.10 11.91 8.16 11.40 7.46 10.71 6.55 10.15 5.51 9.65 4.82 8.93 4.28 8.12 3.60 7.39 2.92 6.66 1.98 6.01 2 6 Z"></path></g><path d="M11 4C  10.89 2.85 10.77 2.13 10.86 0.91 11.00 -0.11 11 0 11.49 -0.75 12.04 -1.77 12.67 -2.68 13.45 -3.17 14.22 -3.94 15.01 -4.76 15.93 -5.24 16 -5 16.96 -5.34 18.09 -5.05 19.07 -5.23 20.13 -5.09 21.18 -4.88 22.12 -5.08 23.20 -4.58 24.13 -4.69 25.15 -4.21 26.14 -3.75 27.04 -3.67 28.02 -2.82 28 -3 28.00 -1.95 28 -2 27.08 -2.40 26.12 -2.85 25.16 -3.15 24.16 -3.54 23.13 -3.95 22.15 -3.96 21.12 -4.18 20.13 -4.07 19.05 -4.34 18.09 -4.01 17.06 -3.95 16.03 -3.89 16 -4 15.29 -3.27 14.52 -2.91 13.83 -2.30 13.20 -1.53 12.58 -0.75 12.00 -0.08 12 0 11.96 0.92 11.97 1.86 12.01 2.94 12 3 Z" fill="#E5DAD2" transform="scale(1)"></path><path d="M26 9C  25.81 8.14 25.81 6.94 25.85 6.01 26.00 5.00 26 5 26.45 4.23 27.06 3.05 27.67 2.67 28.43 1.54 29.22 0.99 30.08 0.56 31.00 -0.08 31 0 32.02 -0.02 33.05 -0.31 34.08 -0.25 35.11 -0.17 36.14 -0.05 37.16 -0.07 38.17 0.22 39.17 0.49 40.16 0.61 41.12 1.08 42.07 1.48 42.99 2.21 43 2 43.02 2.77 43 3 42.09 2.33 41.13 2.02 40.16 1.71 39.18 1.26 38.16 1.48 37.16 0.93 36.13 1.04 35.11 0.77 34.08 0.84 33.06 0.57 32.02 0.87 31.00 1.01 31 1 30.26 1.44 29.55 2.05 28.88 2.68 28.18 3.75 27.61 4.12 27.02 4.88 27 5 26.95 6.00 26.90 7.18 26.95 8.16 27 8 Z" fill="#E5DAD2" transform="scale(0.9)"></path><path d="M48 15C  47.79 14.20 47.83 12.90 47.87 11.89 47.95 11.21 48 11 48.50 9.94 49.08 8.98 49.71 8.28 50.42 7.70 51.25 6.81 52.05 6.72 53.00 5.98 53 6 54.01 5.99 55.05 5.78 56.06 5.97 57.13 5.66 58.15 5.77 59.14 6.26 60.18 6.13 61.18 6.38 62.15 6.82 63.10 7.30 64.06 7.66 65.02 7.83 65 8 65.00 9.01 65 9 64.04 8.77 63.09 8.37 62.12 8.04 61.19 7.31 60.19 7.10 59.18 6.89 58.12 7.04 57.13 6.67 56.09 6.73 55.06 6.71 54.00 7.06 52.99 7.07 53 7 52.28 7.43 51.57 8.00 50.86 8.83 50.21 9.51 49.62 10.10 49.01 10.96 49 11 48.89 12.24 48.95 13.01 48.94 14.21 49 14 Z" fill="#E5DAD2" transform="scale(0.7)"></path><path d="M80 24C  79.87 22.94 79.76 22.15 79.89 20.84 80.00 19.98 80 20 80.52 18.87 81.08 18.01 81.70 17.38 82.44 16.59 83.26 15.82 84.12 15.25 84.98 15.11 85 15 86.04 14.78 87.02 15.00 88.09 14.74 89.15 14.59 90.10 15.16 91.15 15.09 92.18 15.18 93.18 15.43 94.14 15.88 95.15 15.97 96.09 16.45 97.00 16.98 97 17 96.99 18.05 97 18 96.09 17.45 95.13 17.10 94.13 16.91 93.18 16.41 92.19 16.12 91.13 16.18 90.13 15.94 89.15 15.62 88.05 15.97 87.05 15.81 86.06 15.69 84.99 16.05 85 16 84.30 16.36 83.59 16.97 82.91 17.63 82.17 18.69 81.55 19.42 81.02 19.91 81 20 80.89 21.23 80.95 22.01 81.02 22.92 81 23 Z" fill="#E5DAD2" transform="scale(0.55)"></path><path d="M24 -4C  23.16 -4.77 22.58 -4.99 21.98 -6.07 22 -6 21.82 -6.93 21.78 -8.04 21.91 -9.23 22 -9 22.59 -9.77 23.30 -10.37 24.15 -10.74 25.06 -10.95 26.04 -10.90 26 -11 26.00 -9.99 26 -10 24.87 -10.06 23.99 -9.36 23.08 -8.79 23 -9 22.81 -7.97 22.75 -7.14 23.03 -5.88 23 -6 24.05 -4.77 24 -5 Z" fill="#E5DAD2" transform="scale(1)"></path><path d="M40 1.5C  39.21 0.73 38.53 0.28 38.00 -0.26 38 -0.5 37.79 -1.60 37.80 -2.39 38.00 -3.45 38 -3.5 38.60 -4.37 39.36 -4.70 40.16 -5.34 41.11 -5.17 42.01 -5.46 42 -5.5 42.01 -4.36 42 -4.5 40.95 -4.28 39.90 -4.28 39.00 -3.50 39 -3.5 38.79 -2.58 38.80 -1.28 39.00 -0.29 39 -0.5 40.00 0.62 40 0.5 Z" fill="#E5DAD2" transform="scale(0.9)"></path><path d="M65 9C  64.23 8.33 63.51 8.00 62.99 7.05 63 7 62.80 6.00 62.78 5.14 62.99 4.14 63 4 63.62 3.32 64.37 2.54 65.19 2.24 66.08 1.90 67.00 2.13 67 2 67.00 2.99 67 3 65.94 3.13 64.92 3.47 64.00 3.99 64 4 63.80 4.99 63.79 6.10 63.99 7.07 64 7 64.98 8.18 65 8 Z" fill="#E5DAD2" transform="scale(0.7)"></path><path d="M102 18C  101.18 17.62 100.51 16.94 99.96 16.23 100 16 99.79 15.05 99.80 13.96 99.98 13.18 100 13 100.61 12.40 101.33 12.00 102.20 11.23 103.10 10.92 104.02 10.79 104 11 104.03 11.77 104 12 102.96 11.95 101.90 12.64 101.02 12.85 101 13 100.81 13.89 100.80 14.98 100.99 16.06 101 16 101.96 17.21 102 17 Z" fill="#E5DAD2" transform="scale(0.5)"></path><path fill="#E5DAD2" d="M10 -7C  11.07 -7.90 11 -8 11.99 -7.79 12.94 -7.61 14.02 -7.20 15.02 -6.90 15.99 -6.65 16.95 -6.41 17.92 -6.15 18.83 -6.01 19.82 -5.66 20.71 -5.63 21.68 -5.35 22.63 -5.07 23.64 -4.54 24.61 -4.08 25.51 -4.11 26.48 -3.61 27.40 -3.47 28.38 -2.79 29.31 -2.58 30.25 -2.19 31.18 -1.73 32.12 -1.26 33.04 -1.02 33.96 -0.65 34.88 -0.18 35.80 0.16 36.71 0.69 37.63 0.79 38.53 1.37 39.43 1.77 40.33 2.25 41.22 2.91 42.13 3.01 43.02 3.49 43.89 4.17 44.75 4.80 45.67 4.89 46.52 5.61 47.42 5.90 48.25 6.66 49.08 7.38 49.94 7.83 50.86 7.97 51.62 8.99 52.46 9.54 53.36 9.79 54.13 10.67 54.96 11.18 55 11 53.98 12.11 54 12 53.17 11.49 52.35 10.93 51.59 10.10 50.77 9.44 49.90 9.13 49.03 8.73 48.26 7.80 47.40 7.32 46.55 6.73 45.69 6.21 44.85 5.56 43.93 5.38 43.05 4.95 42.17 4.50 41.31 3.80 40.43 3.29 39.53 2.85 38.64 2.31 37.72 2.14 36.83 1.43 35.92 0.94 35.00 0.81 34.08 0.45 33.15 -0.23 32.22 -0.77 31.30 -0.92 30.37 -1.10 29.42 -1.73 28.47 -2.22 27.55 -2.23 26.58 -2.77 25.64 -2.99 24.69 -3.28 23.73 -3.58 22.75 -4.02 21.78 -4.33 20.79 -4.67 19.90 -4.61 18.83 -5.25 17.89 -5.37 16.93 -5.55 15.90 -5.93 14.98 -5.97 13.93 -6.33 13.03 -6.35 11.91 -6.79 10.98 -6.85 10.05 -6.92 10 -7 Z"></path></g><g transform="translate(185,80)"><path fill="white" d="M0 20C  -0.02 21.01 -0.85 22.01 -0.85 23.03 -1.51 24.01 -1.98 25.00 -2 25 -2.13 25.95 -2.47 26.89 -2.26 27.88 -2.92 28.80 -2.85 29.76 -1.89 30.78 -2.04 31.68 -1.26 32.60 -1.31 33.43 -0.82 34.24 -0.28 35.00 0 35 0.66 35.84 1.73 36.64 2.07 37.43 1.90 38.24 2.47 38.98 3.57 39.64 5.00 40.23 5.31 40.90 5.91 41.51 7.02 42.01 7.61 42.55 8.89 42.93 9.07 43.50 9.93 43.89 11.21 44.14 12.69 44.27 12.75 44.76 13.75 44.94 14.36 45.21 15 45 16.01 45.59 16.28 46.41 17.50 46.86 18.62 47.30 19.08 47.97 20.37 48.27 20.63 48.97 22.22 49.05 23.07 49.41 23.92 49.74 24.92 49.95 25.46 50.35 27.12 50.12 27.66 50.44 28.54 50.54 30.08 50.19 31.10 50.08 31.65 50.23 32 50 32.82 49.59 33.56 49.12 34.59 48.31 35.22 47.65 36.18 46.62 36.87 45.65 37.21 44.83 37 45 36.82 44.33 37.39 42.93 36.94 42.32 37.23 40.97 36.90 40.09 37 40 Z"></path><path fill="#E92F1C" d="M0 0C  0.42 1.04 1.23 1.65 2.54 1.71 3.13 2.57 3.79 3.35 4.24 4.37 5.19 4.82 6.30 5.08 6.97 5.86 7.66 6.60 8.63 7.01 9.32 7.76 10.01 8.52 10.87 9.06 11.62 9.75 12.47 10.30 13.34 10.82 14.28 11.26 15.38 11.48 16.29 11.94 16.84 12.89 18.13 12.83 18.62 13.87 19.33 14.60 20.78 14.31 21.63 14.83 22.00 16.05 23.02 16.34 24.36 16.16 24.86 17.20 25 17 24.37 17.72 23.42 18.85 22.76 19.55 22.29 20.05 21.63 20.74 21.16 21.24 20.30 22.12 19.40 23.00 18.81 23.59 18.06 24.31 17.29 25.03 16.35 25.84 15.61 26.49 14.85 27.15 14.22 27.73 13.47 28.37 12.92 28.91 12.54 29.38 11.08 30.28 10.59 30.78 9.94 31.35 8.79 32.06 9 32 7.81 31.47 7.92 30.58 7.00 29.94 6.56 29.18 5.05 28.62 4.57 27.83 4.11 27.03 4.04 26.17 2.58 25.48 2.81 24.58 2.16 23.76 1.80 22.91 0.41 22.09 0.37 21.19 -0.07 20.30 -0.24 19.40 -0.92 18.48 -0.75 17.59 -1.97 16.59 -1.90 15.68 -2.33 14.70 -2.47 13.76 -2.32 12.87 -2.88 11.82 -2.62 10.96 -3.00 9.91 -2.78 9.05 -3.53 7.82 -3.05 7.07 -3.75 5.73 -3.70 4.73 -3.26 4.04 -3.48 2.78 -3.36 1.78 -3.10 1.11 -3.00 -0.42 -3 0 -2.00 -0.30 -0.75 -1.25 -1 -1 Z"></path><path fill="#ece7cf" d="M25 17C  25.95 17.40 26.84 17.90 27.86 18.20 28.71 18.73 29.25 19.75 30.51 19.67 31.04 20.70 32.41 20.45 32.98 21.43 33.89 21.87 34.77 22.36 35 22 35.93 22.39 36.49 23.36 37.36 23.87 37.66 25.22 38.31 26.06 39.02 26.83 40.21 26.87 40.67 27.99 41.30 28.88 42.14 29.45 42.83 30.25 43 30 43.22 30.65 43.08 31.83 43.23 32.62 43.07 33.83 42.96 34.99 43.25 35.67 42.85 37.18 43 37 41.99 38.09 41.74 38.32 40.57 39.53 40.36 39.72 39.39 40.68 38.74 41.31 38.02 41.98 38 42 37.09 41.94 36.01 42.02 34.64 42.33 33.65 42.31 33.28 41.78 33 42 31.90 41.84 31.06 41.47 29.85 41.36 29.09 40.92 27.98 40.72 26.95 40.45 26.61 39.72 25.51 39.49 24.10 39.44 23.55 38.85 22.47 38.58 21.30 38.34 20.67 37.78 19.52 37.51 18.66 37.08 18.29 36.40 16.77 36.27 15.92 35.82 15.42 35.21 14.75 34.67 12.94 34.58 12.20 34.06 12.01 33.34 10.77 32.98 10.22 32.39 8.62 32.11 9 32 Z"></path><path fill="black" d="M26 17C  26.89 17.46 27.82 17.87 28.60 18.52 29.58 18.87 30.68 19.01 31.58 19.48 32.63 19.71 33.21 20.71 34.34 20.81 35.39 21.05 36.08 21.87 36 22 35.20 21.83 34.16 22.10 33.20 22.29 31.91 23.01 30.83 23.46 30.01 23.62 29.20 23.83 28.24 24.28 27.63 24.41 26.47 25.20 25.94 25.39 24.59 26.44 24.25 26.59 23.36 27.30 22.45 28.08 21.88 28.63 21.37 29.20 20.62 30.00 19.38 31.16 19.14 31.71 18.03 32.82 18.00 33.37 17.15 34.40 17.15 35.04 16.31 36.13 16.32 36.86 16 37 15.82 37.92 15.46 38.96 15.63 39.83 15.56 40.84 15.41 41.90 14.76 43.16 14.86 44.18 15.49 45.03 16.13 45.88 16.02 46.99 16 47 14.77 46.75 14.49 46.18 12.67 46.05 11.87 45.60 11.54 45.01 10.22 44.65 9.59 44.12 9.00 43.56 7.88 43.08 6.36 42.65 5.80 42.03 6 42 5.37 41.07 5.87 39.98 4.86 39.09 5.14 38.02 5.51 36.95 5.15 35.99 5.44 34.94 5.43 33.97 5.82 32.95 6.13 31.98 6 32 6.85 30.99 6.75 30.21 7.76 29.20 8.34 28.31 7.98 27.74 9.46 26.63 9.39 26.08 9.98 25.35 11.09 24.44 11.75 23.74 12.62 22.99 13.10 22.50 13.58 22.08 14.44 21.49 15.86 20.52 16.26 20.36 17.36 19.71 18.18 19.34 19.15 18.87 20.29 18.28 20.94 18.29 22.12 17.73 23.02 17.55 24.30 16.93 25.13 16.95 26.06 16.91 26 17 Z"></path></g><g transform="translate(135,105)"><path fill="white" d="M0 15C  -0.81 16.00 -0.42 17.03 -0.82 18.04 -1.68 19.00 -2.45 19.96 -2 20 -1.97 20.97 -2.41 21.89 -2.47 22.86 -2.77 23.80 -2.46 24.79 -1.89 25.78 -1.89 26.69 -1.19 27.60 -1.04 28.44 -0.17 29.26 -0.31 30.00 0 30 0.38 30.84 0.96 31.66 2.15 32.41 2.14 33.20 3.23 33.89 3.83 34.59 3.91 35.32 4.95 35.91 5.92 36.46 6.66 37.02 7.86 37.44 8.24 38.00 9.43 38.35 9.70 38.89 11.33 39.02 12.55 39.21 13.46 39.45 13.92 39.81 14.80 39.98 16.56 39.76 17.06 39.99 18.07 39.97 18 40 18.56 40.74 19.98 41.01 20.59 41.58 21.17 42.08 22.70 42.01 23.35 42.28 24.32 42.27 25.53 41.98 26.42 41.75 27.55 41.22 28.03 40.98 28 41 29.05 41.04 30.00 41.05 30.61 41.20 32.11 40.55 32.60 40.56 33.24 40.32 34.35 39.53 34.73 39.25 35 39 35.64 38.78 36.91 37.84 37.85 37.05 38.23 36.67 38.74 36.03 39.51 34.94 40.21 33.76 40 34 40.00 33.26 40.48 31.79 40.48 30.76 40.02 30.23 39.85 29.21 40 29 Z"></path><path fill="#BB174F" d="M0 0C  0.95 -0.42 1.98 -0.33 3.01 -0.29 4.00 -0.42 4.96 -0.86 6.02 -0.46 6.98 -0.88 7.99 -0.88 9.01 -0.60 10.00 -0.86 11.01 -0.73 12.02 -0.35 13.02 -0.13 14.01 -0.10 15.00 -0.09 15 0 15.96 0.03 16.92 0.57 17.86 0.99 18.82 1.06 19.75 1.62 20.71 1.71 21.64 2.17 22.59 2.33 23.50 2.88 24.43 3.17 25.39 3.28 26.26 3.97 27.19 4.26 28.12 4.53 29.03 4.93 29.90 5.46 30.80 5.88 31.72 6.17 32.53 6.98 33.41 7.40 34.29 7.83 35.12 8.45 36.08 8.55 36.87 9.31 37.69 9.92 38.55 10.36 39.38 10.92 40.20 11.49 41.04 11.97 41.80 12.71 42.57 13.41 43.47 13.67 44.17 14.54 44.95 15.16 45 15 45.64 15.68 46.27 16.38 46.76 17.45 47.43 17.96 47.98 18.81 48.38 19.96 48.99 20.58 49.57 21.25 50.00 22.24 50.42 23.21 50.82 24.19 51.29 25.00 51.75 25.80 52.19 26.62 52.67 27.35 52.83 28.64 53.35 29.26 53.71 30.13 53.98 31.13 54.12 32.33 54.38 33.30 54.64 34.24 54.88 35.18 55 35 54.19 35.31 53.17 36.15 52.66 36.46 52.05 37.15 51.48 38.03 50.93 39.10 51 39 49.87 39.17 49.11 38.86 49 39 48.35 38.19 47.34 37.85 46.38 37.47 45.66 36.87 44.36 37.09 43.62 36.77 42.58 36.96 41.51 37.37 40.75 37.62 39.59 38.50 39.11 38.89 39 39 37.92 38.08 38 38 37.48 37.17 36.81 36.46 36.33 35.55 35.54 34.95 34.45 34.67 33.89 33.90 32.99 33.51 31.93 33.32 30.87 33.21 30.11 32.90 30 33 29.06 32.71 27.98 32.53 26.85 32.39 25.85 32.12 26 32 25.67 31.68 25.49 31.21 25.23 30.79 25.24 30.14 24.93 29.75 24.18 29.74 24.08 29.22 23.49 29.13 22.89 29.09 23 29 22.69 29.20 22.41 29.42 21.88 29.88 21.53 30.25 21.32 30.57 21.03 30.98 21 31 20.12 30.77 19.21 30.55 18.12 30.43 16.90 30.36 16.07 30.07 15.25 29.76 14.15 29.59 13.33 29.28 12.39 29.01 11.47 28.72 10.30 28.52 9.33 28.23 8.63 27.84 7.46 27.59 6.41 27.28 5.63 26.90 4.52 26.57 3.90 26.15 2.69 25.81 2.14 25.39 1.09 25.00 1 25 -0.01 24.57 -0.90 24.13 -1.45 23.69 -2.66 23.20 -3.40 22.74 -4.07 22.30 -4.97 21.81 -6.10 21.23 -6.86 20.74 -7.94 20.12 -8.38 19.75 -9.47 19.08 -10.25 18.54 -10.98 18.02 -11.64 17.55 -12.80 16.71 -13.25 16.38 -14.38 15.47 -15.15 14.85 -15 15 -14.46 14.15 -13.84 13.40 -13.66 12.16 -13.14 11.30 -12.57 10.53 -12.07 9.67 -11.61 8.78 -11.11 7.96 -10.84 6.80 -10.43 5.87 -10.01 4.97 -10 5 Z"></path><path fill="#eee" d="M0 1C  1.10 0.77 2.07 0.59 3.01 0.62 3.99 0.63 4.98 0.69 5.98 0.77 7.01 0.42 7.99 0.73 9.02 0.33 9.99 0.79 11.01 0.65 12.02 0.52 12.99 1.02 14.01 0.74 15.00 0.95 15 1 15.96 1.47 16.93 1.74 17.89 2.11 18.87 2.29 19.84 2.57 20.81 2.78 21.78 3.02 22.74 3.34 23.68 3.76 24.62 4.16 25.55 4.63 26.47 5.10 27.43 5.37 28.35 5.82 29.24 6.39 30.18 6.74 31.11 7.11 32.01 7.57 32.93 8.01 33.78 8.66 34.75 8.86 35.65 9.30 36.44 10.18 37.33 10.62 38.31 10.77 39.08 11.67 39.98 12.08 40 12 40.74 12.71 41.50 13.31 42.17 14.19 42.95 14.71 43.70 15.32 44.29 16.33 44.95 17.14 45 17 45.04 17.97 45.10 18.86 45.06 19.97 45.04 20.98 45.07 21.87 45 22 44.14 22.90 43.47 23.47 42.83 24.02 42.15 24.68 41.41 25.46 40.71 26.22 40.12 26.82 40 27 38.92 27.14 38.08 26.96 36.89 27.28 35.99 27.22 35.03 27.26 34.02 27.38 33.09 27.43 32.03 27.64 31.03 27.79 29.98 28.02 30 28 28.99 27.90 27.99 27.78 26.89 27.73 25.95 27.50 24.96 27.30 24.12 26.94 22.83 26.96 22.05 26.52 20.94 26.34 20.16 25.87 20 26 18.97 25.79 18.21 25.39 17.25 25.12 16.15 24.93 15.14 24.67 14.56 24.14 13.57 23.86 12.48 23.62 11.78 23.17 10.60 22.94 9.96 22.46 9.02 22.11 7.99 21.79 6.97 21.44 6.35 20.96 5.25 20.61 4.35 20.20 3.46 19.78 2.71 19.33 1.64 18.91 0.95 18.45 -0.13 18.00 0 18 -0.25 18.44 -0.45 18.85 -0.72 19.20 -1.12 19.50 -1.41 19.75 -2.21 19.88 -2.39 20.00 -2.77 20.04 -3 20 -3.43 19.81 -3.78 19.55 -4.05 19.25 -4.41 18.86 -4.87 18.38 -4.94 17.95 -5.15 17.44 -5.08 16.98 -5 17 -5.48 16.41 -6.43 15.64 -7.20 14.91 -7 15 -6.77 14.11 -6.98 13.00 -6.88 12.07 -7 12 -7.90 12.07 -8.90 12.07 -9 12 -9.36 12.36 -10.02 12.49 -10.38 12.85 -11.12 12.90 -11 13 -11.38 13.10 -12.15 12.86 -12 13 -12.51 12.74 -12.89 12.62 -13.58 12.17 -14.08 11.91 -14 12 -14.35 12.18 -14.92 12.11 -15.50 12.01 -15.98 12.02 -16 12 -15.54 11.09 -14.79 10.56 -14.57 9.20 -13.94 8.44 -13.44 7.40 -12.61 6.89 -11.80 6.35 -11.26 5.25 -10.22 5.12 -9.62 4.07 -8.53 4.03 -7.91 2.92 -6.81 2.94 -6.00 2.24 -4.85 2.38 -5 2 Z"></path><ellipse cx="45" cy="25" rx="4.5" ry="5" fill="#BB174F" stroke="#590924" stroke-width="1.5"></ellipse><ellipse cx="45" cy="25" rx="2" ry="2.5" fill="#eee"></ellipse><ellipse cx="54" cy="30" rx="3" ry="5" fill="#BB174F" stroke="#590924" stroke-width="1.5"></ellipse><ellipse cx="54" cy="30" rx="1" ry="2.5" fill="#eee"></ellipse><path fill="#590924" d="M49 38C  48.00 39.00 48 39 47.53 38.07 46.85 37.29 46.00 36.69 45.03 36.31 44.00 36.19 42.97 36.31 42.00 36.69 41.15 37.29 40.47 38.07 40.00 39.00 40 39 39.00 38.00 39 38 39.48 37.16 40.09 36.42 40.83 35.80 41.66 35.31 42.57 34.98 43.52 34.81 44.48 34.81 45.43 34.98 46.34 35.31 47.17 35.80 47.91 36.42 48.52 37.16 49.00 38.00 49 38 Z" transform="rotate(0,49,38)"></path><path fill="#590924" d="M38 37C  37.00 38.00 37 38 36.53 37.07 35.85 36.29 35.00 35.69 34.03 35.31 33.00 35.19 31.97 35.31 31.00 35.69 30.15 36.29 29.47 37.07 29.00 38.00 29 38 28.00 37.00 28 37 28.48 36.16 29.09 35.42 29.83 34.80 30.66 34.31 31.57 33.98 32.52 33.81 33.48 33.81 34.43 33.98 35.34 34.31 36.17 34.80 36.91 35.42 37.52 36.16 38.00 37.00 38 37 Z" transform="rotate(25,38,37)"></path><path fill="#590924" d="M29 33C  28.00 34.00 28 34 27.53 33.07 26.85 32.29 26.00 31.69 25.03 31.31 24.00 31.19 22.97 31.31 22.00 31.69 21.15 32.29 20.47 33.07 20.00 34.00 20 34 19.00 33.00 19 33 19.48 32.16 20.09 31.42 20.83 30.80 21.66 30.31 22.57 29.98 23.52 29.81 24.48 29.81 25.43 29.98 26.34 30.31 27.17 30.80 27.91 31.42 28.52 32.16 29.00 33.00 29 33 Z" transform="rotate(40,29,33)"></path><path fill="#590924" d="M-6 22C  -7.00 23.00 -7 23 -7.47 22.07 -8.15 21.29 -9.00 20.69 -9.97 20.31 -11.00 20.19 -12.03 20.31 -13.00 20.69 -13.85 21.29 -14.53 22.07 -15.00 23.00 -15 23 -16.00 22.00 -16 22 -15.52 21.16 -14.91 20.42 -14.17 19.80 -13.34 19.31 -12.43 18.98 -11.48 18.81 -10.52 18.81 -9.57 18.98 -8.66 19.31 -7.83 19.80 -7.09 20.42 -6.48 21.16 -6.00 22.00 -6 22 Z" transform="rotate(160,-6,22)"></path><path fill="#590924" d="M-7 15C  -8.00 16.00 -8 16 -8.47 15.07 -9.15 14.29 -10.00 13.69 -10.97 13.31 -12.00 13.19 -13.03 13.31 -14.00 13.69 -14.85 14.29 -15.53 15.07 -16.00 16.00 -16 16 -17.00 15.00 -17 15 -16.52 14.16 -15.91 13.42 -15.17 12.80 -14.34 12.31 -13.43 11.98 -12.48 11.81 -11.52 11.81 -10.57 11.98 -9.66 12.31 -8.83 12.80 -8.09 13.42 -7.48 14.16 -7.00 15.00 -7 15 Z" transform="rotate(240,-7,15)"></path><path fill="#590924" d="M-16 13C  -17.00 14.00 -17 14 -17.47 13.07 -18.15 12.29 -19.00 11.69 -19.97 11.31 -21.00 11.19 -22.03 11.31 -23.00 11.69 -23.85 12.29 -24.53 13.07 -25.00 14.00 -25 14 -26.00 13.00 -26 13 -25.52 12.16 -24.91 11.42 -24.17 10.80 -23.34 10.31 -22.43 9.98 -21.48 9.81 -20.52 9.81 -19.57 9.98 -18.66 10.31 -17.83 10.80 -17.09 11.42 -16.48 12.16 -16.00 13.00 -16 13 Z" transform="rotate(180,-16,13)"></path><path fill="#590924" d="M52 35C  52.56 35.32 52.73 36.40 53 36 52.20 36.26 51.63 36.76 51.15 37.72 50.88 38.90 50.77 40.29 51 40 50.94 39.00 50.10 38.87 50 39 49.49 38.41 49.63 37.41 50.15 36.42 51.13 35.36 52.20 34.71 52 35 Z"></path><path fill="#590924" d="M18 26C  19.08 26.54 19.93 27.03 20.97 27.02 21 27 20.43 27.17 19.22 28.22 19.21 28.83 18.99 29.89 19.36 30.78 19 31 18.24 30.24 17.34 29.81 15.97 30.02 16 30 17.04 29.50 17.80 28.78 18.10 27.97 18.49 26.79 17.60 26.28 18 26 Z"></path><path fill="black" d="M25 3C  25.96 3.25 26.90 3.64 27.81 4.25 28.82 4.15 29.62 5.28 30.50 5.90 31.42 6.24 32.46 5.97 33.29 6.76 34.03 7.95 34.93 8.32 35 8 34.00 8.27 33.15 8.03 32.14 8.50 31.16 8.89 30.17 9.36 29.19 9.87 28.18 10.48 27.49 10.31 26.41 11.22 25.64 11.44 24.76 11.98 23.87 12.61 23.24 12.80 22.09 13.98 21.80 13.82 20.77 14.86 20.00 15.57 19.41 16.10 18.77 16.76 17.82 17.80 17.36 18.37 16.39 19.46 16.04 20.05 15.15 21.11 14.93 21.70 14.19 22.71 14.06 23.36 13.17 24.50 13.22 25.14 13.12 25.92 12.51 26.98 12.46 27.80 12 28 12.04 28.91 11.68 30.01 11.45 31.07 12.40 31.71 11.88 32.90 12.43 33.72 12.67 34.66 12.21 35.85 13.10 36.56 13.42 37.48 13.18 38.59 14.48 39.15 14.56 40.15 15.02 40.99 15 41 14.42 40.53 12.86 40.38 12.31 39.87 11.32 39.48 10.53 39.01 8.90 38.74 8.53 38.13 8.03 37.55 6.59 37.14 5.44 36.63 4.92 36.01 5 36 4.33 35.19 3.89 34.33 3.37 33.46 2.96 32.57 2.80 31.64 2.38 30.72 2.42 29.75 2.44 28.79 2.31 27.83 1.69 26.90 2.12 25.89 2.03 24.93 1.52 24.00 2.15 22.99 2 23 2.04 22.09 2.25 21.18 2.67 20.27 3.42 19.32 3.90 18.43 4.14 17.62 4.74 16.75 5.75 15.76 6.34 14.91 6.32 14.38 7.23 13.47 7.87 12.72 8.82 11.79 9.15 11.36 9.83 10.72 10.80 9.83 11.80 8.88 12.16 8.83 13.03 8.17 14.07 7.22 14.67 7.18 15.52 6.75 16.42 6.23 17.56 5.06 18.25 5.35 19.22 4.80 20.17 4.39 21.06 4.38 22.15 3.33 23.03 3.56 24.02 3.17 25.04 2.64 25 3 Z"></path></g></svg>
