<svg version="1.1" baseProfile="full" xmlns="http://www.w3.org/2000/svg" width="290" height="220" style="background: gray"><!-- made by Harry Li github.com/harryli0088 --><g transform="translate(135,120)"><g transform="scale(1,.8) translate(7,-5)"><path d="M-135 -30C  -135.36 -29.02 -135.36 -27.98 -135.00 -27.00 -135 -27 -134.46 -26.16 -133.91 -25.32 -133.37 -24.48 -132.82 -23.64 -132.27 -22.80 -131.73 -21.96 -131.18 -21.13 -130.63 -20.29 -130.08 -19.45 -129.52 -18.62 -128.97 -17.78 -128.42 -16.95 -127.87 -16.11 -127.31 -15.28 -126.76 -14.45 -126.20 -13.61 -125.64 -12.78 -125.08 -11.95 -124.53 -11.12 -123.97 -10.29 -123.41 -9.46 -122.84 -8.63 -122.28 -7.80 -121.72 -6.98 -121.16 -6.15 -120.59 -5.32 -120.03 -4.50 -119.46 -3.67 -118.89 -2.84 -118.32 -2.02 -117.76 -1.20 -117.19 -0.37 -116.62 0.45 -116.04 1.27 -115.47 2.09 -114.90 2.92 -114.33 3.74 -113.75 4.56 -113.18 5.38 -112.60 6.19 -112.02 7.01 -111.45 7.83 -110.87 8.65 -110.29 9.46 -109.71 10.28 -109.13 11.10 -108.54 11.91 -107.96 12.72 -107.38 13.54 -106.79 14.35 -106.21 15.16 -105.62 15.97 -105.04 16.79 -104.45 17.60 -103.86 18.41 -103.27 19.22 -102.68 20.03 -102.09 20.83 -101.50 21.64 -100.91 22.45 -100.31 23.26 -99.72 24.06 -99.12 24.87 -98.53 25.67 -97.93 26.48 -97.33 27.28 -96.74 28.08 -96.14 28.88 -95.54 29.69 -94.94 30.49 -94.34 31.29 -93.73 32.09 -93.13 32.89 -92.53 33.69 -91.92 34.48 -91.32 35.28 -90.71 36.08 -90.11 36.87 -89.50 37.67 -88.89 38.47 -88.28 39.26 -87.67 40.05 -87.06 40.85 -86.45 41.64 -85.83 42.43 -85.22 43.22 -84.61 44.01 -83.99 44.80 -83.38 45.59 -82.76 46.38 -82.14 47.17 -81.53 47.96 -80.91 48.75 -80.29 49.53 -79.67 50.32 -79.05 51.10 -78.42 51.89 -77.80 52.67 -77.18 53.46 -76.55 54.24 -75.93 55.02 -75.30 55.80 -74.68 56.58 -74.05 57.36 -73.42 58.14 -72.79 58.92 -72.16 59.70 -71.53 60.48 -70.90 61.25 -70.27 62.03 -69.64 62.81 -69.00 63.58 -68.37 64.36 -67.73 65.13 -67.10 65.90 -66.46 66.68 -65.82 67.45 -65.18 68.22 -64.54 68.99 -63.90 69.76 -63.26 70.53 -62.62 71.30 -61.98 72.07 -61.34 72.83 -60.69 73.60 -60.05 74.37 -59.40 75.13 -58.76 75.90 -58.11 76.66 -57.46 77.43 -56.82 78.19 -56.17 78.95 -55.52 79.71 -54.87 80.47 -54.22 81.24 -53.56 81.99 -52.91 82.75 -52.26 83.51 -51.60 84.27 -50.95 85.03 -50.29 85.78 -49.64 86.54 -48.98 87.29 -48.32 88.05 -47.66 88.80 -47.00 89.56 -46.34 90.31 -45.68 91.06 -45.02 91.81 -44.36 92.56 -43.69 93.31 -43.03 94.06 -42.36 94.81 -41.70 95.56 -41.03 96.31 -40.36 97.05 -39.70 97.80 -39.03 98.54 -38.36 99.29 -37.69 100.03 -37.02 100.77 -36.35 101.52 -35.67 102.26 -35.00 103.00 -35 103 -34.05 102.69 -33.10 102.38 -32.15 102.08 -31.20 101.77 -30.25 101.45 -29.30 101.14 -28.35 100.83 -27.41 100.52 -26.46 100.20 -25.51 99.89 -24.56 99.57 -23.62 99.25 -22.67 98.93 -21.72 98.61 -20.78 98.29 -19.83 97.97 -18.89 97.65 -17.94 97.33 -17.00 97.00 -16.05 96.68 -15.11 96.35 -14.16 96.02 -13.22 95.70 -12.28 95.37 -11.34 95.04 -10.39 94.71 -9.45 94.38 -8.51 94.04 -7.57 93.71 -6.63 93.37 -5.69 93.04 -4.75 92.70 -3.81 92.37 -2.87 92.03 -1.93 91.69 -0.99 91.35 -0.05 91.01 0.89 90.66 1.83 90.32 2.76 89.98 3.70 89.63 4.64 89.29 5.58 88.94 6.51 88.59 7.45 88.24 8.38 87.89 9.32 87.54 10.25 87.19 11.19 86.84 12.12 86.49 13.06 86.13 13.99 85.78 14.92 85.42 15.86 85.06 16.79 84.71 17.72 84.35 18.65 83.99 19.58 83.63 20.51 83.27 21.44 82.90 22.37 82.54 23.30 82.18 24.23 81.81 25.16 81.44 26.09 81.08 27.02 80.71 27.95 80.34 28.88 79.97 29.80 79.60 30.73 79.23 31.66 78.85 32.58 78.48 33.51 78.11 34.43 77.73 35.36 77.35 36.28 76.98 37.21 76.60 38.13 76.22 39.06 75.84 39.98 75.46 40.90 75.08 41.82 74.69 42.75 74.31 43.67 73.92 44.59 73.54 45.51 73.15 46.43 72.76 47.35 72.38 48.27 71.99 49.19 71.60 50.11 71.20 51.03 70.81 51.95 70.42 52.86 70.03 53.78 69.63 54.70 69.23 55.61 68.84 56.53 68.44 57.45 68.04 58.36 67.64 59.28 67.24 60.19 66.84 61.10 66.44 62.02 66.04 62.93 65.63 63.85 65.23 64.76 64.82 65.67 64.41 66.58 64.01 67.49 63.60 68.40 63.19 69.31 62.78 70.22 62.37 71.13 61.95 72.04 61.54 72.95 61.13 73.86 60.71 74.77 60.30 75.68 59.88 76.58 59.46 77.49 59.04 78.40 58.62 79.30 58.20 80.21 57.78 81.11 57.36 82.02 56.94 82.92 56.51 83.83 56.09 84.73 55.66 85.63 55.24 86.54 54.81 87.44 54.38 88.34 53.95 89.24 53.52 90.14 53.09 91.04 52.66 91.94 52.22 92.84 51.79 93.74 51.35 94.64 50.92 95.54 50.48 96.44 50.05 97.33 49.61 98.23 49.17 99.13 48.73 100.02 48.29 100.92 47.84 101.81 47.40 102.71 46.96 103.60 46.51 104.50 46.07 105.39 45.62 106.28 45.17 107.17 44.73 108.07 44.28 108.96 43.83 109.85 43.38 110.74 42.92 111.63 42.47 112.52 42.02 113.41 41.56 114.30 41.11 115.19 40.65 116.08 40.19 116.96 39.74 117.85 39.28 118.74 38.82 119.62 38.36 120.51 37.90 121.39 37.43 122.28 36.97 123.16 36.51 124.05 36.04 124.93 35.57 125.81 35.11 126.70 34.64 127.58 34.17 128.46 33.70 129.34 33.23 130.22 32.76 131.10 32.29 131.98 31.82 132.86 31.34 133.74 30.87 134.62 30.39 135.49 29.91 136.37 29.44 137.25 28.96 138.12 28.48 139.00 28.00 139 28 139.36 27.02 139.36 25.98 139.00 25.00 139 25 Z"></path><path fill="#782202" d="M-135 -30C  -134.46 -29.16 -133.91 -28.32 -133.37 -27.48 -132.82 -26.64 -132.27 -25.80 -131.73 -24.96 -131.18 -24.13 -130.63 -23.29 -130.08 -22.45 -129.52 -21.62 -128.97 -20.78 -128.42 -19.95 -127.87 -19.11 -127.31 -18.28 -126.76 -17.45 -126.20 -16.61 -125.64 -15.78 -125.08 -14.95 -124.53 -14.12 -123.97 -13.29 -123.41 -12.46 -122.84 -11.63 -122.28 -10.80 -121.72 -9.98 -121.16 -9.15 -120.59 -8.32 -120.03 -7.50 -119.46 -6.67 -118.89 -5.84 -118.32 -5.02 -117.76 -4.20 -117.19 -3.37 -116.62 -2.55 -116.04 -1.73 -115.47 -0.91 -114.90 -0.08 -114.33 0.74 -113.75 1.56 -113.18 2.38 -112.60 3.19 -112.02 4.01 -111.45 4.83 -110.87 5.65 -110.29 6.46 -109.71 7.28 -109.13 8.10 -108.54 8.91 -107.96 9.72 -107.38 10.54 -106.79 11.35 -106.21 12.16 -105.62 12.97 -105.04 13.79 -104.45 14.60 -103.86 15.41 -103.27 16.22 -102.68 17.03 -102.09 17.83 -101.50 18.64 -100.91 19.45 -100.31 20.26 -99.72 21.06 -99.12 21.87 -98.53 22.67 -97.93 23.48 -97.33 24.28 -96.74 25.08 -96.14 25.88 -95.54 26.69 -94.94 27.49 -94.34 28.29 -93.73 29.09 -93.13 29.89 -92.53 30.69 -91.92 31.48 -91.32 32.28 -90.71 33.08 -90.11 33.87 -89.50 34.67 -88.89 35.47 -88.28 36.26 -87.67 37.05 -87.06 37.85 -86.45 38.64 -85.83 39.43 -85.22 40.22 -84.61 41.01 -83.99 41.80 -83.38 42.59 -82.76 43.38 -82.14 44.17 -81.53 44.96 -80.91 45.75 -80.29 46.53 -79.67 47.32 -79.05 48.10 -78.42 48.89 -77.80 49.67 -77.18 50.46 -76.55 51.24 -75.93 52.02 -75.30 52.80 -74.68 53.58 -74.05 54.36 -73.42 55.14 -72.79 55.92 -72.16 56.70 -71.53 57.48 -70.90 58.25 -70.27 59.03 -69.64 59.81 -69.00 60.58 -68.37 61.36 -67.73 62.13 -67.10 62.90 -66.46 63.68 -65.82 64.45 -65.18 65.22 -64.54 65.99 -63.90 66.76 -63.26 67.53 -62.62 68.30 -61.98 69.07 -61.34 69.83 -60.69 70.60 -60.05 71.37 -59.40 72.13 -58.76 72.90 -58.11 73.66 -57.46 74.43 -56.82 75.19 -56.17 75.95 -55.52 76.71 -54.87 77.47 -54.22 78.24 -53.56 78.99 -52.91 79.75 -52.26 80.51 -51.60 81.27 -50.95 82.03 -50.29 82.78 -49.64 83.54 -48.98 84.29 -48.32 85.05 -47.66 85.80 -47.00 86.56 -46.34 87.31 -45.68 88.06 -45.02 88.81 -44.36 89.56 -43.69 90.31 -43.03 91.06 -42.36 91.81 -41.70 92.56 -41.03 93.31 -40.36 94.05 -39.70 94.80 -39.03 95.54 -38.36 96.29 -37.69 97.03 -37.02 97.77 -36.35 98.52 -35.67 99.26 -35.00 100.00 -35 100 -34.05 99.69 -33.10 99.38 -32.15 99.08 -31.20 98.77 -30.25 98.45 -29.30 98.14 -28.35 97.83 -27.41 97.52 -26.46 97.20 -25.51 96.89 -24.56 96.57 -23.62 96.25 -22.67 95.93 -21.72 95.61 -20.78 95.29 -19.83 94.97 -18.89 94.65 -17.94 94.33 -17.00 94.00 -16.05 93.68 -15.11 93.35 -14.16 93.02 -13.22 92.70 -12.28 92.37 -11.34 92.04 -10.39 91.71 -9.45 91.38 -8.51 91.04 -7.57 90.71 -6.63 90.37 -5.69 90.04 -4.75 89.70 -3.81 89.37 -2.87 89.03 -1.93 88.69 -0.99 88.35 -0.05 88.01 0.89 87.66 1.83 87.32 2.76 86.98 3.70 86.63 4.64 86.29 5.58 85.94 6.51 85.59 7.45 85.24 8.38 84.89 9.32 84.54 10.25 84.19 11.19 83.84 12.12 83.49 13.06 83.13 13.99 82.78 14.92 82.42 15.86 82.06 16.79 81.71 17.72 81.35 18.65 80.99 19.58 80.63 20.51 80.27 21.44 79.90 22.37 79.54 23.30 79.18 24.23 78.81 25.16 78.44 26.09 78.08 27.02 77.71 27.95 77.34 28.88 76.97 29.80 76.60 30.73 76.23 31.66 75.85 32.58 75.48 33.51 75.11 34.43 74.73 35.36 74.35 36.28 73.98 37.21 73.60 38.13 73.22 39.06 72.84 39.98 72.46 40.90 72.08 41.82 71.69 42.75 71.31 43.67 70.92 44.59 70.54 45.51 70.15 46.43 69.76 47.35 69.38 48.27 68.99 49.19 68.60 50.11 68.20 51.03 67.81 51.95 67.42 52.86 67.03 53.78 66.63 54.70 66.23 55.61 65.84 56.53 65.44 57.45 65.04 58.36 64.64 59.28 64.24 60.19 63.84 61.10 63.44 62.02 63.04 62.93 62.63 63.85 62.23 64.76 61.82 65.67 61.41 66.58 61.01 67.49 60.60 68.40 60.19 69.31 59.78 70.22 59.37 71.13 58.95 72.04 58.54 72.95 58.13 73.86 57.71 74.77 57.30 75.68 56.88 76.58 56.46 77.49 56.04 78.40 55.62 79.30 55.20 80.21 54.78 81.11 54.36 82.02 53.94 82.92 53.51 83.83 53.09 84.73 52.66 85.63 52.24 86.54 51.81 87.44 51.38 88.34 50.95 89.24 50.52 90.14 50.09 91.04 49.66 91.94 49.22 92.84 48.79 93.74 48.35 94.64 47.92 95.54 47.48 96.44 47.05 97.33 46.61 98.23 46.17 99.13 45.73 100.02 45.29 100.92 44.84 101.81 44.40 102.71 43.96 103.60 43.51 104.50 43.07 105.39 42.62 106.28 42.17 107.17 41.73 108.07 41.28 108.96 40.83 109.85 40.38 110.74 39.92 111.63 39.47 112.52 39.02 113.41 38.56 114.30 38.11 115.19 37.65 116.08 37.19 116.96 36.74 117.85 36.28 118.74 35.82 119.62 35.36 120.51 34.90 121.39 34.43 122.28 33.97 123.16 33.51 124.05 33.04 124.93 32.57 125.81 32.11 126.70 31.64 127.58 31.17 128.46 30.70 129.34 30.23 130.22 29.76 131.10 29.29 131.98 28.82 132.86 28.34 133.74 27.87 134.62 27.39 135.49 26.91 136.37 26.44 137.25 25.96 138.12 25.48 139.00 25.00 139 25 138.29 24.30 137.58 23.60 136.87 22.90 136.17 22.19 135.46 21.49 134.76 20.78 134.06 20.07 133.36 19.36 132.65 18.65 131.96 17.94 131.26 17.23 130.56 16.52 129.87 15.80 129.17 15.09 128.48 14.37 127.79 13.65 127.09 12.93 126.41 12.21 125.72 11.49 125.03 10.77 124.34 10.05 123.66 9.32 122.98 8.60 122.29 7.87 121.61 7.14 120.93 6.41 120.25 5.68 119.58 4.95 118.90 4.22 118.22 3.48 117.55 2.75 116.88 2.01 116.21 1.27 115.54 0.54 114.87 -0.20 114.20 -0.94 113.53 -1.69 112.87 -2.43 112.20 -3.17 111.54 -3.92 110.88 -4.66 110.22 -5.41 109.56 -6.16 108.90 -6.91 108.24 -7.66 107.59 -8.41 106.93 -9.16 106.28 -9.92 105.63 -10.67 104.98 -11.43 104.33 -12.18 103.68 -12.94 103.04 -13.70 102.39 -14.46 101.75 -15.22 101.10 -15.98 100.46 -16.75 99.82 -17.51 99.18 -18.28 98.55 -19.04 97.91 -19.81 97.27 -20.58 96.64 -21.35 96.01 -22.12 95.38 -22.89 94.75 -23.67 94.12 -24.44 93.49 -25.21 92.86 -25.99 92.24 -26.77 91.62 -27.55 90.99 -28.32 90.37 -29.10 89.75 -29.89 89.13 -30.67 88.52 -31.45 87.90 -32.24 87.29 -33.02 86.67 -33.81 86.06 -34.59 85.45 -35.38 84.84 -36.17 84.23 -36.96 83.63 -37.75 83.02 -38.55 82.42 -39.34 81.81 -40.13 81.21 -40.93 80.61 -41.73 80.01 -42.52 79.42 -43.32 78.82 -44.12 78.23 -44.92 77.63 -45.72 77.04 -46.52 76.45 -47.33 75.86 -48.13 75.27 -48.94 74.69 -49.74 74.10 -50.55 73.52 -51.36 72.93 -52.17 72.35 -52.98 71.77 -53.79 71.19 -54.60 70.62 -55.41 70.04 -56.23 69.47 -57.04 68.89 -57.86 68.32 -58.68 67.75 -59.49 67.18 -60.31 66.61 -61.13 66.05 -61.95 65.48 -62.77 64.92 -63.60 64.36 -64.42 63.79 -65.24 63.23 -66.07 62.68 -66.90 62.12 -67.72 61.56 -68.55 61.01 -69.38 60.46 -70.21 59.91 -71.04 59.36 -71.87 58.81 -72.71 58.26 -73.54 57.71 -74.37 57.17 -75.21 56.63 -76.05 56.09 -76.88 55.54 -77.72 55.01 -78.56 54.47 -79.40 53.93 -80.24 53.40 -81.08 52.86 -81.92 52.33 -82.77 51.80 -83.61 51.27 -84.46 50.75 -85.30 50.22 -86.15 49.69 -87.00 49.17 -87.85 48.65 -88.70 48.13 -89.55 47.61 -90.40 47.09 -91.25 46.57 -92.10 46.06 -92.96 45.55 -93.81 45.03 -94.67 44.52 -95.52 44.01 -96.38 43.51 -97.24 43.00 -98.10 42.49 -98.96 41.99 -99.82 41.49 -100.68 40.99 -101.54 40.49 -102.41 39.99 -103.27 39.49 -104.13 39.00 -105.00 39 -105 38.15 -104.46 37.31 -103.93 36.46 -103.40 35.61 -102.86 34.76 -102.33 33.91 -101.81 33.06 -101.28 32.21 -100.75 31.35 -100.23 30.50 -99.70 29.65 -99.18 28.79 -98.66 27.93 -98.14 27.08 -97.63 26.22 -97.11 25.36 -96.60 24.50 -96.08 23.64 -95.57 22.78 -95.06 21.91 -94.55 21.05 -94.04 20.19 -93.54 19.32 -93.03 18.46 -92.53 17.59 -92.03 16.72 -91.53 15.85 -91.03 14.98 -90.53 14.11 -90.04 13.24 -89.54 12.37 -89.05 11.50 -88.56 10.62 -88.07 9.75 -87.58 8.88 -87.09 8.00 -86.61 7.12 -86.12 6.25 -85.64 5.37 -85.16 4.49 -84.68 3.61 -84.20 2.73 -83.72 1.85 -83.25 0.96 -82.77 0.08 -82.30 -0.80 -81.83 -1.69 -81.36 -2.57 -80.89 -3.46 -80.43 -4.35 -79.96 -5.23 -79.50 -6.12 -79.04 -7.01 -78.58 -7.90 -78.12 -8.79 -77.66 -9.68 -77.20 -10.58 -76.75 -11.47 -76.30 -12.36 -75.84 -13.26 -75.39 -14.15 -74.95 -15.05 -74.50 -15.94 -74.05 -16.84 -73.61 -17.74 -73.17 -18.64 -72.72 -19.54 -72.28 -20.44 -71.85 -21.34 -71.41 -22.24 -70.97 -23.15 -70.54 -24.05 -70.11 -24.95 -69.68 -25.86 -69.25 -26.76 -68.82 -27.67 -68.40 -28.58 -67.97 -29.48 -67.55 -30.39 -67.13 -31.30 -66.71 -32.21 -66.29 -33.12 -65.87 -34.03 -65.46 -34.95 -65.04 -35.86 -64.63 -36.77 -64.22 -37.69 -63.81 -38.60 -63.40 -39.51 -62.99 -40.43 -62.59 -41.35 -62.19 -42.26 -61.78 -43.18 -61.38 -44.10 -60.99 -45.02 -60.59 -45.94 -60.19 -46.86 -59.80 -47.78 -59.41 -48.70 -59.01 -49.63 -58.63 -50.55 -58.24 -51.47 -57.85 -52.40 -57.47 -53.32 -57.08 -54.25 -56.70 -55.18 -56.32 -56.10 -55.94 -57.03 -55.57 -57.96 -55.19 -58.89 -54.82 -59.82 -54.44 -60.75 -54.07 -61.68 -53.70 -62.61 -53.33 -63.54 -52.97 -64.48 -52.60 -65.41 -52.24 -66.34 -51.88 -67.28 -51.52 -68.21 -51.16 -69.15 -50.80 -70.08 -50.45 -71.02 -50.09 -71.96 -49.74 -72.90 -49.39 -73.83 -49.04 -74.77 -48.70 -75.71 -48.35 -76.65 -48.00 -77.59 -47.66 -78.54 -47.32 -79.48 -46.98 -80.42 -46.64 -81.36 -46.31 -82.31 -45.97 -83.25 -45.64 -84.20 -45.31 -85.14 -44.98 -86.09 -44.65 -87.04 -44.32 -87.98 -44.00 -88.93 -43.67 -89.88 -43.35 -90.83 -43.03 -91.78 -42.71 -92.73 -42.39 -93.68 -42.08 -94.63 -41.76 -95.58 -41.45 -96.53 -41.14 -97.48 -40.83 -98.44 -40.52 -99.39 -40.21 -100.34 -39.91 -101.30 -39.60 -102.25 -39.30 -103.21 -39.00 -104.16 -38.70 -105.12 -38.41 -106.08 -38.11 -107.03 -37.82 -107.99 -37.53 -108.95 -37.24 -109.91 -36.95 -110.87 -36.66 -111.83 -36.37 -112.79 -36.09 -113.75 -35.81 -114.71 -35.53 -115.67 -35.25 -116.63 -34.97 -117.60 -34.69 -118.56 -34.42 -119.52 -34.15 -120.49 -33.88 -121.45 -33.61 -122.42 -33.34 -123.38 -33.07 -124.35 -32.81 -125.31 -32.54 -126.28 -32.28 -127.25 -32.02 -128.22 -31.76 -129.18 -31.51 -130.15 -31.25 -131.12 -31.00 -132.09 -30.75 -133.06 -30.50 -134.03 -30.25 -135.00 -30.00 -135 -30 Z"></path><path fill="#fff" d="M-40 -37C  -39.04 -36.73 -38.07 -36.47 -37.11 -36.20 -36.14 -35.94 -35.18 -35.67 -34.21 -35.41 -33.25 -35.15 -32.28 -34.89 -31.32 -34.63 -30.35 -34.37 -29.39 -34.11 -28.42 -33.85 -27.45 -33.60 -26.49 -33.34 -25.52 -33.09 -24.55 -32.83 -23.58 -32.58 -22.62 -32.33 -21.65 -32.08 -20.68 -31.83 -19.71 -31.58 -18.74 -31.34 -17.77 -31.09 -16.80 -30.84 -15.83 -30.60 -14.86 -30.36 -13.89 -30.11 -12.92 -29.87 -11.95 -29.63 -10.98 -29.39 -10.01 -29.15 -9.04 -28.92 -8.07 -28.68 -7.09 -28.44 -6.12 -28.21 -5.15 -27.98 -4.18 -27.74 -3.20 -27.51 -2.23 -27.28 -1.26 -27.05 -0.28 -26.82 0.69 -26.59 1.66 -26.37 2.64 -26.14 3.61 -25.92 4.59 -25.69 5.56 -25.47 6.54 -25.25 7.51 -25.03 8.49 -24.81 9.46 -24.59 10.44 -24.37 11.41 -24.15 12.39 -23.93 13.37 -23.72 14.34 -23.51 15.32 -23.29 16.30 -23.08 17.28 -22.87 18.25 -22.66 19.23 -22.45 20.21 -22.24 21.19 -22.03 22.17 -21.83 23.15 -21.62 24.12 -21.42 25.10 -21.21 26.08 -21.01 27.06 -20.81 28.04 -20.61 29.02 -20.41 30.00 -20.21 30.98 -20.01 31.96 -19.82 32.94 -19.62 33.92 -19.43 34.91 -19.23 35.89 -19.04 36.87 -18.85 37.85 -18.66 38.83 -18.47 39.81 -18.28 40.80 -18.09 41.78 -17.90 42.76 -17.72 43.74 -17.53 44.73 -17.35 45.71 -17.17 46.69 -16.98 47.68 -16.80 48.66 -16.62 49.65 -16.44 50.63 -16.27 51.61 -16.09 52.60 -15.91 53.58 -15.74 54.57 -15.57 55.55 -15.39 56.54 -15.22 57.52 -15.05 58.51 -14.88 59.49 -14.71 60.48 -14.54 61.47 -14.37 62.45 -14.21 63.44 -14.04 64.42 -13.88 65.41 -13.72 66.40 -13.55 67.39 -13.39 68.37 -13.23 69.36 -13.07 70.35 -12.91 71.33 -12.76 72.32 -12.60 73.31 -12.45 74.30 -12.29 75.29 -12.14 76.27 -11.99 77.26 -11.83 78.25 -11.68 79.24 -11.54 80.23 -11.39 81.22 -11.24 82.21 -11.09 83.20 -10.95 84.19 -10.80 85.18 -10.66 86.17 -10.52 87.16 -10.38 88.15 -10.24 89.14 -10.10 90.13 -9.96 91.12 -9.82 92.11 -9.68 93.10 -9.55 94.09 -9.41 95.08 -9.28 96.07 -9.15 97.06 -9.02 98.06 -8.89 99.05 -8.76 100.04 -8.63 101.03 -8.50 102.02 -8.37 103.02 -8.25 104.01 -8.12 105.00 -8.00 105 -8 104.70 -7.05 104.40 -6.10 104.11 -5.16 103.80 -4.21 103.50 -3.26 103.20 -2.32 102.90 -1.37 102.59 -0.42 102.29 0.52 101.98 1.47 101.68 2.41 101.37 3.36 101.06 4.30 100.75 5.25 100.44 6.19 100.13 7.14 99.82 8.08 99.50 9.02 99.19 9.96 98.87 10.91 98.56 11.85 98.24 12.79 97.92 13.73 97.60 14.67 97.28 15.61 96.96 16.55 96.64 17.49 96.32 18.43 95.99 19.37 95.67 20.31 95.34 21.25 95.02 22.19 94.69 23.13 94.36 24.07 94.03 25.00 93.70 25.94 93.37 26.88 93.04 27.82 92.71 28.75 92.37 29.69 92.04 30.62 91.70 31.56 91.37 32.49 91.03 33.43 90.69 34.36 90.35 35.30 90.01 36.23 89.67 37.16 89.33 38.10 88.98 39.03 88.64 39.96 88.29 40.89 87.95 41.82 87.60 42.76 87.25 43.69 86.91 44.62 86.56 45.55 86.20 46.48 85.85 47.41 85.50 48.34 85.15 49.27 84.79 50.19 84.44 51.12 84.08 52.05 83.73 52.98 83.37 53.90 83.01 54.83 82.65 55.76 82.29 56.68 81.93 57.61 81.56 58.53 81.20 59.46 80.84 60.38 80.47 61.31 80.10 62.23 79.74 63.15 79.37 64.08 79.00 65.00 79 65 78.01 64.88 77.02 64.75 76.02 64.63 75.03 64.50 74.04 64.37 73.05 64.24 72.06 64.11 71.06 63.98 70.07 63.85 69.08 63.72 68.09 63.59 67.10 63.45 66.11 63.32 65.12 63.18 64.13 63.04 63.14 62.90 62.15 62.76 61.16 62.62 60.17 62.48 59.18 62.34 58.19 62.20 57.20 62.05 56.21 61.91 55.22 61.76 54.23 61.61 53.24 61.46 52.25 61.32 51.26 61.17 50.27 61.01 49.29 60.86 48.30 60.71 47.31 60.55 46.32 60.40 45.33 60.24 44.35 60.09 43.36 59.93 42.37 59.77 41.39 59.61 40.40 59.45 39.41 59.28 38.42 59.12 37.44 58.96 36.45 58.79 35.47 58.63 34.48 58.46 33.49 58.29 32.51 58.12 31.52 57.95 30.54 57.78 29.55 57.61 28.57 57.43 27.58 57.26 26.60 57.09 25.61 56.91 24.63 56.73 23.65 56.56 22.66 56.38 21.68 56.20 20.69 56.02 19.71 55.83 18.73 55.65 17.74 55.47 16.76 55.28 15.78 55.10 14.80 54.91 13.81 54.72 12.83 54.53 11.85 54.34 10.87 54.15 9.89 53.96 8.91 53.77 7.92 53.57 6.94 53.38 5.96 53.18 4.98 52.99 4.00 52.79 3.02 52.59 2.04 52.39 1.06 52.19 0.08 51.99 -0.90 51.79 -1.88 51.58 -2.85 51.38 -3.83 51.17 -4.81 50.97 -5.79 50.76 -6.77 50.55 -7.75 50.34 -8.72 50.13 -9.70 49.92 -10.68 49.71 -11.66 49.49 -12.63 49.28 -13.61 49.07 -14.59 48.85 -15.56 48.63 -16.54 48.41 -17.51 48.19 -18.49 47.97 -19.46 47.75 -20.44 47.53 -21.41 47.31 -22.39 47.08 -23.36 46.86 -24.34 46.63 -25.31 46.41 -26.28 46.18 -27.26 45.95 -28.23 45.72 -29.20 45.49 -30.18 45.26 -31.15 45.02 -32.12 44.79 -33.09 44.56 -34.07 44.32 -35.04 44.08 -36.01 43.85 -36.98 43.61 -37.95 43.37 -38.92 43.13 -39.89 42.89 -40.86 42.64 -41.83 42.40 -42.80 42.16 -43.77 41.91 -44.74 41.66 -45.71 41.42 -46.68 41.17 -47.65 40.92 -48.62 40.67 -49.58 40.42 -50.55 40.17 -51.52 39.91 -52.49 39.66 -53.45 39.40 -54.42 39.15 -55.39 38.89 -56.35 38.63 -57.32 38.37 -58.28 38.11 -59.25 37.85 -60.21 37.59 -61.18 37.33 -62.14 37.06 -63.11 36.80 -64.07 36.53 -65.04 36.27 -66.00 36.00 -66 36 -65.63 35.08 -65.26 34.15 -64.90 33.23 -64.53 32.31 -64.16 31.38 -63.80 30.46 -63.44 29.53 -63.07 28.61 -62.71 27.68 -62.35 26.76 -61.99 25.83 -61.63 24.90 -61.27 23.98 -60.92 23.05 -60.56 22.12 -60.21 21.19 -59.85 20.27 -59.50 19.34 -59.15 18.41 -58.80 17.48 -58.44 16.55 -58.09 15.62 -57.75 14.69 -57.40 13.76 -57.05 12.82 -56.71 11.89 -56.36 10.96 -56.02 10.03 -55.67 9.10 -55.33 8.16 -54.99 7.23 -54.65 6.30 -54.31 5.36 -53.97 4.43 -53.63 3.49 -53.30 2.56 -52.96 1.62 -52.63 0.69 -52.29 -0.25 -51.96 -1.18 -51.63 -2.12 -51.30 -3.06 -50.97 -4.00 -50.64 -4.93 -50.31 -5.87 -49.98 -6.81 -49.66 -7.75 -49.33 -8.69 -49.01 -9.63 -48.68 -10.57 -48.36 -11.51 -48.04 -12.45 -47.72 -13.39 -47.40 -14.33 -47.08 -15.27 -46.76 -16.21 -46.44 -17.15 -46.13 -18.09 -45.81 -19.04 -45.50 -19.98 -45.18 -20.92 -44.87 -21.86 -44.56 -22.81 -44.25 -23.75 -43.94 -24.70 -43.63 -25.64 -43.32 -26.59 -43.02 -27.53 -42.71 -28.48 -42.41 -29.42 -42.10 -30.37 -41.80 -31.32 -41.50 -32.26 -41.20 -33.21 -40.89 -34.16 -40.60 -35.10 -40.30 -36.05 -40.00 -37.00 -40 -37 Z" opacity="0.9"></path><path fill="#fff" d="M-70 -67C  -69.04 -66.73 -68.07 -66.47 -67.11 -66.20 -66.14 -65.94 -65.18 -65.67 -64.21 -65.41 -63.25 -65.15 -62.28 -64.89 -61.32 -64.63 -60.35 -64.37 -59.39 -64.11 -58.42 -63.85 -57.45 -63.60 -56.49 -63.34 -55.52 -63.09 -54.55 -62.83 -53.58 -62.58 -52.62 -62.33 -51.65 -62.08 -50.68 -61.83 -49.71 -61.58 -48.74 -61.34 -47.77 -61.09 -46.80 -60.84 -45.83 -60.60 -44.86 -60.36 -43.89 -60.11 -42.92 -59.87 -41.95 -59.63 -40.98 -59.39 -40.01 -59.15 -39.04 -58.92 -38.07 -58.68 -37.09 -58.44 -36.12 -58.21 -35.15 -57.98 -34.18 -57.74 -33.20 -57.51 -32.23 -57.28 -31.26 -57.05 -30.28 -56.82 -29.31 -56.59 -28.34 -56.37 -27.36 -56.14 -26.39 -55.92 -25.41 -55.69 -24.44 -55.47 -23.46 -55.25 -22.49 -55.03 -21.51 -54.81 -20.54 -54.59 -19.56 -54.37 -18.59 -54.15 -17.61 -53.93 -16.63 -53.72 -15.66 -53.51 -14.68 -53.29 -13.70 -53.08 -12.72 -52.87 -11.75 -52.66 -10.77 -52.45 -9.79 -52.24 -8.81 -52.03 -7.83 -51.83 -6.85 -51.62 -5.88 -51.42 -4.90 -51.21 -3.92 -51.01 -2.94 -50.81 -1.96 -50.61 -0.98 -50.41 0.00 -50.21 0.98 -50.01 1.96 -49.82 2.94 -49.62 3.92 -49.43 4.91 -49.23 5.89 -49.04 6.87 -48.85 7.85 -48.66 8.83 -48.47 9.81 -48.28 10.80 -48.09 11.78 -47.90 12.76 -47.72 13.74 -47.53 14.73 -47.35 15.71 -47.17 16.69 -46.98 17.68 -46.80 18.66 -46.62 19.65 -46.44 20.63 -46.27 21.61 -46.09 22.60 -45.91 23.58 -45.74 24.57 -45.57 25.55 -45.39 26.54 -45.22 27.52 -45.05 28.51 -44.88 29.49 -44.71 30.48 -44.54 31.47 -44.37 32.45 -44.21 33.44 -44.04 34.42 -43.88 35.41 -43.72 36.40 -43.55 37.39 -43.39 38.37 -43.23 39.36 -43.07 40.35 -42.91 41.33 -42.76 42.32 -42.60 43.31 -42.45 44.30 -42.29 45.29 -42.14 46.27 -41.99 47.26 -41.83 48.25 -41.68 49.24 -41.54 50.23 -41.39 51.22 -41.24 52.21 -41.09 53.20 -40.95 54.19 -40.80 55.18 -40.66 56.17 -40.52 57.16 -40.38 58.15 -40.24 59.14 -40.10 60.13 -39.96 61.12 -39.82 62.11 -39.68 63.10 -39.55 64.09 -39.41 65.08 -39.28 66.07 -39.15 67.06 -39.02 68.06 -38.89 69.05 -38.76 70.04 -38.63 71.03 -38.50 72.02 -38.37 73.02 -38.25 74.01 -38.12 75.00 -38.00 75 -38 74.70 -37.05 74.40 -36.10 74.11 -35.16 73.80 -34.21 73.50 -33.26 73.20 -32.32 72.90 -31.37 72.59 -30.42 72.29 -29.48 71.98 -28.53 71.68 -27.59 71.37 -26.64 71.06 -25.70 70.75 -24.75 70.44 -23.81 70.13 -22.86 69.82 -21.92 69.50 -20.98 69.19 -20.04 68.87 -19.09 68.56 -18.15 68.24 -17.21 67.92 -16.27 67.60 -15.33 67.28 -14.39 66.96 -13.45 66.64 -12.51 66.32 -11.57 65.99 -10.63 65.67 -9.69 65.34 -8.75 65.02 -7.81 64.69 -6.87 64.36 -5.93 64.03 -5.00 63.70 -4.06 63.37 -3.12 63.04 -2.18 62.71 -1.25 62.37 -0.31 62.04 0.62 61.70 1.56 61.37 2.49 61.03 3.43 60.69 4.36 60.35 5.30 60.01 6.23 59.67 7.16 59.33 8.10 58.98 9.03 58.64 9.96 58.29 10.89 57.95 11.82 57.60 12.76 57.25 13.69 56.91 14.62 56.56 15.55 56.20 16.48 55.85 17.41 55.50 18.34 55.15 19.27 54.79 20.19 54.44 21.12 54.08 22.05 53.73 22.98 53.37 23.90 53.01 24.83 52.65 25.76 52.29 26.68 51.93 27.61 51.56 28.53 51.20 29.46 50.84 30.38 50.47 31.31 50.10 32.23 49.74 33.15 49.37 34.08 49.00 35.00 49 35 48.01 34.88 47.02 34.75 46.02 34.63 45.03 34.50 44.04 34.37 43.05 34.24 42.06 34.11 41.06 33.98 40.07 33.85 39.08 33.72 38.09 33.59 37.10 33.45 36.11 33.32 35.12 33.18 34.13 33.04 33.14 32.90 32.15 32.76 31.16 32.62 30.17 32.48 29.18 32.34 28.19 32.20 27.20 32.05 26.21 31.91 25.22 31.76 24.23 31.61 23.24 31.46 22.25 31.32 21.26 31.17 20.27 31.01 19.29 30.86 18.30 30.71 17.31 30.55 16.32 30.40 15.33 30.24 14.35 30.09 13.36 29.93 12.37 29.77 11.39 29.61 10.40 29.45 9.41 29.28 8.42 29.12 7.44 28.96 6.45 28.79 5.47 28.63 4.48 28.46 3.49 28.29 2.51 28.12 1.52 27.95 0.54 27.78 -0.45 27.61 -1.43 27.43 -2.42 27.26 -3.40 27.09 -4.39 26.91 -5.37 26.73 -6.35 26.56 -7.34 26.38 -8.32 26.20 -9.31 26.02 -10.29 25.83 -11.27 25.65 -12.26 25.47 -13.24 25.28 -14.22 25.10 -15.20 24.91 -16.19 24.72 -17.17 24.53 -18.15 24.34 -19.13 24.15 -20.11 23.96 -21.09 23.77 -22.08 23.57 -23.06 23.38 -24.04 23.18 -25.02 22.99 -26.00 22.79 -26.98 22.59 -27.96 22.39 -28.94 22.19 -29.92 21.99 -30.90 21.79 -31.88 21.58 -32.85 21.38 -33.83 21.17 -34.81 20.97 -35.79 20.76 -36.77 20.55 -37.75 20.34 -38.72 20.13 -39.70 19.92 -40.68 19.71 -41.66 19.49 -42.63 19.28 -43.61 19.07 -44.59 18.85 -45.56 18.63 -46.54 18.41 -47.51 18.19 -48.49 17.97 -49.46 17.75 -50.44 17.53 -51.41 17.31 -52.39 17.08 -53.36 16.86 -54.34 16.63 -55.31 16.41 -56.28 16.18 -57.26 15.95 -58.23 15.72 -59.20 15.49 -60.18 15.26 -61.15 15.02 -62.12 14.79 -63.09 14.56 -64.07 14.32 -65.04 14.08 -66.01 13.85 -66.98 13.61 -67.95 13.37 -68.92 13.13 -69.89 12.89 -70.86 12.64 -71.83 12.40 -72.80 12.16 -73.77 11.91 -74.74 11.66 -75.71 11.42 -76.68 11.17 -77.65 10.92 -78.62 10.67 -79.58 10.42 -80.55 10.17 -81.52 9.91 -82.49 9.66 -83.45 9.40 -84.42 9.15 -85.39 8.89 -86.35 8.63 -87.32 8.37 -88.28 8.11 -89.25 7.85 -90.21 7.59 -91.18 7.33 -92.14 7.06 -93.11 6.80 -94.07 6.53 -95.04 6.27 -96.00 6.00 -96 6 -95.63 5.08 -95.26 4.15 -94.90 3.23 -94.53 2.31 -94.16 1.38 -93.80 0.46 -93.44 -0.47 -93.07 -1.39 -92.71 -2.32 -92.35 -3.24 -91.99 -4.17 -91.63 -5.10 -91.27 -6.02 -90.92 -6.95 -90.56 -7.88 -90.21 -8.81 -89.85 -9.73 -89.50 -10.66 -89.15 -11.59 -88.80 -12.52 -88.44 -13.45 -88.09 -14.38 -87.75 -15.31 -87.40 -16.24 -87.05 -17.18 -86.71 -18.11 -86.36 -19.04 -86.02 -19.97 -85.67 -20.90 -85.33 -21.84 -84.99 -22.77 -84.65 -23.70 -84.31 -24.64 -83.97 -25.57 -83.63 -26.51 -83.30 -27.44 -82.96 -28.38 -82.63 -29.31 -82.29 -30.25 -81.96 -31.18 -81.63 -32.12 -81.30 -33.06 -80.97 -34.00 -80.64 -34.93 -80.31 -35.87 -79.98 -36.81 -79.66 -37.75 -79.33 -38.69 -79.01 -39.63 -78.68 -40.57 -78.36 -41.51 -78.04 -42.45 -77.72 -43.39 -77.40 -44.33 -77.08 -45.27 -76.76 -46.21 -76.44 -47.15 -76.13 -48.09 -75.81 -49.04 -75.50 -49.98 -75.18 -50.92 -74.87 -51.86 -74.56 -52.81 -74.25 -53.75 -73.94 -54.70 -73.63 -55.64 -73.32 -56.59 -73.02 -57.53 -72.71 -58.48 -72.41 -59.42 -72.10 -60.37 -71.80 -61.32 -71.50 -62.26 -71.20 -63.21 -70.89 -64.16 -70.60 -65.10 -70.30 -66.05 -70.00 -67.00 -70 -67 Z" opacity="0.9"></path></g><path fill="rgba(0,0,0,0.18)" d="M-85 20C  -83.97 19.95 -82.90 20.39 -81.94 19.66 -81.00 19.22 -79.95 19.12 -80 19 -79.01 18.72 -77.90 18.90 -77.09 17.98 -76.07 17.81 -74.94 17.82 -74.27 16.80 -73.06 16.88 -72.30 16.11 -71.33 15.67 -71.08 14.29 -70.13 13.85 -70 14 -69.30 13.25 -68.50 12.64 -67.27 12.67 -66.97 11.34 -66.13 10.80 -65.19 10.40 -64.09 10.21 -63.73 9.01 -62.55 8.92 -61.85 8.18 -61.20 7.38 -60.17 7.08 -59.54 6.26 -58.41 6.07 -57.95 5.03 -57.35 4.18 -56.28 3.92 -55.44 3.36 -54.93 2.41 -54.07 1.88 -53.02 1.58 -52.67 0.43 -51.74 -0.02 -51.10 -0.81 -49.99 -1.06 -49.75 -2.31 -48.61 -2.53 -47.62 -2.92 -47.38 -4.15 -46.69 -4.87 -45.56 -5.13 -45.29 -6.31 -45 -6 -44.13 -6.55 -43.33 -7.18 -43.17 -8.40 -42.00 -8.69 -41.54 -9.62 -40.95 -10.44 -40.27 -11.17 -39.54 -11.87 -38.96 -12.69 -38.11 -13.28 -37.65 -14.20 -37.14 -15.09 -36.71 -16.03 -35.69 -16.49 -34.83 -17.07 -34.82 -18.35 -33.62 -18.68 -32.95 -19.43 -32.41 -20.28 -32.32 -21.48 -31.13 -21.83 -30.59 -22.68 -30.46 -23.83 -29.78 -24.58 -28.65 -24.99 -28.11 -25.84 -28.13 -27.08 -27.29 -27.71 -26.39 -28.30 -26.07 -29.31 -25.36 -30.03 -25.35 -31.24 -25 -31 -24.39 -31.83 -23.32 -32.29 -23.41 -33.65 -22.61 -34.34 -21.88 -35.11 -21.82 -36.24 -21.28 -37.11 -20.40 -37.87 -20.51 -39.01 -20.13 -39.97 -20.00 -41.00 -20 -41 -20.29 -42.03 -19.78 -43.09 -19.84 -44.16 -21.07 -44.90 -20.71 -46.12 -21 -46 -22.08 -45.95 -23.15 -45.73 -23.87 -44.71 -24.98 -44.51 -25.88 -43.90 -26.36 -42.85 -26.70 -41.78 -27 -42 -27.99 -41.55 -28.58 -40.74 -29.07 -39.83 -29.94 -39.28 -30.24 -38.21 -30.71 -37.29 -31.62 -36.76 -32.62 -36.32 -32.99 -35.31 -33.31 -34.26 -34.08 -33.61 -34.80 -32.91 -35.66 -32.35 -36.57 -31.83 -37.31 -31.15 -37.89 -30.33 -38.59 -29.62 -39.34 -28.95 -39.67 -27.90 -40.75 -27.54 -41.13 -26.53 -41.87 -25.86 -42.16 -24.77 -43.25 -24.42 -43.88 -23.65 -44.18 -22.55 -45.55 -22.47 -46.16 -21.68 -46.90 -21.01 -47.35 -20.06 -48.15 -19.44 -48.89 -18.77 -49.29 -17.77 -49.81 -16.89 -50.43 -16.11 -51.42 -15.67 -52.33 -15.16 -52.86 -14.29 -53.44 -13.46 -54.02 -12.63 -54.73 -11.93 -55.55 -11.34 -56.51 -10.88 -56.84 -9.81 -57.30 -8.86 -58.61 -8.75 -58.96 -7.69 -60.05 -7.37 -60.36 -6.27 -60.98 -5.49 -61.50 -4.60 -62.32 -4.00 -62.99 -3.26 -64.03 -2.89 -64.54 -1.99 -65.49 -1.53 -66.18 -0.80 -67.00 -0.22 -67.77 0.43 -68.02 1.59 -68.72 2.30 -69.79 2.64 -70.48 3.36 -71.13 4.11 -71.67 4.99 -72.67 5.39 -73.45 6.02 -73.94 6.95 -74.44 7.87 -75.44 8.27 -76.16 8.96 -76.72 9.82 -77.48 10.47 -78.46 10.89 -79.01 11.75 -79.27 12.92 -80.13 13.47 -81.28 13.71 -81 14 -81.61 14.93 -82.93 15.03 -83.35 16.12 -83.54 17.27 -83.97 18.19 -84.91 18.91 -84.81 20.05 -85 20 Z" transform="translate(-5,12) rotate(50)"></path><path fill="green" d="M-85 20C  -83.97 19.98 -82.92 20.12 -81.93 19.72 -80.85 19.74 -80.11 18.73 -80 19 -79.05 18.50 -77.88 18.98 -76.94 18.44 -75.90 18.25 -75.04 17.59 -74.39 16.57 -73.14 16.73 -72.66 15.54 -71.51 15.42 -70.85 14.58 -70.08 13.91 -70 14 -69.25 13.32 -68.06 13.28 -67.58 12.21 -66.90 11.45 -66.07 10.89 -65.14 10.46 -64.19 10.07 -63.52 9.29 -62.58 8.88 -61.58 8.54 -61.09 7.53 -60.13 7.13 -59.33 6.53 -58.52 5.94 -57.86 5.16 -57.11 4.49 -56.42 3.74 -55.39 3.42 -54.97 2.36 -53.86 2.13 -53.54 0.95 -52.24 0.95 -51.89 -0.19 -50.97 -0.66 -50.47 -1.61 -49.39 -1.89 -48.88 -2.83 -47.84 -3.17 -47.01 -3.74 -46.44 -4.61 -45.86 -5.46 -44.71 -5.69 -45 -6 -44.35 -6.76 -43.55 -7.39 -42.65 -7.92 -42.32 -8.97 -41.86 -9.91 -41.22 -10.68 -40.28 -11.18 -39.69 -11.99 -38.69 -12.46 -38.41 -13.54 -37.52 -14.10 -36.73 -14.74 -36.12 -15.54 -36.00 -16.74 -35.16 -17.35 -34.12 -17.79 -33.77 -18.80 -33.27 -19.68 -32.68 -20.49 -32.35 -21.50 -31.57 -22.17 -30.74 -22.79 -29.88 -23.39 -29.32 -24.23 -29.32 -25.48 -28.13 -25.85 -27.98 -26.98 -26.88 -27.42 -26.47 -28.36 -26.15 -29.36 -25.42 -30.07 -25.00 -31.00 -25 -31 -24.48 -31.91 -24.02 -32.85 -22.91 -33.30 -22.22 -34.09 -21.65 -34.98 -21.35 -36.00 -20.97 -36.97 -20.34 -37.85 -20.40 -38.97 -20.26 -40.01 -19.65 -40.93 -20 -41 -19.59 -42.03 -19.90 -43.07 -20.46 -44.03 -20.40 -45.11 -20.86 -46.06 -21 -46 -21.94 -45.39 -23.07 -45.51 -24.16 -45.28 -24.81 -44.26 -25.36 -43.28 -26.66 -43.12 -27.15 -42.11 -27 -42 -27.53 -41.13 -28.57 -40.72 -28.94 -39.72 -29.88 -39.22 -30.18 -38.15 -30.92 -37.47 -31.46 -36.62 -32.09 -35.84 -32.71 -35.06 -33.74 -34.65 -34.66 -34.13 -34.71 -32.83 -35.40 -32.11 -36.27 -31.55 -37.19 -31.04 -37.68 -30.13 -38.68 -29.70 -39.28 -28.90 -39.59 -27.82 -40.56 -27.37 -40.81 -26.23 -41.60 -25.61 -42.19 -24.79 -43.44 -24.60 -43.72 -23.49 -44.48 -22.84 -45.12 -22.07 -45.91 -21.44 -46.43 -20.56 -47.42 -20.12 -47.88 -19.19 -48.39 -18.30 -49.60 -18.07 -50.25 -17.31 -50.82 -16.48 -51.19 -15.45 -52.01 -14.85 -52.46 -13.90 -53.12 -13.15 -54.03 -12.64 -55.04 -12.24 -55.34 -11.13 -56.13 -10.51 -56.93 -9.89 -57.94 -9.49 -58.47 -8.61 -58.91 -7.65 -59.85 -7.17 -60.32 -6.23 -60.81 -5.31 -61.74 -4.83 -62.61 -4.29 -63.08 -3.35 -63.95 -2.81 -64.84 -2.29 -65.23 -1.27 -65.71 -0.33 -66.68 0.11 -67.17 1.03 -67.90 1.71 -69.08 1.94 -69.29 3.14 -70.51 3.33 -71.12 4.13 -71.59 5.08 -72.22 5.86 -73.04 6.44 -74.05 6.84 -74.56 7.75 -74.96 8.77 -75.85 9.28 -76.42 10.12 -77.20 10.75 -77.87 11.49 -78.85 11.92 -79.38 12.81 -80.36 13.23 -80.92 14.09 -81 14 -81.72 14.79 -82.41 15.56 -83.47 16.02 -84.03 16.94 -84.56 17.88 -84.52 19.06 -84.53 20.13 -85 20 Z" transform="translate(-10,5) rotate(60)"></path><path fill="rgba(255,215,0,0.4)" d="M-85 20C  -83.98 20.89 -82.96 19.74 -82.06 19.09 -81.01 19.21 -80.23 18.47 -80 19 -79.14 18.08 -78.18 17.82 -77.16 17.77 -76.09 17.73 -74.80 18.15 -74.54 16.27 -73.11 16.79 -72.35 16.03 -71.60 15.29 -70.93 14.48 -70.30 13.66 -70 14 -68.77 14.03 -68.59 12.51 -67.23 12.72 -66.57 11.91 -66.10 10.84 -65.50 9.96 -63.79 10.62 -62.89 10.15 -63.04 8.26 -62.05 7.92 -61.21 7.37 -60.52 6.62 -58.96 7.01 -58.68 5.73 -58.50 4.35 -57.49 4.01 -56.54 3.60 -54.93 3.99 -54.45 3.00 -53.51 2.55 -53.61 0.86 -52.52 0.62 -52.30 -0.68 -50.53 -0.14 -49.64 -0.66 -49.10 -1.56 -49.04 -3.01 -48.21 -3.58 -46.81 -3.53 -46.84 -5.04 -45.76 -5.34 -44.83 -5.81 -45 -6 -43.68 -6.13 -43.68 -7.51 -43.66 -8.85 -43.01 -9.60 -41.68 -9.75 -41.25 -10.71 -39.80 -10.76 -39.98 -12.25 -39.24 -12.94 -38.04 -13.22 -37.07 -13.72 -37.72 -15.57 -35.87 -15.33 -35.32 -16.18 -34.59 -16.89 -34.53 -18.12 -33.62 -18.68 -33.16 -19.59 -33.22 -20.91 -31.70 -21.00 -31.13 -21.82 -30.81 -22.84 -30.50 -23.86 -29.40 -24.29 -29.16 -25.36 -29.17 -26.61 -27.62 -26.72 -26.71 -27.30 -27.42 -29.03 -26.07 -29.30 -26.13 -30.56 -25.12 -31.08 -25 -31 -24.28 -31.74 -24.20 -33.00 -22.33 -32.88 -22.46 -34.24 -22.55 -35.49 -21.60 -36.13 -20.62 -36.82 -20.82 -38.03 -20.90 -39.13 -20.02 -39.94 -20.70 -41.15 -20 -41 -19.89 -42.03 -19.80 -43.08 -19.53 -44.22 -20.42 -45.11 -20.66 -46.14 -21 -46 -22.13 -46.18 -23.01 -45.34 -23.64 -44.26 -25.01 -44.55 -25.78 -43.77 -26.13 -42.63 -26.82 -41.87 -27 -42 -27.13 -40.78 -28.30 -40.49 -29.62 -40.33 -29.30 -38.70 -30.42 -38.37 -31.38 -37.89 -31.49 -36.64 -32.36 -36.09 -32.78 -35.12 -33.62 -34.54 -34.03 -33.56 -35.67 -33.70 -35.35 -32.06 -35.71 -31.04 -36.78 -30.67 -37.77 -30.22 -39.10 -30.09 -38.59 -28.27 -40.14 -28.34 -40.20 -27.03 -40.42 -25.87 -42.19 -26.16 -42.13 -24.74 -42.91 -24.11 -43.41 -23.20 -43.87 -22.26 -45.34 -22.27 -45.49 -21.05 -46.19 -20.33 -47.77 -20.45 -47.25 -18.59 -48.47 -18.37 -49.63 -18.10 -50.69 -17.73 -50.35 -16.02 -51.79 -16.02 -52.74 -15.55 -52.48 -13.92 -53.45 -13.47 -54.22 -12.82 -54.93 -12.12 -55.42 -11.21 -55.69 -10.09 -56.26 -9.25 -57.68 -9.24 -57.65 -7.81 -59.15 -7.88 -59.35 -6.68 -60.42 -6.33 -61.79 -6.28 -62.04 -5.13 -62.47 -4.15 -62.93 -3.20 -63.54 -2.41 -65.04 -2.49 -64.66 -0.70 -65.59 -0.21 -66.43 0.35 -67.47 0.73 -67.92 1.68 -69.09 1.93 -69.34 3.09 -70.47 3.37 -70.51 4.74 -72.04 4.61 -72.83 5.23 -73.79 5.68 -74.01 6.88 -74.08 8.24 -74.75 8.98 -75.42 9.72 -76.94 9.59 -76.88 11.09 -78.40 10.95 -78.51 12.27 -79.95 12.22 -80.94 12.63 -81.30 13.69 -81 14 -81.23 15.41 -82.47 15.51 -82.74 16.62 -83.48 17.31 -83.57 18.40 -83.98 19.28 -85.29 19.92 -85 20 Z" stroke="rgba(255,215,0,0.7)" stroke-width="0.75px" transform="translate(-10,5) rotate(60)"></path><path fill="rgba(0,0,0,0.18)" d="M-28 -20C  -27.00 -20.41 -26.00 -20.13 -25.00 -19.74 -24.00 -19.71 -23.00 -19.73 -23 -20 -24.07 -20.30 -24.51 -21.30 -24.59 -22.43 -25.41 -23.10 -25.02 -24.25 -25.69 -25.10 -26.06 -26.11 -25.69 -27.11 -25.77 -28.21 -24.13 -28.63 -23.81 -29.49 -22.92 -29.94 -23.06 -31.46 -22.25 -32.16 -20.75 -31.45 -21 -32 -22.00 -32.00 -23.00 -32.00 -24.00 -32.00 -25.00 -32.00 -26.00 -32.00 -27.00 -32.00 -28.00 -32.00 -29.00 -32.00 -30.00 -32.00 -31.00 -32.00 -31 -32 -31.71 -31.29 -32.43 -30.57 -33.14 -29.86 -33.86 -29.14 -34.57 -28.43 -35.29 -27.71 -36.00 -27.00 -36 -27 Z" transform="translate(17,-7) rotate(10)"></path><path fill="rgba(0,0,0,0.18)" d="M-85 20C  -83.97 20.45 -82.95 19.82 -81.90 19.86 -80.98 19.30 -80.01 18.98 -80 19 -79.09 18.33 -78.02 18.45 -77.04 18.14 -76.00 17.98 -75.28 17.05 -74.03 17.28 -73.27 16.51 -72.55 15.71 -71.53 15.39 -70.61 14.89 -69.67 14.38 -70 14 -69.39 13.11 -68.08 13.26 -67.36 12.54 -66.52 11.99 -65.66 11.47 -65.32 10.21 -64.11 10.18 -63.21 9.71 -62.50 8.98 -61.56 8.57 -61.08 7.54 -60.04 7.26 -59.34 6.52 -58.68 5.73 -58.11 4.83 -57.08 4.52 -56.13 4.11 -55.58 3.19 -55.03 2.28 -53.90 2.09 -53.02 1.58 -52.56 0.56 -51.75 -0.03 -51.23 -0.96 -50.01 -1.08 -49.14 -1.61 -48.42 -2.31 -47.69 -3.00 -46.94 -3.67 -46.28 -4.43 -45.74 -5.32 -45.24 -6.26 -45 -6 -44.40 -6.81 -43.88 -7.69 -43.11 -8.34 -42.65 -9.28 -41.59 -9.67 -40.82 -10.33 -40.02 -10.95 -40.00 -12.27 -39.20 -12.90 -38.48 -13.60 -37.64 -14.20 -36.95 -14.93 -36.48 -15.83 -35.98 -16.73 -35.44 -17.57 -34.31 -17.94 -33.93 -18.92 -33.61 -19.95 -32.56 -20.39 -31.94 -21.18 -31.52 -22.12 -31.07 -23.04 -30.61 -23.95 -29.90 -24.66 -29.38 -25.52 -28.34 -26.00 -27.68 -26.76 -27.51 -27.87 -26.46 -28.36 -25.88 -29.17 -25.17 -29.90 -25.36 -31.24 -25 -31 -24.03 -31.52 -23.46 -32.41 -22.85 -33.25 -22.32 -34.16 -22.21 -35.29 -21.80 -36.23 -21.34 -37.14 -21.06 -38.12 -20.91 -39.14 -20.00 -39.94 -20.40 -41.08 -20 -41 -20.29 -42.03 -20.35 -43.03 -19.86 -44.15 -20.63 -45.04 -21.22 -45.91 -21 -46 -22.08 -45.95 -23.18 -45.81 -24.13 -45.23 -24.99 -44.53 -25.95 -43.98 -26.35 -42.83 -27.17 -42.12 -27 -42 -27.68 -41.27 -28.25 -40.44 -29.24 -39.98 -29.60 -38.97 -30.56 -38.50 -30.74 -37.31 -31.39 -36.56 -32.65 -36.35 -32.81 -35.14 -33.76 -34.66 -34.66 -34.13 -34.81 -32.92 -35.43 -32.13 -36.23 -31.52 -37.38 -31.21 -37.56 -30.02 -38.24 -29.30 -38.98 -28.62 -40.10 -28.30 -40.40 -27.22 -40.91 -26.33 -41.70 -25.70 -42.72 -25.29 -43.40 -24.56 -43.64 -23.42 -44.80 -23.13 -45.44 -22.37 -46.22 -21.74 -46.53 -20.65 -47.44 -20.15 -48.08 -19.37 -48.68 -18.57 -49.67 -18.14 -50.14 -17.21 -50.43 -16.10 -51.54 -15.78 -52.02 -14.86 -52.66 -14.09 -53.32 -13.34 -53.82 -12.44 -54.87 -12.07 -55.60 -11.39 -56.25 -10.63 -56.99 -9.96 -57.66 -9.21 -58.20 -8.35 -59.11 -7.84 -59.55 -6.88 -60.54 -6.45 -60.93 -5.44 -62.12 -5.21 -62.28 -3.96 -63.32 -3.59 -64.09 -2.95 -64.58 -2.03 -65.34 -1.38 -66.35 -0.97 -66.46 0.32 -67.21 0.99 -68.21 1.39 -69.10 1.92 -69.69 2.74 -70.49 3.34 -71.05 4.20 -71.87 4.79 -72.49 5.58 -73.20 6.29 -73.95 6.94 -74.75 7.55 -75.46 8.25 -76.15 8.97 -76.35 10.20 -77.27 10.68 -78.21 11.15 -78.50 12.28 -79.43 12.75 -80.18 13.41 -81.03 13.97 -81 14 -81.53 15.03 -82.67 15.30 -82.89 16.50 -83.61 17.22 -84.29 18.03 -85.14 18.82 -84.83 20.05 -85 20 Z" transform="translate(13,6) rotate(30) scale(1,0.6)"></path><path fill="green" d="M-85 20C  -83.97 20.01 -82.94 19.93 -81.88 19.97 -80.99 19.27 -79.98 19.05 -80 19 -78.90 19.21 -77.92 18.83 -77.07 18.05 -75.95 18.11 -75.25 17.10 -74.15 17.06 -73.36 16.35 -72.40 15.95 -71.60 15.29 -70.86 14.57 -69.68 14.36 -70 14 -69.30 13.25 -68.18 13.11 -67.81 11.89 -66.79 11.60 -65.80 11.27 -65.20 10.39 -64.16 10.11 -63.32 9.56 -62.79 8.59 -61.68 8.40 -61.28 7.27 -60.41 6.77 -59.68 6.07 -58.79 5.59 -58.00 4.98 -56.97 4.66 -56.05 4.21 -55.64 3.12 -55.06 2.25 -54.08 1.87 -53.38 1.15 -52.61 0.50 -51.59 0.15 -50.63 -0.27 -50.36 -1.48 -49.14 -1.61 -48.76 -2.70 -47.78 -3.11 -46.94 -3.66 -46.66 -4.85 -45.55 -5.12 -44.66 -5.64 -45 -6 -43.97 -6.41 -43.59 -7.43 -42.87 -8.13 -42.28 -8.94 -41.81 -9.86 -40.97 -10.46 -40.50 -11.38 -39.34 -11.69 -39.16 -12.86 -38.07 -13.25 -37.56 -14.13 -37.03 -15.00 -36.39 -15.76 -35.47 -16.31 -35.33 -17.49 -34.49 -18.10 -34.18 -19.13 -33.06 -19.52 -32.47 -20.33 -32.11 -21.32 -31.12 -21.82 -30.82 -22.85 -30.08 -23.55 -29.31 -24.23 -29.18 -25.38 -28.29 -25.96 -27.59 -26.70 -26.88 -27.42 -26.69 -28.51 -26.51 -29.61 -25.79 -30.33 -25.14 -31.09 -25 -31 -24.32 -31.77 -23.96 -32.80 -23.25 -33.54 -22.77 -34.44 -22.38 -35.39 -21.43 -36.04 -21.29 -37.11 -20.39 -37.86 -20.61 -39.04 -20.62 -40.10 -19.52 -40.90 -20 -41 -19.59 -42.03 -20.38 -43.03 -19.96 -44.13 -20.44 -45.10 -21.09 -45.96 -21 -46 -21.96 -45.46 -22.93 -45.12 -24.14 -45.24 -24.81 -44.26 -25.45 -43.39 -26.56 -43.02 -26.60 -41.71 -27 -42 -27.30 -40.93 -28.21 -40.40 -28.96 -39.74 -29.68 -39.04 -30.01 -38.00 -31.05 -37.60 -31.34 -36.51 -32.27 -36.00 -33.09 -35.40 -33.50 -34.42 -34.10 -33.63 -34.65 -32.78 -35.93 -32.59 -36.13 -31.43 -36.73 -30.62 -37.61 -30.07 -38.73 -29.75 -39.19 -28.82 -39.84 -28.06 -40.46 -27.27 -41.19 -26.59 -41.83 -25.82 -42.75 -25.32 -43.21 -24.38 -43.91 -23.67 -44.37 -22.74 -45.52 -22.44 -45.62 -21.17 -46.25 -20.39 -47.39 -20.10 -48.19 -19.48 -48.93 -18.80 -49.54 -18.01 -49.71 -16.80 -50.37 -16.05 -51.17 -15.43 -52.17 -15.01 -52.44 -13.88 -53.16 -13.19 -53.88 -12.49 -55.05 -12.24 -55.27 -11.06 -56.10 -10.48 -56.62 -9.60 -57.33 -8.89 -58.17 -8.32 -59.05 -7.78 -59.87 -7.19 -60.25 -6.17 -61.15 -5.65 -61.98 -5.06 -62.28 -3.96 -63.31 -3.58 -64.11 -2.97 -64.78 -2.23 -65.00 -1.04 -65.95 -0.58 -66.80 -0.01 -67.59 0.60 -68.35 1.25 -69.12 1.90 -69.50 2.93 -70.32 3.52 -71.16 4.09 -71.81 4.85 -72.58 5.49 -73.43 6.05 -74.11 6.78 -74.71 7.59 -75.41 8.30 -76.01 9.12 -76.62 9.92 -77.70 10.24 -78.39 10.96 -78.92 11.84 -79.67 12.51 -79.96 13.64 -81.18 13.81 -81 14 -82.08 14.33 -82.88 15.08 -82.95 16.45 -84.16 16.86 -84.43 17.95 -85.00 18.87 -84.95 20.01 -85 20 Z" transform="translate(5,15) rotate(50)"></path><path fill="rgba(255,215,0,0.4)" d="M-85 20C  -83.97 20.45 -82.88 20.59 -81.75 20.60 -81.11 18.90 -79.70 19.70 -80 19 -78.91 19.17 -78.07 18.26 -77.16 17.74 -76.11 17.70 -75.31 16.97 -74.62 16.12 -73.68 15.78 -72.45 15.88 -71.89 14.89 -70.74 14.72 -69.88 14.13 -70 14 -69.32 13.22 -68.56 12.56 -67.29 12.64 -66.34 12.24 -65.38 11.85 -64.89 10.81 -63.80 10.62 -63.89 8.78 -62.60 8.85 -61.78 8.27 -60.78 7.94 -60.66 6.44 -59.78 5.94 -58.16 6.40 -57.31 5.85 -56.54 5.20 -56.11 4.14 -55.28 3.56 -54.66 2.73 -54.18 1.74 -53.16 1.41 -52.47 0.67 -51.30 0.50 -51.15 -0.87 -49.65 -0.66 -50.08 -2.68 -49.03 -2.99 -47.81 -3.14 -47.26 -4.02 -46.10 -4.24 -45.13 -4.66 -45.27 -6.28 -45 -6 -44.39 -6.80 -44.33 -8.11 -42.53 -7.81 -41.82 -8.52 -42.10 -10.12 -40.22 -9.79 -39.65 -10.63 -40.37 -12.59 -39.66 -13.30 -37.93 -13.13 -37.71 -14.26 -37.29 -15.21 -36.17 -15.58 -36.08 -16.80 -35.51 -17.63 -34.68 -18.25 -34.13 -19.08 -33.05 -19.51 -32.73 -20.53 -32.72 -21.78 -31.12 -21.82 -30.58 -22.67 -29.80 -23.34 -29.19 -24.14 -29.61 -25.69 -27.75 -25.57 -28.10 -27.06 -27.03 -27.53 -26.10 -28.10 -26.45 -29.57 -24.91 -29.72 -25.47 -31.32 -25 -31 -24.77 -32.17 -24.06 -32.89 -23.15 -33.47 -21.79 -33.82 -21.98 -35.16 -21.09 -35.87 -21.11 -37.03 -21.61 -38.33 -19.57 -38.71 -20.11 -39.97 -20.30 -41.06 -20 -41 -19.58 -42.03 -20.17 -43.05 -20.18 -44.09 -19.95 -45.25 -21.06 -45.97 -21 -46 -21.84 -44.95 -23.37 -46.32 -24.05 -45.06 -24.95 -44.48 -25.22 -43.12 -26.41 -42.89 -26.25 -41.45 -27 -42 -27.12 -40.77 -28.15 -40.35 -28.26 -39.11 -29.34 -38.74 -30.23 -38.20 -30.28 -36.90 -30.96 -36.17 -32.04 -35.80 -33.12 -35.43 -33.00 -33.97 -34.14 -33.66 -35.47 -33.52 -35.92 -32.58 -36.67 -31.92 -37.40 -31.24 -38.27 -30.68 -38.21 -29.27 -39.69 -29.28 -39.11 -27.38 -40.70 -27.50 -41.32 -26.71 -41.80 -25.79 -43.08 -25.62 -43.83 -24.96 -44.19 -23.93 -44.68 -23.03 -45.31 -22.25 -46.14 -21.66 -46.92 -21.02 -47.52 -20.22 -48.52 -19.79 -49.08 -18.95 -49.94 -18.39 -50.20 -17.26 -51.14 -16.78 -50.81 -15.08 -52.43 -15.26 -52.57 -14.01 -52.80 -12.84 -54.66 -13.25 -55.04 -12.23 -56.11 -11.88 -56.69 -11.05 -57.35 -10.30 -57.27 -8.84 -58.54 -8.68 -58.40 -7.15 -59.16 -6.49 -60.66 -6.56 -61.33 -5.82 -62.15 -5.24 -62.68 -4.36 -62.62 -2.90 -63.23 -2.09 -64.82 -2.27 -65.87 -1.90 -65.69 -0.31 -66.33 0.46 -67.37 0.82 -68.32 1.29 -68.79 2.22 -70.04 2.39 -70.22 3.62 -70.98 4.27 -71.08 5.59 -72.32 5.75 -72.66 6.83 -73.38 7.52 -74.30 8.01 -75.74 7.97 -76.39 8.73 -76.56 9.98 -77.17 10.78 -78.38 10.97 -79.00 11.77 -79.70 12.47 -80.34 13.25 -80.93 14.07 -81 14 -81.29 15.34 -82.95 15.01 -83.87 15.68 -84.20 16.83 -84.85 17.73 -83.90 19.31 -85.75 19.79 -85 20 Z" stroke="rgba(255,215,0,0.7)" stroke-width="0.75px" transform="translate(5,15) rotate(50)"></path><path fill="rgba(0,0,0,0.18)" d="M-85 20C  -83.97 19.75 -82.95 19.88 -81.90 19.86 -80.98 19.30 -79.97 19.07 -80 19 -78.92 19.14 -78.03 18.38 -77.06 18.06 -76.15 17.58 -74.98 17.73 -74.27 16.81 -73.49 16.12 -72.55 15.71 -71.47 15.47 -70.86 14.58 -70.10 13.89 -70 14 -69.14 13.46 -68.33 12.82 -67.30 12.65 -66.38 12.24 -65.52 11.72 -64.53 11.44 -63.74 10.78 -62.94 10.13 -61.99 9.79 -61.05 9.41 -60.05 9.15 -59.36 8.31 -58.59 7.62 -57.33 7.83 -56.66 6.97 -55.89 6.28 -54.66 6.40 -54.19 5.21 -53.35 4.66 -52.03 4.91 -51.38 4.03 -50.44 3.64 -49.90 2.61 -48.72 2.60 -47.79 2.18 -46.94 1.64 -46.19 0.95 -45.40 0.31 -44.80 -0.59 -43.63 -0.66 -42.93 -1.43 -41.85 -1.62 -41.00 -2.16 -40.41 -3.09 -39.82 -3.99 -38.61 -4.03 -38.24 -5.23 -37.41 -5.80 -36.37 -6.08 -35.64 -6.79 -35.06 -7.69 -33.84 -7.74 -33.46 -8.90 -32.47 -9.26 -31.76 -9.98 -30.86 -10.47 -29.98 -10.98 -30 -11 -30.18 -12.09 -31.09 -12.64 -31.87 -13.39 -32.15 -14.39 -31.90 -15.49 -31.91 -16.48 -32.21 -17.51 -31.34 -18.38 -31.48 -19.45 -31.28 -20.49 -30.26 -21.09 -29.96 -22.14 -28.80 -22.43 -27.82 -22.74 -28 -23 -29.00 -23.05 -30.00 -23.09 -31.00 -23.50 -32.00 -23.40 -33.00 -22.95 -33 -23 Z" transform="translate(17,-7) rotate(10)"></path><path fill="green" d="M-85 20C  -83.97 19.53 -82.94 19.99 -81.85 20.12 -81.10 18.93 -79.86 19.34 -80 19 -78.96 18.94 -78.09 18.18 -77.05 18.12 -76.13 17.63 -74.97 17.76 -73.98 17.38 -73.06 16.87 -72.21 16.25 -71.65 15.22 -70.59 14.91 -70.17 13.80 -70 14 -69.06 13.61 -68.22 13.05 -67.54 12.28 -66.82 11.56 -65.82 11.24 -65.04 10.61 -64.03 10.29 -63.56 9.24 -62.58 8.88 -62.02 7.95 -61.14 7.45 -60.42 6.75 -59.51 6.29 -58.69 5.72 -58.03 4.94 -56.90 4.75 -56.19 4.04 -55.23 3.63 -55.07 2.24 -53.78 2.23 -53.11 1.46 -52.71 0.39 -51.41 0.37 -51.09 -0.80 -50.41 -1.54 -49.20 -1.68 -48.71 -2.64 -47.76 -3.08 -47.53 -4.32 -46.75 -4.94 -45.82 -5.41 -44.75 -5.74 -45 -6 -44.53 -6.93 -43.49 -7.33 -42.98 -8.22 -42.07 -8.75 -41.29 -9.40 -40.85 -10.35 -40.10 -11.03 -39.49 -11.82 -39.22 -12.91 -38.64 -13.74 -37.43 -14.02 -37.30 -15.22 -36.48 -15.84 -36.09 -16.81 -35.06 -17.26 -34.42 -18.04 -34.14 -19.09 -33.27 -19.68 -32.50 -20.35 -31.84 -21.11 -31.51 -22.12 -30.67 -22.74 -30.48 -23.85 -29.40 -24.29 -29.24 -25.42 -28.53 -26.14 -27.87 -26.89 -27.50 -27.86 -26.60 -28.46 -26.28 -29.45 -25.49 -30.12 -25.00 -31.00 -25 -31 -23.98 -31.48 -24.02 -32.85 -22.74 -33.17 -22.32 -34.15 -22.32 -35.35 -21.40 -36.03 -21.60 -37.25 -21.22 -38.18 -20.92 -39.14 -19.92 -39.91 -19.79 -40.96 -20 -41 -19.68 -42.03 -19.67 -43.10 -20.50 -44.03 -20.52 -45.08 -21.04 -45.98 -21 -46 -21.94 -45.37 -23.12 -45.64 -23.87 -44.72 -24.67 -44.06 -25.51 -43.46 -26.20 -42.69 -26.62 -41.72 -27 -42 -27.63 -41.22 -28.54 -40.70 -29.17 -39.93 -29.97 -39.30 -30.25 -38.21 -31.23 -37.75 -31.71 -36.85 -32.41 -36.13 -33.15 -35.46 -33.41 -34.34 -34.48 -33.97 -35.03 -33.12 -35.75 -32.42 -36.72 -31.96 -37.25 -31.09 -38.03 -30.46 -38.05 -29.12 -38.79 -28.45 -40.09 -28.29 -40.76 -27.55 -40.86 -26.28 -42.11 -26.08 -42.33 -24.92 -42.94 -24.13 -43.95 -23.71 -44.53 -22.89 -45.01 -21.97 -45.56 -21.12 -46.31 -20.44 -47.37 -20.08 -47.78 -19.09 -48.31 -18.22 -49.46 -17.94 -49.69 -16.77 -50.82 -16.48 -51.56 -15.80 -52.22 -15.06 -52.43 -13.87 -53.77 -13.78 -54.31 -12.91 -54.98 -12.17 -55.19 -10.99 -56.20 -10.58 -56.78 -9.75 -57.40 -8.96 -58.06 -8.21 -59.05 -7.78 -59.94 -7.26 -60.45 -6.36 -60.89 -5.39 -61.56 -4.66 -62.65 -4.33 -63.48 -3.75 -63.62 -2.48 -64.30 -1.75 -65.32 -1.36 -65.87 -0.50 -66.98 -0.20 -67.69 0.50 -67.83 1.78 -68.58 2.44 -69.54 2.89 -70.57 3.26 -71.29 3.96 -71.90 4.75 -72.57 5.50 -73.01 6.48 -73.70 7.19 -74.79 7.51 -75.43 8.28 -75.96 9.17 -76.48 10.06 -77.60 10.35 -78.44 10.91 -78.89 11.87 -79.40 12.78 -80.58 13.00 -80.78 14.23 -81 14 -81.58 14.97 -82.74 15.23 -82.93 16.47 -83.83 17.08 -83.98 18.19 -85.11 18.83 -85.48 19.87 -85 20 Z" transform="translate(17,-7) rotate(10)"></path><path fill="rgba(255,215,0,0.4)" d="M-85 20C  -83.97 20.62 -82.86 20.78 -82.12 18.80 -81.15 18.76 -80.27 18.37 -80 19 -78.98 18.86 -77.95 18.70 -77.25 17.49 -76.23 17.36 -75.34 16.91 -74.10 17.14 -73.60 15.93 -72.41 15.93 -71.90 14.87 -71.14 14.22 -70.61 13.31 -70 14 -68.74 14.07 -68.79 12.23 -67.75 11.97 -66.92 11.42 -65.67 11.45 -64.85 10.87 -64.18 10.08 -63.86 8.82 -62.54 8.93 -62.16 7.77 -60.54 8.25 -60.19 7.05 -59.21 6.68 -59.17 5.10 -57.78 5.25 -57.57 3.90 -56.52 3.63 -55.96 2.72 -54.28 3.20 -54.51 1.35 -53.57 0.92 -53.05 -0.01 -51.72 0.00 -51.23 -0.96 -49.58 -0.59 -49.20 -1.68 -49.26 -3.25 -47.73 -3.04 -47.38 -4.16 -46.11 -4.25 -46.31 -5.94 -45.07 -6.08 -45 -6 -44.76 -7.15 -43.97 -7.77 -42.47 -7.76 -42.77 -9.39 -42.23 -10.24 -41.68 -11.09 -40.54 -11.41 -39.96 -12.23 -39.11 -12.82 -37.70 -12.93 -37.87 -14.40 -37.61 -15.48 -35.69 -15.19 -35.77 -16.55 -35.15 -17.34 -35.03 -18.52 -33.74 -18.78 -33.64 -19.97 -32.13 -20.06 -32.80 -21.85 -31.29 -21.95 -31.58 -23.43 -30.53 -23.88 -29.66 -24.49 -28.93 -25.19 -28.99 -26.47 -27.40 -26.56 -26.73 -27.32 -27.13 -28.83 -25.67 -29.03 -25.25 -29.96 -25.68 -31.46 -25 -31 -25.04 -32.41 -23.44 -32.39 -23.38 -33.63 -23.32 -34.79 -22.71 -35.57 -22.00 -36.33 -20.70 -36.85 -21.24 -38.19 -20.92 -39.14 -20.19 -39.99 -19.58 -40.91 -20 -41 -19.68 -42.03 -19.62 -43.10 -20.74 -43.98 -21.07 -44.91 -20.76 -46.10 -21 -46 -22.18 -46.38 -22.99 -45.31 -23.56 -44.10 -25.01 -44.56 -26.20 -44.27 -26.80 -43.25 -26.31 -41.50 -27 -42 -27.69 -41.28 -28.65 -40.80 -28.29 -39.13 -29.19 -38.61 -30.57 -38.50 -31.03 -37.57 -31.34 -36.51 -33.08 -36.74 -33.67 -35.93 -33.24 -34.19 -33.72 -33.28 -35.64 -33.68 -36.17 -32.82 -36.05 -31.35 -36.88 -30.76 -37.42 -29.89 -38.36 -29.41 -38.92 -28.57 -40.33 -28.51 -40.33 -27.15 -41.68 -27.04 -41.36 -25.39 -42.64 -25.21 -43.63 -24.77 -43.24 -23.04 -44.24 -22.61 -45.80 -22.71 -45.53 -21.08 -46.24 -20.38 -47.42 -20.12 -48.51 -19.78 -49.00 -18.87 -49.84 -18.30 -50.36 -17.42 -51.15 -16.79 -51.38 -15.63 -52.40 -15.22 -53.31 -14.72 -53.81 -13.82 -54.18 -12.79 -54.14 -11.36 -56.19 -11.95 -56.61 -10.97 -56.33 -9.31 -57.39 -8.96 -58.42 -8.57 -58.30 -7.05 -59.54 -6.87 -59.85 -5.77 -61.48 -5.97 -61.54 -4.63 -63.18 -4.85 -62.78 -3.05 -63.82 -2.68 -64.57 -2.02 -65.11 -1.15 -65.40 -0.02 -66.17 0.62 -68.01 0.18 -68.59 1.01 -68.35 2.67 -69.12 3.32 -70.24 3.60 -71.07 4.18 -72.04 4.61 -72.07 6.01 -72.67 6.82 -74.34 6.54 -74.76 7.54 -75.87 7.83 -75.90 9.22 -76.27 10.28 -76.88 11.08 -77.72 11.65 -78.51 12.27 -79.95 12.21 -80.00 13.60 -80.83 14.18 -81 14 -81.22 15.43 -82.11 15.87 -83.36 16.11 -83.83 17.08 -84.14 18.10 -83.87 19.32 -84.89 20.03 -85 20 Z" stroke="rgba(255,215,0,0.7)" stroke-width="0.75px" transform="translate(17,-7) rotate(10)"></path><g transform="translate(-50,0)"><path fill="#e74c3c" d="M140 -60C  140.43 -60.89 140.84 -61.80 141.23 -62.71 141.60 -63.63 141.96 -64.55 142.29 -65.49 142.61 -66.43 142.91 -67.37 143.19 -68.32 143.45 -69.28 143.69 -70.24 143.92 -71.21 144.12 -72.18 144.31 -73.15 144.47 -74.13 144.62 -75.11 144.74 -76.09 144.85 -77.08 144.94 -78.07 145.01 -79.05 145.05 -80.04 145.08 -81.04 145.09 -82.03 145.08 -83.02 145.05 -84.01 145.00 -85.00 145 -85 144.96 -85.99 144.84 -86.98 144.63 -87.95 144.35 -88.90 143.99 -89.82 143.55 -90.71 143.05 -91.56 142.47 -92.37 141.83 -93.13 141.13 -93.83 140.37 -94.47 139.56 -95.05 138.71 -95.55 137.82 -95.99 136.90 -96.35 135.95 -96.63 134.98 -96.84 133.99 -96.96 133.00 -97.00 133 -97 132.18 -96.50 131.50 -95.82 131.00 -95.00 131 -95 130.99 -93.99 130.98 -92.97 130.99 -91.96 131.00 -90.95 131.03 -89.94 131.07 -88.92 131.11 -87.91 131.17 -86.90 131.24 -85.89 131.32 -84.88 131.40 -83.87 131.50 -82.87 131.61 -81.86 131.73 -80.85 131.86 -79.85 132.00 -78.84 132.15 -77.84 132.31 -76.84 132.48 -75.84 132.65 -74.85 132.84 -73.85 133.04 -72.86 133.25 -71.87 133.47 -70.88 133.70 -69.89 133.94 -68.91 134.19 -67.93 134.45 -66.95 134.72 -65.97 135.00 -65.00 135 -65 Z"></path><path fill="#ec7063" d="M140 -60C  140.66 -60.75 141.31 -61.51 141.94 -62.29 142.56 -63.08 143.16 -63.88 143.74 -64.69 144.31 -65.52 144.86 -66.36 145.40 -67.20 145.91 -68.06 146.41 -68.93 146.90 -69.80 147.36 -70.69 147.81 -71.59 148.24 -72.49 148.65 -73.40 149.04 -74.33 149.41 -75.25 149.77 -76.19 150.11 -77.13 150.42 -78.08 150.72 -79.04 151.00 -80.00 151 -80 151.35 -80.95 151.62 -81.93 151.81 -82.93 151.91 -83.94 151.93 -84.95 151.86 -85.97 151.71 -86.97 151.47 -87.96 151.15 -88.92 150.75 -89.85 150.27 -90.75 149.72 -91.60 149.09 -92.40 148.41 -93.15 147.66 -93.83 146.85 -94.45 146.00 -95.00 146 -95 145.09 -94.78 144.26 -94.36 143.55 -93.75 143.00 -93.00 143 -93 142.54 -92.10 142.09 -91.20 141.65 -90.29 141.22 -89.37 140.81 -88.45 140.41 -87.52 140.03 -86.59 139.66 -85.65 139.30 -84.70 138.96 -83.75 138.63 -82.80 138.31 -81.84 138.01 -80.88 137.72 -79.91 137.45 -78.94 137.19 -77.96 136.94 -76.98 136.71 -76.00 136.49 -75.01 136.29 -74.02 136.10 -73.03 135.92 -72.04 135.76 -71.04 135.62 -70.04 135.49 -69.04 135.37 -68.04 135.27 -67.03 135.18 -66.02 135.10 -65.02 135.04 -64.01 135.00 -63.00 135 -63 Z"></path><path fill="#dc7633" d="M125 -43C  125.80 -43.59 126.60 -44.19 127.38 -44.80 128.14 -45.43 128.90 -46.08 129.64 -46.74 130.37 -47.42 131.08 -48.11 131.79 -48.82 132.47 -49.54 133.15 -50.27 133.80 -51.01 134.45 -51.77 135.07 -52.54 135.69 -53.33 136.28 -54.12 136.86 -54.93 137.43 -55.75 137.98 -56.58 138.51 -57.42 139.02 -58.27 139.52 -59.13 140.00 -60.00 140 -60 139.66 -60.94 139.23 -61.85 138.71 -62.71 138.11 -63.51 137.43 -64.25 136.68 -64.91 135.87 -65.50 135.00 -66.00 135 -66 134.15 -65.50 133.32 -64.99 132.49 -64.46 131.67 -63.92 130.87 -63.36 130.07 -62.78 129.29 -62.19 128.52 -61.58 127.76 -60.96 127.01 -60.32 126.27 -59.67 125.55 -59.01 124.84 -58.33 124.15 -57.63 123.47 -56.93 122.80 -56.21 122.15 -55.47 121.51 -54.73 120.89 -53.97 120.28 -53.20 119.69 -52.41 119.11 -51.62 118.55 -50.82 118.00 -50.00 118 -50 Z"></path><path fill="rgba(0,0,0,0.18)" d="M0 0C  -0.66 2.02 0.21 2.60 2.61 1.70 1.80 3.89 4.61 2.55 3.68 4.88 5.95 4.05 4.67 6.76 6.81 6.04 6.55 7.75 8.87 6.82 8.03 9.14 9.02 9.56 9.11 10.93 10 10 10.93 11.82 12.04 8.98 13.01 9.70 14.00 9.92 15.00 10.01 16.02 8.79 17.00 10.40 18.00 9.94 19.01 8.42 20.00 9.77 21.00 11.70 21.99 8.33 23.02 11.66 23.98 8.50 24.99 9.76 26.02 11.03 26.95 8.21 27.99 9.69 29.02 10.54 29.97 9.12 30 10 31.18 11.41 31.85 8.77 32.99 9.81 34.06 10.21 35.13 10.60 36.03 9.84 36.68 7.65 38.22 10.78 38.91 8.91 39.58 7.03 40.87 8.52 42.10 9.58 42.80 7.98 43.69 7.41 44.55 6.68 45.85 7.91 47.04 8.63 48.01 8.35 48.64 6.68 49.25 5.06 50.44 5.68 51.21 4.72 52.13 4.34 52.92 3.51 54.58 5.69 54.92 3.33 55.91 3.17 56.75 2.55 58.28 4.11 59.10 3.41 59.74 2.18 60.63 1.71 62.19 3.21 62.50 1.08 63.38 0.61 65.15 2.55 66.01 1.99 66.45 0.35 67.90 1.32 68.32 -0.33 68.97 -1.36 71.08 1.13 71.32 -0.88 72.80 0.02 73.08 -1.85 73.23 -3.94 74.15 -4.30 75.11 -4.58 77.45 -1.93 78.36 -2.35 78.40 -4.58 79.60 -4.39 79.85 -6.11 80.94 -6.16 82.69 -4.95 82.58 -7.31 84.01 -6.75 85.44 -6.21 84.79 -9.45 85.70 -9.85 87.26 -9.12 88.18 -9.52 88.07 -11.65 90.67 -9.25 90.89 -10.81 92.38 -10.30 93.33 -10.69 93.93 -11.62 93.72 -13.79 93.94 -15.27 96.39 -13.37 96.48 -15.03 96.88 -16.20 97.30 -17.34 99.28 -16.24 98.94 -18.44 99.59 -19.22 101.37 -18.46 102.98 -17.96 104.21 -18.00 104.60 -19.15 104.67 -20.70 105.76 -20.92 107.20 -20.73 107.94 -21.41 106.49 -24.77 109.30 -22.92 109.52 -24.23 110.75 -24.32 111.07 -25.49 110.85 -27.26 112.01 -27.44 113.74 -27.01 115.05 -27.06 113.63 -30.09 114.05 -31.08 115.24 -31.26 115.67 -32.24 116.39 -32.91 117.85 -32.84 118.46 -33.64 119.19 -34.31 121.56 -33.39 121.49 -34.86 121.37 -36.36 121.02 -38.05 123.03 -37.53 123.41 -38.54 125.30 -38.17 125.43 -39.40 124.10 -41.90 125.07 -42.35 127.99 -41.17 127.17 -43.17 127.56 -44.14 129.43 -43.89 129.80 -44.88 130.05 -45.96 130 -46 128.22 -47.01 129.99 -48.00 130.89 -49.00 128.54 -49.99 130.39 -51.00 130 -51 129.76 -52.20 129.61 -53.48 127.01 -52.29 126.49 -53.20 127.01 -55.15 124.77 -54.36 126.01 -56.98 125 -56 124.00 -55.92 123.00 -55.86 122.00 -55.63 121.00 -56.36 120.00 -55.67 120 -56 118.15 -57.17 117.53 -56.27 117.92 -53.62 116.05 -54.85 115.81 -53.26 115.46 -51.87 114.34 -51.80 113.16 -51.86 111.64 -52.52 110.92 -51.77 110.51 -50.46 110.16 -49.01 109.28 -48.54 106.92 -50.77 107.52 -47.58 105.51 -49.21 106.12 -45.96 104.29 -47.26 103.88 -45.90 102.32 -46.70 101.00 -47.08 100.76 -45.38 99.19 -46.24 99.44 -43.58 98.56 -43.09 97.74 -42.49 96.78 -42.18 94.76 -43.97 95.35 -40.56 94.52 -39.98 92.68 -41.44 92.39 -39.75 91.66 -38.98 89.46 -41.21 89.84 -38.13 88.90 -37.77 86.50 -40.49 85.78 -39.69 85.64 -37.64 84.14 -38.49 83.09 -38.39 83.51 -35.09 81.51 -37.05 81.24 -35.24 79.77 -36.06 78.75 -35.92 77.60 -36.04 77.84 -33.04 76.51 -33.57 75.95 -32.35 75.33 -31.26 74.16 -31.44 72.90 -31.83 72.23 -30.85 70.98 -31.25 70.68 -29.37 70 -31 69.22 -30.27 67.70 -31.23 67.63 -28.88 66.42 -29.13 64.78 -30.43 63.85 -30.05 63.60 -28.04 62.82 -27.28 61.90 -26.86 60.12 -28.63 59.50 -27.47 58.55 -27.13 57.28 -27.67 57.12 -25.24 56.24 -24.68 54.67 -26.09 54.59 -23.28 52.52 -26.17 52.84 -22.15 51.83 -21.97 50.03 -24.17 49.06 -23.91 48.12 -23.55 47.61 -21.83 46.82 -20.97 45.95 -20.36 44.04 -23.20 43.97 -19.88 42.97 -19.69 41.31 -21.84 40.61 -20.63 39.48 -20.96 38.91 -19.20 37.38 -21.06 36.74 -19.54 35.37 -20.85 35.01 -18.14 33.81 -18.77 33.08 -17.48 32.29 -16.40 30.73 -18.71 29.64 -19.01 28.82 -18.07 28.18 -16.21 26.88 -17.51 25.77 -17.97 24.90 -17.19 23.81 -17.53 22.98 -16.47 22.25 -14.81 21.11 -15.48 19.77 -17.37 20 -16 19.04 -15.44 18.02 -15.96 17.06 -15.54 16.06 -15.72 15.07 -15.59 14.19 -14.78 13.11 -15.32 12.02 -15.79 11.34 -14.12 10.19 -14.78 9.42 -13.80 8.29 -14.23 7.19 -14.45 6.25 -14.12 5.50 -13.19 4.73 -12.42 3.71 -12.36 2.60 -12.47 1.87 -11.66 0.99 -11.21 0.27 -10.43 0 -11 -1.79 -9.83 -0.72 -8.94 -0.46 -7.97 2.02 -7.06 0.71 -6.00 -0.14 -5.00 0.35 -3.99 0.65 -2.97 -0.12 -2.01 -0.31 -1.03 0 -1 Z" transform="scale(1,0.6) translate(-3,20) rotate(-6)"></path><path fill="rgba(0,0,0,0.18)" d="M120 -10C  121.02 -10.26 121.68 -11.09 122.73 -11.32 122.79 -13.03 124.19 -12.75 124.59 -13.93 126.29 -13.25 126.72 -14.38 127.90 -14.45 128.73 -15.03 129.24 -16.04 129.40 -17.50 130.60 -17.57 131.58 -17.93 132.23 -18.73 132.45 -20.07 133.19 -20.74 133.98 -21.34 134.93 -21.75 135.52 -22.61 136.79 -22.65 137.10 -23.82 138.12 -24.17 139.18 -24.48 140.17 -24.88 141.10 -25.35 142.04 -25.82 142.72 -26.57 142.57 -28.20 143.27 -28.90 144.06 -29.53 145.06 -29.94 145 -30 144.23 -30.73 143.47 -31.47 142.71 -32.21 141.96 -32.96 141.21 -33.71 140.47 -34.47 139.73 -35.23 139.00 -36.00 139 -36 138.08 -35.64 136.96 -35.81 135.95 -35.68 135.16 -34.99 134.08 -35.09 133.50 -33.76 132.44 -33.80 131.34 -33.98 130.42 -33.62 129.46 -33.38 128.97 -31.67 127.54 -32.93 127.07 -31.09 125.84 -31.74 125.01 -31.08 124.10 -30.64 124 -31 Z"></path><path fill="gold" d="M0 0C  -0.34 1.71 1.10 1.74 3.24 1.08 2.39 3.31 3.09 4.04 4.39 4.18 5.58 4.43 6.82 4.60 5.95 6.91 6.28 8.02 7.53 8.20 9.44 7.67 9.01 9.57 11.16 8.77 10 10 11.04 8.91 11.98 10.69 12.97 11.05 14.03 8.98 15.02 9.35 15.97 11.62 16.99 10.64 18.00 9.76 18.99 11.02 20.00 9.63 21.00 8.75 22.00 10.02 22.99 8.83 24.01 10.91 24.97 8.48 25.97 8.71 27.05 11.83 27.99 9.75 28.99 9.62 29.99 9.70 30 10 30.79 8.22 31.83 8.58 32.97 9.65 33.72 7.84 34.79 8.35 35.68 7.66 36.66 7.51 38.07 9.89 38.87 8.66 39.89 8.74 40.84 8.35 41.89 8.54 42.91 8.55 43.75 7.66 44.42 6.06 46.12 9.12 46.91 8.06 47.67 6.93 48.35 5.52 49.61 6.45 50.18 4.67 51.56 6.05 52.56 5.90 53.88 6.91 54.02 3.75 55.88 6.58 56.69 5.77 57.05 3.52 58.05 3.38 59.08 3.34 60.05 3.12 60.97 2.73 61.41 0.96 62.94 2.32 63.47 0.87 64.98 2.10 66.42 3.07 66.48 0.42 67.82 1.10 69.12 1.66 70.15 1.53 70.48 -0.32 72.02 0.75 72.23 -1.29 73.88 -0.03 74.33 -1.48 75.13 -2.16 75.82 -3.05 76.48 -3.97 76.94 -5.32 78.80 -3.76 78.58 -6.45 80.56 -4.70 81.84 -4.42 81.39 -7.44 83.66 -5.26 83.18 -8.29 84.83 -7.33 85.67 -7.88 85.70 -9.85 88.28 -7.33 87.98 -9.85 89.72 -8.87 90.59 -9.37 90.77 -11.01 92.34 -10.37 92.46 -12.06 93.35 -12.53 93.98 -13.40 95.92 -12.24 96.09 -13.81 97.68 -13.24 97.00 -16.03 99.08 -14.77 97.94 -18.14 99.31 -17.92 101.55 -16.51 100.68 -19.40 102.79 -18.22 102.41 -20.38 104.02 -19.90 105.40 -19.76 106.07 -20.54 105.65 -22.67 105.85 -24.00 107.15 -23.97 108.81 -23.52 109.95 -23.71 110.42 -24.72 111.24 -25.29 111.35 -26.69 111.49 -28.02 112.51 -28.37 115.09 -27.01 113.15 -30.60 115.75 -29.26 114.68 -31.84 117.89 -29.93 117.61 -31.66 117.25 -33.45 119.76 -32.34 118.08 -35.41 119.37 -35.52 121.87 -34.49 121.44 -36.29 122.49 -36.67 122.34 -38.17 123.13 -38.78 124.52 -38.88 124.14 -40.54 126.96 -39.40 126.34 -41.26 127.55 -41.55 128.84 -41.77 129.58 -42.47 127.66 -45.34 129.92 -44.79 131.42 -44.87 130 -46 131.62 -46.99 129.56 -48.00 131.88 -49.00 130.13 -50.00 131.75 -51.01 130 -51 130.44 -52.89 129.52 -53.39 128.97 -54.26 127.47 -54.18 127.28 -55.42 126.21 -55.77 123.64 -54.68 125 -56 123.99 -57.08 122.99 -57.41 122.00 -55.30 120.99 -54.26 120.00 -56.25 120 -56 118.53 -56.53 117.63 -56.10 118.30 -52.97 116.45 -54.16 116.26 -52.48 114.10 -54.23 114.93 -50.76 113.43 -51.39 112.35 -51.26 111.13 -51.40 110.78 -49.97 109.20 -50.77 108.69 -49.61 108.78 -47.37 106.82 -48.88 105.45 -49.32 104.55 -48.87 104.45 -46.95 103.27 -47.04 102.81 -45.78 101.25 -46.61 101.18 -44.58 99.26 -46.11 98.24 -45.92 97.42 -45.33 97.07 -43.82 96.82 -42.09 96.14 -41.22 95.10 -41.07 93.33 -42.37 92.01 -42.81 91.53 -41.51 90.17 -42.04 89.26 -41.64 88.89 -40.10 87.47 -40.77 86.71 -40.04 86.08 -39.05 85.98 -36.90 85.38 -35.83 84.48 -35.38 82.52 -37.25 81.44 -37.21 81.31 -35.08 79.55 -36.55 79.21 -34.88 78.85 -33.23 77.86 -32.99 76.32 -34.00 75.35 -33.72 75.33 -31.25 74.30 -31.10 72.36 -33.11 71.10 -33.52 70.97 -31.27 69.89 -31.26 70 -31 69.78 -29.02 67.42 -31.86 67.98 -28.08 66.44 -29.09 65.33 -29.13 64.51 -28.48 63.79 -27.58 61.89 -29.59 61.07 -28.93 60.00 -28.92 60.00 -26.17 58.95 -26.09 57.79 -26.30 57.29 -24.76 55.88 -25.68 54.97 -25.23 54.38 -23.90 52.65 -25.78 51.65 -25.63 50.70 -25.31 50.08 -24.01 49.72 -21.87 48.38 -22.74 47.65 -21.70 46.14 -23.17 45.15 -22.99 44.54 -21.54 44.09 -19.49 42.41 -21.65 41.31 -21.84 40.43 -21.27 40.00 -19.04 38.95 -19.03 37.85 -19.25 36.65 -19.87 35.95 -18.53 34.87 -18.71 33.68 -19.34 32.63 -19.43 31.83 -18.44 30.96 -17.70 29.77 -18.42 28.83 -18.02 27.93 -17.39 26.83 -17.77 26.03 -16.62 25.15 -15.85 23.68 -18.26 23.02 -16.27 21.65 -18.26 21.12 -15.39 19.93 -16.44 20 -16 19.02 -15.74 17.97 -16.79 17.04 -15.79 16.15 -14.88 15.08 -15.58 14.22 -14.60 13.14 -15.18 12.20 -14.84 11.31 -14.26 10.41 -13.82 9.43 -13.75 8.35 -14.02 7.38 -13.79 6.53 -13.21 5.56 -13.03 4.56 -12.90 3.55 -12.77 3.04 -11.38 2.02 -11.31 1.11 -10.93 -0.16 -11.34 0 -11 1.78 -10.16 0.73 -9.04 -1.10 -7.94 -0.40 -6.98 -0.50 -5.99 -0.55 -5.01 2.11 -3.94 -1.33 -3.07 -1.63 -2.12 1.97 -0.82 0 -1 Z"></path></g><g transform="translate(25,5) rotate(-15)"><path fill="rgba(0,0,0,0.18)" d="M-4 25C  -3.72 24.02 -3.16 23.07 -3.33 22.05 -3.90 20.94 -3.39 20.00 -3.22 19.00 -3.72 17.83 -2.93 16.98 -1.38 16.41 -1.19 15.43 -1.51 14.25 -0.40 13.62 -0.62 12.45 -0.18 11.55 -0.62 10.19 0.61 9.69 0.92 8.71 1.41 7.82 2.42 7.27 3.35 6.69 4.17 6.07 4.71 5.25 4.58 3.87 4.98 2.87 6.29 2.69 6.47 1.48 8.04 1.63 8.24 0.40 9.18 -0.05 10.02 -0.60 10.22 -1.96 11.89 -1.40 12.46 -2.30 12.46 -4.12 14.33 -3.05 15.04 -3.78 15.24 -5.49 16.62 -5.04 17.75 -4.99 18.18 -6.44 19.34 -6.31 19.94 -7.54 21.32 -6.69 22.26 -7.01 22.82 -8.65 23.92 -8.52 25.06 -8.12 26.02 -8.42 27.15 -7.79 27.87 -9.69 28.97 -9.15 29.92 -9.82 30 -9 30.97 -9.53 31.98 -9.20 32.97 -8.30 33.96 -8.90 34.89 -8.08 35.92 -8.65 36.82 -7.89 37.78 -7.77 38.83 -8.12 39.71 -7.51 40.74 -7.65 41.62 -7.15 42.89 -7.91 43.63 -6.98 44.82 -7.32 45.62 -6.61 46.16 -5.37 47.23 -5.33 47.90 -4.48 49.27 -4.93 50.39 -4.85 51.20 -4.22 52.05 -3.66 51.99 -1.84 53.11 -1.70 53.31 -0.37 55.24 -1.13 55.09 0.54 56.24 0.76 56.20 2.19 57.84 2.00 58.28 2.94 58.46 4.09 59.70 4.38 60.07 5.34 60.39 6.33 60.63 7.35 62.09 7.62 62.03 8.81 63.25 9.30 62.44 10.82 63.86 11.25 64.54 12.06 64.80 13.06 64.48 14.24 64.75 15.20 64.76 16.23 65.01 17.19 66.16 17.95 65.42 19.12 66.55 19.94 65.86 21.06 65.95 22.04 66.39 23.01 66.90 23.99 66.72 25.01 65.95 26.01 66.23 27.01 66 27 65.97 27.99 66.18 29.01 65.11 29.89 66.20 31.04 65.63 31.97 65.91 33.05 65.89 34.08 65.38 35.00 63.65 35.54 63.36 36.47 64.33 37.85 63.90 38.77 63.54 39.71 63.18 40.65 62.76 41.57 61.08 41.83 61.82 43.36 59.92 43.40 60.63 45.00 60.32 46.01 59.41 46.61 58.77 47.38 58.19 48.21 57.38 48.84 56.07 49.01 55.59 49.90 54.61 50.31 54.80 51.93 53.41 51.88 53.03 52.95 51.76 52.97 50.89 53.43 50.69 54.83 49.40 54.69 49.21 56.23 47.55 55.41 46.85 56.14 46.29 57.18 45.09 56.97 44.49 58.01 43.71 58.74 42.45 58.26 42.00 59.92 40.57 58.81 39.96 60.17 38.69 59.31 37.85 60.00 36.74 59.53 35.95 60.65 34.88 60.23 34.00 61.08 32.98 60.90 31.96 60.63 30.98 60.77 30.01 61.85 30 61 29.00 60.75 28.00 61.39 26.97 61.73 25.97 61.30 24.93 61.52 24.11 59.97 22.97 60.88 22.02 60.48 20.92 60.77 20.08 59.94 18.89 60.45 18.34 58.80 17.03 59.52 16.12 59.06 15.70 57.46 14.33 58.09 13.57 57.35 12.47 57.27 11.97 56.11 10.75 56.20 10.10 55.35 9.36 54.65 9.09 53.35 8.28 52.80 6.66 53.19 6.82 51.51 5.20 51.78 5.01 50.54 4.41 49.74 3.94 48.84 2.52 48.72 2.73 47.29 2.53 46.22 1.87 45.50 0.24 45.37 0.34 44.14 0.47 42.93 -0.72 42.45 -1.40 41.67 -2.27 40.95 -1.89 39.70 -2.96 39.02 -1.84 37.58 -3.00 36.91 -3.70 36.06 -4.32 35.15 -2.85 33.81 -4.39 33.08 -3.89 31.98 -4.21 31.01 -4.41 30.02 -3.62 28.97 -3.31 27.98 -4.83 26.98 -4.16 25.99 -4.19 24.99 -4 25 Z" transform="rotate(15) scale(0.8,0.4)"></path><path fill="#490d00" d="M0 0C  0.04 -1.01 0.03 -2.02 0.53 -2.97 0.44 -4.00 0.90 -4.94 0.99 -5.95 1.34 -6.90 1.53 -7.89 1.66 -8.90 2.19 -9.78 2.34 -10.80 2.73 -11.73 3.15 -12.65 3.61 -13.56 4.20 -14.39 4.52 -15.36 5.23 -16.12 5.77 -16.96 6.26 -17.84 6.74 -18.73 7.40 -19.50 7.98 -20.32 8.74 -21.01 9.46 -21.71 10.04 -22.53 10.79 -23.21 11.42 -24.00 12.11 -24.74 12.99 -25.27 13.63 -26.07 14.60 -26.48 15.42 -27.05 16.12 -27.79 17.01 -28.28 17.86 -28.82 18.71 -29.36 19.58 -29.87 20.47 -30.33 21.42 -30.69 22.38 -31.01 23.23 -31.56 24.25 -31.71 25.15 -32.18 26.05 -32.69 27.11 -32.67 28.00 -33.20 29.05 -33.14 29.98 -33.63 30.98 -33.75 31.98 -33.93 32.98 -34.06 34.00 -33.99 34 -34 34.99 -34.05 35.99 -33.87 36.98 -34.15 37.97 -34.11 38.94 -33.74 39.95 -33.88 40.90 -33.53 41.92 -33.67 42.90 -33.49 43.89 -33.33 44.78 -32.78 45.75 -32.60 46.69 -32.27 47.67 -32.10 48.59 -31.70 49.54 -31.40 50.32 -30.72 51.29 -30.45 52.14 -29.94 53.00 -29.44 53.93 -29.08 54.65 -28.36 55.46 -27.80 56.35 -27.34 57.08 -26.66 57.83 -26.01 58.69 -25.50 59.46 -24.87 60.05 -24.05 60.77 -23.37 61.52 -22.71 61.97 -21.79 62.61 -21.04 63.28 -20.31 64.02 -19.62 64.37 -18.65 65.08 -17.94 65.67 -17.13 66.00 -16.17 66.59 -15.36 67.00 -14.45 67.32 -13.50 67.64 -12.56 68.18 -11.71 68.43 -10.74 68.65 -9.77 68.92 -8.81 69.09 -7.83 69.45 -6.90 69.46 -5.89 69.69 -4.92 69.78 -3.93 69.88 -2.95 69.88 -1.96 70.05 -0.97 70.19 0.02 70.03 1.01 69.87 1.99 70 2 69.76 2.98 69.93 3.99 69.80 4.98 69.75 5.97 69.36 6.92 69.28 7.91 68.79 8.82 68.56 9.78 68.36 10.75 68.00 11.68 67.83 12.67 67.22 13.50 66.84 14.41 66.51 15.35 66.18 16.29 65.54 17.07 65.30 18.07 64.77 18.92 64.07 19.65 63.62 20.53 62.91 21.25 62.33 22.05 61.70 22.81 61.06 23.57 60.47 24.36 59.89 25.18 59.14 25.83 58.42 26.52 57.57 27.06 56.87 27.77 56.10 28.38 55.27 28.93 54.60 29.69 53.80 30.29 52.82 30.60 52.05 31.25 51.16 31.69 50.30 32.20 49.45 32.72 48.44 32.90 47.61 33.49 46.65 33.77 45.73 34.16 44.73 34.28 43.81 34.66 42.81 34.77 41.89 35.17 40.90 35.32 39.95 35.64 38.94 35.61 37.97 35.88 36.97 35.83 35.99 36.08 34.99 35.80 34.00 35.99 34 36 33.00 36.19 32.00 36.03 31.00 36.05 30.00 35.94 29.00 35.90 28.00 35.76 27.02 35.60 26.06 35.26 25.07 35.11 24.16 34.65 23.16 34.50 22.24 34.10 21.23 33.97 20.37 33.43 19.41 33.14 18.43 32.87 17.57 32.35 16.63 31.98 15.80 31.40 15.07 30.68 14.12 30.31 13.41 29.57 12.56 29.04 11.78 28.42 11.02 27.77 10.23 27.15 9.48 26.49 8.96 25.59 8.30 24.84 7.46 24.26 6.96 23.37 6.23 22.67 5.73 21.79 5.04 21.05 4.68 20.09 4.14 19.25 3.81 18.29 3.15 17.52 2.86 16.54 2.30 15.70 2.06 14.72 1.79 13.75 1.42 12.83 0.99 11.91 0.95 10.88 0.72 9.91 0.29 8.99 0.37 7.95 0.14 6.98 -0.13 6.01 -0.06 4.99 -0.00 3.99 -0.07 2.99 -0.31 1.99 -0.13 0.99 -0.19 -0.01 0 0 Z"></path><path fill="tan" d="M32 -2C  32.06 -3.00 32.36 -3.93 32.81 -4.83 33.13 -5.77 33.15 -6.77 33.39 -7.72 33.79 -8.64 34.09 -9.57 34.01 -10.60 34.19 -11.57 34.79 -12.43 34.78 -13.45 35.27 -14.34 35.35 -15.33 35.51 -16.30 35.83 -17.23 35.91 -18.23 36.19 -19.17 36.41 -20.12 36.78 -21.04 37.09 -21.98 37 -22 37.26 -21.05 37.59 -20.12 37.67 -19.13 38.11 -18.23 38.18 -17.24 38.31 -16.26 38.72 -15.35 38.99 -14.40 39.10 -13.42 39.57 -12.52 39.69 -11.54 39.82 -10.56 40.24 -9.66 40.30 -8.66 40.73 -7.75 40.94 -6.79 41.01 -5.80 41.22 -4.84 41.71 -3.95 41.57 -2.91 41.84 -1.96 42 -2 42.94 -1.72 43.93 -1.60 44.81 -1.10 45.80 -1.01 46.70 -0.56 47.66 -0.36 48.70 -0.44 49.63 -0.12 50.58 0.15 51.52 0.43 52.45 0.75 53.44 0.87 54.37 1.17 55.27 1.62 56.20 1.94 57.17 2.12 58.14 2.27 59.11 2.47 60.02 2.88 60.98 3.08 61 3 60.02 3.13 59.13 3.63 58.16 3.79 57.24 4.15 56.22 4.15 55.28 4.43 54.34 4.70 53.40 4.98 52.50 5.43 51.49 5.46 50.58 5.88 49.62 6.09 48.68 6.35 47.70 6.49 46.77 6.83 45.77 6.88 44.81 7.10 43.86 7.34 42.97 7.82 42.00 7.99 42 8 41.71 8.95 41.37 9.87 41.14 10.84 40.86 11.79 40.29 12.64 40.29 13.68 39.81 14.56 39.40 15.47 39.14 16.42 39.04 17.43 38.40 18.26 38.26 19.25 37.97 20.20 37.72 21.16 37.28 22.05 36.85 22.95 37 23 36.62 22.09 36.39 21.12 36.13 20.16 35.76 19.25 35.60 18.26 35.24 17.34 34.80 16.44 34.42 15.53 34.11 14.59 33.70 13.68 33.60 12.67 33.12 11.79 32.98 10.80 32.68 9.86 32.29 8.94 32.12 7.96 32 8 31.00 7.90 30.12 7.42 29.11 7.35 28.21 6.94 27.31 6.49 26.36 6.24 25.38 6.08 24.47 5.70 23.49 5.54 22.60 5.09 21.61 4.95 20.68 4.62 19.71 4.43 18.76 4.18 17.78 4.01 16.92 3.44 15.89 3.46 15.02 2.93 15 3 15.94 2.70 16.91 2.53 17.83 2.17 18.75 1.78 19.69 1.49 20.71 1.47 21.61 1.05 22.52 0.66 23.52 0.58 24.47 0.30 25.37 -0.10 26.35 -0.28 27.28 -0.60 28.22 -0.89 29.15 -1.22 30.09 -1.53 31.06 -1.71 31.96 -2.13 32 -2 Z"></path><path fill="rgba(255,215,0,0.3)" d="M0 0C  0.78 -0.94 -0.64 -2.10 1.03 -2.90 1.39 -3.84 1.68 -4.78 1.35 -5.87 0.66 -7.07 1.32 -7.95 1.45 -8.97 1.48 -10.03 2.77 -10.64 3.77 -11.31 3.24 -12.61 3.82 -13.46 3.67 -14.66 5.44 -14.86 4.88 -16.32 6.46 -16.54 6.67 -17.57 6.62 -18.82 7.42 -19.49 7.65 -20.59 8.14 -21.50 8.69 -22.38 10.44 -22.17 10.66 -23.34 11.59 -23.82 12.65 -24.16 12.63 -25.68 13.23 -26.55 15.06 -25.88 15.81 -26.52 16.08 -27.85 17.24 -27.93 17.83 -28.86 19.12 -28.66 19.67 -29.69 20.71 -29.86 21.70 -30.10 21.98 -31.89 23.53 -30.84 24.54 -30.96 25.28 -31.80 25.83 -33.38 27.10 -32.68 28.24 -32.29 28.98 -33.47 30.16 -32.74 30.92 -34.13 31.99 -33.87 32.99 -33.99 33.98 -34.26 34 -34 35.01 -33.58 35.97 -35.06 36.98 -34.69 37.99 -34.59 38.91 -33.35 39.86 -33.01 41.02 -34.46 41.96 -33.88 42.84 -33.16 43.82 -33.03 44.81 -32.93 45.80 -32.75 46.44 -31.49 47.40 -31.31 48.58 -31.69 49.64 -31.64 50.45 -31.00 50.88 -29.60 51.72 -29.13 53.02 -29.49 54.02 -29.22 54.49 -28.11 55.48 -27.83 56.52 -27.57 57.72 -27.50 57.72 -25.88 58.86 -25.70 58.75 -24.09 59.48 -23.46 60.44 -23.04 61.96 -23.11 62.68 -22.40 62.14 -20.65 63.81 -20.71 64.15 -19.71 65.26 -19.26 65.12 -17.96 65.74 -17.17 65.68 -15.99 67.08 -15.61 67.71 -14.80 66.60 -13.18 68.32 -12.84 68.88 -11.97 68.48 -10.76 69.48 -10.03 68.36 -8.65 68.20 -7.61 68.92 -6.78 68.68 -5.74 70.31 -5.02 70.71 -4.06 69.25 -2.89 69.29 -1.91 69.09 -0.93 70.87 0.01 69.29 1.00 69.07 1.96 70 2 70.67 3.04 69.08 3.91 69.94 4.99 69.35 5.91 68.47 6.76 69.39 7.94 68.10 8.65 69.60 10.06 68.19 10.70 67.76 11.60 67.76 12.65 67.10 13.46 66.33 14.20 67.43 15.77 66.47 16.43 64.86 16.72 64.73 17.75 64.20 18.57 63.80 19.47 64.37 21.04 62.89 21.24 63.23 22.73 61.86 22.94 60.81 23.36 59.96 23.91 59.52 24.83 59.40 26.10 58.81 26.93 57.16 26.60 57.18 28.12 55.90 28.14 55.94 29.83 54.01 28.88 53.30 29.54 52.73 30.46 52.42 31.87 50.97 31.36 49.86 31.35 49.12 32.04 48.63 33.33 47.25 32.63 46.85 34.29 45.68 34.00 44.75 34.36 44.05 35.49 43.06 35.73 41.88 35.15 41.03 35.94 40.04 36.15 38.95 35.65 37.84 34.81 36.90 35.09 35.96 35.54 35.00 36.14 34.00 35.91 34 36 33.02 36.79 32.01 35.31 30.96 36.93 29.96 36.45 28.94 36.49 28.06 35.36 27.18 34.59 26.04 35.35 25.11 34.93 23.89 35.68 23.14 34.58 22.15 34.40 21.20 34.08 20.01 34.34 19.23 33.56 18.18 33.42 17.91 31.66 17.17 30.99 15.63 31.70 15.31 30.29 14.03 30.45 13.78 29.06 12.07 29.70 11.45 28.83 11.16 27.61 9.68 27.76 9.68 26.28 9.42 25.14 8.01 25.11 7.69 24.06 7.23 23.15 6.33 22.60 5.74 21.79 5.05 21.04 4.33 20.31 4.51 19.03 3.28 18.58 3.30 17.43 3.60 16.20 2.35 15.68 1.26 15.03 2.53 13.48 2.19 12.57 0.56 12.04 0.70 10.95 0.55 9.95 0.85 8.87 0.67 7.90 -0.23 7.03 -0.51 6.05 -0.75 5.04 0.40 3.97 -0.28 3.00 -0.68 1.99 0.64 1.03 0.29 0.02 0 0 Z" stroke="rgba(255,215,0,0.7)" stroke-width="0.75px"></path></g></g></svg>
