<svg version="1.1" baseProfile="full" xmlns="http://www.w3.org/2000/svg" width="290" height="220" style="background: gray"><!-- made by Harry Li github.com/harryli0088 --><g transform="translate(135,120)"><g transform="scale(1,.8) translate(7,-5)"><path fill="[object Object]" d="M-135 -30C  -135.36 -29.02 -135.36 -27.98 -135.00 -27.00 -135 -27 -134.46 -26.16 -133.91 -25.32 -133.37 -24.48 -132.82 -23.64 -132.27 -22.80 -131.73 -21.96 -131.18 -21.13 -130.63 -20.29 -130.08 -19.45 -129.52 -18.62 -128.97 -17.78 -128.42 -16.95 -127.87 -16.11 -127.31 -15.28 -126.76 -14.45 -126.20 -13.61 -125.64 -12.78 -125.08 -11.95 -124.53 -11.12 -123.97 -10.29 -123.41 -9.46 -122.84 -8.63 -122.28 -7.80 -121.72 -6.98 -121.16 -6.15 -120.59 -5.32 -120.03 -4.50 -119.46 -3.67 -118.89 -2.84 -118.32 -2.02 -117.76 -1.20 -117.19 -0.37 -116.62 0.45 -116.04 1.27 -115.47 2.09 -114.90 2.92 -114.33 3.74 -113.75 4.56 -113.18 5.38 -112.60 6.19 -112.02 7.01 -111.45 7.83 -110.87 8.65 -110.29 9.46 -109.71 10.28 -109.13 11.10 -108.54 11.91 -107.96 12.72 -107.38 13.54 -106.79 14.35 -106.21 15.16 -105.62 15.97 -105.04 16.79 -104.45 17.60 -103.86 18.41 -103.27 19.22 -102.68 20.03 -102.09 20.83 -101.50 21.64 -100.91 22.45 -100.31 23.26 -99.72 24.06 -99.12 24.87 -98.53 25.67 -97.93 26.48 -97.33 27.28 -96.74 28.08 -96.14 28.88 -95.54 29.69 -94.94 30.49 -94.34 31.29 -93.73 32.09 -93.13 32.89 -92.53 33.69 -91.92 34.48 -91.32 35.28 -90.71 36.08 -90.11 36.87 -89.50 37.67 -88.89 38.47 -88.28 39.26 -87.67 40.05 -87.06 40.85 -86.45 41.64 -85.83 42.43 -85.22 43.22 -84.61 44.01 -83.99 44.80 -83.38 45.59 -82.76 46.38 -82.14 47.17 -81.53 47.96 -80.91 48.75 -80.29 49.53 -79.67 50.32 -79.05 51.10 -78.42 51.89 -77.80 52.67 -77.18 53.46 -76.55 54.24 -75.93 55.02 -75.30 55.80 -74.68 56.58 -74.05 57.36 -73.42 58.14 -72.79 58.92 -72.16 59.70 -71.53 60.48 -70.90 61.25 -70.27 62.03 -69.64 62.81 -69.00 63.58 -68.37 64.36 -67.73 65.13 -67.10 65.90 -66.46 66.68 -65.82 67.45 -65.18 68.22 -64.54 68.99 -63.90 69.76 -63.26 70.53 -62.62 71.30 -61.98 72.07 -61.34 72.83 -60.69 73.60 -60.05 74.37 -59.40 75.13 -58.76 75.90 -58.11 76.66 -57.46 77.43 -56.82 78.19 -56.17 78.95 -55.52 79.71 -54.87 80.47 -54.22 81.24 -53.56 81.99 -52.91 82.75 -52.26 83.51 -51.60 84.27 -50.95 85.03 -50.29 85.78 -49.64 86.54 -48.98 87.29 -48.32 88.05 -47.66 88.80 -47.00 89.56 -46.34 90.31 -45.68 91.06 -45.02 91.81 -44.36 92.56 -43.69 93.31 -43.03 94.06 -42.36 94.81 -41.70 95.56 -41.03 96.31 -40.36 97.05 -39.70 97.80 -39.03 98.54 -38.36 99.29 -37.69 100.03 -37.02 100.77 -36.35 101.52 -35.67 102.26 -35.00 103.00 -35 103 -34.05 102.69 -33.10 102.38 -32.15 102.08 -31.20 101.77 -30.25 101.45 -29.30 101.14 -28.35 100.83 -27.41 100.52 -26.46 100.20 -25.51 99.89 -24.56 99.57 -23.62 99.25 -22.67 98.93 -21.72 98.61 -20.78 98.29 -19.83 97.97 -18.89 97.65 -17.94 97.33 -17.00 97.00 -16.05 96.68 -15.11 96.35 -14.16 96.02 -13.22 95.70 -12.28 95.37 -11.34 95.04 -10.39 94.71 -9.45 94.38 -8.51 94.04 -7.57 93.71 -6.63 93.37 -5.69 93.04 -4.75 92.70 -3.81 92.37 -2.87 92.03 -1.93 91.69 -0.99 91.35 -0.05 91.01 0.89 90.66 1.83 90.32 2.76 89.98 3.70 89.63 4.64 89.29 5.58 88.94 6.51 88.59 7.45 88.24 8.38 87.89 9.32 87.54 10.25 87.19 11.19 86.84 12.12 86.49 13.06 86.13 13.99 85.78 14.92 85.42 15.86 85.06 16.79 84.71 17.72 84.35 18.65 83.99 19.58 83.63 20.51 83.27 21.44 82.90 22.37 82.54 23.30 82.18 24.23 81.81 25.16 81.44 26.09 81.08 27.02 80.71 27.95 80.34 28.88 79.97 29.80 79.60 30.73 79.23 31.66 78.85 32.58 78.48 33.51 78.11 34.43 77.73 35.36 77.35 36.28 76.98 37.21 76.60 38.13 76.22 39.06 75.84 39.98 75.46 40.90 75.08 41.82 74.69 42.75 74.31 43.67 73.92 44.59 73.54 45.51 73.15 46.43 72.76 47.35 72.38 48.27 71.99 49.19 71.60 50.11 71.20 51.03 70.81 51.95 70.42 52.86 70.03 53.78 69.63 54.70 69.23 55.61 68.84 56.53 68.44 57.45 68.04 58.36 67.64 59.28 67.24 60.19 66.84 61.10 66.44 62.02 66.04 62.93 65.63 63.85 65.23 64.76 64.82 65.67 64.41 66.58 64.01 67.49 63.60 68.40 63.19 69.31 62.78 70.22 62.37 71.13 61.95 72.04 61.54 72.95 61.13 73.86 60.71 74.77 60.30 75.68 59.88 76.58 59.46 77.49 59.04 78.40 58.62 79.30 58.20 80.21 57.78 81.11 57.36 82.02 56.94 82.92 56.51 83.83 56.09 84.73 55.66 85.63 55.24 86.54 54.81 87.44 54.38 88.34 53.95 89.24 53.52 90.14 53.09 91.04 52.66 91.94 52.22 92.84 51.79 93.74 51.35 94.64 50.92 95.54 50.48 96.44 50.05 97.33 49.61 98.23 49.17 99.13 48.73 100.02 48.29 100.92 47.84 101.81 47.40 102.71 46.96 103.60 46.51 104.50 46.07 105.39 45.62 106.28 45.17 107.17 44.73 108.07 44.28 108.96 43.83 109.85 43.38 110.74 42.92 111.63 42.47 112.52 42.02 113.41 41.56 114.30 41.11 115.19 40.65 116.08 40.19 116.96 39.74 117.85 39.28 118.74 38.82 119.62 38.36 120.51 37.90 121.39 37.43 122.28 36.97 123.16 36.51 124.05 36.04 124.93 35.57 125.81 35.11 126.70 34.64 127.58 34.17 128.46 33.70 129.34 33.23 130.22 32.76 131.10 32.29 131.98 31.82 132.86 31.34 133.74 30.87 134.62 30.39 135.49 29.91 136.37 29.44 137.25 28.96 138.12 28.48 139.00 28.00 139 28 139.36 27.02 139.36 25.98 139.00 25.00 139 25 Z"></path><path fill="#782202" d="M-135 -30C  -134.46 -29.16 -133.91 -28.32 -133.37 -27.48 -132.82 -26.64 -132.27 -25.80 -131.73 -24.96 -131.18 -24.13 -130.63 -23.29 -130.08 -22.45 -129.52 -21.62 -128.97 -20.78 -128.42 -19.95 -127.87 -19.11 -127.31 -18.28 -126.76 -17.45 -126.20 -16.61 -125.64 -15.78 -125.08 -14.95 -124.53 -14.12 -123.97 -13.29 -123.41 -12.46 -122.84 -11.63 -122.28 -10.80 -121.72 -9.98 -121.16 -9.15 -120.59 -8.32 -120.03 -7.50 -119.46 -6.67 -118.89 -5.84 -118.32 -5.02 -117.76 -4.20 -117.19 -3.37 -116.62 -2.55 -116.04 -1.73 -115.47 -0.91 -114.90 -0.08 -114.33 0.74 -113.75 1.56 -113.18 2.38 -112.60 3.19 -112.02 4.01 -111.45 4.83 -110.87 5.65 -110.29 6.46 -109.71 7.28 -109.13 8.10 -108.54 8.91 -107.96 9.72 -107.38 10.54 -106.79 11.35 -106.21 12.16 -105.62 12.97 -105.04 13.79 -104.45 14.60 -103.86 15.41 -103.27 16.22 -102.68 17.03 -102.09 17.83 -101.50 18.64 -100.91 19.45 -100.31 20.26 -99.72 21.06 -99.12 21.87 -98.53 22.67 -97.93 23.48 -97.33 24.28 -96.74 25.08 -96.14 25.88 -95.54 26.69 -94.94 27.49 -94.34 28.29 -93.73 29.09 -93.13 29.89 -92.53 30.69 -91.92 31.48 -91.32 32.28 -90.71 33.08 -90.11 33.87 -89.50 34.67 -88.89 35.47 -88.28 36.26 -87.67 37.05 -87.06 37.85 -86.45 38.64 -85.83 39.43 -85.22 40.22 -84.61 41.01 -83.99 41.80 -83.38 42.59 -82.76 43.38 -82.14 44.17 -81.53 44.96 -80.91 45.75 -80.29 46.53 -79.67 47.32 -79.05 48.10 -78.42 48.89 -77.80 49.67 -77.18 50.46 -76.55 51.24 -75.93 52.02 -75.30 52.80 -74.68 53.58 -74.05 54.36 -73.42 55.14 -72.79 55.92 -72.16 56.70 -71.53 57.48 -70.90 58.25 -70.27 59.03 -69.64 59.81 -69.00 60.58 -68.37 61.36 -67.73 62.13 -67.10 62.90 -66.46 63.68 -65.82 64.45 -65.18 65.22 -64.54 65.99 -63.90 66.76 -63.26 67.53 -62.62 68.30 -61.98 69.07 -61.34 69.83 -60.69 70.60 -60.05 71.37 -59.40 72.13 -58.76 72.90 -58.11 73.66 -57.46 74.43 -56.82 75.19 -56.17 75.95 -55.52 76.71 -54.87 77.47 -54.22 78.24 -53.56 78.99 -52.91 79.75 -52.26 80.51 -51.60 81.27 -50.95 82.03 -50.29 82.78 -49.64 83.54 -48.98 84.29 -48.32 85.05 -47.66 85.80 -47.00 86.56 -46.34 87.31 -45.68 88.06 -45.02 88.81 -44.36 89.56 -43.69 90.31 -43.03 91.06 -42.36 91.81 -41.70 92.56 -41.03 93.31 -40.36 94.05 -39.70 94.80 -39.03 95.54 -38.36 96.29 -37.69 97.03 -37.02 97.77 -36.35 98.52 -35.67 99.26 -35.00 100.00 -35 100 -34.05 99.69 -33.10 99.38 -32.15 99.08 -31.20 98.77 -30.25 98.45 -29.30 98.14 -28.35 97.83 -27.41 97.52 -26.46 97.20 -25.51 96.89 -24.56 96.57 -23.62 96.25 -22.67 95.93 -21.72 95.61 -20.78 95.29 -19.83 94.97 -18.89 94.65 -17.94 94.33 -17.00 94.00 -16.05 93.68 -15.11 93.35 -14.16 93.02 -13.22 92.70 -12.28 92.37 -11.34 92.04 -10.39 91.71 -9.45 91.38 -8.51 91.04 -7.57 90.71 -6.63 90.37 -5.69 90.04 -4.75 89.70 -3.81 89.37 -2.87 89.03 -1.93 88.69 -0.99 88.35 -0.05 88.01 0.89 87.66 1.83 87.32 2.76 86.98 3.70 86.63 4.64 86.29 5.58 85.94 6.51 85.59 7.45 85.24 8.38 84.89 9.32 84.54 10.25 84.19 11.19 83.84 12.12 83.49 13.06 83.13 13.99 82.78 14.92 82.42 15.86 82.06 16.79 81.71 17.72 81.35 18.65 80.99 19.58 80.63 20.51 80.27 21.44 79.90 22.37 79.54 23.30 79.18 24.23 78.81 25.16 78.44 26.09 78.08 27.02 77.71 27.95 77.34 28.88 76.97 29.80 76.60 30.73 76.23 31.66 75.85 32.58 75.48 33.51 75.11 34.43 74.73 35.36 74.35 36.28 73.98 37.21 73.60 38.13 73.22 39.06 72.84 39.98 72.46 40.90 72.08 41.82 71.69 42.75 71.31 43.67 70.92 44.59 70.54 45.51 70.15 46.43 69.76 47.35 69.38 48.27 68.99 49.19 68.60 50.11 68.20 51.03 67.81 51.95 67.42 52.86 67.03 53.78 66.63 54.70 66.23 55.61 65.84 56.53 65.44 57.45 65.04 58.36 64.64 59.28 64.24 60.19 63.84 61.10 63.44 62.02 63.04 62.93 62.63 63.85 62.23 64.76 61.82 65.67 61.41 66.58 61.01 67.49 60.60 68.40 60.19 69.31 59.78 70.22 59.37 71.13 58.95 72.04 58.54 72.95 58.13 73.86 57.71 74.77 57.30 75.68 56.88 76.58 56.46 77.49 56.04 78.40 55.62 79.30 55.20 80.21 54.78 81.11 54.36 82.02 53.94 82.92 53.51 83.83 53.09 84.73 52.66 85.63 52.24 86.54 51.81 87.44 51.38 88.34 50.95 89.24 50.52 90.14 50.09 91.04 49.66 91.94 49.22 92.84 48.79 93.74 48.35 94.64 47.92 95.54 47.48 96.44 47.05 97.33 46.61 98.23 46.17 99.13 45.73 100.02 45.29 100.92 44.84 101.81 44.40 102.71 43.96 103.60 43.51 104.50 43.07 105.39 42.62 106.28 42.17 107.17 41.73 108.07 41.28 108.96 40.83 109.85 40.38 110.74 39.92 111.63 39.47 112.52 39.02 113.41 38.56 114.30 38.11 115.19 37.65 116.08 37.19 116.96 36.74 117.85 36.28 118.74 35.82 119.62 35.36 120.51 34.90 121.39 34.43 122.28 33.97 123.16 33.51 124.05 33.04 124.93 32.57 125.81 32.11 126.70 31.64 127.58 31.17 128.46 30.70 129.34 30.23 130.22 29.76 131.10 29.29 131.98 28.82 132.86 28.34 133.74 27.87 134.62 27.39 135.49 26.91 136.37 26.44 137.25 25.96 138.12 25.48 139.00 25.00 139 25 138.29 24.30 137.58 23.60 136.87 22.90 136.17 22.19 135.46 21.49 134.76 20.78 134.06 20.07 133.36 19.36 132.65 18.65 131.96 17.94 131.26 17.23 130.56 16.52 129.87 15.80 129.17 15.09 128.48 14.37 127.79 13.65 127.09 12.93 126.41 12.21 125.72 11.49 125.03 10.77 124.34 10.05 123.66 9.32 122.98 8.60 122.29 7.87 121.61 7.14 120.93 6.41 120.25 5.68 119.58 4.95 118.90 4.22 118.22 3.48 117.55 2.75 116.88 2.01 116.21 1.27 115.54 0.54 114.87 -0.20 114.20 -0.94 113.53 -1.69 112.87 -2.43 112.20 -3.17 111.54 -3.92 110.88 -4.66 110.22 -5.41 109.56 -6.16 108.90 -6.91 108.24 -7.66 107.59 -8.41 106.93 -9.16 106.28 -9.92 105.63 -10.67 104.98 -11.43 104.33 -12.18 103.68 -12.94 103.04 -13.70 102.39 -14.46 101.75 -15.22 101.10 -15.98 100.46 -16.75 99.82 -17.51 99.18 -18.28 98.55 -19.04 97.91 -19.81 97.27 -20.58 96.64 -21.35 96.01 -22.12 95.38 -22.89 94.75 -23.67 94.12 -24.44 93.49 -25.21 92.86 -25.99 92.24 -26.77 91.62 -27.55 90.99 -28.32 90.37 -29.10 89.75 -29.89 89.13 -30.67 88.52 -31.45 87.90 -32.24 87.29 -33.02 86.67 -33.81 86.06 -34.59 85.45 -35.38 84.84 -36.17 84.23 -36.96 83.63 -37.75 83.02 -38.55 82.42 -39.34 81.81 -40.13 81.21 -40.93 80.61 -41.73 80.01 -42.52 79.42 -43.32 78.82 -44.12 78.23 -44.92 77.63 -45.72 77.04 -46.52 76.45 -47.33 75.86 -48.13 75.27 -48.94 74.69 -49.74 74.10 -50.55 73.52 -51.36 72.93 -52.17 72.35 -52.98 71.77 -53.79 71.19 -54.60 70.62 -55.41 70.04 -56.23 69.47 -57.04 68.89 -57.86 68.32 -58.68 67.75 -59.49 67.18 -60.31 66.61 -61.13 66.05 -61.95 65.48 -62.77 64.92 -63.60 64.36 -64.42 63.79 -65.24 63.23 -66.07 62.68 -66.90 62.12 -67.72 61.56 -68.55 61.01 -69.38 60.46 -70.21 59.91 -71.04 59.36 -71.87 58.81 -72.71 58.26 -73.54 57.71 -74.37 57.17 -75.21 56.63 -76.05 56.09 -76.88 55.54 -77.72 55.01 -78.56 54.47 -79.40 53.93 -80.24 53.40 -81.08 52.86 -81.92 52.33 -82.77 51.80 -83.61 51.27 -84.46 50.75 -85.30 50.22 -86.15 49.69 -87.00 49.17 -87.85 48.65 -88.70 48.13 -89.55 47.61 -90.40 47.09 -91.25 46.57 -92.10 46.06 -92.96 45.55 -93.81 45.03 -94.67 44.52 -95.52 44.01 -96.38 43.51 -97.24 43.00 -98.10 42.49 -98.96 41.99 -99.82 41.49 -100.68 40.99 -101.54 40.49 -102.41 39.99 -103.27 39.49 -104.13 39.00 -105.00 39 -105 38.15 -104.46 37.31 -103.93 36.46 -103.40 35.61 -102.86 34.76 -102.33 33.91 -101.81 33.06 -101.28 32.21 -100.75 31.35 -100.23 30.50 -99.70 29.65 -99.18 28.79 -98.66 27.93 -98.14 27.08 -97.63 26.22 -97.11 25.36 -96.60 24.50 -96.08 23.64 -95.57 22.78 -95.06 21.91 -94.55 21.05 -94.04 20.19 -93.54 19.32 -93.03 18.46 -92.53 17.59 -92.03 16.72 -91.53 15.85 -91.03 14.98 -90.53 14.11 -90.04 13.24 -89.54 12.37 -89.05 11.50 -88.56 10.62 -88.07 9.75 -87.58 8.88 -87.09 8.00 -86.61 7.12 -86.12 6.25 -85.64 5.37 -85.16 4.49 -84.68 3.61 -84.20 2.73 -83.72 1.85 -83.25 0.96 -82.77 0.08 -82.30 -0.80 -81.83 -1.69 -81.36 -2.57 -80.89 -3.46 -80.43 -4.35 -79.96 -5.23 -79.50 -6.12 -79.04 -7.01 -78.58 -7.90 -78.12 -8.79 -77.66 -9.68 -77.20 -10.58 -76.75 -11.47 -76.30 -12.36 -75.84 -13.26 -75.39 -14.15 -74.95 -15.05 -74.50 -15.94 -74.05 -16.84 -73.61 -17.74 -73.17 -18.64 -72.72 -19.54 -72.28 -20.44 -71.85 -21.34 -71.41 -22.24 -70.97 -23.15 -70.54 -24.05 -70.11 -24.95 -69.68 -25.86 -69.25 -26.76 -68.82 -27.67 -68.40 -28.58 -67.97 -29.48 -67.55 -30.39 -67.13 -31.30 -66.71 -32.21 -66.29 -33.12 -65.87 -34.03 -65.46 -34.95 -65.04 -35.86 -64.63 -36.77 -64.22 -37.69 -63.81 -38.60 -63.40 -39.51 -62.99 -40.43 -62.59 -41.35 -62.19 -42.26 -61.78 -43.18 -61.38 -44.10 -60.99 -45.02 -60.59 -45.94 -60.19 -46.86 -59.80 -47.78 -59.41 -48.70 -59.01 -49.63 -58.63 -50.55 -58.24 -51.47 -57.85 -52.40 -57.47 -53.32 -57.08 -54.25 -56.70 -55.18 -56.32 -56.10 -55.94 -57.03 -55.57 -57.96 -55.19 -58.89 -54.82 -59.82 -54.44 -60.75 -54.07 -61.68 -53.70 -62.61 -53.33 -63.54 -52.97 -64.48 -52.60 -65.41 -52.24 -66.34 -51.88 -67.28 -51.52 -68.21 -51.16 -69.15 -50.80 -70.08 -50.45 -71.02 -50.09 -71.96 -49.74 -72.90 -49.39 -73.83 -49.04 -74.77 -48.70 -75.71 -48.35 -76.65 -48.00 -77.59 -47.66 -78.54 -47.32 -79.48 -46.98 -80.42 -46.64 -81.36 -46.31 -82.31 -45.97 -83.25 -45.64 -84.20 -45.31 -85.14 -44.98 -86.09 -44.65 -87.04 -44.32 -87.98 -44.00 -88.93 -43.67 -89.88 -43.35 -90.83 -43.03 -91.78 -42.71 -92.73 -42.39 -93.68 -42.08 -94.63 -41.76 -95.58 -41.45 -96.53 -41.14 -97.48 -40.83 -98.44 -40.52 -99.39 -40.21 -100.34 -39.91 -101.30 -39.60 -102.25 -39.30 -103.21 -39.00 -104.16 -38.70 -105.12 -38.41 -106.08 -38.11 -107.03 -37.82 -107.99 -37.53 -108.95 -37.24 -109.91 -36.95 -110.87 -36.66 -111.83 -36.37 -112.79 -36.09 -113.75 -35.81 -114.71 -35.53 -115.67 -35.25 -116.63 -34.97 -117.60 -34.69 -118.56 -34.42 -119.52 -34.15 -120.49 -33.88 -121.45 -33.61 -122.42 -33.34 -123.38 -33.07 -124.35 -32.81 -125.31 -32.54 -126.28 -32.28 -127.25 -32.02 -128.22 -31.76 -129.18 -31.51 -130.15 -31.25 -131.12 -31.00 -132.09 -30.75 -133.06 -30.50 -134.03 -30.25 -135.00 -30.00 -135 -30 Z"></path><path fill="#fff" d="M-40 -37C  -39.04 -36.73 -38.07 -36.47 -37.11 -36.20 -36.14 -35.94 -35.18 -35.67 -34.21 -35.41 -33.25 -35.15 -32.28 -34.89 -31.32 -34.63 -30.35 -34.37 -29.39 -34.11 -28.42 -33.85 -27.45 -33.60 -26.49 -33.34 -25.52 -33.09 -24.55 -32.83 -23.58 -32.58 -22.62 -32.33 -21.65 -32.08 -20.68 -31.83 -19.71 -31.58 -18.74 -31.34 -17.77 -31.09 -16.80 -30.84 -15.83 -30.60 -14.86 -30.36 -13.89 -30.11 -12.92 -29.87 -11.95 -29.63 -10.98 -29.39 -10.01 -29.15 -9.04 -28.92 -8.07 -28.68 -7.09 -28.44 -6.12 -28.21 -5.15 -27.98 -4.18 -27.74 -3.20 -27.51 -2.23 -27.28 -1.26 -27.05 -0.28 -26.82 0.69 -26.59 1.66 -26.37 2.64 -26.14 3.61 -25.92 4.59 -25.69 5.56 -25.47 6.54 -25.25 7.51 -25.03 8.49 -24.81 9.46 -24.59 10.44 -24.37 11.41 -24.15 12.39 -23.93 13.37 -23.72 14.34 -23.51 15.32 -23.29 16.30 -23.08 17.28 -22.87 18.25 -22.66 19.23 -22.45 20.21 -22.24 21.19 -22.03 22.17 -21.83 23.15 -21.62 24.12 -21.42 25.10 -21.21 26.08 -21.01 27.06 -20.81 28.04 -20.61 29.02 -20.41 30.00 -20.21 30.98 -20.01 31.96 -19.82 32.94 -19.62 33.92 -19.43 34.91 -19.23 35.89 -19.04 36.87 -18.85 37.85 -18.66 38.83 -18.47 39.81 -18.28 40.80 -18.09 41.78 -17.90 42.76 -17.72 43.74 -17.53 44.73 -17.35 45.71 -17.17 46.69 -16.98 47.68 -16.80 48.66 -16.62 49.65 -16.44 50.63 -16.27 51.61 -16.09 52.60 -15.91 53.58 -15.74 54.57 -15.57 55.55 -15.39 56.54 -15.22 57.52 -15.05 58.51 -14.88 59.49 -14.71 60.48 -14.54 61.47 -14.37 62.45 -14.21 63.44 -14.04 64.42 -13.88 65.41 -13.72 66.40 -13.55 67.39 -13.39 68.37 -13.23 69.36 -13.07 70.35 -12.91 71.33 -12.76 72.32 -12.60 73.31 -12.45 74.30 -12.29 75.29 -12.14 76.27 -11.99 77.26 -11.83 78.25 -11.68 79.24 -11.54 80.23 -11.39 81.22 -11.24 82.21 -11.09 83.20 -10.95 84.19 -10.80 85.18 -10.66 86.17 -10.52 87.16 -10.38 88.15 -10.24 89.14 -10.10 90.13 -9.96 91.12 -9.82 92.11 -9.68 93.10 -9.55 94.09 -9.41 95.08 -9.28 96.07 -9.15 97.06 -9.02 98.06 -8.89 99.05 -8.76 100.04 -8.63 101.03 -8.50 102.02 -8.37 103.02 -8.25 104.01 -8.12 105.00 -8.00 105 -8 104.70 -7.05 104.40 -6.10 104.11 -5.16 103.80 -4.21 103.50 -3.26 103.20 -2.32 102.90 -1.37 102.59 -0.42 102.29 0.52 101.98 1.47 101.68 2.41 101.37 3.36 101.06 4.30 100.75 5.25 100.44 6.19 100.13 7.14 99.82 8.08 99.50 9.02 99.19 9.96 98.87 10.91 98.56 11.85 98.24 12.79 97.92 13.73 97.60 14.67 97.28 15.61 96.96 16.55 96.64 17.49 96.32 18.43 95.99 19.37 95.67 20.31 95.34 21.25 95.02 22.19 94.69 23.13 94.36 24.07 94.03 25.00 93.70 25.94 93.37 26.88 93.04 27.82 92.71 28.75 92.37 29.69 92.04 30.62 91.70 31.56 91.37 32.49 91.03 33.43 90.69 34.36 90.35 35.30 90.01 36.23 89.67 37.16 89.33 38.10 88.98 39.03 88.64 39.96 88.29 40.89 87.95 41.82 87.60 42.76 87.25 43.69 86.91 44.62 86.56 45.55 86.20 46.48 85.85 47.41 85.50 48.34 85.15 49.27 84.79 50.19 84.44 51.12 84.08 52.05 83.73 52.98 83.37 53.90 83.01 54.83 82.65 55.76 82.29 56.68 81.93 57.61 81.56 58.53 81.20 59.46 80.84 60.38 80.47 61.31 80.10 62.23 79.74 63.15 79.37 64.08 79.00 65.00 79 65 78.01 64.88 77.02 64.75 76.02 64.63 75.03 64.50 74.04 64.37 73.05 64.24 72.06 64.11 71.06 63.98 70.07 63.85 69.08 63.72 68.09 63.59 67.10 63.45 66.11 63.32 65.12 63.18 64.13 63.04 63.14 62.90 62.15 62.76 61.16 62.62 60.17 62.48 59.18 62.34 58.19 62.20 57.20 62.05 56.21 61.91 55.22 61.76 54.23 61.61 53.24 61.46 52.25 61.32 51.26 61.17 50.27 61.01 49.29 60.86 48.30 60.71 47.31 60.55 46.32 60.40 45.33 60.24 44.35 60.09 43.36 59.93 42.37 59.77 41.39 59.61 40.40 59.45 39.41 59.28 38.42 59.12 37.44 58.96 36.45 58.79 35.47 58.63 34.48 58.46 33.49 58.29 32.51 58.12 31.52 57.95 30.54 57.78 29.55 57.61 28.57 57.43 27.58 57.26 26.60 57.09 25.61 56.91 24.63 56.73 23.65 56.56 22.66 56.38 21.68 56.20 20.69 56.02 19.71 55.83 18.73 55.65 17.74 55.47 16.76 55.28 15.78 55.10 14.80 54.91 13.81 54.72 12.83 54.53 11.85 54.34 10.87 54.15 9.89 53.96 8.91 53.77 7.92 53.57 6.94 53.38 5.96 53.18 4.98 52.99 4.00 52.79 3.02 52.59 2.04 52.39 1.06 52.19 0.08 51.99 -0.90 51.79 -1.88 51.58 -2.85 51.38 -3.83 51.17 -4.81 50.97 -5.79 50.76 -6.77 50.55 -7.75 50.34 -8.72 50.13 -9.70 49.92 -10.68 49.71 -11.66 49.49 -12.63 49.28 -13.61 49.07 -14.59 48.85 -15.56 48.63 -16.54 48.41 -17.51 48.19 -18.49 47.97 -19.46 47.75 -20.44 47.53 -21.41 47.31 -22.39 47.08 -23.36 46.86 -24.34 46.63 -25.31 46.41 -26.28 46.18 -27.26 45.95 -28.23 45.72 -29.20 45.49 -30.18 45.26 -31.15 45.02 -32.12 44.79 -33.09 44.56 -34.07 44.32 -35.04 44.08 -36.01 43.85 -36.98 43.61 -37.95 43.37 -38.92 43.13 -39.89 42.89 -40.86 42.64 -41.83 42.40 -42.80 42.16 -43.77 41.91 -44.74 41.66 -45.71 41.42 -46.68 41.17 -47.65 40.92 -48.62 40.67 -49.58 40.42 -50.55 40.17 -51.52 39.91 -52.49 39.66 -53.45 39.40 -54.42 39.15 -55.39 38.89 -56.35 38.63 -57.32 38.37 -58.28 38.11 -59.25 37.85 -60.21 37.59 -61.18 37.33 -62.14 37.06 -63.11 36.80 -64.07 36.53 -65.04 36.27 -66.00 36.00 -66 36 -65.63 35.08 -65.26 34.15 -64.90 33.23 -64.53 32.31 -64.16 31.38 -63.80 30.46 -63.44 29.53 -63.07 28.61 -62.71 27.68 -62.35 26.76 -61.99 25.83 -61.63 24.90 -61.27 23.98 -60.92 23.05 -60.56 22.12 -60.21 21.19 -59.85 20.27 -59.50 19.34 -59.15 18.41 -58.80 17.48 -58.44 16.55 -58.09 15.62 -57.75 14.69 -57.40 13.76 -57.05 12.82 -56.71 11.89 -56.36 10.96 -56.02 10.03 -55.67 9.10 -55.33 8.16 -54.99 7.23 -54.65 6.30 -54.31 5.36 -53.97 4.43 -53.63 3.49 -53.30 2.56 -52.96 1.62 -52.63 0.69 -52.29 -0.25 -51.96 -1.18 -51.63 -2.12 -51.30 -3.06 -50.97 -4.00 -50.64 -4.93 -50.31 -5.87 -49.98 -6.81 -49.66 -7.75 -49.33 -8.69 -49.01 -9.63 -48.68 -10.57 -48.36 -11.51 -48.04 -12.45 -47.72 -13.39 -47.40 -14.33 -47.08 -15.27 -46.76 -16.21 -46.44 -17.15 -46.13 -18.09 -45.81 -19.04 -45.50 -19.98 -45.18 -20.92 -44.87 -21.86 -44.56 -22.81 -44.25 -23.75 -43.94 -24.70 -43.63 -25.64 -43.32 -26.59 -43.02 -27.53 -42.71 -28.48 -42.41 -29.42 -42.10 -30.37 -41.80 -31.32 -41.50 -32.26 -41.20 -33.21 -40.89 -34.16 -40.60 -35.10 -40.30 -36.05 -40.00 -37.00 -40 -37 Z" opacity="0.9"></path><path fill="#fff" d="M-70 -67C  -69.04 -66.73 -68.07 -66.47 -67.11 -66.20 -66.14 -65.94 -65.18 -65.67 -64.21 -65.41 -63.25 -65.15 -62.28 -64.89 -61.32 -64.63 -60.35 -64.37 -59.39 -64.11 -58.42 -63.85 -57.45 -63.60 -56.49 -63.34 -55.52 -63.09 -54.55 -62.83 -53.58 -62.58 -52.62 -62.33 -51.65 -62.08 -50.68 -61.83 -49.71 -61.58 -48.74 -61.34 -47.77 -61.09 -46.80 -60.84 -45.83 -60.60 -44.86 -60.36 -43.89 -60.11 -42.92 -59.87 -41.95 -59.63 -40.98 -59.39 -40.01 -59.15 -39.04 -58.92 -38.07 -58.68 -37.09 -58.44 -36.12 -58.21 -35.15 -57.98 -34.18 -57.74 -33.20 -57.51 -32.23 -57.28 -31.26 -57.05 -30.28 -56.82 -29.31 -56.59 -28.34 -56.37 -27.36 -56.14 -26.39 -55.92 -25.41 -55.69 -24.44 -55.47 -23.46 -55.25 -22.49 -55.03 -21.51 -54.81 -20.54 -54.59 -19.56 -54.37 -18.59 -54.15 -17.61 -53.93 -16.63 -53.72 -15.66 -53.51 -14.68 -53.29 -13.70 -53.08 -12.72 -52.87 -11.75 -52.66 -10.77 -52.45 -9.79 -52.24 -8.81 -52.03 -7.83 -51.83 -6.85 -51.62 -5.88 -51.42 -4.90 -51.21 -3.92 -51.01 -2.94 -50.81 -1.96 -50.61 -0.98 -50.41 0.00 -50.21 0.98 -50.01 1.96 -49.82 2.94 -49.62 3.92 -49.43 4.91 -49.23 5.89 -49.04 6.87 -48.85 7.85 -48.66 8.83 -48.47 9.81 -48.28 10.80 -48.09 11.78 -47.90 12.76 -47.72 13.74 -47.53 14.73 -47.35 15.71 -47.17 16.69 -46.98 17.68 -46.80 18.66 -46.62 19.65 -46.44 20.63 -46.27 21.61 -46.09 22.60 -45.91 23.58 -45.74 24.57 -45.57 25.55 -45.39 26.54 -45.22 27.52 -45.05 28.51 -44.88 29.49 -44.71 30.48 -44.54 31.47 -44.37 32.45 -44.21 33.44 -44.04 34.42 -43.88 35.41 -43.72 36.40 -43.55 37.39 -43.39 38.37 -43.23 39.36 -43.07 40.35 -42.91 41.33 -42.76 42.32 -42.60 43.31 -42.45 44.30 -42.29 45.29 -42.14 46.27 -41.99 47.26 -41.83 48.25 -41.68 49.24 -41.54 50.23 -41.39 51.22 -41.24 52.21 -41.09 53.20 -40.95 54.19 -40.80 55.18 -40.66 56.17 -40.52 57.16 -40.38 58.15 -40.24 59.14 -40.10 60.13 -39.96 61.12 -39.82 62.11 -39.68 63.10 -39.55 64.09 -39.41 65.08 -39.28 66.07 -39.15 67.06 -39.02 68.06 -38.89 69.05 -38.76 70.04 -38.63 71.03 -38.50 72.02 -38.37 73.02 -38.25 74.01 -38.12 75.00 -38.00 75 -38 74.70 -37.05 74.40 -36.10 74.11 -35.16 73.80 -34.21 73.50 -33.26 73.20 -32.32 72.90 -31.37 72.59 -30.42 72.29 -29.48 71.98 -28.53 71.68 -27.59 71.37 -26.64 71.06 -25.70 70.75 -24.75 70.44 -23.81 70.13 -22.86 69.82 -21.92 69.50 -20.98 69.19 -20.04 68.87 -19.09 68.56 -18.15 68.24 -17.21 67.92 -16.27 67.60 -15.33 67.28 -14.39 66.96 -13.45 66.64 -12.51 66.32 -11.57 65.99 -10.63 65.67 -9.69 65.34 -8.75 65.02 -7.81 64.69 -6.87 64.36 -5.93 64.03 -5.00 63.70 -4.06 63.37 -3.12 63.04 -2.18 62.71 -1.25 62.37 -0.31 62.04 0.62 61.70 1.56 61.37 2.49 61.03 3.43 60.69 4.36 60.35 5.30 60.01 6.23 59.67 7.16 59.33 8.10 58.98 9.03 58.64 9.96 58.29 10.89 57.95 11.82 57.60 12.76 57.25 13.69 56.91 14.62 56.56 15.55 56.20 16.48 55.85 17.41 55.50 18.34 55.15 19.27 54.79 20.19 54.44 21.12 54.08 22.05 53.73 22.98 53.37 23.90 53.01 24.83 52.65 25.76 52.29 26.68 51.93 27.61 51.56 28.53 51.20 29.46 50.84 30.38 50.47 31.31 50.10 32.23 49.74 33.15 49.37 34.08 49.00 35.00 49 35 48.01 34.88 47.02 34.75 46.02 34.63 45.03 34.50 44.04 34.37 43.05 34.24 42.06 34.11 41.06 33.98 40.07 33.85 39.08 33.72 38.09 33.59 37.10 33.45 36.11 33.32 35.12 33.18 34.13 33.04 33.14 32.90 32.15 32.76 31.16 32.62 30.17 32.48 29.18 32.34 28.19 32.20 27.20 32.05 26.21 31.91 25.22 31.76 24.23 31.61 23.24 31.46 22.25 31.32 21.26 31.17 20.27 31.01 19.29 30.86 18.30 30.71 17.31 30.55 16.32 30.40 15.33 30.24 14.35 30.09 13.36 29.93 12.37 29.77 11.39 29.61 10.40 29.45 9.41 29.28 8.42 29.12 7.44 28.96 6.45 28.79 5.47 28.63 4.48 28.46 3.49 28.29 2.51 28.12 1.52 27.95 0.54 27.78 -0.45 27.61 -1.43 27.43 -2.42 27.26 -3.40 27.09 -4.39 26.91 -5.37 26.73 -6.35 26.56 -7.34 26.38 -8.32 26.20 -9.31 26.02 -10.29 25.83 -11.27 25.65 -12.26 25.47 -13.24 25.28 -14.22 25.10 -15.20 24.91 -16.19 24.72 -17.17 24.53 -18.15 24.34 -19.13 24.15 -20.11 23.96 -21.09 23.77 -22.08 23.57 -23.06 23.38 -24.04 23.18 -25.02 22.99 -26.00 22.79 -26.98 22.59 -27.96 22.39 -28.94 22.19 -29.92 21.99 -30.90 21.79 -31.88 21.58 -32.85 21.38 -33.83 21.17 -34.81 20.97 -35.79 20.76 -36.77 20.55 -37.75 20.34 -38.72 20.13 -39.70 19.92 -40.68 19.71 -41.66 19.49 -42.63 19.28 -43.61 19.07 -44.59 18.85 -45.56 18.63 -46.54 18.41 -47.51 18.19 -48.49 17.97 -49.46 17.75 -50.44 17.53 -51.41 17.31 -52.39 17.08 -53.36 16.86 -54.34 16.63 -55.31 16.41 -56.28 16.18 -57.26 15.95 -58.23 15.72 -59.20 15.49 -60.18 15.26 -61.15 15.02 -62.12 14.79 -63.09 14.56 -64.07 14.32 -65.04 14.08 -66.01 13.85 -66.98 13.61 -67.95 13.37 -68.92 13.13 -69.89 12.89 -70.86 12.64 -71.83 12.40 -72.80 12.16 -73.77 11.91 -74.74 11.66 -75.71 11.42 -76.68 11.17 -77.65 10.92 -78.62 10.67 -79.58 10.42 -80.55 10.17 -81.52 9.91 -82.49 9.66 -83.45 9.40 -84.42 9.15 -85.39 8.89 -86.35 8.63 -87.32 8.37 -88.28 8.11 -89.25 7.85 -90.21 7.59 -91.18 7.33 -92.14 7.06 -93.11 6.80 -94.07 6.53 -95.04 6.27 -96.00 6.00 -96 6 -95.63 5.08 -95.26 4.15 -94.90 3.23 -94.53 2.31 -94.16 1.38 -93.80 0.46 -93.44 -0.47 -93.07 -1.39 -92.71 -2.32 -92.35 -3.24 -91.99 -4.17 -91.63 -5.10 -91.27 -6.02 -90.92 -6.95 -90.56 -7.88 -90.21 -8.81 -89.85 -9.73 -89.50 -10.66 -89.15 -11.59 -88.80 -12.52 -88.44 -13.45 -88.09 -14.38 -87.75 -15.31 -87.40 -16.24 -87.05 -17.18 -86.71 -18.11 -86.36 -19.04 -86.02 -19.97 -85.67 -20.90 -85.33 -21.84 -84.99 -22.77 -84.65 -23.70 -84.31 -24.64 -83.97 -25.57 -83.63 -26.51 -83.30 -27.44 -82.96 -28.38 -82.63 -29.31 -82.29 -30.25 -81.96 -31.18 -81.63 -32.12 -81.30 -33.06 -80.97 -34.00 -80.64 -34.93 -80.31 -35.87 -79.98 -36.81 -79.66 -37.75 -79.33 -38.69 -79.01 -39.63 -78.68 -40.57 -78.36 -41.51 -78.04 -42.45 -77.72 -43.39 -77.40 -44.33 -77.08 -45.27 -76.76 -46.21 -76.44 -47.15 -76.13 -48.09 -75.81 -49.04 -75.50 -49.98 -75.18 -50.92 -74.87 -51.86 -74.56 -52.81 -74.25 -53.75 -73.94 -54.70 -73.63 -55.64 -73.32 -56.59 -73.02 -57.53 -72.71 -58.48 -72.41 -59.42 -72.10 -60.37 -71.80 -61.32 -71.50 -62.26 -71.20 -63.21 -70.89 -64.16 -70.60 -65.10 -70.30 -66.05 -70.00 -67.00 -70 -67 Z" opacity="0.9"></path></g><path fill="rgba(0,0,0,0.18)" d="M-85 20C  -83.97 20.32 -82.94 19.96 -81.87 20.03 -80.96 19.38 -80.03 18.94 -80 19 -79.02 18.67 -78.01 18.48 -76.99 18.30 -76.23 17.38 -74.97 17.74 -74.13 17.08 -73.23 16.57 -72.37 16.00 -71.35 15.64 -70.80 14.65 -69.79 14.24 -70 14 -69.34 13.19 -68.51 12.63 -67.58 12.21 -66.78 11.61 -65.79 11.28 -65.09 10.53 -64.17 10.10 -63.41 9.44 -62.71 8.71 -61.91 8.10 -60.93 7.74 -60.44 6.73 -59.23 6.65 -58.71 5.70 -57.82 5.20 -57.00 4.62 -56.23 3.99 -55.35 3.47 -54.85 2.51 -54.14 1.79 -52.97 1.63 -52.23 0.95 -51.70 0.03 -50.77 -0.42 -49.92 -0.98 -49.74 -2.30 -48.77 -2.71 -48.22 -3.59 -46.94 -3.67 -46.22 -4.36 -45.43 -4.99 -45.32 -6.34 -45 -6 -44.49 -6.89 -43.99 -7.79 -42.74 -8.00 -42.41 -9.06 -41.79 -9.85 -40.88 -10.38 -40.13 -11.06 -39.90 -12.18 -39.10 -12.81 -38.30 -13.44 -37.61 -14.17 -37.22 -15.15 -36.63 -15.96 -35.69 -16.49 -35.40 -17.54 -34.37 -18.00 -33.59 -18.66 -33.50 -19.86 -32.49 -20.35 -31.75 -21.04 -31.34 -21.99 -31.05 -23.02 -30.32 -23.73 -29.25 -24.18 -29.27 -25.44 -28.43 -26.06 -27.83 -26.87 -26.88 -27.42 -26.34 -28.27 -25.79 -29.11 -25.48 -30.11 -25.24 -31.17 -25 -31 -23.95 -31.45 -23.56 -32.49 -23.07 -33.41 -22.43 -34.22 -22.15 -35.26 -21.66 -36.15 -21.47 -37.19 -20.62 -37.95 -20.05 -38.86 -20.51 -40.07 -20.45 -41.09 -20 -41 -19.90 -42.03 -19.84 -43.08 -19.81 -44.16 -20.44 -45.10 -21.39 -45.83 -21 -46 -22.02 -45.71 -23.00 -45.33 -24.16 -45.28 -25.01 -44.56 -25.42 -43.36 -26.39 -42.87 -26.89 -41.92 -27 -42 -28.02 -41.57 -28.47 -40.64 -28.88 -39.67 -29.90 -39.24 -30.43 -38.37 -31.15 -37.69 -31.70 -36.83 -32.30 -36.04 -32.65 -35.00 -33.37 -34.31 -34.02 -33.55 -35.24 -33.32 -35.98 -32.64 -36.50 -31.77 -37.29 -31.13 -38.07 -30.49 -38.55 -29.58 -39.12 -28.75 -39.92 -28.13 -40.40 -27.21 -40.90 -26.32 -42.01 -25.99 -42.45 -25.04 -43.41 -24.57 -43.91 -23.67 -44.87 -23.21 -44.95 -21.91 -45.85 -21.39 -46.70 -20.82 -47.56 -20.26 -48.25 -19.54 -48.76 -18.65 -49.62 -18.09 -49.90 -16.98 -50.45 -16.12 -51.02 -15.29 -51.79 -14.64 -53.07 -14.49 -53.25 -13.28 -54.19 -12.80 -54.89 -12.09 -55.19 -10.99 -56.18 -10.55 -56.70 -9.67 -57.71 -9.26 -58.25 -8.39 -58.99 -7.72 -59.85 -7.17 -60.66 -6.57 -60.99 -5.49 -62.12 -5.20 -62.23 -3.92 -63.13 -3.40 -63.86 -2.72 -64.43 -1.88 -64.98 -1.01 -66.13 -0.76 -66.80 -0.02 -67.33 0.86 -68.40 1.20 -68.71 2.31 -69.92 2.51 -70.31 3.53 -71.04 4.21 -71.54 5.12 -72.49 5.58 -73.02 6.47 -73.98 6.91 -74.40 7.91 -75.28 8.44 -75.79 9.34 -76.37 10.18 -77.46 10.49 -78.18 11.17 -78.72 12.06 -79.36 12.82 -80.20 13.40 -81.07 13.93 -81 14 -81.87 14.60 -82.84 15.12 -83.42 16.06 -83.90 17.04 -83.99 18.18 -84.71 18.99 -85.02 19.99 -85 20 Z" transform="translate(-5,12) rotate(50)"></path><path fill="green" d="M-85 20C  -83.97 19.59 -82.93 20.10 -81.86 20.07 -80.82 19.83 -79.97 19.06 -80 19 -79.00 18.74 -78.06 18.29 -77.07 18.05 -76.07 17.79 -75.09 17.47 -74.24 16.86 -73.41 16.25 -72.24 16.20 -71.32 15.68 -70.76 14.70 -69.74 14.29 -70 14 -69.32 13.22 -68.36 12.85 -67.26 12.69 -66.78 11.62 -65.61 11.54 -65.06 10.58 -64.01 10.32 -63.23 9.68 -62.56 8.91 -61.83 8.21 -61.31 7.23 -60.48 6.67 -59.64 6.13 -58.44 6.04 -57.78 5.26 -57.00 4.62 -56.02 4.25 -55.54 3.24 -54.86 2.49 -54.00 1.97 -53.36 1.17 -52.66 0.45 -51.52 0.24 -50.88 -0.55 -50.14 -1.22 -49.72 -2.26 -48.73 -2.66 -47.89 -3.23 -47.19 -3.94 -46.44 -4.61 -45.42 -4.98 -44.88 -5.87 -45 -6 -44.57 -6.97 -43.36 -7.21 -42.76 -8.02 -42.58 -9.21 -41.66 -9.73 -41.28 -10.73 -40.14 -11.06 -39.68 -11.99 -39.11 -12.82 -38.18 -13.34 -37.79 -14.33 -37.38 -15.29 -36.07 -15.50 -35.85 -16.62 -35.26 -17.42 -34.41 -18.03 -33.54 -18.61 -33.53 -19.88 -32.85 -20.63 -31.88 -21.14 -31.46 -22.08 -31.21 -23.14 -30.18 -23.62 -29.61 -24.45 -28.70 -25.02 -28.27 -25.95 -27.82 -26.86 -27.54 -27.89 -26.60 -28.45 -25.92 -29.20 -25.80 -30.33 -24.66 -30.77 -25 -31 -23.98 -31.48 -23.47 -32.42 -23.24 -33.53 -22.61 -34.34 -21.69 -35.00 -21.85 -36.25 -20.85 -36.92 -20.52 -37.91 -20.81 -39.10 -20.44 -40.05 -20.36 -41.07 -20 -41 -20.32 -42.03 -20.27 -43.04 -20.52 -44.02 -20.68 -45.03 -20.95 -46.02 -21 -46 -22.11 -46.07 -22.92 -45.10 -23.77 -44.52 -24.92 -44.42 -25.43 -43.37 -26.51 -42.98 -27.30 -42.22 -27 -42 -28.00 -41.55 -28.25 -40.44 -29.24 -39.99 -29.41 -38.80 -30.48 -38.42 -30.95 -37.50 -31.91 -37.02 -32.49 -36.21 -33.15 -35.45 -33.90 -34.79 -34.48 -33.97 -34.68 -32.80 -35.63 -32.32 -36.15 -31.44 -37.01 -30.88 -37.92 -30.36 -38.55 -29.59 -39.36 -28.98 -40.11 -28.31 -40.34 -27.16 -40.90 -26.32 -41.78 -25.78 -42.74 -25.31 -42.99 -24.17 -43.76 -23.53 -44.58 -22.93 -45.02 -21.98 -45.55 -21.10 -46.62 -20.74 -47.09 -19.81 -48.23 -19.52 -48.60 -18.49 -49.24 -17.73 -50.02 -17.09 -50.77 -16.43 -51.56 -15.81 -51.79 -14.64 -53.07 -14.49 -53.11 -13.14 -53.82 -12.44 -54.85 -12.04 -55.32 -11.12 -56.41 -10.78 -56.66 -9.63 -57.34 -8.90 -58.36 -8.51 -59.30 -8.03 -59.62 -6.94 -60.44 -6.35 -61.20 -5.70 -61.46 -4.56 -62.69 -4.37 -63.46 -3.72 -64.18 -3.03 -64.61 -2.06 -65.42 -1.46 -65.88 -0.51 -66.49 0.30 -67.30 0.89 -68.22 1.39 -69.14 1.87 -69.30 3.13 -69.96 3.89 -70.77 4.48 -71.85 4.80 -72.44 5.63 -73.39 6.08 -73.59 7.31 -74.70 7.60 -74.99 8.74 -75.94 9.19 -76.35 10.20 -77.70 10.23 -77.87 11.49 -78.97 11.79 -79.78 12.39 -80.23 13.36 -81.34 13.65 -81 14 -82.03 14.39 -82.51 15.46 -83.15 16.29 -83.72 17.15 -84.55 17.89 -84.37 19.12 -84.57 20.12 -85 20 Z" transform="translate(-10,5) rotate(60)"></path><path fill="rgba(255,215,0,0.4)" d="M-85 20C  -83.96 19.25 -82.86 20.74 -81.82 20.28 -81.22 18.52 -79.99 19.03 -80 19 -78.96 18.93 -77.86 19.06 -76.90 18.57 -76.29 17.22 -75.39 16.80 -74.37 16.61 -73.14 16.74 -72.78 15.35 -71.21 15.84 -70.98 14.42 -70.30 13.66 -70 14 -69.19 13.40 -68.71 12.34 -67.91 11.75 -66.56 11.93 -66.25 10.64 -64.92 10.78 -64.13 10.15 -62.92 10.11 -62.23 9.35 -61.48 8.67 -60.53 8.26 -60.80 6.26 -59.35 6.50 -58.90 5.45 -58.36 4.52 -56.73 4.97 -56.49 3.66 -56.12 2.53 -54.17 3.33 -53.79 2.21 -53.08 1.50 -51.82 1.44 -52.17 -0.52 -51.45 -1.22 -49.90 -0.95 -49.44 -1.95 -48.62 -2.53 -48.47 -3.87 -46.65 -3.35 -45.89 -4.01 -45.33 -4.88 -45.13 -6.14 -45 -6 -44.67 -7.06 -43.84 -7.65 -43.35 -8.57 -43.02 -9.62 -40.87 -9.02 -40.98 -10.47 -39.79 -10.75 -40.37 -12.59 -38.96 -12.69 -38.09 -13.27 -37.83 -14.36 -36.29 -14.38 -35.86 -15.32 -35.28 -16.15 -35.56 -17.67 -35.05 -18.54 -33.79 -18.82 -32.98 -19.45 -32.75 -20.54 -32.41 -21.55 -32.08 -22.56 -30.47 -22.58 -29.85 -23.37 -30.25 -24.92 -28.31 -24.73 -28.70 -26.26 -27.09 -26.34 -27.65 -27.97 -27.31 -28.95 -26.69 -29.74 -25.28 -29.97 -25.77 -31.52 -25 -31 -24.49 -31.93 -23.93 -32.78 -23.41 -33.65 -22.04 -33.98 -21.48 -34.88 -22.35 -36.50 -21.70 -37.29 -21.06 -38.12 -19.86 -38.80 -20.41 -40.04 -20.50 -41.10 -20 -41 -19.79 -42.03 -19.10 -43.15 -20.21 -44.08 -21.12 -44.89 -20.19 -46.35 -21 -46 -21.86 -45.04 -23.18 -45.80 -23.76 -44.50 -24.42 -43.68 -26.23 -44.31 -26.29 -42.77 -26.79 -41.85 -27 -42 -28.18 -41.72 -27.68 -39.93 -29.39 -40.12 -30.19 -39.50 -29.90 -37.90 -30.46 -37.06 -32.09 -37.19 -33.04 -36.70 -33.26 -35.55 -33.15 -34.11 -34.34 -33.84 -35.62 -33.66 -35.33 -32.04 -36.61 -31.86 -36.65 -30.55 -37.14 -29.64 -38.15 -29.21 -39.69 -29.28 -39.33 -27.58 -40.21 -27.04 -41.24 -26.63 -41.39 -25.42 -42.51 -25.09 -43.09 -24.27 -44.28 -24.02 -45.07 -23.39 -45.21 -22.15 -46.12 -21.64 -46.09 -20.24 -46.91 -19.65 -47.59 -18.91 -49.33 -19.18 -49.24 -17.73 -49.80 -16.88 -51.24 -16.88 -51.01 -15.28 -52.16 -14.99 -52.69 -14.12 -53.88 -13.88 -54.66 -13.26 -55.38 -12.56 -55.88 -11.66 -55.62 -10.01 -56.62 -9.59 -57.79 -9.34 -58.39 -8.54 -58.78 -7.51 -60.07 -7.39 -61.00 -6.90 -61.01 -5.52 -61.47 -4.56 -62.98 -4.66 -62.58 -2.86 -63.43 -2.29 -64.04 -1.49 -65.86 -1.90 -65.75 -0.38 -66.24 0.55 -68.03 0.16 -68.32 1.29 -68.64 2.38 -70.08 2.34 -69.82 4.02 -70.61 4.65 -72.17 4.48 -72.38 5.69 -73.35 6.13 -73.65 7.25 -74.15 8.17 -75.83 7.87 -75.78 9.35 -76.85 9.68 -77.25 10.70 -77.54 11.84 -79.14 11.62 -80.21 11.94 -79.91 13.70 -80.78 14.23 -81 14 -82.36 13.97 -82.78 15.18 -83.87 15.69 -83.11 17.56 -84.97 17.67 -84.65 19.01 -84.66 20.10 -85 20 Z" stroke="rgba(255,215,0,0.7)" stroke-width="0.75px" transform="translate(-10,5) rotate(60)"></path><path fill="rgba(0,0,0,0.18)" d="M-28 -20C  -27.00 -19.84 -26.00 -20.34 -25.00 -20.30 -24.00 -19.76 -23.00 -19.68 -23 -20 -24.23 -20.13 -24.12 -21.61 -24.88 -22.25 -24.53 -23.47 -25.20 -24.21 -25.51 -25.12 -25.59 -26.09 -25.80 -27.13 -25.78 -28.22 -24.42 -28.77 -24.19 -29.75 -23.26 -30.24 -23.21 -31.64 -21.71 -31.31 -21.22 -32.50 -21 -32 -22.00 -32.00 -23.00 -32.00 -24.00 -32.00 -25.00 -32.00 -26.00 -32.00 -27.00 -32.00 -28.00 -32.00 -29.00 -32.00 -30.00 -32.00 -31.00 -32.00 -31 -32 -31.71 -31.29 -32.43 -30.57 -33.14 -29.86 -33.86 -29.14 -34.57 -28.43 -35.29 -27.71 -36.00 -27.00 -36 -27 Z" transform="translate(17,-7) rotate(10)"></path><path fill="rgba(0,0,0,0.18)" d="M-85 20C  -83.97 19.57 -82.91 20.22 -81.96 19.58 -80.81 19.84 -80.00 19.01 -80 19 -79.01 18.68 -77.96 18.67 -77.14 17.82 -76.22 17.41 -75.28 17.04 -74.24 16.86 -73.12 16.77 -72.45 15.87 -71.82 14.98 -70.77 14.69 -70.25 13.71 -70 14 -69.07 13.59 -68.39 12.81 -67.70 12.04 -66.87 11.49 -65.69 11.43 -65.30 10.25 -64.07 10.23 -63.69 9.06 -62.85 8.51 -61.65 8.45 -61.02 7.61 -60.36 6.83 -59.47 6.35 -58.86 5.50 -57.80 5.22 -57.27 4.28 -56.50 3.64 -55.24 3.61 -54.57 2.84 -53.78 2.22 -53.45 1.06 -52.30 0.88 -51.98 -0.30 -50.68 -0.32 -50.19 -1.29 -49.13 -1.60 -48.78 -2.72 -47.73 -3.05 -47.25 -4.00 -46.80 -5.00 -45.91 -5.51 -44.69 -5.67 -45 -6 -44.05 -6.49 -43.54 -7.38 -42.87 -8.12 -42.53 -9.17 -41.42 -9.52 -40.75 -10.26 -40.39 -11.28 -39.45 -11.79 -39.20 -12.90 -38.49 -13.60 -37.86 -14.38 -36.88 -14.87 -36.68 -16.01 -35.71 -16.50 -35.29 -17.45 -34.34 -17.97 -33.78 -18.81 -32.93 -19.41 -32.74 -20.54 -31.79 -21.07 -31.26 -21.93 -30.85 -22.87 -30.52 -23.88 -29.73 -24.53 -28.81 -25.10 -28.24 -25.93 -28.05 -27.03 -27.20 -27.65 -26.68 -28.51 -26.42 -29.55 -25.61 -30.20 -24.96 -30.98 -25 -31 -24.34 -31.79 -23.70 -32.60 -22.98 -33.35 -22.73 -34.42 -21.91 -35.12 -21.30 -35.98 -21.18 -37.07 -20.35 -37.85 -20.39 -38.97 -20.51 -40.07 -20.20 -41.04 -20 -41 -19.84 -42.03 -19.59 -43.10 -20.30 -44.06 -20.38 -45.12 -21.45 -45.81 -21 -46 -22.08 -45.97 -22.94 -45.16 -23.90 -44.77 -25.02 -44.58 -25.79 -43.79 -26.32 -42.80 -27.37 -42.27 -27 -42 -27.96 -41.52 -28.18 -40.38 -28.71 -39.51 -30.03 -39.36 -30.43 -38.38 -30.98 -37.53 -31.84 -36.96 -32.33 -36.06 -32.71 -35.06 -33.57 -34.49 -34.67 -34.15 -35.30 -33.37 -35.84 -32.51 -36.20 -31.49 -37.32 -31.16 -37.52 -29.99 -38.41 -29.45 -39.32 -28.94 -39.39 -27.64 -40.52 -27.33 -41.11 -26.52 -41.50 -25.52 -42.50 -25.08 -42.97 -24.16 -44.18 -23.92 -44.77 -23.11 -45.13 -22.07 -45.58 -21.13 -46.89 -20.99 -47.22 -19.94 -47.75 -19.07 -48.49 -18.39 -49.05 -17.55 -49.97 -17.04 -50.35 -16.03 -51.27 -15.52 -51.73 -14.59 -52.67 -14.10 -53.11 -13.15 -54.13 -12.74 -55.14 -12.33 -55.18 -10.98 -56.56 -10.93 -56.87 -9.84 -57.97 -9.52 -58.15 -8.30 -59.34 -8.07 -59.61 -6.94 -60.54 -6.45 -61.06 -5.56 -62.04 -5.13 -62.65 -4.33 -63.52 -3.79 -63.83 -2.69 -64.64 -2.09 -65.45 -1.48 -65.95 -0.58 -66.90 -0.12 -67.28 0.92 -68.19 1.42 -68.51 2.51 -69.28 3.15 -70.08 3.76 -70.71 4.54 -71.97 4.68 -72.11 5.97 -72.90 6.58 -73.67 7.23 -74.53 7.77 -75.55 8.15 -75.94 9.19 -76.73 9.81 -77.32 10.63 -78.27 11.09 -78.73 12.05 -79.85 12.32 -80.54 13.04 -81.34 13.65 -81 14 -82.08 14.33 -82.64 15.33 -83.58 15.93 -84.22 16.82 -84.37 17.99 -84.98 18.88 -84.79 20.06 -85 20 Z" transform="translate(13,6) rotate(30) scale(1,0.6)"></path><path fill="green" d="M-85 20C  -83.97 20.13 -82.92 20.20 -81.96 19.55 -80.95 19.41 -79.96 19.09 -80 19 -79.02 18.64 -78.03 18.39 -77.16 17.75 -76.07 17.80 -74.98 17.73 -74.14 17.08 -73.12 16.78 -72.58 15.67 -71.67 15.19 -71.08 14.29 -70.24 13.73 -70 14 -69.16 13.46 -68.24 13.02 -67.34 12.56 -66.81 11.57 -66.05 10.92 -64.96 10.72 -64.01 10.31 -63.63 9.14 -62.79 8.60 -62.10 7.85 -61.25 7.31 -60.52 6.62 -59.58 6.20 -58.81 5.57 -57.91 5.09 -56.91 4.74 -56.53 3.61 -55.40 3.41 -54.81 2.55 -54.21 1.71 -53.23 1.33 -52.50 0.63 -51.50 0.27 -51.00 -0.69 -49.88 -0.93 -49.69 -2.23 -48.92 -2.88 -47.96 -3.30 -47.39 -4.16 -46.29 -4.44 -45.99 -5.59 -44.69 -5.67 -45 -6 -44.59 -6.99 -43.67 -7.50 -42.77 -8.03 -42.25 -8.92 -41.52 -9.61 -40.62 -10.14 -40.53 -11.40 -39.60 -11.92 -39.16 -12.86 -38.19 -13.35 -37.73 -14.28 -37.10 -15.05 -36.02 -15.45 -35.83 -16.60 -35.12 -17.32 -34.78 -18.32 -34.03 -19.00 -33.28 -19.69 -32.54 -20.38 -32.24 -21.41 -31.34 -21.99 -30.97 -22.96 -29.85 -23.38 -29.85 -24.62 -29.15 -25.35 -28.48 -26.10 -27.58 -26.69 -27.44 -27.82 -26.48 -28.37 -25.92 -29.20 -25.80 -30.33 -25.08 -31.06 -25 -31 -24.18 -31.65 -23.33 -32.30 -23.46 -33.69 -22.88 -34.51 -21.61 -34.95 -21.83 -36.24 -21.53 -37.22 -20.73 -37.99 -20.72 -39.08 -20.65 -40.11 -20.32 -41.07 -20 -41 -19.50 -42.03 -20.26 -43.04 -19.83 -44.16 -20.78 -45.00 -21.19 -45.92 -21 -46 -21.93 -45.35 -22.90 -45.05 -24.19 -45.35 -24.92 -44.42 -25.91 -43.93 -26.49 -42.96 -27.02 -42.01 -27 -42 -27.44 -41.05 -28.57 -40.72 -29.29 -40.03 -29.34 -38.74 -30.10 -38.08 -31.29 -37.81 -31.56 -36.71 -32.04 -35.80 -32.83 -35.17 -33.72 -34.63 -34.61 -34.09 -34.79 -32.90 -35.72 -32.40 -36.33 -31.61 -37.28 -31.13 -37.60 -30.06 -38.21 -29.27 -38.80 -28.46 -39.99 -28.19 -40.42 -27.23 -41.26 -26.65 -41.42 -25.44 -42.66 -25.23 -43.11 -24.29 -43.90 -23.66 -44.24 -22.61 -45.38 -22.31 -45.77 -21.31 -46.45 -20.58 -47.31 -20.02 -47.59 -18.91 -48.90 -18.78 -49.63 -18.10 -49.85 -16.93 -50.67 -16.33 -51.32 -15.57 -51.83 -14.68 -53.07 -14.49 -53.66 -13.67 -53.87 -12.49 -54.61 -11.82 -55.67 -11.46 -55.94 -10.33 -57.09 -10.05 -57.80 -9.35 -58.66 -8.80 -59.15 -7.88 -59.90 -7.22 -60.35 -6.27 -60.77 -5.28 -61.91 -5.00 -62.61 -4.29 -63.05 -3.32 -63.79 -2.65 -64.44 -1.89 -65.05 -1.09 -66.04 -0.66 -66.41 0.37 -67.36 0.83 -68.11 1.50 -68.76 2.26 -69.50 2.92 -70.44 3.40 -70.85 4.40 -71.38 5.29 -72.51 5.56 -73.25 6.23 -73.53 7.37 -74.42 7.89 -75.36 8.35 -75.94 9.19 -76.90 9.63 -77.55 10.40 -78.08 11.28 -78.92 11.84 -79.82 12.35 -79.94 13.67 -80.66 14.35 -81 14 -82.00 14.43 -82.27 15.71 -83.11 16.31 -83.90 17.04 -84.22 18.06 -84.58 19.04 -84.77 20.06 -85 20 Z" transform="translate(5,15) rotate(50)"></path><path fill="rgba(255,215,0,0.4)" d="M-85 20C  -83.97 19.83 -82.98 19.48 -81.96 19.57 -80.85 19.73 -79.94 19.13 -80 19 -79.03 18.61 -77.89 18.91 -77.03 18.15 -75.78 18.57 -75.12 17.41 -74.56 16.23 -72.98 17.02 -72.23 16.22 -71.87 14.91 -70.56 14.95 -70.25 13.72 -70 14 -69.29 13.26 -68.29 12.96 -67.70 12.04 -67.03 11.26 -65.98 11.01 -64.85 10.87 -64.57 9.55 -63.96 8.69 -62.81 8.56 -62.20 7.71 -61.28 7.28 -60.17 7.08 -59.27 6.60 -59.00 5.32 -57.45 5.68 -56.60 5.13 -55.80 4.52 -56.09 2.56 -54.92 2.42 -54.50 1.36 -52.65 2.01 -52.23 0.96 -51.09 0.75 -51.57 -1.35 -49.91 -0.97 -49.59 -2.12 -48.18 -2.04 -47.55 -2.84 -46.70 -3.41 -46.05 -4.18 -46.06 -5.67 -45.50 -6.53 -45 -6 -44.85 -7.23 -42.97 -6.85 -43.15 -8.38 -41.87 -8.57 -42.10 -10.13 -40.39 -9.94 -40.21 -11.12 -40.08 -12.34 -38.92 -12.65 -37.87 -13.07 -37.98 -14.48 -36.92 -14.91 -36.42 -15.79 -36.01 -16.75 -34.60 -16.89 -34.11 -17.78 -34.22 -19.15 -33.56 -19.91 -32.79 -20.58 -32.49 -21.61 -31.64 -22.22 -30.48 -22.60 -30.66 -23.98 -29.29 -24.21 -28.70 -25.02 -28.21 -25.90 -27.70 -26.77 -27.23 -27.67 -26.80 -28.59 -25.81 -29.13 -26.13 -30.56 -24.89 -30.92 -25 -31 -24.08 -31.56 -23.99 -32.83 -22.74 -33.17 -23.20 -34.71 -21.83 -35.07 -22.05 -36.35 -20.26 -36.66 -20.63 -37.95 -19.53 -38.69 -20.42 -40.05 -20.96 -41.20 -20 -41 -19.52 -42.03 -19.60 -43.10 -19.47 -44.23 -20.69 -45.02 -21.67 -45.71 -21 -46 -21.86 -45.03 -23.08 -45.53 -24.23 -45.43 -24.92 -44.43 -25.15 -43.04 -25.83 -42.35 -27.27 -42.19 -27 -42 -28.26 -41.79 -28.90 -41.02 -28.47 -39.30 -30.27 -39.57 -30.62 -38.55 -30.90 -37.46 -31.87 -36.99 -32.01 -35.77 -33.15 -35.46 -33.08 -34.04 -34.51 -34.00 -34.90 -33.00 -35.89 -32.56 -35.93 -31.24 -36.42 -30.34 -37.29 -29.78 -37.71 -28.81 -38.95 -28.59 -39.48 -27.72 -41.13 -27.89 -40.75 -26.18 -41.53 -25.55 -41.84 -24.47 -43.23 -24.40 -44.22 -23.96 -44.62 -22.97 -45.69 -22.61 -46.53 -22.02 -47.13 -21.22 -47.17 -19.89 -48.31 -19.60 -48.02 -17.95 -49.57 -18.04 -50.67 -17.71 -51.29 -16.93 -51.09 -15.36 -51.47 -14.34 -52.72 -14.15 -53.28 -13.31 -53.69 -12.31 -54.22 -11.44 -56.11 -11.88 -56.30 -10.68 -57.03 -9.99 -58.27 -9.81 -57.73 -7.89 -59.20 -7.93 -59.92 -7.24 -59.73 -5.66 -61.54 -6.04 -61.42 -4.52 -62.50 -4.18 -63.01 -3.28 -63.43 -2.29 -64.50 -1.95 -65.40 -1.43 -66.27 -0.90 -67.28 -0.50 -67.65 0.54 -67.66 1.95 -69.18 1.84 -69.21 3.23 -70.20 3.64 -70.95 4.30 -71.47 5.19 -72.97 5.09 -73.27 6.21 -73.68 7.22 -74.35 7.96 -75.89 7.81 -75.69 9.44 -76.65 9.88 -77.64 10.30 -78.37 10.98 -78.82 11.95 -79.26 12.94 -79.93 13.67 -81.28 13.71 -81 14 -81.69 14.83 -82.99 14.97 -82.86 16.53 -83.73 17.14 -84.46 17.94 -85.27 18.77 -85.79 19.78 -85 20 Z" stroke="rgba(255,215,0,0.7)" stroke-width="0.75px" transform="translate(5,15) rotate(50)"></path><path fill="rgba(0,0,0,0.18)" d="M-85 20C  -83.97 20.37 -82.95 19.80 -81.85 20.14 -80.83 19.79 -80.03 18.92 -80 19 -78.98 18.85 -78.00 18.50 -76.91 18.53 -75.91 18.23 -74.97 17.75 -74.04 17.26 -73.44 16.20 -72.61 15.62 -71.84 14.96 -70.80 14.64 -69.77 14.26 -70 14 -69.21 13.33 -68.01 13.50 -67.14 12.99 -66.37 12.26 -65.41 11.93 -64.66 11.19 -63.59 11.07 -62.78 10.45 -61.80 10.15 -60.88 9.73 -59.91 9.40 -59.14 8.72 -58.24 8.27 -57.52 7.48 -56.80 6.71 -55.93 6.21 -54.81 6.15 -53.91 5.70 -52.93 5.38 -52.21 4.62 -51.30 4.17 -50.71 3.20 -49.55 3.18 -48.75 2.54 -47.95 1.93 -47.01 1.53 -46.41 0.61 -45.28 0.49 -44.48 -0.12 -43.50 -0.47 -43.08 -1.64 -42.38 -2.40 -41.51 -2.90 -40.42 -3.10 -39.37 -3.35 -38.75 -4.23 -37.77 -4.58 -37.46 -5.86 -36.51 -6.27 -35.34 -6.39 -34.94 -7.52 -33.90 -7.82 -33.30 -8.69 -32.41 -9.18 -31.59 -9.77 -30.99 -10.63 -30.22 -11.27 -30 -11 -30.62 -11.77 -30.76 -12.83 -31.98 -13.35 -32.35 -14.34 -32.25 -15.44 -32.62 -16.46 -31.95 -17.48 -31.62 -18.44 -30.55 -19.11 -31.10 -20.40 -30.09 -20.96 -29.45 -21.70 -29.25 -22.93 -27.93 -22.90 -28 -23 -29.00 -22.91 -30.00 -22.96 -31.00 -23.13 -32.00 -22.51 -33.00 -22.92 -33 -23 Z" transform="translate(17,-7) rotate(10)"></path><path fill="green" d="M-85 20C  -83.97 19.84 -82.99 19.42 -81.88 19.96 -81.02 19.19 -80.19 18.55 -80 19 -78.95 19.00 -78.11 18.09 -76.95 18.42 -76.02 17.94 -74.95 17.79 -74.33 16.68 -73.29 16.47 -72.45 15.88 -71.32 15.68 -70.97 14.43 -69.87 14.14 -70 14 -69.09 13.56 -68.61 12.48 -67.58 12.21 -66.75 11.66 -66.13 10.80 -64.97 10.70 -64.48 9.67 -63.60 9.19 -62.69 8.74 -62.05 7.91 -61.19 7.39 -60.33 6.88 -59.56 6.23 -58.45 6.03 -58.17 4.77 -56.96 4.67 -56.11 4.13 -55.30 3.54 -54.74 2.64 -54.11 1.83 -53.05 1.53 -52.23 0.96 -51.79 -0.07 -50.68 -0.32 -50.27 -1.38 -49.50 -2.02 -48.66 -2.58 -48.23 -3.60 -47.28 -4.04 -46.75 -4.94 -45.60 -5.18 -44.98 -5.97 -45 -6 -44.13 -6.55 -43.32 -7.17 -42.85 -8.11 -42.11 -8.79 -41.91 -9.95 -40.60 -10.13 -40.54 -11.41 -39.61 -11.92 -39.23 -12.93 -38.11 -13.28 -37.76 -14.30 -37.32 -15.24 -36.01 -15.45 -35.95 -16.70 -35.48 -17.61 -34.80 -18.34 -33.95 -18.94 -32.91 -19.40 -32.58 -20.41 -32.22 -21.40 -31.31 -21.96 -31.18 -23.12 -30.08 -23.55 -29.79 -24.58 -29.05 -25.28 -28.51 -26.12 -28.26 -27.18 -27.29 -27.71 -26.82 -28.60 -26.18 -29.38 -25.76 -30.30 -24.94 -30.96 -25 -31 -24.04 -31.53 -23.36 -32.33 -23.02 -33.38 -22.87 -34.51 -22.21 -35.29 -21.56 -36.10 -21.22 -37.08 -20.60 -37.95 -20.36 -38.96 -20.57 -40.09 -20.19 -41.04 -20 -41 -19.63 -42.03 -20.40 -43.03 -20.44 -44.04 -20.29 -45.15 -21.46 -45.80 -21 -46 -22.00 -45.62 -23.19 -45.83 -23.81 -44.60 -24.75 -44.17 -25.66 -43.64 -26.37 -42.85 -26.89 -41.92 -27 -42 -27.64 -41.24 -28.58 -40.74 -29.28 -40.03 -29.64 -39.01 -30.59 -38.52 -31.30 -37.81 -31.93 -37.04 -32.06 -35.82 -33.36 -35.65 -33.44 -34.37 -34.07 -33.59 -35.37 -33.43 -35.82 -32.49 -36.29 -31.57 -37.01 -30.87 -37.91 -30.35 -38.51 -29.54 -38.92 -28.56 -40.11 -28.31 -40.78 -27.57 -41.31 -26.70 -41.54 -25.56 -42.22 -24.83 -43.13 -24.30 -43.96 -23.71 -44.29 -22.66 -44.91 -21.88 -45.80 -21.34 -46.54 -20.67 -47.49 -20.20 -48.11 -19.40 -48.98 -18.86 -49.63 -18.09 -50.26 -17.32 -50.77 -16.43 -51.70 -15.94 -51.79 -14.64 -52.96 -14.38 -53.67 -13.68 -54.17 -12.77 -54.74 -11.94 -55.29 -11.08 -55.88 -10.27 -57.18 -10.14 -57.37 -8.93 -58.28 -8.42 -58.98 -7.72 -59.99 -7.31 -60.74 -6.65 -61.19 -5.69 -61.84 -4.93 -62.34 -4.02 -63.16 -3.43 -64.19 -3.04 -64.84 -2.29 -65.11 -1.15 -66.32 -0.95 -66.66 0.12 -67.27 0.92 -68.06 1.55 -68.83 2.18 -69.59 2.84 -70.44 3.40 -71.11 4.14 -71.44 5.23 -72.24 5.84 -72.78 6.71 -73.70 7.20 -74.75 7.55 -75.46 8.25 -76.27 8.85 -76.81 9.72 -77.16 10.80 -78.40 10.95 -78.73 12.05 -79.77 12.41 -80.27 13.32 -80.86 14.15 -81 14 -81.52 15.04 -82.39 15.58 -83.51 15.99 -83.99 16.97 -84.54 17.90 -84.67 19.01 -85.16 19.96 -85 20 Z" transform="translate(17,-7) rotate(10)"></path><path fill="rgba(255,215,0,0.4)" d="M-85 20C  -83.98 20.84 -82.90 20.38 -81.81 20.34 -80.95 19.41 -80.14 18.68 -80 19 -78.90 19.22 -77.96 18.65 -77.20 17.65 -75.99 18.01 -75.11 17.44 -73.74 17.86 -73.14 16.73 -72.66 15.53 -71.09 16.00 -70.81 14.63 -69.71 14.33 -70 14 -69.70 12.66 -68.26 13.00 -67.27 12.66 -66.60 11.87 -65.70 11.41 -65.44 10.05 -64.06 10.25 -63.99 8.64 -62.98 8.34 -62.24 7.66 -60.70 8.05 -59.94 7.38 -59.47 6.35 -58.57 5.88 -57.49 5.62 -57.32 4.23 -56.63 3.49 -55.50 3.29 -54.34 3.12 -54.46 1.41 -53.51 0.99 -52.51 0.62 -51.97 -0.28 -51.43 -1.19 -49.70 -0.72 -49.13 -1.60 -48.17 -2.03 -48.28 -3.65 -47.51 -4.30 -46.86 -5.07 -45.10 -4.63 -45.26 -6.28 -45 -6 -43.61 -6.07 -44.07 -7.87 -42.42 -7.71 -41.60 -8.33 -41.27 -9.38 -40.43 -9.98 -39.63 -10.61 -40.10 -12.36 -38.30 -12.12 -38.80 -13.87 -37.15 -13.78 -36.72 -14.74 -35.89 -15.35 -36.03 -16.76 -34.70 -16.97 -34.83 -18.37 -34.55 -19.42 -33.23 -19.65 -32.46 -20.32 -32.81 -21.86 -30.82 -21.59 -31.45 -23.33 -29.48 -23.10 -29.81 -24.59 -29.27 -25.44 -28.32 -25.98 -27.43 -26.58 -27.51 -27.87 -26.78 -28.58 -25.77 -29.09 -25.69 -30.26 -25.78 -31.53 -25 -31 -24.52 -31.95 -23.54 -32.47 -22.30 -32.86 -22.89 -34.52 -21.98 -35.16 -20.93 -35.79 -20.51 -36.77 -19.93 -37.69 -20.23 -38.92 -20.03 -39.94 -19.33 -40.86 -20 -41 -20.95 -42.04 -20.14 -43.05 -21.07 -43.91 -20.58 -45.06 -21.44 -45.81 -21 -46 -22.18 -46.38 -23.30 -46.14 -24.14 -45.25 -24.73 -44.14 -25.11 -42.99 -26.82 -43.27 -27.44 -42.32 -27 -42 -26.96 -40.63 -28.54 -40.70 -28.69 -39.50 -29.67 -39.04 -30.04 -38.02 -30.98 -37.53 -31.07 -36.27 -33.00 -36.67 -33.23 -35.53 -32.96 -33.94 -34.84 -34.30 -35.22 -33.29 -34.97 -31.71 -35.77 -31.09 -37.15 -31.01 -37.28 -29.77 -38.54 -29.57 -39.74 -29.33 -39.02 -27.30 -40.60 -27.40 -41.38 -26.76 -41.87 -25.86 -42.82 -25.38 -43.84 -24.97 -44.55 -24.27 -45.07 -23.39 -45.68 -22.59 -45.75 -21.29 -46.04 -20.19 -46.73 -19.47 -47.80 -19.12 -48.80 -18.68 -49.11 -17.61 -49.80 -16.88 -50.90 -16.56 -51.06 -15.33 -52.14 -14.98 -53.14 -14.56 -52.76 -12.80 -54.06 -12.68 -54.66 -11.86 -55.77 -11.55 -56.94 -11.29 -56.51 -9.49 -58.06 -9.60 -58.40 -8.54 -59.62 -8.35 -59.09 -6.42 -59.96 -5.88 -60.54 -5.05 -61.15 -4.25 -61.86 -3.55 -63.78 -4.04 -63.97 -2.83 -64.64 -2.09 -65.49 -1.52 -65.90 -0.52 -66.95 -0.16 -67.31 0.89 -67.58 2.03 -69.56 1.45 -69.89 2.54 -70.38 3.46 -71.01 4.24 -72.21 4.44 -72.44 5.63 -72.93 6.55 -73.96 6.93 -74.52 7.79 -74.75 8.98 -76.47 8.64 -76.57 9.97 -76.80 11.16 -78.09 11.27 -79.50 11.25 -79.78 12.39 -80.55 13.03 -80.78 14.23 -81 14 -82.37 13.96 -82.61 15.36 -83.96 15.61 -83.77 17.12 -83.79 18.29 -84.09 19.23 -85.40 19.89 -85 20 Z" stroke="rgba(255,215,0,0.7)" stroke-width="0.75px" transform="translate(17,-7) rotate(10)"></path><g transform="translate(-50,0)"><path fill="#e74c3c" d="M140 -60C  140.43 -60.89 140.84 -61.80 141.23 -62.71 141.60 -63.63 141.96 -64.55 142.29 -65.49 142.61 -66.43 142.91 -67.37 143.19 -68.32 143.45 -69.28 143.69 -70.24 143.92 -71.21 144.12 -72.18 144.31 -73.15 144.47 -74.13 144.62 -75.11 144.74 -76.09 144.85 -77.08 144.94 -78.07 145.01 -79.05 145.05 -80.04 145.08 -81.04 145.09 -82.03 145.08 -83.02 145.05 -84.01 145.00 -85.00 145 -85 144.96 -85.99 144.84 -86.98 144.63 -87.95 144.35 -88.90 143.99 -89.82 143.55 -90.71 143.05 -91.56 142.47 -92.37 141.83 -93.13 141.13 -93.83 140.37 -94.47 139.56 -95.05 138.71 -95.55 137.82 -95.99 136.90 -96.35 135.95 -96.63 134.98 -96.84 133.99 -96.96 133.00 -97.00 133 -97 132.18 -96.50 131.50 -95.82 131.00 -95.00 131 -95 130.99 -93.99 130.98 -92.97 130.99 -91.96 131.00 -90.95 131.03 -89.94 131.07 -88.92 131.11 -87.91 131.17 -86.90 131.24 -85.89 131.32 -84.88 131.40 -83.87 131.50 -82.87 131.61 -81.86 131.73 -80.85 131.86 -79.85 132.00 -78.84 132.15 -77.84 132.31 -76.84 132.48 -75.84 132.65 -74.85 132.84 -73.85 133.04 -72.86 133.25 -71.87 133.47 -70.88 133.70 -69.89 133.94 -68.91 134.19 -67.93 134.45 -66.95 134.72 -65.97 135.00 -65.00 135 -65 Z"></path><path fill="#ec7063" d="M140 -60C  140.66 -60.75 141.31 -61.51 141.94 -62.29 142.56 -63.08 143.16 -63.88 143.74 -64.69 144.31 -65.52 144.86 -66.36 145.40 -67.20 145.91 -68.06 146.41 -68.93 146.90 -69.80 147.36 -70.69 147.81 -71.59 148.24 -72.49 148.65 -73.40 149.04 -74.33 149.41 -75.25 149.77 -76.19 150.11 -77.13 150.42 -78.08 150.72 -79.04 151.00 -80.00 151 -80 151.35 -80.95 151.62 -81.93 151.81 -82.93 151.91 -83.94 151.93 -84.95 151.86 -85.97 151.71 -86.97 151.47 -87.96 151.15 -88.92 150.75 -89.85 150.27 -90.75 149.72 -91.60 149.09 -92.40 148.41 -93.15 147.66 -93.83 146.85 -94.45 146.00 -95.00 146 -95 145.09 -94.78 144.26 -94.36 143.55 -93.75 143.00 -93.00 143 -93 142.54 -92.10 142.09 -91.20 141.65 -90.29 141.22 -89.37 140.81 -88.45 140.41 -87.52 140.03 -86.59 139.66 -85.65 139.30 -84.70 138.96 -83.75 138.63 -82.80 138.31 -81.84 138.01 -80.88 137.72 -79.91 137.45 -78.94 137.19 -77.96 136.94 -76.98 136.71 -76.00 136.49 -75.01 136.29 -74.02 136.10 -73.03 135.92 -72.04 135.76 -71.04 135.62 -70.04 135.49 -69.04 135.37 -68.04 135.27 -67.03 135.18 -66.02 135.10 -65.02 135.04 -64.01 135.00 -63.00 135 -63 Z"></path><path fill="#dc7633" d="M125 -43C  125.80 -43.59 126.60 -44.19 127.38 -44.80 128.14 -45.43 128.90 -46.08 129.64 -46.74 130.37 -47.42 131.08 -48.11 131.79 -48.82 132.47 -49.54 133.15 -50.27 133.80 -51.01 134.45 -51.77 135.07 -52.54 135.69 -53.33 136.28 -54.12 136.86 -54.93 137.43 -55.75 137.98 -56.58 138.51 -57.42 139.02 -58.27 139.52 -59.13 140.00 -60.00 140 -60 139.66 -60.94 139.23 -61.85 138.71 -62.71 138.11 -63.51 137.43 -64.25 136.68 -64.91 135.87 -65.50 135.00 -66.00 135 -66 134.15 -65.50 133.32 -64.99 132.49 -64.46 131.67 -63.92 130.87 -63.36 130.07 -62.78 129.29 -62.19 128.52 -61.58 127.76 -60.96 127.01 -60.32 126.27 -59.67 125.55 -59.01 124.84 -58.33 124.15 -57.63 123.47 -56.93 122.80 -56.21 122.15 -55.47 121.51 -54.73 120.89 -53.97 120.28 -53.20 119.69 -52.41 119.11 -51.62 118.55 -50.82 118.00 -50.00 118 -50 Z"></path><path fill="rgba(0,0,0,0.18)" d="M0 0C  0.53 0.89 2.37 0.53 3.24 1.08 2.21 3.49 3.72 3.42 3.38 5.18 4.81 5.19 5.30 6.13 5.94 6.93 7.25 7.03 8.03 7.68 7.32 9.87 8.86 9.73 8.73 11.34 10 10 11.00 10.14 11.93 11.98 12.96 11.52 13.95 12.10 15.01 9.82 15.99 10.86 16.99 10.71 18.00 10.23 19.00 9.36 20.00 10.40 21.00 10.17 22.00 9.48 23.00 9.80 24.01 10.48 24.99 9.71 26.02 10.88 27.02 10.80 27.98 9.48 29.04 11.33 30.07 11.95 30 10 31.15 11.17 31.87 8.90 32.79 8.30 33.83 8.61 34.84 8.69 35.77 8.19 37.13 10.36 37.71 7.82 38.68 7.58 39.94 8.99 40.57 6.92 42.14 9.80 42.46 6.35 43.43 6.15 44.93 8.42 45.28 5.37 46.35 5.64 47.96 8.13 48.62 6.61 49.64 6.57 50.77 6.95 51.06 4.17 52.28 4.87 53.39 5.16 54.25 4.55 55.54 5.43 56.21 4.16 56.90 3.04 58.68 5.39 59.43 4.42 59.90 2.65 61.59 4.54 61.67 1.70 63.05 2.63 63.64 1.33 64.80 1.59 65.56 0.79 67.20 2.29 67.47 0.22 68.07 -0.95 69.83 0.75 70.75 0.35 70.82 -2.07 72.35 -1.02 72.80 -2.47 74.57 -0.95 74.21 -4.18 75.57 -3.58 77.47 -1.88 77.99 -3.13 78.46 -4.45 79.24 -5.11 79.42 -6.96 81.91 -4.27 82.88 -4.59 82.91 -6.69 83.20 -8.24 83.74 -9.33 84.70 -9.62 87.39 -6.85 86.86 -9.82 89.03 -8.06 88.42 -11.06 89.28 -11.55 89.84 -12.54 91.67 -11.44 92.15 -12.57 92.45 -13.94 94.25 -12.98 95.65 -12.66 96.64 -12.99 97.60 -13.37 96.32 -17.03 98.54 -15.55 100.17 -14.97 100.06 -16.86 100.48 -17.99 100.99 -18.98 102.47 -18.65 103.45 -19.01 104.11 -19.79 103.77 -21.86 104.59 -22.41 105.79 -22.49 107.09 -22.46 108.87 -21.86 109.08 -23.19 109.64 -24.08 109.41 -25.89 110.79 -25.81 111.20 -26.86 112.32 -27.09 113.42 -27.36 115.05 -27.06 114.76 -28.86 115.28 -29.76 116.38 -30.05 115.54 -32.37 116.70 -32.59 118.73 -31.95 118.99 -33.10 118.62 -34.88 119.44 -35.45 120.39 -35.92 120.42 -37.26 123.42 -35.80 122.04 -38.45 124.43 -37.60 125.54 -37.96 125.22 -39.59 126.29 -39.98 126.86 -40.82 127.78 -41.35 128.87 -41.75 129.42 -42.60 129.02 -44.23 129.22 -45.35 128.84 -46.92 130 -46 131.57 -46.99 128.52 -48.01 128.77 -49.00 131.15 -50.00 129.46 -51.00 130 -51 128.84 -51.26 127.86 -51.71 128.87 -54.17 126.07 -52.79 126.77 -54.91 124.69 -54.28 124.14 -55.16 125 -56 124.01 -54.59 122.99 -57.83 122.00 -56.44 121.01 -57.69 120.01 -56.64 120 -56 118.87 -55.95 117.67 -56.02 117.14 -54.96 117.06 -53.10 115.75 -53.38 115.80 -51.28 113.12 -53.94 112.86 -52.40 112.95 -50.19 110.84 -51.90 109.86 -51.62 109.12 -50.91 108.22 -50.46 108.35 -48.15 107.43 -47.76 106.47 -47.42 104.69 -48.63 105.08 -45.77 103.73 -46.17 101.81 -47.67 102.15 -44.88 101.36 -44.23 100.78 -43.17 98.70 -45.03 97.32 -45.54 97.61 -42.76 95.91 -43.91 95.30 -42.89 95.24 -40.79 94.42 -40.19 92.09 -42.65 92.24 -40.07 90.82 -40.69 90.91 -38.21 89.20 -39.47 87.54 -40.63 87.33 -38.73 86.56 -38.03 85.86 -37.18 84.87 -36.92 83.58 -37.32 82.72 -36.82 81.39 -37.32 81.12 -35.51 80.55 -34.34 79.83 -33.49 78.50 -34.00 76.90 -35.16 76.79 -32.94 75.37 -33.69 73.97 -34.40 73.92 -32.01 73.51 -30.41 72.43 -30.38 70.65 -32.03 70.31 -30.26 70 -31 69.64 -29.34 67.67 -31.29 66.83 -30.71 65.91 -30.32 65.80 -28.01 65.14 -26.96 64.02 -27.02 62.25 -28.67 61.72 -27.31 60.80 -26.89 60.05 -26.04 58.49 -27.29 57.74 -26.45 57.07 -25.36 56.48 -24.02 54.57 -26.36 54.23 -24.33 53.22 -24.15 52.70 -22.55 50.97 -24.51 50.56 -22.58 49.35 -23.02 47.79 -24.59 47.33 -22.74 45.98 -23.68 45.54 -21.71 45.09 -19.68 44.10 -19.43 42.98 -19.67 41.13 -22.51 40.74 -20.16 39.94 -19.24 38.94 -19.08 37.84 -19.28 37.13 -17.99 35.89 -18.77 34.81 -18.94 34.14 -17.42 32.67 -19.26 31.51 -19.85 30.88 -18.08 29.48 -19.76 29.14 -16.57 27.71 -18.49 26.74 -18.21 25.69 -18.36 25.07 -16.28 24.20 -15.45 22.68 -18.13 22.22 -14.98 21.16 -15.16 20.26 -14.40 20 -16 19.05 -15.26 18.04 -15.73 17.10 -15.07 16.12 -15.16 15.05 -15.75 14.10 -15.44 13.03 -15.79 12.07 -15.50 11.26 -14.52 10.05 -15.41 9.34 -14.10 8.54 -13.29 7.20 -14.44 6.37 -13.74 5.79 -12.34 4.75 -12.36 3.29 -13.45 3.06 -11.34 1.64 -12.19 0.91 -11.38 0.21 -10.55 0 -11 0.60 -10.05 -1.45 -8.89 2.16 -8.10 1.48 -7.04 0.21 -6.00 -1.58 -5.02 0.28 -4.00 0.20 -2.99 -0.03 -2.01 1.36 -0.88 0 -1 Z" transform="scale(1,0.6) translate(-3,20) rotate(-6)"></path><path fill="rgba(0,0,0,0.18)" d="M120 -10C  121.11 -10.12 121.77 -10.96 122.95 -10.99 122.95 -12.79 124.21 -12.72 124.76 -13.69 126.11 -13.51 127.02 -13.97 127.92 -14.43 127.98 -16.06 128.77 -16.67 129.44 -17.44 130.96 -17.10 132.05 -17.33 132.62 -18.23 132.58 -19.91 134.35 -19.30 134.02 -21.30 134.74 -21.99 135.64 -22.46 136.77 -22.67 137.18 -23.73 139.00 -23.17 138.63 -25.11 139.81 -25.29 140.62 -25.88 141.70 -26.19 141.82 -27.53 142.71 -28.05 142.96 -29.23 144.87 -28.70 144.94 -30.06 145 -30 144.23 -30.73 143.47 -31.47 142.71 -32.21 141.96 -32.96 141.21 -33.71 140.47 -34.47 139.73 -35.23 139.00 -36.00 139 -36 137.77 -36.44 137.10 -35.44 136.48 -34.27 135.10 -35.16 134.62 -33.59 133.36 -34.16 132.24 -34.38 131.78 -32.65 130.33 -33.88 129.69 -32.68 129.03 -31.48 127.75 -32.26 126.91 -31.62 125.75 -32.05 124.81 -31.76 123.78 -31.80 124 -31 Z"></path><path fill="gold" d="M0 0C  -0.26 1.64 0.01 2.78 1.93 2.35 2.78 2.94 4.93 2.24 5.49 3.09 4.38 5.62 5.92 5.51 6.27 6.59 6.50 7.80 6.65 9.10 9.04 8.08 10.09 8.44 9.50 10.53 10 10 11.04 9.01 12.04 8.89 13.01 9.90 14.04 8.45 15.02 9.38 16.00 9.92 16.98 11.58 18.00 10.32 18.99 11.79 20.00 9.48 21.00 8.26 21.99 8.87 23.01 11.25 24.00 10.11 25.00 10.25 25.96 8.17 27.04 11.59 28.01 10.34 29.03 10.94 29.95 8.60 30 10 30.77 8.12 32.16 11.15 32.89 9.09 34.13 10.69 35.13 10.59 36.10 10.33 36.79 8.28 37.60 7.17 38.73 7.86 40.14 10.09 40.60 7.09 41.95 8.86 43.02 9.08 43.69 7.37 45.05 8.95 45.94 8.34 46.60 6.74 47.53 6.33 48.47 6.01 49.67 6.72 50.30 5.17 51.59 6.15 52.38 5.27 53.15 4.32 53.85 3.16 54.77 2.82 56.43 4.90 57.32 4.41 57.89 2.90 59.73 5.34 60.68 5.01 60.46 1.22 62.10 2.94 62.91 2.25 64.29 3.13 65.08 2.35 65.99 1.93 67.18 2.22 67.45 0.18 68.01 -1.11 68.84 -1.69 70.10 -1.23 72.04 0.80 71.91 -2.04 72.28 -3.66 73.67 -2.97 74.94 -2.57 75.96 -2.74 77.32 -2.21 78.23 -2.64 79.05 -3.24 78.72 -6.16 79.43 -6.95 81.07 -5.91 81.96 -6.35 82.73 -7.02 84.25 -6.30 85.53 -6.04 85.69 -7.83 87.08 -7.41 87.71 -8.33 87.39 -10.88 88.16 -11.51 89.02 -11.99 90.29 -11.80 90.52 -13.30 91.90 -12.96 93.73 -11.93 93.78 -13.70 95.60 -12.73 95.59 -14.57 95.69 -16.20 96.74 -16.41 97.98 -16.36 99.94 -15.30 99.34 -17.87 99.97 -18.69 101.02 -18.93 102.84 -18.15 102.79 -19.88 103.69 -20.34 104.28 -21.20 106.36 -20.17 106.90 -21.11 107.43 -22.05 106.73 -24.48 107.87 -24.65 110.05 -23.60 109.99 -25.22 109.75 -27.01 112.72 -25.13 111.98 -27.47 112.97 -27.85 113.52 -28.73 114.56 -29.07 114.62 -30.47 114.83 -31.68 115.46 -32.46 116.29 -33.01 117.21 -33.48 117.51 -34.59 120.18 -33.34 120.63 -34.29 121.27 -35.07 121.99 -35.77 120.96 -38.10 122.37 -38.14 123.28 -38.65 123.15 -40.10 125.87 -39.01 125.17 -40.96 126.86 -40.82 127.08 -41.94 128.40 -42.14 126.83 -44.75 128.40 -44.73 128.12 -46.23 130.86 -45.32 130 -46 131.98 -46.98 128.81 -48.00 130.05 -49.00 128.28 -49.99 129.51 -51.00 130 -51 129.45 -51.88 128.09 -51.94 127.27 -52.55 128.22 -54.93 125.38 -53.53 126.81 -56.36 126.21 -57.18 125 -56 124.01 -54.22 123.01 -54.64 122.00 -55.71 121.00 -54.80 120.01 -57.07 120 -56 118.70 -56.25 119.15 -53.49 117.17 -54.91 115.62 -55.59 115.69 -53.47 114.70 -53.19 113.56 -53.17 113.71 -50.88 111.69 -52.43 111.03 -51.58 109.74 -51.85 110.25 -48.86 107.86 -51.13 108.53 -47.82 106.02 -50.36 105.57 -49.09 104.33 -49.28 103.84 -48.09 103.09 -47.38 102.21 -46.91 102.10 -44.97 101.17 -44.59 100.78 -43.18 98.38 -45.64 98.75 -42.73 97.39 -43.20 97.16 -41.44 95.53 -42.45 94.33 -42.61 93.52 -41.99 92.04 -42.74 92.38 -39.78 90.90 -40.53 89.37 -41.40 89.07 -39.72 88.60 -38.39 87.77 -37.81 85.98 -39.27 85.58 -37.77 85.39 -35.81 83.96 -36.51 82.03 -38.31 82.36 -35.20 80.35 -37.21 80.72 -33.95 78.79 -35.82 78.83 -33.27 77.72 -33.31 76.11 -34.47 76.08 -32.05 75.15 -31.68 73.18 -33.73 73.00 -31.60 72.09 -31.20 70.72 -31.86 70.28 -30.34 70 -31 69.21 -30.30 68.41 -29.61 66.47 -31.54 65.93 -30.28 66.00 -27.55 64.17 -29.30 64.21 -26.55 62.43 -28.24 61.67 -27.44 60.79 -26.92 59.96 -26.28 59.42 -24.85 57.43 -27.26 56.53 -26.83 55.96 -25.45 55.04 -25.04 54.01 -24.93 53.21 -24.17 52.27 -23.82 51.03 -24.33 49.74 -25.06 49.77 -21.71 48.83 -21.33 47.74 -21.42 46.95 -20.55 45.29 -22.53 44.85 -20.47 43.81 -20.43 42.71 -20.60 41.39 -21.58 41.07 -18.96 39.90 -19.40 39.05 -18.65 38.16 -18.05 37.13 -17.98 35.42 -20.67 34.67 -19.51 33.68 -19.34 32.60 -19.56 31.62 -19.35 30.63 -19.17 30.06 -17.11 28.59 -19.14 27.68 -18.63 26.88 -17.53 26.00 -16.77 25.23 -15.43 23.91 -17.01 23.31 -14.66 21.89 -16.91 20.98 -16.22 19.71 -17.74 20 -16 19.02 -15.83 18.00 -16.24 17.12 -14.93 16.14 -14.96 15.00 -16.14 14.19 -14.79 13.07 -15.61 12.24 -14.60 11.24 -14.59 10.19 -14.80 9.06 -15.22 8.44 -13.66 7.37 -13.82 6.26 -14.09 5.33 -13.70 4.44 -13.24 3.30 -13.43 2.50 -12.72 1.68 -12.10 1.12 -10.91 0.06 -10.87 0 -11 0.30 -10.02 -0.08 -8.99 -1.74 -7.90 -0.02 -6.99 0.34 -6.00 -0.09 -5.00 1.12 -3.97 -0.18 -3.01 -1.83 -2.13 -1.14 -1.10 0 -1 Z"></path></g><g transform="translate(25,5) rotate(-15)"><path fill="rgba(0,0,0,0.18)" d="M-4 0C  -3.35 -0.95 -4.19 -2.05 -3.42 -2.96 -3.51 -4.00 -3.36 -4.99 -3.79 -6.13 -2.37 -6.82 -2.52 -7.90 -2.95 -9.09 -2.01 -9.85 -1.13 -10.60 -0.43 -11.39 -0.01 -12.28 -0.56 -13.64 1.01 -13.97 1.47 -14.84 0.94 -16.28 1.35 -17.22 2.80 -17.49 2.29 -19.04 2.79 -19.95 4.76 -19.71 4.96 -20.83 4.70 -22.37 5.40 -23.13 6.95 -23.06 7.20 -24.23 8.12 -24.73 9.51 -24.67 10.31 -25.25 10.20 -26.98 10.92 -27.73 12.58 -27.13 13.46 -27.59 13.96 -28.65 15.12 -28.65 15.60 -29.83 16.64 -30.00 16.99 -31.59 17.97 -31.93 19.13 -31.80 19.99 -32.40 20.98 -32.67 22.38 -31.65 23.24 -32.21 24.14 -32.65 25.02 -33.28 26.04 -33.32 26.98 -33.77 27.98 -33.91 29.07 -33.30 30.05 -33.43 30 -34 30.95 -35.02 31.99 -33.45 32.98 -34.64 33.96 -33.83 34.95 -33.87 35.99 -34.29 36.86 -33.20 37.79 -32.81 38.93 -33.64 39.64 -32.22 40.91 -33.30 41.78 -32.71 42.69 -32.29 43.77 -32.36 44.52 -31.54 45.83 -32.10 46.24 -30.53 47.68 -31.27 48.63 -30.89 48.92 -29.30 50.02 -29.23 51.18 -29.19 51.71 -28.17 52.18 -27.11 53.23 -26.85 54.25 -26.53 54.52 -25.30 55.81 -25.26 56.75 -24.77 56.09 -22.71 56.94 -22.18 58.64 -22.37 58.26 -20.75 58.60 -19.79 60.67 -20.09 60.27 -18.59 61.22 -18.02 60.67 -16.53 61.53 -15.91 62.64 -15.39 63.70 -14.79 64.10 -13.85 64.00 -12.71 63.27 -11.36 64.36 -10.71 64.26 -9.64 64.24 -8.62 64.35 -7.65 64.75 -6.74 65.86 -5.96 65.69 -4.92 66.01 -3.96 66.64 -3.03 66.77 -2.02 65.13 -0.94 66.15 0.02 66.15 1.01 65.58 1.98 66 2 65.35 2.95 66.68 4.06 65.41 4.93 64.73 5.82 65.81 7.00 64.99 7.85 64.07 8.65 64.82 9.85 64.40 10.77 64.84 11.96 63.37 12.50 63.44 13.59 62.09 14.10 62.12 15.17 62.36 16.38 62.21 17.43 60.42 17.58 61.55 19.38 60.37 19.84 58.88 20.04 58.73 21.12 57.93 21.74 58.47 23.43 56.63 23.20 57.22 25.04 55.49 24.80 54.53 25.22 54.59 26.70 53.55 27.04 53.26 28.22 51.55 27.69 51.57 29.32 50.15 29.07 49.70 30.14 49.27 31.32 48.02 31.19 47.33 31.99 45.91 31.45 45.66 33.14 44.65 33.37 43.30 32.75 42.99 34.65 41.93 34.71 40.56 33.77 39.98 35.23 38.98 35.40 37.88 35.12 36.98 35.69 36.04 36.11 35.06 36.41 33.91 35.33 33.01 36.23 31.98 35.93 31.01 36.45 30.00 35.77 30 36 29.00 35.81 28.00 35.85 27.01 35.65 26.00 35.91 24.95 36.39 23.93 36.36 23.18 34.61 21.94 35.85 21.11 34.92 19.93 35.51 19.13 34.62 18.03 34.75 17.25 33.93 16.12 34.07 15.78 32.27 14.87 31.94 13.99 31.52 12.53 32.17 12.00 31.06 10.61 31.42 9.80 30.79 9.38 29.62 8.21 29.51 7.83 28.35 6.50 28.38 5.67 27.77 5.50 26.46 4.73 25.82 4.03 25.09 3.47 24.25 2.44 23.79 1.83 22.97 1.83 21.72 0.55 21.38 0.89 19.96 0.25 19.19 -0.21 18.30 -0.38 17.27 -1.98 16.93 -1.03 15.41 -2.90 15.10 -1.90 13.64 -2.23 12.71 -2.11 11.64 -4.00 11.13 -2.49 9.73 -3.55 8.95 -3.15 7.87 -4.87 7.12 -4.14 6.01 -4.74 5.04 -3.76 3.98 -3.28 2.98 -3.43 2.01 -3.14 1.04 -4.89 -0.07 -4 0 Z" transform="rotate(15) scale(1,0.7)"></path><path fill="#490d00" d="M0 0C  0.11 -1.00 0.04 -2.02 0.41 -2.99 0.62 -3.97 0.87 -4.95 1.00 -5.95 1.15 -6.95 1.53 -7.89 1.74 -8.87 2.00 -9.85 2.45 -10.76 2.69 -11.75 3.23 -12.62 3.55 -13.58 4.28 -14.35 4.60 -15.32 5.03 -16.23 5.53 -17.11 6.16 -17.91 6.70 -18.76 7.43 -19.48 8.06 -20.26 8.62 -21.10 9.29 -21.85 9.91 -22.66 10.79 -23.21 11.33 -24.09 12.09 -24.76 13.03 -25.22 13.62 -26.08 14.62 -26.45 15.26 -27.26 16.20 -27.68 17.08 -28.17 17.77 -28.97 18.77 -29.25 19.58 -29.87 20.54 -30.20 21.38 -30.78 22.40 -30.95 23.18 -31.69 24.16 -31.97 25.12 -32.26 26.14 -32.39 27.03 -32.94 28.06 -32.99 29.06 -33.13 29.98 -33.60 30.99 -33.72 31.98 -33.90 32.99 -33.96 34.00 -34.00 34 -34 34.99 -34.13 35.98 -34.02 36.97 -34.01 37.97 -34.14 38.94 -33.75 39.95 -33.92 40.93 -33.73 41.93 -33.73 42.89 -33.43 43.88 -33.29 44.77 -32.76 45.81 -32.79 46.75 -32.47 47.62 -31.94 48.53 -31.56 49.48 -31.27 50.33 -30.74 51.30 -30.47 52.17 -30.00 52.99 -29.44 53.87 -28.98 54.69 -28.42 55.46 -27.79 56.40 -27.40 57.24 -26.87 57.96 -26.17 58.64 -25.44 59.34 -24.74 60.06 -24.06 60.71 -23.31 61.36 -22.57 62.20 -21.98 62.68 -21.09 63.28 -20.31 63.81 -19.47 64.41 -18.68 65.15 -17.98 65.69 -17.14 66.06 -16.20 66.55 -15.34 67.04 -14.47 67.42 -13.55 67.55 -12.52 68.15 -11.69 68.53 -10.77 68.57 -9.74 68.85 -8.79 68.97 -7.80 69.22 -6.85 69.74 -5.94 69.89 -4.95 69.78 -3.93 69.92 -2.95 69.89 -1.96 70.13 -0.98 70.04 0.02 70.19 1.01 69.84 1.99 70 2 70.06 3.00 69.84 3.98 69.77 4.97 69.66 5.96 69.21 6.89 69.26 7.91 69.01 8.87 68.70 9.82 68.25 10.72 68.10 11.71 67.75 12.64 67.22 13.50 67.06 14.51 66.76 15.46 66.02 16.21 65.68 17.15 65.05 17.93 64.76 18.91 64.09 19.66 63.61 20.53 63.17 21.44 62.53 22.20 61.97 23.03 61.11 23.61 60.66 24.54 59.80 25.09 59.10 25.80 58.43 26.53 57.79 27.30 56.82 27.70 56.04 28.32 55.38 29.08 54.61 29.72 53.68 30.11 52.95 30.81 51.95 31.08 51.07 31.54 50.20 32.01 49.31 32.43 48.45 32.92 47.56 33.36 46.66 33.79 45.64 33.89 44.72 34.26 43.80 34.64 42.83 34.84 41.91 35.26 40.88 35.23 39.93 35.54 38.95 35.66 37.94 35.59 36.99 36.04 36.00 36.11 34.99 35.80 34.00 36.19 34 36 33.00 35.82 32.00 36.07 31.00 35.95 30.01 35.86 29.01 35.79 28.03 35.55 27.04 35.44 26.08 35.15 25.08 35.07 24.11 34.82 23.14 34.59 22.17 34.32 21.23 33.99 20.39 33.38 19.33 33.32 18.52 32.69 17.63 32.23 16.80 31.67 15.78 31.44 15.04 30.72 14.14 30.28 13.47 29.49 12.55 29.06 11.74 28.47 11.07 27.71 10.31 27.07 9.50 26.46 8.90 25.65 8.32 24.82 7.46 24.25 6.78 23.52 6.38 22.55 5.83 21.72 5.05 21.05 4.49 20.21 4.26 19.18 3.65 18.38 3.34 17.42 2.73 16.60 2.22 15.73 2.17 14.67 1.53 13.85 1.49 12.80 1.25 11.83 0.74 10.94 0.58 9.95 0.53 8.94 0.19 7.98 0.10 6.99 0.01 5.99 -0.09 5.00 -0.18 4.00 -0.04 2.99 -0.02 2.00 -0.09 1.00 0.16 0.01 0 0 Z"></path><path fill="tan" d="M32 -2C  32.06 -3.00 32.55 -3.89 32.76 -4.85 33.06 -5.78 33.12 -6.78 33.53 -7.69 33.55 -8.70 33.89 -9.62 34.28 -10.54 34.46 -11.50 34.47 -12.51 34.76 -13.45 35.00 -14.40 35.46 -15.30 35.50 -16.30 35.84 -17.23 36.12 -18.17 36.41 -19.11 36.66 -20.06 36.77 -21.05 36.93 -22.02 37 -22 37.26 -21.05 37.63 -20.13 37.72 -19.14 37.80 -18.15 38.32 -17.27 38.28 -16.25 38.69 -15.34 38.75 -14.34 39.18 -13.44 39.52 -12.51 39.71 -11.55 39.76 -10.55 40.25 -9.66 40.29 -8.65 40.52 -7.70 40.72 -6.74 41.00 -5.80 41.40 -4.88 41.43 -3.88 41.87 -2.98 41.86 -1.97 42 -2 42.94 -1.72 43.94 -1.66 44.88 -1.37 45.84 -1.16 46.77 -0.82 47.72 -0.58 48.63 -0.16 49.61 -0.05 50.57 0.17 51.53 0.38 52.44 0.78 53.40 0.99 54.32 1.37 55.25 1.68 56.23 1.83 57.20 2.01 58.18 2.15 59.10 2.49 60.01 2.90 60.99 3.03 61 3 60.07 3.34 59.05 3.32 58.11 3.59 57.19 3.98 56.30 4.44 55.25 4.31 54.33 4.69 53.39 4.95 52.49 5.42 51.47 5.38 50.57 5.82 49.63 6.12 48.67 6.34 47.71 6.52 46.73 6.68 45.82 7.09 44.85 7.25 43.86 7.33 42.92 7.64 41.97 7.90 42 8 41.56 8.89 41.41 9.89 41.09 10.82 40.93 11.81 40.45 12.69 40.31 13.69 39.66 14.51 39.55 15.52 39.08 16.40 38.99 17.41 38.56 18.31 38.31 19.27 37.81 20.14 37.66 21.14 37.35 22.07 36.91 22.97 37 23 36.82 22.02 36.28 21.16 35.91 20.24 35.74 19.25 35.40 18.32 34.96 17.43 34.70 16.48 34.43 15.52 34.25 14.54 33.71 13.68 33.51 12.71 33.38 11.71 32.82 10.85 32.50 9.92 32.49 8.88 31.82 8.06 32 8 31.00 7.91 30.12 7.40 29.18 7.11 28.25 6.80 27.31 6.51 26.35 6.27 25.40 6.03 24.44 5.80 23.50 5.51 22.60 5.07 21.66 4.78 20.65 4.73 19.73 4.35 18.74 4.23 17.80 3.93 16.87 3.61 15.89 3.45 14.98 3.06 15 3 15.97 2.80 16.88 2.42 17.89 2.34 18.80 1.96 19.73 1.63 20.66 1.31 21.61 1.04 22.58 0.86 23.54 0.65 24.42 0.15 25.33 -0.24 26.31 -0.42 27.23 -0.77 28.28 -0.70 29.21 -1.02 30.08 -1.54 31.09 -1.60 31.97 -2.10 32 -2 Z"></path><path fill="rgba(255,215,0,0.3)" d="M0 0C  -0.26 -1.04 -0.52 -2.09 0.63 -2.96 1.05 -3.90 0.22 -5.08 0.04 -6.17 0.32 -7.16 1.79 -7.81 1.84 -8.84 2.27 -9.76 2.58 -10.71 3.57 -11.39 2.57 -12.91 3.08 -13.81 3.74 -14.62 4.35 -15.45 4.61 -16.47 4.86 -17.53 7.03 -17.33 7.62 -18.12 7.26 -19.61 8.69 -19.77 8.04 -21.58 8.95 -22.16 9.86 -22.70 10.85 -23.15 11.17 -24.26 11.85 -25.02 13.17 -25.06 14.21 -25.37 14.94 -26.04 14.75 -27.95 16.66 -27.03 16.45 -29.13 17.60 -29.24 18.44 -29.82 19.94 -29.19 20.88 -29.52 21.32 -30.89 21.94 -31.99 23.05 -32.01 24.01 -32.34 24.82 -33.13 25.94 -33.00 26.86 -33.52 27.86 -33.75 29.17 -32.63 30.10 -33.02 31.11 -33.04 31.86 -34.72 32.93 -34.47 33.98 -34.25 34 -34 35.03 -33.16 35.98 -34.16 36.98 -34.21 37.98 -34.33 38.93 -33.52 39.93 -33.77 40.85 -33.10 41.95 -33.82 42.93 -33.66 43.66 -32.31 44.62 -32.16 45.84 -32.91 46.42 -31.42 47.49 -31.57 48.87 -32.45 49.48 -31.26 50.16 -30.35 51.70 -31.30 52.29 -30.23 53.30 -29.99 53.52 -28.38 54.95 -28.83 55.19 -27.40 55.96 -26.80 56.83 -26.33 58.23 -26.50 58.74 -25.55 59.61 -25.03 60.31 -24.32 60.10 -22.72 60.98 -22.22 62.38 -22.14 62.69 -21.10 63.33 -20.34 63.49 -19.24 64.69 -18.87 65.75 -18.36 65.00 -16.73 65.27 -15.77 66.73 -15.43 66.96 -14.43 68.18 -13.89 68.33 -12.85 68.36 -11.78 68.78 -10.86 68.13 -9.60 68.33 -8.65 69.42 -7.91 69.52 -6.91 68.66 -5.73 70.28 -5.02 69.01 -3.83 68.95 -2.86 70.48 -2.00 70.37 -0.99 69.25 0.03 69.89 1.01 70.55 2.03 70 2 70.30 3.02 69.90 3.98 69.02 4.88 70.09 6.03 69.63 6.97 68.22 7.69 69.36 8.96 68.41 9.74 67.80 10.59 67.96 11.67 66.85 12.32 68.08 13.84 66.96 14.46 67.30 15.71 66.38 16.39 66.41 17.53 64.62 17.69 63.91 18.40 64.10 19.67 63.39 20.38 62.96 21.28 62.30 22.03 61.54 22.69 61.45 23.89 60.47 24.37 59.77 25.07 58.81 25.51 58.22 26.31 57.74 27.25 56.69 27.55 55.85 28.07 55.68 29.48 54.45 29.48 53.33 29.59 52.60 30.26 51.60 30.50 51.57 32.43 50.72 33.01 49.02 31.83 48.72 33.53 47.36 32.90 46.86 34.31 46.01 34.94 44.87 34.73 43.72 34.36 43.07 35.76 41.86 35.04 40.81 34.86 40.04 36.13 38.97 35.82 38.02 36.26 36.99 36.09 36.05 36.85 34.97 35.31 34.01 36.45 34 36 33.00 36.16 32.01 35.56 30.96 36.92 30.07 35.04 28.99 36.00 27.92 36.37 27.19 34.55 25.94 35.90 24.90 35.87 24.12 34.78 23.20 34.36 22.00 34.84 21.13 34.26 20.31 33.57 19.45 33.05 18.16 33.45 17.57 32.36 17.19 30.94 15.86 31.31 14.74 31.21 13.89 30.65 13.72 29.13 12.37 29.30 12.35 27.71 10.45 28.44 10.60 26.74 8.93 27.06 9.55 25.02 7.93 25.18 7.86 23.91 6.57 23.69 5.57 23.17 6.20 21.46 5.75 20.58 5.22 19.75 3.51 19.62 3.92 18.23 3.97 17.10 1.92 16.98 2.81 15.48 2.22 14.65 0.92 14.07 1.67 12.74 0.61 12.02 0.75 10.94 0.88 9.88 0.61 8.92 -0.68 8.13 0.03 7.00 -0.30 6.02 -0.79 5.05 -0.87 4.03 0.85 2.98 0.38 2.00 0.49 1.02 0.97 0.07 0 0 Z" stroke="rgba(255,215,0,0.7)" stroke-width="0.75px"></path></g></g></svg>
