<svg version="1.1" baseProfile="full" xmlns="http://www.w3.org/2000/svg" width="350" height="250" style="background: gray"><!-- Created by Harry Li --><g transform="translate(165,135)"><g transform="translate(7,-5)"><path fill="#333" d="M-135 -33C  -134.05 -33.31 -133.10 -33.62 -132.15 -33.92 -131.20 -34.23 -130.25 -34.55 -129.30 -34.86 -128.35 -35.17 -127.41 -35.48 -126.46 -35.80 -125.51 -36.11 -124.56 -36.43 -123.62 -36.75 -122.67 -37.07 -121.72 -37.39 -120.78 -37.71 -119.83 -38.03 -118.89 -38.35 -117.94 -38.67 -117.00 -39.00 -116.05 -39.32 -115.11 -39.65 -114.16 -39.98 -113.22 -40.30 -112.28 -40.63 -111.34 -40.96 -110.39 -41.29 -109.45 -41.62 -108.51 -41.96 -107.57 -42.29 -106.63 -42.63 -105.69 -42.96 -104.75 -43.30 -103.81 -43.63 -102.87 -43.97 -101.93 -44.31 -100.99 -44.65 -100.05 -44.99 -99.11 -45.34 -98.17 -45.68 -97.24 -46.02 -96.30 -46.37 -95.36 -46.71 -94.42 -47.06 -93.49 -47.41 -92.55 -47.76 -91.62 -48.11 -90.68 -48.46 -89.75 -48.81 -88.81 -49.16 -87.88 -49.51 -86.94 -49.87 -86.01 -50.22 -85.08 -50.58 -84.14 -50.94 -83.21 -51.29 -82.28 -51.65 -81.35 -52.01 -80.42 -52.37 -79.49 -52.73 -78.56 -53.10 -77.63 -53.46 -76.70 -53.82 -75.77 -54.19 -74.84 -54.56 -73.91 -54.92 -72.98 -55.29 -72.05 -55.66 -71.12 -56.03 -70.20 -56.40 -69.27 -56.77 -68.34 -57.15 -67.42 -57.52 -66.49 -57.89 -65.57 -58.27 -64.64 -58.65 -63.72 -59.02 -62.79 -59.40 -61.87 -59.78 -60.94 -60.16 -60.02 -60.54 -59.10 -60.92 -58.18 -61.31 -57.25 -61.69 -56.33 -62.08 -55.41 -62.46 -54.49 -62.85 -53.57 -63.24 -52.65 -63.62 -51.73 -64.01 -50.81 -64.40 -49.89 -64.80 -48.97 -65.19 -48.05 -65.58 -47.14 -65.97 -46.22 -66.37 -45.30 -66.77 -44.39 -67.16 -43.47 -67.56 -42.55 -67.96 -41.64 -68.36 -40.72 -68.76 -39.81 -69.16 -38.90 -69.56 -37.98 -69.96 -37.07 -70.37 -36.15 -70.77 -35.24 -71.18 -34.33 -71.59 -33.42 -71.99 -32.51 -72.40 -31.60 -72.81 -30.69 -73.22 -29.78 -73.63 -28.87 -74.05 -27.96 -74.46 -27.05 -74.87 -26.14 -75.29 -25.23 -75.70 -24.32 -76.12 -23.42 -76.54 -22.51 -76.96 -21.60 -77.38 -20.70 -77.80 -19.79 -78.22 -18.89 -78.64 -17.98 -79.06 -17.08 -79.49 -16.17 -79.91 -15.27 -80.34 -14.37 -80.76 -13.46 -81.19 -12.56 -81.62 -11.66 -82.05 -10.76 -82.48 -9.86 -82.91 -8.96 -83.34 -8.06 -83.78 -7.16 -84.21 -6.26 -84.65 -5.36 -85.08 -4.46 -85.52 -3.56 -85.95 -2.67 -86.39 -1.77 -86.83 -0.87 -87.27 0.02 -87.71 0.92 -88.16 1.81 -88.60 2.71 -89.04 3.60 -89.49 4.50 -89.93 5.39 -90.38 6.28 -90.83 7.17 -91.27 8.07 -91.72 8.96 -92.17 9.85 -92.62 10.74 -93.08 11.63 -93.53 12.52 -93.98 13.41 -94.44 14.30 -94.89 15.19 -95.35 16.08 -95.81 16.96 -96.26 17.85 -96.72 18.74 -97.18 19.62 -97.64 20.51 -98.10 21.39 -98.57 22.28 -99.03 23.16 -99.49 24.05 -99.96 24.93 -100.43 25.81 -100.89 26.70 -101.36 27.58 -101.83 28.46 -102.30 29.34 -102.77 30.22 -103.24 31.10 -103.71 31.98 -104.18 32.86 -104.66 33.74 -105.13 34.62 -105.61 35.49 -106.09 36.37 -106.56 37.25 -107.04 38.12 -107.52 39.00 -108.00 39 -108 39.54 -107.16 40.09 -106.32 40.63 -105.48 41.18 -104.64 41.73 -103.80 42.27 -102.96 42.82 -102.13 43.37 -101.29 43.92 -100.45 44.48 -99.62 45.03 -98.78 45.58 -97.95 46.13 -97.11 46.69 -96.28 47.24 -95.45 47.80 -94.61 48.36 -93.78 48.92 -92.95 49.47 -92.12 50.03 -91.29 50.59 -90.46 51.16 -89.63 51.72 -88.80 52.28 -87.98 52.84 -87.15 53.41 -86.32 53.97 -85.50 54.54 -84.67 55.11 -83.84 55.68 -83.02 56.24 -82.20 56.81 -81.37 57.38 -80.55 57.96 -79.73 58.53 -78.91 59.10 -78.08 59.67 -77.26 60.25 -76.44 60.82 -75.62 61.40 -74.81 61.98 -73.99 62.55 -73.17 63.13 -72.35 63.71 -71.54 64.29 -70.72 64.87 -69.90 65.46 -69.09 66.04 -68.28 66.62 -67.46 67.21 -66.65 67.79 -65.84 68.38 -65.03 68.96 -64.21 69.55 -63.40 70.14 -62.59 70.73 -61.78 71.32 -60.97 71.91 -60.17 72.50 -59.36 73.09 -58.55 73.69 -57.74 74.28 -56.94 74.88 -56.13 75.47 -55.33 76.07 -54.52 76.67 -53.72 77.26 -52.92 77.86 -52.12 78.46 -51.31 79.06 -50.51 79.66 -49.71 80.27 -48.91 80.87 -48.11 81.47 -47.31 82.08 -46.52 82.68 -45.72 83.29 -44.92 83.89 -44.13 84.50 -43.33 85.11 -42.53 85.72 -41.74 86.33 -40.95 86.94 -40.15 87.55 -39.36 88.17 -38.57 88.78 -37.78 89.39 -36.99 90.01 -36.20 90.62 -35.41 91.24 -34.62 91.86 -33.83 92.47 -33.04 93.09 -32.25 93.71 -31.47 94.33 -30.68 94.95 -29.90 95.58 -29.11 96.20 -28.33 96.82 -27.54 97.45 -26.76 98.07 -25.98 98.70 -25.20 99.32 -24.42 99.95 -23.64 100.58 -22.86 101.21 -22.08 101.84 -21.30 102.47 -20.52 103.10 -19.75 103.73 -18.97 104.36 -18.19 105.00 -17.42 105.63 -16.64 106.27 -15.87 106.90 -15.10 107.54 -14.32 108.18 -13.55 108.82 -12.78 109.46 -12.01 110.10 -11.24 110.74 -10.47 111.38 -9.70 112.02 -8.93 112.66 -8.17 113.31 -7.40 113.95 -6.63 114.60 -5.87 115.24 -5.10 115.89 -4.34 116.54 -3.57 117.18 -2.81 117.83 -2.05 118.48 -1.29 119.13 -0.53 119.78 0.24 120.44 0.99 121.09 1.75 121.74 2.51 122.40 3.27 123.05 4.03 123.71 4.78 124.36 5.54 125.02 6.29 125.68 7.05 126.34 7.80 127.00 8.56 127.66 9.31 128.32 10.06 128.98 10.81 129.64 11.56 130.31 12.31 130.97 13.06 131.64 13.81 132.30 14.56 132.97 15.31 133.64 16.05 134.30 16.80 134.97 17.54 135.64 18.29 136.31 19.03 136.98 19.77 137.65 20.52 138.33 21.26 139.00 22.00 139 22 138.15 22.54 137.31 23.07 136.46 23.60 135.61 24.14 134.76 24.67 133.91 25.19 133.06 25.72 132.21 26.25 131.35 26.77 130.50 27.30 129.65 27.82 128.79 28.34 127.93 28.86 127.08 29.37 126.22 29.89 125.36 30.40 124.50 30.92 123.64 31.43 122.78 31.94 121.91 32.45 121.05 32.96 120.19 33.46 119.32 33.97 118.46 34.47 117.59 34.97 116.72 35.47 115.85 35.97 114.98 36.47 114.11 36.96 113.24 37.46 112.37 37.95 111.50 38.44 110.62 38.93 109.75 39.42 108.88 39.91 108.00 40.39 107.12 40.88 106.25 41.36 105.37 41.84 104.49 42.32 103.61 42.80 102.73 43.28 101.85 43.75 100.96 44.23 100.08 44.70 99.20 45.17 98.31 45.64 97.43 46.11 96.54 46.57 95.65 47.04 94.77 47.50 93.88 47.96 92.99 48.42 92.10 48.88 91.21 49.34 90.32 49.80 89.42 50.25 88.53 50.70 87.64 51.16 86.74 51.61 85.85 52.05 84.95 52.50 84.06 52.95 83.16 53.39 82.26 53.83 81.36 54.28 80.46 54.72 79.56 55.15 78.66 55.59 77.76 56.03 76.85 56.46 75.95 56.89 75.05 57.32 74.14 57.75 73.24 58.18 72.33 58.60 71.42 59.03 70.52 59.45 69.61 59.87 68.70 60.29 67.79 60.71 66.88 61.13 65.97 61.54 65.05 61.96 64.14 62.37 63.23 62.78 62.31 63.19 61.40 63.60 60.49 64.01 59.57 64.41 58.65 64.81 57.74 65.22 56.82 65.62 55.90 66.01 54.98 66.41 54.06 66.81 53.14 67.20 52.22 67.59 51.30 67.99 50.37 68.37 49.45 68.76 48.53 69.15 47.60 69.53 46.68 69.92 45.75 70.30 44.82 70.68 43.90 71.06 42.97 71.43 42.04 71.81 41.11 72.18 40.18 72.56 39.25 72.93 38.32 73.30 37.39 73.67 36.46 74.03 35.52 74.40 34.59 74.76 33.66 75.12 32.72 75.48 31.79 75.84 30.85 76.20 29.92 76.55 28.98 76.91 28.04 77.26 27.10 77.61 26.17 77.96 25.23 78.30 24.29 78.65 23.35 79.00 22.41 79.34 21.46 79.68 20.52 80.02 19.58 80.36 18.64 80.69 17.69 81.03 16.75 81.36 15.80 81.69 14.86 82.02 13.91 82.35 12.96 82.68 12.02 83.00 11.07 83.33 10.12 83.65 9.17 83.97 8.22 84.29 7.27 84.61 6.32 84.92 5.37 85.24 4.42 85.55 3.47 85.86 2.52 86.17 1.56 86.48 0.61 86.79 -0.34 87.09 -1.30 87.40 -2.25 87.70 -3.21 88.00 -4.16 88.30 -5.12 88.59 -6.08 88.89 -7.03 89.18 -7.99 89.47 -8.95 89.76 -9.91 90.05 -10.87 90.34 -11.83 90.63 -12.79 90.91 -13.75 91.19 -14.71 91.47 -15.67 91.75 -16.63 92.03 -17.60 92.31 -18.56 92.58 -19.52 92.85 -20.49 93.12 -21.45 93.39 -22.42 93.66 -23.38 93.93 -24.35 94.19 -25.31 94.46 -26.28 94.72 -27.25 94.98 -28.22 95.24 -29.18 95.49 -30.15 95.75 -31.12 96.00 -32.09 96.25 -33.06 96.50 -34.03 96.75 -35.00 97.00 -35 97 -35.71 96.30 -36.42 95.60 -37.13 94.90 -37.83 94.19 -38.54 93.49 -39.24 92.78 -39.94 92.07 -40.64 91.36 -41.35 90.65 -42.04 89.94 -42.74 89.23 -43.44 88.52 -44.13 87.80 -44.83 87.09 -45.52 86.37 -46.21 85.65 -46.91 84.93 -47.59 84.21 -48.28 83.49 -48.97 82.77 -49.66 82.05 -50.34 81.32 -51.02 80.60 -51.71 79.87 -52.39 79.14 -53.07 78.41 -53.75 77.68 -54.42 76.95 -55.10 76.22 -55.78 75.48 -56.45 74.75 -57.12 74.01 -57.79 73.27 -58.46 72.54 -59.13 71.80 -59.80 71.06 -60.47 70.31 -61.13 69.57 -61.80 68.83 -62.46 68.08 -63.12 67.34 -63.78 66.59 -64.44 65.84 -65.10 65.09 -65.76 64.34 -66.41 63.59 -67.07 62.84 -67.72 62.08 -68.37 61.33 -69.02 60.57 -69.67 59.82 -70.32 59.06 -70.96 58.30 -71.61 57.54 -72.25 56.78 -72.90 56.02 -73.54 55.25 -74.18 54.49 -74.82 53.72 -75.45 52.96 -76.09 52.19 -76.73 51.42 -77.36 50.65 -77.99 49.88 -78.62 49.11 -79.25 48.33 -79.88 47.56 -80.51 46.79 -81.14 46.01 -81.76 45.23 -82.38 44.45 -83.01 43.68 -83.63 42.90 -84.25 42.11 -84.87 41.33 -85.48 40.55 -86.10 39.76 -86.71 38.98 -87.33 38.19 -87.94 37.41 -88.55 36.62 -89.16 35.83 -89.77 35.04 -90.37 34.25 -90.98 33.45 -91.58 32.66 -92.19 31.87 -92.79 31.07 -93.39 30.27 -93.99 29.48 -94.58 28.68 -95.18 27.88 -95.77 27.08 -96.37 26.28 -96.96 25.48 -97.55 24.67 -98.14 23.87 -98.73 23.06 -99.31 22.26 -99.90 21.45 -100.48 20.64 -101.07 19.83 -101.65 19.02 -102.23 18.21 -102.81 17.40 -103.38 16.59 -103.96 15.77 -104.53 14.96 -105.11 14.14 -105.68 13.32 -106.25 12.51 -106.82 11.69 -107.39 10.87 -107.95 10.05 -108.52 9.23 -109.08 8.40 -109.64 7.58 -110.21 6.76 -110.77 5.93 -111.32 5.10 -111.88 4.28 -112.44 3.45 -112.99 2.62 -113.54 1.79 -114.09 0.96 -114.64 0.13 -115.19 -0.71 -115.74 -1.54 -116.29 -2.37 -116.83 -3.21 -117.37 -4.05 -117.91 -4.88 -118.46 -5.72 -118.99 -6.56 -119.53 -7.40 -120.07 -8.24 -120.60 -9.08 -121.14 -9.92 -121.67 -10.77 -122.20 -11.61 -122.73 -12.46 -123.25 -13.30 -123.78 -14.15 -124.31 -15.00 -124.83 -15.85 -125.35 -16.70 -125.87 -17.55 -126.39 -18.40 -126.91 -19.25 -127.43 -20.10 -127.94 -20.96 -128.45 -21.81 -128.97 -22.67 -129.48 -23.52 -129.99 -24.38 -130.49 -25.24 -131.00 -26.10 -131.51 -26.96 -132.01 -27.82 -132.51 -28.68 -133.01 -29.54 -133.51 -30.41 -134.01 -31.27 -134.51 -32.13 -135.00 -33.00 -135 -33 Z"></path><path fill="#fff" d="M-40 -37C  -39.04 -36.73 -38.07 -36.47 -37.11 -36.20 -36.14 -35.94 -35.18 -35.67 -34.21 -35.41 -33.25 -35.15 -32.28 -34.89 -31.32 -34.63 -30.35 -34.37 -29.39 -34.11 -28.42 -33.85 -27.45 -33.60 -26.49 -33.34 -25.52 -33.09 -24.55 -32.83 -23.58 -32.58 -22.62 -32.33 -21.65 -32.08 -20.68 -31.83 -19.71 -31.58 -18.74 -31.34 -17.77 -31.09 -16.80 -30.84 -15.83 -30.60 -14.86 -30.36 -13.89 -30.11 -12.92 -29.87 -11.95 -29.63 -10.98 -29.39 -10.01 -29.15 -9.04 -28.92 -8.07 -28.68 -7.09 -28.44 -6.12 -28.21 -5.15 -27.98 -4.18 -27.74 -3.20 -27.51 -2.23 -27.28 -1.26 -27.05 -0.28 -26.82 0.69 -26.59 1.66 -26.37 2.64 -26.14 3.61 -25.92 4.59 -25.69 5.56 -25.47 6.54 -25.25 7.51 -25.03 8.49 -24.81 9.46 -24.59 10.44 -24.37 11.41 -24.15 12.39 -23.93 13.37 -23.72 14.34 -23.51 15.32 -23.29 16.30 -23.08 17.28 -22.87 18.25 -22.66 19.23 -22.45 20.21 -22.24 21.19 -22.03 22.17 -21.83 23.15 -21.62 24.12 -21.42 25.10 -21.21 26.08 -21.01 27.06 -20.81 28.04 -20.61 29.02 -20.41 30.00 -20.21 30.98 -20.01 31.96 -19.82 32.94 -19.62 33.92 -19.43 34.91 -19.23 35.89 -19.04 36.87 -18.85 37.85 -18.66 38.83 -18.47 39.81 -18.28 40.80 -18.09 41.78 -17.90 42.76 -17.72 43.74 -17.53 44.73 -17.35 45.71 -17.17 46.69 -16.98 47.68 -16.80 48.66 -16.62 49.65 -16.44 50.63 -16.27 51.61 -16.09 52.60 -15.91 53.58 -15.74 54.57 -15.57 55.55 -15.39 56.54 -15.22 57.52 -15.05 58.51 -14.88 59.49 -14.71 60.48 -14.54 61.47 -14.37 62.45 -14.21 63.44 -14.04 64.42 -13.88 65.41 -13.72 66.40 -13.55 67.39 -13.39 68.37 -13.23 69.36 -13.07 70.35 -12.91 71.33 -12.76 72.32 -12.60 73.31 -12.45 74.30 -12.29 75.29 -12.14 76.27 -11.99 77.26 -11.83 78.25 -11.68 79.24 -11.54 80.23 -11.39 81.22 -11.24 82.21 -11.09 83.20 -10.95 84.19 -10.80 85.18 -10.66 86.17 -10.52 87.16 -10.38 88.15 -10.24 89.14 -10.10 90.13 -9.96 91.12 -9.82 92.11 -9.68 93.10 -9.55 94.09 -9.41 95.08 -9.28 96.07 -9.15 97.06 -9.02 98.06 -8.89 99.05 -8.76 100.04 -8.63 101.03 -8.50 102.02 -8.37 103.02 -8.25 104.01 -8.12 105.00 -8.00 105 -8 104.70 -7.05 104.40 -6.10 104.11 -5.16 103.80 -4.21 103.50 -3.26 103.20 -2.32 102.90 -1.37 102.59 -0.42 102.29 0.52 101.98 1.47 101.68 2.41 101.37 3.36 101.06 4.30 100.75 5.25 100.44 6.19 100.13 7.14 99.82 8.08 99.50 9.02 99.19 9.96 98.87 10.91 98.56 11.85 98.24 12.79 97.92 13.73 97.60 14.67 97.28 15.61 96.96 16.55 96.64 17.49 96.32 18.43 95.99 19.37 95.67 20.31 95.34 21.25 95.02 22.19 94.69 23.13 94.36 24.07 94.03 25.00 93.70 25.94 93.37 26.88 93.04 27.82 92.71 28.75 92.37 29.69 92.04 30.62 91.70 31.56 91.37 32.49 91.03 33.43 90.69 34.36 90.35 35.30 90.01 36.23 89.67 37.16 89.33 38.10 88.98 39.03 88.64 39.96 88.29 40.89 87.95 41.82 87.60 42.76 87.25 43.69 86.91 44.62 86.56 45.55 86.20 46.48 85.85 47.41 85.50 48.34 85.15 49.27 84.79 50.19 84.44 51.12 84.08 52.05 83.73 52.98 83.37 53.90 83.01 54.83 82.65 55.76 82.29 56.68 81.93 57.61 81.56 58.53 81.20 59.46 80.84 60.38 80.47 61.31 80.10 62.23 79.74 63.15 79.37 64.08 79.00 65.00 79 65 78.01 64.88 77.02 64.75 76.02 64.63 75.03 64.50 74.04 64.37 73.05 64.24 72.06 64.11 71.06 63.98 70.07 63.85 69.08 63.72 68.09 63.59 67.10 63.45 66.11 63.32 65.12 63.18 64.13 63.04 63.14 62.90 62.15 62.76 61.16 62.62 60.17 62.48 59.18 62.34 58.19 62.20 57.20 62.05 56.21 61.91 55.22 61.76 54.23 61.61 53.24 61.46 52.25 61.32 51.26 61.17 50.27 61.01 49.29 60.86 48.30 60.71 47.31 60.55 46.32 60.40 45.33 60.24 44.35 60.09 43.36 59.93 42.37 59.77 41.39 59.61 40.40 59.45 39.41 59.28 38.42 59.12 37.44 58.96 36.45 58.79 35.47 58.63 34.48 58.46 33.49 58.29 32.51 58.12 31.52 57.95 30.54 57.78 29.55 57.61 28.57 57.43 27.58 57.26 26.60 57.09 25.61 56.91 24.63 56.73 23.65 56.56 22.66 56.38 21.68 56.20 20.69 56.02 19.71 55.83 18.73 55.65 17.74 55.47 16.76 55.28 15.78 55.10 14.80 54.91 13.81 54.72 12.83 54.53 11.85 54.34 10.87 54.15 9.89 53.96 8.91 53.77 7.92 53.57 6.94 53.38 5.96 53.18 4.98 52.99 4.00 52.79 3.02 52.59 2.04 52.39 1.06 52.19 0.08 51.99 -0.90 51.79 -1.88 51.58 -2.85 51.38 -3.83 51.17 -4.81 50.97 -5.79 50.76 -6.77 50.55 -7.75 50.34 -8.72 50.13 -9.70 49.92 -10.68 49.71 -11.66 49.49 -12.63 49.28 -13.61 49.07 -14.59 48.85 -15.56 48.63 -16.54 48.41 -17.51 48.19 -18.49 47.97 -19.46 47.75 -20.44 47.53 -21.41 47.31 -22.39 47.08 -23.36 46.86 -24.34 46.63 -25.31 46.41 -26.28 46.18 -27.26 45.95 -28.23 45.72 -29.20 45.49 -30.18 45.26 -31.15 45.02 -32.12 44.79 -33.09 44.56 -34.07 44.32 -35.04 44.08 -36.01 43.85 -36.98 43.61 -37.95 43.37 -38.92 43.13 -39.89 42.89 -40.86 42.64 -41.83 42.40 -42.80 42.16 -43.77 41.91 -44.74 41.66 -45.71 41.42 -46.68 41.17 -47.65 40.92 -48.62 40.67 -49.58 40.42 -50.55 40.17 -51.52 39.91 -52.49 39.66 -53.45 39.40 -54.42 39.15 -55.39 38.89 -56.35 38.63 -57.32 38.37 -58.28 38.11 -59.25 37.85 -60.21 37.59 -61.18 37.33 -62.14 37.06 -63.11 36.80 -64.07 36.53 -65.04 36.27 -66.00 36.00 -66 36 -65.63 35.08 -65.26 34.15 -64.90 33.23 -64.53 32.31 -64.16 31.38 -63.80 30.46 -63.44 29.53 -63.07 28.61 -62.71 27.68 -62.35 26.76 -61.99 25.83 -61.63 24.90 -61.27 23.98 -60.92 23.05 -60.56 22.12 -60.21 21.19 -59.85 20.27 -59.50 19.34 -59.15 18.41 -58.80 17.48 -58.44 16.55 -58.09 15.62 -57.75 14.69 -57.40 13.76 -57.05 12.82 -56.71 11.89 -56.36 10.96 -56.02 10.03 -55.67 9.10 -55.33 8.16 -54.99 7.23 -54.65 6.30 -54.31 5.36 -53.97 4.43 -53.63 3.49 -53.30 2.56 -52.96 1.62 -52.63 0.69 -52.29 -0.25 -51.96 -1.18 -51.63 -2.12 -51.30 -3.06 -50.97 -4.00 -50.64 -4.93 -50.31 -5.87 -49.98 -6.81 -49.66 -7.75 -49.33 -8.69 -49.01 -9.63 -48.68 -10.57 -48.36 -11.51 -48.04 -12.45 -47.72 -13.39 -47.40 -14.33 -47.08 -15.27 -46.76 -16.21 -46.44 -17.15 -46.13 -18.09 -45.81 -19.04 -45.50 -19.98 -45.18 -20.92 -44.87 -21.86 -44.56 -22.81 -44.25 -23.75 -43.94 -24.70 -43.63 -25.64 -43.32 -26.59 -43.02 -27.53 -42.71 -28.48 -42.41 -29.42 -42.10 -30.37 -41.80 -31.32 -41.50 -32.26 -41.20 -33.21 -40.89 -34.16 -40.60 -35.10 -40.30 -36.05 -40.00 -37.00 -40 -37 Z" opacity="0.9"></path><path fill="#fff" d="M-70 -67C  -69.04 -66.73 -68.07 -66.47 -67.11 -66.20 -66.14 -65.94 -65.18 -65.67 -64.21 -65.41 -63.25 -65.15 -62.28 -64.89 -61.32 -64.63 -60.35 -64.37 -59.39 -64.11 -58.42 -63.85 -57.45 -63.60 -56.49 -63.34 -55.52 -63.09 -54.55 -62.83 -53.58 -62.58 -52.62 -62.33 -51.65 -62.08 -50.68 -61.83 -49.71 -61.58 -48.74 -61.34 -47.77 -61.09 -46.80 -60.84 -45.83 -60.60 -44.86 -60.36 -43.89 -60.11 -42.92 -59.87 -41.95 -59.63 -40.98 -59.39 -40.01 -59.15 -39.04 -58.92 -38.07 -58.68 -37.09 -58.44 -36.12 -58.21 -35.15 -57.98 -34.18 -57.74 -33.20 -57.51 -32.23 -57.28 -31.26 -57.05 -30.28 -56.82 -29.31 -56.59 -28.34 -56.37 -27.36 -56.14 -26.39 -55.92 -25.41 -55.69 -24.44 -55.47 -23.46 -55.25 -22.49 -55.03 -21.51 -54.81 -20.54 -54.59 -19.56 -54.37 -18.59 -54.15 -17.61 -53.93 -16.63 -53.72 -15.66 -53.51 -14.68 -53.29 -13.70 -53.08 -12.72 -52.87 -11.75 -52.66 -10.77 -52.45 -9.79 -52.24 -8.81 -52.03 -7.83 -51.83 -6.85 -51.62 -5.88 -51.42 -4.90 -51.21 -3.92 -51.01 -2.94 -50.81 -1.96 -50.61 -0.98 -50.41 0.00 -50.21 0.98 -50.01 1.96 -49.82 2.94 -49.62 3.92 -49.43 4.91 -49.23 5.89 -49.04 6.87 -48.85 7.85 -48.66 8.83 -48.47 9.81 -48.28 10.80 -48.09 11.78 -47.90 12.76 -47.72 13.74 -47.53 14.73 -47.35 15.71 -47.17 16.69 -46.98 17.68 -46.80 18.66 -46.62 19.65 -46.44 20.63 -46.27 21.61 -46.09 22.60 -45.91 23.58 -45.74 24.57 -45.57 25.55 -45.39 26.54 -45.22 27.52 -45.05 28.51 -44.88 29.49 -44.71 30.48 -44.54 31.47 -44.37 32.45 -44.21 33.44 -44.04 34.42 -43.88 35.41 -43.72 36.40 -43.55 37.39 -43.39 38.37 -43.23 39.36 -43.07 40.35 -42.91 41.33 -42.76 42.32 -42.60 43.31 -42.45 44.30 -42.29 45.29 -42.14 46.27 -41.99 47.26 -41.83 48.25 -41.68 49.24 -41.54 50.23 -41.39 51.22 -41.24 52.21 -41.09 53.20 -40.95 54.19 -40.80 55.18 -40.66 56.17 -40.52 57.16 -40.38 58.15 -40.24 59.14 -40.10 60.13 -39.96 61.12 -39.82 62.11 -39.68 63.10 -39.55 64.09 -39.41 65.08 -39.28 66.07 -39.15 67.06 -39.02 68.06 -38.89 69.05 -38.76 70.04 -38.63 71.03 -38.50 72.02 -38.37 73.02 -38.25 74.01 -38.12 75.00 -38.00 75 -38 74.70 -37.05 74.40 -36.10 74.11 -35.16 73.80 -34.21 73.50 -33.26 73.20 -32.32 72.90 -31.37 72.59 -30.42 72.29 -29.48 71.98 -28.53 71.68 -27.59 71.37 -26.64 71.06 -25.70 70.75 -24.75 70.44 -23.81 70.13 -22.86 69.82 -21.92 69.50 -20.98 69.19 -20.04 68.87 -19.09 68.56 -18.15 68.24 -17.21 67.92 -16.27 67.60 -15.33 67.28 -14.39 66.96 -13.45 66.64 -12.51 66.32 -11.57 65.99 -10.63 65.67 -9.69 65.34 -8.75 65.02 -7.81 64.69 -6.87 64.36 -5.93 64.03 -5.00 63.70 -4.06 63.37 -3.12 63.04 -2.18 62.71 -1.25 62.37 -0.31 62.04 0.62 61.70 1.56 61.37 2.49 61.03 3.43 60.69 4.36 60.35 5.30 60.01 6.23 59.67 7.16 59.33 8.10 58.98 9.03 58.64 9.96 58.29 10.89 57.95 11.82 57.60 12.76 57.25 13.69 56.91 14.62 56.56 15.55 56.20 16.48 55.85 17.41 55.50 18.34 55.15 19.27 54.79 20.19 54.44 21.12 54.08 22.05 53.73 22.98 53.37 23.90 53.01 24.83 52.65 25.76 52.29 26.68 51.93 27.61 51.56 28.53 51.20 29.46 50.84 30.38 50.47 31.31 50.10 32.23 49.74 33.15 49.37 34.08 49.00 35.00 49 35 48.01 34.88 47.02 34.75 46.02 34.63 45.03 34.50 44.04 34.37 43.05 34.24 42.06 34.11 41.06 33.98 40.07 33.85 39.08 33.72 38.09 33.59 37.10 33.45 36.11 33.32 35.12 33.18 34.13 33.04 33.14 32.90 32.15 32.76 31.16 32.62 30.17 32.48 29.18 32.34 28.19 32.20 27.20 32.05 26.21 31.91 25.22 31.76 24.23 31.61 23.24 31.46 22.25 31.32 21.26 31.17 20.27 31.01 19.29 30.86 18.30 30.71 17.31 30.55 16.32 30.40 15.33 30.24 14.35 30.09 13.36 29.93 12.37 29.77 11.39 29.61 10.40 29.45 9.41 29.28 8.42 29.12 7.44 28.96 6.45 28.79 5.47 28.63 4.48 28.46 3.49 28.29 2.51 28.12 1.52 27.95 0.54 27.78 -0.45 27.61 -1.43 27.43 -2.42 27.26 -3.40 27.09 -4.39 26.91 -5.37 26.73 -6.35 26.56 -7.34 26.38 -8.32 26.20 -9.31 26.02 -10.29 25.83 -11.27 25.65 -12.26 25.47 -13.24 25.28 -14.22 25.10 -15.20 24.91 -16.19 24.72 -17.17 24.53 -18.15 24.34 -19.13 24.15 -20.11 23.96 -21.09 23.77 -22.08 23.57 -23.06 23.38 -24.04 23.18 -25.02 22.99 -26.00 22.79 -26.98 22.59 -27.96 22.39 -28.94 22.19 -29.92 21.99 -30.90 21.79 -31.88 21.58 -32.85 21.38 -33.83 21.17 -34.81 20.97 -35.79 20.76 -36.77 20.55 -37.75 20.34 -38.72 20.13 -39.70 19.92 -40.68 19.71 -41.66 19.49 -42.63 19.28 -43.61 19.07 -44.59 18.85 -45.56 18.63 -46.54 18.41 -47.51 18.19 -48.49 17.97 -49.46 17.75 -50.44 17.53 -51.41 17.31 -52.39 17.08 -53.36 16.86 -54.34 16.63 -55.31 16.41 -56.28 16.18 -57.26 15.95 -58.23 15.72 -59.20 15.49 -60.18 15.26 -61.15 15.02 -62.12 14.79 -63.09 14.56 -64.07 14.32 -65.04 14.08 -66.01 13.85 -66.98 13.61 -67.95 13.37 -68.92 13.13 -69.89 12.89 -70.86 12.64 -71.83 12.40 -72.80 12.16 -73.77 11.91 -74.74 11.66 -75.71 11.42 -76.68 11.17 -77.65 10.92 -78.62 10.67 -79.58 10.42 -80.55 10.17 -81.52 9.91 -82.49 9.66 -83.45 9.40 -84.42 9.15 -85.39 8.89 -86.35 8.63 -87.32 8.37 -88.28 8.11 -89.25 7.85 -90.21 7.59 -91.18 7.33 -92.14 7.06 -93.11 6.80 -94.07 6.53 -95.04 6.27 -96.00 6.00 -96 6 -95.63 5.08 -95.26 4.15 -94.90 3.23 -94.53 2.31 -94.16 1.38 -93.80 0.46 -93.44 -0.47 -93.07 -1.39 -92.71 -2.32 -92.35 -3.24 -91.99 -4.17 -91.63 -5.10 -91.27 -6.02 -90.92 -6.95 -90.56 -7.88 -90.21 -8.81 -89.85 -9.73 -89.50 -10.66 -89.15 -11.59 -88.80 -12.52 -88.44 -13.45 -88.09 -14.38 -87.75 -15.31 -87.40 -16.24 -87.05 -17.18 -86.71 -18.11 -86.36 -19.04 -86.02 -19.97 -85.67 -20.90 -85.33 -21.84 -84.99 -22.77 -84.65 -23.70 -84.31 -24.64 -83.97 -25.57 -83.63 -26.51 -83.30 -27.44 -82.96 -28.38 -82.63 -29.31 -82.29 -30.25 -81.96 -31.18 -81.63 -32.12 -81.30 -33.06 -80.97 -34.00 -80.64 -34.93 -80.31 -35.87 -79.98 -36.81 -79.66 -37.75 -79.33 -38.69 -79.01 -39.63 -78.68 -40.57 -78.36 -41.51 -78.04 -42.45 -77.72 -43.39 -77.40 -44.33 -77.08 -45.27 -76.76 -46.21 -76.44 -47.15 -76.13 -48.09 -75.81 -49.04 -75.50 -49.98 -75.18 -50.92 -74.87 -51.86 -74.56 -52.81 -74.25 -53.75 -73.94 -54.70 -73.63 -55.64 -73.32 -56.59 -73.02 -57.53 -72.71 -58.48 -72.41 -59.42 -72.10 -60.37 -71.80 -61.32 -71.50 -62.26 -71.20 -63.21 -70.89 -64.16 -70.60 -65.10 -70.30 -66.05 -70.00 -67.00 -70 -67 Z" opacity="0.9"></path></g><path fill="green" d="M-85 20C  -83.97 20.33 -82.96 19.74 -81.98 19.49 -80.85 19.73 -80.06 18.86 -80 19 -79.05 18.50 -77.97 18.63 -77.01 18.21 -75.98 18.03 -75.03 17.62 -74.37 16.60 -73.14 16.74 -72.59 15.65 -71.30 15.72 -70.73 14.74 -70.07 13.92 -70 14 -69.13 13.50 -68.51 12.63 -67.62 12.15 -66.42 12.13 -66.13 10.80 -64.84 10.88 -64.42 9.75 -63.56 9.23 -62.49 9.01 -62.10 7.85 -60.79 7.92 -60.05 7.23 -59.50 6.31 -58.79 5.60 -58.01 4.96 -57.26 4.29 -56.06 4.20 -55.36 3.47 -54.76 2.62 -54.21 1.71 -53.53 0.96 -52.68 0.43 -51.77 -0.06 -50.97 -0.66 -50.17 -1.27 -49.33 -1.82 -48.86 -2.81 -47.81 -3.13 -47.10 -3.84 -46.79 -4.99 -45.68 -5.25 -44.99 -5.99 -45 -6 -44.65 -7.05 -43.83 -7.64 -43.06 -8.30 -42.63 -9.26 -41.73 -9.79 -41.02 -10.50 -39.92 -10.87 -39.78 -12.08 -38.85 -12.60 -38.24 -13.39 -37.76 -14.30 -36.97 -14.94 -36.46 -15.82 -36.02 -16.76 -34.93 -17.16 -34.82 -18.36 -33.62 -18.68 -33.46 -19.83 -32.38 -20.25 -32.39 -21.54 -31.69 -22.26 -30.64 -22.71 -30.41 -23.79 -29.60 -24.44 -29.02 -25.25 -28.44 -26.07 -27.98 -26.97 -27.46 -27.83 -26.35 -28.28 -25.82 -29.13 -25.36 -30.03 -25.27 -31.19 -25 -31 -24.56 -31.98 -24.00 -32.84 -22.93 -33.31 -22.16 -34.05 -21.93 -35.13 -21.21 -35.93 -21.14 -37.05 -20.49 -37.90 -20.71 -39.07 -20.02 -39.94 -20.40 -41.08 -20 -41 -20.36 -42.03 -19.88 -43.08 -20.19 -44.09 -20.42 -45.11 -21.18 -45.93 -21 -46 -22.04 -45.79 -22.94 -45.16 -24.18 -45.32 -25.01 -44.56 -25.46 -43.40 -26.66 -43.12 -27.08 -42.06 -27 -42 -27.33 -40.96 -28.09 -40.30 -29.20 -39.95 -29.44 -38.83 -30.25 -38.22 -30.84 -37.40 -31.78 -36.90 -32.30 -36.03 -32.81 -35.15 -34.05 -34.92 -34.00 -33.54 -35.21 -33.28 -35.85 -32.52 -36.25 -31.53 -37.06 -30.92 -38.01 -30.44 -38.66 -29.68 -38.90 -28.55 -39.60 -27.83 -40.58 -27.38 -41.26 -26.66 -41.51 -25.52 -42.57 -25.15 -43.51 -24.66 -43.74 -23.51 -44.37 -22.73 -45.25 -22.19 -45.60 -21.15 -46.38 -20.51 -47.51 -20.21 -48.00 -19.30 -48.40 -18.31 -49.54 -18.02 -50.18 -17.25 -50.82 -16.47 -51.43 -15.68 -51.97 -14.81 -52.84 -14.27 -53.67 -13.68 -54.12 -12.73 -54.59 -11.80 -55.32 -11.11 -56.08 -10.46 -57.02 -9.98 -57.96 -9.51 -58.04 -8.19 -59.14 -7.88 -60.03 -7.34 -60.61 -6.52 -60.83 -5.33 -61.73 -4.82 -62.72 -4.40 -62.96 -3.23 -63.63 -2.49 -64.92 -2.37 -65.11 -1.15 -65.86 -0.49 -67.05 -0.27 -67.21 0.98 -68.14 1.46 -69.20 1.81 -69.29 3.14 -70.50 3.33 -71.17 4.08 -71.67 4.99 -72.48 5.59 -72.84 6.64 -74.08 6.80 -74.46 7.85 -75.20 8.51 -75.94 9.18 -76.51 10.03 -77.33 10.62 -77.88 11.48 -78.67 12.10 -79.44 12.74 -80.28 13.31 -81.34 13.65 -81 14 -81.78 14.71 -82.82 15.14 -83.48 16.01 -84.24 16.80 -84.44 17.95 -84.99 18.88 -85.10 19.97 -85 20 Z" transform="translate(-10,5) rotate(60)"></path><path fill="rgba(255,215,0,0.4)" d="M-85 20C  -83.97 19.56 -82.93 20.09 -81.89 19.93 -80.78 19.95 -80.32 18.25 -80 19 -78.84 19.51 -77.95 18.69 -77.04 18.12 -76.37 17.00 -74.81 18.11 -73.97 17.40 -73.49 16.11 -72.27 16.15 -71.12 15.97 -71.07 14.30 -70.01 13.98 -70 14 -69.22 13.37 -68.55 12.57 -68.09 11.49 -66.62 11.85 -66.40 10.42 -65.43 10.06 -64.10 10.19 -63.55 9.25 -62.87 8.49 -61.96 8.03 -61.09 7.52 -59.79 7.58 -60.06 5.58 -58.78 5.61 -57.74 5.31 -57.50 3.99 -56.37 3.81 -54.94 3.98 -54.22 3.28 -53.76 2.25 -53.24 1.31 -52.62 0.50 -51.08 0.75 -50.44 -0.04 -50.49 -1.64 -50.02 -2.61 -48.95 -2.90 -48.32 -3.70 -46.95 -3.68 -45.98 -4.11 -46.39 -6.03 -45.42 -6.45 -45 -6 -44.26 -6.68 -43.12 -6.99 -42.78 -8.04 -42.91 -9.51 -41.47 -9.56 -40.25 -9.81 -40.80 -11.64 -39.48 -11.82 -38.32 -12.14 -38.17 -13.33 -36.93 -13.60 -37.21 -15.14 -36.13 -15.55 -36.52 -17.16 -34.95 -17.17 -34.79 -18.33 -33.91 -18.91 -33.47 -19.84 -31.89 -19.88 -31.30 -20.69 -30.84 -21.61 -30.73 -22.79 -29.61 -23.20 -29.84 -24.62 -29.15 -25.35 -28.47 -26.10 -28.19 -27.13 -26.58 -27.21 -27.24 -28.90 -25.45 -28.87 -24.96 -29.76 -25.21 -31.14 -25 -31 -23.95 -31.45 -24.14 -32.95 -23.32 -33.59 -22.58 -34.32 -21.80 -35.06 -22.24 -36.45 -21.19 -37.07 -21.29 -38.21 -19.85 -38.80 -20.77 -40.14 -20.76 -41.16 -20 -41 -20.36 -42.03 -20.21 -43.04 -21.04 -43.92 -21.36 -44.81 -20.19 -46.35 -21 -46 -21.93 -45.33 -23.09 -45.57 -24.38 -45.72 -24.32 -43.53 -26.25 -44.33 -26.54 -43.01 -26.60 -41.71 -27 -42 -27.62 -41.21 -28.34 -40.52 -29.68 -40.39 -30.11 -39.43 -30.54 -38.47 -31.37 -37.88 -31.99 -37.09 -32.72 -36.41 -32.97 -35.29 -33.39 -34.33 -34.15 -33.67 -35.71 -33.74 -35.07 -31.81 -36.45 -31.72 -36.49 -30.40 -38.01 -30.44 -38.15 -29.22 -39.20 -28.82 -40.32 -28.51 -40.96 -27.74 -40.41 -25.86 -42.39 -26.34 -41.80 -24.43 -43.35 -24.51 -43.14 -22.95 -45.07 -23.39 -45.44 -22.37 -45.79 -21.33 -46.41 -20.54 -46.66 -19.40 -47.88 -19.18 -49.00 -18.87 -50.01 -18.46 -49.91 -16.99 -50.13 -15.82 -51.44 -15.69 -52.34 -15.17 -53.05 -14.47 -53.79 -13.80 -54.36 -12.96 -55.47 -12.65 -55.26 -11.05 -56.94 -11.29 -57.54 -10.49 -58.07 -9.62 -58.12 -8.27 -58.37 -7.11 -59.77 -7.10 -59.74 -5.67 -61.79 -6.28 -61.59 -4.68 -62.31 -3.99 -63.25 -3.51 -64.10 -2.95 -65.02 -2.46 -64.64 -0.68 -66.54 -1.17 -66.90 -0.12 -67.30 0.90 -68.62 0.99 -68.25 2.77 -70.17 2.25 -70.52 3.32 -70.57 4.69 -71.42 5.25 -71.93 6.15 -73.06 6.42 -74.38 6.51 -74.33 7.98 -75.62 8.08 -75.88 9.25 -76.19 10.36 -76.92 11.04 -78.10 11.25 -78.40 12.38 -79.81 12.36 -79.64 13.97 -81.37 13.62 -81 14 -82.38 13.94 -82.29 15.69 -82.87 16.52 -83.49 17.30 -84.14 18.11 -84.13 19.22 -84.45 20.15 -85 20 Z" stroke="rgba(255,215,0,0.7)" stroke-width="0.75px" transform="translate(-10,5) rotate(60)"></path><path fill="green" d="M-85 20C  -83.97 20.31 -82.91 20.26 -81.89 19.94 -81.06 19.03 -80.01 18.98 -80 19 -78.95 18.97 -77.95 18.69 -77.03 18.17 -75.88 18.29 -75.15 17.33 -74.03 17.29 -73.35 16.36 -72.51 15.77 -71.41 15.55 -70.80 14.65 -69.96 14.05 -70 14 -69.40 13.10 -68.38 12.82 -67.47 12.38 -66.85 11.51 -66.01 10.97 -65.08 10.55 -64.09 10.21 -63.20 9.73 -62.74 8.67 -61.96 8.03 -61.18 7.40 -60.49 6.66 -59.53 6.27 -58.48 5.99 -57.64 5.44 -57.38 4.15 -56.41 3.76 -55.62 3.14 -54.89 2.46 -53.75 2.27 -52.99 1.60 -52.38 0.78 -51.84 -0.14 -51.02 -0.72 -50.06 -1.14 -49.50 -2.02 -48.75 -2.68 -48.05 -3.40 -47.47 -4.25 -46.27 -4.42 -45.56 -5.13 -44.96 -5.96 -45 -6 -44.55 -6.95 -43.69 -7.52 -42.67 -7.94 -42.41 -9.06 -41.89 -9.93 -40.90 -10.40 -40.02 -10.95 -39.73 -12.04 -38.72 -12.48 -37.98 -13.17 -37.41 -14.00 -37.24 -15.17 -36.55 -15.89 -35.52 -16.34 -35.31 -17.46 -34.23 -17.89 -34.00 -18.98 -33.31 -19.71 -32.44 -20.30 -31.65 -20.96 -31.32 -21.97 -30.45 -22.57 -30.33 -23.73 -29.42 -24.30 -28.84 -25.12 -28.30 -25.97 -27.49 -26.63 -27.51 -27.87 -27.01 -28.74 -25.92 -29.20 -25.18 -29.91 -24.87 -30.91 -25 -31 -24.08 -31.56 -24.01 -32.84 -23.17 -33.48 -22.32 -34.16 -21.67 -34.98 -21.70 -36.17 -20.98 -36.98 -20.59 -37.94 -20.62 -39.04 -19.94 -39.92 -20.35 -41.07 -20 -41 -20.13 -42.03 -19.83 -43.08 -19.83 -44.16 -20.38 -45.12 -21.32 -45.86 -21 -46 -22.01 -45.65 -22.99 -45.30 -23.94 -44.84 -24.79 -44.23 -25.37 -43.30 -26.09 -42.59 -27.30 -42.22 -27 -42 -27.61 -41.21 -28.48 -40.64 -28.64 -39.45 -30.00 -39.33 -30.43 -38.38 -31.22 -37.74 -32.02 -37.12 -31.98 -35.74 -33.19 -35.50 -33.76 -34.66 -34.13 -33.65 -34.80 -32.91 -35.93 -32.60 -36.13 -31.43 -37.40 -31.23 -37.97 -30.41 -38.52 -29.55 -39.36 -28.97 -39.39 -27.64 -40.33 -27.16 -41.00 -26.41 -41.91 -25.89 -42.45 -25.04 -43.47 -24.62 -44.07 -23.82 -44.48 -22.84 -45.12 -22.07 -45.76 -21.30 -46.80 -20.91 -47.07 -19.80 -47.67 -18.98 -48.43 -18.33 -49.64 -18.11 -49.76 -16.85 -50.67 -16.33 -51.58 -15.83 -52.24 -15.08 -52.52 -13.96 -53.11 -13.14 -54.21 -12.82 -54.92 -12.11 -55.80 -11.58 -56.22 -10.60 -56.90 -9.87 -57.61 -9.16 -58.15 -8.29 -59.01 -7.75 -60.01 -7.33 -60.27 -6.18 -60.97 -5.48 -62.08 -5.16 -62.45 -4.13 -63.50 -3.77 -63.62 -2.48 -64.47 -1.92 -65.59 -1.62 -65.91 -0.54 -66.85 -0.07 -67.14 1.06 -68.13 1.47 -68.79 2.22 -69.56 2.87 -70.39 3.45 -70.66 4.59 -71.57 5.10 -72.59 5.48 -72.97 6.52 -74.05 6.84 -74.49 7.82 -75.58 8.13 -75.97 9.15 -76.77 9.77 -77.09 10.87 -78.41 10.94 -78.96 11.80 -79.31 12.87 -80.25 13.34 -81.15 13.84 -81 14 -81.85 14.62 -82.45 15.52 -83.30 16.16 -83.91 17.03 -84.42 17.96 -84.64 19.02 -85.43 19.88 -85 20 Z" transform="translate(5,15) rotate(50)"></path><path fill="rgba(255,215,0,0.4)" d="M-85 20C  -83.97 20.03 -82.91 20.28 -82.12 18.78 -81.19 18.64 -79.65 19.81 -80 19 -79.13 18.11 -78.15 17.94 -77.16 17.77 -75.77 18.59 -75.31 16.97 -73.99 17.37 -73.54 16.02 -71.99 16.59 -71.54 15.38 -70.73 14.74 -69.77 14.26 -70 14 -69.51 12.93 -68.12 13.20 -68.05 11.54 -66.40 12.16 -65.65 11.48 -64.70 11.08 -64.83 9.19 -63.50 9.32 -62.36 9.18 -62.31 7.56 -60.50 8.30 -60.48 6.67 -59.38 6.47 -58.38 6.12 -57.57 5.52 -56.69 5.02 -56.91 3.13 -55.56 3.22 -55.22 2.06 -53.87 2.12 -53.14 1.43 -52.10 1.11 -51.85 -0.15 -51.18 -0.90 -50.14 -1.22 -49.82 -2.38 -48.57 -2.48 -48.41 -3.80 -47.41 -4.19 -46.40 -4.56 -45.56 -5.14 -45.01 -6.01 -45 -6 -44.84 -7.22 -43.84 -7.66 -42.43 -7.72 -42.34 -8.99 -41.82 -9.87 -40.92 -10.41 -39.87 -10.83 -39.03 -11.42 -38.75 -12.51 -38.56 -13.67 -37.01 -13.67 -36.60 -14.63 -35.88 -15.34 -36.09 -16.81 -35.80 -17.86 -34.34 -17.97 -33.68 -18.72 -33.97 -20.23 -33.40 -21.05 -31.91 -21.16 -31.90 -22.41 -30.87 -22.89 -29.60 -23.19 -29.39 -24.28 -29.30 -25.46 -29.12 -26.57 -27.41 -26.57 -27.85 -28.11 -26.12 -28.12 -26.92 -29.90 -25.78 -30.32 -24.88 -30.92 -25 -31 -24.70 -32.11 -23.22 -32.22 -23.11 -33.44 -22.75 -34.43 -22.22 -35.30 -21.93 -36.29 -20.49 -36.76 -20.29 -37.83 -20.28 -38.93 -20.38 -40.04 -19.80 -40.96 -20 -41 -19.47 -42.03 -20.80 -42.99 -20.73 -43.98 -21.47 -44.78 -21.84 -45.64 -21 -46 -21.89 -45.18 -23.27 -46.05 -23.83 -44.63 -24.83 -44.28 -25.90 -43.92 -26.41 -42.89 -26.21 -41.42 -27 -42 -28.05 -41.60 -28.09 -40.30 -29.66 -40.36 -30.08 -39.40 -30.22 -38.19 -31.03 -37.57 -31.03 -36.23 -32.18 -35.93 -32.54 -34.90 -33.28 -34.23 -33.87 -33.42 -35.53 -33.58 -35.89 -32.56 -35.90 -31.22 -37.24 -31.09 -37.43 -29.91 -38.65 -29.68 -39.23 -28.85 -39.17 -27.44 -40.82 -27.61 -40.92 -26.34 -41.22 -25.25 -42.63 -25.20 -42.94 -24.13 -43.25 -23.05 -43.81 -22.21 -44.57 -21.56 -46.02 -21.54 -46.83 -20.94 -46.97 -19.70 -47.65 -18.96 -48.61 -18.50 -49.38 -17.86 -49.69 -16.77 -50.53 -16.20 -51.55 -15.79 -51.50 -14.36 -52.15 -13.61 -54.02 -14.02 -53.87 -12.49 -55.15 -12.33 -55.75 -11.53 -56.19 -10.57 -57.56 -10.51 -58.05 -9.59 -57.80 -7.96 -59.21 -7.94 -59.31 -6.64 -60.99 -6.90 -60.60 -5.11 -61.19 -4.29 -62.42 -4.10 -62.61 -2.89 -64.06 -2.92 -64.90 -2.35 -65.22 -1.26 -66.25 -0.87 -66.23 0.56 -67.77 0.43 -67.48 2.13 -69.22 1.79 -69.80 2.63 -70.18 3.66 -70.79 4.47 -71.90 4.76 -72.79 5.27 -73.30 6.18 -74.10 6.79 -74.12 8.19 -75.27 8.44 -75.99 9.14 -76.04 10.51 -77.78 10.16 -78.00 11.36 -78.32 12.47 -80.00 12.16 -79.60 14.01 -80.56 14.46 -81 14 -81.79 14.70 -82.39 15.59 -83.46 16.03 -84.42 16.69 -84.84 17.74 -85.19 18.80 -84.66 20.09 -85 20 Z" stroke="rgba(255,215,0,0.7)" stroke-width="0.75px" transform="translate(5,15) rotate(50)"></path><path fill="green" d="M-85 20C  -83.97 19.59 -82.98 19.49 -81.89 19.92 -80.97 19.34 -80.07 18.82 -80 19 -79.09 18.31 -78.01 18.49 -76.95 18.40 -75.93 18.18 -74.92 17.87 -74.11 17.13 -73.49 16.11 -72.37 15.99 -71.76 15.06 -70.59 14.91 -69.95 14.06 -70 14 -69.36 13.16 -68.08 13.25 -67.45 12.41 -66.44 12.10 -65.61 11.53 -65.03 10.63 -64.08 10.22 -63.30 9.60 -62.46 9.04 -61.71 8.37 -61.19 7.39 -60.38 6.80 -59.50 6.31 -58.68 5.73 -58.05 4.91 -56.96 4.68 -56.10 4.14 -55.48 3.32 -54.81 2.55 -53.71 2.31 -53.02 1.58 -52.45 0.69 -51.91 -0.21 -51.20 -0.92 -49.89 -0.95 -49.57 -2.10 -48.98 -2.94 -47.99 -3.33 -46.92 -3.64 -46.17 -4.32 -45.81 -5.40 -44.94 -5.94 -45 -6 -44.41 -6.82 -43.98 -7.79 -43.19 -8.42 -42.15 -8.82 -41.72 -9.78 -40.68 -10.20 -40.20 -11.11 -39.52 -11.85 -39.08 -12.79 -38.11 -13.28 -37.52 -14.10 -37.23 -15.16 -36.41 -15.78 -35.82 -16.59 -35.37 -17.52 -34.34 -17.98 -33.93 -18.93 -33.20 -19.63 -32.98 -20.73 -32.10 -21.31 -31.54 -22.14 -30.90 -22.91 -30.34 -23.74 -29.53 -24.39 -29.32 -25.48 -28.40 -26.05 -27.83 -26.87 -27.12 -27.59 -26.55 -28.42 -25.78 -29.10 -25.16 -29.90 -24.62 -30.74 -25 -31 -24.68 -32.09 -23.77 -32.66 -23.49 -33.71 -22.28 -34.13 -21.85 -35.09 -21.39 -36.02 -21.25 -37.09 -20.68 -37.97 -20.87 -39.12 -20.01 -39.94 -19.63 -40.92 -20 -41 -19.68 -42.03 -20.54 -43.01 -20.42 -44.04 -20.49 -45.09 -20.85 -46.07 -21 -46 -22.14 -46.21 -23.12 -45.64 -23.76 -44.50 -25.01 -44.55 -25.83 -43.83 -26.60 -43.06 -26.69 -41.77 -27 -42 -27.52 -41.12 -28.70 -40.85 -28.86 -39.65 -29.34 -38.74 -30.23 -38.20 -31.11 -37.65 -31.78 -36.91 -32.20 -35.94 -33.05 -35.37 -33.93 -34.81 -34.02 -33.55 -35.31 -33.38 -35.93 -32.59 -36.52 -31.78 -36.75 -30.64 -37.36 -29.84 -38.59 -29.62 -38.85 -28.50 -39.64 -27.87 -40.07 -26.91 -41.08 -26.49 -41.68 -25.68 -42.82 -25.38 -42.88 -24.07 -44.00 -23.76 -44.70 -23.04 -44.91 -21.87 -46.20 -21.72 -46.51 -20.64 -47.03 -19.75 -47.90 -19.21 -48.96 -18.84 -49.43 -17.90 -50.35 -17.41 -50.53 -16.20 -51.11 -15.38 -52.00 -14.84 -52.67 -14.10 -53.66 -13.68 -54.13 -12.74 -55.01 -12.20 -55.51 -11.30 -56.07 -10.45 -57.06 -10.02 -57.90 -9.44 -58.41 -8.56 -59.00 -7.74 -59.65 -6.97 -60.75 -6.66 -61.18 -5.68 -62.05 -5.14 -62.85 -4.52 -63.21 -3.48 -63.83 -2.69 -64.55 -2.00 -65.51 -1.54 -66.33 -0.95 -66.51 0.27 -67.13 1.07 -67.88 1.73 -68.98 2.03 -69.55 2.88 -70.38 3.46 -70.89 4.36 -71.83 4.83 -72.51 5.56 -72.89 6.60 -73.49 7.41 -74.80 7.50 -75.14 8.58 -75.97 9.15 -76.41 10.13 -77.76 10.18 -78.17 11.19 -78.75 12.03 -79.47 12.72 -80.39 13.20 -81.19 13.81 -81 14 -82.12 14.28 -82.43 15.54 -82.94 16.46 -83.65 17.20 -83.89 18.24 -84.90 18.91 -85.23 19.94 -85 20 Z" transform="translate(17,-7) rotate(10)"></path><path fill="rgba(255,215,0,0.4)" d="M-85 20C  -83.96 19.27 -82.87 20.69 -82.01 19.30 -81.13 18.82 -80.08 18.80 -80 19 -79.17 17.92 -78.00 18.52 -77.01 18.24 -76.36 17.04 -75.16 17.32 -74.01 17.34 -72.96 17.05 -72.72 15.44 -72.04 14.68 -70.60 14.90 -69.81 14.21 -70 14 -69.02 13.66 -68.03 13.33 -67.80 11.90 -66.56 11.93 -66.46 10.34 -64.87 10.85 -63.91 10.46 -63.22 9.71 -62.28 9.28 -62.10 7.85 -61.22 7.35 -60.80 6.26 -59.93 5.75 -58.18 6.37 -57.82 5.20 -56.89 4.77 -56.73 3.36 -55.81 2.91 -55.22 2.05 -54.10 1.84 -53.25 1.30 -52.44 0.71 -51.23 0.58 -50.35 0.06 -49.59 -0.60 -48.83 -1.26 -48.40 -2.29 -47.57 -2.87 -47.82 -4.63 -46.40 -4.56 -46.23 -5.85 -45.21 -6.23 -45 -6 -44.23 -6.65 -43.35 -7.20 -43.15 -8.38 -41.70 -8.41 -41.68 -9.75 -40.52 -10.06 -40.35 -11.25 -40.24 -12.48 -38.83 -12.58 -37.90 -13.10 -37.81 -14.34 -37.35 -15.26 -35.98 -15.42 -36.42 -17.09 -35.22 -17.40 -34.47 -18.07 -33.42 -18.52 -34.03 -20.28 -33.17 -20.87 -32.78 -21.83 -31.39 -22.02 -30.45 -22.57 -29.83 -23.36 -29.12 -24.08 -29.14 -25.34 -29.04 -26.51 -28.64 -27.45 -27.46 -27.83 -26.38 -28.30 -26.44 -29.56 -25.37 -30.04 -25.43 -31.29 -25 -31 -24.36 -31.81 -23.17 -32.18 -22.49 -33.00 -21.82 -33.84 -21.22 -34.73 -21.85 -36.25 -20.25 -36.66 -19.86 -37.66 -21.30 -39.26 -19.91 -39.91 -19.84 -40.97 -20 -41 -20.79 -42.04 -20.27 -43.04 -20.38 -44.05 -20.42 -45.11 -21.90 -45.62 -21 -46 -22.01 -45.65 -22.77 -44.69 -23.83 -44.63 -25.19 -44.84 -25.67 -43.66 -25.74 -42.26 -27.76 -42.55 -27 -42 -27.20 -40.85 -28.18 -40.38 -28.75 -39.55 -30.38 -39.67 -30.87 -38.77 -30.77 -37.34 -32.16 -37.25 -31.71 -35.50 -32.95 -35.28 -33.69 -34.60 -35.06 -34.50 -34.86 -32.97 -36.06 -32.71 -36.91 -32.14 -36.80 -30.68 -37.73 -30.18 -38.79 -29.81 -39.72 -29.30 -39.87 -28.08 -39.90 -26.76 -41.00 -26.41 -41.91 -25.90 -41.78 -24.41 -43.80 -24.93 -44.13 -23.88 -45.14 -23.46 -44.91 -21.87 -45.64 -21.19 -46.53 -20.65 -46.98 -19.71 -47.80 -19.11 -48.21 -18.12 -48.88 -17.38 -49.91 -16.98 -50.18 -15.86 -51.78 -16.01 -51.93 -14.78 -53.14 -14.56 -53.83 -13.84 -54.81 -13.40 -54.56 -11.77 -54.84 -10.65 -55.95 -10.33 -57.34 -10.29 -57.65 -9.21 -57.78 -7.94 -59.32 -8.05 -60.31 -7.62 -60.07 -5.99 -61.21 -5.71 -61.59 -4.68 -61.82 -3.51 -63.23 -3.50 -63.97 -2.83 -65.19 -2.64 -64.85 -0.88 -65.68 -0.31 -67.22 -0.43 -67.92 0.28 -68.20 1.40 -68.96 2.06 -69.23 3.21 -70.11 3.73 -71.54 3.70 -71.01 5.66 -71.86 6.23 -73.48 5.99 -73.45 7.45 -74.73 7.57 -75.43 8.28 -75.47 9.67 -76.86 9.67 -76.74 11.23 -78.44 10.91 -79.12 11.64 -79.84 12.33 -80.43 13.15 -80.95 14.06 -81 14 -81.36 15.24 -83.23 14.72 -83.49 16.00 -83.86 17.06 -85.12 17.59 -84.88 18.92 -84.20 20.22 -85 20 Z" stroke="rgba(255,215,0,0.7)" stroke-width="0.75px" transform="translate(17,-7) rotate(10)"></path><g transform="translate(-50,0)"><path fill="#e74c3c" d="M140 -60C  140.43 -60.89 140.84 -61.80 141.23 -62.71 141.60 -63.63 141.96 -64.55 142.29 -65.49 142.61 -66.43 142.91 -67.37 143.19 -68.32 143.45 -69.28 143.69 -70.24 143.92 -71.21 144.12 -72.18 144.31 -73.15 144.47 -74.13 144.62 -75.11 144.74 -76.09 144.85 -77.08 144.94 -78.07 145.01 -79.05 145.05 -80.04 145.08 -81.04 145.09 -82.03 145.08 -83.02 145.05 -84.01 145.00 -85.00 145 -85 144.96 -85.99 144.84 -86.98 144.63 -87.95 144.35 -88.90 143.99 -89.82 143.55 -90.71 143.05 -91.56 142.47 -92.37 141.83 -93.13 141.13 -93.83 140.37 -94.47 139.56 -95.05 138.71 -95.55 137.82 -95.99 136.90 -96.35 135.95 -96.63 134.98 -96.84 133.99 -96.96 133.00 -97.00 133 -97 132.18 -96.50 131.50 -95.82 131.00 -95.00 131 -95 130.99 -93.99 130.98 -92.97 130.99 -91.96 131.00 -90.95 131.03 -89.94 131.07 -88.92 131.11 -87.91 131.17 -86.90 131.24 -85.89 131.32 -84.88 131.40 -83.87 131.50 -82.87 131.61 -81.86 131.73 -80.85 131.86 -79.85 132.00 -78.84 132.15 -77.84 132.31 -76.84 132.48 -75.84 132.65 -74.85 132.84 -73.85 133.04 -72.86 133.25 -71.87 133.47 -70.88 133.70 -69.89 133.94 -68.91 134.19 -67.93 134.45 -66.95 134.72 -65.97 135.00 -65.00 135 -65 Z"></path><path fill="#ec7063" d="M140 -60C  140.66 -60.75 141.31 -61.51 141.94 -62.29 142.56 -63.08 143.16 -63.88 143.74 -64.69 144.31 -65.52 144.86 -66.36 145.40 -67.20 145.91 -68.06 146.41 -68.93 146.90 -69.80 147.36 -70.69 147.81 -71.59 148.24 -72.49 148.65 -73.40 149.04 -74.33 149.41 -75.25 149.77 -76.19 150.11 -77.13 150.42 -78.08 150.72 -79.04 151.00 -80.00 151 -80 151.35 -80.95 151.62 -81.93 151.81 -82.93 151.91 -83.94 151.93 -84.95 151.86 -85.97 151.71 -86.97 151.47 -87.96 151.15 -88.92 150.75 -89.85 150.27 -90.75 149.72 -91.60 149.09 -92.40 148.41 -93.15 147.66 -93.83 146.85 -94.45 146.00 -95.00 146 -95 145.09 -94.78 144.26 -94.36 143.55 -93.75 143.00 -93.00 143 -93 142.54 -92.10 142.09 -91.20 141.65 -90.29 141.22 -89.37 140.81 -88.45 140.41 -87.52 140.03 -86.59 139.66 -85.65 139.30 -84.70 138.96 -83.75 138.63 -82.80 138.31 -81.84 138.01 -80.88 137.72 -79.91 137.45 -78.94 137.19 -77.96 136.94 -76.98 136.71 -76.00 136.49 -75.01 136.29 -74.02 136.10 -73.03 135.92 -72.04 135.76 -71.04 135.62 -70.04 135.49 -69.04 135.37 -68.04 135.27 -67.03 135.18 -66.02 135.10 -65.02 135.04 -64.01 135.00 -63.00 135 -63 Z"></path><path fill="#dc7633" d="M125 -43C  125.80 -43.59 126.60 -44.19 127.38 -44.80 128.14 -45.43 128.90 -46.08 129.64 -46.74 130.37 -47.42 131.08 -48.11 131.79 -48.82 132.47 -49.54 133.15 -50.27 133.80 -51.01 134.45 -51.77 135.07 -52.54 135.69 -53.33 136.28 -54.12 136.86 -54.93 137.43 -55.75 137.98 -56.58 138.51 -57.42 139.02 -58.27 139.52 -59.13 140.00 -60.00 140 -60 139.66 -60.94 139.23 -61.85 138.71 -62.71 138.11 -63.51 137.43 -64.25 136.68 -64.91 135.87 -65.50 135.00 -66.00 135 -66 134.15 -65.50 133.32 -64.99 132.49 -64.46 131.67 -63.92 130.87 -63.36 130.07 -62.78 129.29 -62.19 128.52 -61.58 127.76 -60.96 127.01 -60.32 126.27 -59.67 125.55 -59.01 124.84 -58.33 124.15 -57.63 123.47 -56.93 122.80 -56.21 122.15 -55.47 121.51 -54.73 120.89 -53.97 120.28 -53.20 119.69 -52.41 119.11 -51.62 118.55 -50.82 118.00 -50.00 118 -50 Z"></path><path fill="gold" d="M0 0C  -0.71 2.07 2.36 0.54 2.30 1.99 1.99 3.70 3.61 3.54 4.70 3.88 4.62 5.38 4.90 6.53 5.59 7.27 6.02 8.28 6.74 9.01 7.62 9.56 9.74 8.81 11.10 8.84 10 10 10.98 10.60 11.95 11.55 13.01 9.70 13.98 10.88 14.97 11.35 16.02 9.01 16.98 11.39 18.01 8.87 19.01 8.88 20.00 11.85 21.00 11.47 22.01 11.70 22.98 8.35 23.99 9.28 24.97 8.29 26.02 10.83 27.00 10.04 27.97 9.01 28.99 9.70 29.93 8.21 30 10 30.82 8.53 31.74 7.91 32.79 8.35 33.72 7.88 34.69 7.70 35.91 9.10 37.02 9.71 37.97 9.33 38.63 7.30 39.93 8.94 40.90 8.70 41.78 8.00 43.15 9.69 43.63 7.12 45.06 9.01 45.46 6.19 47.09 8.84 47.32 5.46 48.97 8.02 49.75 7.02 50.06 4.23 51.09 4.28 52.47 5.57 53.84 6.76 54.69 6.06 54.84 3.07 56.57 5.36 57.66 5.48 58.06 3.42 59.31 4.06 59.92 2.71 61.00 2.83 62.46 3.99 63.29 3.31 64.04 2.43 64.59 1.05 65.69 1.13 66.86 1.41 66.93 -1.15 68.57 0.29 69.18 -0.85 70.15 -1.09 71.21 -1.15 72.17 -1.43 73.89 -0.01 73.23 -3.95 75.58 -1.16 75.68 -3.34 76.19 -4.59 77.09 -5.01 77.84 -5.73 79.84 -3.90 80.54 -4.75 81.24 -5.58 82.28 -5.75 83.07 -6.39 84.60 -5.65 83.83 -9.16 85.41 -8.34 87.12 -7.33 86.98 -9.61 87.82 -10.13 88.60 -10.77 90.46 -9.59 90.60 -11.28 92.50 -10.11 93.14 -10.98 93.59 -12.15 93.60 -13.98 95.02 -13.62 95.22 -15.12 97.05 -14.19 96.67 -16.51 98.87 -15.08 98.93 -16.73 98.76 -18.69 100.47 -18.00 102.33 -17.15 102.57 -18.50 103.26 -19.26 103.64 -20.41 104.72 -20.63 106.34 -20.19 106.55 -21.54 105.95 -23.88 107.21 -23.89 107.75 -24.80 109.00 -24.84 110.26 -24.90 110.63 -26.00 111.15 -26.92 113.39 -25.89 113.92 -26.80 113.13 -29.17 114.54 -29.10 115.56 -29.47 116.99 -29.41 117.14 -30.71 117.01 -32.28 117.80 -32.89 118.11 -33.99 118.33 -35.16 120.36 -34.56 120.37 -35.94 120.50 -37.18 122.43 -36.73 121.62 -38.83 123.18 -38.74 125.71 -37.81 125.78 -39.10 124.24 -41.78 125.57 -41.92 128.16 -41.03 126.28 -43.92 129.53 -42.51 127.84 -45.19 129.52 -45.11 130.11 -45.91 130 -46 129.65 -47.00 131.95 -47.99 130.78 -49.00 131.59 -50.01 130.07 -51.00 130 -51 130.44 -52.90 128.85 -52.71 128.12 -53.41 128.44 -55.16 125.16 -53.31 127.12 -56.67 124.89 -55.89 125 -56 124.00 -56.43 123.01 -54.69 122.00 -56.31 121.00 -56.75 120.01 -56.80 120 -56 118.41 -56.73 117.50 -56.32 117.60 -54.16 116.32 -54.37 116.61 -51.88 114.52 -53.50 114.56 -51.42 112.26 -53.45 111.64 -52.53 111.55 -50.65 111.15 -49.30 109.45 -50.30 108.80 -49.42 107.27 -50.13 107.70 -47.26 105.77 -48.72 105.48 -47.14 103.42 -48.88 102.67 -48.17 102.24 -46.85 102.07 -45.04 99.88 -47.08 100.36 -43.97 99.78 -42.92 98.64 -42.95 98.00 -41.99 95.59 -44.54 95.92 -41.65 95.00 -41.26 93.51 -42.01 93.49 -39.79 91.79 -40.98 90.77 -40.80 90.89 -38.25 89.70 -38.42 88.40 -38.82 87.08 -39.27 86.87 -37.36 85.11 -38.76 83.94 -38.91 83.56 -37.38 83.53 -35.04 82.10 -35.77 80.74 -36.35 79.79 -36.02 78.67 -36.09 78.57 -33.86 77.40 -34.03 76.54 -33.50 75.30 -33.84 75.37 -31.17 73.62 -32.71 72.18 -33.54 71.47 -32.66 70.33 -32.80 69.73 -31.66 70 -31 68.27 -32.40 67.53 -31.61 67.40 -29.40 65.84 -30.48 65.02 -29.86 64.65 -28.13 64.17 -26.65 62.37 -28.40 62.18 -26.16 60.49 -27.69 59.53 -27.38 58.66 -26.84 57.95 -25.88 56.55 -26.76 56.23 -24.73 54.97 -25.23 54.16 -24.51 53.59 -23.08 52.16 -24.14 51.68 -22.41 50.13 -23.87 49.28 -23.23 47.91 -24.21 47.19 -23.16 46.06 -23.42 45.14 -23.02 44.67 -21.10 43.04 -23.08 42.24 -22.24 41.19 -22.30 40.45 -21.20 40.02 -18.95 39.02 -18.79 37.35 -21.18 37.04 -18.33 36.23 -17.39 34.77 -19.12 34.09 -17.60 32.51 -19.95 31.61 -19.40 30.98 -17.62 29.64 -19.03 28.52 -19.49 27.88 -17.63 27.19 -16.00 25.64 -18.63 25.09 -16.19 24.15 -15.73 23.05 -16.12 21.79 -17.48 21.02 -15.99 20.25 -14.48 20 -16 19.04 -15.31 17.98 -16.55 17.03 -15.97 15.99 -16.32 15.09 -15.48 14.24 -14.50 13.22 -14.70 12.13 -15.22 11.23 -14.67 10.23 -14.63 9.29 -14.28 8.22 -14.47 7.09 -14.79 6.55 -13.16 5.77 -12.41 4.51 -13.05 3.53 -12.82 2.58 -12.54 2.01 -11.33 0.84 -11.55 -0.12 -11.26 0 -11 -1.50 -9.86 0.90 -9.06 0.56 -8.02 -0.09 -6.99 -0.77 -5.99 1.32 -4.99 -0.98 -4.03 1.67 -2.92 -0.59 -2.05 -1.82 -1.16 0 -1 Z"></path></g><g transform="translate(25,5) rotate(-15)"><path fill="#490d00" d="M0 0C  0.20 -0.99 0.34 -1.99 0.40 -2.99 0.35 -4.02 0.62 -5.00 0.77 -6.00 1.15 -6.95 1.44 -7.91 1.67 -8.90 2.24 -9.77 2.47 -10.75 2.92 -11.66 3.43 -12.53 3.85 -13.44 4.22 -14.38 4.75 -15.23 5.02 -16.24 5.77 -16.96 6.22 -17.87 6.98 -18.57 7.40 -19.50 8.08 -20.24 8.63 -21.10 9.41 -21.75 9.90 -22.67 10.69 -23.31 11.31 -24.12 12.24 -24.60 12.99 -25.27 13.74 -25.94 14.42 -26.70 15.42 -27.05 16.17 -27.73 17.09 -28.15 17.76 -28.98 18.62 -29.50 19.53 -29.96 20.46 -30.36 21.35 -30.82 22.38 -31.01 23.26 -31.50 24.14 -32.00 25.16 -32.16 26.05 -32.67 27.09 -32.72 28.00 -33.21 29.00 -33.36 29.99 -33.58 31.00 -33.64 32.01 -33.70 33.01 -33.77 33.99 -34.12 34 -34 34.99 -34.03 35.98 -34.24 36.97 -34.06 37.97 -34.11 38.96 -33.97 39.93 -33.77 40.91 -33.60 41.90 -33.51 42.86 -33.29 43.85 -33.16 44.81 -32.93 45.74 -32.56 46.75 -32.49 47.62 -31.94 48.65 -31.86 49.53 -31.38 50.34 -30.77 51.37 -30.62 52.14 -29.94 53.00 -29.45 53.84 -28.92 54.82 -28.63 55.58 -27.97 56.36 -27.35 57.09 -26.68 57.82 -26.00 58.53 -25.32 59.50 -24.91 60.01 -24.01 60.87 -23.47 61.53 -22.72 62.17 -21.96 62.61 -21.03 63.23 -20.27 64.06 -19.65 64.34 -18.63 65.18 -18.00 65.39 -16.96 65.98 -16.16 66.45 -15.29 67.01 -14.46 67.32 -13.51 67.73 -12.60 67.89 -11.60 68.37 -10.72 68.50 -9.72 68.91 -8.81 69.30 -7.88 69.53 -6.91 69.43 -5.88 69.78 -4.94 70.00 -3.96 69.83 -2.94 70.09 -1.97 70.17 -0.98 69.89 0.02 70.21 1.01 70.16 2.01 70 2 69.73 2.98 69.95 3.99 69.85 4.98 69.53 5.94 69.47 6.94 69.14 7.88 68.95 8.86 68.54 9.78 68.22 10.71 68.01 11.68 67.70 12.62 67.44 13.59 66.95 14.46 66.43 15.31 66.33 16.36 65.66 17.14 65.06 17.94 64.55 18.78 64.04 19.63 63.73 20.61 62.93 21.27 62.37 22.08 61.92 22.99 61.09 23.59 60.61 24.49 59.80 25.10 59.20 25.90 58.34 26.44 57.67 27.18 56.94 27.85 56.10 28.39 55.44 29.16 54.52 29.59 53.62 30.02 52.88 30.70 51.99 31.15 51.23 31.82 50.28 32.15 49.29 32.40 48.52 33.09 47.56 33.38 46.64 33.75 45.70 34.07 44.76 34.40 43.80 34.62 42.80 34.74 41.84 34.98 40.92 35.40 39.96 35.69 38.97 35.78 37.99 35.98 36.98 35.97 35.98 35.85 34.99 35.87 34.00 35.95 34 36 33.00 36.09 32.00 35.81 31.00 36.02 29.99 36.07 29.01 35.77 28.03 35.56 27.02 35.56 26.05 35.33 25.05 35.19 24.13 34.75 23.20 34.38 22.19 34.25 21.26 33.91 20.37 33.44 19.35 33.28 18.50 32.73 17.60 32.30 16.80 31.67 15.86 31.30 14.96 30.85 14.13 30.29 13.29 29.75 12.64 28.94 11.90 28.27 10.92 27.88 10.24 27.14 9.64 26.32 8.93 25.62 8.07 25.05 7.63 24.11 6.78 23.52 6.41 22.54 5.72 21.80 5.07 21.03 4.77 20.04 4.29 19.16 3.82 18.29 3.13 17.52 2.82 16.56 2.23 15.73 1.89 14.78 1.52 13.85 1.50 12.80 0.91 11.94 0.79 10.93 0.42 9.98 0.29 8.98 0.39 7.95 0.08 6.99 -0.17 6.01 0.01 4.99 -0.15 4.00 -0.11 3.00 -0.17 2.00 -0.24 0.99 0.04 0.00 0 0 Z"></path><path fill="tan" d="M32 -2C  32.43 -2.91 32.47 -3.91 32.83 -4.83 32.89 -5.83 33.23 -6.75 33.49 -7.70 33.51 -8.71 33.86 -9.63 34.09 -10.59 34.52 -11.49 34.61 -12.48 34.72 -13.46 35.07 -14.39 35.49 -15.29 35.52 -16.30 35.89 -17.22 36.14 -18.17 36.12 -19.18 36.63 -20.07 36.69 -21.07 36.95 -22.01 37 -22 37.38 -21.08 37.62 -20.13 37.89 -19.19 38.08 -18.22 38.20 -17.24 38.43 -16.29 38.63 -15.32 38.78 -14.35 39.31 -13.47 39.31 -12.46 39.69 -11.54 39.72 -10.54 40.04 -9.60 40.47 -8.70 40.44 -7.68 40.74 -6.74 41.03 -5.81 41.21 -4.84 41.60 -3.92 41.75 -2.95 41.97 -1.99 42 -2 42.99 -1.89 43.89 -1.46 44.89 -1.41 45.80 -1.00 46.76 -0.78 47.70 -0.49 48.70 -0.42 49.64 -0.16 50.51 0.41 51.52 0.42 52.41 0.89 53.36 1.16 54.37 1.19 55.34 1.33 56.25 1.75 57.18 2.06 58.14 2.28 59.14 2.36 60.01 2.91 61.00 3.01 61 3 60.04 3.21 59.07 3.38 58.12 3.63 57.25 4.19 56.30 4.44 55.26 4.33 54.33 4.68 53.36 4.83 52.49 5.39 51.55 5.68 50.57 5.82 49.57 5.90 48.67 6.33 47.75 6.69 46.74 6.70 45.80 6.99 44.81 7.10 43.87 7.40 42.91 7.62 42.04 8.17 42 8 41.58 8.90 41.29 9.85 40.98 10.79 40.83 11.78 40.39 12.67 40.04 13.60 39.94 14.61 39.57 15.52 39.21 16.45 38.80 17.35 38.44 18.27 38.28 19.26 37.90 20.17 37.59 21.11 37.15 22.01 36.81 22.94 37 23 36.88 22.00 36.37 21.13 35.99 20.21 35.75 19.25 35.48 18.30 35.17 17.36 34.74 16.46 34.60 15.47 34.15 14.57 33.76 13.66 33.54 12.69 33.39 11.70 32.83 10.85 32.75 9.83 32.28 8.95 31.94 8.02 32 8 31.11 7.53 30.08 7.56 29.14 7.27 28.22 6.89 27.28 6.62 26.36 6.26 25.40 6.02 24.42 5.87 23.53 5.41 22.51 5.37 21.64 4.84 20.72 4.50 19.76 4.24 18.77 4.14 17.82 3.88 16.93 3.42 15.89 3.45 14.97 3.11 15 3 15.96 2.79 16.90 2.48 17.84 2.21 18.75 1.79 19.72 1.61 20.71 1.48 21.66 1.23 22.61 0.95 23.48 0.43 24.41 0.09 25.34 -0.21 26.35 -0.29 27.32 -0.48 28.26 -0.77 29.17 -1.15 30.10 -1.48 31.07 -1.67 31.95 -2.18 32 -2 Z"></path><path fill="rgba(255,215,0,0.3)" d="M0 0C  -0.80 -1.08 0.80 -1.93 1.02 -2.90 0.96 -3.91 1.40 -4.84 1.62 -5.80 0.85 -7.02 0.98 -8.05 1.17 -9.06 2.13 -9.81 2.88 -10.60 2.89 -11.67 3.80 -12.37 3.62 -13.55 3.59 -14.70 4.65 -15.29 4.54 -16.52 6.42 -16.56 6.18 -17.89 6.58 -18.84 7.37 -19.52 8.19 -20.16 8.27 -21.39 9.46 -21.71 10.71 -21.92 10.15 -23.83 12.13 -23.28 11.93 -24.94 12.54 -25.79 14.03 -25.59 15.10 -25.83 15.59 -26.82 15.64 -28.49 17.08 -28.16 17.89 -28.76 18.39 -29.90 19.76 -29.53 20.86 -29.58 21.04 -31.47 22.04 -31.77 23.35 -31.28 24.39 -31.35 24.95 -32.75 25.99 -32.87 27.16 -32.48 28.08 -32.89 29.23 -32.37 30.14 -32.86 30.94 -34.00 32.06 -33.36 33.09 -33.10 33.96 -34.46 34 -34 35.03 -33.16 35.98 -33.95 36.97 -33.45 37.94 -33.42 38.97 -34.21 39.93 -33.75 40.84 -33.01 41.76 -32.64 42.94 -33.68 43.71 -32.54 44.98 -33.61 45.65 -32.24 46.66 -32.17 47.74 -32.29 48.64 -31.84 49.85 -32.17 50.22 -30.49 51.11 -30.07 51.80 -29.28 53.14 -29.70 54.27 -29.65 55.19 -29.20 55.37 -27.65 56.89 -28.09 57.60 -27.34 58.14 -26.39 58.43 -25.20 59.42 -24.82 60.26 -24.26 61.29 -23.87 61.76 -22.93 62.05 -21.86 62.45 -20.91 62.71 -19.87 63.79 -19.46 64.06 -18.44 64.93 -17.84 64.79 -16.61 66.11 -16.23 67.18 -15.67 66.39 -14.15 67.17 -13.44 67.13 -12.35 67.65 -11.51 68.27 -10.68 69.21 -9.94 69.37 -8.94 69.72 -7.99 69.93 -7.00 68.73 -5.75 69.30 -4.86 70.49 -4.03 69.38 -2.90 69.17 -1.91 69.44 -0.95 70.94 0.01 70.97 1.02 70.95 2.04 70 2 69.10 2.93 70.66 4.06 69.40 4.92 69.21 5.89 70.30 7.09 69.12 7.88 69.57 9.01 69.57 10.05 69.29 11.03 67.26 11.44 66.99 12.37 68.24 13.90 66.88 14.43 67.14 15.63 66.70 16.54 65.93 17.28 64.36 17.55 64.35 18.66 64.70 20.05 64.01 20.80 62.64 21.06 61.83 21.67 61.60 22.73 61.54 23.97 59.79 23.76 60.30 25.57 59.17 25.86 58.38 26.48 57.61 27.10 56.63 27.48 56.37 28.73 55.70 29.51 54.39 29.40 53.46 29.78 53.15 31.13 51.83 30.89 51.04 31.48 50.71 32.98 48.98 31.76 48.09 32.13 47.94 34.27 46.54 33.48 45.74 34.18 44.81 34.52 43.80 34.62 42.69 34.35 41.91 35.26 40.87 35.15 39.92 35.48 39.07 36.50 38.06 36.54 36.90 35.11 35.94 35.24 35.00 36.16 33.99 35.58 34 36 32.99 35.47 32.01 35.18 31.04 35.14 29.99 36.13 29.03 35.54 27.94 36.25 27.15 34.76 25.89 36.14 25.19 34.57 24.02 35.18 23.07 34.82 22.11 34.52 21.38 33.57 20.33 33.52 19.59 32.72 18.22 33.33 17.92 31.66 16.62 32.01 15.44 32.02 14.84 31.05 14.28 30.06 13.27 29.78 12.78 28.76 11.26 29.06 10.96 27.84 9.72 27.71 9.67 26.29 9.57 24.99 8.45 24.71 6.87 24.76 7.12 23.24 5.52 23.21 5.80 21.75 5.29 20.88 3.79 20.65 4.00 19.34 4.34 18.01 2.39 17.90 3.21 16.38 2.35 15.67 2.75 14.44 0.73 14.13 0.81 13.02 0.12 12.17 1.10 10.85 0.35 10.00 -0.11 9.06 1.05 7.84 -0.87 7.12 0.93 5.89 -0.30 5.01 0.27 3.98 -0.06 2.99 -0.93 1.98 0.25 1.01 -0.78 -0.06 0 0 Z" stroke="rgba(255,215,0,0.7)" stroke-width="0.75px"></path></g></g></svg>
