<svg version="1.1" baseProfile="full" xmlns="http://www.w3.org/2000/svg" width="300" height="300" style="background: gray">
<!-- made by Harry Li github.com/harryli0088 -->
<g transform="translate(150,150)"><circle cx="0" cy="0" r="150" fill="#eee"></circle><circle cx="0" cy="0" r="100" fill="none" stroke="#ddd" stroke-width="2"></circle><g transform="translate(-55,-53)"><g transform="translate(0,-10)"><path fill="#FFCECE" d="M20 0C  22.6 1.5 25.2 3.0 27.7 4.7 30.2 6.4 32.7 8.2 35.0 10.1 37.4 12.0 39.6 14.0 41.8 16.1 43.9 18.2 46.0 20.4 48.0 22.6 49.9 25.0 51.8 27.3 53.6 29.8 55.3 32.3 57.0 34.8 58.5 37.4 60.0 40.0 60 40 58.7 42.7 57.3 45.3 56.0 48.0 54.7 50.7 53.4 53.4 52.1 56.1 50.8 58.8 49.5 61.4 48.2 64.1 46.9 66.9 45.7 69.6 44.4 72.3 43.2 75.0 41.9 77.7 40.7 80.4 39.5 83.1 38.3 85.9 37.1 88.6 35.9 91.3 34.7 94.1 33.5 96.8 32.3 99.6 31.2 102.3 30.0 105.1 28.9 107.8 27.7 110.6 26.6 113.4 25.5 116.1 24.4 118.9 23.3 121.7 22.2 124.4 21.1 127.2 20.0 130.0 20 130 17.8 128.0 15.7 125.9 13.7 123.8 11.7 121.6 9.8 119.3 7.9 117.0 6.2 114.6 4.5 112.2 2.8 109.7 1.3 107.2 -0.2 104.7 -1.6 102.1 -2.9 99.4 -4.2 96.8 -5.4 94.0 -6.5 91.3 -7.5 88.5 -8.4 85.7 -9.2 82.9 -10.0 80.0 -10 80 -9.6 77.1 -9.1 74.1 -8.5 71.2 -8.0 68.3 -7.3 65.4 -6.7 62.5 -6.0 59.6 -5.2 56.7 -4.4 53.9 -3.6 51.0 -2.7 48.2 -1.8 45.4 -0.8 42.6 0.2 39.8 1.2 37.0 2.3 34.2 3.4 31.5 4.6 28.7 5.8 26.0 7.0 23.3 8.3 20.7 9.6 18.0 11.0 15.4 12.4 12.8 13.9 10.2 15.3 7.6 16.8 5.0 18.4 2.5 20.0 0.0 20 0 Z"></path><path fill="#FF9191" d="M20 0C  20.9 0.5 21.8 1.0 22.7 1.6 23.5 2.1 24.4 2.7 25.3 3.2 26.1 3.8 27.0 4.4 27.8 4.9 28.7 5.5 29.5 6.1 30.4 6.8 31.2 7.4 32.0 8.0 32 8 31.4 8.8 30.9 9.7 30.3 10.5 29.8 11.3 29.2 12.2 28.7 13.0 28.2 13.9 27.6 14.7 27.1 15.5 26.5 16.4 26.0 17.2 25.5 18.1 25.0 18.9 24.4 19.8 23.9 20.7 23.4 21.5 22.9 22.4 22.4 23.2 21.9 24.1 21.4 25.0 20.9 25.8 20.4 26.7 19.9 27.6 19.4 28.4 18.9 29.3 18.4 30.2 17.9 31.1 17.5 31.9 17.0 32.8 16.5 33.7 16.0 34.6 15.6 35.5 15.1 36.4 14.6 37.2 14.2 38.1 13.7 39.0 13.3 39.9 12.8 40.8 12.4 41.7 11.9 42.6 11.5 43.5 11.0 44.4 10.6 45.3 10.2 46.2 9.7 47.1 9.3 48.0 8.9 48.9 8.5 49.8 8.0 50.7 7.6 51.6 7.2 52.5 6.8 53.5 6.4 54.4 6.0 55.3 5.6 56.2 5.2 57.1 4.8 58.0 4.4 59.0 4.0 59.9 3.6 60.8 3.3 61.7 2.9 62.7 2.5 63.6 2.1 64.5 1.8 65.5 1.4 66.4 1.0 67.3 0.7 68.3 0.3 69.2 -0.0 70.1 -0.4 71.1 -0.7 72.0 -1.1 72.9 -1.4 73.9 -1.7 74.8 -2.1 75.8 -2.4 76.7 -2.7 77.7 -3.1 78.6 -3.4 79.5 -3.7 80.5 -4.0 81.4 -4.3 82.4 -4.6 83.3 -4.9 84.3 -5.2 85.3 -5.5 86.2 -5.8 87.2 -6.1 88.1 -6.4 89.1 -6.7 90.0 -7.0 91.0 -7 91 -7.4 90.0 -7.7 89.1 -8.0 88.1 -8.3 87.1 -8.6 86.1 -8.9 85.1 -9.1 84.1 -9.3 83.1 -9.5 82.1 -9.7 81.0 -9.9 80.0 -10.0 79.0 -10 79 -9.8 78.0 -9.7 77.0 -9.5 76.0 -9.4 75.0 -9.2 74.1 -9.0 73.1 -8.8 72.1 -8.6 71.1 -8.5 70.1 -8.3 69.1 -8.1 68.2 -7.8 67.2 -7.6 66.2 -7.4 65.2 -7.2 64.2 -7.0 63.3 -6.7 62.3 -6.5 61.3 -6.3 60.3 -6.0 59.4 -5.8 58.4 -5.5 57.4 -5.3 56.5 -5.0 55.5 -4.7 54.5 -4.4 53.6 -4.2 52.6 -3.9 51.7 -3.6 50.7 -3.3 49.7 -3.0 48.8 -2.7 47.8 -2.4 46.9 -2.1 45.9 -1.8 45.0 -1.4 44.0 -1.1 43.1 -0.8 42.1 -0.4 41.2 -0.1 40.2 0.3 39.3 0.6 38.4 1.0 37.4 1.3 36.5 1.7 35.6 2.1 34.6 2.4 33.7 2.8 32.8 3.2 31.8 3.6 30.9 4.0 30.0 4.4 29.1 4.8 28.2 5.2 27.3 5.6 26.3 6.0 25.4 6.4 24.5 6.8 23.6 7.3 22.7 7.7 21.8 8.2 20.9 8.6 20.0 9.0 19.1 9.5 18.2 10.0 17.3 10.4 16.4 10.9 15.5 11.3 14.7 11.8 13.8 12.3 12.9 12.8 12.0 13.3 11.1 13.8 10.3 14.3 9.4 14.8 8.5 15.3 7.7 15.8 6.8 16.3 5.9 16.8 5.1 17.3 4.2 17.9 3.4 18.4 2.5 18.9 1.7 19.5 0.8 20.0 -0.0 20 0 Z"></path><path d="M-6 63C  -6.1 64.0 -6.2 65.0 -6.3 66.0 -6.4 67.0 -6.5 68.0 -6.5 69.0 -6.6 70.0 -6.6 71.0 -6.6 72.0 -6.7 73.0 -6.7 74.0 -6.7 75.0 -6.7 76.0 -6.6 77.0 -6.6 78.0 -6.6 79.0 -6.5 80.0 -6.5 81.0 -6.4 82.0 -6.3 83.0 -6.2 84.0 -6.1 85.0 -6.0 86.0 -6 86 " fill="none" stroke="#EF1A1A" stroke-width="1.5"></path><path d="M5 30C  4.7 31.0 4.5 32.0 4.3 32.9 4.0 33.9 3.8 34.9 3.6 35.9 3.3 36.9 3.1 37.9 2.9 38.9 2.7 39.9 2.6 40.8 2.4 41.8 2.2 42.8 2.0 43.8 1.9 44.8 1.7 45.8 1.6 46.8 1.4 47.8 1.3 48.8 1.2 49.8 1.0 50.8 0.9 51.8 0.8 52.8 0.7 53.8 0.6 54.9 0.5 55.9 0.4 56.9 0.4 57.9 0.3 58.9 0.2 59.9 0.2 60.9 0.1 61.9 0.1 62.9 0.1 63.9 0.0 64.9 0.0 66.0 -0.0 67.0 -0.0 68.0 -0.0 69.0 -0.0 70.0 0 70 " fill="none" stroke="#EF1A1A" stroke-width="1.5"></path><path d="M20 0C  19.6 0.9 19.2 1.8 18.8 2.7 18.5 3.7 18.1 4.6 17.7 5.5 17.4 6.4 17.0 7.4 16.7 8.3 16.4 9.2 16.0 10.2 15.7 11.1 15.4 12.1 15.1 13.0 14.8 14.0 14.5 14.9 14.2 15.9 13.9 16.8 13.6 17.8 13.3 18.7 13.1 19.7 12.8 20.6 12.6 21.6 12.3 22.6 12.1 23.5 11.8 24.5 11.6 25.4 11.4 26.4 11.2 27.4 11.0 28.4 10.8 29.3 10.6 30.3 10.4 31.3 10.2 32.3 10.0 33.2 9.8 34.2 9.7 35.2 9.5 36.2 9.4 37.2 9.2 38.1 9.1 39.1 9.0 40.1 8.8 41.1 8.7 42.1 8.6 43.1 8.5 44.1 8.4 45.0 8.3 46.0 8.2 47.0 8.1 48.0 8.1 49.0 8.0 50.0 8 50 " fill="none" stroke="#EF1A1A" stroke-width="1.5"></path><path d="M26 4C  25.6 4.9 25.3 5.8 24.9 6.8 24.6 7.7 24.3 8.6 23.9 9.6 23.6 10.5 23.3 11.5 23.0 12.4 22.8 13.4 22.5 14.3 22.2 15.3 22.0 16.3 21.8 17.2 21.5 18.2 21.3 19.2 21.1 20.1 20.9 21.1 20.7 22.1 20.6 23.1 20.4 24.0 20.3 25.0 20.1 26.0 20.0 27.0 20 27 " fill="none" stroke="#EF1A1A" stroke-width="1.5"></path><path d="M28 5C  27.2 5.6 26.4 6.2 25.5 6.7 24.7 7.3 23.9 7.9 23.1 8.6 22.4 9.2 21.6 9.8 20.8 10.5 20.0 11.1 19.3 11.8 18.5 12.4 17.8 13.1 17.1 13.8 16.3 14.5 15.6 15.2 14.9 15.9 14.2 16.6 13.5 17.3 12.8 18.1 12.1 18.8 11.5 19.6 10.8 20.3 10.1 21.1 9.5 21.9 8.9 22.6 8.2 23.4 7.6 24.2 7.0 25.0 7 25 " fill="none" stroke="#EF1A1A" stroke-width="1.5"></path><path d="M24 20C  23.2 20.6 22.3 21.1 21.5 21.7 20.7 22.3 19.9 22.9 19.1 23.5 18.3 24.1 17.5 24.7 16.7 25.3 15.9 25.9 15.2 26.6 14.4 27.2 13.7 27.9 12.9 28.6 12.2 29.2 11.5 29.9 10.7 30.6 10.0 31.3 9.3 32.0 8.6 32.7 7.9 33.5 7.2 34.2 6.6 34.9 5.9 35.7 5.2 36.4 4.6 37.2 3.9 37.9 3.3 38.7 2.7 39.5 2.1 40.3 1.5 41.1 0.9 41.9 0.3 42.7 -0.3 43.5 -0.9 44.3 -1.4 45.2 -2.0 46.0 -2 46 " fill="none" stroke="#EF1A1A" stroke-width="1.5"></path><path d="M13 41C  12.2 41.6 11.4 42.2 10.7 42.9 9.9 43.5 9.2 44.2 8.4 44.8 7.7 45.5 7.0 46.2 6.2 46.9 5.5 47.6 4.8 48.3 4.1 49.0 3.4 49.7 2.8 50.4 2.1 51.2 1.4 51.9 0.8 52.7 0.1 53.4 -0.5 54.2 -1.2 54.9 -1.8 55.7 -2.4 56.5 -3.0 57.3 -3.6 58.1 -4.2 58.9 -4.8 59.7 -5.3 60.5 -5.9 61.3 -6.5 62.2 -7.0 63.0 -7 63 " fill="none" stroke="#EF1A1A" stroke-width="1.5"></path><path d="M3 63C  2.3 63.7 1.6 64.4 0.9 65.0 0.2 65.7 -0.5 66.4 -1.2 67.2 -1.9 67.9 -2.5 68.6 -3.1 69.4 -3.8 70.1 -4.4 70.9 -5.0 71.7 -5.6 72.5 -6.2 73.2 -6.8 74.0 -7.3 74.9 -7.9 75.7 -8.4 76.5 -9.0 77.3 -9.5 78.2 -10.0 79.0 -10 79 " fill="none" stroke="#EF1A1A" stroke-width="1.5"></path></g><g transform="translate(110,120) rotate(180)"><path fill="#FFCECE" d="M20 0C  22.6 1.5 25.2 3.0 27.7 4.7 30.2 6.4 32.7 8.2 35.0 10.1 37.4 12.0 39.6 14.0 41.8 16.1 43.9 18.2 46.0 20.4 48.0 22.6 49.9 25.0 51.8 27.3 53.6 29.8 55.3 32.3 57.0 34.8 58.5 37.4 60.0 40.0 60 40 58.7 42.7 57.3 45.3 56.0 48.0 54.7 50.7 53.4 53.4 52.1 56.1 50.8 58.8 49.5 61.4 48.2 64.1 46.9 66.9 45.7 69.6 44.4 72.3 43.2 75.0 41.9 77.7 40.7 80.4 39.5 83.1 38.3 85.9 37.1 88.6 35.9 91.3 34.7 94.1 33.5 96.8 32.3 99.6 31.2 102.3 30.0 105.1 28.9 107.8 27.7 110.6 26.6 113.4 25.5 116.1 24.4 118.9 23.3 121.7 22.2 124.4 21.1 127.2 20.0 130.0 20 130 17.8 128.0 15.7 125.9 13.7 123.8 11.7 121.6 9.8 119.3 7.9 117.0 6.2 114.6 4.5 112.2 2.8 109.7 1.3 107.2 -0.2 104.7 -1.6 102.1 -2.9 99.4 -4.2 96.8 -5.4 94.0 -6.5 91.3 -7.5 88.5 -8.4 85.7 -9.2 82.9 -10.0 80.0 -10 80 -9.6 77.1 -9.1 74.1 -8.5 71.2 -8.0 68.3 -7.3 65.4 -6.7 62.5 -6.0 59.6 -5.2 56.7 -4.4 53.9 -3.6 51.0 -2.7 48.2 -1.8 45.4 -0.8 42.6 0.2 39.8 1.2 37.0 2.3 34.2 3.4 31.5 4.6 28.7 5.8 26.0 7.0 23.3 8.3 20.7 9.6 18.0 11.0 15.4 12.4 12.8 13.9 10.2 15.3 7.6 16.8 5.0 18.4 2.5 20.0 0.0 20 0 Z"></path><path fill="#FF9191" d="M20 0C  20.9 0.5 21.8 1.0 22.7 1.6 23.5 2.1 24.4 2.7 25.3 3.2 26.1 3.8 27.0 4.4 27.8 4.9 28.7 5.5 29.5 6.1 30.4 6.8 31.2 7.4 32.0 8.0 32 8 31.4 8.8 30.9 9.7 30.3 10.5 29.8 11.3 29.2 12.2 28.7 13.0 28.2 13.9 27.6 14.7 27.1 15.5 26.5 16.4 26.0 17.2 25.5 18.1 25.0 18.9 24.4 19.8 23.9 20.7 23.4 21.5 22.9 22.4 22.4 23.2 21.9 24.1 21.4 25.0 20.9 25.8 20.4 26.7 19.9 27.6 19.4 28.4 18.9 29.3 18.4 30.2 17.9 31.1 17.5 31.9 17.0 32.8 16.5 33.7 16.0 34.6 15.6 35.5 15.1 36.4 14.6 37.2 14.2 38.1 13.7 39.0 13.3 39.9 12.8 40.8 12.4 41.7 11.9 42.6 11.5 43.5 11.0 44.4 10.6 45.3 10.2 46.2 9.7 47.1 9.3 48.0 8.9 48.9 8.5 49.8 8.0 50.7 7.6 51.6 7.2 52.5 6.8 53.5 6.4 54.4 6.0 55.3 5.6 56.2 5.2 57.1 4.8 58.0 4.4 59.0 4.0 59.9 3.6 60.8 3.3 61.7 2.9 62.7 2.5 63.6 2.1 64.5 1.8 65.5 1.4 66.4 1.0 67.3 0.7 68.3 0.3 69.2 -0.0 70.1 -0.4 71.1 -0.7 72.0 -1.1 72.9 -1.4 73.9 -1.7 74.8 -2.1 75.8 -2.4 76.7 -2.7 77.7 -3.1 78.6 -3.4 79.5 -3.7 80.5 -4.0 81.4 -4.3 82.4 -4.6 83.3 -4.9 84.3 -5.2 85.3 -5.5 86.2 -5.8 87.2 -6.1 88.1 -6.4 89.1 -6.7 90.0 -7.0 91.0 -7 91 -7.4 90.0 -7.7 89.1 -8.0 88.1 -8.3 87.1 -8.6 86.1 -8.9 85.1 -9.1 84.1 -9.3 83.1 -9.5 82.1 -9.7 81.0 -9.9 80.0 -10.0 79.0 -10 79 -9.8 78.0 -9.7 77.0 -9.5 76.0 -9.4 75.0 -9.2 74.1 -9.0 73.1 -8.8 72.1 -8.6 71.1 -8.5 70.1 -8.3 69.1 -8.1 68.2 -7.8 67.2 -7.6 66.2 -7.4 65.2 -7.2 64.2 -7.0 63.3 -6.7 62.3 -6.5 61.3 -6.3 60.3 -6.0 59.4 -5.8 58.4 -5.5 57.4 -5.3 56.5 -5.0 55.5 -4.7 54.5 -4.4 53.6 -4.2 52.6 -3.9 51.7 -3.6 50.7 -3.3 49.7 -3.0 48.8 -2.7 47.8 -2.4 46.9 -2.1 45.9 -1.8 45.0 -1.4 44.0 -1.1 43.1 -0.8 42.1 -0.4 41.2 -0.1 40.2 0.3 39.3 0.6 38.4 1.0 37.4 1.3 36.5 1.7 35.6 2.1 34.6 2.4 33.7 2.8 32.8 3.2 31.8 3.6 30.9 4.0 30.0 4.4 29.1 4.8 28.2 5.2 27.3 5.6 26.3 6.0 25.4 6.4 24.5 6.8 23.6 7.3 22.7 7.7 21.8 8.2 20.9 8.6 20.0 9.0 19.1 9.5 18.2 10.0 17.3 10.4 16.4 10.9 15.5 11.3 14.7 11.8 13.8 12.3 12.9 12.8 12.0 13.3 11.1 13.8 10.3 14.3 9.4 14.8 8.5 15.3 7.7 15.8 6.8 16.3 5.9 16.8 5.1 17.3 4.2 17.9 3.4 18.4 2.5 18.9 1.7 19.5 0.8 20.0 -0.0 20 0 Z"></path><path d="M-6 63C  -6.1 64.0 -6.2 65.0 -6.3 66.0 -6.4 67.0 -6.5 68.0 -6.5 69.0 -6.6 70.0 -6.6 71.0 -6.6 72.0 -6.7 73.0 -6.7 74.0 -6.7 75.0 -6.7 76.0 -6.6 77.0 -6.6 78.0 -6.6 79.0 -6.5 80.0 -6.5 81.0 -6.4 82.0 -6.3 83.0 -6.2 84.0 -6.1 85.0 -6.0 86.0 -6 86 " fill="none" stroke="#EF1A1A" stroke-width="1.5"></path><path d="M5 30C  4.7 31.0 4.5 32.0 4.3 32.9 4.0 33.9 3.8 34.9 3.6 35.9 3.3 36.9 3.1 37.9 2.9 38.9 2.7 39.9 2.6 40.8 2.4 41.8 2.2 42.8 2.0 43.8 1.9 44.8 1.7 45.8 1.6 46.8 1.4 47.8 1.3 48.8 1.2 49.8 1.0 50.8 0.9 51.8 0.8 52.8 0.7 53.8 0.6 54.9 0.5 55.9 0.4 56.9 0.4 57.9 0.3 58.9 0.2 59.9 0.2 60.9 0.1 61.9 0.1 62.9 0.1 63.9 0.0 64.9 0.0 66.0 -0.0 67.0 -0.0 68.0 -0.0 69.0 -0.0 70.0 0 70 " fill="none" stroke="#EF1A1A" stroke-width="1.5"></path><path d="M20 0C  19.6 0.9 19.2 1.8 18.8 2.7 18.5 3.7 18.1 4.6 17.7 5.5 17.4 6.4 17.0 7.4 16.7 8.3 16.4 9.2 16.0 10.2 15.7 11.1 15.4 12.1 15.1 13.0 14.8 14.0 14.5 14.9 14.2 15.9 13.9 16.8 13.6 17.8 13.3 18.7 13.1 19.7 12.8 20.6 12.6 21.6 12.3 22.6 12.1 23.5 11.8 24.5 11.6 25.4 11.4 26.4 11.2 27.4 11.0 28.4 10.8 29.3 10.6 30.3 10.4 31.3 10.2 32.3 10.0 33.2 9.8 34.2 9.7 35.2 9.5 36.2 9.4 37.2 9.2 38.1 9.1 39.1 9.0 40.1 8.8 41.1 8.7 42.1 8.6 43.1 8.5 44.1 8.4 45.0 8.3 46.0 8.2 47.0 8.1 48.0 8.1 49.0 8.0 50.0 8 50 " fill="none" stroke="#EF1A1A" stroke-width="1.5"></path><path d="M26 4C  25.6 4.9 25.3 5.8 24.9 6.8 24.6 7.7 24.3 8.6 23.9 9.6 23.6 10.5 23.3 11.5 23.0 12.4 22.8 13.4 22.5 14.3 22.2 15.3 22.0 16.3 21.8 17.2 21.5 18.2 21.3 19.2 21.1 20.1 20.9 21.1 20.7 22.1 20.6 23.1 20.4 24.0 20.3 25.0 20.1 26.0 20.0 27.0 20 27 " fill="none" stroke="#EF1A1A" stroke-width="1.5"></path><path d="M28 5C  27.2 5.6 26.4 6.2 25.5 6.7 24.7 7.3 23.9 7.9 23.1 8.6 22.4 9.2 21.6 9.8 20.8 10.5 20.0 11.1 19.3 11.8 18.5 12.4 17.8 13.1 17.1 13.8 16.3 14.5 15.6 15.2 14.9 15.9 14.2 16.6 13.5 17.3 12.8 18.1 12.1 18.8 11.5 19.6 10.8 20.3 10.1 21.1 9.5 21.9 8.9 22.6 8.2 23.4 7.6 24.2 7.0 25.0 7 25 " fill="none" stroke="#EF1A1A" stroke-width="1.5"></path><path d="M24 20C  23.2 20.6 22.3 21.1 21.5 21.7 20.7 22.3 19.9 22.9 19.1 23.5 18.3 24.1 17.5 24.7 16.7 25.3 15.9 25.9 15.2 26.6 14.4 27.2 13.7 27.9 12.9 28.6 12.2 29.2 11.5 29.9 10.7 30.6 10.0 31.3 9.3 32.0 8.6 32.7 7.9 33.5 7.2 34.2 6.6 34.9 5.9 35.7 5.2 36.4 4.6 37.2 3.9 37.9 3.3 38.7 2.7 39.5 2.1 40.3 1.5 41.1 0.9 41.9 0.3 42.7 -0.3 43.5 -0.9 44.3 -1.4 45.2 -2.0 46.0 -2 46 " fill="none" stroke="#EF1A1A" stroke-width="1.5"></path><path d="M13 41C  12.2 41.6 11.4 42.2 10.7 42.9 9.9 43.5 9.2 44.2 8.4 44.8 7.7 45.5 7.0 46.2 6.2 46.9 5.5 47.6 4.8 48.3 4.1 49.0 3.4 49.7 2.8 50.4 2.1 51.2 1.4 51.9 0.8 52.7 0.1 53.4 -0.5 54.2 -1.2 54.9 -1.8 55.7 -2.4 56.5 -3.0 57.3 -3.6 58.1 -4.2 58.9 -4.8 59.7 -5.3 60.5 -5.9 61.3 -6.5 62.2 -7.0 63.0 -7 63 " fill="none" stroke="#EF1A1A" stroke-width="1.5"></path><path d="M3 63C  2.3 63.7 1.6 64.4 0.9 65.0 0.2 65.7 -0.5 66.4 -1.2 67.2 -1.9 67.9 -2.5 68.6 -3.1 69.4 -3.8 70.1 -4.4 70.9 -5.0 71.7 -5.6 72.5 -6.2 73.2 -6.8 74.0 -7.3 74.9 -7.9 75.7 -8.4 76.5 -9.0 77.3 -9.5 78.2 -10.0 79.0 -10 79 " fill="none" stroke="#EF1A1A" stroke-width="1.5"></path></g></g></g></svg>
