<svg version="1.1" baseProfile="full" xmlns="http://www.w3.org/2000/svg" width="300" height="300" style="background: gray">
  <!-- made by Harry Li github.com/harryli0088 -->
  <defs>
    <linearGradient id="skin" x1="0%" y1="0%" x2="100%" y2="100%">
      <stop offset="0%" style="stop-color:#DFDFDF;stop-opacity:1"></stop>
      <stop offset="100%" style="stop-color:#5A6362;stop-opacity:1"></stop>
    </linearGradient>
  </defs>
  <defs>
    <linearGradient id="red_nw_se" x1="0%" y1="0%" x2="100%" y2="100%">
      <stop offset="0%" style="stop-color:#FF9393;stop-opacity:1"></stop>
      <stop offset="100%" style="stop-color:#CB0000;stop-opacity:1"></stop>
    </linearGradient>
  </defs>
  <defs>
    <linearGradient id="red_ne_sw" x1="100%" y1="0%" x2="0%" y2="100%">
      <stop offset="0%" style="stop-color:#FF9393;stop-opacity:1"></stop>
      <stop offset="100%" style="stop-color:#CB0000;stop-opacity:1"></stop>
    </linearGradient>
  </defs>
  <defs>
    <linearGradient id="ginger" x1="0%" y1="0%" x2="100%" y2="100%">
      <stop offset="0%" style="stop-color:#FFF9B7;stop-opacity:1"></stop>
      <stop offset="100%" style="stop-color:#DAB200;stop-opacity:1"></stop>
    </linearGradient>
  </defs>
<g transform="translate(150,150)"><circle cx="0" cy="0" r="150" fill="#eee"></circle><circle cx="0" cy="0" r="100" fill="none" stroke="#ddd" stroke-width="2"></circle><g transform="translate(-55,-53)"><g transform="translate(0,-10)"><path fill="url(#skin)" d="M0 0C  2.9 0.1 5.9 0.3 8.8 0.6 11.7 1.0 14.6 1.5 17.5 2.0 20.3 2.7 23.2 3.4 26.0 4.2 28.8 5.1 31.6 6.0 34.3 7.1 37.0 8.2 39.7 9.4 42.3 10.7 44.9 12.1 47.5 13.5 50.0 15.0 50 15 50.1 18.0 50.3 21.1 50.4 24.1 50.5 27.1 50.6 30.1 50.7 33.2 50.8 36.2 50.9 39.2 51.0 42.3 51.1 45.3 51.1 48.3 51.2 51.4 51.2 54.4 51.2 57.4 51.2 60.5 51.2 63.5 51.2 66.5 51.2 69.5 51.2 72.6 51.2 75.6 51.2 78.6 51.1 81.7 51.1 84.7 51.0 87.7 50.9 90.8 50.8 93.8 50.7 96.8 50.6 99.9 50.5 102.9 50.4 105.9 50.3 108.9 50.1 112.0 50.0 115.0 50 115 47.1 114.9 44.1 114.7 41.2 114.4 38.3 114.0 35.4 113.5 32.5 113.0 29.7 112.3 26.8 111.6 24.0 110.8 21.2 109.9 18.4 109.0 15.7 107.9 13.0 106.8 10.3 105.6 7.7 104.3 5.1 102.9 2.5 101.5 -0.0 100.0 0 100 -0.1 97.0 -0.3 93.9 -0.4 90.9 -0.5 87.9 -0.6 84.9 -0.7 81.8 -0.8 78.8 -0.9 75.8 -1.0 72.7 -1.1 69.7 -1.1 66.7 -1.2 63.6 -1.2 60.6 -1.2 57.6 -1.2 54.5 -1.2 51.5 -1.2 48.5 -1.2 45.5 -1.2 42.4 -1.2 39.4 -1.2 36.4 -1.1 33.3 -1.1 30.3 -1.0 27.3 -0.9 24.2 -0.8 21.2 -0.7 18.2 -0.6 15.1 -0.5 12.1 -0.4 9.1 -0.3 6.1 -0.1 3.0 -0.0 0.0 0 0 Z"></path><path fill="white" d="M10 0C  9.3 1.0 10.4 2.0 9.0 3.0 10.0 4.0 10.1 5.0 9.0 6.0 10.4 7.0 8.9 8.0 9.6 9.0 10.0 10.0 8.7 11.0 9.7 12.0 8.9 13.0 8.6 14.0 9.3 15.0 10.1 16.0 9.5 17.0 8.3 18.0 8.2 19.0 10.1 20.0 9.0 21.0 8.5 22.0 8.8 23.0 9.5 24.0 8.9 25.0 8.4 26.0 8.6 27.0 8.4 28.0 9.6 29.0 8.1 30.0 9.2 31.0 8.8 32.0 8.9 33.0 8.9 34.0 8.4 35.0 7.8 36.0 9.4 37.0 9.2 38.0 9.5 39.0 9.1 40.0 9.6 41.0 8.0 42.0 8.7 43.0 7.7 44.0 7.7 45.0 8.7 46.0 8.6 47.0 7.7 48.0 8.4 49.0 9.0 50.0 9.0 51.0 9.3 52.0 8.3 53.0 9.3 54.0 9.5 55.0 8.3 56.0 8.0 57.0 9.6 58.0 8.3 59.0 9.2 60.0 9.0 61.0 9.3 62.0 8.2 63.0 8.4 64.0 9.7 65.0 8.0 66.0 9.7 67.0 8.7 68.0 8.2 69.0 9.1 70.0 9.7 71.0 9.7 72.0 8.3 73.0 9.7 74.0 9.4 75.0 8.9 76.0 8.0 77.0 8.3 78.0 8.2 79.0 10.0 80.0 8.9 81.0 8.8 82.0 9.8 83.0 9.9 84.0 8.9 85.0 9.2 86.0 9.3 87.0 8.8 88.0 9.3 89.0 9.5 90.0 9.7 91.0 8.8 92.0 8.9 93.0 10.2 94.0 8.7 95.0 10.6 96.0 9.4 97.0 8.9 98.0 10.3 99.0 9.7 100.0 10.4 101.0 9.5 102.0 10.5 103.0 10.6 104.0 9.3 105.0 10 105 10.7 104.0 9.2 103.0 9.5 102.0 9.6 101.0 10.7 100.0 10.6 99.0 9.4 98.0 8.7 97.0 10.1 96.0 8.9 95.0 8.5 94.0 8.5 93.0 8.8 92.0 9.0 91.0 9.6 90.0 9.9 89.0 9.7 88.0 9.0 87.0 9.9 86.0 9.2 85.0 9.8 84.0 8.9 83.0 10.0 82.0 9.3 81.0 9.0 80.0 8.3 79.0 8.3 78.0 9.8 77.0 9.4 76.0 8.3 75.0 9.1 74.0 9.1 73.0 8.2 72.0 9.0 71.0 7.9 70.0 9.6 69.0 9.1 68.0 9.5 67.0 8.3 66.0 9.4 65.0 8.1 64.0 8.0 63.0 8.0 62.0 8.5 61.0 9.5 60.0 7.8 59.0 7.7 58.0 8.8 57.0 9.2 56.0 8.9 55.0 8.2 54.0 9.2 53.0 7.8 52.0 8.3 51.0 8.8 50.0 8.2 49.0 9.0 48.0 9.3 47.0 9.0 46.0 7.8 45.0 9.1 44.0 8.1 43.0 9.2 42.0 9.6 41.0 8.4 40.0 9.5 39.0 9.4 38.0 8.0 37.0 7.8 36.0 9.6 35.0 8.5 34.0 8.4 33.0 8.4 32.0 8.8 31.0 8.7 30.0 9.0 29.0 9.0 28.0 9.8 27.0 8.3 26.0 8.2 25.0 8.1 24.0 9.7 23.0 9.8 22.0 8.1 21.0 9.3 20.0 9.8 19.0 9.6 18.0 9.6 17.0 8.5 16.0 9.3 15.0 10.3 14.0 9.9 13.0 9.3 12.0 8.8 11.0 9.9 10.0 9.0 9.0 10.2 8.0 9.3 7.0 10.2 6.0 9.2 5.0 9.1 4.0 10.1 3.0 9.3 2.0 10.2 1.0 9.9 -0.0 10 0 Z" opacity="0.2" stroke="white" stroke-width="1"></path><path fill="white" d="M20 4C  19.6 5.0 20.0 6.0 21.0 7.0 20.5 8.0 19.5 9.0 20.2 10.0 19.5 11.0 19.4 12.0 19.7 13.0 20.5 14.0 20.1 15.0 19.1 16.0 20.2 17.0 20.4 18.0 19.6 19.0 20.2 20.0 19.6 21.0 20.2 22.0 20.5 23.0 19.2 24.0 20.4 25.0 20.7 26.0 20.7 27.0 19.2 28.0 19.9 29.0 20.7 30.0 20.0 31.0 20.2 32.0 20.5 33.0 19.4 34.0 19.5 35.0 20.7 36.0 19.6 37.0 20.5 38.0 20.5 39.0 19.3 40.0 21.0 41.0 19.4 42.0 20.2 43.0 19.6 44.0 19.8 45.0 19.6 46.0 19.5 47.0 20.9 48.0 19.3 49.0 19.7 50.0 20.6 51.0 20.3 52.0 20.2 53.0 19.1 54.0 19.5 55.0 19.1 56.0 20.5 57.0 19.8 58.0 21.0 59.0 20.0 60.0 19.3 61.0 19.7 62.0 19.1 63.0 19.0 64.0 19.2 65.0 20.0 66.0 19.8 67.0 20.6 68.0 20.7 69.0 20.7 70.0 20.7 71.0 19.7 72.0 20.5 73.0 20.5 74.0 19.9 75.0 19.5 76.0 20.8 77.0 19.6 78.0 19.7 79.0 19.9 80.0 19.2 81.0 21.0 82.0 20.4 83.0 20.9 84.0 19.4 85.0 20.1 86.0 20.1 87.0 20.9 88.0 20.8 89.0 19.1 90.0 19.0 91.0 19.4 92.0 19.8 93.0 20.5 94.0 19.0 95.0 19.8 96.0 19.7 97.0 20.5 98.0 19.6 99.0 20.4 100.0 20.2 101.0 20.3 102.0 20.8 103.0 20.4 104.0 19.1 105.0 19.0 106.0 19.4 107.0 20.5 108.0 20.3 109.0 20 109 Z" opacity="0.2" stroke="white" stroke-width="1"></path><path fill="white" d="M30 7C  29.9 8.0 30.7 9.0 29.3 10.0 29.7 11.0 30.6 12.0 30.8 13.0 30.5 14.0 29.1 15.0 30.8 16.0 30.0 17.0 30.0 18.0 30.4 19.0 30.7 20.0 29.1 21.0 29.7 22.0 29.3 23.0 29.4 24.0 29.6 25.0 29.3 26.0 30.9 27.0 30.5 28.0 29.8 29.0 29.5 30.0 30.7 31.0 30.7 32.0 29.1 33.0 29.1 34.0 29.9 35.0 30.3 36.0 30.7 37.0 30.9 38.0 29.9 39.0 30.9 40.0 29.8 41.0 30.1 42.0 30.6 43.0 30.1 44.0 30.0 45.0 30.8 46.0 30.7 47.0 30.8 48.0 29.4 49.0 30.5 50.0 29.9 51.0 29.0 52.0 30.9 53.0 30.6 54.0 30.0 55.0 29.1 56.0 29.5 57.0 30.7 58.0 30.6 59.0 29.5 60.0 30.9 61.0 31.0 62.0 29.6 63.0 31.0 64.0 30.8 65.0 30.2 66.0 29.9 67.0 29.1 68.0 29.9 69.0 29.0 70.0 29.8 71.0 31.0 72.0 30.1 73.0 30.1 74.0 29.3 75.0 29.2 76.0 30.5 77.0 29.1 78.0 29.5 79.0 30.1 80.0 29.3 81.0 30.0 82.0 30.0 83.0 30.4 84.0 30.7 85.0 30.0 86.0 30.1 87.0 30.8 88.0 29.7 89.0 31.0 90.0 29.7 91.0 30.1 92.0 29.6 93.0 30.9 94.0 30.3 95.0 30.6 96.0 29.7 97.0 29.7 98.0 30.6 99.0 29.6 100.0 30.2 101.0 30.2 102.0 29.0 103.0 30.4 104.0 30.3 105.0 30.2 106.0 29.6 107.0 29.1 108.0 29.2 109.0 29.3 110.0 29.4 111.0 29.3 112.0 30 112 Z" opacity="0.2" stroke="white" stroke-width="1"></path><path fill="white" d="M40 10C  41.0 10.9 40.8 12.0 39.2 13.0 39.4 14.0 40.6 15.0 41.0 16.0 40.8 17.0 40.9 18.0 41.3 19.0 40.6 20.0 40.8 21.0 41.0 22.0 41.1 23.0 40.7 24.0 41.6 25.0 40.1 26.0 40.2 27.0 40.4 28.0 41.3 29.0 41.3 30.0 40.5 31.0 41.5 32.0 40.1 33.0 40.3 34.0 41.9 35.0 40.8 36.0 41.0 37.0 41.6 38.0 40.6 39.0 42.0 40.0 42.0 41.0 41.8 42.0 41.6 43.0 40.7 44.0 42.1 45.0 41.4 46.0 41.0 47.0 41.2 48.0 40.7 49.0 41.1 50.0 41.7 51.0 40.5 52.0 41.5 53.0 40.9 54.0 40.4 55.0 40.4 56.0 42.2 57.0 41.5 58.0 41.0 59.0 41.4 60.0 41.2 61.0 41.4 62.0 41.7 63.0 41.9 64.0 41.0 65.0 41.4 66.0 41.2 67.0 42.1 68.0 41.2 69.0 40.9 70.0 41.7 71.0 41.8 72.0 40.5 73.0 40.4 74.0 42.3 75.0 41.1 76.0 40.6 77.0 41.8 78.0 40.7 79.0 41.8 80.0 40.7 81.0 40.6 82.0 41.3 83.0 42.1 84.0 41.4 85.0 41.9 86.0 40.3 87.0 40.8 88.0 41.9 89.0 41.0 90.0 41.2 91.0 40.4 92.0 41.3 93.0 41.6 94.0 40.7 95.0 40.6 96.0 39.9 97.0 41.0 98.0 40.6 99.0 41.4 100.0 40.3 101.0 40.5 102.0 39.7 103.0 41.2 104.0 40.3 105.0 40.9 106.0 40.5 107.0 40.9 108.0 40.6 109.0 39.3 110.0 39.8 111.0 39.2 112.0 39.3 113.0 39.4 114.0 40.0 115.0 40 115 40.9 114.0 40.7 113.0 40.4 112.0 40.6 111.0 40.9 110.0 39.4 109.0 40.7 108.0 39.7 107.0 40.2 106.0 40.0 105.0 40.0 104.0 40.9 103.0 41.0 102.0 39.7 101.0 41.0 100.0 41.0 99.0 40.4 98.0 41.1 97.0 40.1 96.0 41.7 95.0 41.4 94.0 40.3 93.0 41.5 92.0 40.3 91.0 40.7 90.0 41.3 89.0 41.3 88.0 41.4 87.0 41.9 86.0 42.0 85.0 40.3 84.0 41.7 83.0 41.5 82.0 41.1 81.0 41.9 80.0 40.3 79.0 41.5 78.0 41.1 77.0 42.3 76.0 41.7 75.0 41.7 74.0 41.1 73.0 41.2 72.0 42.2 71.0 40.9 70.0 41.2 69.0 40.6 68.0 42.3 67.0 41.0 66.0 41.1 65.0 41.9 64.0 41.1 63.0 41.0 62.0 41.5 61.0 41.4 60.0 40.7 59.0 40.9 58.0 41.9 57.0 41.1 56.0 42.1 55.0 40.4 54.0 40.3 53.0 40.4 52.0 41.9 51.0 41.7 50.0 41.1 49.0 41.3 48.0 40.7 47.0 40.6 46.0 41.4 45.0 41.6 44.0 42.1 43.0 41.7 42.0 41.2 41.0 41.0 40.0 41.9 39.0 41.7 38.0 41.0 37.0 41.1 36.0 41.9 35.0 40.4 34.0 41.7 33.0 41.9 32.0 41.8 31.0 40.1 30.0 39.9 29.0 41.5 28.0 41.5 27.0 40.2 26.0 40.9 25.0 41.5 24.0 40.7 23.0 41.2 22.0 41.2 21.0 39.5 20.0 41.2 19.0 40.1 18.0 40.4 17.0 40.7 16.0 40.2 15.0 41.1 14.0 40.1 13.0 40.5 12.0 39.5 11.0 39.4 10.0 40 10 Z" opacity="0.2" stroke="white" stroke-width="1"></path><path fill="url(#red_nw_se)" d="M10 10C  11.6 12.5 13.2 15.0 14.7 17.5 16.2 20.1 17.7 22.7 19.1 25.3 20.5 27.9 21.8 30.6 23.1 33.3 24.3 36.0 25.5 38.7 26.7 41.4 27.8 44.2 28.8 47.0 29.8 49.8 30.8 52.6 31.7 55.4 32.6 58.2 33.4 61.1 34.2 63.9 34.9 66.8 35.6 69.7 36.2 72.6 36.8 75.5 37.3 78.4 37.8 81.4 38.3 84.3 38.7 87.2 39.0 90.2 39.3 93.1 39.6 96.1 39.8 99.1 39.9 102.0 40.0 105.0 40 105 39.6 102.0 39.1 99.0 38.6 96.0 38.1 93.0 37.5 90.0 36.9 87.1 36.3 84.1 35.7 81.1 35.0 78.2 34.3 75.2 33.5 72.3 32.8 69.3 32.0 66.4 31.2 63.5 30.3 60.6 29.4 57.7 28.5 54.8 27.6 51.9 26.6 49.0 25.6 46.2 24.6 43.3 23.5 40.5 22.4 37.7 21.3 34.8 20.2 32.0 19.0 29.2 17.8 26.4 16.6 23.7 15.3 20.9 14.0 18.2 12.7 15.4 11.4 12.7 10.0 10.0 10 10 Z"></path><path fill="url(#red_ne_sw)" d="M40 20C  38.2 22.4 36.4 24.9 34.7 27.4 33.0 29.9 31.4 32.5 29.9 35.1 28.3 37.7 26.9 40.3 25.5 43.0 24.1 45.7 22.8 48.5 21.6 51.3 20.4 54.0 19.3 56.9 18.2 59.7 17.2 62.5 16.3 65.4 15.4 68.3 14.5 71.2 13.8 74.2 13.0 77.1 12.4 80.1 11.8 83.0 11.3 86.0 10.8 89.0 10.4 92.0 10.0 95.0 10 95 10.7 92.1 11.5 89.2 12.3 86.3 13.1 83.4 14.0 80.5 14.9 77.7 15.8 74.8 16.8 72.0 17.7 69.1 18.7 66.3 19.8 63.5 20.8 60.7 21.9 57.9 23.0 55.1 24.2 52.3 25.3 49.6 26.5 46.8 27.8 44.1 29.0 41.3 30.3 38.6 31.6 35.9 32.9 33.2 34.3 30.6 35.7 27.9 37.1 25.3 38.5 22.6 40.0 20.0 40 20 Z"></path><path fill="url(#ginger)" d="M20 50C  21.5 48.3 24.1 48.9 26.1 47.4 28.4 48.0 29.8 50.4 30 50 30.4 52.3 31.1 54.1 30.8 56.1 30.4 58.0 30.7 60.4 30 60 28.3 61.3 26.1 61.9 23.9 61.6 22.0 60.7 20.4 59.4 20 60 18.4 58.4 18.1 56.1 17.6 53.9 19.5 52.0 19.2 49.5 20 50 Z"></path><g><rect x="0" y="0" width="5" height="3" transform="scale(1.0057213513864256) translate(25,50) rotate(139)" fill="rgb(89, 157, 51)"></rect><rect x="0" y="0" width="5" height="3" transform="scale(0.9373856569569072) translate(25,50) rotate(293)" fill="rgb(132, 197, 95)"></rect><rect x="0" y="0" width="5" height="3" transform="scale(1.1248817034281733) translate(25,50) rotate(267)" fill="rgb(85, 153, 47)"></rect><rect x="0" y="0" width="5" height="3" transform="scale(0.7607095894231709) translate(25,50) rotate(357)" fill="rgb(111, 177, 73)"></rect><rect x="0" y="0" width="5" height="3" transform="scale(1.248881304964415) translate(25,50) rotate(125)" fill="rgb(60, 129, 21)"></rect><rect x="0" y="0" width="5" height="3" transform="scale(0.831049718922979) translate(25,50) rotate(171)" fill="rgb(40, 110, 0)"></rect><rect x="0" y="0" width="5" height="3" transform="scale(1.0700018491361036) translate(25,50) rotate(93)" fill="rgb(158, 222, 122)"></rect><rect x="0" y="0" width="5" height="3" transform="scale(0.7931264257074147) translate(25,50) rotate(200)" fill="rgb(120, 186, 83)"></rect><rect x="0" y="0" width="5" height="3" transform="scale(1.0771932565633808) translate(25,50) rotate(143)" fill="rgb(159, 223, 123)"></rect><rect x="0" y="0" width="5" height="3" transform="scale(1.0232161832083455) translate(25,50) rotate(348)" fill="rgb(76, 144, 37)"></rect><rect x="0" y="0" width="5" height="3" transform="scale(0.7755671325320476) translate(25,50) rotate(38)" fill="rgb(132, 197, 95)"></rect><rect x="0" y="0" width="5" height="3" transform="scale(0.8781088824795352) translate(25,50) rotate(287)" fill="rgb(159, 223, 123)"></rect><circle cx="20" cy="48" r="1.9046305617302333" transform="translate(8,8)" fill="none" stroke="rgb(60, 129, 20)" stroke-width="0.75"></circle><circle cx="20" cy="48" r="1.4185700658736355" transform="translate(13,2)" fill="none" stroke="rgb(98, 165, 60)" stroke-width="0.75"></circle><circle cx="20" cy="48" r="1.3938680852479886" transform="translate(9,5)" fill="none" stroke="rgb(150, 215, 114)" stroke-width="0.75"></circle><circle cx="20" cy="48" r="1.4322756728552728" transform="translate(11,7)" fill="none" stroke="rgb(93, 160, 55)" stroke-width="0.75"></circle><circle cx="20" cy="48" r="1.8179701821367356" transform="translate(8,11)" fill="none" stroke="rgb(111, 177, 73)" stroke-width="0.75"></circle><circle cx="20" cy="48" r="1.6015998443725779" transform="translate(12,5)" fill="none" stroke="rgb(64, 133, 25)" stroke-width="0.75"></circle><circle cx="20" cy="48" r="1.1664296022917997" transform="translate(14,8)" fill="none" stroke="rgb(69, 137, 30)" stroke-width="0.75"></circle><circle cx="20" cy="48" r="1.6140104381463303" transform="translate(7,0)" fill="none" stroke="rgb(75, 143, 36)" stroke-width="0.75"></circle><circle cx="20" cy="48" r="1.8555009885461171" transform="translate(9,7)" fill="none" stroke="rgb(134, 199, 97)" stroke-width="0.75"></circle><circle cx="20" cy="48" r="1.0470964027156389" transform="translate(9,15)" fill="none" stroke="rgb(126, 192, 89)" stroke-width="0.75"></circle><circle cx="20" cy="48" r="1.6332405891557509" transform="translate(2,12)" fill="none" stroke="rgb(82, 150, 43)" stroke-width="0.75"></circle><circle cx="20" cy="48" r="1.4528896918893979" transform="translate(14,9)" fill="none" stroke="rgb(82, 150, 43)" stroke-width="0.75"></circle></g></g><g transform="translate(60,10)"><path fill="url(#skin)" d="M0 0C  2.9 0.1 5.9 0.3 8.8 0.6 11.7 1.0 14.6 1.5 17.5 2.0 20.3 2.7 23.2 3.4 26.0 4.2 28.8 5.1 31.6 6.0 34.3 7.1 37.0 8.2 39.7 9.4 42.3 10.7 44.9 12.1 47.5 13.5 50.0 15.0 50 15 50.1 18.0 50.3 21.1 50.4 24.1 50.5 27.1 50.6 30.1 50.7 33.2 50.8 36.2 50.9 39.2 51.0 42.3 51.1 45.3 51.1 48.3 51.2 51.4 51.2 54.4 51.2 57.4 51.2 60.5 51.2 63.5 51.2 66.5 51.2 69.5 51.2 72.6 51.2 75.6 51.2 78.6 51.1 81.7 51.1 84.7 51.0 87.7 50.9 90.8 50.8 93.8 50.7 96.8 50.6 99.9 50.5 102.9 50.4 105.9 50.3 108.9 50.1 112.0 50.0 115.0 50 115 47.1 114.9 44.1 114.7 41.2 114.4 38.3 114.0 35.4 113.5 32.5 113.0 29.7 112.3 26.8 111.6 24.0 110.8 21.2 109.9 18.4 109.0 15.7 107.9 13.0 106.8 10.3 105.6 7.7 104.3 5.1 102.9 2.5 101.5 -0.0 100.0 0 100 -0.1 97.0 -0.3 93.9 -0.4 90.9 -0.5 87.9 -0.6 84.9 -0.7 81.8 -0.8 78.8 -0.9 75.8 -1.0 72.7 -1.1 69.7 -1.1 66.7 -1.2 63.6 -1.2 60.6 -1.2 57.6 -1.2 54.5 -1.2 51.5 -1.2 48.5 -1.2 45.5 -1.2 42.4 -1.2 39.4 -1.2 36.4 -1.1 33.3 -1.1 30.3 -1.0 27.3 -0.9 24.2 -0.8 21.2 -0.7 18.2 -0.6 15.1 -0.5 12.1 -0.4 9.1 -0.3 6.1 -0.1 3.0 -0.0 0.0 0 0 Z"></path><path fill="white" d="M10 0C  9.1 1.0 9.3 2.0 9.2 3.0 9.3 4.0 9.4 5.0 10.1 6.0 10.2 7.0 9.6 8.0 10.4 9.0 10.5 10.0 9.7 11.0 10.3 12.0 9.0 13.0 9.3 14.0 9.5 15.0 8.9 16.0 10.2 17.0 8.5 18.0 9.2 19.0 8.2 20.0 8.8 21.0 8.3 22.0 8.1 23.0 8.2 24.0 9.0 25.0 8.8 26.0 8.8 27.0 8.9 28.0 9.1 29.0 9.4 30.0 9.0 31.0 7.9 32.0 8.8 33.0 9.4 34.0 8.9 35.0 8.4 36.0 9.2 37.0 8.1 38.0 8.0 39.0 8.3 40.0 8.5 41.0 8.6 42.0 8.4 43.0 9.6 44.0 9.3 45.0 8.9 46.0 8.8 47.0 7.8 48.0 8.0 49.0 8.8 50.0 7.9 51.0 7.9 52.0 9.2 53.0 8.6 54.0 8.2 55.0 8.7 56.0 8.0 57.0 8.0 58.0 8.5 59.0 8.3 60.0 8.5 61.0 8.8 62.0 9.6 63.0 8.9 64.0 8.6 65.0 8.2 66.0 7.8 67.0 8.3 68.0 8.4 69.0 8.6 70.0 8.6 71.0 9.7 72.0 9.3 73.0 9.5 74.0 9.5 75.0 8.9 76.0 8.2 77.0 9.7 78.0 9.0 79.0 8.2 80.0 9.0 81.0 10.1 82.0 8.6 83.0 8.8 84.0 8.4 85.0 9.5 86.0 8.5 87.0 9.9 88.0 9.1 89.0 10.1 90.0 10.0 91.0 8.8 92.0 9.7 93.0 8.6 94.0 9.1 95.0 8.8 96.0 10.5 97.0 10.4 98.0 10.6 99.0 9.3 100.0 9.8 101.0 9.1 102.0 10.0 103.0 10.3 104.0 9.2 105.0 10 105 10.1 104.0 10.2 103.0 9.7 102.0 9.9 101.0 10.2 100.0 9.7 99.0 10.4 98.0 9.7 97.0 9.3 96.0 10.1 95.0 10.5 94.0 9.0 93.0 9.3 92.0 10.0 91.0 10.0 90.0 9.9 89.0 8.8 88.0 8.3 87.0 9.8 86.0 8.4 85.0 8.7 84.0 10.1 83.0 9.6 82.0 8.7 81.0 8.3 80.0 8.5 79.0 9.4 78.0 9.7 77.0 9.7 76.0 8.1 75.0 8.5 74.0 8.5 73.0 8.0 72.0 8.8 71.0 8.9 70.0 9.3 69.0 8.0 68.0 8.0 67.0 9.0 66.0 8.6 65.0 8.9 64.0 8.6 63.0 7.7 62.0 9.3 61.0 7.8 60.0 8.8 59.0 8.5 58.0 8.8 57.0 8.9 56.0 8.0 55.0 7.8 54.0 8.8 53.0 8.7 52.0 8.2 51.0 9.6 50.0 9.4 49.0 9.5 48.0 8.5 47.0 7.7 46.0 9.3 45.0 9.6 44.0 8.1 43.0 8.4 42.0 9.3 41.0 9.6 40.0 8.0 39.0 9.1 38.0 7.8 37.0 8.5 36.0 8.2 35.0 9.4 34.0 8.0 33.0 9.5 32.0 9.7 31.0 8.2 30.0 8.1 29.0 8.6 28.0 8.1 27.0 9.1 26.0 8.4 25.0 9.3 24.0 9.1 23.0 9.8 22.0 9.2 21.0 9.4 20.0 9.4 19.0 8.3 18.0 9.7 17.0 8.4 16.0 9.3 15.0 8.7 14.0 9.2 13.0 10.0 12.0 10.0 11.0 9.5 10.0 9.2 9.0 9.1 8.0 10.5 7.0 10.3 6.0 10.7 5.0 9.0 4.0 9.6 3.0 8.9 1.9 9.1 1.0 9.7 -0.0 10 0 Z" opacity="0.2" stroke="white" stroke-width="1"></path><path fill="white" d="M20 3C  20.7 4.0 19.2 5.0 19.0 6.0 19.8 7.0 19.3 8.0 19.0 9.0 19.9 10.0 19.9 11.0 21.0 12.0 19.3 13.0 19.7 14.0 20.5 15.0 21.0 16.0 20.8 17.0 19.2 18.0 19.9 19.0 20.5 20.0 20.6 21.0 19.8 22.0 20.8 23.0 19.5 24.0 19.6 25.0 20.3 26.0 20.4 27.0 20.8 28.0 19.8 29.0 20.2 30.0 20.5 31.0 19.7 32.0 19.5 33.0 19.7 34.0 19.6 35.0 20.4 36.0 19.8 37.0 20.8 38.0 20.2 39.0 20.5 40.0 20.7 41.0 20.4 42.0 20.0 43.0 20.2 44.0 19.0 45.0 19.8 46.0 19.6 47.0 19.3 48.0 19.6 49.0 19.4 50.0 19.9 51.0 20.2 52.0 20.9 53.0 19.6 54.0 19.3 55.0 20.5 56.0 20.8 57.0 20.0 58.0 19.9 59.0 19.4 60.0 20.5 61.0 20.3 62.0 20.2 63.0 20.7 64.0 19.0 65.0 20.6 66.0 20.0 67.0 20.2 68.0 20.2 69.0 19.4 70.0 19.5 71.0 20.9 72.0 20.6 73.0 19.2 74.0 20.1 75.0 20.5 76.0 20.9 77.0 19.4 78.0 20.2 79.0 20.7 80.0 20.1 81.0 20.8 82.0 20.2 83.0 20.6 84.0 20.7 85.0 19.6 86.0 19.7 87.0 20.9 88.0 19.5 89.0 19.5 90.0 20.8 91.0 19.1 92.0 20.1 93.0 19.8 94.0 20.0 95.0 20.8 96.0 20.7 97.0 19.8 98.0 19.1 99.0 21.0 100.0 20.8 101.0 19.9 102.0 19.8 103.0 20.3 104.0 19.6 105.0 19.8 106.0 19.7 107.0 20.5 108.0 20 108 Z" opacity="0.2" stroke="white" stroke-width="1"></path><path fill="white" d="M30 7C  30.8 8.0 30.0 9.0 29.4 10.0 30.5 11.0 30.6 12.0 29.4 13.0 30.2 14.0 30.9 15.0 30.9 16.0 29.2 17.0 30.4 18.0 31.0 19.0 30.5 20.0 30.1 21.0 29.9 22.0 29.3 23.0 30.7 24.0 30.7 25.0 30.5 26.0 30.5 27.0 29.7 28.0 29.5 29.0 29.8 30.0 30.6 31.0 30.6 32.0 29.0 33.0 30.1 34.0 30.5 35.0 31.0 36.0 30.8 37.0 30.7 38.0 30.5 39.0 30.4 40.0 31.0 41.0 30.0 42.0 30.5 43.0 30.1 44.0 29.9 45.0 29.4 46.0 31.0 47.0 30.9 48.0 29.9 49.0 30.7 50.0 29.8 51.0 30.4 52.0 30.6 53.0 30.2 54.0 30.9 55.0 29.4 56.0 30.5 57.0 30.1 58.0 29.4 59.0 30.3 60.0 30.6 61.0 29.2 62.0 31.0 63.0 30.4 64.0 29.3 65.0 30.6 66.0 30.9 67.0 29.7 68.0 30.5 69.0 30.4 70.0 30.8 71.0 30.9 72.0 30.2 73.0 29.6 74.0 30.0 75.0 29.7 76.0 30.7 77.0 30.2 78.0 30.2 79.0 30.1 80.0 30.4 81.0 30.8 82.0 30.7 83.0 30.3 84.0 29.9 85.0 29.6 86.0 31.0 87.0 29.8 88.0 30.4 89.0 29.2 90.0 29.3 91.0 29.4 92.0 30.9 93.0 29.6 94.0 30.1 95.0 29.4 96.0 30.6 97.0 29.6 98.0 30.0 99.0 30.2 100.0 29.4 101.0 29.4 102.0 29.6 103.0 30.9 104.0 29.5 105.0 29.9 106.0 29.5 107.0 29.1 108.0 29.1 109.0 30.1 110.0 29.3 111.0 29.4 112.0 30 112 Z" opacity="0.2" stroke="white" stroke-width="1"></path><path fill="white" d="M40 10C  40.4 11.0 39.9 12.0 39.6 13.0 40.6 14.0 40.3 15.0 40.0 16.0 39.5 17.0 40.4 18.0 39.8 19.0 41.1 20.0 40.2 21.0 39.6 22.0 41.5 23.0 41.5 24.0 40.7 25.0 41.3 26.0 40.2 27.0 39.8 28.0 41.0 29.0 40.1 30.0 40.2 31.0 40.3 32.0 41.3 33.0 40.9 34.0 40.9 35.0 41.2 36.0 41.1 37.0 40.3 38.0 42.1 39.0 42.1 40.0 41.7 41.0 41.8 42.0 40.2 43.0 40.2 44.0 41.6 45.0 41.4 46.0 42.1 47.0 41.0 48.0 41.0 49.0 40.6 50.0 40.8 51.0 40.9 52.0 41.2 53.0 42.0 54.0 41.5 55.0 42.0 56.0 40.6 57.0 41.5 58.0 40.7 59.0 41.1 60.0 41.6 61.0 41.3 62.0 41.2 63.0 40.7 64.0 40.7 65.0 41.6 66.0 41.3 67.0 41.7 68.0 41.6 69.0 40.9 70.0 41.9 71.0 41.2 72.0 41.2 73.0 40.4 74.0 42.1 75.0 41.7 76.0 41.2 77.0 41.7 78.0 41.8 79.0 40.7 80.0 41.4 81.0 41.2 82.0 41.4 83.0 40.5 84.0 40.4 85.0 41.8 86.0 40.2 87.0 40.5 88.0 41.3 89.0 40.7 90.0 41.4 91.0 40.2 92.0 41.9 93.0 40.6 94.0 41.1 95.0 40.7 96.0 40.8 97.0 41.4 98.0 40.9 99.0 39.7 100.0 40.8 101.0 41.0 102.0 41.3 103.0 40.6 104.0 40.6 105.0 40.4 106.0 40.6 107.0 39.7 108.0 40.4 109.0 40.5 110.0 39.3 111.0 40.2 112.0 40.0 113.0 40.4 114.0 39.5 115.0 40 115 40.2 114.0 39.9 113.0 39.8 112.0 41.2 111.1 40.1 110.0 39.7 109.0 40.2 108.0 39.8 107.0 40.8 106.0 41.1 105.0 40.0 104.0 39.7 103.0 40.2 102.0 40.8 101.0 40.7 100.0 40.1 99.0 41.2 98.0 41.1 97.0 40.0 96.0 41.1 95.0 40.6 94.0 41.5 93.0 40.2 92.0 40.1 91.0 41.5 90.0 40.3 89.0 42.0 88.0 40.5 87.0 40.2 86.0 42.1 85.0 41.7 84.0 41.3 83.0 40.4 82.0 42.1 81.0 41.3 80.0 41.0 79.0 41.7 78.0 42.0 77.0 41.1 76.0 40.7 75.0 41.5 74.0 41.3 73.0 42.3 72.0 42.1 71.0 42.1 70.0 41.8 69.0 40.4 68.0 42.3 67.0 41.8 66.0 40.7 65.0 40.9 64.0 42.3 63.0 40.6 62.0 41.1 61.0 42.3 60.0 40.8 59.0 40.5 58.0 40.5 57.0 41.9 56.0 40.6 55.0 41.3 54.0 40.6 53.0 40.6 52.0 42.1 51.0 42.0 50.0 41.0 49.0 41.4 48.0 42.1 47.0 41.7 46.0 40.9 45.0 41.0 44.0 40.6 43.0 41.2 42.0 41.2 41.0 41.4 40.0 41.7 39.0 40.5 38.0 41.8 37.0 41.1 36.0 40.3 35.0 41.1 34.0 41.6 33.0 41.2 32.0 41.5 31.0 41.0 30.0 40.2 29.0 39.8 28.0 39.8 27.0 40.8 26.0 40.4 25.0 40.5 24.0 40.0 23.0 40.1 22.0 40.3 21.0 40.8 20.0 39.9 19.0 39.9 18.0 39.5 17.0 41.0 16.0 40.6 15.0 41.1 14.0 39.5 13.0 39.4 12.0 41.0 10.9 39.5 10.0 40 10 Z" opacity="0.2" stroke="white" stroke-width="1"></path><path fill="url(#red_nw_se)" d="M10 10C  11.6 12.5 13.2 15.0 14.7 17.5 16.2 20.1 17.7 22.7 19.1 25.3 20.5 27.9 21.8 30.6 23.1 33.3 24.3 36.0 25.5 38.7 26.7 41.4 27.8 44.2 28.8 47.0 29.8 49.8 30.8 52.6 31.7 55.4 32.6 58.2 33.4 61.1 34.2 63.9 34.9 66.8 35.6 69.7 36.2 72.6 36.8 75.5 37.3 78.4 37.8 81.4 38.3 84.3 38.7 87.2 39.0 90.2 39.3 93.1 39.6 96.1 39.8 99.1 39.9 102.0 40.0 105.0 40 105 39.6 102.0 39.1 99.0 38.6 96.0 38.1 93.0 37.5 90.0 36.9 87.1 36.3 84.1 35.7 81.1 35.0 78.2 34.3 75.2 33.5 72.3 32.8 69.3 32.0 66.4 31.2 63.5 30.3 60.6 29.4 57.7 28.5 54.8 27.6 51.9 26.6 49.0 25.6 46.2 24.6 43.3 23.5 40.5 22.4 37.7 21.3 34.8 20.2 32.0 19.0 29.2 17.8 26.4 16.6 23.7 15.3 20.9 14.0 18.2 12.7 15.4 11.4 12.7 10.0 10.0 10 10 Z"></path><path fill="url(#red_ne_sw)" d="M42 22C  40.1 24.3 38.2 26.6 36.3 28.9 34.5 31.3 32.7 33.8 31.0 36.2 29.4 38.7 27.8 41.2 26.2 43.8 24.7 46.4 23.3 49.0 21.9 51.7 20.5 54.3 19.2 57.0 18.0 59.8 16.8 62.5 15.7 65.3 14.6 68.1 13.6 70.9 12.6 73.7 11.7 76.6 10.9 79.5 10.1 82.4 9.3 85.3 8.7 88.2 8.1 91.1 7.5 94.0 7.0 97.0 7 97 7.9 94.2 8.8 91.3 9.7 88.5 10.7 85.7 11.7 82.9 12.7 80.2 13.8 77.4 14.9 74.6 16.0 71.9 17.1 69.1 18.3 66.4 19.4 63.7 20.7 61.0 21.9 58.3 23.2 55.6 24.5 52.9 25.8 50.3 27.1 47.6 28.5 45.0 29.9 42.4 31.3 39.8 32.8 37.2 34.2 34.6 35.7 32.1 37.3 29.5 38.8 27.0 40.4 24.5 42.0 22.0 42 22 Z"></path><path fill="url(#ginger)" d="M18 55C  19.5 53.3 21.8 52.7 24.1 52.5 26.1 54.1 27.9 55.1 28 55 30.0 56.3 29.5 59.0 30.2 61.1 28.3 62.9 27.8 64.9 28 65 26.7 66.9 24.1 66.8 21.9 67.3 19.9 66.1 17.9 65.1 18 65 17.4 62.8 15.4 61.3 16.4 58.9 16.3 56.7 17.4 54.6 18 55 Z"></path><g transform="translate(80,30) rotate(90)"><rect x="0" y="0" width="5" height="3" transform="scale(0.8432628060456193) translate(25,50) rotate(237)" fill="rgb(112, 179, 75)"></rect><rect x="0" y="0" width="5" height="3" transform="scale(0.8239973721337069) translate(25,50) rotate(73)" fill="rgb(83, 151, 44)"></rect><rect x="0" y="0" width="5" height="3" transform="scale(1.245749856265705) translate(25,50) rotate(53)" fill="rgb(145, 210, 108)"></rect><rect x="0" y="0" width="5" height="3" transform="scale(1.106558066048028) translate(25,50) rotate(27)" fill="rgb(80, 148, 41)"></rect><rect x="0" y="0" width="5" height="3" transform="scale(1.2010719985368472) translate(25,50) rotate(311)" fill="rgb(113, 180, 76)"></rect><rect x="0" y="0" width="5" height="3" transform="scale(1.170166458234216) translate(25,50) rotate(18)" fill="rgb(160, 224, 124)"></rect><rect x="0" y="0" width="5" height="3" transform="scale(0.9271745878321946) translate(25,50) rotate(212)" fill="rgb(80, 148, 41)"></rect><rect x="0" y="0" width="5" height="3" transform="scale(0.828345601056954) translate(25,50) rotate(238)" fill="rgb(56, 126, 17)"></rect><rect x="0" y="0" width="5" height="3" transform="scale(1.079090178337173) translate(25,50) rotate(180)" fill="rgb(144, 209, 107)"></rect><rect x="0" y="0" width="5" height="3" transform="scale(1.012949995530012) translate(25,50) rotate(51)" fill="rgb(152, 216, 116)"></rect><rect x="0" y="0" width="5" height="3" transform="scale(1.233375178234039) translate(25,50) rotate(338)" fill="rgb(80, 148, 41)"></rect><rect x="0" y="0" width="5" height="3" transform="scale(1.2266466414587582) translate(25,50) rotate(147)" fill="rgb(106, 173, 68)"></rect><circle cx="20" cy="48" r="1.7893488218951514" transform="translate(2,13)" fill="none" stroke="rgb(160, 224, 124)" stroke-width="0.75"></circle><circle cx="20" cy="48" r="1.02507374866944" transform="translate(1,2)" fill="none" stroke="rgb(134, 199, 97)" stroke-width="0.75"></circle><circle cx="20" cy="48" r="1.7029612768410745" transform="translate(10,4)" fill="none" stroke="rgb(64, 133, 25)" stroke-width="0.75"></circle><circle cx="20" cy="48" r="1.7186227109020755" transform="translate(8,10)" fill="none" stroke="rgb(62, 131, 23)" stroke-width="0.75"></circle><circle cx="20" cy="48" r="1.5543121072970283" transform="translate(5,1)" fill="none" stroke="rgb(43, 113, 3)" stroke-width="0.75"></circle><circle cx="20" cy="48" r="1.8323054498681002" transform="translate(11,1)" fill="none" stroke="rgb(161, 225, 125)" stroke-width="0.75"></circle><circle cx="20" cy="48" r="1.9847189132143532" transform="translate(1,10)" fill="none" stroke="rgb(157, 221, 121)" stroke-width="0.75"></circle><circle cx="20" cy="48" r="1.2976955070787914" transform="translate(9,12)" fill="none" stroke="rgb(57, 126, 18)" stroke-width="0.75"></circle><circle cx="20" cy="48" r="1.730932438993333" transform="translate(1,4)" fill="none" stroke="rgb(146, 211, 110)" stroke-width="0.75"></circle><circle cx="20" cy="48" r="1.3653116536096392" transform="translate(11,10)" fill="none" stroke="rgb(42, 112, 2)" stroke-width="0.75"></circle><circle cx="20" cy="48" r="1.0875956187342957" transform="translate(3,12)" fill="none" stroke="rgb(40, 110, 0)" stroke-width="0.75"></circle><circle cx="20" cy="48" r="1.7725608332795324" transform="translate(15,11)" fill="none" stroke="rgb(84, 152, 46)" stroke-width="0.75"></circle></g></g></g></g></svg>
