<svg version="1.1" baseProfile="full" xmlns="http://www.w3.org/2000/svg" width="300" height="300" style="background: gray">
  <!-- made by Harry Li github.com/harryli0088 -->
  <defs>
    <linearGradient id="skin" x1="0%" y1="0%" x2="100%" y2="100%">
      <stop offset="0%" style="stop-color:#DFDFDF;stop-opacity:1"></stop>
      <stop offset="100%" style="stop-color:#5A6362;stop-opacity:1"></stop>
    </linearGradient>
  </defs>
  <defs>
    <linearGradient id="red_nw_se" x1="0%" y1="0%" x2="100%" y2="100%">
      <stop offset="0%" style="stop-color:#FF9393;stop-opacity:1"></stop>
      <stop offset="100%" style="stop-color:#CB0000;stop-opacity:1"></stop>
    </linearGradient>
  </defs>
  <defs>
    <linearGradient id="red_ne_sw" x1="100%" y1="0%" x2="0%" y2="100%">
      <stop offset="0%" style="stop-color:#FF9393;stop-opacity:1"></stop>
      <stop offset="100%" style="stop-color:#CB0000;stop-opacity:1"></stop>
    </linearGradient>
  </defs>
  <defs>
    <linearGradient id="ginger" x1="0%" y1="0%" x2="100%" y2="100%">
      <stop offset="0%" style="stop-color:#FFF478;stop-opacity:1"></stop>
      <stop offset="100%" style="stop-color:#C1B100;stop-opacity:1"></stop>
    </linearGradient>
  </defs>
<g transform="translate(150,150)"><circle cx="0" cy="0" r="150" fill="#eee"></circle><circle cx="0" cy="0" r="100" fill="none" stroke="#ddd" stroke-width="2"></circle><g transform="translate(-55,-53)"><g transform="translate(0,-10)"><path fill="url(#skin)" d="M0 0C  2.9 0.1 5.9 0.3 8.8 0.6 11.7 1.0 14.6 1.5 17.5 2.0 20.3 2.7 23.2 3.4 26.0 4.2 28.8 5.1 31.6 6.0 34.3 7.1 37.0 8.2 39.7 9.4 42.3 10.7 44.9 12.1 47.5 13.5 50.0 15.0 50 15 50.1 18.0 50.3 21.1 50.4 24.1 50.5 27.1 50.6 30.1 50.7 33.2 50.8 36.2 50.9 39.2 51.0 42.3 51.1 45.3 51.1 48.3 51.2 51.4 51.2 54.4 51.2 57.4 51.2 60.5 51.2 63.5 51.2 66.5 51.2 69.5 51.2 72.6 51.2 75.6 51.2 78.6 51.1 81.7 51.1 84.7 51.0 87.7 50.9 90.8 50.8 93.8 50.7 96.8 50.6 99.9 50.5 102.9 50.4 105.9 50.3 108.9 50.1 112.0 50.0 115.0 50 115 47.1 114.9 44.1 114.7 41.2 114.4 38.3 114.0 35.4 113.5 32.5 113.0 29.7 112.3 26.8 111.6 24.0 110.8 21.2 109.9 18.4 109.0 15.7 107.9 13.0 106.8 10.3 105.6 7.7 104.3 5.1 102.9 2.5 101.5 -0.0 100.0 0 100 -0.1 97.0 -0.3 93.9 -0.4 90.9 -0.5 87.9 -0.6 84.9 -0.7 81.8 -0.8 78.8 -0.9 75.8 -1.0 72.7 -1.1 69.7 -1.1 66.7 -1.2 63.6 -1.2 60.6 -1.2 57.6 -1.2 54.5 -1.2 51.5 -1.2 48.5 -1.2 45.5 -1.2 42.4 -1.2 39.4 -1.2 36.4 -1.1 33.3 -1.1 30.3 -1.0 27.3 -0.9 24.2 -0.8 21.2 -0.7 18.2 -0.6 15.1 -0.5 12.1 -0.4 9.1 -0.3 6.1 -0.1 3.0 -0.0 0.0 0 0 Z"></path><path fill="white" d="M10 0C  9.4 1.0 9.2 2.0 10.5 3.0 9.7 4.0 9.5 5.0 10.4 6.0 8.8 7.0 9.4 8.0 9.9 9.0 8.9 10.0 9.3 11.0 9.7 12.0 9.4 13.0 9.2 14.0 9.3 15.0 9.2 16.0 8.4 17.0 9.9 18.0 9.1 19.0 9.0 20.0 9.3 21.0 9.3 22.0 8.3 23.0 9.5 24.0 8.3 25.0 8.8 26.0 8.4 27.0 8.5 28.0 9.2 29.0 8.2 30.0 8.0 31.0 9.0 32.0 9.3 33.0 9.8 34.0 9.6 35.0 9.2 36.0 9.3 37.0 8.2 38.0 7.9 39.0 8.9 40.0 9.5 41.0 9.6 42.0 9.3 43.0 8.7 44.0 8.3 45.0 9.5 46.0 7.9 47.0 9.4 48.0 9.3 49.0 8.5 50.0 7.9 51.0 8.0 52.0 9.0 53.0 9.1 54.0 9.2 55.0 9.5 56.0 8.3 57.0 7.9 58.0 8.6 59.0 9.4 60.0 8.9 61.0 9.6 62.0 9.4 63.0 8.8 64.0 9.2 65.0 9.0 66.0 8.1 67.0 9.4 68.0 9.5 69.0 8.6 70.0 8.9 71.0 9.0 72.0 8.3 73.0 8.8 74.0 8.3 75.0 8.6 76.0 9.1 77.0 9.9 78.0 9.6 79.0 8.0 80.0 8.0 81.0 9.2 82.0 8.5 83.0 9.1 84.0 8.8 85.0 9.0 86.0 8.6 87.0 8.7 88.0 9.5 89.0 8.3 90.0 8.5 91.0 8.4 92.0 8.8 93.0 9.2 94.0 9.0 95.0 9.5 96.0 9.0 97.0 10.3 98.0 9.5 99.0 8.9 100.0 10.8 101.0 10.6 102.0 9.6 103.0 9.2 104.0 9.6 105.0 10 105 9.8 104.0 10.4 103.0 9.4 102.0 10.1 101.0 10.4 100.0 9.2 99.0 9.1 98.0 9.7 97.0 9.3 96.0 8.7 95.0 9.1 94.0 9.2 93.0 8.7 92.0 9.0 91.0 8.6 90.0 10.3 89.0 8.3 88.0 10.0 87.0 8.7 86.0 8.7 85.0 9.0 84.0 8.2 83.0 9.4 82.0 9.3 81.0 9.9 80.0 8.4 79.0 8.3 78.0 9.0 77.0 9.5 76.0 9.7 75.0 8.9 74.0 8.9 73.0 8.5 72.0 8.8 71.0 8.9 70.0 8.2 69.0 9.4 68.0 8.4 67.0 8.7 66.0 7.8 65.0 8.4 64.0 9.1 63.0 8.4 62.0 8.0 61.0 7.8 60.0 8.3 59.0 8.6 58.0 8.0 57.0 9.3 56.0 7.7 55.0 8.0 54.0 7.7 53.0 8.3 52.0 8.6 51.0 7.8 50.0 9.4 49.0 8.6 48.0 8.6 47.0 8.5 46.0 8.4 45.0 8.5 44.0 9.4 43.0 8.2 42.0 9.0 41.0 8.0 40.0 8.7 39.0 8.5 38.0 9.4 37.0 8.9 36.0 8.5 35.0 8.6 34.0 9.3 33.0 9.3 32.0 9.0 31.0 9.5 30.0 8.6 29.0 9.0 28.0 8.8 27.0 9.5 26.0 9.6 25.0 8.2 24.0 9.8 23.0 8.9 22.0 9.3 21.0 9.7 20.0 9.9 19.0 8.6 18.0 9.2 17.0 9.3 16.0 9.4 15.0 8.4 14.0 9.6 13.0 9.1 12.0 9.3 11.0 9.5 10.0 10.0 9.0 10.3 8.0 9.6 7.0 9.8 6.0 10.3 5.0 10.1 4.0 9.0 3.0 9.9 2.0 10.1 1.0 10.8 0.0 10 0 Z" opacity="0.2" stroke="white" stroke-width="1"></path><path fill="white" d="M20 4C  20.8 5.0 19.7 6.0 20.5 7.0 20.4 8.0 20.5 9.0 19.2 10.0 19.8 11.0 20.6 12.0 20.0 13.0 19.4 14.0 19.2 15.0 19.0 16.0 20.2 17.0 20.8 18.0 20.6 19.0 19.5 20.0 20.7 21.0 20.5 22.0 20.4 23.0 20.7 24.0 19.1 25.0 19.0 26.0 19.0 27.0 19.5 28.0 20.3 29.0 19.2 30.0 20.7 31.0 19.1 32.0 20.0 33.0 20.4 34.0 20.0 35.0 19.4 36.0 20.7 37.0 20.9 38.0 19.1 39.0 19.1 40.0 19.2 41.0 19.2 42.0 20.1 43.0 19.6 44.0 19.7 45.0 19.7 46.0 20.8 47.0 20.2 48.0 19.8 49.0 20.4 50.0 19.7 51.0 20.1 52.0 20.0 53.0 20.1 54.0 19.1 55.0 19.8 56.0 20.6 57.0 19.8 58.0 20.8 59.0 20.0 60.0 20.0 61.0 20.3 62.0 19.2 63.0 20.6 64.0 19.6 65.0 20.7 66.0 19.2 67.0 20.2 68.0 20.4 69.0 19.9 70.0 20.6 71.0 20.6 72.0 19.7 73.0 20.4 74.0 19.0 75.0 19.7 76.0 19.0 77.0 20.8 78.0 19.5 79.0 20.3 80.0 19.8 81.0 19.1 82.0 20.1 83.0 20.9 84.0 19.8 85.0 20.4 86.0 19.9 87.0 20.5 88.0 19.1 89.0 19.4 90.0 20.2 91.0 20.1 92.0 21.0 93.0 20.7 94.0 20.0 95.0 19.5 96.0 19.4 97.0 20.1 98.0 20.4 99.0 20.7 100.0 19.9 101.0 19.3 102.0 19.4 103.0 19.2 104.0 20.8 105.0 19.5 106.0 20.8 107.0 20.4 108.0 19.1 109.0 20 109 Z" opacity="0.2" stroke="white" stroke-width="1"></path><path fill="white" d="M30 7C  30.5 8.0 30.8 9.0 31.0 10.0 30.8 11.0 29.3 12.0 30.9 13.0 29.7 14.0 31.0 15.0 30.1 16.0 29.7 17.0 29.6 18.0 29.1 19.0 29.8 20.0 29.5 21.0 29.8 22.0 29.2 23.0 30.1 24.0 29.1 25.0 30.4 26.0 30.6 27.0 30.4 28.0 30.0 29.0 30.6 30.0 29.1 31.0 29.4 32.0 30.9 33.0 29.7 34.0 29.8 35.0 29.2 36.0 30.7 37.0 30.6 38.0 29.6 39.0 30.6 40.0 29.5 41.0 29.4 42.0 30.5 43.0 29.3 44.0 30.5 45.0 30.0 46.0 30.1 47.0 29.1 48.0 30.2 49.0 29.5 50.0 30.1 51.0 30.8 52.0 30.8 53.0 29.7 54.0 29.3 55.0 30.3 56.0 30.7 57.0 30.7 58.0 30.3 59.0 29.6 60.0 30.3 61.0 31.0 62.0 29.7 63.0 30.1 64.0 30.7 65.0 29.0 66.0 30.8 67.0 30.9 68.0 29.2 69.0 29.2 70.0 30.2 71.0 29.8 72.0 30.5 73.0 29.1 74.0 29.9 75.0 29.7 76.0 29.1 77.0 29.6 78.0 30.6 79.0 30.8 80.0 30.0 81.0 29.1 82.0 30.1 83.0 29.3 84.0 29.5 85.0 29.9 86.0 29.4 87.0 29.6 88.0 29.2 89.0 29.6 90.0 30.4 91.0 29.2 92.0 29.7 93.0 29.1 94.0 30.5 95.0 30.0 96.0 29.5 97.0 29.2 98.0 30.6 99.0 30.4 100.0 30.5 101.0 30.4 102.0 29.3 103.0 29.6 104.0 29.0 105.0 30.5 106.0 30.1 107.0 29.1 108.0 30.1 109.0 29.5 110.0 30.5 111.0 30.4 112.0 30 112 Z" opacity="0.2" stroke="white" stroke-width="1"></path><path fill="white" d="M40 10C  40.4 11.0 41.1 11.9 40.9 13.0 39.3 14.0 39.5 15.0 40.5 16.0 39.7 17.0 39.5 18.0 41.1 19.0 40.8 20.0 39.9 21.0 40.4 22.0 40.7 23.0 41.0 24.0 41.1 25.0 40.8 26.0 40.4 27.0 40.3 28.0 40.7 29.0 40.4 30.0 41.0 31.0 40.0 32.0 41.2 33.0 41.6 34.0 40.2 35.0 40.2 36.0 40.3 37.0 41.1 38.0 41.0 39.0 40.8 40.0 41.4 41.0 41.4 42.0 42.1 43.0 41.9 44.0 41.1 45.0 40.4 46.0 41.1 47.0 41.0 48.0 41.5 49.0 42.2 50.0 42.0 51.0 42.2 52.0 42.3 53.0 42.1 54.0 40.5 55.0 42.1 56.0 41.6 57.0 41.7 58.0 40.9 59.0 40.8 60.0 41.5 61.0 41.8 62.0 41.0 63.0 41.7 64.0 40.6 65.0 40.8 66.0 40.4 67.0 41.3 68.0 41.2 69.0 40.4 70.0 40.6 71.0 40.9 72.0 42.0 73.0 41.7 74.0 41.9 75.0 41.3 76.0 40.9 77.0 41.4 78.0 41.8 79.0 42.0 80.0 41.8 81.0 41.4 82.0 40.5 83.0 40.7 84.0 42.1 85.0 41.9 86.0 40.8 87.0 41.2 88.0 40.4 89.0 40.0 90.0 41.8 91.0 41.9 92.0 40.2 93.0 41.4 94.0 41.5 95.0 41.2 96.0 40.0 97.0 40.5 98.0 41.4 99.0 41.5 100.0 40.9 101.0 40.4 102.0 39.9 103.0 41.3 104.0 41.1 105.0 39.5 106.0 41.4 107.0 40.2 108.0 40.7 109.0 40.3 110.0 39.6 111.0 40.7 112.0 40.9 113.0 40.4 114.0 39.7 115.0 40 115 40.4 114.0 39.5 113.0 40.1 112.0 39.5 111.0 39.6 110.0 41.2 109.0 39.8 108.0 39.6 107.0 40.4 106.0 40.2 105.0 41.1 104.0 40.5 103.0 40.4 102.0 41.0 101.0 39.8 100.0 40.2 99.0 41.5 98.0 41.2 97.0 41.8 96.0 41.6 95.0 39.9 94.0 41.2 93.0 40.6 92.0 41.8 91.0 40.2 90.0 40.8 89.0 41.3 88.0 41.3 87.0 40.9 86.0 41.9 85.0 41.3 84.0 40.9 83.0 41.8 82.0 40.7 81.0 40.3 80.0 42.0 79.0 41.8 78.0 40.8 77.0 41.2 76.0 41.7 75.0 41.3 74.0 42.0 73.0 41.4 72.0 40.7 71.0 42.2 70.0 40.9 69.0 42.2 68.0 41.0 67.0 40.4 66.0 41.4 65.0 41.7 64.0 41.3 63.0 42.2 62.0 41.6 61.0 41.1 60.0 41.0 59.0 41.4 58.0 41.4 57.0 41.8 56.0 41.8 55.0 40.4 54.0 41.3 53.0 42.2 52.0 40.9 51.0 41.4 50.0 40.4 49.0 41.8 48.0 42.2 47.0 40.4 46.0 41.7 45.0 40.8 44.0 42.1 43.0 40.6 42.0 41.4 41.0 41.6 40.0 42.0 39.0 41.9 38.0 40.3 37.0 41.3 36.0 41.0 35.0 41.5 34.0 41.2 33.0 40.1 32.0 40.3 31.0 40.8 30.0 41.3 29.0 40.4 28.0 41.4 27.0 40.2 26.0 40.4 25.0 40.6 24.0 41.3 23.0 41.3 22.0 41.2 21.0 40.6 20.0 40.3 19.0 40.7 18.0 39.7 17.0 39.6 16.0 40.6 15.0 40.8 14.0 39.3 13.0 39.4 12.0 40.9 11.0 40.7 10.0 40 10 Z" opacity="0.2" stroke="white" stroke-width="1"></path><path fill="url(#red_nw_se)" d="M10 10C  11.6 12.5 13.2 15.0 14.7 17.5 16.2 20.1 17.7 22.7 19.1 25.3 20.5 27.9 21.8 30.6 23.1 33.3 24.3 36.0 25.5 38.7 26.7 41.4 27.8 44.2 28.8 47.0 29.8 49.8 30.8 52.6 31.7 55.4 32.6 58.2 33.4 61.1 34.2 63.9 34.9 66.8 35.6 69.7 36.2 72.6 36.8 75.5 37.3 78.4 37.8 81.4 38.3 84.3 38.7 87.2 39.0 90.2 39.3 93.1 39.6 96.1 39.8 99.1 39.9 102.0 40.0 105.0 40 105 39.6 102.0 39.1 99.0 38.6 96.0 38.1 93.0 37.5 90.0 36.9 87.1 36.3 84.1 35.7 81.1 35.0 78.2 34.3 75.2 33.5 72.3 32.8 69.3 32.0 66.4 31.2 63.5 30.3 60.6 29.4 57.7 28.5 54.8 27.6 51.9 26.6 49.0 25.6 46.2 24.6 43.3 23.5 40.5 22.4 37.7 21.3 34.8 20.2 32.0 19.0 29.2 17.8 26.4 16.6 23.7 15.3 20.9 14.0 18.2 12.7 15.4 11.4 12.7 10.0 10.0 10 10 Z"></path><path fill="url(#red_ne_sw)" d="M40 20C  38.2 22.4 36.4 24.9 34.7 27.4 33.0 29.9 31.4 32.5 29.9 35.1 28.3 37.7 26.9 40.3 25.5 43.0 24.1 45.7 22.8 48.5 21.6 51.3 20.4 54.0 19.3 56.9 18.2 59.7 17.2 62.5 16.3 65.4 15.4 68.3 14.5 71.2 13.8 74.2 13.0 77.1 12.4 80.1 11.8 83.0 11.3 86.0 10.8 89.0 10.4 92.0 10.0 95.0 10 95 10.7 92.1 11.5 89.2 12.3 86.3 13.1 83.4 14.0 80.5 14.9 77.7 15.8 74.8 16.8 72.0 17.7 69.1 18.7 66.3 19.8 63.5 20.8 60.7 21.9 57.9 23.0 55.1 24.2 52.3 25.3 49.6 26.5 46.8 27.8 44.1 29.0 41.3 30.3 38.6 31.6 35.9 32.9 33.2 34.3 30.6 35.7 27.9 37.1 25.3 38.5 22.6 40.0 20.0 40 20 Z"></path><path fill="url(#ginger)" d="M20 50C  22.1 49.4 23.0 47.6 25.2 47.9 27.0 47.4 28.9 47.4 30.6 48.5 32.6 49.3 32 50 33.5 51.2 34.3 53.1 33.9 55.2 34.2 57.0 34.8 59.0 32.6 60.2 32.3 62.3 32 62 30.4 63.1 28.8 64.1 26.9 64.6 25.0 64.6 23.0 64.7 21.8 62.7 19.8 62.3 20 62 19.4 60.0 17.8 58.9 18.0 56.8 16.5 55.0 16.9 52.9 19.1 51.6 19.5 49.5 20 50 Z"></path><g><rect x="0" y="0" width="7" height="4" transform="scale(1.0173366731542617) translate(25,50) rotate(279)" fill="rgb(79, 173, 26)"></rect><rect x="0" y="0" width="7" height="4" transform="scale(0.9046158083795998) translate(25,50) rotate(308)" fill="rgb(80, 175, 27)"></rect><rect x="0" y="0" width="7" height="4" transform="scale(1.1859501194100446) translate(25,50) rotate(202)" fill="rgb(66, 152, 17)"></rect><rect x="0" y="0" width="7" height="4" transform="scale(0.8629111141388617) translate(25,50) rotate(66)" fill="rgb(76, 168, 24)"></rect><rect x="0" y="0" width="7" height="4" transform="scale(1.238188668836028) translate(25,50) rotate(257)" fill="rgb(55, 134, 10)"></rect><rect x="0" y="0" width="7" height="4" transform="scale(0.835122201864573) translate(25,50) rotate(22)" fill="rgb(91, 192, 34)"></rect><rect x="0" y="0" width="7" height="4" transform="scale(1.1334129525670926) translate(25,50) rotate(245)" fill="rgb(53, 131, 9)"></rect><rect x="0" y="0" width="7" height="4" transform="scale(1.2221231813057247) translate(25,50) rotate(356)" fill="rgb(56, 136, 11)"></rect><rect x="0" y="0" width="7" height="4" transform="scale(0.8636765177114536) translate(25,50) rotate(92)" fill="rgb(77, 170, 25)"></rect><rect x="0" y="0" width="7" height="4" transform="scale(1.0997264133187235) translate(25,50) rotate(2)" fill="rgb(87, 187, 32)"></rect><rect x="0" y="0" width="7" height="4" transform="scale(0.8777101313916168) translate(25,50) rotate(8)" fill="rgb(42, 112, 1)"></rect><rect x="0" y="0" width="7" height="4" transform="scale(0.84553842530928) translate(25,50) rotate(258)" fill="rgb(52, 129, 8)"></rect><circle cx="20" cy="48" r="2.1765289714075764" transform="translate(7,14)" fill="none" stroke="rgb(67, 154, 18)" stroke-width="1"></circle><circle cx="20" cy="48" r="2.090659673363981" transform="translate(3,9)" fill="none" stroke="rgb(80, 174, 27)" stroke-width="1"></circle><circle cx="20" cy="48" r="2.1920820441186324" transform="translate(4,3)" fill="none" stroke="rgb(93, 195, 35)" stroke-width="1"></circle><circle cx="20" cy="48" r="2.0440036347936013" transform="translate(14,15)" fill="none" stroke="rgb(87, 186, 31)" stroke-width="1"></circle><circle cx="20" cy="48" r="2.4889123131640316" transform="translate(15,11)" fill="none" stroke="rgb(95, 198, 36)" stroke-width="1"></circle><circle cx="20" cy="48" r="2.1777812866358053" transform="translate(11,4)" fill="none" stroke="rgb(63, 147, 15)" stroke-width="1"></circle><circle cx="20" cy="48" r="2.0778090599401517" transform="translate(13,5)" fill="none" stroke="rgb(84, 181, 29)" stroke-width="1"></circle><circle cx="20" cy="48" r="2.6196512690440352" transform="translate(9,15)" fill="none" stroke="rgb(50, 127, 7)" stroke-width="1"></circle><circle cx="20" cy="48" r="2.9921015294289663" transform="translate(1,2)" fill="none" stroke="rgb(51, 128, 8)" stroke-width="1"></circle><circle cx="20" cy="48" r="2.8181661622351717" transform="translate(6,12)" fill="none" stroke="rgb(84, 181, 29)" stroke-width="1"></circle><circle cx="20" cy="48" r="2.6458352987788656" transform="translate(5,8)" fill="none" stroke="rgb(69, 157, 19)" stroke-width="1"></circle><circle cx="20" cy="48" r="2.9630923419266164" transform="translate(6,8)" fill="none" stroke="rgb(67, 154, 18)" stroke-width="1"></circle></g></g><g transform="translate(60,10)"><path fill="url(#skin)" d="M0 0C  2.9 0.1 5.9 0.3 8.8 0.6 11.7 1.0 14.6 1.5 17.5 2.0 20.3 2.7 23.2 3.4 26.0 4.2 28.8 5.1 31.6 6.0 34.3 7.1 37.0 8.2 39.7 9.4 42.3 10.7 44.9 12.1 47.5 13.5 50.0 15.0 50 15 50.1 18.0 50.3 21.1 50.4 24.1 50.5 27.1 50.6 30.1 50.7 33.2 50.8 36.2 50.9 39.2 51.0 42.3 51.1 45.3 51.1 48.3 51.2 51.4 51.2 54.4 51.2 57.4 51.2 60.5 51.2 63.5 51.2 66.5 51.2 69.5 51.2 72.6 51.2 75.6 51.2 78.6 51.1 81.7 51.1 84.7 51.0 87.7 50.9 90.8 50.8 93.8 50.7 96.8 50.6 99.9 50.5 102.9 50.4 105.9 50.3 108.9 50.1 112.0 50.0 115.0 50 115 47.1 114.9 44.1 114.7 41.2 114.4 38.3 114.0 35.4 113.5 32.5 113.0 29.7 112.3 26.8 111.6 24.0 110.8 21.2 109.9 18.4 109.0 15.7 107.9 13.0 106.8 10.3 105.6 7.7 104.3 5.1 102.9 2.5 101.5 -0.0 100.0 0 100 -0.1 97.0 -0.3 93.9 -0.4 90.9 -0.5 87.9 -0.6 84.9 -0.7 81.8 -0.8 78.8 -0.9 75.8 -1.0 72.7 -1.1 69.7 -1.1 66.7 -1.2 63.6 -1.2 60.6 -1.2 57.6 -1.2 54.5 -1.2 51.5 -1.2 48.5 -1.2 45.5 -1.2 42.4 -1.2 39.4 -1.2 36.4 -1.1 33.3 -1.1 30.3 -1.0 27.3 -0.9 24.2 -0.8 21.2 -0.7 18.2 -0.6 15.1 -0.5 12.1 -0.4 9.1 -0.3 6.1 -0.1 3.0 -0.0 0.0 0 0 Z"></path><path fill="white" d="M10 0C  10.9 1.0 10.0 2.0 9.8 3.0 10.7 4.0 10.7 5.0 9.0 6.0 9.7 7.0 9.8 8.0 9.1 9.0 8.7 10.0 10.3 11.0 9.7 12.0 8.7 13.0 8.9 14.0 8.5 15.0 9.8 16.0 9.0 17.0 10.1 18.0 9.6 19.0 9.9 20.0 8.9 21.0 9.3 22.0 8.9 23.0 8.0 24.0 10.0 25.0 9.1 26.0 9.0 27.0 8.2 28.0 8.3 29.0 9.5 30.0 8.2 31.0 9.5 32.0 9.2 33.0 8.6 34.0 8.0 35.0 9.4 36.0 8.4 37.0 8.9 38.0 8.7 39.0 9.5 40.0 8.7 41.0 7.8 42.0 9.5 43.0 8.6 44.0 9.1 45.0 8.7 46.0 9.4 47.0 8.7 48.0 9.2 49.0 8.0 50.0 7.8 51.0 8.9 52.0 9.4 53.0 9.3 54.0 9.3 55.0 9.1 56.0 7.8 57.0 9.3 58.0 9.6 59.0 8.0 60.0 9.6 61.0 8.8 62.0 8.3 63.0 8.4 64.0 9.1 65.0 9.6 66.0 8.6 67.0 8.7 68.0 7.9 69.0 9.6 70.0 8.8 71.0 8.2 72.0 8.6 73.0 9.4 74.0 8.9 75.0 9.6 76.0 8.4 77.0 9.1 78.0 8.6 79.0 8.1 80.0 8.8 81.0 9.6 82.0 9.7 83.0 9.5 84.0 8.7 85.0 9.3 86.0 10.2 87.0 8.3 88.0 9.3 89.0 9.5 90.0 8.6 91.0 9.3 92.0 8.5 93.0 8.8 94.0 8.9 95.0 10.4 96.0 9.8 97.0 9.0 98.0 9.2 99.0 9.4 100.0 9.4 101.0 10.7 102.0 10.9 103.0 9.5 104.0 9.5 105.0 10 105 10.5 104.0 9.3 103.0 9.0 102.0 8.8 101.1 10.6 100.0 8.8 99.0 9.2 98.0 9.5 97.0 9.2 96.0 9.0 95.0 10.5 94.0 9.9 93.0 9.8 92.0 8.4 91.0 10.2 90.0 9.7 89.0 9.9 88.0 9.3 87.0 9.8 86.0 9.5 85.0 9.7 84.0 8.1 83.0 9.1 82.0 9.5 81.0 8.3 80.0 9.9 79.0 9.5 78.0 8.1 77.0 8.2 76.0 9.0 75.0 9.6 74.0 8.5 73.0 8.0 72.0 9.0 71.0 8.6 70.0 8.4 69.0 7.8 68.0 9.3 67.0 9.5 66.0 7.9 65.0 8.8 64.0 9.1 63.0 9.4 62.0 9.3 61.0 9.1 60.0 8.3 59.0 8.9 58.0 8.6 57.0 8.5 56.0 8.2 55.0 9.6 54.0 9.2 53.0 9.4 52.0 9.5 51.0 8.4 50.0 9.5 49.0 7.8 48.0 9.0 47.0 7.8 46.0 7.9 45.0 9.1 44.0 8.3 43.0 7.7 42.0 8.2 41.0 7.8 40.0 8.9 39.0 8.4 38.0 8.8 37.0 9.4 36.0 8.3 35.0 9.5 34.0 8.6 33.0 8.9 32.0 8.7 31.0 9.2 30.0 9.8 29.0 9.3 28.0 8.8 27.0 8.7 26.0 9.8 25.0 9.0 24.0 10.0 23.0 9.7 22.0 9.9 21.0 8.4 20.0 9.8 19.0 9.5 18.0 8.6 17.0 10.0 16.0 8.4 15.0 8.6 14.0 8.9 13.0 10.4 12.0 8.8 11.0 9.6 10.0 10.1 9.0 9.1 8.0 9.9 7.0 9.4 6.0 10.7 5.0 9.2 4.0 10.2 3.0 9.9 2.0 9.0 1.0 9.6 -0.0 10 0 Z" opacity="0.2" stroke="white" stroke-width="1"></path><path fill="white" d="M20 3C  19.5 4.0 19.4 5.0 19.3 6.0 21.0 7.0 20.4 8.0 20.4 9.0 19.0 10.0 19.8 11.0 19.0 12.0 19.8 13.0 19.6 14.0 20.9 15.0 20.3 16.0 19.3 17.0 20.6 18.0 19.2 19.0 20.0 20.0 20.5 21.0 19.8 22.0 19.1 23.0 20.4 24.0 20.0 25.0 20.6 26.0 19.4 27.0 19.8 28.0 20.5 29.0 20.9 30.0 19.2 31.0 20.1 32.0 19.7 33.0 20.3 34.0 21.0 35.0 20.4 36.0 20.9 37.0 19.2 38.0 20.1 39.0 20.1 40.0 20.7 41.0 20.1 42.0 20.8 43.0 20.9 44.0 19.3 45.0 19.0 46.0 20.7 47.0 20.0 48.0 20.0 49.0 19.0 50.0 19.9 51.0 20.6 52.0 19.5 53.0 19.3 54.0 20.1 55.0 20.6 56.0 20.1 57.0 19.7 58.0 20.7 59.0 20.9 60.0 20.3 61.0 19.7 62.0 19.7 63.0 19.5 64.0 20.0 65.0 20.8 66.0 19.7 67.0 19.6 68.0 19.7 69.0 20.1 70.0 21.0 71.0 19.4 72.0 19.3 73.0 20.7 74.0 19.2 75.0 19.2 76.0 19.4 77.0 20.7 78.0 19.7 79.0 19.4 80.0 20.4 81.0 20.1 82.0 20.8 83.0 19.6 84.0 19.5 85.0 19.3 86.0 20.7 87.0 20.1 88.0 20.4 89.0 20.4 90.0 20.3 91.0 20.5 92.0 20.4 93.0 19.6 94.0 20.6 95.0 19.8 96.0 20.8 97.0 20.7 98.0 20.1 99.0 19.5 100.0 20.6 101.0 19.9 102.0 20.2 103.0 20.1 104.0 19.9 105.0 20.2 106.0 20.8 107.0 19.4 108.0 20 108 Z" opacity="0.2" stroke="white" stroke-width="1"></path><path fill="white" d="M30 7C  30.6 8.0 29.5 9.0 29.4 10.0 29.8 11.0 30.5 12.0 29.8 13.0 29.1 14.0 29.1 15.0 29.9 16.0 29.8 17.0 29.6 18.0 29.1 19.0 30.3 20.0 30.4 21.0 30.4 22.0 30.6 23.0 29.6 24.0 29.8 25.0 29.9 26.0 30.4 27.0 29.5 28.0 29.8 29.0 30.7 30.0 29.5 31.0 29.6 32.0 30.7 33.0 30.9 34.0 30.7 35.0 29.7 36.0 29.1 37.0 29.7 38.0 30.8 39.0 31.0 40.0 29.1 41.0 29.8 42.0 30.8 43.0 29.0 44.0 30.2 45.0 30.1 46.0 30.2 47.0 30.2 48.0 29.5 49.0 29.0 50.0 29.8 51.0 30.6 52.0 29.4 53.0 30.4 54.0 30.1 55.0 30.6 56.0 29.0 57.0 30.4 58.0 30.7 59.0 30.8 60.0 30.2 61.0 29.4 62.0 30.3 63.0 30.7 64.0 29.0 65.0 29.6 66.0 29.8 67.0 29.7 68.0 30.4 69.0 30.2 70.0 30.8 71.0 30.7 72.0 29.5 73.0 29.2 74.0 30.3 75.0 29.2 76.0 30.0 77.0 30.8 78.0 29.5 79.0 30.5 80.0 30.1 81.0 30.0 82.0 30.9 83.0 29.4 84.0 29.1 85.0 30.1 86.0 29.8 87.0 30.9 88.0 30.4 89.0 29.3 90.0 29.9 91.0 30.2 92.0 30.6 93.0 30.8 94.0 29.9 95.0 30.4 96.0 29.1 97.0 30.2 98.0 30.0 99.0 30.5 100.0 29.1 101.0 29.3 102.0 30.4 103.0 30.5 104.0 30.0 105.0 29.6 106.0 30.9 107.0 30.3 108.0 30.4 109.0 29.0 110.0 30.7 111.0 30.8 112.0 30 112 Z" opacity="0.2" stroke="white" stroke-width="1"></path><path fill="white" d="M40 10C  41.0 11.0 39.9 12.0 40.6 13.0 40.7 14.0 39.7 15.0 40.9 16.0 40.4 17.0 40.6 18.0 40.9 19.0 41.2 20.0 40.5 21.0 41.6 22.0 40.7 23.0 40.8 24.0 39.7 25.0 39.8 26.0 41.1 27.0 41.4 28.0 40.8 29.0 40.8 30.0 41.9 31.0 40.3 32.0 41.1 33.0 41.4 34.0 40.0 35.0 41.2 36.0 41.9 37.0 40.5 38.0 41.7 39.0 41.9 40.0 40.4 41.0 40.8 42.0 40.7 43.0 40.4 44.0 40.3 45.0 41.4 46.0 40.4 47.0 42.1 48.0 41.0 49.0 42.3 50.0 42.0 51.0 40.3 52.0 41.1 53.0 40.6 54.0 41.2 55.0 41.4 56.0 41.3 57.0 40.7 58.0 41.9 59.0 42.2 60.0 41.7 61.0 41.1 62.0 42.3 63.0 41.5 64.0 41.5 65.0 42.0 66.0 41.9 67.0 41.3 68.0 41.9 69.0 40.6 70.0 40.7 71.0 40.6 72.0 40.8 73.0 41.0 74.0 40.6 75.0 42.2 76.0 40.7 77.0 41.3 78.0 40.6 79.0 41.9 80.0 41.2 81.0 41.7 82.0 40.8 83.0 41.3 84.0 42.0 85.0 40.9 86.0 41.6 87.0 40.9 88.0 40.8 89.0 40.6 90.0 41.0 91.0 40.1 92.0 41.6 93.0 41.1 94.0 39.9 95.0 40.8 96.0 40.7 97.0 41.5 98.0 39.9 99.0 40.6 100.0 40.6 101.0 41.2 102.0 39.8 103.0 39.7 104.0 40.9 105.0 40.1 106.0 40.9 107.0 39.5 108.0 40.7 109.0 39.9 110.0 41.2 111.1 40.6 112.0 40.9 113.0 40.5 114.0 40.0 115.0 40 115 40.4 114.0 39.1 113.0 39.7 112.0 41.1 111.0 39.4 110.0 40.8 109.0 40.4 108.0 41.4 107.1 39.9 106.0 40.0 105.0 40.7 104.0 40.2 103.0 41.0 102.0 40.2 101.0 39.8 100.0 41.5 99.0 40.6 98.0 41.2 97.0 40.5 96.0 41.2 95.0 40.0 94.0 40.0 93.0 41.2 92.0 40.9 91.0 41.1 90.0 40.5 89.0 40.1 88.0 41.7 87.0 42.1 86.0 40.2 85.0 41.2 84.0 40.3 83.0 41.6 82.0 40.2 81.0 41.2 80.0 40.7 79.0 40.5 78.0 40.3 77.0 41.7 76.0 42.0 75.0 42.2 74.0 41.3 73.0 40.9 72.0 41.2 71.0 40.9 70.0 40.8 69.0 41.8 68.0 42.4 67.0 41.7 66.0 42.2 65.0 40.6 64.0 41.0 63.0 41.0 62.0 41.9 61.0 41.0 60.0 40.6 59.0 40.6 58.0 42.4 57.0 41.7 56.0 42.2 55.0 41.7 54.0 42.2 53.0 40.9 52.0 41.0 51.0 41.0 50.0 41.1 49.0 41.8 48.0 40.5 47.0 40.6 46.0 41.9 45.0 41.8 44.0 41.1 43.0 41.4 42.0 41.2 41.0 41.5 40.0 40.4 39.0 41.4 38.0 41.0 37.0 41.6 36.0 40.1 35.0 41.3 34.0 41.5 33.0 40.6 32.0 41.6 31.0 40.9 30.0 40.9 29.0 41.1 28.0 40.2 27.0 41.6 26.0 41.6 25.0 40.1 24.0 40.4 23.0 40.3 22.0 40.6 21.0 40.5 20.0 41.0 19.0 39.5 18.0 39.6 17.0 39.7 16.0 40.6 15.0 40.3 14.0 40.5 13.0 41.1 11.9 40.3 11.0 40.0 10.0 40 10 Z" opacity="0.2" stroke="white" stroke-width="1"></path><path fill="url(#red_nw_se)" d="M10 10C  11.6 12.5 13.2 15.0 14.7 17.5 16.2 20.1 17.7 22.7 19.1 25.3 20.5 27.9 21.8 30.6 23.1 33.3 24.3 36.0 25.5 38.7 26.7 41.4 27.8 44.2 28.8 47.0 29.8 49.8 30.8 52.6 31.7 55.4 32.6 58.2 33.4 61.1 34.2 63.9 34.9 66.8 35.6 69.7 36.2 72.6 36.8 75.5 37.3 78.4 37.8 81.4 38.3 84.3 38.7 87.2 39.0 90.2 39.3 93.1 39.6 96.1 39.8 99.1 39.9 102.0 40.0 105.0 40 105 39.6 102.0 39.1 99.0 38.6 96.0 38.1 93.0 37.5 90.0 36.9 87.1 36.3 84.1 35.7 81.1 35.0 78.2 34.3 75.2 33.5 72.3 32.8 69.3 32.0 66.4 31.2 63.5 30.3 60.6 29.4 57.7 28.5 54.8 27.6 51.9 26.6 49.0 25.6 46.2 24.6 43.3 23.5 40.5 22.4 37.7 21.3 34.8 20.2 32.0 19.0 29.2 17.8 26.4 16.6 23.7 15.3 20.9 14.0 18.2 12.7 15.4 11.4 12.7 10.0 10.0 10 10 Z"></path><path fill="url(#red_ne_sw)" d="M42 22C  40.1 24.3 38.2 26.6 36.3 28.9 34.5 31.3 32.7 33.8 31.0 36.2 29.4 38.7 27.8 41.2 26.2 43.8 24.7 46.4 23.3 49.0 21.9 51.7 20.5 54.3 19.2 57.0 18.0 59.8 16.8 62.5 15.7 65.3 14.6 68.1 13.6 70.9 12.6 73.7 11.7 76.6 10.9 79.5 10.1 82.4 9.3 85.3 8.7 88.2 8.1 91.1 7.5 94.0 7.0 97.0 7 97 7.9 94.2 8.8 91.3 9.7 88.5 10.7 85.7 11.7 82.9 12.7 80.2 13.8 77.4 14.9 74.6 16.0 71.9 17.1 69.1 18.3 66.4 19.4 63.7 20.7 61.0 21.9 58.3 23.2 55.6 24.5 52.9 25.8 50.3 27.1 47.6 28.5 45.0 29.9 42.4 31.3 39.8 32.8 37.2 34.2 34.6 35.7 32.1 37.3 29.5 38.8 27.0 40.4 24.5 42.0 22.0 42 22 Z"></path><path fill="url(#ginger)" d="M18 55C  19.0 53.3 20.6 52.2 22.5 51.5 24.4 51.1 26.5 50.9 28.0 52.9 29.3 54.2 31.2 54.8 31 55 32.1 56.6 34.2 57.4 34.7 59.4 35.0 61.4 34.6 63.4 33.5 65.2 31.8 66.3 31.5 68.6 31 68 29.2 68.9 28.7 71.2 26.1 70.4 24.6 72.0 22.5 72.0 20.9 70.3 19.5 69.1 18.3 67.7 18 68 16.4 66.9 15.8 65.0 14.5 63.5 14.8 61.5 15.6 59.7 14.9 57.6 16.1 56.0 18.0 55.1 18 55 Z"></path><g transform="translate(80,30) rotate(90)"><rect x="0" y="0" width="7" height="4" transform="scale(0.8216865420352428) translate(25,50) rotate(113)" fill="rgb(95, 199, 37)"></rect><rect x="0" y="0" width="7" height="4" transform="scale(0.826375745684329) translate(25,50) rotate(267)" fill="rgb(47, 121, 5)"></rect><rect x="0" y="0" width="7" height="4" transform="scale(1.1828200522098187) translate(25,50) rotate(12)" fill="rgb(97, 202, 38)"></rect><rect x="0" y="0" width="7" height="4" transform="scale(0.9659792432723773) translate(25,50) rotate(332)" fill="rgb(84, 181, 29)"></rect><rect x="0" y="0" width="7" height="4" transform="scale(0.8807565522640316) translate(25,50) rotate(75)" fill="rgb(45, 118, 3)"></rect><rect x="0" y="0" width="7" height="4" transform="scale(1.169344010290938) translate(25,50) rotate(283)" fill="rgb(63, 147, 15)"></rect><rect x="0" y="0" width="7" height="4" transform="scale(0.9827876764368907) translate(25,50) rotate(141)" fill="rgb(51, 127, 7)"></rect><rect x="0" y="0" width="7" height="4" transform="scale(0.8320544726182556) translate(25,50) rotate(72)" fill="rgb(95, 199, 37)"></rect><rect x="0" y="0" width="7" height="4" transform="scale(0.9871235113666498) translate(25,50) rotate(159)" fill="rgb(49, 125, 6)"></rect><rect x="0" y="0" width="7" height="4" transform="scale(0.7873742419410453) translate(25,50) rotate(205)" fill="rgb(90, 191, 34)"></rect><circle cx="20" cy="48" r="2.826514413232682" transform="translate(8,10)" fill="none" stroke="rgb(76, 169, 24)" stroke-width="1"></circle><circle cx="20" cy="48" r="2.963881040518479" transform="translate(3,13)" fill="none" stroke="rgb(62, 146, 15)" stroke-width="1"></circle><circle cx="20" cy="48" r="2.180710722871426" transform="translate(14,6)" fill="none" stroke="rgb(81, 177, 28)" stroke-width="1"></circle><circle cx="20" cy="48" r="2.58258792415793" transform="translate(13,9)" fill="none" stroke="rgb(97, 201, 38)" stroke-width="1"></circle><circle cx="20" cy="48" r="2.9797426974799883" transform="translate(9,13)" fill="none" stroke="rgb(45, 118, 3)" stroke-width="1"></circle><circle cx="20" cy="48" r="2.922047603137094" transform="translate(4,7)" fill="none" stroke="rgb(42, 114, 2)" stroke-width="1"></circle><circle cx="20" cy="48" r="2.947498261188958" transform="translate(4,1)" fill="none" stroke="rgb(85, 183, 30)" stroke-width="1"></circle><circle cx="20" cy="48" r="2.3090508447747107" transform="translate(7,12)" fill="none" stroke="rgb(64, 148, 16)" stroke-width="1"></circle><circle cx="20" cy="48" r="2.2499593951603907" transform="translate(5,13)" fill="none" stroke="rgb(58, 139, 12)" stroke-width="1"></circle><circle cx="20" cy="48" r="2.7268363049049804" transform="translate(2,12)" fill="none" stroke="rgb(40, 111, 0)" stroke-width="1"></circle><circle cx="20" cy="48" r="2.1957868384223067" transform="translate(6,3)" fill="none" stroke="rgb(51, 128, 8)" stroke-width="1"></circle><circle cx="20" cy="48" r="2.5275623167562813" transform="translate(9,6)" fill="none" stroke="rgb(76, 168, 24)" stroke-width="1"></circle></g></g></g></g></svg>
