<svg version="1.1" baseProfile="full" xmlns="http://www.w3.org/2000/svg" width="300" height="300" style="background: gray">
<!-- made by Harry Li github.com/harryli0088 -->
<g transform="translate(150,150)"><circle cx="0" cy="0" r="150" fill="#eee"></circle><circle cx="0" cy="0" r="100" fill="none" stroke="#ddd" stroke-width="2"></circle><g transform="translate(-55,-53)"><g><path fill="#FF8A14" d="M0 0C  3.0 -0.1 6.1 -0.2 9.1 -0.1 12.1 0.0 15.1 0.2 18.2 0.6 21.2 1.0 24.2 1.5 27.1 2.1 30.1 2.8 33.0 3.5 35.9 4.4 38.8 5.3 41.7 6.4 44.5 7.5 47.3 8.7 50.0 10.0 50 10 50.1 13.0 50.3 16.1 50.4 19.1 50.5 22.1 50.6 25.1 50.7 28.2 50.8 31.2 50.9 34.2 51.0 37.3 51.1 40.3 51.1 43.3 51.2 46.4 51.2 49.4 51.2 52.4 51.2 55.5 51.2 58.5 51.2 61.5 51.2 64.5 51.2 67.6 51.2 70.6 51.2 73.6 51.1 76.7 51.1 79.7 51.0 82.7 50.9 85.8 50.8 88.8 50.7 91.8 50.6 94.9 50.5 97.9 50.4 100.9 50.3 103.9 50.1 107.0 50.0 110.0 50 110 47.0 110.1 43.9 110.2 40.9 110.1 37.9 110.0 34.9 109.8 31.8 109.4 28.8 109.0 25.8 108.5 22.9 107.9 19.9 107.2 17.0 106.5 14.1 105.6 11.2 104.7 8.3 103.6 5.5 102.5 2.7 101.3 -0.0 100.0 0 100 -0.1 97.0 -0.3 93.9 -0.4 90.9 -0.5 87.9 -0.6 84.9 -0.7 81.8 -0.8 78.8 -0.9 75.8 -1.0 72.7 -1.1 69.7 -1.1 66.7 -1.2 63.6 -1.2 60.6 -1.2 57.6 -1.2 54.5 -1.2 51.5 -1.2 48.5 -1.2 45.5 -1.2 42.4 -1.2 39.4 -1.2 36.4 -1.1 33.3 -1.1 30.3 -1.0 27.3 -0.9 24.2 -0.8 21.2 -0.7 18.2 -0.6 15.1 -0.5 12.1 -0.4 9.1 -0.3 6.1 -0.1 3.0 -0.0 0.0 0 0 Z"></path><path fill="none" d="M40 5C  37.0 5.6 34.0 6.3 31.1 7.1 28.2 7.9 25.3 8.9 22.4 9.9 19.6 11.1 16.8 12.3 14.0 13.6 11.3 15.0 8.6 16.5 6.0 18.0 3.4 19.6 0.9 21.4 -1.6 23.1 -4.0 25.0 -4 25 " opacity="0.5" stroke="white" stroke-width="2"></path><path fill="none" d="M51 25C  48.2 25.8 45.3 26.6 42.5 27.5 39.7 28.4 36.9 29.4 34.2 30.4 31.4 31.5 28.7 32.6 26.0 33.8 23.3 35.1 20.7 36.3 18.1 37.7 15.5 39.0 12.9 40.5 10.3 41.9 7.8 43.5 5.3 45.0 2.8 46.6 0.4 48.3 -2.0 50.0 -2 50 " opacity="0.5" stroke="white" stroke-width="2"></path><path fill="none" d="M51 50C  48.1 50.7 45.3 51.5 42.5 52.4 39.7 53.3 36.9 54.3 34.1 55.3 31.4 56.4 28.6 57.5 25.9 58.7 23.3 59.9 20.6 61.2 18.0 62.5 15.4 63.9 12.8 65.3 10.3 66.8 7.7 68.4 5.3 69.9 2.8 71.6 0.4 73.3 -2.0 75.0 -2 75 " opacity="0.5" stroke="white" stroke-width="2"></path><path fill="none" d="M51 75C  48.1 75.7 45.3 76.5 42.4 77.3 39.6 78.2 36.8 79.1 34.1 80.1 31.3 81.2 28.6 82.3 25.9 83.5 23.2 84.7 20.5 86.0 17.9 87.3 15.3 88.7 12.7 90.2 10.2 91.7 7.7 93.2 5.2 94.9 2.8 96.5 0.4 98.2 -2.0 100.0 -2 100 " opacity="0.5" stroke="white" stroke-width="2"></path><path fill="none" d="M51 100C  48.1 100.9 45.2 101.9 42.4 103.0 39.6 104.2 36.9 105.5 34.2 106.9 31.6 108.4 29.0 110.0 29 110 " opacity="0.5" stroke="white" stroke-width="2"></path></g><g transform="translate(60,0)"><path fill="#FF8A14" d="M0 0C  3.1 -0.2 6.1 -0.3 9.2 -0.3 12.3 -0.2 15.3 -0.1 18.4 0.2 21.5 0.6 24.5 1.0 27.5 1.6 30.5 2.2 33.5 3.0 36.5 3.8 39.4 4.7 42.3 5.7 45.2 6.8 48.0 8.0 48 8 48.2 11.0 48.5 14.0 48.7 17.0 48.9 20.0 49.1 23.0 49.3 26.0 49.5 29.0 49.6 32.0 49.8 35.0 49.9 38.0 50.1 41.0 50.2 44.0 50.3 47.0 50.4 50.0 50.5 53.0 50.6 56.0 50.6 59.0 50.7 62.0 50.7 65.0 50.8 68.0 50.8 71.0 50.8 74.0 50.8 77.0 50.8 80.0 50.7 83.0 50.7 86.0 50.7 89.0 50.6 92.0 50.5 95.0 50.4 98.0 50.3 101.0 50.2 104.0 50.1 107.0 50.0 110.0 50 110 47.0 110.4 44.0 110.8 41.0 111.0 37.9 111.1 34.9 111.0 31.9 110.9 28.9 110.7 25.8 110.3 22.9 109.8 19.9 109.2 16.9 108.5 14.0 107.7 11.1 106.8 8.3 105.7 5.5 104.6 2.7 103.4 -0.0 102.0 0 102 -0.1 99.0 -0.3 96.0 -0.4 93.0 -0.5 90.0 -0.7 87.0 -0.8 84.0 -0.9 81.0 -0.9 78.0 -1.0 75.0 -1.1 72.0 -1.1 69.0 -1.2 66.0 -1.2 63.0 -1.3 60.0 -1.3 57.0 -1.3 54.0 -1.3 51.0 -1.3 48.0 -1.3 45.0 -1.3 42.0 -1.2 39.0 -1.2 36.0 -1.1 33.0 -1.1 30.0 -1.0 27.0 -0.9 24.0 -0.9 21.0 -0.8 18.0 -0.7 15.0 -0.5 12.0 -0.4 9.0 -0.3 6.0 -0.1 3.0 -0.0 0.0 0 0 Z"></path><path fill="none" d="M31 2C  28.2 2.8 25.3 3.7 22.5 4.7 19.8 5.7 17.0 6.9 14.3 8.1 11.7 9.4 9.0 10.7 6.5 12.2 3.9 13.7 1.4 15.3 -1.0 17.0 -1 17 " opacity="0.5" stroke="white" stroke-width="2"></path><path fill="none" d="M51 18C  48.2 18.8 45.3 19.6 42.5 20.5 39.7 21.4 36.9 22.4 34.2 23.4 31.4 24.5 28.7 25.6 26.0 26.8 23.3 28.1 20.7 29.3 18.1 30.7 15.5 32.0 12.9 33.5 10.3 34.9 7.8 36.5 5.3 38.0 2.8 39.6 0.4 41.3 -2.0 43.0 -2 43 " opacity="0.5" stroke="white" stroke-width="2"></path><path fill="none" d="M51 45C  48.1 45.7 45.3 46.5 42.5 47.4 39.7 48.3 36.9 49.3 34.1 50.3 31.4 51.4 28.6 52.5 25.9 53.7 23.3 54.9 20.6 56.2 18.0 57.5 15.4 58.9 12.8 60.3 10.3 61.8 7.7 63.4 5.3 64.9 2.8 66.6 0.4 68.3 -2.0 70.0 -2 70 " opacity="0.5" stroke="white" stroke-width="2"></path><path fill="none" d="M51 70C  48.1 70.7 45.3 71.5 42.4 72.3 39.6 73.2 36.8 74.1 34.1 75.1 31.3 76.2 28.6 77.3 25.9 78.5 23.2 79.7 20.5 81.0 17.9 82.3 15.3 83.7 12.7 85.2 10.2 86.7 7.7 88.2 5.2 89.9 2.8 91.5 0.4 93.2 -2.0 95.0 -2 95 " opacity="0.5" stroke="white" stroke-width="2"></path><path fill="none" d="M51 95C  48.0 95.8 45.1 96.8 42.2 97.8 39.4 99.0 36.6 100.2 33.8 101.6 31.1 103.1 28.5 104.7 25.9 106.3 23.4 108.1 21.0 110.0 21 110 " opacity="0.5" stroke="white" stroke-width="2"></path></g></g></g></svg>
