<svg version="1.1" baseProfile="full" xmlns="http://www.w3.org/2000/svg" width="300" height="300" style="background: gray">
<!-- made by Harry Li github.com/harryli0088 -->
<defs>
  <linearGradient id="tofu" x1="0%" y1="0%" x2="100%" y2="100%">
    <stop offset="0%" style="stop-color:#FCF3CF;stop-opacity:1"></stop>
    <stop offset="100%" style="stop-color:#FAD7A0;stop-opacity:1"></stop>
  </linearGradient>
  <filter id="dropshadow" height="130%">
    <feGaussianBlur in="SourceAlpha" stdDeviation="3"></feGaussianBlur> <!-- stdDeviation is how much to blur -->
    <feOffset dx="2" dy="2" result="offsetblur"></feOffset> <!-- how much to offset -->
    <feComponentTransfer>
      <feFuncA type="linear" slope="0.5"></feFuncA> <!-- slope is the opacity of the shadow -->
    </feComponentTransfer>
    <feMerge>
      <feMergeNode></feMergeNode> <!-- this contains the offset blurred image -->
      <feMergeNode in="SourceGraphic"></feMergeNode> <!-- this contains the element that the filter is applied to -->
    </feMerge>
  </filter>
</defs>
<g transform="translate(150,150)"><circle cx="0" cy="0" r="149" fill="#922B21"></circle><circle cx="0" cy="0" r="100" fill="#A93226" stroke="#641E16" stroke-width="2"></circle><g transform="scale(1.4)"><path fill="#6E2C00" d="M0 -40C  3.0 -40.5 5.9 -40.8 8.9 -40.9 11.9 -40.8 14.9 -40.6 17.9 -40.2 20.8 -39.6 23.7 -38.8 26.5 -37.8 29.3 -36.7 32.0 -35.5 34.6 -34.0 37.2 -32.4 39.6 -30.7 41.9 -28.8 44.1 -26.8 46.2 -24.6 48.2 -22.4 50.0 -20.0 50 -20 50.9 -17.2 51.6 -14.3 52.2 -11.4 52.6 -8.4 52.8 -5.5 52.8 -2.5 52.7 0.5 52.3 3.4 51.9 6.4 51.2 9.3 50.3 12.1 49.3 14.9 48.2 17.6 46.8 20.3 45.3 22.9 43.7 25.4 41.9 27.7 40.0 30.0 40 30 39.9 33.1 39.6 36.2 39.1 39.2 38.5 42.2 37.6 45.2 36.6 48.1 35.4 51.0 34.0 53.7 32.5 56.4 30.7 59.0 28.9 61.4 26.9 63.8 24.7 66.0 22.4 68.1 20.0 70.0 20 70 16.7 71.2 13.3 71.2 10.0 70.0 10 70 7.3 68.7 4.6 67.4 1.9 65.9 -0.7 64.4 -3.2 62.8 -5.7 61.1 -8.2 59.4 -10.6 57.6 -12.9 55.7 -15.2 53.7 -17.4 51.7 -19.6 49.6 -21.7 47.4 -23.7 45.2 -25.7 42.9 -27.6 40.6 -29.4 38.2 -31.1 35.7 -32.8 33.2 -34.4 30.7 -35.9 28.1 -37.4 25.4 -38.7 22.7 -40.0 20.0 -40 20 -40.7 17.1 -41.3 14.2 -41.8 11.3 -42.3 8.3 -42.6 5.4 -42.9 2.4 -43.1 -0.5 -43.2 -3.5 -43.2 -6.5 -43.1 -9.5 -42.9 -12.4 -42.6 -15.4 -42.3 -18.3 -41.8 -21.3 -41.3 -24.2 -40.7 -27.1 -40.0 -30.0 -40 -30 -39.5 -32.8 -38.9 -35.7 -38.2 -38.5 -37.5 -41.3 -36.6 -44.0 -35.7 -46.8 -34.7 -49.5 -33.7 -52.2 -32.5 -54.8 -31.3 -57.4 -30.0 -60.0 -30 -60 -27.8 -62.1 -25.3 -63.9 -22.5 -65.3 -19.6 -66.2 -16.5 -66.7 -13.5 -66.7 -10.4 -66.2 -7.5 -65.3 -4.7 -63.9 -2.2 -62.1 -0.0 -60.0 0 -60 1.4 -57.6 2.6 -55.1 3.9 -52.6 5.0 -50.0 5 -50 Z"></path><rect x="-35" y="-52.5" width="70" height="105" fill="url(#tofu)" transform="rotate(-15)" style="filter:url(#dropshadow)"></rect><path fill="#6E2C00" d="M-10 -52C  -9.7 -51.1 -9.3 -50.2 -8.9 -49.3 -8.4 -48.4 -7.8 -47.6 -7.2 -46.8 -6.6 -46.1 -5.9 -45.4 -5.2 -44.8 -4.4 -44.2 -3.6 -43.6 -2.7 -43.1 -1.8 -42.7 -0.9 -42.3 0.0 -42.0 0 -42 3.5 -42.1 6.9 -41.4 10.0 -40.0 10 -40 12.7 -38.9 15.2 -37.2 17.2 -35.2 18.9 -32.7 20.0 -30.0 20 -30 21.0 -26.7 22.0 -23.3 23.0 -20.0 23 -20 24.1 -17.3 25.8 -14.8 27.8 -12.8 30.3 -11.1 33.0 -10.0 33 -10 35.0 -10.0 35 -10 35.2 -6.8 35.4 -3.6 35.6 -0.4 35.8 2.8 36.0 6.0 36 6 35.5 8.8 34.5 11.5 32.9 13.9 31.0 16.0 31 16 30.2 19.3 30.2 22.7 31.0 26.0 31 26 30.9 29.0 30.0 31.8 28.3 34.2 26.0 36.0 26 36 25.1 38.9 24.7 42.0 25.1 45.1 26.0 48.0 26 48 22.7 48.7 19.3 49.3 16.0 50.0 16 50 14.0 48.0 12.0 46.0 10.0 44.0 8.0 42.0 6.0 40.0 6 40 3.5 38.8 1.0 37.5 -1.5 36.3 -4.0 35.0 -4 35 -6.7 33.9 -9.2 32.2 -11.2 30.2 -12.9 27.7 -14.0 25.0 -14 25 -15.8 22.2 -18.1 19.9 -20.9 18.1 -24.0 17.0 -24 17 -27.3 16.3 -30.7 15.7 -34.0 15.0 -34 15 -34.7 11.7 -35.3 8.3 -36.0 5.0 -36 5 -34.3 2.8 -33.1 0.4 -32.3 -2.3 -32.0 -5.0 -32 -5 -32.0 -8.3 -32.0 -11.7 -32.0 -15.0 -32 -15 -31.1 -18.0 -29.6 -20.7 -27.5 -23.1 -25.0 -25.0 -25 -25 -24.5 -25.9 -24.0 -26.8 -23.7 -27.8 -23.4 -28.8 -23.1 -29.8 -23.0 -30.9 -22.9 -31.9 -22.8 -32.9 -22.9 -34.0 -23.0 -35.0 -23 -35 -23.0 -37.8 -23.0 -40.7 -23.0 -43.5 -23.0 -46.3 -23.0 -49.2 -23.0 -52.0 -23 -52 Z" opacity="0.6"></path><g><path class="bonito" d="M-5.49 28.5C  -4.7 27.8 -3.9 27.1 -3.5 26.0 -2.3 25.7 -2.49 25.5 -1.5 25.0 -0.5 24.4 -0.4900000000000002 24.5 0.4 24.9 1.1 25.6 1.3 26.7 1.5099999999999998 26.5 Z" transform="rotate(219,-5.49,28.50)" stroke="#ffeeb3" stroke-width="0.2" fill="#f2d56e" opacity="0.90"></path><path class="bonito" d="M-8.06 -29.3C  -7.2 -29.9 -6.4 -30.5 -5.9 -31.5 -5.2 -32.2 -4.2 -32.6 -4.1 -33.9 -2.9 -34.2 -3.0600000000000005 -34.3 -2.7 -33.3 -1.7 -33.0 -1.1 -32.3 -1.0600000000000005 -32.3 -1.7 -31.5 -2.4 -30.8 -3.5 -30.4 -3.7 -29.2 -4.6 -28.7 -5.5 -28.1 -6.1 -27.3 -6.0600000000000005 -27.299999999999997 Z" transform="rotate(271,-8.06,-29.30)" stroke="#ffeeb3" stroke-width="0.2" fill="#ffedab" opacity="0.71"></path><path class="bonito" d="M-13.1 28.5C  -12.0 28.1 -11.5 27.1 -11.0 26.1 -10.0 25.6 -9.3 24.8 -8.6 24.0 -8.1 23.0 -7.2 22.4 -7.1 22.5 -6.2 21.9 -5.0 22.0 -4.1 21.4 -3.2 20.8 -2.1 20.5 -2.0999999999999996 20.5 -2.8 21.4 -2.6 22.6 -3.4 23.5 -4.0 24.4 -4.2 25.5 -4.1 25.5 -5.2 25.9 -5.7 26.9 -6.3 27.8 -7.2 28.4 -7.6 29.5 -8.5 30.1 -9.2 30.9 -10.3 31.3 -10.1 31.5 -11.1 32.0 -11.7 32.9 -12.7 33.4 -13.1 34.5 -13.1 34.5 Z" transform="rotate(154,-13.10,28.50)" stroke="#ffeeb3" stroke-width="0.2" fill="#ffe174" opacity="0.86"></path><path class="bonito" d="M14.75 33.26C  15.6 32.7 16.1 31.9 16.7 31.1 16.6 29.9 17.5 29.4 17.7 28.3 18.4 27.6 19.4 27.2 19.6 26.1 19.75 26.259999999999998 20.8 25.8 21.8 26.2 22.8 26.0 23.8 26.6 24.8 26.5 25.8 26.5 26.8 26.4 26.75 26.259999999999998 26.3 27.2 26.4 28.4 25.2 29.1 25.4 30.4 25.2 31.4 24.75 31.259999999999998 24.0 31.9 23.3 32.6 22.4 33.1 21.5 33.4 20.6 33.8 19.7 34.1 19.75 34.26 Z" transform="rotate(90,14.75,33.26)" stroke="#ffeeb3" stroke-width="0.2" fill="#ffe174" opacity="0.70"></path><path class="bonito" d="M-8.91 -15.58C  -7.9 -16.1 -7.7 -17.3 -6.7 -17.9 -5.6 -18.3 -5.91 -18.58 -5.2 -17.9 -4.5 -17.1 -3.7 -16.4 -3.0 -15.7 -2.3 -14.9 -1.5 -14.2 -0.8 -13.5 -0.1 -12.8 0.6 -12.0 1.4 -11.3 2.1 -10.6 2.09 -10.579999999999998 1.0 -10.1 0.4 -9.3 -0.1 -8.3 -1.1 -7.8 -0.9100000000000001 -7.579999999999998 Z" transform="rotate(67,-8.91,-15.58)" stroke="#ffeeb3" stroke-width="0.2" fill="#ffe174" opacity="0.77"></path><path class="bonito" d="M8.06 17.22C  8.7 16.4 9.7 15.8 10.4 15.1 11.2 14.4 11.06 14.219999999999999 12.2 14.0 13.1 13.2 13.06 13.219999999999999 13.6 14.0 14.1 14.8 15.2 15.0 15.06 15.219999999999999 Z" transform="rotate(143,8.06,17.22)" stroke="#ffeeb3" stroke-width="0.2" fill="#fde17e" opacity="0.84"></path><path class="bonito" d="M-13.1 -34.84C  -12.1 -35.3 -11.7 -36.3 -11.2 -37.2 -10.3 -37.7 -9.3 -38.2 -8.6 -38.9 -8.2 -39.9 -8.1 -39.84 -7.4 -39.2 -6.9 -38.4 -6.3 -37.7 -6.1 -37.84 -6.5 -36.8 -7.4 -36.3 -8.6 -36.0 -8.8 -34.8 -9.4 -34.0 -10.4 -33.5 -10.9 -32.6 -11.1 -32.84 Z" transform="rotate(283,-13.10,-34.84)" stroke="#ffeeb3" stroke-width="0.2" fill="#ffe174" opacity="0.70"></path><path class="bonito" d="M-9.76 -16.4C  -8.7 -16.9 -8.3 -18.0 -7.3 -18.4 -6.9 -19.6 -5.8 -20.0 -4.9 -20.6 -4.2 -21.3 -3.6 -22.2 -3.76 -22.4 -2.9 -23.2 -1.8 -23.4 -0.6 -23.2 0.3 -23.9 1.3 -24.3 1.2400000000000002 -24.4 0.8 -23.4 0.6 -22.3 0.2 -21.3 -0.3 -20.4 -0.7 -19.4 -0.7599999999999998 -19.4 -1.7 -18.8 -2.4 -18.0 -2.7 -16.8 -3.8 -16.4 -4.8 -16.0 -5.2 -14.8 -6.1 -14.2 -6.7 -13.3 -6.76 -13.399999999999999 -7.4 -12.6 -8.2 -11.8 -9.3 -11.5 -10.1 -10.7 -9.76 -10.399999999999999 Z" transform="rotate(56,-9.76,-16.40)" stroke="#ffeeb3" stroke-width="0.2" fill="#fde17e" opacity="0.87"></path><path class="bonito" d="M17.22 1.93C  18.0 1.3 18.0 0.2 18.8 -0.5 19.2 -1.3 19.6 -2.2 20.5 -2.8 21.4 -3.3 21.7 -4.3 22.3 -5.0 22.22 -5.07 23.2 -5.2 24.2 -4.7 25.2 -5.2 26.2 -5.4 27.2 -5.2 28.2 -5.4 29.2 -5.1 29.22 -5.07 28.5 -4.2 28.8 -2.9 28.3 -2.0 27.8 -1.0 27.2 -0.1 27.22 -0.07000000000000028 26.3 0.3 25.5 0.8 24.9 1.8 23.9 1.9 23.0 2.3 22.2 2.9 22.22 2.9299999999999997 Z" transform="rotate(138,17.22,1.93)" stroke="#ffeeb3" stroke-width="0.2" fill="#ffe174" opacity="0.83"></path><path class="bonito" d="M2.84 16.4C  3.7 15.8 4.0 14.6 4.7 13.8 5.9 13.5 5.84 13.399999999999999 6.6 14.1 7.3 14.9 8.0 15.6 8.7 16.3 9.5 17.0 10.2 17.8 10.9 18.5 11.7 19.2 12.4 19.9 13.1 20.7 13.8 21.4 13.84 21.4 13.4 22.4 12.6 23.1 11.9 24.0 10.6 24.2 10.84 24.4 Z" transform="rotate(59,2.84,16.40)" stroke="#ffeeb3" stroke-width="0.2" fill="#ffe174" opacity="0.80"></path><path class="bonito" d="M-15.58 -32.47C  -14.9 -33.3 -14.0 -33.9 -13.6 -35.0 -12.9 -35.8 -12.58 -35.47 -11.8 -36.3 -10.8 -36.9 -10.58 -36.47 -10.0 -35.7 -9.1 -35.3 -8.8 -34.2 -8.58 -34.47 Z" transform="rotate(125,-15.58,-32.47)" stroke="#ffeeb3" stroke-width="0.2" fill="#fde17e" opacity="0.81"></path><path class="bonito" d="M-11.44 -3.73C  -10.9 -4.6 -9.8 -4.9 -9.1 -5.7 -8.8 -6.8 -7.8 -7.2 -7.1 -8.0 -6.5 -8.8 -6.4399999999999995 -8.73 -5.5 -8.3 -4.9 -7.6 -4.2 -7.0 -4.4399999999999995 -6.73 -5.2 -6.1 -5.6 -5.1 -6.3 -4.3 -7.5 -4.1 -8.3 -3.4 -8.8 -2.5 -9.7 -2.0 -9.44 -1.7300000000000004 Z" transform="rotate(316,-11.44,-3.73)" stroke="#ffeeb3" stroke-width="0.2" fill="#fde17e" opacity="0.87"></path><path class="bonito" d="M16.4 -32.47C  17.2 -33.1 18.0 -33.9 18.6 -34.8 19.1 -35.8 20.2 -36.2 20.9 -37.0 21.3 -38.0 22.2 -38.6 22.4 -38.47 23.4 -38.9 24.3 -39.6 25.4 -39.7 26.6 -39.6 27.3 -40.8 27.4 -40.47 27.0 -39.5 26.4 -38.5 26.3 -37.4 26.2 -36.3 25.5 -35.4 25.4 -35.47 24.9 -34.5 24.1 -33.8 23.0 -33.4 22.2 -32.7 21.9 -31.5 21.0 -30.8 20.1 -30.3 19.3 -29.6 19.4 -29.47 18.8 -28.6 18.1 -27.8 17.0 -27.4 16.5 -26.4 16.4 -26.47 Z" transform="rotate(353,16.40,-32.47)" stroke="#ffeeb3" stroke-width="0.2" fill="#fde17e" opacity="0.87"></path><path class="bonito" d="M3.73 -7.21C  3.9 -8.3 4.9 -8.8 5.5 -9.5 5.8 -10.5 6.2 -11.3 6.7 -12.2 8.0 -12.4 8.2 -13.4 8.4 -14.4 8.73 -14.21 9.7 -13.8 10.7 -14.4 11.7 -13.8 12.7 -14.0 13.7 -14.4 14.7 -14.0 15.7 -14.2 15.73 -14.21 15.2 -13.3 15.1 -12.1 14.1 -11.4 14.0 -10.3 13.6 -9.3 13.73 -9.21 12.9 -8.7 11.9 -8.4 11.4 -7.5 10.6 -6.8 9.8 -6.3 8.7 -6.2 8.73 -6.210000000000001 Z" transform="rotate(212,3.73,-7.21)" stroke="#ffeeb3" stroke-width="0.2" fill="#fde17e" opacity="0.84"></path><path class="bonito" d="M-12.27 -17.22C  -11.8 -18.3 -10.9 -18.8 -9.7 -19.2 -9.4 -20.3 -9.27 -20.22 -8.5 -19.5 -7.8 -18.8 -7.1 -18.0 -6.4 -17.3 -5.6 -16.6 -4.9 -15.9 -4.2 -15.1 -3.5 -14.4 -2.7 -13.7 -2.0 -12.9 -1.3 -12.2 -1.2699999999999996 -12.219999999999999 -2.0 -11.4 -2.9 -10.8 -3.7 -10.2 -4.5 -9.5 -4.27 -9.219999999999999 Z" transform="rotate(157,-12.27,-17.22)" stroke="#ffeeb3" stroke-width="0.2" fill="#ffe174" opacity="0.88"></path><path class="bonito" d="M8.91 37.2C  9.7 36.5 10.3 35.6 10.9 34.7 12.1 34.4 11.91 34.2 12.7 33.3 13.9 33.3 13.91 33.2 14.6 33.9 15.6 34.2 15.6 35.5 15.91 35.2 Z" transform="rotate(92,8.91,37.20)" stroke="#ffeeb3" stroke-width="0.2" fill="#ffedab" opacity="0.88"></path><path class="bonito" d="M7.21 -1.93C  7.9 -2.6 8.9 -3.1 9.7 -3.7 10.0 -4.9 10.9 -5.4 11.5 -6.2 12.1 -7.0 12.21 -6.93 12.8 -6.2 13.6 -5.7 14.4 -5.1 14.21 -4.93 13.6 -4.1 12.7 -3.5 12.1 -2.7 11.4 -2.1 10.6 -1.4 9.9 -0.7 9.1 -0.1 9.21 0.07000000000000028 Z" transform="rotate(117,7.21,-1.93)" stroke="#ffeeb3" stroke-width="0.2" fill="#fde17e" opacity="0.72"></path><path class="bonito" d="M1.93 -22.09C  2.7 -22.8 3.4 -23.7 4.1 -24.5 4.9 -25.2 6.0 -25.6 6.1 -26.9 6.9 -27.6 7.7 -28.3 7.93 -28.09 9.0 -28.3 9.8 -29.1 10.9 -29.4 12.0 -29.6 12.8 -30.4 12.93 -30.09 12.9 -29.0 11.8 -28.2 11.3 -27.3 11.3 -26.1 10.7 -25.2 10.93 -25.09 10.3 -24.2 9.5 -23.5 8.7 -22.9 8.0 -22.0 6.8 -21.7 6.1 -20.9 5.3 -20.2 5.0 -19.1 4.93 -19.09 4.1 -18.4 3.2 -17.8 2.9 -16.6 2.1 -15.9 1.9299999999999997 -16.09 Z" transform="rotate(305,1.93,-22.09)" stroke="#ffeeb3" stroke-width="0.2" fill="#ffedab" opacity="0.80"></path><path class="bonito" d="M-13.93 26.91C  -13.1 26.3 -12.8 25.4 -12.0 24.7 -12.1 23.6 -11.3 22.9 -10.5 22.3 -10.3 21.3 -9.7 20.5 -9.2 19.7 -8.93 19.91 -7.9 19.8 -6.9 19.4 -5.9 20.0 -4.9 19.5 -3.9 20.0 -2.9 20.4 -1.9 19.8 -1.9299999999999997 19.91 -2.4 20.9 -3.0 21.8 -3.1 22.9 -3.8 23.8 -3.8 25.0 -3.9299999999999997 24.91 -5.0 25.0 -5.5 26.2 -6.4 26.4 -7.1 27.1 -8.0 27.6 -8.9 27.9 -8.93 27.91 Z" transform="rotate(143,-13.93,26.91)" stroke="#ffeeb3" stroke-width="0.2" fill="#ffe174" opacity="0.84"></path><path class="bonito" d="M-13.1 -26.11C  -12.5 -27.0 -11.6 -27.6 -10.7 -28.2 -10.5 -29.5 -10.1 -29.11 -9.4 -28.4 -8.6 -27.7 -7.9 -26.9 -7.2 -26.2 -6.5 -25.5 -5.7 -24.7 -5.0 -24.0 -4.3 -23.3 -3.6 -22.6 -2.8 -21.8 -2.1 -21.1 -2.0999999999999996 -21.11 -2.9 -20.4 -3.6 -19.6 -4.2 -18.7 -4.8 -17.8 -5.1 -18.11 Z" transform="rotate(208,-13.10,-26.11)" stroke="#ffeeb3" stroke-width="0.2" fill="#ffedab" opacity="0.88"></path><path class="bonito" d="M-9.76 -37.2C  -8.8 -37.7 -8.0 -38.5 -7.6 -39.5 -7.0 -40.4 -6.76 -40.2 -5.9 -40.9 -4.6 -40.8 -4.76 -41.2 -4.0 -40.6 -3.2 -40.1 -2.9 -39.1 -2.76 -39.2 Z" transform="rotate(291,-9.76,-37.20)" stroke="#ffeeb3" stroke-width="0.2" fill="#ffedab" opacity="0.80"></path><path class="bonito" d="M-3.73 -18.85C  -2.7 -19.3 -2.1 -20.1 -1.5 -20.9 -0.8 -21.6 -0.1 -22.4 0.6 -23.1 1.5 -23.6 1.27 -23.85 2.0 -23.3 2.3 -22.2 3.5 -22.1 3.27 -21.85 2.3 -21.4 2.0 -20.3 1.2 -19.6 0.7 -18.7 -0.1 -18.1 -1.1 -17.6 -1.9 -17.0 -1.73 -16.85 Z" transform="rotate(334,-3.73,-18.85)" stroke="#ffeeb3" stroke-width="0.2" fill="#ffedab" opacity="0.78"></path><path class="bonito" d="M8.91 -20.47C  9.7 -21.1 10.5 -21.9 11.5 -22.4 12.1 -23.3 12.7 -24.2 13.2 -25.2 14.0 -25.9 15.0 -26.4 14.91 -26.47 16.1 -26.5 16.9 -27.3 18.0 -27.3 18.9 -28.1 20.0 -28.2 19.91 -28.47 19.5 -27.5 18.7 -26.6 18.9 -25.4 18.5 -24.4 18.4 -23.3 17.91 -23.47 16.8 -23.1 16.4 -22.0 15.4 -21.5 15.2 -20.2 14.1 -19.8 13.2 -19.1 12.6 -18.3 11.7 -17.6 11.91 -17.47 11.3 -16.6 10.3 -16.0 9.4 -15.5 8.7 -14.7 8.91 -14.469999999999999 Z" transform="rotate(50,8.91,-20.47)" stroke="#ffeeb3" stroke-width="0.2" fill="#f2d56e" opacity="0.72"></path><path class="bonito" d="M11.44 26.11C  12.0 25.3 12.9 24.8 13.0 23.7 13.4 22.8 14.3 22.3 14.8 21.4 15.4 20.7 15.8 19.8 16.8 19.4 16.439999999999998 19.11 17.4 19.3 18.4 19.3 19.4 19.1 20.4 19.5 21.4 19.5 22.4 19.4 23.4 18.8 23.439999999999998 19.11 23.1 20.1 22.4 21.0 22.2 22.1 22.2 23.3 21.0 23.9 21.439999999999998 24.11 20.6 24.6 19.8 25.2 18.8 25.3 18.2 26.2 17.3 26.7 16.4 27.0 16.439999999999998 27.11 Z" transform="rotate(140,11.44,26.11)" stroke="#ffeeb3" stroke-width="0.2" fill="#f2d56e" opacity="0.86"></path><path class="bonito" d="M-7.21 5.49C  -6.3 4.9 -5.5 4.2 -5.1 3.1 -4.5 2.2 -4.21 2.49 -3.5 3.2 -2.8 3.9 -2.0 4.7 -1.3 5.4 -0.6 6.1 0.2 6.9 0.9 7.6 1.6 8.3 2.3 9.0 3.1 9.8 3.8 10.5 3.79 10.49 2.8 11.0 2.2 11.9 1.3 12.5 0.5 13.2 0.79 13.49 Z" transform="rotate(65,-7.21,5.49)" stroke="#ffeeb3" stroke-width="0.2" fill="#fde17e" opacity="0.79"></path><path class="bonito" d="M2.84 -30.89C  3.4 -31.8 4.6 -32.1 4.9 -33.3 5.5 -34.2 5.84 -33.89 6.7 -34.7 7.7 -35.2 7.84 -34.89 8.8 -34.5 9.0 -33.4 10.1 -33.1 9.84 -32.89 Z" transform="rotate(92,2.84,-30.89)" stroke="#ffeeb3" stroke-width="0.2" fill="#f2d56e" opacity="0.79"></path><path class="bonito" d="M-17.22 30.09C  -16.8 29.0 -15.5 29.0 -15.1 27.9 -14.6 27.0 -13.4 26.7 -12.9 25.8 -12.5 24.8 -12.219999999999999 25.09 -11.3 25.5 -10.6 26.1 -10.0 26.8 -10.219999999999999 27.09 -10.6 28.1 -11.3 28.8 -12.1 29.5 -12.9 30.1 -13.9 30.5 -14.2 31.6 -15.4 31.9 -15.219999999999999 32.09 Z" transform="rotate(110,-17.22,30.09)" stroke="#ffeeb3" stroke-width="0.2" fill="#fde17e" opacity="0.80"></path><path class="bonito" d="M-16.4 18.03C  -15.5 17.5 -15.0 16.5 -14.4 15.5 -13.4 15.0 -12.5 14.4 -11.6 13.9 -11.5 12.5 -10.7 11.7 -10.399999999999999 12.030000000000001 -9.5 11.4 -8.3 11.5 -7.5 10.6 -6.4 10.4 -5.2 10.5 -5.399999999999999 10.030000000000001 -5.9 11.0 -6.2 12.0 -6.4 13.1 -7.3 13.9 -7.3 15.1 -7.399999999999999 15.030000000000001 -7.8 16.1 -9.2 16.3 -9.4 17.5 -10.4 18.0 -11.4 18.5 -11.6 19.8 -12.5 20.4 -13.2 21.2 -13.399999999999999 21.03 -14.4 21.5 -14.9 22.5 -15.5 23.5 -16.4 24.1 -16.4 24.03 Z" transform="rotate(335,-16.40,18.03)" stroke="#ffeeb3" stroke-width="0.2" fill="#ffedab" opacity="0.75"></path><path class="bonito" d="M9.76 21.28C  10.2 20.4 11.2 20.0 11.5 19.0 12.1 18.2 12.5 17.3 13.4 16.8 13.6 15.8 14.6 15.3 15.2 14.6 14.76 14.280000000000001 15.8 14.6 16.8 13.8 17.8 14.1 18.8 14.7 19.8 14.4 20.8 14.4 21.8 14.4 21.759999999999998 14.280000000000001 21.4 15.3 21.1 16.3 20.5 17.2 20.2 18.3 19.9 19.4 19.759999999999998 19.28 19.0 19.9 18.0 20.1 17.1 20.5 16.3 21.1 15.4 21.4 14.8 22.3 14.759999999999998 22.28 Z" transform="rotate(143,9.76,21.28)" stroke="#ffeeb3" stroke-width="0.2" fill="#f2d56e" opacity="0.72"></path><path class="bonito" d="M-1 -1C  -0.1 -1.6 0.4 -2.6 1.4 -3.1 2.2 -3.8 2 -4 2.7 -3.3 3.5 -2.5 4.2 -1.8 4.9 -1.1 5.6 -0.4 6.4 0.4 7.1 1.1 7.8 1.8 8.5 2.5 9.3 3.3 10.0 4.0 10 4 9.6 5.1 8.5 5.5 7.9 6.4 7.0 7.0 7 7 Z" transform="rotate(28,-1.00,-1.00)" stroke="#ffeeb3" stroke-width="0.2" fill="#ffe174" opacity="0.90"></path><circle cx="0" cy="0" r="2.8491651105041322" transform="translate(6,-25) scale(1)" fill="none" stroke="rgb(148, 226, 104)" stroke-width="1"></circle><path class="bonito" d="M10.6 -3.73C  11.4 -4.4 12.3 -5.1 12.8 -6.0 13.5 -6.8 13.6 -6.73 14.7 -7.0 15.5 -7.9 15.6 -7.73 16.1 -6.9 16.7 -6.2 17.6 -5.8 17.6 -5.73 Z" transform="rotate(178,10.60,-3.73)" stroke="#ffeeb3" stroke-width="0.2" fill="#f2d56e" opacity="0.80"></path><path class="bonito" d="M10.6 26.11C  11.1 25.1 12.2 24.9 13.0 24.2 13.2 23.0 13.9 22.3 14.9 21.9 15.9 21.4 15.6 21.11 16.1 21.9 17.3 22.1 17.9 22.8 17.6 23.11 17.2 24.1 16.4 24.8 15.1 24.9 14.8 26.0 14.1 26.7 13.2 27.3 12.8 28.3 12.600000000000001 28.11 Z" transform="rotate(354,10.60,26.11)" stroke="#ffeeb3" stroke-width="0.2" fill="#fde17e" opacity="0.73"></path><path class="bonito" d="M-5.49 30.09C  -5.0 29.1 -4.2 28.3 -3.2 27.9 -2.3 27.3 -2.0 26.1 -1.3 25.3 -0.1 25.0 0.5 24.1 0.5099999999999998 24.09 1.5 23.6 2.3 22.8 3.4 22.7 4.4 22.2 5.7 22.4 5.51 22.09 5.3 23.2 4.7 24.1 4.2 25.0 3.8 26.1 3.6 27.1 3.51 27.09 2.5 27.6 1.9 28.5 1.2 29.3 0.7 30.3 -0.2 30.9 -1.2 31.4 -2.0 32.1 -2.6 33.0 -2.49 33.09 -3.5 33.6 -4.0 34.6 -4.6 35.5 -5.8 35.8 -5.49 36.09 Z" transform="rotate(194,-5.49,30.09)" stroke="#ffeeb3" stroke-width="0.2" fill="#fde17e" opacity="0.70"></path><path class="bonito" d="M10.6 2.84C  10.9 1.9 12.0 1.5 12.2 0.5 12.8 -0.3 13.3 -1.1 13.8 -1.9 14.6 -2.5 15.0 -3.4 15.3 -4.4 15.6 -4.16 16.6 -4.7 17.6 -4.1 18.6 -4.3 19.6 -4.0 20.6 -4.0 21.6 -4.4 22.6 -3.9 22.6 -4.16 22.1 -3.2 22.1 -2.1 21.8 -1.0 21.1 -0.1 20.2 0.7 20.6 0.8399999999999999 19.8 1.5 18.9 1.7 18.2 2.5 17.1 2.6 16.3 3.2 15.5 3.6 15.600000000000001 3.84 Z" transform="rotate(330,10.60,2.84)" stroke="#ffeeb3" stroke-width="0.2" fill="#ffedab" opacity="0.74"></path><path class="bonito" d="M15.58 -32.47C  16.3 -33.3 16.8 -34.2 18.0 -34.5 18.4 -35.7 18.58 -35.47 19.3 -34.7 20.0 -34.0 20.8 -33.3 21.5 -32.6 22.2 -31.8 22.9 -31.1 23.7 -30.4 24.4 -29.7 25.1 -28.9 25.9 -28.2 26.6 -27.5 26.58 -27.47 26.1 -26.5 25.0 -26.0 24.3 -25.3 23.8 -24.2 23.58 -24.47 Z" transform="rotate(171,15.58,-32.47)" stroke="#ffeeb3" stroke-width="0.2" fill="#fde17e" opacity="0.82"></path><circle cx="0" cy="0" r="3.0000840919280343" transform="translate(0,0) scale(1)" fill="none" stroke="rgb(72, 145, 31)" stroke-width="1"></circle><path class="bonito" d="M-14.75 21.28C  -13.8 20.7 -13.5 19.6 -12.8 18.7 -12.1 18.0 -11.75 18.28 -10.6 18.1 -9.7 17.3 -9.75 17.28 -8.8 17.6 -8.6 18.8 -7.6 19.2 -7.75 19.28 Z" transform="rotate(348,-14.75,21.28)" stroke="#ffeeb3" stroke-width="0.2" fill="#fde17e" opacity="0.87"></path><path class="bonito" d="M13.93 29.3C  14.7 28.6 15.4 27.9 15.7 26.8 17.1 26.7 17.4 25.6 18.4 25.2 18.9 24.3 18.93 24.3 19.5 25.0 20.3 25.6 20.7 26.5 20.93 26.3 20.6 27.4 19.6 27.8 18.8 28.4 18.0 29.1 17.7 30.2 16.6 30.5 15.7 31.0 15.93 31.3 Z" transform="rotate(359,13.93,29.30)" stroke="#ffeeb3" stroke-width="0.2" fill="#f2d56e" opacity="0.86"></path><path class="bonito" d="M16.4 -18.03C  16.8 -19.1 17.9 -19.6 18.7 -20.2 19.6 -20.8 20.2 -21.7 21.0 -22.4 21.9 -23.1 22.3 -24.1 22.4 -24.03 23.3 -24.8 24.4 -24.8 25.6 -24.8 26.3 -26.0 27.5 -25.8 27.4 -26.03 27.0 -25.0 26.7 -24.0 26.2 -23.0 25.9 -22.0 25.0 -21.2 25.4 -21.03 24.9 -20.0 23.7 -19.8 22.9 -19.0 22.5 -17.9 21.9 -17.0 21.1 -16.3 19.9 -16.0 19.1 -15.4 19.4 -15.030000000000001 18.6 -14.3 17.8 -13.7 16.8 -13.1 16.3 -12.2 16.4 -12.030000000000001 Z" transform="rotate(79,16.40,-18.03)" stroke="#ffeeb3" stroke-width="0.2" fill="#fde17e" opacity="0.73"></path><path class="bonito" d="M8.06 8.06C  8.2 7.0 9.3 6.6 10.1 6.0 10.5 5.1 10.6 4.0 11.8 3.7 12.3 2.8 12.6 1.9 13.0 1.0 13.06 1.0600000000000005 14.1 1.2 15.1 0.7 16.1 1.5 17.1 1.1 18.1 0.8 19.1 1.4 20.1 1.2 20.060000000000002 1.0600000000000005 19.4 1.9 19.7 3.2 19.0 4.1 18.5 5.1 18.1 6.1 18.060000000000002 6.0600000000000005 17.2 6.5 16.3 6.9 15.8 7.9 14.7 8.1 13.9 8.5 12.9 8.9 13.060000000000002 9.06 Z" transform="rotate(344,8.06,8.06)" stroke="#ffeeb3" stroke-width="0.2" fill="#ffedab" opacity="0.81"></path><path class="bonito" d="M10.6 -14.75C  11.6 -15.2 12.0 -16.3 12.7 -17.2 13.4 -17.9 13.6 -17.75 14.3 -17.0 15.1 -16.3 15.8 -15.6 16.5 -14.8 17.2 -14.1 18.0 -13.4 18.7 -12.7 19.4 -11.9 20.1 -11.2 20.9 -10.5 21.6 -9.8 21.6 -9.75 20.9 -9.0 19.9 -8.5 19.6 -7.3 18.9 -6.4 18.6 -6.75 Z" transform="rotate(24,10.60,-14.75)" stroke="#ffeeb3" stroke-width="0.2" fill="#ffedab" opacity="0.71"></path><circle cx="0" cy="0" r="2.4143348412404433" transform="translate(-9,15) scale(1)" fill="none" stroke="rgb(160, 239, 116)" stroke-width="1"></circle><path class="bonito" d="M4.61 -11.44C  5.6 -11.9 6.2 -12.9 7.1 -13.5 7.7 -14.3 7.61 -14.44 8.4 -15.3 9.4 -15.8 9.61 -15.44 10.4 -14.9 10.9 -14.1 11.8 -13.6 11.61 -13.44 Z" transform="rotate(130,4.61,-11.44)" stroke="#ffeeb3" stroke-width="0.2" fill="#f2d56e" opacity="0.76"></path><path class="bonito" d="M-1 -5.49C  -0.4 -6.3 0.1 -7.2 0.8 -8.0 2.1 -8.1 2.3 -9.4 3.0 -10.0 4.3 -10.2 4 -10.49 4.5 -9.7 5.0 -8.8 5.9 -8.4 6 -8.49 5.6 -7.5 4.5 -7.2 4.2 -6.0 3.0 -5.8 2.7 -4.6 2.0 -3.9 1.2 -3.3 1 -3.49 Z" transform="rotate(218,-1.00,-5.49)" stroke="#ffeeb3" stroke-width="0.2" fill="#ffe174" opacity="0.88"></path><path class="bonito" d="M-8.91 8.06C  -8.0 7.4 -7.1 6.9 -7.0 5.5 -5.6 5.4 -5.0 4.5 -4.6 3.4 -3.7 2.8 -2.9 2.0 -2.91 2.0600000000000005 -1.8 2.0 -0.9 1.4 -0.0 0.6 1.1 0.5 2.2 0.2 2.09 0.0600000000000005 2.0 1.2 1.2 2.0 0.9 3.1 0.5 4.1 0.4 5.2 0.08999999999999986 5.0600000000000005 -0.9 5.5 -1.3 6.6 -2.2 7.3 -3.2 7.7 -4.0 8.5 -4.2 9.8 -5.0 10.5 -5.9 11.1 -5.91 11.06 -6.8 11.7 -7.2 12.7 -8.1 13.3 -8.9 14.1 -8.91 14.06 Z" transform="rotate(147,-8.91,8.06)" stroke="#ffeeb3" stroke-width="0.2" fill="#fde17e" opacity="0.81"></path><path class="bonito" d="M9.76 -24.51C  10.5 -25.2 10.8 -26.1 11.8 -26.6 12.4 -27.3 12.8 -28.2 13.0 -29.3 13.5 -30.0 13.8 -31.0 15.1 -31.2 14.76 -31.51 15.8 -31.0 16.8 -31.8 17.8 -31.1 18.8 -31.3 19.8 -31.7 20.8 -31.8 21.8 -31.3 21.759999999999998 -31.51 21.1 -30.6 21.2 -29.4 20.8 -28.4 20.6 -27.3 20.0 -26.4 19.759999999999998 -26.51 18.8 -26.2 17.9 -25.8 17.3 -24.9 16.6 -24.3 15.6 -23.9 14.7 -23.7 14.759999999999998 -23.51 Z" transform="rotate(281,9.76,-24.51)" stroke="#ffeeb3" stroke-width="0.2" fill="#fde17e" opacity="0.76"></path><path class="bonito" d="M-16.4 -23.7C  -15.8 -24.6 -15.1 -25.4 -14.3 -26.1 -13.6 -26.9 -13.399999999999999 -26.7 -12.7 -26.0 -11.9 -25.2 -11.2 -24.5 -10.5 -23.8 -9.8 -23.1 -9.0 -22.3 -8.3 -21.6 -7.6 -20.9 -6.9 -20.2 -6.1 -19.4 -5.4 -18.7 -5.399999999999999 -18.7 -6.5 -18.3 -6.7 -17.0 -7.8 -16.6 -8.5 -15.8 -8.399999999999999 -15.7 Z" transform="rotate(38,-16.40,-23.70)" stroke="#ffeeb3" stroke-width="0.2" fill="#ffedab" opacity="0.81"></path><circle cx="0" cy="0" r="2.636602541647465" transform="translate(-10,0) scale(1)" fill="none" stroke="rgb(175, 254, 131)" stroke-width="1"></circle><path class="bonito" d="M-13.1 -28.5C  -12.3 -29.2 -11.3 -29.7 -11.2 -31.1 -10.3 -31.7 -10.1 -31.5 -9.3 -32.4 -8.0 -32.2 -8.1 -32.5 -7.4 -31.9 -6.8 -31.2 -6.2 -30.4 -6.1 -30.5 Z" transform="rotate(309,-13.10,-28.50)" stroke="#ffeeb3" stroke-width="0.2" fill="#fde17e" opacity="0.71"></path><path class="bonito" d="M12.27 -20.47C  13.3 -20.9 13.5 -22.1 14.7 -22.3 15.4 -23.0 15.5 -24.4 16.7 -24.6 17.5 -25.2 17.27 -25.47 18.0 -24.9 18.5 -24.1 19.1 -23.3 19.27 -23.47 18.3 -23.1 18.0 -21.9 17.0 -21.5 16.3 -20.8 16.1 -19.5 15.0 -19.2 14.5 -18.3 14.27 -18.47 Z" transform="rotate(239,12.27,-20.47)" stroke="#ffeeb3" stroke-width="0.2" fill="#ffedab" opacity="0.70"></path><path class="bonito" d="M2.84 0C  3.4 -0.9 4.7 -1.1 4.8 -2.5 6.0 -2.8 6.2 -4.1 7.4 -4.4 7.8 -5.5 8.9 -5.9 8.84 -6 9.7 -6.7 10.8 -7.0 11.9 -7.0 12.8 -7.8 13.8 -8.1 13.84 -8 13.7 -6.9 13.1 -6.0 12.9 -4.9 12.7 -3.8 11.6 -3.1 11.84 -3 11.4 -1.9 10.5 -1.4 9.5 -0.8 8.6 -0.2 8.0 0.7 7.3 1.4 6.7 2.4 6.1 3.3 5.84 3 5.2 3.9 4.2 4.4 3.7 5.4 2.5 5.7 2.84 6 Z" transform="rotate(45,2.84,0.00)" stroke="#ffeeb3" stroke-width="0.2" fill="#ffe174" opacity="0.81"></path><path class="bonito" d="M-14.75 22.9C  -14.0 22.3 -13.3 21.6 -13.4 20.3 -12.6 19.8 -12.4 18.7 -11.2 18.4 -11.0 17.4 -10.4 16.6 -9.7 15.9 -9.75 15.899999999999999 -8.8 15.8 -7.8 15.6 -6.8 15.7 -5.8 16.4 -4.8 15.6 -3.8 16.1 -2.8 16.4 -2.75 15.899999999999999 -2.7 17.1 -3.7 17.8 -4.1 18.9 -4.4 19.9 -4.3 21.1 -4.75 20.9 -5.7 21.2 -6.3 22.1 -7.3 22.3 -8.1 22.9 -9.1 23.1 -9.6 24.2 -9.75 23.9 Z" transform="rotate(317,-14.75,22.90)" stroke="#ffeeb3" stroke-width="0.2" fill="#f2d56e" opacity="0.75"></path><path class="bonito" d="M-2.84 -26.11C  -2.2 -26.9 -1.5 -27.8 -0.5 -28.3 -0.0 -29.3 0.16000000000000014 -29.11 0.9 -28.4 1.6 -27.7 2.3 -26.9 3.1 -26.2 3.8 -25.5 4.5 -24.7 5.3 -24.0 6.0 -23.3 6.7 -22.6 7.4 -21.8 8.2 -21.1 8.16 -21.11 7.4 -20.4 6.9 -19.4 5.9 -18.9 5.3 -18.0 5.16 -18.11 Z" transform="rotate(63,-2.84,-26.11)" stroke="#ffeeb3" stroke-width="0.2" fill="#ffedab" opacity="0.87"></path><circle cx="0" cy="0" r="2.3815521464670586" transform="translate(-11,35) scale(1)" fill="none" stroke="rgb(160, 239, 116)" stroke-width="1"></circle><path class="bonito" d="M-2.84 -19.66C  -2.3 -20.6 -1.6 -21.4 -0.8 -22.1 -0.1 -22.9 0.16000000000000014 -22.66 1.3 -22.9 2.0 -24.0 2.16 -23.66 2.9 -23.1 3.2 -22.0 4.3 -21.8 4.16 -21.66 Z" transform="rotate(10,-2.84,-19.66)" stroke="#ffeeb3" stroke-width="0.2" fill="#fde17e" opacity="0.84"></path><path class="bonito" d="M4.61 -17.22C  5.0 -18.3 6.2 -18.5 6.5 -19.6 7.7 -19.8 8.1 -20.8 9.2 -21.2 9.4 -22.4 9.61 -22.22 10.4 -21.7 11.1 -21.0 11.9 -20.5 11.61 -20.22 10.8 -19.6 9.9 -19.0 9.5 -18.0 8.5 -17.6 7.8 -16.9 7.2 -16.1 6.4 -15.5 6.609999999999999 -15.219999999999999 Z" transform="rotate(140,4.61,-17.22)" stroke="#ffeeb3" stroke-width="0.2" fill="#ffe174" opacity="0.87"></path><path class="bonito" d="M3.73 10.6C  4.6 10.0 5.3 9.2 6.2 8.6 6.4 7.3 7.5 6.9 8.1 6.0 8.7 5.0 9.8 4.7 9.73 4.6 10.6 3.9 11.8 3.9 12.9 3.8 13.8 3.2 14.7 2.6 14.73 2.5999999999999996 14.0 3.5 13.6 4.5 14.0 5.8 12.8 6.5 13.2 7.8 12.73 7.6 12.1 8.5 11.4 9.3 10.6 9.9 9.6 10.5 9.3 11.6 8.0 11.9 7.8 13.2 6.6 13.5 6.73 13.6 6.2 14.6 4.9 14.8 4.4 15.7 3.7 16.5 3.7300000000000004 16.6 Z" transform="rotate(178,3.73,10.60)" stroke="#ffeeb3" stroke-width="0.2" fill="#ffe174" opacity="0.72"></path><path class="bonito" d="M11.44 11.44C  11.7 10.4 12.2 9.7 13.1 9.1 13.7 8.4 14.2 7.5 14.8 6.8 15.6 6.2 15.9 5.2 16.6 4.6 16.439999999999998 4.4399999999999995 17.4 4.8 18.4 4.0 19.4 4.7 20.4 4.0 21.4 4.8 22.4 4.3 23.4 4.3 23.439999999999998 4.4399999999999995 23.0 5.4 22.6 6.4 22.4 7.5 22.0 8.5 21.1 9.3 21.439999999999998 9.44 20.4 9.6 19.6 10.1 19.0 11.0 18.3 11.7 17.5 12.3 16.5 12.5 16.439999999999998 12.44 Z" transform="rotate(342,11.44,11.44)" stroke="#ffeeb3" stroke-width="0.2" fill="#fde17e" opacity="0.84"></path><path class="bonito" d="M12.27 -27.71C  13.2 -28.3 13.7 -29.2 14.2 -30.3 15.5 -30.4 15.27 -30.71 16.0 -30.0 16.7 -29.3 17.5 -28.5 18.2 -27.8 18.9 -27.1 19.6 -26.3 20.4 -25.6 21.1 -24.9 21.8 -24.2 22.5 -23.4 23.3 -22.7 23.27 -22.71 22.8 -21.7 21.9 -21.0 21.1 -20.4 20.3 -19.7 20.27 -19.71 Z" transform="rotate(79,12.27,-27.71)" stroke="#ffeeb3" stroke-width="0.2" fill="#ffe174" opacity="0.74"></path><rect x="0" y="0" width="7" height="3" transform="translate(-15,-10) rotate(359) scale(1.06561136044788) " fill="rgb(155, 233, 111)"></rect><circle cx="0" cy="0" r="3.521998340483493" transform="translate(2,10) scale(1)" fill="none" stroke="rgb(127, 203, 84)" stroke-width="1"></circle><path class="bonito" d="M14.75 -30.89C  15.8 -31.4 16.5 -32.2 16.8 -33.4 17.6 -34.0 17.75 -33.89 18.8 -34.4 19.9 -34.6 19.75 -34.89 20.2 -34.1 21.0 -33.4 21.6 -32.7 21.75 -32.89 Z" transform="rotate(252,14.75,-30.89)" stroke="#ffeeb3" stroke-width="0.2" fill="#fde17e" opacity="0.88"></path><path class="bonito" d="M-6.35 -29.3C  -5.5 -29.9 -4.6 -30.4 -3.9 -31.1 -3.8 -32.4 -2.8 -32.9 -2.2 -33.8 -1.1 -34.1 -1.3499999999999996 -34.3 -0.7 -33.6 -0.3 -32.7 0.4 -32.0 0.6500000000000004 -32.3 -0.1 -31.6 -0.5 -30.6 -1.7 -30.3 -2.5 -29.7 -3.1 -28.9 -3.4 -27.8 -4.6 -27.6 -4.35 -27.299999999999997 Z" transform="rotate(338,-6.35,-29.30)" stroke="#ffeeb3" stroke-width="0.2" fill="#f2d56e" opacity="0.75"></path><path class="bonito" d="M-14.75 -18.85C  -14.1 -19.7 -13.3 -20.4 -12.7 -21.3 -11.8 -21.9 -11.3 -22.9 -10.4 -23.5 -9.2 -23.8 -9.1 -25.2 -8.75 -24.85 -7.9 -25.7 -6.6 -25.2 -5.7 -25.9 -4.7 -26.4 -3.8 -27.1 -3.75 -26.85 -4.4 -26.0 -4.3 -24.8 -5.1 -23.9 -5.7 -23.0 -5.6 -21.8 -5.75 -21.85 -6.8 -21.4 -7.1 -20.2 -8.2 -19.8 -8.9 -19.0 -9.7 -18.3 -10.1 -17.2 -10.9 -16.5 -11.8 -15.9 -11.75 -15.850000000000001 -12.3 -14.9 -12.9 -14.0 -14.2 -13.8 -15.0 -13.1 -14.75 -12.850000000000001 Z" transform="rotate(135,-14.75,-18.85)" stroke="#ffeeb3" stroke-width="0.2" fill="#fde17e" opacity="0.71"></path><path class="bonito" d="M-13.93 -3.73C  -13.5 -4.6 -13.1 -5.5 -12.2 -6.0 -11.6 -6.8 -11.3 -7.7 -10.3 -8.2 -9.7 -8.9 -9.7 -10.1 -9.2 -10.9 -8.93 -10.73 -7.9 -10.5 -6.9 -10.6 -5.9 -11.1 -4.9 -10.7 -3.9 -10.2 -2.9 -11.2 -1.9 -10.8 -1.9299999999999997 -10.73 -2.4 -9.8 -2.3 -8.6 -3.3 -7.8 -3.9 -6.9 -4.3 -5.9 -3.9299999999999997 -5.73 -4.9 -5.4 -5.6 -4.8 -6.6 -4.5 -7.4 -3.9 -8.0 -3.0 -9.0 -2.8 -8.93 -2.7300000000000004 Z" transform="rotate(105,-13.93,-3.73)" stroke="#ffeeb3" stroke-width="0.2" fill="#ffe174" opacity="0.76"></path><path class="bonito" d="M2.84 -3.73C  3.7 -4.4 4.6 -5.0 4.9 -6.2 6.1 -6.5 5.84 -6.73 6.6 -6.0 7.3 -5.3 8.0 -4.5 8.7 -3.8 9.5 -3.1 10.2 -2.4 10.9 -1.6 11.7 -0.9 12.4 -0.2 13.1 0.5 13.8 1.3 13.84 1.2699999999999996 12.8 1.8 12.7 3.1 11.8 3.7 11.1 4.5 10.84 4.27 Z" transform="rotate(252,2.84,-3.73)" stroke="#ffeeb3" stroke-width="0.2" fill="#ffe174" opacity="0.90"></path><rect x="0" y="0" width="7" height="4" transform="translate(0,-10) rotate(138) scale(1.138421476380958) " fill="rgb(162, 242, 119)"></rect><circle cx="0" cy="0" r="2.542643885679677" transform="translate(-1,12) scale(1)" fill="none" stroke="rgb(68, 140, 27)" stroke-width="1"></circle><path class="bonito" d="M8.06 -26.11C  9.0 -26.7 9.9 -27.3 10.4 -28.2 11.3 -28.8 11.06 -29.11 12.2 -29.3 13.0 -30.3 13.06 -30.11 14.0 -29.7 14.3 -28.7 14.7 -27.8 15.06 -28.11 Z" transform="rotate(357,8.06,-26.11)" stroke="#ffeeb3" stroke-width="0.2" fill="#ffedab" opacity="0.73"></path><path class="bonito" d="M-1 -4.61C  -0.3 -5.3 0.8 -5.7 1.0 -6.9 1.6 -7.7 2.8 -8.0 3.3 -8.9 3.9 -9.7 4 -9.61 5.0 -9.3 5.2 -8.2 5.9 -7.5 6 -7.609999999999999 5.0 -7.1 4.4 -6.3 3.5 -5.8 3.3 -4.6 2.3 -4.1 1.4 -3.6 1.2 -2.4 1 -2.6099999999999994 Z" transform="rotate(244,-1.00,-4.61)" stroke="#ffeeb3" stroke-width="0.2" fill="#f2d56e" opacity="0.88"></path><path class="bonito" d="M8.91 -16.4C  9.9 -16.9 10.5 -17.8 11.3 -18.5 12.0 -19.3 12.7 -20.1 13.3 -21.1 14.5 -21.4 15.1 -22.2 14.91 -22.4 16.0 -22.7 16.9 -23.1 17.8 -23.9 19.0 -23.7 19.8 -24.8 19.91 -24.4 19.3 -23.5 19.1 -22.4 18.6 -21.4 18.7 -20.3 17.5 -19.6 17.91 -19.4 17.1 -18.7 16.2 -18.1 15.6 -17.2 14.9 -16.5 14.4 -15.4 13.4 -14.9 12.7 -14.1 11.8 -13.5 11.91 -13.399999999999999 11.3 -12.5 10.2 -12.1 9.9 -10.9 8.7 -10.6 8.91 -10.399999999999999 Z" transform="rotate(233,8.91,-16.40)" stroke="#ffeeb3" stroke-width="0.2" fill="#fde17e" opacity="0.73"></path><path class="bonito" d="M-13.1 -16.4C  -12.5 -17.1 -11.9 -17.9 -11.4 -18.7 -11.1 -19.7 -9.9 -20.0 -9.7 -21.0 -9.1 -21.8 -8.6 -22.5 -8.0 -23.3 -8.1 -23.4 -7.1 -23.6 -6.1 -23.7 -5.1 -23.6 -4.1 -23.7 -3.1 -23.5 -2.1 -23.8 -1.1 -23.5 -1.0999999999999996 -23.4 -1.3 -22.3 -1.8 -21.4 -2.6 -20.5 -3.0 -19.5 -3.1 -18.4 -3.0999999999999996 -18.4 -3.8 -17.7 -4.9 -17.6 -5.7 -17.1 -6.3 -16.2 -7.2 -15.7 -8.2 -15.6 -8.1 -15.399999999999999 Z" transform="rotate(167,-13.10,-16.40)" stroke="#ffeeb3" stroke-width="0.2" fill="#fde17e" opacity="0.80"></path><path class="bonito" d="M5.49 30.09C  6.1 29.2 7.1 28.7 8.1 28.2 8.3 26.9 8.49 27.09 9.2 27.8 9.9 28.5 10.7 29.3 11.4 30.0 12.1 30.7 12.9 31.5 13.6 32.2 14.3 32.9 15.0 33.6 15.8 34.4 16.5 35.1 16.490000000000002 35.09 16.0 36.1 15.1 36.7 14.2 37.3 13.2 37.8 13.490000000000002 38.09 Z" transform="rotate(0,5.49,30.09)" stroke="#ffeeb3" stroke-width="0.2" fill="#f2d56e" opacity="0.86"></path><rect x="0" y="0" width="7" height="2" transform="translate(0,-2) rotate(298) scale(0.9611169619913835) " fill="rgb(72, 144, 31)"></rect><circle cx="0" cy="0" r="3.493102773441571" transform="translate(-16,17) scale(1)" fill="none" stroke="rgb(55, 126, 15)" stroke-width="1"></circle><path class="bonito" d="M-13.93 -4.61C  -12.9 -5.1 -12.5 -6.2 -11.4 -6.5 -10.8 -7.5 -10.93 -7.61 -9.8 -7.9 -9.0 -8.8 -8.93 -8.61 -8.1 -8.1 -7.9 -6.9 -7.2 -6.4 -6.93 -6.609999999999999 Z" transform="rotate(185,-13.93,-4.61)" stroke="#ffeeb3" stroke-width="0.2" fill="#fde17e" opacity="0.83"></path><path class="bonito" d="M14.75 -31.68C  15.3 -32.6 16.2 -33.1 17.2 -33.5 17.3 -34.8 18.4 -35.1 19.3 -35.7 20.0 -36.5 19.75 -36.68 20.5 -36.1 21.1 -35.3 21.5 -34.4 21.75 -34.68 21.2 -33.8 20.1 -33.4 20.0 -32.2 19.0 -31.8 18.4 -30.9 17.1 -30.7 17.0 -29.4 16.75 -29.68 Z" transform="rotate(171,14.75,-31.68)" stroke="#ffeeb3" stroke-width="0.2" fill="#f2d56e" opacity="0.84"></path><path class="bonito" d="M13.93 -18.03C  14.9 -18.5 15.3 -19.6 16.0 -20.5 16.9 -21.0 17.8 -21.6 18.1 -22.9 19.0 -23.5 20.3 -23.7 19.93 -24.03 20.9 -24.6 21.8 -25.1 23.0 -25.1 23.9 -25.6 24.8 -26.3 24.93 -26.03 24.2 -25.2 24.0 -24.1 23.6 -23.1 23.2 -22.1 22.7 -21.1 22.93 -21.03 22.3 -20.2 21.6 -19.4 20.8 -18.6 19.6 -18.4 19.5 -16.9 18.5 -16.5 17.4 -16.1 17.2 -14.7 16.93 -15.030000000000001 15.8 -14.6 15.7 -13.3 14.6 -12.9 14.2 -11.8 13.93 -12.030000000000001 Z" transform="rotate(111,13.93,-18.03)" stroke="#ffeeb3" stroke-width="0.2" fill="#ffedab" opacity="0.81"></path><path class="bonito" d="M-13.1 9.76C  -12.6 9.0 -12.4 7.9 -11.4 7.5 -10.8 6.7 -10.0 6.1 -10.1 4.8 -9.2 4.3 -8.8 3.4 -7.7 3.0 -8.1 2.76 -7.1 2.3 -6.1 2.9 -5.1 2.3 -4.1 2.5 -3.1 3.1 -2.1 2.8 -1.1 3.0 -1.0999999999999996 2.76 -1.3 3.8 -1.9 4.8 -2.6 5.7 -2.9 6.7 -3.0 7.8 -3.0999999999999996 7.76 -4.2 7.9 -5.0 8.4 -5.8 9.0 -6.5 9.6 -7.4 10.0 -7.9 11.1 -8.1 10.76 Z" transform="rotate(231,-13.10,9.76)" stroke="#ffeeb3" stroke-width="0.2" fill="#f2d56e" opacity="0.87"></path><path class="bonito" d="M12.27 -13.1C  13.2 -13.7 13.8 -14.6 14.6 -15.3 15.3 -16.1 15.27 -16.1 16.0 -15.4 16.7 -14.6 17.5 -13.9 18.2 -13.2 18.9 -12.5 19.6 -11.7 20.4 -11.0 21.1 -10.3 21.8 -9.6 22.5 -8.8 23.3 -8.1 23.27 -8.100000000000001 22.2 -7.7 21.8 -6.5 21.0 -5.8 20.3 -5.1 20.27 -5.100000000000001 Z" transform="rotate(319,12.27,-13.10)" stroke="#ffeeb3" stroke-width="0.2" fill="#fde17e" opacity="0.75"></path><rect x="0" y="0" width="7" height="3" transform="translate(-8,-20) rotate(311) scale(1.1562207194591994) " fill="rgb(136, 213, 93)"></rect><circle cx="0" cy="0" r="3.0717792394254086" transform="translate(12,31) scale(1)" fill="none" stroke="rgb(147, 225, 104)" stroke-width="1"></circle><path class="bonito" d="M-1 6.35C  -0.1 5.8 0.3 4.7 1.5 4.3 1.9 3.2 2 3.3499999999999996 2.9 2.7 4.1 2.6 4 2.3499999999999996 5.0 2.7 5.4 3.6 5.7 4.7 6 4.35 Z" transform="rotate(52,-1.00,6.35)" stroke="#ffeeb3" stroke-width="0.2" fill="#ffe174" opacity="0.73"></path><path class="bonito" d="M-7.21 30.09C  -6.3 29.6 -5.6 28.8 -4.9 28.1 -4.2 27.3 -3.7 26.4 -3.2 25.5 -2.2 25.1 -2.21 25.09 -1.9 26.1 -1.1 26.6 0.1 26.8 -0.20999999999999996 27.09 -0.6 28.1 -1.3 28.8 -2.1 29.5 -2.9 30.1 -3.9 30.6 -4.3 31.6 -5.4 31.9 -5.21 32.09 Z" transform="rotate(197,-7.21,30.09)" stroke="#ffeeb3" stroke-width="0.2" fill="#ffedab" opacity="0.86"></path><path class="bonito" d="M5.49 22.09C  6.3 21.4 6.7 20.3 7.5 19.6 8.5 19.1 9.5 18.6 10.1 17.7 10.6 16.7 11.7 16.3 11.49 16.09 12.6 16.1 13.5 15.3 14.4 14.7 15.5 14.5 16.6 14.3 16.490000000000002 14.09 15.9 15.0 16.0 16.2 15.5 17.2 14.6 18.0 14.5 19.1 14.490000000000002 19.09 14.0 20.1 13.3 20.9 12.1 21.2 11.3 21.9 10.6 22.7 10.0 23.6 9.0 24.1 8.4 25.0 8.490000000000002 25.09 7.6 25.7 7.3 26.9 6.2 27.3 5.8 28.4 5.490000000000002 28.09 Z" transform="rotate(94,5.49,22.09)" stroke="#ffeeb3" stroke-width="0.2" fill="#ffedab" opacity="0.76"></path><path class="bonito" d="M8.06 -1.93C  8.4 -2.9 8.8 -3.7 10.1 -4.0 10.4 -5.0 10.7 -6.0 11.0 -6.9 11.9 -7.4 12.5 -8.1 12.8 -9.1 13.06 -8.93 14.1 -9.1 15.1 -9.3 16.1 -8.7 17.1 -8.6 18.1 -8.7 19.1 -8.6 20.1 -8.6 20.060000000000002 -8.93 19.9 -7.8 19.5 -6.8 18.7 -6.0 18.6 -4.9 18.3 -3.8 18.060000000000002 -3.9299999999999997 17.2 -3.5 16.6 -2.6 15.5 -2.6 14.7 -2.0 13.9 -1.4 13.1 -0.9 13.060000000000002 -0.9299999999999997 Z" transform="rotate(318,8.06,-1.93)" stroke="#ffeeb3" stroke-width="0.2" fill="#f2d56e" opacity="0.76"></path><path class="bonito" d="M8.91 18.85C  9.4 17.8 10.1 17.0 10.9 16.3 12.2 16.1 11.91 15.850000000000001 12.6 16.6 13.4 17.3 14.1 18.0 14.8 18.8 15.5 19.5 16.3 20.2 17.0 20.9 17.7 21.7 18.5 22.4 19.2 23.1 19.9 23.8 19.91 23.85 18.8 24.3 18.5 25.4 17.9 26.4 17.1 27.0 16.91 26.85 Z" transform="rotate(252,8.91,18.85)" stroke="#ffeeb3" stroke-width="0.2" fill="#fde17e" opacity="0.71"></path><rect x="0" y="0" width="7" height="3" transform="translate(1,-20) rotate(129) scale(0.8099416237655058) " fill="rgb(112, 187, 70)"></rect><circle cx="0" cy="0" r="3.153370623620618" transform="translate(0,-16) scale(1)" fill="none" stroke="rgb(43, 113, 3)" stroke-width="1"></circle><path class="bonito" d="M-13.93 31.68C  -13.0 31.1 -12.3 30.3 -11.8 29.3 -10.7 28.9 -10.93 28.68 -9.8 28.5 -8.9 27.8 -8.93 27.68 -8.4 28.5 -7.4 28.8 -6.9 29.7 -6.93 29.68 Z" transform="rotate(224,-13.93,31.68)" stroke="#ffeeb3" stroke-width="0.2" fill="#ffe174" opacity="0.76"></path><path class="bonito" d="M1 -19.66C  1.5 -20.6 2.1 -21.4 3.5 -21.5 4.1 -22.3 4.4 -23.4 5.2 -24.0 6.0 -24.7 6 -24.66 6.5 -23.8 7.1 -23.1 7.7 -22.3 8 -22.66 7.1 -22.1 6.9 -20.9 5.6 -20.8 5.5 -19.5 4.4 -19.1 3.8 -18.3 2.8 -17.9 3 -17.66 Z" transform="rotate(142,1.00,-19.66)" stroke="#ffeeb3" stroke-width="0.2" fill="#ffedab" opacity="0.80"></path><path class="bonito" d="M1 22.9C  1.6 22.0 2.8 21.7 3.5 20.9 4.3 20.2 4.6 19.0 5.7 18.6 6.1 17.5 7.1 17.0 7 16.9 8.2 16.9 9.0 16.1 10.2 16.1 11.1 15.6 12.1 15.1 12 14.899999999999999 11.6 15.9 10.8 16.8 11.1 18.0 10.4 18.9 10.0 19.9 10 19.9 9.4 20.8 8.5 21.4 7.8 22.2 6.8 22.7 6.6 24.0 5.7 24.6 4.6 25.0 4.1 26.0 4 25.9 3.5 26.9 2.8 27.7 2.0 28.4 1.3 29.2 1 28.9 Z" transform="rotate(125,1.00,22.90)" stroke="#ffeeb3" stroke-width="0.2" fill="#fde17e" opacity="0.72"></path><path class="bonito" d="M5.49 34.84C  6.2 34.2 6.7 33.3 7.2 32.5 7.4 31.5 8.6 31.2 8.6 30.0 9.7 29.7 9.8 28.5 10.7 28.0 10.49 27.840000000000003 11.5 28.1 12.5 27.6 13.5 28.1 14.5 28.1 15.5 28.0 16.5 27.6 17.5 27.7 17.490000000000002 27.840000000000003 17.3 28.9 17.1 30.0 15.9 30.7 15.6 31.7 15.5 32.8 15.490000000000002 32.84 14.6 33.2 14.1 34.3 13.0 34.4 12.0 34.6 11.5 35.6 10.5 35.9 10.490000000000002 35.84 Z" transform="rotate(52,5.49,34.84)" stroke="#ffeeb3" stroke-width="0.2" fill="#ffe174" opacity="0.78"></path><path class="bonito" d="M-6.35 -30.89C  -5.6 -31.6 -4.9 -32.4 -4.3 -33.3 -3.1 -33.6 -3.3499999999999996 -33.89 -2.6 -33.2 -1.9 -32.4 -1.2 -31.7 -0.4 -31.0 0.3 -30.3 1.0 -29.5 1.7 -28.8 2.5 -28.1 3.2 -27.3 3.9 -26.6 4.7 -25.9 4.65 -25.89 4.2 -24.9 3.2 -24.3 2.6 -23.5 1.7 -22.8 1.6500000000000004 -22.89 Z" transform="rotate(270,-6.35,-30.89)" stroke="#ffeeb3" stroke-width="0.2" fill="#f2d56e" opacity="0.82"></path><rect x="0" y="0" width="7" height="4" transform="translate(11,-4) rotate(205) scale(1.017743133943728) " fill="rgb(107, 182, 65)"></rect><circle cx="0" cy="0" r="3.487340995777979" transform="translate(11,-26) scale(1)" fill="none" stroke="rgb(107, 182, 65)" stroke-width="1"></circle><path class="bonito" d="M6.35 -28.5C  7.3 -29.0 7.6 -30.2 8.3 -31.1 9.5 -31.4 9.35 -31.5 10.2 -32.4 11.4 -32.4 11.35 -32.5 12.1 -31.9 12.6 -31.1 13.3 -30.5 13.35 -30.5 Z" transform="rotate(266,6.35,-28.50)" stroke="#ffeeb3" stroke-width="0.2" fill="#ffedab" opacity="0.72"></path><path class="bonito" d="M4.61 16.4C  5.2 15.5 6.3 15.2 6.4 13.9 7.5 13.5 8.1 12.8 9.1 12.3 9.3 11.1 9.61 11.399999999999999 10.0 12.3 11.2 12.5 11.3 13.7 11.61 13.399999999999999 10.7 13.9 9.9 14.5 9.5 15.6 8.7 16.2 8.3 17.2 7.2 17.6 6.7 18.5 6.609999999999999 18.4 Z" transform="rotate(332,4.61,16.40)" stroke="#ffeeb3" stroke-width="0.2" fill="#fde17e" opacity="0.72"></path><path class="bonito" d="M-4.61 28.5C  -3.6 28.0 -3.1 27.0 -2.6 26.0 -1.5 25.6 -1.1 24.5 -0.2 23.9 0.6 23.2 1.6 22.7 1.3899999999999997 22.5 2.5 22.5 3.5 22.0 4.3 21.2 5.5 21.2 6.3 20.2 6.39 20.5 6.4 21.7 5.5 22.5 5.1 23.5 4.8 24.5 4.5 25.5 4.39 25.5 3.6 26.2 2.6 26.7 2.3 27.9 1.2 28.3 0.6 29.2 -0.3 29.8 -0.8 30.9 -1.3 31.8 -1.6100000000000003 31.5 -2.2 32.4 -3.4 32.7 -3.5 34.1 -4.6 34.5 -4.61 34.5 Z" transform="rotate(229,-4.61,28.50)" stroke="#ffeeb3" stroke-width="0.2" fill="#ffe174" opacity="0.85"></path><path class="bonito" d="M4.61 34.84C  4.8 33.8 6.0 33.5 6.6 32.7 6.6 31.6 7.1 30.7 8.3 30.4 8.9 29.7 9.2 28.7 9.4 27.7 9.61 27.840000000000003 10.6 27.8 11.6 27.9 12.6 27.8 13.6 27.3 14.6 27.6 15.6 28.2 16.6 27.9 16.61 27.840000000000003 15.8 28.7 15.5 29.7 15.6 30.9 14.6 31.7 14.4 32.8 14.61 32.84 13.6 33.1 13.0 34.0 11.9 33.9 11.1 34.6 10.3 35.1 9.4 35.5 9.61 35.84 Z" transform="rotate(241,4.61,34.84)" stroke="#ffeeb3" stroke-width="0.2" fill="#ffe174" opacity="0.90"></path><path class="bonito" d="M15.58 -6.35C  16.0 -7.4 17.4 -7.6 18.0 -8.5 18.9 -9.0 18.58 -9.35 19.3 -8.6 20.0 -7.9 20.8 -7.2 21.5 -6.4 22.2 -5.7 22.9 -5.0 23.7 -4.3 24.4 -3.5 25.1 -2.8 25.9 -2.1 26.6 -1.3 26.58 -1.3499999999999996 26.0 -0.4 25.2 0.3 24.1 0.7 23.5 1.6 23.58 1.6500000000000004 Z" transform="rotate(189,15.58,-6.35)" stroke="#ffeeb3" stroke-width="0.2" fill="#fde17e" opacity="0.86"></path><rect x="0" y="0" width="7" height="3" transform="translate(8,20) rotate(235) scale(1.2336282444162532) " fill="rgb(158, 237, 115)"></rect><circle cx="0" cy="0" r="2.326302586380367" transform="translate(4,2) scale(1)" fill="none" stroke="rgb(165, 244, 121)" stroke-width="1"></circle><path class="bonito" d="M3.73 17.22C  4.2 16.2 5.2 15.7 6.2 15.2 7.0 14.5 6.73 14.219999999999999 7.7 13.8 8.6 12.9 8.73 13.219999999999999 9.6 13.7 10.3 14.3 10.5 15.4 10.73 15.219999999999999 Z" transform="rotate(11,3.73,17.22)" stroke="#ffeeb3" stroke-width="0.2" fill="#ffe174" opacity="0.75"></path><path class="bonito" d="M-8.91 33.26C  -8.3 32.4 -7.8 31.5 -6.8 31.0 -6.4 30.1 -5.4 29.6 -4.8 28.8 -3.8 28.4 -3.91 28.259999999999998 -3.5 29.2 -2.4 29.4 -1.9 30.3 -1.9100000000000001 30.259999999999998 -2.5 31.1 -3.5 31.5 -4.3 32.2 -5.1 32.8 -5.3 34.0 -6.3 34.4 -6.9 35.3 -6.91 35.26 Z" transform="rotate(66,-8.91,33.26)" stroke="#ffeeb3" stroke-width="0.2" fill="#fde17e" opacity="0.74"></path><path class="bonito" d="M-11.44 24.51C  -10.6 23.8 -9.9 23.0 -8.9 22.6 -8.6 21.3 -7.7 20.8 -7.1 19.9 -6.4 19.1 -5.3 18.6 -5.4399999999999995 18.51 -4.4 18.3 -3.5 17.5 -2.3 17.6 -1.4 17.1 -0.5 16.4 -0.4399999999999995 16.51 -1.0 17.4 -1.3 18.5 -2.1 19.3 -1.6 20.7 -2.6 21.4 -2.4399999999999995 21.51 -3.5 22.0 -3.8 23.2 -5.0 23.5 -5.6 24.3 -6.4 25.1 -6.7 26.2 -7.5 26.9 -8.5 27.5 -8.44 27.51 -8.9 28.6 -10.0 28.9 -11.0 29.5 -11.5 30.5 -11.44 30.51 Z" transform="rotate(123,-11.44,24.51)" stroke="#ffeeb3" stroke-width="0.2" fill="#fde17e" opacity="0.72"></path><path class="bonito" d="M-8.91 -21.28C  -8.0 -21.8 -8.0 -23.0 -7.1 -23.5 -6.8 -24.5 -6.2 -25.2 -5.7 -26.1 -4.8 -26.5 -4.7 -27.7 -4.2 -28.5 -3.91 -28.28 -2.9 -28.4 -1.9 -28.2 -0.9 -28.4 0.1 -28.5 1.1 -28.2 2.1 -28.0 3.1 -28.4 3.09 -28.28 2.3 -27.4 2.6 -26.2 1.9 -25.3 1.1 -24.4 1.1 -23.3 1.0899999999999999 -23.28 0.4 -22.5 -0.5 -22.1 -1.3 -21.5 -2.1 -21.0 -3.3 -21.1 -4.0 -20.4 -3.91 -20.28 Z" transform="rotate(135,-8.91,-21.28)" stroke="#ffeeb3" stroke-width="0.2" fill="#ffedab" opacity="0.85"></path><path class="bonito" d="M8.91 -33.26C  9.3 -34.3 10.7 -34.5 11.2 -35.5 12.2 -36.0 11.91 -36.26 12.6 -35.5 13.4 -34.8 14.1 -34.1 14.8 -33.4 15.5 -32.6 16.3 -31.9 17.0 -31.2 17.7 -30.4 18.5 -29.7 19.2 -29.0 19.9 -28.3 19.91 -28.259999999999998 19.5 -27.2 18.4 -26.8 17.8 -25.9 16.6 -25.6 16.91 -25.259999999999998 Z" transform="rotate(0,8.91,-33.26)" stroke="#ffeeb3" stroke-width="0.2" fill="#ffe174" opacity="0.71"></path><rect x="0" y="0" width="7" height="3" transform="translate(1,-3) rotate(224) scale(1.1483242052146179) " fill="rgb(107, 182, 65)"></rect><circle cx="0" cy="0" r="2.1398612599759366" transform="translate(7,16) scale(1)" fill="none" stroke="rgb(108, 183, 66)" stroke-width="1"></circle><path class="bonito" d="M-2.84 1C  -1.8 0.5 -1.5 -0.7 -0.9 -1.5 0.0 -2.1 0.16000000000000014 -2 1.2 -2.5 2.0 -3.2 2.16 -3 2.6 -2.2 3.8 -2.0 4.1 -0.9 4.16 -1 Z" transform="rotate(333,-2.84,1.00)" stroke="#ffeeb3" stroke-width="0.2" fill="#ffe174" opacity="0.83"></path><path class="bonito" d="M16.4 -13.1C  17.1 -13.8 17.9 -14.4 18.9 -14.9 19.0 -16.2 20.0 -16.6 20.5 -17.6 21.1 -18.4 21.4 -18.1 22.0 -17.4 22.9 -17.0 23.1 -15.8 23.4 -16.1 22.3 -15.7 21.9 -14.7 21.1 -14.1 20.8 -12.9 19.7 -12.6 19.3 -11.7 18.2 -11.3 18.4 -11.100000000000001 Z" transform="rotate(343,16.40,-13.10)" stroke="#ffeeb3" stroke-width="0.2" fill="#f2d56e" opacity="0.78"></path><path class="bonito" d="M-13.93 22.9C  -13.0 22.3 -12.4 21.4 -11.5 20.8 -11.3 19.5 -10.0 19.4 -9.7 18.1 -8.4 18.0 -7.7 17.1 -7.93 16.9 -7.0 16.4 -6.0 15.9 -4.8 15.9 -3.8 15.7 -2.9 14.9 -2.9299999999999997 14.899999999999999 -3.6 15.8 -4.0 16.8 -4.1 17.9 -4.5 18.9 -4.9 19.9 -4.93 19.9 -6.0 20.4 -6.2 21.7 -7.1 22.3 -7.7 23.1 -8.7 23.6 -9.3 24.5 -10.0 25.3 -10.6 26.2 -10.93 25.9 -11.5 26.9 -12.8 27.0 -12.9 28.4 -14.2 28.6 -13.93 28.9 Z" transform="rotate(193,-13.93,22.90)" stroke="#ffeeb3" stroke-width="0.2" fill="#f2d56e" opacity="0.90"></path><path class="bonito" d="M-2.84 -25.31C  -2.7 -26.4 -2.0 -27.1 -1.4 -27.8 -0.3 -28.2 -0.0 -29.2 0.6 -29.9 1.2 -30.6 1.7 -31.5 2.3 -32.2 2.16 -32.31 3.2 -32.3 4.2 -32.5 5.2 -32.6 6.2 -32.4 7.2 -31.9 8.2 -32.2 9.2 -31.9 9.16 -32.31 9.0 -31.2 8.2 -30.4 8.0 -29.3 7.1 -28.5 7.3 -27.2 7.16 -27.310000000000002 6.5 -26.6 5.4 -26.5 4.8 -25.6 3.9 -25.1 3.1 -24.6 2.3 -24.1 2.16 -24.310000000000002 Z" transform="rotate(38,-2.84,-25.31)" stroke="#ffeeb3" stroke-width="0.2" fill="#fde17e" opacity="0.71"></path><path class="bonito" d="M-13.1 -26.11C  -12.2 -26.7 -11.8 -27.8 -11.2 -28.7 -10.0 -29.1 -10.1 -29.11 -9.4 -28.4 -8.6 -27.7 -7.9 -26.9 -7.2 -26.2 -6.5 -25.5 -5.7 -24.7 -5.0 -24.0 -4.3 -23.3 -3.6 -22.6 -2.8 -21.8 -2.1 -21.1 -2.0999999999999996 -21.11 -3.0 -20.5 -3.8 -19.9 -4.1 -18.6 -5.3 -18.3 -5.1 -18.11 Z" transform="rotate(99,-13.10,-26.11)" stroke="#ffeeb3" stroke-width="0.2" fill="#fde17e" opacity="0.82"></path><rect x="0" y="0" width="7" height="3" transform="translate(0,1) rotate(5) scale(1.1616292357376516) " fill="rgb(72, 144, 31)"></rect><circle cx="0" cy="0" r="2.59550395806007" transform="translate(6,32) scale(1)" fill="none" stroke="rgb(122, 198, 80)" stroke-width="1"></circle><path class="bonito" d="M12.27 35.63C  12.9 34.7 13.5 33.8 14.2 33.1 15.2 32.6 15.27 32.63 16.3 32.1 17.2 31.4 17.27 31.630000000000003 18.1 32.1 18.8 32.8 19.4 33.5 19.27 33.63 Z" transform="rotate(75,12.27,35.63)" stroke="#ffeeb3" stroke-width="0.2" fill="#ffedab" opacity="0.87"></path><path class="bonito" d="M1.93 -23.7C  2.3 -24.8 3.2 -25.3 4.1 -25.8 4.7 -26.6 5.6 -27.2 6.2 -28.0 7.0 -28.6 6.93 -28.7 7.6 -28.1 8.1 -27.2 8.9 -26.6 8.93 -26.7 8.5 -25.7 7.2 -25.6 6.8 -24.5 5.9 -24.0 5.6 -22.9 4.9 -22.2 4.0 -21.6 3.9299999999999997 -21.7 Z" transform="rotate(305,1.93,-23.70)" stroke="#ffeeb3" stroke-width="0.2" fill="#f2d56e" opacity="0.76"></path><path class="bonito" d="M13.93 -10.6C  14.3 -11.7 15.2 -12.3 16.0 -13.0 16.8 -13.7 17.4 -14.6 18.6 -14.9 19.1 -15.9 20.2 -16.3 19.93 -16.6 20.9 -17.1 21.9 -17.4 22.9 -17.9 24.0 -17.9 24.8 -18.9 24.93 -18.6 24.3 -17.7 24.4 -16.5 23.3 -15.8 23.5 -14.5 23.3 -13.5 22.93 -13.600000000000001 22.3 -12.7 21.2 -12.3 20.5 -11.5 20.2 -10.4 19.4 -9.6 18.6 -9.0 18.0 -8.0 16.7 -7.8 16.93 -7.600000000000001 16.5 -6.5 15.5 -6.0 15.0 -5.0 13.8 -4.8 13.93 -4.600000000000001 Z" transform="rotate(213,13.93,-10.60)" stroke="#ffeeb3" stroke-width="0.2" fill="#f2d56e" opacity="0.84"></path><path class="bonito" d="M2.84 13.93C  3.6 13.3 4.3 12.7 4.8 11.8 4.7 10.6 5.6 10.0 6.3 9.4 6.9 8.6 7.2 7.7 7.8 6.9 7.84 6.93 8.8 6.9 9.8 7.4 10.8 7.2 11.8 7.1 12.8 6.8 13.8 7.2 14.8 6.7 14.84 6.93 14.2 7.9 14.4 9.1 13.8 10.0 12.8 10.8 12.8 11.9 12.84 11.93 11.8 12.1 11.1 12.9 10.4 13.5 9.6 14.1 8.5 14.1 7.9 14.9 7.84 14.93 Z" transform="rotate(1,2.84,13.93)" stroke="#ffeeb3" stroke-width="0.2" fill="#ffedab" opacity="0.89"></path><path class="bonito" d="M9.76 -11.44C  10.5 -12.2 11.5 -12.7 12.3 -13.4 12.8 -14.4 12.76 -14.44 13.5 -13.7 14.2 -13.0 14.9 -12.3 15.7 -11.5 16.4 -10.8 17.1 -10.1 17.9 -9.3 18.6 -8.6 19.3 -7.9 20.0 -7.2 20.8 -6.4 20.759999999999998 -6.4399999999999995 19.8 -5.9 19.0 -5.2 18.5 -4.2 18.0 -3.2 17.759999999999998 -3.4399999999999995 Z" transform="rotate(201,9.76,-11.44)" stroke="#ffeeb3" stroke-width="0.2" fill="#fde17e" opacity="0.87"></path><rect x="0" y="0" width="7" height="3" transform="translate(16,0) rotate(82) scale(0.991278992380025) " fill="rgb(162, 241, 118)"></rect><circle cx="0" cy="0" r="2.659868904104689" transform="translate(0,1) scale(1)" fill="none" stroke="rgb(163, 242, 119)" stroke-width="1"></circle><path class="bonito" d="M4.61 1.93C  5.3 1.2 6.2 0.5 7.1 -0.1 7.7 -0.9 7.61 -1.07 8.6 -1.5 9.5 -2.4 9.61 -2.0700000000000003 10.4 -1.5 11.1 -0.8 11.4 0.2 11.61 -0.07000000000000028 Z" transform="rotate(80,4.61,1.93)" stroke="#ffeeb3" stroke-width="0.2" fill="#f2d56e" opacity="0.84"></path><path class="bonito" d="M-5.49 -36.41C  -4.6 -37.0 -4.1 -37.9 -3.6 -38.8 -3.0 -39.6 -1.9 -40.0 -1.1 -40.6 -0.2 -41.1 -0.4900000000000002 -41.41 0.1 -40.7 0.9 -40.2 1.2 -39.1 1.5099999999999998 -39.41 0.6 -38.9 0.2 -37.9 -0.6 -37.3 -1.0 -36.2 -1.8 -35.6 -3.0 -35.3 -3.7 -34.7 -3.49 -34.41 Z" transform="rotate(126,-5.49,-36.41)" stroke="#ffeeb3" stroke-width="0.2" fill="#ffedab" opacity="0.73"></path><path class="bonito" d="M3.73 -26.91C  4.5 -27.7 5.5 -28.2 5.8 -29.4 7.0 -29.7 7.3 -30.9 8.3 -31.3 9.3 -31.8 9.6 -33.0 9.73 -32.91 10.6 -33.6 11.9 -33.3 12.6 -34.4 13.8 -34.3 14.8 -34.6 14.73 -34.91 14.0 -34.0 14.3 -32.8 13.6 -31.9 13.5 -30.8 12.4 -30.0 12.73 -29.909999999999997 11.9 -29.3 11.0 -28.6 10.5 -27.6 10.0 -26.6 9.3 -25.9 8.2 -25.5 7.6 -24.6 6.5 -24.1 6.73 -23.909999999999997 5.9 -23.2 5.6 -22.1 4.5 -21.7 3.5 -21.1 3.7300000000000004 -20.909999999999997 Z" transform="rotate(87,3.73,-26.91)" stroke="#ffeeb3" stroke-width="0.2" fill="#f2d56e" opacity="0.75"></path><path class="bonito" d="M-4.61 22.09C  -4.0 21.4 -3.4 20.6 -2.6 20.0 -2.4 19.0 -2.1 18.0 -1.1 17.6 -1.1 16.4 -0.5 15.6 0.1 14.9 0.3899999999999997 15.09 1.4 15.2 2.4 15.1 3.4 15.3 4.4 15.2 5.4 15.4 6.4 14.6 7.4 14.7 7.39 15.09 7.3 16.2 6.5 17.0 6.0 18.0 5.4 19.0 5.5 20.1 5.39 20.09 4.8 20.9 3.8 21.2 3.1 22.0 2.0 21.9 1.0 22.2 0.6 23.4 0.3899999999999997 23.09 Z" transform="rotate(226,-4.61,22.09)" stroke="#ffeeb3" stroke-width="0.2" fill="#f2d56e" opacity="0.85"></path><path class="bonito" d="M16.4 25.31C  17.1 24.5 17.7 23.6 18.6 23.0 19.2 22.1 19.4 22.31 20.1 23.0 20.9 23.8 21.6 24.5 22.3 25.2 23.0 25.9 23.8 26.7 24.5 27.4 25.2 28.1 25.9 28.9 26.7 29.6 27.4 30.3 27.4 30.31 26.7 31.1 26.1 32.0 24.8 32.2 24.2 33.1 24.4 33.31 Z" transform="rotate(356,16.40,25.31)" stroke="#ffeeb3" stroke-width="0.2" fill="#ffedab" opacity="0.85"></path><rect x="0" y="0" width="7" height="2" transform="translate(0,25) rotate(264) scale(0.9024432949567222) " fill="rgb(108, 183, 66)"></rect><circle cx="0" cy="0" r="2.5111671820991956" transform="translate(0,0) scale(1)" fill="none" stroke="rgb(94, 168, 53)" stroke-width="1"></circle><path class="bonito" d="M14.75 1C  15.8 0.5 16.0 -0.8 17.3 -1.0 17.4 -2.4 17.75 -2 18.7 -2.6 19.7 -3.1 19.75 -3 20.3 -2.2 20.8 -1.4 21.4 -0.7 21.75 -1 Z" transform="rotate(317,14.75,1.00)" stroke="#ffeeb3" stroke-width="0.2" fill="#f2d56e" opacity="0.76"></path><path class="bonito" d="M0 -21.28C  0.7 -22.0 1.2 -22.9 2.0 -23.6 2.9 -24.1 3.4 -25.0 4.6 -25.2 5.3 -25.9 5 -26.28 5.3 -25.3 6.4 -25.0 6.7 -24.0 7 -24.28 6.5 -23.3 5.9 -22.6 4.8 -22.2 3.8 -21.7 3.6 -20.5 2.7 -20.0 1.7 -19.6 2 -19.28 Z" transform="rotate(161,0.00,-21.28)" stroke="#ffeeb3" stroke-width="0.2" fill="#f2d56e" opacity="0.73"></path><path class="bonito" d="M-13.93 -8.06C  -12.9 -8.5 -12.6 -9.8 -11.9 -10.5 -11.1 -11.3 -10.2 -11.9 -9.4 -12.6 -8.7 -13.3 -7.9 -14.0 -7.93 -14.06 -6.9 -14.3 -5.9 -14.9 -5.0 -15.5 -3.8 -15.3 -3.0 -16.2 -2.9299999999999997 -16.060000000000002 -3.1 -15.0 -3.9 -14.1 -4.1 -13.0 -4.7 -12.1 -4.5 -10.9 -4.93 -11.060000000000002 -5.7 -10.4 -6.6 -9.7 -7.1 -8.8 -7.9 -8.0 -8.4 -7.0 -9.5 -6.6 -10.5 -6.2 -11.0 -5.1 -10.93 -5.060000000000002 -11.6 -4.2 -12.2 -3.3 -13.3 -2.9 -13.6 -1.8 -13.93 -2.0600000000000023 Z" transform="rotate(93,-13.93,-8.06)" stroke="#ffeeb3" stroke-width="0.2" fill="#ffedab" opacity="0.89"></path><path class="bonito" d="M1 12.27C  1.8 11.7 2.1 10.7 2.9 10.1 3.5 9.3 4.1 8.6 4.5 7.7 4.9 6.8 5.7 6.2 6.3 5.5 6 5.27 7.0 5.1 8.0 5.6 9.0 5.7 10.0 5.4 11.0 4.8 12.0 5.6 13.0 5.6 13 5.27 12.3 6.1 12.1 7.2 11.7 8.2 11.9 9.5 10.6 10.1 11 10.27 10.2 10.9 9.2 11.1 8.7 12.2 7.7 12.3 6.7 12.5 5.8 12.9 6 13.27 Z" transform="rotate(11,1.00,12.27)" stroke="#ffeeb3" stroke-width="0.2" fill="#ffe174" opacity="0.79"></path><path class="bonito" d="M-7.21 -1C  -6.5 -1.8 -5.9 -2.7 -4.8 -3.1 -4.2 -4.0 -4.21 -4 -3.5 -3.3 -2.8 -2.5 -2.0 -1.8 -1.3 -1.1 -0.6 -0.4 0.2 0.4 0.9 1.1 1.6 1.8 2.3 2.5 3.1 3.3 3.8 4.0 3.79 4 3.3 5.1 2.3 5.5 1.9 6.6 0.9 7.2 0.79 7 Z" transform="rotate(41,-7.21,-1.00)" stroke="#ffeeb3" stroke-width="0.2" fill="#fde17e" opacity="0.84"></path><rect x="0" y="0" width="7" height="3" transform="translate(-7,-18) rotate(186) scale(1.0435637156699182) " fill="rgb(40, 110, 0)"></rect><circle cx="0" cy="0" r="2.4787725617605707" transform="translate(-3,0) scale(1)" fill="none" stroke="rgb(61, 133, 21)" stroke-width="1"></circle><path class="bonito" d="M-7.21 -2.84C  -6.5 -3.6 -5.7 -4.3 -4.9 -5.0 -4.0 -5.6 -4.21 -5.84 -3.1 -6.1 -2.2 -6.8 -2.21 -6.84 -1.4 -6.3 -1.2 -5.2 -0.2 -4.9 -0.20999999999999996 -4.84 Z" transform="rotate(3,-7.21,-2.84)" stroke="#ffeeb3" stroke-width="0.2" fill="#ffe174" opacity="0.75"></path><path class="bonito" d="M-15.58 -19.66C  -14.7 -20.2 -14.5 -21.4 -13.3 -21.7 -12.4 -22.2 -12.2 -23.4 -11.6 -24.2 -10.3 -24.4 -10.58 -24.66 -10.0 -24.0 -9.2 -23.4 -8.5 -22.7 -8.58 -22.66 -9.3 -22.0 -9.8 -21.0 -10.5 -20.3 -11.1 -19.5 -12.1 -19.1 -12.7 -18.2 -13.3 -17.4 -13.58 -17.66 Z" transform="rotate(97,-15.58,-19.66)" stroke="#ffeeb3" stroke-width="0.2" fill="#fde17e" opacity="0.81"></path><path class="bonito" d="M1.93 8.06C  2.7 7.3 3.6 6.7 4.1 5.7 5.1 5.2 5.7 4.3 6.4 3.6 7.0 2.7 8.2 2.3 7.93 2.0600000000000005 9.1 2.0 9.8 1.0 11.1 1.2 11.8 0.1 12.8 -0.2 12.93 0.0600000000000005 12.9 1.2 12.5 2.2 11.6 3.0 11.7 4.2 10.7 5.0 10.93 5.0600000000000005 10.4 6.0 9.8 6.9 8.6 7.2 8.0 8.2 7.2 8.9 6.4 9.5 5.8 10.4 4.9 11.1 4.93 11.06 4.4 12.0 3.7 12.8 2.8 13.5 2.3 14.4 1.9299999999999997 14.06 Z" transform="rotate(204,1.93,8.06)" stroke="#ffeeb3" stroke-width="0.2" fill="#ffe174" opacity="0.83"></path><path class="bonito" d="M-13.1 -26.11C  -12.8 -27.0 -12.2 -27.8 -11.7 -28.6 -11.2 -29.4 -10.4 -30.0 -10.0 -30.9 -9.1 -31.5 -9.0 -32.6 -8.4 -33.3 -8.1 -33.11 -7.1 -32.7 -6.1 -33.1 -5.1 -32.7 -4.1 -33.1 -3.1 -33.5 -2.1 -32.9 -1.1 -33.6 -1.0999999999999996 -33.11 -1.7 -32.2 -2.1 -31.2 -2.7 -30.3 -2.3 -28.9 -3.2 -28.1 -3.0999999999999996 -28.11 -4.0 -27.7 -4.6 -26.9 -5.4 -26.2 -6.4 -26.0 -7.4 -25.8 -7.8 -24.7 -8.1 -25.11 Z" transform="rotate(342,-13.10,-26.11)" stroke="#ffeeb3" stroke-width="0.2" fill="#fde17e" opacity="0.73"></path><path class="bonito" d="M3.73 -36.41C  4.7 -36.9 5.5 -37.6 6.2 -38.4 6.6 -39.6 6.73 -39.41 7.5 -38.7 8.2 -38.0 8.9 -37.2 9.6 -36.5 10.4 -35.8 11.1 -35.0 11.8 -34.3 12.5 -33.6 13.3 -32.9 14.0 -32.1 14.7 -31.4 14.73 -31.409999999999997 14.3 -30.4 13.1 -30.0 12.8 -28.9 11.5 -28.6 11.73 -28.409999999999997 Z" transform="rotate(12,3.73,-36.41)" stroke="#ffeeb3" stroke-width="0.2" fill="#f2d56e" opacity="0.75"></path><rect x="0" y="0" width="7" height="2" transform="translate(3,-8) rotate(99) scale(1.0423345153279824) " fill="rgb(52, 123, 11)"></rect><circle cx="0" cy="0" r="2.3178176090990865" transform="translate(4,-5) scale(1)" fill="none" stroke="rgb(95, 169, 54)" stroke-width="1"></circle><path class="bonito" d="M-6.35 -3.73C  -5.8 -4.7 -5.2 -5.6 -4.3 -6.2 -3.4 -6.8 -3.3499999999999996 -6.73 -2.3 -7.1 -1.5 -8.0 -1.3499999999999996 -7.73 -0.4 -7.4 -0.1 -6.3 0.4 -5.5 0.6500000000000004 -5.73 Z" transform="rotate(313,-6.35,-3.73)" stroke="#ffeeb3" stroke-width="0.2" fill="#ffedab" opacity="0.76"></path><path class="bonito" d="M9.76 -7.21C  10.6 -7.8 11.3 -8.5 11.9 -9.4 12.4 -10.3 13.5 -10.6 14.4 -11.2 14.7 -12.3 14.76 -12.21 15.7 -11.8 16.1 -10.8 16.5 -9.9 16.759999999999998 -10.21 15.7 -9.8 15.4 -8.7 14.8 -7.9 13.7 -7.5 13.0 -6.8 12.3 -6.1 12.1 -4.9 11.759999999999998 -5.210000000000001 Z" transform="rotate(345,9.76,-7.21)" stroke="#ffeeb3" stroke-width="0.2" fill="#fde17e" opacity="0.78"></path><path class="bonito" d="M15.58 -6.35C  16.1 -7.4 17.4 -7.5 17.5 -9.0 18.7 -9.2 19.7 -9.8 20.2 -10.8 20.9 -11.6 21.3 -12.6 21.58 -12.35 22.5 -12.9 23.5 -13.3 24.6 -13.5 25.5 -14.2 26.7 -14.1 26.58 -14.35 26.3 -13.3 25.5 -12.5 25.5 -11.3 24.8 -10.4 25.0 -9.2 24.58 -9.35 23.8 -8.6 23.1 -7.8 22.4 -7.1 21.7 -6.2 20.7 -5.8 20.1 -4.8 19.4 -4.0 18.6 -3.4 18.58 -3.3499999999999996 18.1 -2.4 17.2 -1.7 16.1 -1.3 15.9 -0.1 15.579999999999998 -0.34999999999999964 Z" transform="rotate(60,15.58,-6.35)" stroke="#ffeeb3" stroke-width="0.2" fill="#ffedab" opacity="0.71"></path><path class="bonito" d="M-8.06 -33.26C  -7.2 -33.8 -6.6 -34.5 -6.2 -35.4 -5.6 -36.2 -5.3 -37.1 -4.9 -38.0 -4.2 -38.8 -3.3 -39.3 -2.7 -40.0 -3.0600000000000005 -40.26 -2.1 -40.5 -1.1 -40.4 -0.1 -40.1 0.9 -40.2 1.9 -40.7 2.9 -40.3 3.9 -40.1 3.9399999999999995 -40.26 3.2 -39.4 2.7 -38.4 2.4 -37.4 2.6 -36.1 1.9 -35.3 1.9399999999999995 -35.26 1.0 -35.0 0.5 -33.9 -0.3 -33.4 -1.4 -33.2 -2.5 -33.2 -3.3 -32.6 -3.0600000000000005 -32.26 Z" transform="rotate(276,-8.06,-33.26)" stroke="#ffeeb3" stroke-width="0.2" fill="#ffe174" opacity="0.90"></path><path class="bonito" d="M7.21 -22.9C  8.3 -23.3 8.5 -24.7 9.8 -24.8 10.5 -25.6 10.21 -25.9 10.9 -25.2 11.7 -24.4 12.4 -23.7 13.1 -23.0 13.8 -22.3 14.6 -21.5 15.3 -20.8 16.0 -20.1 16.8 -19.4 17.5 -18.6 18.2 -17.9 18.21 -17.9 17.3 -17.3 17.0 -16.1 15.8 -15.8 15.0 -15.1 15.21 -14.899999999999999 Z" transform="rotate(316,7.21,-22.90)" stroke="#ffeeb3" stroke-width="0.2" fill="#f2d56e" opacity="0.76"></path><rect x="0" y="0" width="7" height="2" transform="translate(0,-6) rotate(49) scale(1.1208657658936154) " fill="rgb(161, 240, 117)"></rect><circle cx="0" cy="0" r="3.035658089192171" transform="translate(-16,-3) scale(1)" fill="none" stroke="rgb(68, 140, 27)" stroke-width="1"></circle><path class="bonito" d="M4.61 -30.89C  5.2 -31.8 5.9 -32.6 7.2 -32.8 7.5 -34.0 7.61 -33.89 8.8 -34.0 9.5 -35.1 9.61 -34.89 10.4 -34.4 10.9 -33.5 11.4 -32.7 11.61 -32.89 Z" transform="rotate(258,4.61,-30.89)" stroke="#ffeeb3" stroke-width="0.2" fill="#ffedab" opacity="0.85"></path><path class="bonito" d="M-13.93 24.51C  -13.3 23.7 -12.5 23.0 -11.6 22.5 -11.4 21.3 -10.6 20.7 -9.9 20.0 -9.0 19.5 -8.93 19.51 -8.2 20.1 -7.5 20.7 -6.9 21.5 -6.93 21.51 -7.5 22.4 -8.6 22.7 -9.0 23.7 -10.0 24.1 -10.5 25.0 -11.1 25.9 -11.8 26.6 -11.93 26.51 Z" transform="rotate(269,-13.93,24.51)" stroke="#ffeeb3" stroke-width="0.2" fill="#ffedab" opacity="0.72"></path><path class="bonito" d="M0 -33.26C  0.9 -33.9 1.2 -35.0 2.5 -35.3 3.3 -35.9 3.7 -37.1 4.6 -37.7 5.4 -38.4 5.8 -39.4 6 -39.26 7.1 -39.4 8.1 -39.9 8.9 -40.8 9.8 -41.3 11.0 -41.3 11 -41.26 10.5 -40.3 10.0 -39.3 9.6 -38.3 9.3 -37.3 8.7 -36.4 9 -36.26 8.4 -35.4 7.8 -34.5 6.9 -33.9 5.7 -33.6 5.5 -32.2 4.7 -31.6 3.7 -31.1 3.2 -30.0 3 -30.259999999999998 2.4 -29.3 1.4 -28.9 0.5 -28.3 -0.0 -27.3 0 -27.259999999999998 Z" transform="rotate(140,0.00,-33.26)" stroke="#ffeeb3" stroke-width="0.2" fill="#f2d56e" opacity="0.81"></path><path class="bonito" d="M1.93 -2.84C  2.2 -3.8 3.4 -4.1 3.6 -5.2 4.3 -5.8 4.4 -6.9 5.6 -7.2 5.9 -8.2 6.2 -9.2 6.9 -9.9 6.93 -9.84 7.9 -10.2 8.9 -10.2 9.9 -10.1 10.9 -9.8 11.9 -9.8 12.9 -9.6 13.9 -9.5 13.93 -9.84 13.7 -8.8 12.8 -8.0 12.7 -6.9 12.4 -5.8 12.3 -4.7 11.93 -4.84 11.3 -4.0 10.4 -3.6 9.2 -3.7 8.7 -2.7 7.9 -2.1 7.2 -1.4 6.93 -1.8399999999999999 Z" transform="rotate(334,1.93,-2.84)" stroke="#ffeeb3" stroke-width="0.2" fill="#fde17e" opacity="0.74"></path><path class="bonito" d="M3.73 -2.84C  4.1 -3.9 5.0 -4.6 5.8 -5.3 6.4 -6.2 6.73 -5.84 7.5 -5.1 8.2 -4.4 8.9 -3.7 9.6 -2.9 10.4 -2.2 11.1 -1.5 11.8 -0.7 12.5 -0.0 13.3 0.7 14.0 1.4 14.7 2.2 14.73 2.16 13.8 2.7 13.0 3.4 12.7 4.7 11.6 5.0 11.73 5.16 Z" transform="rotate(142,3.73,-2.84)" stroke="#ffeeb3" stroke-width="0.2" fill="#fde17e" opacity="0.85"></path><rect x="0" y="0" width="7" height="3" transform="translate(11,0) rotate(157) scale(0.9842671171824406) " fill="rgb(99, 173, 57)"></rect><circle cx="0" cy="0" r="2.4705098011624127" transform="translate(15,-2) scale(1)" fill="none" stroke="rgb(62, 133, 21)" stroke-width="1"></circle><path class="bonito" d="M-16.4 7.21C  -15.9 6.2 -14.9 5.7 -14.3 4.8 -13.1 4.5 -13.399999999999999 4.21 -12.6 3.4 -11.3 3.5 -11.399999999999999 3.21 -10.7 3.9 -10.3 4.8 -9.5 5.3 -9.399999999999999 5.21 Z" transform="rotate(296,-16.40,7.21)" stroke="#ffeeb3" stroke-width="0.2" fill="#f2d56e" opacity="0.88"></path><path class="bonito" d="M2.84 -17.22C  3.3 -18.1 4.2 -18.7 4.9 -19.5 5.8 -20.0 6.7 -20.5 6.9 -21.7 7.9 -22.2 7.84 -22.22 8.5 -21.6 9.3 -21.0 10.0 -20.3 9.84 -20.22 8.8 -19.8 8.5 -18.7 7.7 -18.0 6.7 -17.7 6.6 -16.4 5.8 -15.7 4.9 -15.2 4.84 -15.219999999999999 Z" transform="rotate(292,2.84,-17.22)" stroke="#ffeeb3" stroke-width="0.2" fill="#ffe174" opacity="0.79"></path><path class="bonito" d="M-1 -13.93C  -0.5 -14.9 0.7 -15.2 0.9 -16.5 2.1 -16.8 2.5 -17.9 3.7 -18.2 4.2 -19.2 5.3 -19.6 5 -19.93 5.8 -20.7 6.9 -20.9 8.2 -20.7 8.9 -21.9 9.9 -22.1 10 -21.93 9.4 -21.0 8.8 -20.1 8.6 -19.0 8.0 -18.1 8.3 -16.8 8 -16.93 7.3 -16.2 6.8 -15.2 5.4 -15.0 4.9 -14.1 4.1 -13.3 3.7 -12.2 2.6 -11.8 2.2 -10.7 2 -10.93 1.5 -10.0 0.3 -9.7 -0.6 -9.0 -1.2 -8.2 -1 -7.93 Z" transform="rotate(93,-1.00,-13.93)" stroke="#ffeeb3" stroke-width="0.2" fill="#ffe174" opacity="0.79"></path><path class="bonito" d="M-1 20.47C  -0.5 19.7 -0.2 18.7 0.9 18.3 0.8 17.1 2.0 16.8 2.5 15.9 2.8 14.9 3.9 14.5 3.7 13.3 4 13.469999999999999 5.0 13.7 6.0 13.1 7.0 13.1 8.0 13.6 9.0 13.4 10.0 13.1 11.0 13.7 11 13.469999999999999 10.6 14.5 10.3 15.5 9.4 16.3 9.7 17.6 8.7 18.4 9 18.47 8.4 19.3 7.1 19.1 6.7 20.3 5.7 20.5 5.0 21.2 3.9 21.3 4 21.47 Z" transform="rotate(221,-1.00,20.47)" stroke="#ffeeb3" stroke-width="0.2" fill="#ffe174" opacity="0.83"></path><path class="bonito" d="M9.76 28.5C  10.7 27.9 11.1 26.8 11.9 26.1 12.7 25.5 12.76 25.5 13.5 26.2 14.2 27.0 14.9 27.7 15.7 28.4 16.4 29.1 17.1 29.9 17.9 30.6 18.6 31.3 19.3 32.0 20.0 32.8 20.8 33.5 20.759999999999998 33.5 20.3 34.6 19.3 35.0 18.2 35.4 18.1 36.8 17.759999999999998 36.5 Z" transform="rotate(222,9.76,28.50)" stroke="#ffeeb3" stroke-width="0.2" fill="#ffe174" opacity="0.74"></path><rect x="0" y="0" width="7" height="3" transform="translate(0,-12) rotate(226) scale(0.8746810064975546) " fill="rgb(158, 237, 114)"></rect><circle cx="0" cy="0" r="2.9678672805922344" transform="translate(-2,0) scale(1)" fill="none" stroke="rgb(71, 143, 30)" stroke-width="1"></circle><path class="bonito" d="M1.93 -13.93C  2.6 -14.8 3.1 -15.8 4.0 -16.4 4.9 -17.0 4.93 -16.93 5.8 -17.7 6.9 -17.9 6.93 -17.93 7.5 -17.2 7.9 -16.3 8.6 -15.6 8.93 -15.93 Z" transform="rotate(209,1.93,-13.93)" stroke="#ffeeb3" stroke-width="0.2" fill="#ffedab" opacity="0.82"></path><path class="bonito" d="M2.84 -28.5C  3.5 -29.3 4.4 -29.8 5.0 -30.6 5.8 -31.2 6.7 -31.8 7.2 -32.7 7.6 -33.7 7.84 -33.5 8.5 -32.9 9.1 -32.1 10.2 -31.9 9.84 -31.5 9.2 -30.7 8.2 -30.3 7.9 -29.2 6.9 -28.8 6.5 -27.7 5.3 -27.5 4.7 -26.7 4.84 -26.5 Z" transform="rotate(185,2.84,-28.50)" stroke="#ffeeb3" stroke-width="0.2" fill="#f2d56e" opacity="0.78"></path><path class="bonito" d="M9.76 34.05C  10.6 33.4 11.4 32.7 11.8 31.6 12.9 31.2 13.6 30.4 14.6 29.8 15.2 29.0 16.1 28.4 15.76 28.049999999999997 16.8 27.7 17.8 27.3 18.8 26.9 19.9 26.9 20.8 26.1 20.759999999999998 26.049999999999997 20.5 27.1 19.7 27.9 19.4 29.0 19.5 30.2 18.4 30.9 18.759999999999998 31.049999999999997 18.4 32.1 17.2 32.5 16.8 33.6 15.5 33.8 14.7 34.5 14.5 35.8 13.5 36.3 12.6 36.9 12.759999999999998 37.05 11.8 37.6 11.1 38.4 10.6 39.4 9.9 40.2 9.759999999999998 40.05 Z" transform="rotate(135,9.76,34.05)" stroke="#ffeeb3" stroke-width="0.2" fill="#f2d56e" opacity="0.70"></path><path class="bonito" d="M12.27 -22.9C  12.8 -23.7 13.3 -24.5 13.8 -25.4 14.3 -26.2 14.8 -27.0 15.2 -27.9 16.5 -28.1 17.0 -28.9 17.4 -29.8 17.27 -29.9 18.3 -29.9 19.3 -30.0 20.3 -30.2 21.3 -30.1 22.3 -30.1 23.3 -30.1 24.3 -30.0 24.27 -29.9 24.1 -28.8 23.4 -27.9 22.9 -27.0 23.0 -25.7 22.0 -25.0 22.27 -24.9 21.6 -24.1 20.8 -23.6 19.9 -23.2 19.0 -22.8 18.0 -22.5 17.1 -22.2 17.27 -21.9 Z" transform="rotate(183,12.27,-22.90)" stroke="#ffeeb3" stroke-width="0.2" fill="#f2d56e" opacity="0.71"></path><path class="bonito" d="M8.91 9.76C  9.7 9.0 10.4 8.3 11.2 7.5 11.7 6.6 11.91 6.76 12.6 7.5 13.4 8.2 14.1 8.9 14.8 9.7 15.5 10.4 16.3 11.1 17.0 11.9 17.7 12.6 18.5 13.3 19.2 14.0 19.9 14.8 19.91 14.76 19.2 15.6 18.6 16.4 18.0 17.4 17.2 18.1 16.91 17.759999999999998 Z" transform="rotate(131,8.91,9.76)" stroke="#ffeeb3" stroke-width="0.2" fill="#f2d56e" opacity="0.81"></path><rect x="0" y="0" width="7" height="4" transform="translate(0,22) rotate(8) scale(1.1271952462688615) " fill="rgb(106, 181, 64)"></rect><circle cx="0" cy="0" r="2.765506949542611" transform="translate(7,-34) scale(1)" fill="none" stroke="rgb(67, 139, 27)" stroke-width="1"></circle><path class="bonito" d="M11.44 7.21C  12.3 6.6 12.8 5.5 13.4 4.6 14.2 4.0 14.44 4.21 15.7 4.1 16.5 3.4 16.439999999999998 3.21 17.1 3.9 18.0 4.3 18.7 5.0 18.439999999999998 5.21 Z" transform="rotate(139,11.44,7.21)" stroke="#ffeeb3" stroke-width="0.2" fill="#f2d56e" opacity="0.88"></path><path class="bonito" d="M15.58 -13.1C  16.0 -14.1 16.9 -14.7 18.0 -15.0 18.6 -15.7 18.9 -17.0 19.8 -17.5 20.9 -17.8 20.58 -18.1 21.3 -17.4 21.7 -16.6 22.5 -16.0 22.58 -16.1 21.7 -15.5 21.3 -14.5 20.6 -13.8 19.9 -13.1 19.1 -12.4 18.4 -11.7 17.8 -10.9 17.58 -11.100000000000001 Z" transform="rotate(18,15.58,-13.10)" stroke="#ffeeb3" stroke-width="0.2" fill="#f2d56e" opacity="0.70"></path><path class="bonito" d="M-12.27 5.49C  -11.7 4.6 -11.0 3.7 -10.3 3.0 -9.3 2.5 -8.7 1.6 -7.5 1.3 -6.8 0.5 -6.5 -0.7 -6.27 -0.5099999999999998 -5.3 -1.0 -4.3 -1.4 -3.3 -1.8 -2.2 -2.0 -1.2 -2.4 -1.2699999999999996 -2.51 -1.6 -1.5 -1.7 -0.4 -2.6 0.4 -3.2 1.4 -2.9 2.6 -3.2699999999999996 2.49 -4.0 3.3 -5.0 3.7 -5.2 5.1 -6.0 5.7 -7.2 6.1 -7.6 7.1 -8.8 7.5 -9.2 8.6 -9.27 8.49 -10.1 9.2 -10.5 10.3 -11.8 10.5 -12.3 11.4 -12.27 11.49 Z" transform="rotate(84,-12.27,5.49)" stroke="#ffeeb3" stroke-width="0.2" fill="#ffe174" opacity="0.78"></path><path class="bonito" d="M13.1 29.3C  14.0 28.7 14.0 27.6 15.0 27.1 15.5 26.3 16.2 25.7 16.5 24.7 17.3 24.1 17.6 23.1 18.3 22.5 18.1 22.3 19.1 22.7 20.1 22.7 21.1 22.2 22.1 22.6 23.1 22.6 24.1 22.1 25.1 22.4 25.1 22.3 24.4 23.2 24.1 24.2 24.0 25.4 23.3 26.2 23.4 27.4 23.1 27.3 22.4 28.1 21.3 28.1 20.6 28.8 19.7 29.2 18.8 29.6 18.1 30.4 18.1 30.3 Z" transform="rotate(103,13.10,29.30)" stroke="#ffeeb3" stroke-width="0.2" fill="#ffedab" opacity="0.85"></path><path class="bonito" d="M-13.1 -15.58C  -12.6 -16.5 -11.8 -17.3 -11.1 -18.1 -10.3 -18.8 -10.1 -18.58 -9.4 -17.9 -8.6 -17.1 -7.9 -16.4 -7.2 -15.7 -6.5 -14.9 -5.7 -14.2 -5.0 -13.5 -4.3 -12.8 -3.6 -12.0 -2.8 -11.3 -2.1 -10.6 -2.0999999999999996 -10.579999999999998 -2.7 -9.7 -3.9 -9.3 -4.1 -8.1 -5.1 -7.6 -5.1 -7.579999999999998 Z" transform="rotate(345,-13.10,-15.58)" stroke="#ffeeb3" stroke-width="0.2" fill="#f2d56e" opacity="0.82"></path><rect x="0" y="0" width="7" height="3" transform="translate(0,0) rotate(110) scale(0.9328272358757033) " fill="rgb(100, 174, 58)"></rect><circle cx="0" cy="0" r="3.911837303017997" transform="translate(-16,-4) scale(1)" fill="none" stroke="rgb(110, 185, 68)" stroke-width="1"></circle><path class="bonito" d="M16.4 34.05C  17.4 33.5 17.9 32.6 18.9 32.1 19.2 30.8 19.4 31.049999999999997 20.3 30.4 21.5 30.2 21.4 30.049999999999997 21.7 31.1 22.9 31.2 23.7 31.7 23.4 32.05 Z" transform="rotate(57,16.40,34.05)" stroke="#ffeeb3" stroke-width="0.2" fill="#fde17e" opacity="0.78"></path><path class="bonito" d="M-16.4 -12.27C  -15.6 -12.9 -14.7 -13.4 -14.3 -14.5 -13.7 -15.3 -12.7 -15.7 -11.8 -16.2 -11.6 -17.4 -11.399999999999999 -17.27 -11.1 -16.3 -10.4 -15.6 -9.7 -15.0 -9.399999999999999 -15.27 -10.3 -14.7 -10.5 -13.5 -11.7 -13.3 -12.4 -12.5 -13.0 -11.7 -14.0 -11.3 -14.6 -10.5 -14.399999999999999 -10.27 Z" transform="rotate(332,-16.40,-12.27)" stroke="#ffeeb3" stroke-width="0.2" fill="#ffedab" opacity="0.87"></path><path class="bonito" d="M-10.6 -4.61C  -10.2 -5.7 -9.0 -6.0 -8.1 -6.7 -7.9 -7.9 -6.9 -8.4 -5.8 -8.8 -5.1 -9.6 -4.9 -10.9 -4.6 -10.61 -3.5 -10.9 -2.6 -11.4 -1.7 -12.0 -0.6 -12.1 0.3 -12.9 0.40000000000000036 -12.61 -0.1 -11.6 -0.7 -10.7 -0.5 -9.5 -1.6 -8.8 -1.2 -7.5 -1.5999999999999996 -7.609999999999999 -2.3 -6.9 -3.0 -6.0 -3.6 -5.1 -4.6 -4.6 -5.6 -4.1 -5.9 -2.9 -6.6 -2.2 -7.4 -1.4 -7.6 -1.6099999999999994 -8.1 -0.6 -8.9 0.1 -9.9 0.5 -10.6 1.4 -10.6 1.3900000000000006 Z" transform="rotate(123,-10.60,-4.61)" stroke="#ffeeb3" stroke-width="0.2" fill="#f2d56e" opacity="0.72"></path><path class="bonito" d="M-10.6 -14.75C  -9.9 -15.4 -9.4 -16.3 -9.3 -17.4 -8.2 -17.7 -7.4 -18.4 -7.0 -19.2 -7.0 -20.4 -6.5 -21.2 -5.6 -21.8 -5.6 -21.75 -4.6 -22.2 -3.6 -21.9 -2.6 -21.5 -1.6 -21.4 -0.6 -21.5 0.4 -21.6 1.4 -21.4 1.4000000000000004 -21.75 1.4 -20.6 0.5 -19.8 0.1 -18.8 -0.1 -17.7 -0.4 -16.7 -0.5999999999999996 -16.75 -1.6 -16.5 -2.4 -16.0 -3.3 -15.7 -4.0 -14.8 -5.0 -14.6 -5.8 -14.1 -5.6 -13.75 Z" transform="rotate(54,-10.60,-14.75)" stroke="#ffeeb3" stroke-width="0.2" fill="#fde17e" opacity="0.86"></path><path class="bonito" d="M3.73 -26.11C  4.5 -26.9 5.0 -27.9 5.7 -28.6 6.9 -28.9 6.73 -29.11 7.5 -28.4 8.2 -27.7 8.9 -26.9 9.6 -26.2 10.4 -25.5 11.1 -24.7 11.8 -24.0 12.5 -23.3 13.3 -22.6 14.0 -21.8 14.7 -21.1 14.73 -21.11 13.7 -20.7 12.9 -19.9 12.8 -18.5 11.7 -18.1 11.73 -18.11 Z" transform="rotate(282,3.73,-26.11)" stroke="#ffeeb3" stroke-width="0.2" fill="#ffe174" opacity="0.84"></path><rect x="0" y="0" width="7" height="3" transform="translate(12,0) rotate(5) scale(1.0443525068594144) " fill="rgb(57, 128, 16)"></rect><circle cx="0" cy="0" r="3.0460065089341457" transform="translate(0,0) scale(1)" fill="none" stroke="rgb(106, 181, 64)" stroke-width="1"></circle><path class="bonito" d="M-13.93 17.22C  -13.3 16.4 -12.2 15.9 -11.5 15.2 -11.1 14.0 -10.93 14.219999999999999 -10.1 13.3 -8.9 13.3 -8.93 13.219999999999999 -8.3 13.9 -7.6 14.5 -6.6 14.9 -6.93 15.219999999999999 Z" transform="rotate(332,-13.93,17.22)" stroke="#ffeeb3" stroke-width="0.2" fill="#ffedab" opacity="0.89"></path><path class="bonito" d="M2.84 -18.85C  3.5 -19.7 4.2 -20.4 4.6 -21.3 5.8 -21.6 6.6 -22.3 7.3 -22.9 8.1 -23.6 7.84 -23.85 8.4 -23.1 9.4 -22.7 9.7 -21.7 9.84 -21.85 9.0 -21.2 8.6 -20.3 7.9 -19.5 7.0 -19.0 6.1 -18.5 5.5 -17.7 4.6 -17.1 4.84 -16.85 Z" transform="rotate(179,2.84,-18.85)" stroke="#ffeeb3" stroke-width="0.2" fill="#ffe174" opacity="0.83"></path><path class="bonito" d="M14.75 17.22C  15.3 16.3 16.1 15.5 17.1 15.1 17.7 14.2 18.7 13.6 19.2 12.7 20.1 12.1 20.9 11.3 20.75 11.219999999999999 21.9 11.2 22.8 10.5 23.6 9.6 24.8 9.7 25.6 8.9 25.75 9.219999999999999 25.4 10.2 25.0 11.2 25.0 12.4 23.8 13.1 23.9 14.3 23.75 14.219999999999999 23.0 14.9 22.5 15.9 21.6 16.5 21.0 17.5 20.3 18.3 19.1 18.6 18.4 19.4 17.7 20.2 17.75 20.22 17.3 21.3 16.3 21.8 15.9 22.8 14.5 23.0 14.75 23.22 Z" transform="rotate(340,14.75,17.22)" stroke="#ffeeb3" stroke-width="0.2" fill="#ffedab" opacity="0.77"></path><path class="bonito" d="M-14.75 -2.84C  -13.9 -3.4 -13.4 -4.2 -13.4 -5.4 -12.6 -6.0 -11.9 -6.7 -11.3 -7.4 -11.2 -8.5 -10.0 -8.8 -9.9 -10.0 -9.75 -9.84 -8.8 -10.1 -7.8 -9.5 -6.8 -10.2 -5.8 -9.6 -4.8 -10.1 -3.8 -9.4 -2.8 -9.7 -2.75 -9.84 -3.5 -9.0 -3.6 -7.9 -3.6 -6.7 -4.4 -5.9 -4.4 -4.7 -4.75 -4.84 -5.4 -4.1 -6.3 -3.6 -7.4 -3.7 -7.8 -2.4 -8.9 -2.3 -9.9 -2.1 -9.75 -1.8399999999999999 Z" transform="rotate(145,-14.75,-2.84)" stroke="#ffeeb3" stroke-width="0.2" fill="#f2d56e" opacity="0.75"></path><path class="bonito" d="M0 -3.73C  0.9 -4.4 1.4 -5.3 2.3 -5.9 3.0 -6.8 3 -6.73 3.7 -6.0 4.5 -5.3 5.2 -4.5 5.9 -3.8 6.6 -3.1 7.4 -2.4 8.1 -1.6 8.8 -0.9 9.5 -0.2 10.3 0.5 11.0 1.3 11 1.2699999999999996 10.1 1.8 9.8 3.0 8.4 3.2 8.1 4.4 8 4.27 Z" transform="rotate(119,0.00,-3.73)" stroke="#ffeeb3" stroke-width="0.2" fill="#f2d56e" opacity="0.87"></path><rect x="0" y="0" width="7" height="3" transform="translate(-5,-15) rotate(20) scale(0.8534872518841454) " fill="rgb(47, 118, 7)"></rect><circle cx="0" cy="0" r="2.6514535940515325" transform="translate(17,-9) scale(1)" fill="none" stroke="rgb(91, 165, 50)" stroke-width="1"></circle></g></g></g></svg>
