<svg version="1.1" baseProfile="full" xmlns="http://www.w3.org/2000/svg" width="300" height="300" style="background: gray">
<!-- made by Harry Li github.com/harryli0088 -->
<g transform="translate(150,150)"><circle cx="0" cy="0" r="150" fill="#eee"></circle><circle cx="0" cy="0" r="100" fill="none" stroke="#ddd" stroke-width="2"></circle><g transform="rotate(45) scale(1.5)"><g transform="translate(-27,-36)"><g><path fill="white" d="M0 0C  1.0 -0.3 2.0 -0.6 3.0 -0.1 4.0 -0.4 5.0 -0.2 6.0 -0.9 7.0 -0.2 8.0 -0.9 9.0 -0.5 10.0 -0.9 11.0 -0.4 12.0 -0.2 13.0 0.1 14.0 -0.3 15.0 -0.3 15 0 16.0 -0.3 16.9 0.5 17.8 0.7 18.7 1.0 19.7 1.1 20.5 1.8 21.3 2.4 21.9 3.1 22.7 3.7 23.3 4.5 23.6 5.4 24.1 6.2 24.6 7.1 24.6 8.1 24.6 9.1 25.0 10.0 25 10 24.8 11.0 25.6 12.0 25.4 13.0 25.3 14.0 25.3 15.0 25.4 16.0 25.3 17.0 25.3 18.0 25.6 19.0 25.7 20.0 25.2 21.0 25.6 22.0 25.5 23.0 25.2 24.0 25.3 25.0 25 25 24.6 26.0 24.6 26.9 24.4 27.9 24.6 29.0 23.7 29.6 23.3 30.5 22.8 31.4 21.8 31.9 21.2 32.6 20.5 33.3 19.6 33.6 18.9 34.5 17.8 34.3 17.0 35.1 16.0 34.9 15.0 35.3 15 35 14.0 35.1 13.0 35.5 12.0 35.1 11.0 35.3 10.0 35.6 9.0 35.7 8.0 35.7 7.0 35.4 6.0 35.3 5.0 35.3 4.0 35.8 3.0 35.5 2.0 35.1 1.0 35.0 0.0 34.7 0 35 -1.0 34.6 -2.0 35.1 -2.9 34.7 -3.9 34.4 -4.6 33.6 -5.8 33.6 -6.2 32.5 -7.2 32.2 -7.8 31.4 -8.6 30.8 -8.7 29.7 -9.0 28.7 -9.3 27.8 -10.1 27.0 -9.6 25.9 -9.8 25.0 -10 25 -10.5 24.1 -9.9 23.0 -10.0 22.0 -10.2 21.0 -10.7 20.0 -10.5 19.0 -10.2 18.0 -10.9 17.0 -10.4 16.0 -10.4 15.0 -10.4 14.0 -10.6 13.0 -10.3 12.0 -10.4 11.0 -10.0 10.0 -10 10 -10.1 9.0 -9.8 8.0 -9.3 7.1 -9.2 6.2 -8.9 5.2 -8.2 4.5 -7.9 3.5 -7.2 2.8 -6.6 1.9 -5.4 1.9 -4.6 1.3 -3.9 0.5 -2.8 0.7 -2.0 -0.1 -0.9 0.3 -0.0 -0.4 1.0 0.2 1 0 Z" stroke="#003503" stroke-width="1.5"></path><path fill="green" d="M3 9C  3.8 8.5 4.9 8.6 5.7 8.1 6.7 8.3 7.7 8.1 8.6 8.3 9.6 8.2 10.5 8.6 11.4 9.0 12.2 9.5 13.0 10.1 13 10 12.9 11.0 13 11 12.0 11.2 11.2 11.7 10.3 11.9 9.3 12.0 8.3 11.8 7.4 11.6 6.5 11.6 5.5 11.5 4.7 10.9 3.7 10.7 3.0 10.0 3 10 2.0 10.1 2 10 Z" opacity="0.4"></path><path fill="#FF6868" d="M0 10C  1.0 9.9 2.0 9.6 3.0 9.3 4.0 9.1 5.0 9.1 6.1 9.4 7.1 9.3 8.1 9.6 9.1 9.6 10.1 9.5 11.1 10.0 12.1 10.0 13.0 10.5 14.1 10.4 15.0 11.1 15 11 15.2 12.0 15.2 13.0 15.6 14.0 15.7 15.0 15.5 16.0 15.8 17.1 15.4 18.1 15.7 19.1 15.5 20.1 15.2 21.1 15.3 22.1 15.2 23.1 14.6 24.1 14.2 25.0 14.1 26.1 14 26 13.0 26.2 12.0 26.3 11.0 26.4 10.0 26.2 9.0 26.2 8.0 25.9 7.0 26.2 6.0 26.0 4.9 26.1 4.0 25.9 3.0 25.6 1.9 25.7 1.0 25.5 -0.0 25.3 -1.0 25.0 -1 25 -1.2 24.0 -1.3 23.0 -1.4 22.0 -1.8 21.0 -1.6 20.0 -1.9 19.0 -1.5 17.9 -1.8 16.9 -1.7 15.9 -1.3 14.9 -1.0 13.9 -0.7 13.0 -0.8 11.9 -0.3 11.0 -0.2 9.9 0 10 Z"></path></g><g transform="translate(38,0)"><path fill="white" d="M0 0C  1.0 -0.2 1.9 -0.6 3.0 -0.5 4.0 -0.6 5.0 -0.9 6.0 -1.1 7.0 -1.1 8.0 -1.0 9.0 -1.1 10.0 -0.9 11.0 -0.7 12.0 -0.7 13.0 -0.5 14.0 -0.2 15.0 0.2 15 0 16.0 0.1 17.0 -0.0 18.0 0.2 18.7 1.0 19.7 1.2 20.5 1.8 21.5 2.1 22.0 3.0 22.9 3.5 23.1 4.6 23.7 5.3 24.0 6.3 24.9 7.0 24.8 8.1 25.2 9.0 25.4 10.0 25 10 25.3 11.0 25.3 12.0 25.4 13.0 25.4 14.0 25.4 15.0 25.4 16.0 25.5 17.0 25.5 18.0 25.6 19.0 25.3 20.0 25.3 21.0 25.1 22.0 25.1 23.0 25.1 24.0 25 24 25.2 25.0 25.2 26.0 24.9 27.0 24.3 27.8 23.9 28.8 23.2 29.5 22.5 30.2 22.3 31.3 21.4 31.8 20.6 32.3 19.6 32.7 18.7 33.0 18.0 33.8 16.9 33.6 16.0 34.3 15.0 34.3 15 34 14.0 33.9 13.0 34.2 12.1 34.8 11.1 34.8 10.0 34.8 9.0 35.0 8.0 34.8 7.0 34.7 6.0 35.0 5.0 35.5 4.0 35.2 3.0 35.4 2.0 34.7 1.0 34.8 1 35 0.0 34.8 -0.9 34.7 -1.8 34.3 -2.7 34.0 -3.6 33.5 -4.7 33.6 -5.1 32.4 -6.1 32.1 -7.0 31.6 -7.5 30.7 -7.8 29.7 -8.0 28.7 -8.7 27.9 -8.9 27.0 -8.7 25.9 -8.9 25.0 -9 25 -9.5 24.1 -9.0 23.0 -9.7 22.1 -9.2 21.0 -9.6 20.0 -9.8 19.0 -10.1 18.0 -10.2 17.0 -10.1 16.0 -9.7 15.0 -9.9 14.0 -9.9 13.0 -9.9 12.0 -9.9 11.0 -9.8 10.0 -10 10 -9.8 9.0 -9.5 8.1 -9.7 7.0 -9.1 6.2 -8.9 5.2 -8.4 4.3 -7.7 3.6 -7.4 2.6 -6.5 2.0 -5.6 1.5 -4.7 1.1 -3.7 0.8 -2.9 0.3 -2.0 -0.3 -1.0 -0.5 0.0 -0.5 1.0 -0.5 2.0 0.1 2 0 Z" stroke="#003503" stroke-width="1.5"></path><path fill="green" d="M3 8C  3.8 7.5 4.9 7.6 5.7 7.0 6.7 7.2 7.7 7.0 8.6 7.2 9.6 7.2 10.4 7.8 11.3 8.1 12.3 8.3 13.1 8.9 13 9 12.8 10.0 13 10 12.0 10.0 11.0 10.1 10.0 9.9 9.0 9.9 8.0 10.0 7.0 10.2 6.0 10.1 5.0 10.1 4.0 9.9 3.0 10.0 2.0 10.2 1.0 10.0 1 10 -0.1 9.1 0 9 Z" opacity="0.3"></path><path fill="#FF6868" d="M0 10C  0.9 9.5 1.8 9.1 2.9 9.1 3.9 8.8 4.9 8.4 5.9 8.2 6.9 8.3 7.9 8.2 8.9 8.0 10.0 8.1 11.0 8.3 12.0 8.1 13.0 8.6 14.0 8.6 15.0 8.6 16.0 9.1 16 9 16.0 10.0 16.4 11.0 16.6 12.0 16.5 13.1 16.4 14.1 16.4 15.1 16.5 16.2 16.4 17.2 16.0 18.2 15.9 19.2 15.8 20.2 15.3 21.1 15.4 22.2 14.7 23.1 14.5 24.1 13.8 24.9 14 25 13.0 25.1 12.0 25.2 11.0 25.5 10.0 25.4 9.0 25.6 8.0 25.2 7.0 25.6 6.0 25.3 5.0 25.2 4.0 25.6 3.0 25.4 2.0 25.5 1.0 25.0 -0.0 25.1 0 25 0.1 24.0 -0.1 23.0 -0.3 22.0 -0.4 21.0 -0.4 20.0 -0.3 19.0 -0.5 18.0 -0.4 17.0 -0.3 16.0 -0.7 15.0 -0.2 14.0 -0.2 13.0 -0.1 12.0 0.1 11.0 -0.2 10.0 0 10 Z"></path></g><g transform="translate(0,38)"><path fill="white" d="M0 0C  1.0 0.0 1.9 -0.6 3.0 -0.5 4.0 -0.7 5.0 -0.2 6.0 -0.5 7.0 -0.9 8.0 -0.8 9.0 -0.5 10.0 -0.6 11.0 -0.8 12.0 -0.4 13.0 -0.1 14.0 -0.2 15.0 -0.1 15 0 16.0 -0.3 17.0 0.0 17.9 0.3 18.8 0.9 19.6 1.5 20.6 1.6 21.2 2.5 21.9 3.2 22.6 3.7 23.4 4.4 23.5 5.4 24.1 6.2 24.5 7.1 25.0 8.0 25.2 9.0 25.2 10.0 25 10 24.8 11.0 25.3 12.0 25.7 13.0 25.8 14.0 25.3 15.0 25.7 16.0 25.3 17.0 25.9 18.0 25.3 19.0 25.8 20.0 25.1 21.0 25.2 22.0 25.5 23.0 25.4 24.0 24.9 25.0 25 25 25.1 26.0 24.7 26.9 24.8 28.0 24.4 28.9 23.8 29.7 23.4 30.6 22.7 31.3 21.9 31.9 21.6 33.0 20.7 33.6 19.7 33.8 18.7 33.9 17.8 34.2 17.0 35.1 16.0 34.9 15.0 34.7 15 35 14.0 34.9 13.0 34.9 12.0 35.6 11.0 35.8 10.0 35.3 9.0 35.3 8.0 35.2 7.0 35.7 6.0 35.1 5.0 35.6 4.0 35.8 3.0 35.5 2.0 35.5 1.0 35.4 0.0 34.9 0 35 -1.0 35.1 -2.0 34.9 -2.9 34.8 -3.7 34.0 -4.8 34.1 -5.5 33.2 -6.3 32.6 -6.9 31.9 -7.9 31.5 -8.4 30.6 -9.2 29.9 -9.1 28.8 -9.8 28.0 -9.7 26.9 -10.2 26.0 -10.3 25.0 -10 25 -10.4 24.0 -10.6 23.1 -10.4 22.0 -10.5 21.0 -10.6 20.0 -10.6 19.0 -10.7 18.0 -10.6 17.0 -10.4 16.0 -10.3 15.0 -10.5 14.0 -10.2 13.0 -10.1 12.0 -10.0 11.0 -10.0 10.0 -10 10 -10.1 9.0 -9.8 8.0 -9.6 7.1 -9.5 6.1 -8.5 5.4 -8.0 4.6 -8.0 3.4 -7.0 3.0 -6.3 2.3 -5.5 1.8 -4.9 0.9 -4.0 0.4 -2.9 0.5 -1.9 0.4 -1.0 -0.1 0.0 -0.3 1.0 0.3 1 0 Z" stroke="#003503" stroke-width="1.5"></path><path fill="green" d="M5 9C  5.8 8.4 6.8 8.4 7.7 8.1 8.7 8.5 9.6 8.4 10.4 9.1 11.2 9.4 12.1 9.9 12 10 12.0 11.0 12 11 11.0 11.4 10.0 11.3 8.9 11.2 7.9 11.3 6.9 11.3 5.9 10.9 4.9 10.4 4.0 9.9 4 10 3.0 10.0 3 10 Z" opacity="0.4"></path><path fill="#FF6868" d="M-1 11C  -0.0 10.7 0.9 10.3 2.0 10.3 2.9 9.7 3.9 9.6 4.9 9.5 5.9 9.1 6.9 9.5 7.9 9.2 9.0 9.2 10.0 9.6 11.0 9.4 12.0 9.6 13.0 9.7 14.0 9.9 14 10 14.5 10.9 14.7 11.9 14.9 12.9 15.1 13.9 15.3 14.9 15.6 15.9 15.8 16.9 15.7 17.9 15.8 18.9 15.6 20.0 15.5 21.0 15.7 22.0 15.6 23.0 15.2 24.0 15.1 25.0 15 25 14.0 25.2 13.0 25.5 12.1 25.9 11.1 26.0 10.1 26.4 9.1 26.6 8.1 26.4 7.1 26.4 6.0 26.5 5.0 26.8 4.0 26.7 3.0 26.4 2.0 26.3 1.0 26.4 0.0 25.9 0 26 -0.2 25.0 -0.6 24.1 -0.8 23.1 -0.9 22.1 -0.9 21.0 -1.3 20.1 -1.4 19.1 -1.2 18.0 -1.5 17.0 -1.2 16.0 -1.4 15.0 -1.3 14.0 -1.3 13.0 -1.3 12.0 -0.8 11.0 -1 11 Z"></path></g><g transform="translate(38,38)"><path fill="white" d="M0 0C  1.0 -0.2 1.9 -0.6 3.0 -0.6 4.0 -0.3 5.0 -0.4 6.0 -0.5 7.0 -0.5 8.0 -0.7 9.0 -0.8 10.0 -0.2 11.0 -0.1 12.0 -0.3 13.0 0.1 14.1 -0.5 15.0 -0.2 15 0 16.0 0.2 16.9 0.2 17.9 0.5 18.9 0.6 19.7 1.3 20.5 1.8 21.4 2.2 21.9 3.1 22.9 3.5 23.6 4.2 23.5 5.5 23.9 6.3 24.9 7.0 24.8 8.1 24.6 9.1 25.3 10.0 25 10 24.9 11.0 25.2 12.0 25.4 13.0 25.3 14.0 25.7 15.0 25.4 16.0 25.6 17.0 25.2 18.0 25.2 19.0 25.2 20.0 25.7 21.0 25.0 22.0 25.5 23.0 25.4 24.0 25.3 25.0 25 25 24.6 26.0 25.1 27.0 24.9 28.0 24.0 28.8 24.0 29.8 23.5 30.6 22.7 31.3 21.9 31.9 21.3 32.7 20.4 33.2 19.6 33.6 18.7 34.0 18.0 34.9 17.0 34.8 16.0 35.0 15.0 34.6 15 35 14.0 35.3 13.0 35.1 12.0 35.7 11.0 35.2 10.0 35.7 9.0 35.6 8.0 35.9 7.0 35.6 6.0 35.4 5.0 35.8 4.0 35.1 3.0 35.2 2.0 35.1 1.0 35.4 0.0 34.8 0 35 -1.0 35.0 -1.9 34.5 -2.9 34.4 -3.7 34.0 -4.7 33.8 -5.6 33.4 -6.6 33.0 -6.9 31.9 -8.0 31.6 -8.6 30.8 -8.6 29.6 -9.2 28.8 -9.4 27.8 -9.7 26.9 -9.9 26.0 -10.4 25.0 -10 25 -10.2 24.0 -10.6 23.0 -10.4 22.0 -10.6 21.0 -10.4 20.0 -10.7 19.0 -10.8 18.0 -10.7 17.0 -10.6 16.0 -10.4 15.0 -10.5 14.0 -10.0 13.0 -10.6 12.0 -9.9 11.0 -10.1 10.0 -10 10 -10.0 9.0 -9.8 8.0 -9.8 7.0 -9.3 6.2 -8.6 5.4 -8.1 4.5 -7.4 3.9 -7.1 2.9 -6.2 2.4 -5.4 1.8 -4.7 1.1 -3.8 0.9 -2.9 0.4 -1.9 0.5 -0.9 0.3 0.0 0.1 1.0 -0.2 1 0 Z" stroke="#003503" stroke-width="1.5"></path><path fill="green" d="M3 9C  3.9 8.7 4.8 8.4 5.8 8.4 6.7 8.1 7.7 8.0 8.6 8.4 9.5 8.6 10.4 8.7 11.4 8.9 12.1 9.6 12.9 10.2 13 10 12.9 11.0 13 11 12.0 11.1 11.2 11.6 10.2 11.6 9.3 11.8 8.3 11.9 7.4 12.0 6.5 11.4 5.6 11.2 4.6 11.1 3.7 10.6 3.0 10.0 3 10 2.0 9.9 2 10 Z" opacity="0.5"></path><path fill="#FF6868" d="M0 10C  1.0 9.7 2.0 9.5 3.0 9.4 3.9 8.9 5.0 9.1 6.0 9.1 7.0 9.0 8.0 8.8 9.0 9.1 10.0 9.0 11.0 9.1 12.0 9.5 13.1 9.3 14.0 9.8 15.0 10.1 15 10 15.1 11.0 15.4 12.0 15.3 13.0 15.6 14.0 15.3 15.0 15.5 16.0 15.7 17.0 15.5 18.0 15.6 19.0 15.5 20.0 15.7 21.0 15.3 22.0 15.0 23.0 14.9 24.0 15.0 25.0 15 25 14.0 25.3 13.0 25.2 12.0 25.3 11.0 25.6 10.0 25.4 9.0 25.6 8.0 25.7 7.0 25.5 6.0 25.4 5.0 25.5 4.0 25.3 3.0 25.4 2.0 25.1 1.0 25.3 -0.0 25.1 0 25 -0.5 24.1 -0.6 23.1 -0.6 22.0 -1.1 21.1 -0.9 20.0 -1.0 19.0 -1.1 18.0 -0.9 17.0 -1.2 16.0 -1.0 15.0 -0.9 14.0 -0.7 13.0 -0.5 12.0 -0.1 11.0 0.1 10.0 0 10 Z"></path></g></g></g></g></svg>
