<svg version="1.1" baseProfile="full" xmlns="http://www.w3.org/2000/svg" width="300" height="300" style="background: gray">
<!-- made by Harry Li github.com/harryli0088 -->
<g transform="translate(150,150)"><circle cx="0" cy="0" r="150" fill="#eee"></circle><circle cx="0" cy="0" r="100" fill="none" stroke="#ddd" stroke-width="2"></circle><g transform="scale(1.4) translate(-55,-53)"><g transform="translate(0,-10)"><path fill="#FF4242" d="M0 0C  3.0 -0.1 6.1 -0.2 9.1 -0.1 12.1 0.0 15.1 0.2 18.2 0.6 21.2 1.0 24.2 1.5 27.1 2.1 30.1 2.8 33.0 3.5 35.9 4.4 38.8 5.3 41.7 6.4 44.5 7.5 47.3 8.7 50.0 10.0 50 10 50.1 13.0 50.3 16.1 50.4 19.1 50.5 22.1 50.6 25.1 50.7 28.2 50.8 31.2 50.9 34.2 51.0 37.3 51.1 40.3 51.1 43.3 51.2 46.4 51.2 49.4 51.2 52.4 51.2 55.5 51.2 58.5 51.2 61.5 51.2 64.5 51.2 67.6 51.2 70.6 51.2 73.6 51.1 76.7 51.1 79.7 51.0 82.7 50.9 85.8 50.8 88.8 50.7 91.8 50.6 94.9 50.5 97.9 50.4 100.9 50.3 103.9 50.1 107.0 50.0 110.0 50 110 47.0 110.1 43.9 110.2 40.9 110.1 37.9 110.0 34.9 109.8 31.8 109.4 28.8 109.0 25.8 108.5 22.9 107.9 19.9 107.2 17.0 106.5 14.1 105.6 11.2 104.7 8.3 103.6 5.5 102.5 2.7 101.3 -0.0 100.0 0 100 -0.1 97.0 -0.3 93.9 -0.4 90.9 -0.5 87.9 -0.6 84.9 -0.7 81.8 -0.8 78.8 -0.9 75.8 -1.0 72.7 -1.1 69.7 -1.1 66.7 -1.2 63.6 -1.2 60.6 -1.2 57.6 -1.2 54.5 -1.2 51.5 -1.2 48.5 -1.2 45.5 -1.2 42.4 -1.2 39.4 -1.2 36.4 -1.1 33.3 -1.1 30.3 -1.0 27.3 -0.9 24.2 -0.8 21.2 -0.7 18.2 -0.6 15.1 -0.5 12.1 -0.4 9.1 -0.3 6.1 -0.1 3.0 -0.0 0.0 0 0 Z"></path><path fill="none" d="M-1 20C  2.0 20.2 5.0 20.5 7.9 20.9 10.9 21.3 13.9 21.7 16.8 22.2 19.7 22.8 22.7 23.5 25.6 24.2 28.5 24.9 31.4 25.7 34.2 26.6 37.1 27.5 39.9 28.5 42.7 29.5 45.5 30.6 48.3 31.8 51.0 33.0 51 33 " opacity="0.4" stroke="white" stroke-width="2"></path><path fill="none" d="M-1 40C  2.0 40.4 4.9 40.9 7.8 41.4 10.8 41.9 13.7 42.5 16.6 43.1 19.5 43.7 22.5 44.4 25.3 45.1 28.2 45.8 31.1 46.6 34.0 47.4 36.9 48.3 39.7 49.1 42.5 50.1 45.4 51.0 48.2 52.0 51.0 53.0 51 53 " opacity="0.4" stroke="white" stroke-width="2"></path><path fill="none" d="M-1 63C  1.8 64.0 4.6 65.0 7.5 65.9 10.3 66.9 13.1 67.7 16.0 68.6 18.9 69.4 21.8 70.2 24.7 70.9 27.5 71.6 30.5 72.3 33.4 72.9 36.3 73.5 39.2 74.1 42.2 74.6 45.1 75.1 48.0 75.6 51.0 76.0 51 76 " opacity="0.4" stroke="white" stroke-width="2"></path><path fill="none" d="M-1 85C  1.7 86.2 4.5 87.4 7.3 88.5 10.1 89.5 12.9 90.5 15.8 91.4 18.6 92.3 21.5 93.1 24.4 93.8 27.3 94.5 30.3 95.2 33.2 95.8 36.1 96.3 39.1 96.7 42.1 97.1 45.0 97.5 48.0 97.8 51.0 98.0 51 98 " opacity="0.4" stroke="white" stroke-width="2"></path></g><g transform="translate(60,10)"><path fill="#FF4242" d="M0 0C  3.1 -0.2 6.1 -0.3 9.2 -0.3 12.3 -0.2 15.3 -0.1 18.4 0.2 21.5 0.6 24.5 1.0 27.5 1.6 30.5 2.2 33.5 3.0 36.5 3.8 39.4 4.7 42.3 5.7 45.2 6.8 48.0 8.0 48 8 48.2 11.0 48.5 14.0 48.7 17.0 48.9 20.0 49.1 23.0 49.3 26.0 49.5 29.0 49.6 32.0 49.8 35.0 49.9 38.0 50.1 41.0 50.2 44.0 50.3 47.0 50.4 50.0 50.5 53.0 50.6 56.0 50.6 59.0 50.7 62.0 50.7 65.0 50.8 68.0 50.8 71.0 50.8 74.0 50.8 77.0 50.8 80.0 50.7 83.0 50.7 86.0 50.7 89.0 50.6 92.0 50.5 95.0 50.4 98.0 50.3 101.0 50.2 104.0 50.1 107.0 50.0 110.0 50 110 47.0 110.4 44.0 110.8 41.0 111.0 37.9 111.1 34.9 111.0 31.9 110.9 28.9 110.7 25.8 110.3 22.9 109.8 19.9 109.2 16.9 108.5 14.0 107.7 11.1 106.8 8.3 105.7 5.5 104.6 2.7 103.4 -0.0 102.0 0 102 -0.1 99.0 -0.3 96.0 -0.4 93.0 -0.5 90.0 -0.7 87.0 -0.8 84.0 -0.9 81.0 -0.9 78.0 -1.0 75.0 -1.1 72.0 -1.1 69.0 -1.2 66.0 -1.2 63.0 -1.3 60.0 -1.3 57.0 -1.3 54.0 -1.3 51.0 -1.3 48.0 -1.3 45.0 -1.3 42.0 -1.2 39.0 -1.2 36.0 -1.1 33.0 -1.1 30.0 -1.0 27.0 -0.9 24.0 -0.9 21.0 -0.8 18.0 -0.7 15.0 -0.5 12.0 -0.4 9.0 -0.3 6.0 -0.1 3.0 -0.0 0.0 0 0 Z"></path><path fill="none" d="M-1 17C  2.0 17.2 5.0 17.5 7.9 17.9 10.9 18.3 13.9 18.7 16.8 19.2 19.7 19.8 22.7 20.5 25.6 21.2 28.5 21.9 31.4 22.7 34.2 23.6 37.1 24.5 39.9 25.5 42.7 26.5 45.5 27.6 48.3 28.8 51.0 30.0 51 30 " opacity="0.4" stroke="white" stroke-width="2"></path><path fill="none" d="M-1 40C  2.0 40.4 4.9 40.9 7.8 41.4 10.8 41.9 13.7 42.5 16.6 43.1 19.5 43.7 22.5 44.4 25.3 45.1 28.2 45.8 31.1 46.6 34.0 47.4 36.9 48.3 39.7 49.1 42.5 50.1 45.4 51.0 48.2 52.0 51.0 53.0 51 53 " opacity="0.4" stroke="white" stroke-width="2"></path><path fill="none" d="M-1 60C  1.8 61.1 4.6 62.1 7.4 63.1 10.3 64.1 13.1 65.0 16.0 65.9 18.9 66.8 21.7 67.6 24.6 68.4 27.5 69.2 30.4 69.9 33.3 70.6 36.3 71.2 39.2 71.9 42.1 72.5 45.1 73.0 48.0 73.5 51.0 74.0 51 74 " opacity="0.4" stroke="white" stroke-width="2"></path><path fill="none" d="M-1 80C  1.7 81.3 4.5 82.5 7.3 83.6 10.1 84.7 12.9 85.8 15.7 86.7 18.6 87.7 21.5 88.5 24.4 89.4 27.3 90.1 30.2 90.8 33.1 91.4 36.1 92.0 39.1 92.5 42.0 93.0 45.0 93.4 48.0 93.7 51.0 94.0 51 94 " opacity="0.4" stroke="white" stroke-width="2"></path></g></g></g></svg>
