<svg version="1.1" baseProfile="full" xmlns="http://www.w3.org/2000/svg" width="300" height="300" style="background: gray">
<!-- made by Harry Li github.com/harryli0088 -->
<g transform="translate(150,150)"><circle cx="0" cy="0" r="150" fill="#eee"></circle><circle cx="0" cy="0" r="100" fill="none" stroke="#ddd" stroke-width="2"></circle><g transform="rotate(45) scale(1.5)"><g transform="translate(-27,-36)"><g><path fill="white" d="M0 0C  1.0 -0.3 2.0 -0.4 3.0 -0.1 4.0 -0.5 5.0 -0.9 6.0 -0.6 7.0 -0.5 8.0 -0.6 9.0 -0.6 10.0 -0.4 11.0 -0.2 12.0 -0.6 13.0 -0.6 14.0 -0.1 15.1 -0.4 15 0 16.0 -0.3 16.9 0.3 17.9 0.5 18.9 0.5 19.9 0.9 20.7 1.4 21.3 2.3 22.2 2.7 22.6 3.8 23.2 4.5 23.6 5.4 24.2 6.2 24.9 7.0 24.8 8.0 25.3 9.0 25.1 10.0 25 10 25.5 10.9 25.5 12.0 25.3 13.0 25.1 14.0 25.8 15.0 25.7 16.0 25.8 17.0 25.4 18.0 25.5 19.0 25.5 20.0 25.8 21.0 25.5 22.0 25.5 23.0 25.4 24.0 24.8 25.0 25 25 25.1 26.0 24.8 27.0 24.5 27.9 24.4 28.9 23.5 29.5 23.5 30.7 23.0 31.5 22.0 32.0 21.5 33.0 20.5 33.3 19.6 33.5 19.0 34.5 18.0 34.8 16.9 34.7 16.0 35.0 15.0 35.4 15 35 14.0 35.1 13.1 35.6 12.0 35.2 11.0 35.8 10.0 35.5 9.0 35.7 8.0 35.5 7.0 35.4 6.0 35.7 5.0 35.8 4.0 35.1 3.0 35.6 2.0 35.1 1.0 35.4 -0.0 35.3 0 35 -1.0 35.0 -2.0 35.2 -2.9 34.4 -3.9 34.5 -4.6 33.5 -5.6 33.4 -6.5 32.9 -7.3 32.3 -7.7 31.3 -8.6 30.8 -8.8 29.7 -9.1 28.8 -9.2 27.8 -9.5 26.9 -10.3 26.0 -9.7 25.0 -10 25 -10.4 24.0 -10.0 23.0 -10.2 22.0 -10.5 21.0 -10.7 20.0 -10.7 19.0 -10.4 18.0 -10.7 17.0 -10.3 16.0 -10.1 15.0 -10.6 14.0 -10.7 13.0 -10.6 12.0 -10.2 11.0 -10.3 10.0 -10 10 -10.1 9.0 -9.7 8.1 -9.9 7.0 -9.4 6.1 -9.0 5.2 -8.1 4.5 -7.5 3.8 -6.9 3.1 -6.5 2.1 -5.7 1.5 -4.8 0.9 -4.0 0.4 -3.0 0.1 -2.0 -0.0 -0.9 0.3 0.0 -0.0 1.0 0.1 1 0 Z" stroke="#003503" stroke-width="1.5"></path><path fill="green" d="M3 9C  3.9 8.7 4.7 8.1 5.7 8.2 6.7 8.3 7.7 8.4 8.6 8.0 9.6 8.3 10.5 8.7 11.4 8.8 12.1 9.7 13.1 9.9 13 10 12.9 11.0 13 11 12.1 11.4 11.2 11.7 10.2 11.8 9.3 11.9 8.3 11.8 7.4 12.0 6.4 11.7 5.5 11.6 4.6 11.1 3.8 10.5 3.0 10.0 3 10 2.0 10.1 2 10 Z" opacity="0.4"></path><path fill="#FFA0A0" d="M0 10C  1.0 9.8 2.0 9.8 3.0 9.5 4.0 9.6 5.0 9.2 6.0 9.1 7.1 9.5 8.1 9.2 9.1 9.5 10.1 9.9 11.1 9.7 12.0 10.3 13.1 10.4 14.1 10.4 15.0 11.0 15 11 15.1 12.0 15.6 13.0 15.4 14.0 15.4 15.0 15.7 16.0 15.6 17.1 15.6 18.1 15.7 19.1 15.5 20.1 15.4 21.1 15.3 22.1 15.1 23.1 14.6 24.1 14.3 25.0 13.8 25.9 14 26 13.0 26.1 12.0 26.0 11.0 25.9 10.0 26.0 9.0 26.3 8.0 26.1 7.0 25.9 6.0 25.8 5.0 25.8 3.9 26.0 2.9 25.9 1.9 25.7 0.9 25.6 0.0 25.1 -1.0 24.9 -1 25 -1.4 24.0 -1.4 23.0 -1.4 22.0 -1.8 21.0 -1.5 20.0 -1.8 19.0 -1.6 17.9 -1.5 16.9 -1.4 15.9 -1.1 14.9 -1.2 13.9 -0.8 12.9 -0.7 11.9 -0.3 11.0 -0.1 10.0 0 10 Z"></path></g><g transform="translate(38,0)"><path fill="white" d="M0 0C  1.0 -0.3 2.0 -0.4 3.0 -0.7 4.0 -0.6 5.0 -1.0 6.0 -0.8 7.0 -1.1 8.0 -1.0 9.0 -1.1 10.0 -1.0 11.0 -0.9 12.0 -0.6 13.1 -0.6 14.0 -0.2 15.0 -0.1 15 0 16.0 0.3 17.0 0.1 17.8 0.8 18.9 0.5 19.8 1.0 20.7 1.4 21.4 2.2 22.1 2.9 22.6 3.8 23.4 4.3 24.0 5.2 24.6 6.0 24.7 7.0 25.2 8.0 25.1 9.0 24.9 10.0 25 10 25.1 11.0 25.2 12.0 25.2 13.0 25.4 14.0 25.5 15.0 25.3 16.0 25.4 17.0 25.5 18.0 25.4 19.0 25.6 20.0 25.4 21.0 25.3 22.0 25.0 23.0 25.0 24.0 25 24 25.0 25.0 24.5 25.9 24.2 26.8 24.5 27.9 24.2 28.9 23.3 29.5 22.6 30.2 22.2 31.2 21.4 31.8 20.8 32.6 19.7 32.8 18.8 33.2 17.8 33.3 17.0 34.1 16.0 34.3 15.0 34.3 15 34 14.1 34.5 13.1 34.7 12.0 34.4 11.1 35.0 10.0 34.7 9.0 34.7 8.0 35.0 7.0 35.1 6.0 35.3 5.0 35.0 4.0 34.9 3.0 35.0 2.0 34.9 1.0 35.4 1 35 0.0 34.7 -1.0 34.8 -1.8 34.3 -2.8 34.3 -3.7 33.7 -4.7 33.5 -5.6 33.0 -6.2 32.2 -7.0 31.6 -7.2 30.5 -8.1 29.9 -7.9 28.7 -8.4 27.8 -8.7 26.9 -9.0 26.0 -9.2 25.0 -9 25 -9.1 24.0 -9.1 23.0 -9.4 22.0 -9.5 21.0 -9.3 20.0 -9.8 19.0 -10.1 18.0 -10.0 17.0 -9.9 16.0 -9.9 15.0 -10.0 14.0 -9.9 13.0 -9.8 12.0 -10.1 11.0 -10.2 10.0 -10 10 -9.8 9.0 -9.9 8.0 -9.4 7.1 -9.0 6.2 -9.2 5.1 -8.6 4.2 -7.6 3.7 -6.9 3.0 -6.5 2.1 -5.6 1.5 -4.8 0.9 -3.7 0.9 -3.1 -0.1 -1.9 0.3 -1.0 -0.3 0.0 -0.3 1.0 -0.5 2.0 0.2 2 0 Z" stroke="#003503" stroke-width="1.5"></path><path fill="green" d="M3 8C  3.9 7.7 4.9 7.6 5.7 7.2 6.7 7.3 7.7 7.3 8.6 7.4 9.6 7.4 10.5 7.7 11.4 7.8 12.3 8.4 12.9 9.1 13 9 13.0 10.0 13 10 12.0 10.2 11.0 10.1 10.0 9.8 9.0 9.9 8.0 10.1 7.0 9.8 6.0 10.0 5.0 10.2 4.0 10.1 3.0 9.8 2.0 10.1 1.0 10.2 1 10 0.1 8.9 0 9 Z" opacity="0.3"></path><path fill="#FFA0A0" d="M0 10C  1.0 9.8 2.0 9.5 2.9 9.0 3.9 8.9 4.9 8.6 5.9 8.2 6.9 8.4 7.9 8.1 8.9 8.3 10.0 7.9 11.0 8.1 12.0 8.2 13.0 8.4 14.0 8.5 15.0 8.9 16.0 9.1 16 9 16.3 10.0 16.4 11.0 16.6 12.0 16.7 13.1 16.4 14.1 16.5 15.1 16.4 16.1 16.6 17.2 16.2 18.2 16.0 19.2 15.5 20.1 15.3 21.1 15.2 22.2 14.6 23.1 14.3 24.0 13.9 25.0 14 25 13.0 24.9 12.0 25.1 11.0 25.3 10.0 25.2 9.0 25.5 8.0 25.4 7.0 25.3 6.0 25.5 5.0 25.4 4.0 25.3 3.0 25.1 2.0 25.3 1.0 25.2 0.0 25.0 0 25 -0.2 24.0 -0.2 23.0 -0.5 22.0 -0.2 21.0 -0.4 20.0 -0.6 19.0 -0.6 18.0 -0.4 17.0 -0.4 16.0 -0.7 15.0 -0.4 14.0 -0.4 13.0 -0.2 12.0 0.0 11.0 -0.1 10.0 0 10 Z"></path></g><g transform="translate(0,38)"><path fill="white" d="M0 0C  1.0 -0.2 2.0 -0.2 3.0 -0.5 4.0 -0.1 5.0 -0.3 6.0 -0.5 7.0 -0.2 8.0 -0.6 9.0 -0.3 10.0 -0.2 11.0 -0.3 12.0 -0.4 13.0 -0.4 14.0 -0.1 15.1 -0.4 15 0 16.0 -0.2 17.0 -0.1 17.9 0.3 18.7 1.0 19.6 1.3 20.6 1.6 21.4 2.2 22.2 2.8 22.5 3.9 23.5 4.3 24.0 5.2 24.2 6.2 24.8 7.0 24.7 8.1 25.0 9.0 24.8 10.0 25 10 25.1 11.0 24.9 12.0 25.5 13.0 25.2 14.0 25.8 15.0 25.2 16.0 25.7 17.0 25.5 18.0 25.7 19.0 25.4 20.0 25.3 21.0 25.8 22.0 24.9 23.0 25.2 24.0 24.8 25.0 25 25 25.1 26.0 24.5 26.9 24.2 27.8 24.4 28.9 23.9 29.8 23.5 30.7 22.9 31.4 22.0 32.0 21.2 32.6 20.4 33.1 19.7 33.8 18.8 34.2 17.8 34.3 16.9 34.7 16.0 34.8 15.0 35.1 15 35 14.0 35.2 13.0 35.1 12.0 35.1 11.0 35.8 10.0 35.8 9.0 35.5 8.0 35.7 7.0 35.2 6.0 35.5 5.0 35.6 4.0 35.7 3.0 35.5 2.0 35.4 1.0 34.8 0.0 35.0 0 35 -1.0 34.6 -2.0 35.2 -3.0 34.9 -3.9 34.5 -4.9 34.2 -5.7 33.5 -6.5 32.9 -7.2 32.2 -7.6 31.2 -8.3 30.5 -8.5 29.5 -9.5 28.9 -9.4 27.9 -9.5 26.9 -10.3 26.0 -9.9 25.0 -10 25 -10.3 24.0 -9.9 23.0 -10.5 22.0 -10.8 21.0 -10.4 20.0 -10.3 19.0 -11.0 18.0 -10.7 17.0 -10.5 16.0 -10.4 15.0 -10.7 14.0 -10.2 13.0 -10.3 12.0 -9.9 11.0 -10.1 10.0 -10 10 -9.8 9.0 -9.7 8.1 -9.6 7.1 -9.5 6.1 -8.5 5.4 -8.4 4.4 -7.9 3.5 -6.9 3.1 -6.5 2.1 -5.4 1.8 -4.6 1.3 -3.9 0.5 -2.9 0.5 -1.9 0.5 -1.0 -0.0 0.0 -0.4 1.0 0.3 1 0 Z" stroke="#003503" stroke-width="1.5"></path><path fill="green" d="M5 9C  5.9 8.6 6.8 8.5 7.7 8.3 8.7 8.4 9.6 8.4 10.5 8.7 11.2 9.6 12.0 9.9 12 10 11.8 11.0 12 11 10.9 11.1 9.9 11.2 8.9 11.5 7.9 11.2 6.9 11.2 5.9 10.7 4.9 10.6 4.0 10.1 4 10 3.0 10.2 3 10 Z" opacity="0.4"></path><path fill="#FFA0A0" d="M-1 11C  0.0 10.8 1.0 10.5 1.9 10.1 2.9 9.8 3.9 9.5 4.9 9.7 5.9 9.5 6.9 9.5 8.0 9.4 9.0 9.3 10.0 9.6 11.0 9.3 12.0 9.4 13.0 9.8 14.0 9.9 14 10 14.4 10.9 14.8 11.9 15.0 12.9 15.4 13.9 15.3 14.9 15.4 15.9 15.4 16.9 15.7 17.9 15.9 18.9 15.7 20.0 15.7 21.0 15.3 22.0 15.5 23.0 15.4 24.0 14.8 25.0 15 25 14.1 25.5 13.1 25.8 12.1 26.0 11.1 26.0 10.1 26.3 9.1 26.3 8.1 26.9 7.1 26.9 6.1 26.7 5.0 26.5 4.0 26.8 3.0 26.4 2.0 26.5 1.0 26.2 -0.0 26.1 0 26 -0.2 25.0 -0.7 24.1 -0.6 23.0 -0.7 22.0 -1.1 21.1 -1.2 20.1 -1.4 19.1 -1.2 18.0 -1.0 17.0 -1.2 16.0 -1.1 15.0 -1.0 14.0 -1.4 13.0 -1.3 12.0 -1.2 11.0 -1 11 Z"></path></g><g transform="translate(38,38)"><path fill="white" d="M0 0C  1.0 -0.2 2.0 0.1 3.0 0.0 4.0 -0.5 5.0 -0.2 6.0 -0.6 7.0 -0.8 8.0 -0.8 9.0 -0.5 10.0 -0.5 11.0 -0.3 12.0 -0.1 13.0 -0.3 14.0 -0.0 15.0 -0.3 15 0 16.0 0.4 17.0 0.1 17.8 0.8 18.9 0.5 19.9 0.9 20.8 1.3 21.2 2.4 22.3 2.7 22.6 3.8 23.5 4.3 23.6 5.4 24.0 6.3 24.3 7.2 25.0 8.0 25.0 9.0 25.1 10.0 25 10 25.4 11.0 25.6 12.0 25.5 13.0 25.6 14.0 25.9 15.0 25.9 16.0 25.9 17.0 25.8 18.0 25.9 19.0 25.5 20.0 25.7 21.0 25.1 22.0 25.5 23.0 24.8 24.0 24.9 25.0 25 25 24.8 26.0 25.0 27.0 24.3 27.8 24.1 28.8 23.9 29.8 23.5 30.7 22.7 31.3 22.0 32.0 21.3 32.6 20.5 33.3 19.6 33.7 18.9 34.4 17.8 34.3 17.0 35.0 16.0 34.9 15.0 35.4 15 35 14.0 35.3 13.0 35.1 12.0 35.1 11.0 35.7 10.0 35.5 9.0 35.2 8.0 35.2 7.0 35.5 6.0 35.4 5.0 35.4 4.0 35.0 3.0 35.1 2.0 35.1 1.0 35.5 -0.0 35.3 0 35 -1.0 34.7 -1.9 34.6 -2.9 34.4 -3.9 34.5 -4.8 33.9 -5.4 33.0 -6.4 32.8 -6.8 31.8 -7.9 31.5 -8.2 30.4 -9.0 29.8 -9.2 28.8 -9.5 27.9 -9.5 26.9 -10.0 26.0 -10.2 25.0 -10 25 -10.5 24.1 -10.0 23.0 -10.2 22.0 -10.5 21.0 -10.7 20.0 -10.8 19.0 -10.5 18.0 -10.7 17.0 -10.7 16.0 -10.7 15.0 -10.2 14.0 -10.0 13.0 -10.5 12.0 -9.9 11.0 -9.6 10.1 -10 10 -10.2 9.0 -10.0 8.0 -9.7 7.1 -9.1 6.2 -8.8 5.3 -8.5 4.3 -8.0 3.4 -7.3 2.7 -6.6 2.0 -5.6 1.6 -4.8 1.0 -4.0 0.4 -3.0 0.2 -1.9 0.2 -0.9 0.2 0.0 0.0 1.0 -0.3 1 0 Z" stroke="#003503" stroke-width="1.5"></path><path fill="green" d="M3 9C  3.9 8.7 4.8 8.3 5.8 8.4 6.7 7.9 7.7 8.2 8.6 8.0 9.6 8.2 10.5 8.6 11.4 9.0 12.1 9.7 13.0 10.0 13 10 12.9 11.0 13 11 12.2 11.5 11.2 11.6 10.3 11.8 9.3 11.9 8.3 12.1 7.4 11.7 6.5 11.6 5.5 11.3 4.7 10.9 3.8 10.5 3.0 10.0 3 10 2.0 10.0 2 10 Z" opacity="0.5"></path><path fill="#FFA0A0" d="M0 10C  0.9 9.5 2.0 9.6 3.0 9.4 4.0 9.3 4.9 8.8 6.0 9.0 7.0 8.6 8.0 8.8 9.0 9.0 10.1 8.8 11.0 9.1 12.1 9.1 13.0 9.6 14.0 9.8 15.0 9.9 15 10 15.1 11.0 15.2 12.0 15.6 13.0 15.3 14.0 15.4 15.0 15.8 16.0 15.7 17.0 15.6 18.0 15.6 19.0 15.4 20.0 15.4 21.0 15.5 22.0 15.1 23.0 15.2 24.0 15.1 25.0 15 25 14.0 25.2 13.0 25.0 12.0 25.2 11.0 25.7 10.0 25.5 9.0 25.3 8.0 25.6 7.0 25.6 6.0 25.7 5.0 25.5 4.0 25.4 3.0 25.6 2.0 25.2 1.0 25.1 -0.0 25.0 0 25 -0.3 24.0 -0.7 23.1 -0.7 22.0 -0.9 21.0 -1.1 20.0 -1.2 19.0 -1.3 18.0 -1.4 17.0 -1.3 16.0 -1.0 15.0 -0.9 14.0 -0.6 13.0 -0.4 12.0 -0.2 11.0 0.2 10.0 0 10 Z"></path></g></g></g></g></svg>
