<svg version="1.1" baseProfile="full" xmlns="http://www.w3.org/2000/svg" width="300" height="300" style="background: gray">
<!-- made by Harry Li github.com/harryli0088 -->
<g transform="translate(150,150)"><circle cx="0" cy="0" r="150" fill="#eee"></circle><circle cx="0" cy="0" r="100" fill="none" stroke="#ddd" stroke-width="2"></circle><g transform="translate(-55,-53)"><g transform="scale(1.2)"><path fill="gray" d="M0 91C  2.0 88.7 4.1 86.4 6.2 84.2 8.3 82.0 10.4 79.8 12.6 77.7 14.8 75.6 17.1 73.5 19.4 71.5 21.7 69.5 24.0 67.6 26.4 65.6 28.8 63.7 31.2 61.9 33.7 60.1 36.2 58.3 38.7 56.6 41.2 54.9 43.8 53.2 46.4 51.6 49.0 50.0 49 50 50.0 51.0 50 51 49.7 53.8 48.0 56.0 48 56 46.0 58.2 44.0 60.4 42.0 62.5 40.0 64.6 37.9 66.7 35.8 68.7 33.6 70.7 31.4 72.7 29.2 74.6 27.0 76.5 24.7 78.4 22.4 80.2 20.0 82.0 17.7 83.7 15.3 85.5 12.9 87.1 10.5 88.8 8.0 90.4 5.5 92.0 3.0 93.5 3 93.5 0.7 92.8 -0.0 90.5 0 90.5 Z"></path><path fill="#FFD980" d="M0 90C  1.6 87.5 3.3 85.1 5.1 82.7 7.0 80.4 8.9 78.2 10.9 76.0 12.9 73.8 15.0 71.7 17.2 69.7 19.4 67.8 21.7 65.9 24.1 64.1 26.4 62.3 28.9 60.7 31.4 59.1 33.9 57.5 36.5 56.1 39.1 54.7 41.8 53.4 44.5 52.2 47.2 51.1 50.0 50.0 50 50 49.0 52.5 48.0 55.0 48 55 46.0 57.2 44.0 59.4 42.0 61.5 39.9 63.6 37.8 65.7 35.7 67.8 33.6 69.8 31.4 71.8 29.2 73.7 26.9 75.7 24.6 77.6 22.3 79.4 20.0 81.2 17.7 83.0 15.3 84.8 12.9 86.5 10.4 88.2 8.0 89.8 5.5 91.4 3.0 93.0 3 93 1.0 91.4 -0.0 89.0 0 89 Z"></path><path fill="gray" d="M22 80C  22.8 79.5 23.6 78.9 24.3 78.2 25.0 77.4 25.5 76.6 26.0 75.8 26.4 74.9 26.7 73.9 26.9 73.0 27.1 72.0 27.1 71.0 27.0 70.0 27 70 27.9 70.6 28.8 71.1 29.8 71.4 30.9 71.6 31.9 71.6 33.0 71.5 33 71.5 Z" opacity="0.7"></path><path fill="#8B3300" d="M0 10C  1.4 7.4 2.8 4.7 4.4 2.2 6.0 -0.3 7.6 -2.8 9.4 -5.2 11.2 -7.6 13.1 -9.9 15.1 -12.1 17.1 -14.3 19.2 -16.4 21.3 -18.5 23.6 -20.5 25.8 -22.4 28.2 -24.3 30.5 -26.1 33.0 -27.8 35.5 -29.4 38.0 -31.0 38 -31 39.0 -30.0 39 -30 39.5 -27.1 40.0 -24.1 40.5 -21.2 41.0 -18.2 41.5 -15.3 42.0 -12.3 42.5 -9.3 42.9 -6.4 43.4 -3.4 43.8 -0.5 44.3 2.5 44.7 5.4 45.1 8.4 45.5 11.4 45.9 14.3 46.3 17.3 46.7 20.3 47.1 23.2 47.4 26.2 47.8 29.2 48.1 32.1 48.5 35.1 48.8 38.1 49.1 41.1 49.4 44.0 49.7 47.0 50.0 50.0 50 50 47.2 51.1 44.3 52.3 41.6 53.7 38.8 55.0 36.1 56.5 33.5 58.1 30.9 59.7 28.4 61.4 25.9 63.2 23.4 65.1 21.1 67.0 18.8 69.0 16.5 71.1 14.3 73.2 12.2 75.5 10.2 77.7 8.2 80.1 6.3 82.5 4.4 84.9 2.7 87.4 1.0 90.0 1 90 0.0 90.0 0 90 -0.1 87.0 -0.2 84.1 -0.3 81.1 -0.4 78.2 -0.5 75.2 -0.6 72.2 -0.6 69.3 -0.7 66.3 -0.7 63.3 -0.7 60.4 -0.8 57.4 -0.8 54.4 -0.8 51.5 -0.8 48.5 -0.8 45.6 -0.8 42.6 -0.7 39.6 -0.7 36.7 -0.7 33.7 -0.6 30.7 -0.6 27.8 -0.5 24.8 -0.4 21.8 -0.3 18.9 -0.2 15.9 -0.1 13.0 0.0 10.0 0 10 Z"></path><path fill="none" d="M20 -15C  20.5 -14.0 20.0 -13.0 20.0 -12.0 20.5 -11.0 20.5 -10.0 20.6 -9.0 20.7 -8.0 20.8 -7.0 20.7 -6.0 21.2 -5.0 21.1 -4.0 20.8 -3.0 21.2 -2.0 21.1 -1.0 21.4 -0.0 21.2 1.0 21.9 1.9 22.0 2.9 21.8 4.0 22.0 4.9 22.4 5.9 21.7 7.0 21.7 8.0 21.7 9.0 22.0 10.0 22.7 10.9 22.1 12.0 22.5 13.0 22.2 14.0 23.0 14.9 22.6 16.0 23.1 16.9 22.7 18.0 23.4 18.9 23.4 19.9 22.9 21.0 23.2 21.9 23.3 22.9 23.0 24.0 23.6 24.9 23.1 26.0 23.7 26.9 23.4 28.0 23.9 28.9 23.3 30.0 23.6 31.0 23.9 31.9 24.3 32.9 23.4 34.0 24.3 34.9 23.9 36.0 24.0 37.0 24.3 37.9 23.9 39.0 24.4 40.0 23.9 41.0 24.6 41.9 24.1 43.0 24.8 43.9 23.9 45.0 24.9 46.0 24.5 47.0 24.8 48.0 24.3 49.0 24.7 50.0 24.3 51.0 25.0 52.0 24.7 53.0 24.8 54.0 24.6 55.0 25.3 56.0 24.9 57.0 25.3 58.0 24.8 59.0 25.1 60.0 24.8 61.0 24.7 62.0 24.8 63.0 25 63 24.6 62.0 24.8 61.0 25.3 60.0 24.5 59.0 25.0 58.0 24.5 57.0 25.3 56.0 25.0 55.0 24.4 54.0 24.7 53.0 24.4 52.0 24.5 51.0 24.6 50.0 24.6 49.0 24.0 48.0 24.9 47.0 24.7 46.0 24.5 45.0 23.9 44.0 24.2 43.0 23.9 42.0 24.3 41.0 24.0 40.0 24.5 38.9 24.4 37.9 24.0 37.0 23.8 36.0 23.8 35.0 24.3 33.9 23.7 33.0 24.2 31.9 23.3 31.0 23.7 29.9 24.0 28.9 23.7 27.9 23.9 26.9 23.5 25.9 23.7 24.9 22.9 24.0 23.0 23.0 23.1 22.0 23.5 20.9 22.6 20.0 22.5 19.0 22.8 18.0 22.9 16.9 22.3 16.0 22.3 15.0 22.5 14.0 22.8 12.9 22.5 11.9 22.3 11.0 21.9 10.0 22.6 8.9 21.7 8.0 21.8 7.0 22.0 6.0 21.5 5.0 21.5 4.0 21.5 3.0 21.3 2.0 22.0 0.9 21.3 -0.0 20.9 -1.0 21.5 -2.0 20.7 -3.0 21.0 -4.0 21.0 -5.0 21.3 -6.1 20.4 -7.0 21.0 -8.1 20.3 -9.0 20.8 -10.0 20.3 -11.0 20.7 -12.0 20.7 -13.1 19.8 -14.0 20.3 -15.0 20 -15 " stroke="#541E00" stroke-width="1"></path><path fill="#000D05" d="M0 25C  0.9 24.6 1.8 24.2 2.7 23.7 3.6 23.3 4.5 23.0 5.4 22.6 6.3 22.2 7.3 21.8 8.2 21.5 9.1 21.1 10.0 20.8 11.0 20.5 11.9 20.1 12.8 19.8 13.8 19.5 14.7 19.2 15.7 19.0 16.6 18.7 17.6 18.4 18.6 18.2 19.5 17.9 20.5 17.7 21.4 17.5 22.4 17.3 23.4 17.0 24.3 16.9 25.3 16.7 26.3 16.5 27.3 16.3 28.2 16.2 29.2 16.0 30.2 15.9 31.2 15.8 32.2 15.6 33.1 15.5 34.1 15.4 35.1 15.3 36.1 15.3 37.1 15.2 38.1 15.1 39.1 15.1 40.1 15.0 41.1 15.0 42.0 15.0 43.0 15.0 44.0 15.0 45.0 15.0 46.0 15.0 46 15 47.0 16.0 47 16 47.3 18.9 47.6 21.7 47.9 24.6 48.2 27.4 48.5 30.3 48.7 33.1 49.0 36.0 49 36 48.5 36.5 48.5 36.5 47.5 36.5 46.5 36.5 45.5 36.5 44.5 36.5 43.5 36.5 42.5 36.5 41.5 36.6 40.5 36.6 39.5 36.7 38.5 36.8 37.5 36.8 36.5 36.9 35.6 37.0 34.6 37.1 33.6 37.3 32.6 37.4 31.6 37.5 30.6 37.7 29.6 37.8 28.6 38.0 27.7 38.2 26.7 38.4 25.7 38.6 24.7 38.8 23.8 39.0 22.8 39.2 21.8 39.5 20.8 39.7 19.9 40.0 18.9 40.2 18.0 40.5 17.0 40.8 16.1 41.1 15.1 41.4 14.2 41.7 13.2 42.0 12.3 42.4 11.3 42.7 10.4 43.1 9.5 43.4 8.5 43.8 7.6 44.2 6.7 44.6 5.8 45.0 4.9 45.4 4.0 45.8 3.1 46.2 2.2 46.6 1.3 47.1 0.4 47.5 -0.5 48.0 -0.5 48 -1.5 47.0 -1.5 47 -1.6 44.1 -1.7 41.3 -1.7 38.4 -1.7 35.6 -1.7 32.7 -1.6 29.9 -1.5 27.0 -1.5 27 -0.5 26.0 -0.5 26 Z"></path><ellipse cx="0" cy="0" rx="1.75" ry="1" fill="#FFF3BC" transform="translate(34,26) rotate(49)"></ellipse><ellipse cx="0" cy="0" rx="1.75" ry="1" fill="#FFF3BC" transform="translate(25,31) rotate(62)"></ellipse><ellipse cx="0" cy="0" rx="1.75" ry="1" fill="#FFF3BC" transform="translate(7,26) rotate(34)"></ellipse><ellipse cx="0" cy="0" rx="1.75" ry="1" fill="#FFF3BC" transform="translate(15,29) rotate(83)"></ellipse><ellipse cx="0" cy="0" rx="1.75" ry="1" fill="#FFF3BC" transform="translate(14,32) rotate(50)"></ellipse><ellipse cx="0" cy="0" rx="1.75" ry="1" fill="#FFF3BC" transform="translate(19,26) rotate(318)"></ellipse><ellipse cx="0" cy="0" rx="1.75" ry="1" fill="#FFF3BC" transform="translate(31,34) rotate(27)"></ellipse><ellipse cx="0" cy="0" rx="1.75" ry="1" fill="#FFF3BC" transform="translate(26,28) rotate(134)"></ellipse><ellipse cx="0" cy="0" rx="1.75" ry="1" fill="#FFF3BC" transform="translate(11,27) rotate(50)"></ellipse><ellipse cx="0" cy="0" rx="1.75" ry="1" fill="#FFF3BC" transform="translate(19,29) rotate(44)"></ellipse></g><g transform="scale(1.2) translate(60,20)"><path fill="gray" d="M1 91C  1.6 90.2 2.2 89.4 2.8 88.6 3.3 87.8 3.9 87.0 4.5 86.2 5.1 85.4 5.7 84.6 6.4 83.8 7.0 83.0 7.6 82.3 8.2 81.5 8.8 80.7 9.5 79.9 10.1 79.2 10.7 78.4 11.4 77.6 12.0 76.9 12.7 76.1 13.3 75.4 14.0 74.6 14.7 73.9 15.3 73.1 16.0 72.4 16.7 71.7 17.3 70.9 18.0 70.2 18.7 69.5 19.4 68.8 20.1 68.0 20.8 67.3 21.5 66.6 22.2 65.9 22.9 65.2 23.6 64.5 24.3 63.8 25.0 63.1 25.7 62.4 26.4 61.7 27.2 61.0 27.9 60.4 28.6 59.7 29.4 59.0 30.1 58.3 30.8 57.7 31.6 57.0 32.3 56.4 33.1 55.7 33.8 55.1 34.6 54.4 35.4 53.8 36.1 53.1 36.9 52.5 37.7 51.9 38.4 51.2 39.2 50.6 40.0 50.0 40 50 41.0 51.0 41 51 40.7 52.0 40.4 53.1 40.0 54.1 39.5 55.0 39.0 56.0 39 56 38.4 56.8 37.8 57.6 37.2 58.5 36.6 59.3 36.0 60.1 35.4 60.9 34.8 61.7 34.2 62.5 33.6 63.3 33.0 64.1 32.3 64.9 31.7 65.7 31.1 66.4 30.4 67.2 29.8 68.0 29.1 68.8 28.5 69.5 27.8 70.3 27.2 71.1 26.5 71.8 25.8 72.6 25.2 73.3 24.5 74.1 23.8 74.8 23.1 75.6 22.4 76.3 21.7 77.0 21.0 77.8 20.3 78.5 19.6 79.2 18.9 79.9 18.2 80.7 17.5 81.4 16.8 82.1 16.1 82.8 15.3 83.5 14.6 84.2 13.9 84.9 13.1 85.6 12.4 86.2 11.6 86.9 10.9 87.6 10.1 88.3 9.4 88.9 8.6 89.6 7.9 90.3 7.1 90.9 6.3 91.6 5.6 92.2 4.8 92.9 4.0 93.5 4 93.5 3.1 93.4 2.2 92.9 1.6 92.3 1.1 91.4 1.0 90.5 1 90.5 Z"></path><path fill="#FFD980" d="M1 90C  1.5 89.1 2.0 88.2 2.5 87.4 3.0 86.5 3.5 85.6 4.0 84.8 4.6 83.9 5.1 83.1 5.7 82.3 6.2 81.4 6.8 80.6 7.4 79.8 8.0 79.0 8.6 78.1 9.2 77.3 9.8 76.5 10.4 75.7 11.1 75.0 11.7 74.2 12.3 73.4 13.0 72.6 13.6 71.9 14.3 71.1 15.0 70.4 15.7 69.6 16.4 68.9 17.1 68.2 17.8 67.5 18.5 66.8 19.2 66.1 19.9 65.4 20.6 64.7 21.4 64.0 22.1 63.3 22.9 62.6 23.6 62.0 24.4 61.3 25.2 60.7 26.0 60.1 26.7 59.4 27.5 58.8 28.3 58.2 29.1 57.6 30.0 57.0 30.8 56.4 31.6 55.8 32.4 55.2 33.3 54.7 34.1 54.1 34.9 53.6 35.8 53.0 36.6 52.5 37.5 52.0 38.4 51.5 39.2 51.0 40.1 50.5 41.0 50.0 41 50 40.6 51.0 40.2 52.0 39.8 53.0 39.4 54.0 39.0 55.0 39 55 38.4 55.8 37.8 56.6 37.3 57.4 36.7 58.2 36.1 59.0 35.5 59.8 34.9 60.6 34.3 61.4 33.7 62.2 33.1 63.0 32.4 63.8 31.8 64.6 31.2 65.3 30.6 66.1 29.9 66.9 29.3 67.6 28.7 68.4 28.0 69.2 27.4 69.9 26.7 70.7 26.1 71.4 25.4 72.2 24.7 72.9 24.1 73.7 23.4 74.4 22.7 75.1 22.1 75.9 21.4 76.6 20.7 77.3 20.0 78.0 19.3 78.8 18.6 79.5 17.9 80.2 17.2 80.9 16.5 81.6 15.8 82.3 15.1 83.0 14.4 83.7 13.7 84.4 12.9 85.1 12.2 85.7 11.5 86.4 10.7 87.1 10.0 87.8 9.3 88.4 8.5 89.1 7.8 89.8 7.0 90.4 6.3 91.1 5.5 91.7 4.8 92.4 4.0 93.0 4 93 3.0 92.9 2.1 92.5 1.4 91.8 1.0 90.9 0.8 90.0 1.0 89.0 1 89 Z"></path><path fill="gray" d="M17 81C  17.9 80.5 18.6 79.9 19.4 79.2 20.0 78.5 20.6 77.7 21.1 76.8 21.5 75.9 21.9 74.9 22.1 74.0 22.2 73.0 22.2 72.0 22.2 71.0 22.0 70.0 22 70 22.9 70.5 23.9 70.9 24.9 71.1 26.0 71.1 27.0 71.0 27 71 26.3 71.8 25.7 72.5 25.0 73.3 24.3 74.0 23.6 74.7 22.9 75.5 22.2 76.2 21.5 76.9 20.7 77.6 20.0 78.3 19.3 79.0 18.5 79.7 17.8 80.3 17.0 81.0 17 81 Z" opacity="0.6"></path><path fill="#772C00" d="M0 40C  0.3 37.0 0.6 34.1 1.0 31.2 1.4 28.2 1.9 25.3 2.4 22.4 2.9 19.4 3.5 16.5 4.1 13.6 4.8 10.7 5.5 7.9 6.3 5.0 7.1 2.1 8.0 -0.7 8.8 -3.5 9.8 -6.3 10.7 -9.2 11.8 -11.9 12.8 -14.7 13.9 -17.5 15.0 -20.2 16.2 -22.9 17.4 -25.6 18.7 -28.3 20.0 -31.0 20 -31 21.0 -31.0 21 -31 21.3 -28.1 21.7 -25.1 22.2 -22.2 22.7 -19.3 23.3 -16.4 23.9 -13.5 24.6 -10.7 25.4 -7.8 26.2 -5.0 27.0 -2.1 27.9 0.7 28.9 3.5 29.9 6.2 31.0 9.0 31 9 32.0 11.8 33.0 14.7 33.9 17.6 34.7 20.5 35.6 23.4 36.3 26.3 37.1 29.2 37.8 32.2 38.4 35.1 39.0 38.1 39.6 41.1 40.1 44.0 40.6 47.0 41.0 50.0 41 50 38.4 51.5 35.9 53.1 33.4 54.7 31.0 56.5 28.6 58.3 26.3 60.1 24.0 62.1 21.8 64.1 19.7 66.2 17.6 68.3 15.6 70.5 13.7 72.7 11.8 75.1 10.0 77.4 8.2 79.8 6.6 82.3 5.0 84.8 3.4 87.4 2.0 90.0 2 90 1.0 90.0 1 90 0.7 87.1 0.4 84.1 0.2 81.2 0.0 78.3 -0.2 75.3 -0.3 72.4 -0.4 69.4 -0.5 66.5 -0.6 63.5 -0.6 60.6 -0.6 57.7 -0.6 54.7 -0.5 51.8 -0.4 48.8 -0.3 45.9 -0.2 42.9 -0.0 40.0 0 40 Z"></path><path fill="none" d="M20 -30C  19.7 -29.0 19.7 -28.0 19.6 -27.0 19.8 -26.0 19.6 -25.0 19.9 -24.0 19.0 -23.0 18.8 -22.1 19.4 -21.0 18.7 -20.1 18.9 -19.0 19.1 -18.0 18.6 -17.0 18.8 -16.0 19.2 -15.0 18.8 -14.0 19.0 -13.0 18.8 -12.0 18.2 -11.0 18.6 -10.0 18.6 -9.0 18.0 -8.0 18.7 -7.0 18.6 -6.0 17.9 -5.0 17.7 -4.0 18.5 -3.0 17.9 -2.0 18.2 -1.0 17.6 -0.0 17.6 1.0 18.0 2.0 17.5 3.0 17.9 4.0 18.3 5.0 18.0 6.0 17.8 7.0 17.9 8.0 17.4 9.0 17.9 10.0 18.3 11.0 17.5 12.0 18.2 13.0 17.6 14.0 18.1 15.0 18.2 16.0 17.7 17.0 17.3 18.0 18.1 19.0 17.5 20.0 17.8 21.0 17.3 22.0 18.2 23.0 17.3 24.0 17.4 25.0 17.6 26.0 18.3 27.0 18.2 28.0 17.7 29.0 17.6 30.0 18.2 31.0 18.1 32.0 18.1 33.0 18.1 34.0 18.3 35.0 18.3 36.0 18.5 37.0 18.3 38.0 17.9 39.0 18.6 40.0 18.0 41.0 17.9 42.0 18.6 43.0 18.0 44.0 19.0 45.0 18.6 46.0 19.0 47.0 19.1 48.0 19.0 49.0 19.3 50.0 18.8 51.0 18.8 52.0 18.6 53.1 19.4 54.0 19.0 55.0 19.4 56.0 19.8 57.0 19.5 58.0 19.8 59.0 19.8 60.0 20.0 61.0 20.1 62.0 19.6 63.0 20.3 64.0 19.9 65.0 20 65 19.8 64.0 19.4 63.0 19.4 62.0 19.9 61.0 19.3 60.0 19.1 59.0 19.6 58.0 19.1 57.0 19.1 56.0 18.9 55.0 19.0 54.0 19.1 53.0 19.0 52.0 18.6 51.0 18.6 50.0 18.6 49.0 19.0 48.0 18.7 47.0 18.2 46.0 18.7 45.0 18.5 44.0 18.4 43.0 18.6 42.0 17.9 41.0 18.3 40.0 18.3 39.0 18.3 38.0 18.6 37.0 17.8 36.0 17.6 35.0 18.3 34.0 18.4 33.0 17.5 32.0 17.4 31.0 18.1 30.0 17.9 29.0 18.1 28.0 18.1 27.0 17.8 26.0 17.7 25.0 17.8 24.0 17.7 23.0 17.3 22.0 17.7 21.0 17.3 20.0 18.2 19.0 17.5 18.0 17.3 17.0 17.3 16.0 18.1 15.0 17.5 14.0 17.7 13.0 17.8 12.0 17.6 11.0 17.9 10.0 18.2 9.0 18.0 8.0 18.0 7.0 17.9 6.0 17.4 5.0 17.7 4.0 18.4 3.0 17.6 2.0 18.5 1.0 17.7 -0.0 18.3 -1.0 18.0 -2.0 17.7 -3.0 18.5 -4.0 17.8 -5.0 18.7 -6.0 18.4 -7.0 18.8 -8.0 18.3 -9.0 18.2 -10.0 18.2 -11.0 18.9 -12.0 19.0 -13.0 19.1 -14.0 19.2 -15.0 18.6 -16.0 19.0 -17.0 18.8 -18.0 19.3 -19.0 18.9 -20.0 18.9 -21.0 19.2 -22.0 18.9 -23.1 19.2 -24.0 20.0 -25.0 19.6 -26.0 19.4 -27.0 19.7 -28.0 20.2 -29.0 19.6 -30.0 20 -30 " stroke="#461900" stroke-width="1"></path><path fill="#000D05" d="M2 25C  2.9 24.6 3.8 24.1 4.7 23.7 5.6 23.3 6.5 22.8 7.4 22.4 8.3 22.0 9.2 21.7 10.1 21.3 11.0 20.9 11.9 20.5 12.9 20.2 13.8 19.9 14.7 19.5 15.7 19.2 16.6 18.9 17.6 18.6 18.5 18.3 19.5 18.0 20.4 17.7 21.4 17.5 22.3 17.2 23.3 16.9 24.2 16.7 25.2 16.5 26.2 16.3 27.1 16.1 28.1 15.9 29.1 15.7 30.1 15.5 31.0 15.3 32.0 15.2 33.0 15.0 33 15 34.0 16.0 34 16 35.0 18.8 35.8 21.6 36.6 24.4 37.4 27.3 38.0 30.2 38.5 33.1 39.0 36.0 39 36 38.5 36.5 38.5 36.5 37.5 36.6 36.5 36.7 35.5 36.8 34.5 37.0 33.5 37.1 32.6 37.2 31.6 37.4 30.6 37.6 29.6 37.7 28.6 37.9 27.6 38.1 26.7 38.3 25.7 38.6 24.7 38.8 23.7 39.0 22.8 39.3 21.8 39.5 20.8 39.8 19.9 40.1 18.9 40.3 18.0 40.6 17.0 40.9 16.1 41.3 15.1 41.6 14.2 41.9 13.2 42.3 12.3 42.6 11.4 43.0 10.4 43.3 9.5 43.7 8.6 44.1 7.7 44.5 6.8 44.9 5.9 45.3 5.0 45.7 4.1 46.2 3.2 46.6 2.3 47.1 1.4 47.5 0.5 48.0 0.5 48 -0.5 47.0 -0.5 47 -0.5 44.1 -0.4 41.3 -0.3 38.4 -0.2 35.6 0.0 32.7 0.2 29.8 0.5 27.0 0.5 27 1.5 26.0 1.5 26 Z"></path><g transform="rotate(-10) translate(-7,3)"><ellipse cx="0" cy="0" rx="1.75" ry="1" fill="#FFF3BC" transform="translate(22,33) rotate(336)"></ellipse><ellipse cx="0" cy="0" rx="1.75" ry="1" fill="#FFF3BC" transform="translate(34,34) rotate(191)"></ellipse><ellipse cx="0" cy="0" rx="1.75" ry="1" fill="#FFF3BC" transform="translate(25,29) rotate(174)"></ellipse><ellipse cx="0" cy="0" rx="1.75" ry="1" fill="#FFF3BC" transform="translate(28,34) rotate(145)"></ellipse><ellipse cx="0" cy="0" rx="1.75" ry="1" fill="#FFF3BC" transform="translate(6,32) rotate(124)"></ellipse><ellipse cx="0" cy="0" rx="1.75" ry="1" fill="#FFF3BC" transform="translate(26,27) rotate(0)"></ellipse><ellipse cx="0" cy="0" rx="1.75" ry="1" fill="#FFF3BC" transform="translate(21,30) rotate(334)"></ellipse><ellipse cx="0" cy="0" rx="1.75" ry="1" fill="#FFF3BC" transform="translate(11,33) rotate(275)"></ellipse></g></g></g></g></svg>
