<svg version="1.1" baseProfile="full" xmlns="http://www.w3.org/2000/svg" width="300" height="300" style="background: gray">
<!-- made by Harry Li github.com/harryli0088 -->
<g transform="translate(150,150)"><circle cx="0" cy="0" r="150" fill="#eee"></circle><circle cx="0" cy="0" r="100" fill="none" stroke="#ddd" stroke-width="2"></circle><g transform="scale(1.4) translate(-55,-53)"><g transform="translate(50,0) scale(-1,1)"><path fill="#FFD9AA" d="M0 0C  2.9 0.5 5.7 1.2 8.6 1.9 11.4 2.6 14.2 3.5 17.0 4.5 19.7 5.5 22.4 6.6 25.1 7.8 27.7 9.1 30.3 10.4 32.9 11.8 35.4 13.3 37.9 14.9 40.3 16.5 42.7 18.2 45.0 20.0 45 20 45.3 23.0 45.6 26.1 45.9 29.1 46.2 32.1 46.5 35.2 46.8 38.2 47.0 41.3 47.3 44.3 47.5 47.3 47.8 50.4 48.0 53.4 48.2 56.5 48.4 59.5 48.6 62.6 48.8 65.6 49.0 68.7 49.2 71.7 49.3 74.8 49.5 77.8 49.6 80.9 49.8 83.9 49.9 87.0 50.0 90.0 50 90 49.9 93.1 49.9 96.2 49.9 99.2 49.8 102.3 49.8 105.4 49.8 108.5 49.8 111.5 49.8 114.6 49.8 117.7 49.9 120.8 49.9 123.8 49.9 126.9 50.0 130.0 50 130 49.0 131.0 49 131 46.2 130.2 43.4 129.3 40.6 128.3 37.9 127.2 35.2 126.1 32.5 124.8 29.9 123.5 27.3 122.1 24.7 120.7 22.2 119.1 19.7 117.5 17.3 115.8 15.0 114.1 12.7 112.3 10.4 110.4 8.2 108.4 6.1 106.4 4.0 104.3 2.0 102.2 -0.0 100.0 0 100 -0.1 97.0 -0.3 93.9 -0.4 90.9 -0.5 87.9 -0.6 84.9 -0.7 81.8 -0.8 78.8 -0.9 75.8 -1.0 72.7 -1.1 69.7 -1.1 66.7 -1.2 63.6 -1.2 60.6 -1.2 57.6 -1.2 54.5 -1.2 51.5 -1.2 48.5 -1.2 45.5 -1.2 42.4 -1.2 39.4 -1.2 36.4 -1.1 33.3 -1.1 30.3 -1.0 27.3 -0.9 24.2 -0.8 21.2 -0.7 18.2 -0.6 15.1 -0.5 12.1 -0.4 9.1 -0.3 6.1 -0.1 3.0 -0.0 0.0 0 0 Z"></path><path fill="#FF5353" d="M-1 30C  -0.9 33.0 -0.7 35.9 -0.6 38.9 -0.3 41.8 -0.1 44.8 0.2 47.8 0.5 50.7 0.8 53.7 1.1 56.6 1.5 59.5 1.9 62.5 2.4 65.4 2.8 68.3 3.3 71.3 3.9 74.2 4.4 77.1 5.0 80.0 5 80 5.3 83.0 5.8 86.1 6.3 89.1 6.9 92.0 7.6 95.0 8.4 98.0 9.3 100.9 10.2 103.8 11.3 106.6 12.5 109.5 13.7 112.2 15.0 115.0 15 115 12.7 113.1 10.4 111.0 8.2 109.0 6.0 106.8 4.0 104.6 1.9 102.3 -0.0 100.0 0 100 -0.1 97.0 -0.3 93.9 -0.4 90.9 -0.5 87.8 -0.6 84.8 -0.7 81.7 -0.8 78.7 -0.9 75.7 -1.0 72.6 -1.0 69.6 -1.1 66.5 -1.1 63.5 -1.2 60.4 -1.2 57.4 -1.2 54.4 -1.2 51.3 -1.2 48.3 -1.2 45.2 -1.2 42.2 -1.1 39.1 -1.1 36.1 -1.1 33.0 -1.0 30.0 -1 30 Z"></path><path fill="silver" d="M0 0C  -0.1 3.0 -0.2 6.0 -0.2 9.0 -0.3 12.0 -0.4 15.0 -0.4 18.0 -0.4 21.0 -0.5 24.0 -0.5 27.0 -0.5 30.0 -0.5 33.0 -0.5 36.0 -0.5 39.0 -0.4 42.0 -0.4 45.0 -0.4 48.0 -0.3 51.0 -0.2 54.0 -0.2 57.0 -0.1 60.0 0.0 63.0 0.1 66.0 0.2 69.0 0.3 72.0 0.5 75.0 0.6 78.0 0.7 81.0 0.9 84.0 1.1 87.0 1.2 90.0 1.4 93.0 1.6 96.0 1.8 99.0 2.0 102.0 2 102 -1.0 99.0 -1 99 -1.1 96.0 -1.3 93.1 -1.4 90.1 -1.5 87.1 -1.6 84.2 -1.7 81.2 -1.8 78.2 -1.9 75.2 -2.0 72.3 -2.0 69.3 -2.1 66.3 -2.1 63.4 -2.1 60.4 -2.2 57.4 -2.2 54.5 -2.2 51.5 -2.2 48.5 -2.2 45.5 -2.2 42.6 -2.1 39.6 -2.1 36.6 -2.1 33.7 -2.0 30.7 -2.0 27.7 -1.9 24.8 -1.8 21.8 -1.7 18.8 -1.6 15.8 -1.5 12.9 -1.4 9.9 -1.3 6.9 -1.1 4.0 -1.0 1.0 -1 1 Z"></path></g><g transform="translate(110,-20) scale(-1,1)"><path fill="#FFD9AA" d="M0 0C  2.9 0.5 5.7 1.2 8.6 1.9 11.4 2.6 14.2 3.5 17.0 4.5 19.7 5.5 22.4 6.6 25.1 7.8 27.7 9.1 30.3 10.4 32.9 11.8 35.4 13.3 37.9 14.9 40.3 16.5 42.7 18.2 45.0 20.0 45 20 45.3 23.0 45.6 26.1 45.9 29.1 46.2 32.1 46.5 35.2 46.8 38.2 47.0 41.3 47.3 44.3 47.5 47.3 47.8 50.4 48.0 53.4 48.2 56.5 48.4 59.5 48.6 62.6 48.8 65.6 49.0 68.7 49.2 71.7 49.3 74.8 49.5 77.8 49.6 80.9 49.8 83.9 49.9 87.0 50.0 90.0 50 90 49.9 93.1 49.9 96.2 49.9 99.2 49.8 102.3 49.8 105.4 49.8 108.5 49.8 111.5 49.8 114.6 49.8 117.7 49.9 120.8 49.9 123.8 49.9 126.9 50.0 130.0 50 130 49.0 131.0 49 131 46.2 130.2 43.4 129.3 40.6 128.3 37.9 127.2 35.2 126.1 32.5 124.8 29.9 123.5 27.3 122.1 24.7 120.7 22.2 119.1 19.7 117.5 17.3 115.8 15.0 114.1 12.7 112.3 10.4 110.4 8.2 108.4 6.1 106.4 4.0 104.3 2.0 102.2 -0.0 100.0 0 100 -0.1 97.0 -0.3 93.9 -0.4 90.9 -0.5 87.9 -0.6 84.9 -0.7 81.8 -0.8 78.8 -0.9 75.8 -1.0 72.7 -1.1 69.7 -1.1 66.7 -1.2 63.6 -1.2 60.6 -1.2 57.6 -1.2 54.5 -1.2 51.5 -1.2 48.5 -1.2 45.5 -1.2 42.4 -1.2 39.4 -1.2 36.4 -1.1 33.3 -1.1 30.3 -1.0 27.3 -0.9 24.2 -0.8 21.2 -0.7 18.2 -0.6 15.1 -0.5 12.1 -0.4 9.1 -0.3 6.1 -0.1 3.0 -0.0 0.0 0 0 Z"></path><path fill="#FF5353" d="M-1 30C  -0.9 33.0 -0.7 35.9 -0.6 38.9 -0.3 41.8 -0.1 44.8 0.2 47.8 0.5 50.7 0.8 53.7 1.1 56.6 1.5 59.5 1.9 62.5 2.4 65.4 2.8 68.3 3.3 71.3 3.9 74.2 4.4 77.1 5.0 80.0 5 80 5.3 83.0 5.8 86.1 6.3 89.1 6.9 92.0 7.6 95.0 8.4 98.0 9.3 100.9 10.2 103.8 11.3 106.6 12.5 109.5 13.7 112.2 15.0 115.0 15 115 12.7 113.1 10.4 111.0 8.2 109.0 6.0 106.8 4.0 104.6 1.9 102.3 -0.0 100.0 0 100 -0.1 97.0 -0.3 93.9 -0.4 90.9 -0.5 87.8 -0.6 84.8 -0.7 81.7 -0.8 78.7 -0.9 75.7 -1.0 72.6 -1.0 69.6 -1.1 66.5 -1.1 63.5 -1.2 60.4 -1.2 57.4 -1.2 54.4 -1.2 51.3 -1.2 48.3 -1.2 45.2 -1.2 42.2 -1.1 39.1 -1.1 36.1 -1.1 33.0 -1.0 30.0 -1 30 Z"></path><path fill="silver" d="M0 0C  -0.1 3.0 -0.2 6.0 -0.2 9.0 -0.3 12.0 -0.4 15.0 -0.4 18.0 -0.4 21.0 -0.5 24.0 -0.5 27.0 -0.5 30.0 -0.5 33.0 -0.5 36.0 -0.5 39.0 -0.4 42.0 -0.4 45.0 -0.4 48.0 -0.3 51.0 -0.2 54.0 -0.2 57.0 -0.1 60.0 0.0 63.0 0.1 66.0 0.2 69.0 0.3 72.0 0.5 75.0 0.6 78.0 0.7 81.0 0.9 84.0 1.1 87.0 1.2 90.0 1.4 93.0 1.6 96.0 1.8 99.0 2.0 102.0 2 102 -1.0 99.0 -1 99 -1.1 96.0 -1.3 93.1 -1.4 90.1 -1.5 87.1 -1.6 84.2 -1.7 81.2 -1.8 78.2 -1.9 75.2 -2.0 72.3 -2.0 69.3 -2.1 66.3 -2.1 63.4 -2.1 60.4 -2.2 57.4 -2.2 54.5 -2.2 51.5 -2.2 48.5 -2.2 45.5 -2.2 42.6 -2.1 39.6 -2.1 36.6 -2.1 33.7 -2.0 30.7 -2.0 27.7 -1.9 24.8 -1.8 21.8 -1.7 18.8 -1.6 15.8 -1.5 12.9 -1.4 9.9 -1.3 6.9 -1.1 4.0 -1.0 1.0 -1 1 Z"></path></g></g></g></svg>
